<?xml version="1.0" encoding="UTF-8" standalone="no"?>
<svg xmlns:xlink="http://www.w3.org/1999/xlink" height="83.4px" width="121.7px" xmlns="http://www.w3.org/2000/svg">
  <g transform="matrix(1.0, 0.0, 0.0, 1.0, 0.05, 0.05)">
    <path d="M87.4 0.0 L98.65 26.2 93.6 26.2 85.9 2.5 87.4 0.0 M117.55 44.85 L112.0 44.85 111.8 44.65 111.55 44.35 111.0 43.8 Q109.5 42.4 107.55 42.3 L107.3 42.3 107.05 42.3 106.85 42.3 103.85 42.3 107.35 36.15 113.85 36.15 116.95 43.4 117.55 44.85 M112.15 55.75 L112.2 55.7 117.55 55.7 116.95 57.1 113.85 64.4 107.35 64.4 103.95 58.45 106.2 58.45 107.0 58.5 107.1 58.5 Q109.35 58.45 111.0 57.0 L111.55 56.5 111.8 56.2 112.15 55.75 M45.55 77.5 L35.05 77.5 34.1 74.35 14.5 66.8 11.7 62.6 32.1 67.9 31.15 64.7 30.15 61.5 31.15 64.7 27.95 64.05 4.0 52.45 0.2 47.15 23.45 53.45 26.3 60.2 30.7 60.2 30.15 61.5 48.6 61.5 53.5 77.5 45.55 77.5 M20.85 47.35 L1.9 38.75 0.0 34.85 21.05 41.6 20.7 47.0 20.85 47.35 M74.35 15.4 L70.15 2.5 71.65 0.0 82.7 25.8 82.6 25.8 82.8 26.2 77.9 26.2 77.85 26.2 74.35 15.4 M108.0 55.25 Q109.25 55.0 110.15 53.9 L110.65 53.15 111.3 51.5 111.4 50.3 Q111.4 48.15 110.15 46.65 109.6 46.0 108.9 45.65 L108.0 45.25 108.9 45.1 Q109.9 45.1 110.75 45.65 L111.55 46.2 111.95 46.65 Q113.25 48.15 113.25 50.3 L113.1 51.5 112.5 53.15 111.95 53.9 111.55 54.35 Q110.45 55.4 108.9 55.4 L108.0 55.25 M34.1 74.35 L32.1 67.9 34.1 74.35 M37.1 64.25 L34.0 64.25 36.55 72.55 39.65 72.55 42.65 72.55 45.75 72.55 49.1 72.55 46.55 64.25 43.2 64.25 40.1 64.25 37.1 64.25 M62.25 64.2 L66.0 70.75 59.4 70.75 56.5 70.75 54.2 64.1 55.65 64.2 55.75 64.2 62.25 64.2" fill="#333333" fill-rule="evenodd" stroke="none"/>
    <path d="M87.4 0.0 L90.8 0.0 106.05 26.2 98.65 26.2 87.4 0.0 M11.7 62.6 L11.7 60.6 27.95 64.05 31.15 64.7 32.1 67.9 11.7 62.6 M0.2 47.15 L0.9 44.65 21.95 49.95 23.45 53.45 0.2 47.15 M0.0 34.85 L1.4 32.75 23.75 37.75 21.1 40.2 21.05 41.6 0.0 34.85 M71.65 0.0 L75.05 0.0 90.3 26.2 89.35 26.2 87.7 26.2 82.9 26.2 82.7 25.8 71.65 0.0 M30.7 60.2 L33.95 52.75 44.35 52.75 Q44.65 55.2 45.7 57.3 46.45 58.8 47.55 60.15 L48.85 61.5 48.6 61.5 48.85 61.5 Q51.25 63.65 54.2 64.1 L56.5 70.75 59.4 70.75 55.25 77.5 53.5 77.5 48.6 61.5 30.15 61.5 30.7 60.2" fill="#4c4c4c" fill-rule="evenodd" stroke="none"/>
    <path d="M98.65 26.2 L106.05 26.2 106.9 26.2 108.65 27.3 111.2 29.0 113.75 30.65 116.3 32.3 103.9 32.3 99.95 30.65 95.95 29.0 92.05 27.3 92.0 27.3 89.35 26.2 90.3 26.2 93.6 26.2 98.65 26.2 M104.95 29.0 L95.95 29.0 104.95 29.0 M104.95 30.65 L99.95 30.65 104.95 30.65 M104.95 27.3 L92.05 27.3 104.95 27.3 M105.55 29.0 L111.2 29.0 105.55 29.0 M108.65 27.3 L105.55 27.3 108.65 27.3 M105.55 30.65 L113.75 30.65 105.55 30.65" fill="#b2b2b2" fill-rule="evenodd" stroke="none"/>
    <path d="M89.35 74.35 L87.7 74.35 85.9 74.35 78.6 83.3 67.65 83.3 74.05 74.35 77.9 74.35 82.8 74.35 85.9 74.35 82.8 74.35 77.9 74.35 74.05 74.35 72.95 74.35 68.05 74.35 66.0 70.75 62.25 64.2 61.4 62.7 64.7 59.9 68.05 57.1 68.05 57.05 72.95 57.05 77.85 57.05 80.5 61.7 77.85 57.05 82.8 57.05 87.7 57.05 90.35 61.7 87.7 57.05 92.6 57.05 97.55 57.05 103.9 68.25 99.95 69.9 95.95 71.6 92.05 73.25 92.0 73.25 85.75 62.3 92.0 73.25 89.35 74.35 M23.75 37.75 L28.7 33.0 64.2 33.0 68.05 26.2 72.95 26.2 77.85 26.2 72.95 26.2 66.05 38.25 72.95 26.2 67.35 15.4 74.35 15.4 77.85 26.2 77.85 26.3 77.85 26.2 77.9 26.2 82.8 26.2 82.7 26.45 75.9 38.25 82.7 26.45 82.8 26.2 82.9 26.2 87.7 26.2 89.35 26.2 92.0 27.3 92.05 27.3 95.95 29.0 99.95 30.65 95.6 38.25 99.95 30.65 103.9 32.3 97.6 43.35 92.7 43.35 87.8 43.35 82.85 43.35 85.4 38.85 82.85 43.35 77.95 43.35 73.0 43.35 75.55 38.85 73.0 43.35 68.3 43.35 68.1 43.4 68.05 43.35 64.7 40.7 61.3 38.05 64.2 33.0 61.3 38.05 60.5 39.4 62.15 36.5 55.75 36.5 55.65 36.5 Q53.05 36.5 50.85 37.7 L50.1 38.2 48.5 39.6 47.9 40.2 21.1 40.2 23.75 37.75 M90.35 38.85 L87.8 43.35 90.35 38.85 M85.75 38.25 L92.0 27.3 85.75 38.25 M90.65 38.25 L95.95 29.0 90.65 38.25 M95.25 38.85 L92.7 43.35 95.25 38.85 M95.25 61.7 L92.6 57.05 95.25 61.7 M85.4 61.7 L82.8 57.05 85.4 61.7 M90.65 62.3 L95.95 71.6 90.65 62.3 M95.6 62.3 L99.95 69.9 95.6 62.3 M71.0 38.25 L77.85 26.3 77.9 26.2 77.85 26.3 71.0 38.25 M65.75 38.85 L64.7 40.7 65.75 38.85 M80.5 38.85 L77.95 43.35 80.5 38.85 M70.65 38.85 L68.1 43.35 68.3 43.35 68.1 43.35 68.1 43.4 68.1 43.35 68.05 43.35 68.1 43.35 70.65 38.85 M75.55 61.7 L72.95 57.05 75.55 61.7 M70.65 61.7 L68.05 57.1 70.65 61.7 M65.75 61.7 L64.7 59.9 65.75 61.7 M66.05 62.3 L72.95 74.35 66.05 62.3 M71.0 62.3 L77.9 74.35 71.0 62.3 M75.9 62.3 L82.8 74.35 75.9 62.3 M80.85 62.3 L87.7 74.35 80.85 62.3 M80.85 38.25 L87.7 26.2 80.85 38.25" fill="#7f7f7f" fill-rule="evenodd" stroke="none"/>
    <path d="M121.0 43.35 L121.6 44.85 117.55 44.85 116.95 43.4 121.0 43.35 M117.55 55.7 L121.6 55.7 121.0 57.1 116.95 57.1 117.55 55.7 M116.3 68.25 L113.75 69.9 111.2 71.6 108.65 73.25 106.9 74.35 89.35 74.35 92.0 73.25 92.05 73.25 95.95 71.6 99.95 69.9 103.9 68.25 116.3 68.25 M67.65 83.3 L51.2 83.3 45.55 77.5 53.5 77.5 55.25 77.5 59.4 70.75 66.0 70.75 68.05 74.35 72.95 74.35 74.05 74.35 67.65 83.3 M21.95 49.95 L20.85 47.35 20.7 47.0 21.05 41.6 21.6 41.75 21.05 41.6 21.1 40.2 47.9 40.2 47.55 40.55 47.25 40.95 Q45.35 43.35 44.65 46.35 L44.5 47.0 Q44.3 47.95 44.25 49.0 L44.2 50.35 44.2 51.4 44.35 52.75 33.95 52.75 30.7 60.2 26.3 60.2 23.45 53.45 21.95 49.95 M28.7 33.0 L28.7 26.6 39.5 15.4 67.35 15.4 72.95 26.2 68.05 26.2 64.2 33.0 28.7 33.0 M82.85 43.35 L87.8 43.35 92.7 43.35 97.6 43.35 96.75 44.85 97.6 43.35 103.25 43.35 102.9 44.0 102.4 44.85 102.1 44.85 102.0 44.85 96.75 44.85 71.5 44.85 67.25 44.85 64.45 42.55 63.25 41.6 60.75 39.6 60.5 39.4 61.3 38.05 64.7 40.7 68.05 43.35 68.1 43.4 68.3 43.35 73.0 43.35 77.95 43.35 82.85 43.35 M101.9 55.7 L102.4 55.7 103.2 57.05 97.55 57.05 92.6 57.05 87.7 57.05 82.8 57.05 77.85 57.05 72.95 57.05 68.05 57.05 68.05 57.1 64.7 59.9 61.4 62.7 60.5 61.2 60.65 61.05 67.25 55.7 71.65 55.7 96.75 55.7 101.9 55.7 M111.2 71.6 L105.55 71.6 111.2 71.6 M108.65 73.25 L105.55 73.25 108.65 73.25 M97.55 57.05 L96.75 55.7 97.55 57.05 M105.55 69.9 L113.75 69.9 105.55 69.9 M104.95 69.9 L99.95 69.9 104.95 69.9 M104.95 73.25 L92.05 73.25 104.95 73.25 M95.95 71.6 L104.95 71.6 95.95 71.6 M42.1 20.2 L38.5 23.8 67.3 23.8 65.1 20.2 42.1 20.2 M37.3 25.8 L34.9 28.0 50.7 28.0 50.7 25.8 37.3 25.8 M68.1 43.4 L67.25 44.85 68.1 43.4 M21.3 47.55 L20.85 47.35 21.3 47.55 M44.5 47.0 L20.7 47.0 44.5 47.0 M67.25 55.7 L68.05 57.05 67.25 55.7" fill="#666666" fill-rule="evenodd" stroke="none"/>
    <path d="M111.8 44.65 L112.55 45.65 Q113.8 47.7 113.8 50.45 L113.65 52.35 Q113.35 53.75 112.65 55.0 L112.15 55.75 111.8 56.2 111.55 56.5 111.0 57.0 Q109.35 58.45 107.1 58.5 L107.0 58.5 106.2 58.45 Q105.0 58.3 104.0 57.7 L103.2 57.1 103.2 57.05 102.4 55.7 101.9 55.7 Q100.3 53.4 100.3 50.45 100.3 47.7 101.55 45.65 L102.1 44.85 102.4 44.85 102.9 44.0 103.1 43.8 103.95 43.15 104.2 43.05 Q105.35 42.35 106.85 42.3 L107.05 42.3 107.3 42.3 107.55 42.3 Q109.5 42.4 111.0 43.8 L111.55 44.35 111.8 44.65 M108.0 55.25 L108.9 55.4 Q110.45 55.4 111.55 54.35 L111.95 53.9 112.5 53.15 113.1 51.5 113.25 50.3 Q113.25 48.15 111.95 46.65 L111.55 46.2 110.75 45.65 Q109.9 45.1 108.9 45.1 L108.0 45.25 107.15 45.65 105.95 46.65 Q104.7 48.15 104.7 50.3 104.7 52.4 105.95 53.9 106.85 55.0 108.0 55.25" fill="url(#gradient0)" fill-rule="evenodd" stroke="none"/>
    <path d="M106.85 42.3 Q105.35 42.35 104.2 43.05 L103.95 43.15 103.1 43.8 102.9 44.0 103.25 43.35 103.45 43.0 103.85 42.3 106.85 42.3 M102.1 44.85 L101.55 45.65 Q100.3 47.7 100.3 50.45 100.3 53.4 101.9 55.7 L96.75 55.7 71.65 55.7 71.1 54.45 Q70.6 53.05 70.45 51.5 L70.4 50.15 Q70.4 48.1 70.95 46.35 L71.15 45.75 71.5 44.85 96.75 44.85 102.0 44.85 102.1 44.85 M103.2 57.1 L104.0 57.7 Q105.0 58.3 106.2 58.45 L103.95 58.45 103.3 57.3 103.2 57.1" fill="url(#gradient1)" fill-rule="evenodd" stroke="none"/>
    <path d="M116.3 32.3 L121.0 43.35 116.95 43.4 113.85 36.15 107.35 36.15 103.85 42.3 103.45 43.0 103.25 43.35 97.6 43.35 103.9 32.3 116.3 32.3 M121.0 57.1 L116.3 68.25 103.9 68.25 97.55 57.05 103.2 57.05 103.2 57.1 103.3 57.3 103.95 58.45 107.35 64.4 113.85 64.4 116.95 57.1 121.0 57.1" fill="#999999" fill-rule="evenodd" stroke="none"/>
    <path d="M108.0 45.25 L108.9 45.65 Q109.6 46.0 110.15 46.65 111.4 48.15 111.4 50.3 L111.3 51.5 110.65 53.15 110.15 53.9 Q109.25 55.0 108.0 55.25 106.85 55.0 105.95 53.9 104.7 52.4 104.7 50.3 104.7 48.15 105.95 46.65 L107.15 45.65 108.0 45.25" fill="url(#gradient2)" fill-rule="evenodd" stroke="none"/>
    <path d="M42.1 20.2 L65.1 20.2 67.3 23.8 38.5 23.8 42.1 20.2" fill="url(#gradient3)" fill-rule="evenodd" stroke="none"/>
    <path d="M37.3 25.8 L50.7 25.8 50.7 28.0 34.9 28.0 37.3 25.8" fill="url(#gradient4)" fill-rule="evenodd" stroke="none"/>
    <path d="M47.9 40.2 L48.5 39.6 50.1 38.2 50.85 37.7 Q53.05 36.5 55.65 36.5 L55.75 36.5 62.15 36.5 60.5 39.4 60.75 39.6 59.85 40.55 Q58.8 41.8 58.1 43.2 57.35 44.65 56.95 46.35 56.5 48.25 56.5 50.35 L56.5 51.4 Q56.7 54.65 58.0 57.3 L58.35 57.95 59.85 60.15 60.65 61.05 60.5 61.2 61.4 62.7 62.25 64.2 55.75 64.2 55.65 64.2 54.2 64.1 Q51.25 63.65 48.85 61.5 L47.55 60.15 Q46.45 58.8 45.7 57.3 44.65 55.2 44.35 52.75 L44.2 51.4 44.2 50.35 44.25 49.0 Q44.3 47.95 44.5 47.0 L44.65 46.35 Q45.35 43.35 47.25 40.95 L47.55 40.55 47.9 40.2 M48.7 51.4 L44.2 51.4 48.7 51.4 M48.7 57.3 L45.7 57.3 48.7 57.3 M58.0 57.3 L50.1 57.3 58.0 57.3 M56.5 51.4 L50.1 51.4 56.5 51.4" fill="url(#gradient5)" fill-rule="evenodd" stroke="none"/>
    <path d="M71.5 44.85 L71.15 45.75 70.95 46.35 Q70.4 48.1 70.4 50.15 L70.45 51.5 Q70.6 53.05 71.1 54.45 L71.65 55.7 67.25 55.7 60.65 61.05 59.85 60.15 58.35 57.95 58.0 57.3 Q56.7 54.65 56.5 51.4 L56.5 50.35 Q56.5 48.25 56.95 46.35 57.35 44.65 58.1 43.2 58.8 41.8 59.85 40.55 L60.75 39.6 63.25 41.6 64.45 42.55 67.25 44.85 71.5 44.85" fill="url(#gradient6)" fill-rule="evenodd" stroke="none"/>
    <path d="M39.65 72.55 L36.55 72.55 34.0 64.25 37.1 64.25 40.1 64.25 41.55 69.0 40.1 64.25 43.2 64.25 46.55 64.25 49.1 72.55 45.75 72.55 42.65 72.55 41.7 69.4 42.65 72.55 39.65 72.55 38.7 69.4 39.65 72.55 M38.55 69.0 L37.1 64.25 38.55 69.0 M44.8 69.4 L45.75 72.55 44.8 69.4 M44.65 69.0 L43.2 64.25 44.65 69.0" fill="url(#gradient7)" fill-rule="evenodd" stroke="none"/>
    <path d="M106.05 26.2 L90.8 0.0 87.4 0.0 98.65 26.2 106.05 26.2 106.9 26.2 108.65 27.3 111.2 29.0 113.75 30.65 116.3 32.3 121.0 43.35 121.6 44.85 117.55 44.85 112.0 44.85 111.8 44.65 112.55 45.65 Q113.8 47.7 113.8 50.45 L113.65 52.35 Q113.35 53.75 112.65 55.0 L112.15 55.75 112.2 55.7 117.55 55.7 121.6 55.7 121.0 57.1 116.3 68.25 113.75 69.9 111.2 71.6 108.65 73.25 106.9 74.35 89.35 74.35 87.7 74.35 85.9 74.35 78.6 83.3 67.65 83.3 51.2 83.3 45.55 77.5 35.05 77.5 34.1 74.35 14.5 66.8 11.7 62.6 11.7 60.6 27.95 64.05 4.0 52.45 0.2 47.15 0.9 44.65 21.95 49.95 20.85 47.35 1.9 38.75 0.0 34.85 1.4 32.75 23.75 37.75 28.7 33.0 28.7 26.6 39.5 15.4 67.35 15.4 74.35 15.4 70.15 2.5 71.65 0.0 75.05 0.0 90.3 26.2 93.6 26.2 85.9 2.5 87.4 0.0 M93.6 26.2 L98.65 26.2 M92.05 27.3 L95.95 29.0 104.95 29.0 M95.95 29.0 L99.95 30.65 104.95 30.65 M92.05 27.3 L104.95 27.3 M82.8 26.2 L82.6 25.8 82.7 25.8 71.65 0.0 M82.7 25.8 L82.9 26.2 87.7 26.2 89.35 26.2 90.3 26.2 M82.8 26.2 L82.7 26.45 75.9 38.25 M82.8 26.2 L82.9 26.2 M82.85 43.35 L87.8 43.35 90.35 38.85 M82.85 43.35 L85.4 38.85 M96.75 44.85 L97.6 43.35 92.7 43.35 87.8 43.35 M92.7 43.35 L95.25 38.85 M95.95 29.0 L90.65 38.25 M99.95 30.65 L95.6 38.25 M92.0 27.3 L85.75 38.25 M89.35 26.2 L92.0 27.3 M105.55 27.3 L108.65 27.3 M111.2 29.0 L105.55 29.0 M111.8 44.65 L111.55 44.35 111.0 43.8 Q109.5 42.4 107.55 42.3 L107.3 42.3 107.05 42.3 106.85 42.3 Q105.35 42.35 104.2 43.05 L103.95 43.15 103.1 43.8 102.9 44.0 102.4 44.85 M102.1 44.85 L101.55 45.65 Q100.3 47.7 100.3 50.45 100.3 53.4 101.9 55.7 L102.4 55.7 103.2 57.05 M104.0 57.7 Q105.0 58.3 106.2 58.45 L107.0 58.5 107.1 58.5 Q109.35 58.45 111.0 57.0 L111.55 56.5 111.8 56.2 112.15 55.75 M103.85 42.3 L103.45 43.0 M103.25 43.35 L102.9 44.0 M102.0 44.85 L96.75 44.85 71.5 44.85 71.15 45.75 70.95 46.35 Q70.4 48.1 70.4 50.15 L70.45 51.5 Q70.6 53.05 71.1 54.45 L71.65 55.7 96.75 55.7 101.9 55.7 M108.0 45.25 L108.9 45.65 Q109.6 46.0 110.15 46.65 111.4 48.15 111.4 50.3 L111.3 51.5 110.65 53.15 110.15 53.9 Q109.25 55.0 108.0 55.25 L108.9 55.4 Q110.45 55.4 111.55 54.35 L111.95 53.9 112.5 53.15 113.1 51.5 113.25 50.3 Q113.25 48.15 111.95 46.65 L111.55 46.2 110.75 45.65 Q109.9 45.1 108.9 45.1 L108.0 45.25 107.15 45.65 105.95 46.65 Q104.7 48.15 104.7 50.3 104.7 52.4 105.95 53.9 106.85 55.0 108.0 55.25 M106.85 42.3 L103.85 42.3 107.35 36.15 113.85 36.15 116.95 43.4 121.0 43.35 M117.55 44.85 L116.95 43.4 M103.9 32.3 L116.3 32.3 M113.75 30.65 L105.55 30.65 M97.6 43.35 L103.9 32.3 99.95 30.65 M103.25 43.35 L97.6 43.35 M116.95 57.1 L117.55 55.7 M116.95 57.1 L121.0 57.1 M103.3 57.3 L103.95 58.45 106.2 58.45 M105.55 73.25 L108.65 73.25 M105.55 71.6 L111.2 71.6 M103.95 58.45 L107.35 64.4 113.85 64.4 116.95 57.1 M116.3 68.25 L103.9 68.25 99.95 69.9 104.95 69.9 M113.75 69.9 L105.55 69.9 M96.75 55.7 L97.55 57.05 103.2 57.05 M97.55 57.05 L92.6 57.05 95.25 61.7 M87.7 57.05 L82.8 57.05 85.4 61.7 M87.7 57.05 L90.35 61.7 M92.05 73.25 L95.95 71.6 90.65 62.3 M95.95 71.6 L99.95 69.9 95.6 62.3 M92.05 73.25 L104.95 73.25 M92.0 73.25 L85.75 62.3 M92.6 57.05 L87.7 57.05 M85.9 74.35 L82.8 74.35 77.9 74.35 74.05 74.35 67.65 83.3 M97.55 57.05 L103.9 68.25 M104.95 71.6 L95.95 71.6 M89.35 74.35 L92.0 73.25 M42.1 20.2 L65.1 20.2 67.3 23.8 38.5 23.8 42.1 20.2 M62.15 36.5 L55.75 36.5 55.65 36.5 Q53.05 36.5 50.85 37.7 L50.1 38.2 48.5 39.6 47.9 40.2 47.55 40.55 47.25 40.95 Q45.35 43.35 44.65 46.35 L44.5 47.0 Q44.3 47.95 44.25 49.0 L44.2 50.35 44.2 51.4 48.7 51.4 M37.3 25.8 L50.7 25.8 50.7 28.0 34.9 28.0 37.3 25.8 M60.75 39.6 L59.85 40.55 Q58.8 41.8 58.1 43.2 57.35 44.65 56.95 46.35 56.5 48.25 56.5 50.35 L56.5 51.4 Q56.7 54.65 58.0 57.3 L58.35 57.95 59.85 60.15 60.65 61.05 67.25 55.7 71.65 55.7 M72.95 26.2 L77.85 26.2 74.35 15.4 M77.9 26.2 L77.85 26.3 71.0 38.25 M77.85 26.2 L77.85 26.3 M77.85 26.2 L77.9 26.2 82.8 26.2 M72.95 26.2 L68.05 26.2 64.2 33.0 61.3 38.05 64.7 40.7 65.75 38.85 M60.75 39.6 L63.25 41.6 M64.45 42.55 L67.25 44.85 68.1 43.4 68.05 43.35 64.7 40.7 M68.1 43.4 L68.3 43.35 68.1 43.35 68.1 43.4 M68.1 43.35 L68.05 43.35 M68.1 43.35 L70.65 38.85 M77.95 43.35 L80.5 38.85 M73.0 43.35 L77.95 43.35 82.85 43.35 M73.0 43.35 L75.55 38.85 M72.95 26.2 L66.05 38.25 M68.3 43.35 L73.0 43.35 M67.25 44.85 L71.5 44.85 M60.5 39.4 L61.3 38.05 M72.95 26.2 L67.35 15.4 M60.5 39.4 L60.75 39.6 M20.7 47.0 L20.85 47.35 21.3 47.55 M21.05 41.6 L21.6 41.75 M21.05 41.6 L20.7 47.0 44.5 47.0 M21.1 40.2 L21.05 41.6 0.0 34.85 M23.75 37.75 L21.1 40.2 47.9 40.2 M44.35 52.75 L33.95 52.75 30.7 60.2 30.15 61.5 48.6 61.5 48.85 61.5 47.55 60.15 Q46.45 58.8 45.7 57.3 44.65 55.2 44.35 52.75 L44.2 51.4 M23.45 53.45 L26.3 60.2 30.7 60.2 M21.95 49.95 L23.45 53.45 0.2 47.15 M31.15 64.7 L32.1 67.9 34.1 74.35 M37.1 64.25 L34.0 64.25 36.55 72.55 39.65 72.55 38.7 69.4 M40.1 64.25 L37.1 64.25 38.55 69.0 M30.15 61.5 L31.15 64.7 27.95 64.05 M11.7 62.6 L32.1 67.9 M77.85 57.05 L80.5 61.7 M72.95 57.05 L75.55 61.7 M77.85 57.05 L72.95 57.05 68.05 57.05 67.25 55.7 M68.05 57.1 L70.65 61.7 M61.4 62.7 L64.7 59.9 68.05 57.1 M64.7 59.9 L65.75 61.7 M62.25 64.2 L61.4 62.7 60.5 61.2 60.65 61.05 M66.0 70.75 L62.25 64.2 55.75 64.2 55.65 64.2 54.2 64.1 56.5 70.75 59.4 70.75 66.0 70.75 68.05 74.35 72.95 74.35 66.05 62.3 M45.7 57.3 L48.7 57.3 M42.65 72.55 L45.75 72.55 44.8 69.4 M45.75 72.55 L49.1 72.55 46.55 64.25 43.2 64.25 44.65 69.0 M41.7 69.4 L42.65 72.55 39.65 72.55 M50.1 51.4 L56.5 51.4 M50.1 57.3 L58.0 57.3 M54.2 64.1 Q51.25 63.65 48.85 61.5 M53.5 77.5 L45.55 77.5 M59.4 70.75 L55.25 77.5 53.5 77.5 48.6 61.5 M74.05 74.35 L72.95 74.35 M77.9 74.35 L71.0 62.3 M28.7 33.0 L64.2 33.0 M40.1 64.25 L41.55 69.0 M43.2 64.25 L40.1 64.25 M87.7 74.35 L80.85 62.3 M82.8 74.35 L75.9 62.3 M82.8 57.05 L77.85 57.05 M87.7 26.2 L80.85 38.25" fill="none" stroke="#000000" stroke-width="0.7" stroke-opacity="0.4"/>
  </g>
  <defs>
    <radialGradient cx="0" cy="0" gradientTransform="matrix(0.0166, 0.0, 0.0, 0.0166, 101.45, 47.25)" gradientUnits="userSpaceOnUse" id="gradient0" r="819.2" spreadMethod="pad">
      <stop offset="0.0" stop-color="#999999"/>
      <stop offset="1.0" stop-color="#333333"/>
    </radialGradient>
    <linearGradient gradientTransform="matrix(0.0, 0.0099, -0.0262, 0.0, 85.35, 50.35)" gradientUnits="userSpaceOnUse" id="gradient1" spreadMethod="pad" x1="-819.2" x2="819.2">
      <stop offset="0.0" stop-color="#666666"/>
      <stop offset="0.27" stop-color="#999999"/>
      <stop offset="1.0" stop-color="#333333"/>
    </linearGradient>
    <radialGradient cx="0" cy="0" gradientTransform="matrix(0.007, 0.0, 0.0, 0.007, 106.4, 49.95)" gradientUnits="userSpaceOnUse" id="gradient2" r="819.2" spreadMethod="pad">
      <stop offset="0.15" stop-color="#00fff7"/>
      <stop offset="0.95" stop-color="#1954ff"/>
    </radialGradient>
    <radialGradient cx="0" cy="0" gradientTransform="matrix(0.029, 0.0, 0.0, 0.029, 43.6, 22.35)" gradientUnits="userSpaceOnUse" id="gradient3" r="819.2" spreadMethod="pad">
      <stop offset="0.15" stop-color="#00fff7"/>
      <stop offset="0.95" stop-color="#1954ff"/>
    </radialGradient>
    <radialGradient cx="0" cy="0" gradientTransform="matrix(0.0165, 0.0, 0.0, 0.0165, 37.2, 26.75)" gradientUnits="userSpaceOnUse" id="gradient4" r="819.2" spreadMethod="pad">
      <stop offset="0.15" stop-color="#00fff7"/>
      <stop offset="0.95" stop-color="#1954ff"/>
    </radialGradient>
    <linearGradient gradientTransform="matrix(-3.0E-4, 0.017, -0.0112, -2.0E-4, 53.35, 50.25)" gradientUnits="userSpaceOnUse" id="gradient5" spreadMethod="pad" x1="-819.2" x2="819.2">
      <stop offset="0.0" stop-color="#353535"/>
      <stop offset="0.27" stop-color="#666666"/>
      <stop offset="0.7" stop-color="#333333"/>
      <stop offset="0.91" stop-color="#464444"/>
    </linearGradient>
    <linearGradient gradientTransform="matrix(-2.0E-4, 0.0131, -0.0093, -1.0E-4, 64.15, 50.35)" gradientUnits="userSpaceOnUse" id="gradient6" spreadMethod="pad" x1="-819.2" x2="819.2">
      <stop offset="0.0" stop-color="#353535"/>
      <stop offset="0.27" stop-color="#666666"/>
      <stop offset="0.7" stop-color="#333333"/>
    </linearGradient>
    <radialGradient cx="0" cy="0" gradientTransform="matrix(0.0165, 0.0, 0.0, 0.0165, 36.4, 67.95)" gradientUnits="userSpaceOnUse" id="gradient7" r="819.2" spreadMethod="pad">
      <stop offset="0.15" stop-color="#00fff7"/>
      <stop offset="0.95" stop-color="#1954ff"/>
    </radialGradient>
  </defs>
</svg>
