<?xml version="1.0" encoding="UTF-8" standalone="no"?>
<svg xmlns:xlink="http://www.w3.org/1999/xlink" height="61.45px" width="156.3px" xmlns="http://www.w3.org/2000/svg">
  <g transform="matrix(1.0, 0.0, 0.0, 1.0, 0.05, 0.05)">
    <path d="M153.25 22.4 L149.65 22.4 148.05 18.4 150.35 15.1 153.25 22.4 M108.5 14.15 L107.5 16.85 105.25 22.3 105.7 24.2 93.55 20.65 92.0 20.15 88.6 19.2 93.4 14.15 88.6 19.2 85.25 18.2 89.1 14.15 93.4 14.15 97.7 14.15 108.5 14.15 M52.05 51.7 L52.05 54.9 52.05 61.05 48.15 61.05 46.35 54.95 43.05 43.65 48.0 44.25 48.8 50.85 52.05 51.7 M36.55 46.25 L29.3 54.9 24.05 61.05 19.8 61.05 23.3 54.9 32.0 39.75 39.1 43.25 36.55 46.25 M20.95 2.8 L25.4 0.4 33.2 7.1 33.3 11.35 30.25 14.5 20.95 2.8 M37.25 2.8 L41.75 0.4 42.65 1.15 43.3 1.7 43.45 0.4 47.85 2.8 48.35 4.85 47.25 5.15 51.8 9.1 51.4 9.5 46.6 14.5 37.25 2.8 M59.75 0.4 L61.7 1.45 59.5 2.0 59.75 0.4 M97.7 14.15 L92.0 20.15 97.7 14.15 M47.25 5.15 L43.3 1.7 47.25 5.15 M29.3 54.9 L23.3 54.9 29.3 54.9 M52.05 54.9 L46.35 54.95 52.05 54.9" fill="#555555" fill-rule="evenodd" stroke="none"/>
    <path d="M125.6 11.2 L111.45 11.2 112.7 6.35 112.8 5.9 113.15 4.45 120.05 4.45 130.85 11.2 129.9 11.2 125.6 11.2 M118.7 61.35 L97.45 55.75 98.7 53.25 115.5 54.95 118.7 61.35 M88.5 61.35 L76.6 58.25 58.5 53.5 57.7 53.25 52.05 51.7 48.8 50.85 48.0 44.25 60.45 45.75 64.2 49.8 77.3 51.15 89.4 52.35 88.5 61.35 M48.15 61.05 L42.3 56.7 38.95 50.55 36.55 46.25 39.1 43.25 43.05 43.65 46.35 54.95 48.15 61.05 M19.8 61.05 L14.75 56.7 17.75 50.05 21.85 41.15 23.0 38.7 32.0 39.75 23.3 54.9 17.75 50.05 23.3 54.9 19.8 61.05 M17.0 12.85 L16.85 6.8 20.95 2.8 30.25 14.5 17.05 14.5 17.0 12.85 M33.2 7.1 L33.2 6.8 37.25 2.8 46.6 14.5 33.35 14.5 33.3 11.35 33.2 7.1 M42.65 1.15 L43.45 0.4 43.3 1.7 42.65 1.15 M57.45 2.6 L59.75 0.4 59.5 2.0 57.45 2.6 M76.6 58.25 L77.3 51.15 76.6 58.25 M38.95 50.55 L46.35 54.95 38.95 50.55" fill="#333333" fill-rule="evenodd" stroke="none"/>
    <path d="M129.9 11.2 L125.4 22.45 135.8 22.4 136.6 26.3 137.45 30.25 138.35 34.25 139.2 38.1 140.05 42.0 140.9 45.95 141.4 48.5 131.95 52.9 125.4 22.45 121.1 22.4 105.25 22.3 107.5 16.85 108.5 14.15 109.7 11.2 111.45 11.2 125.6 11.2 123.35 16.85 107.5 16.85 123.35 16.85 125.6 11.2 129.9 11.2 M123.35 16.85 L121.1 22.4 123.35 16.85 M0.0 17.1 L17.0 12.85 17.05 14.5 30.25 14.5 33.3 11.35 33.35 14.5 46.6 14.5 51.4 9.5 51.8 9.1 47.25 5.15 48.35 4.85 57.45 2.6 59.5 2.0 61.7 1.45 67.5 0.0 59.2 8.55 50.85 17.1 0.0 17.1 M59.2 8.55 L51.4 9.5 59.2 8.55" fill="#999999" fill-rule="evenodd" stroke="none"/>
    <path d="M105.25 22.3 L121.1 22.4 121.05 22.45 127.7 52.9 121.05 22.45 121.1 22.4 125.4 22.45 131.95 52.9 127.7 52.9 126.0 52.9 124.1 52.9 123.5 52.9 121.9 45.7 120.65 39.85 117.95 27.8 105.7 24.2 105.25 22.3 M146.1 48.5 L146.2 48.5 147.6 48.5 146.0 51.35 145.15 52.9 131.95 52.9 141.4 48.5 146.1 48.5 M14.75 33.75 L7.75 32.35 5.05 26.9 2.55 22.0 0.0 17.1 50.85 17.1 87.75 27.95 112.2 35.1 115.5 45.0 108.6 43.95 92.3 41.45 74.2 38.7 72.6 38.5 74.2 38.7 75.2 41.55 110.2 48.75 117.3 50.2 119.0 55.25 115.5 54.95 98.7 53.25 89.4 52.35 77.3 51.15 64.2 49.8 60.45 45.75 57.55 42.65 38.85 38.75 39.15 38.7 39.4 38.7 44.05 38.15 45.8 37.65 46.9 37.05 48.1 35.95 48.4 35.5 49.15 34.3 Q50.2 32.1 49.9 29.5 L49.7 28.7 49.65 28.25 49.5 27.8 Q48.6 24.45 45.8 22.25 L45.15 21.7 44.25 21.15 44.1 21.05 Q42.3 20.15 40.3 20.25 L35.65 20.75 34.2 20.9 Q32.8 21.25 31.75 22.05 L31.7 22.15 Q30.7 22.9 29.95 24.1 L29.45 25.1 29.05 26.2 28.8 27.7 28.8 28.7 29.1 30.75 29.5 32.1 Q30.05 33.55 31.0 34.85 L31.35 35.25 32.95 36.75 33.25 37.05 34.6 37.85 18.05 34.45 18.3 34.4 18.45 34.4 22.15 34.05 Q23.4 33.75 24.4 33.1 L25.6 31.85 25.95 31.35 26.15 30.95 Q27.05 28.95 26.6 26.55 L26.55 26.2 26.45 25.8 26.2 25.0 Q25.4 22.95 23.55 21.5 L23.05 21.05 Q21.2 19.8 19.2 19.9 L15.55 20.3 14.45 20.45 Q13.3 20.75 12.45 21.35 11.65 22.0 11.05 22.95 L10.85 23.3 10.6 23.7 Q10.25 24.65 10.15 25.75 L10.15 26.55 10.4 28.1 10.4 28.2 Q10.85 29.95 11.85 31.4 L11.9 31.4 12.15 31.7 13.4 32.9 13.6 33.05 13.6 33.1 14.75 33.75 M73.1 33.15 L90.45 35.85 92.3 41.45 90.45 35.85 73.1 33.15 73.0 32.7 72.85 32.05 Q71.85 28.8 69.15 26.65 L68.55 26.2 67.55 25.55 67.4 25.5 Q65.6 24.65 63.65 24.65 L59.05 25.2 57.6 25.4 Q56.15 25.65 55.15 26.5 L55.1 26.6 Q54.0 27.35 53.25 28.6 L52.8 29.5 52.65 29.95 Q52.25 30.95 52.15 32.15 L52.15 33.2 52.45 35.2 52.85 36.55 53.0 36.95 Q53.55 38.2 54.4 39.3 L54.65 39.65 56.3 41.15 56.55 41.5 57.95 42.3 58.05 42.35 Q60.05 43.35 62.25 43.2 L67.35 42.65 69.15 42.1 70.25 41.5 71.15 40.7 71.45 40.4 72.45 38.75 72.6 38.5 Q73.75 36.05 73.1 33.2 L73.1 33.15 M90.45 35.85 L87.75 28.0 87.75 27.95 87.75 28.0 90.45 35.85 M48.1 35.95 L53.0 36.95 48.1 35.95 M52.65 29.95 L49.9 29.5 52.65 29.95 M29.05 26.2 L26.45 25.8 29.05 26.2 M2.55 22.0 L10.85 23.3 2.55 22.0 M5.05 26.9 L10.4 28.2 5.05 26.9 M29.5 32.1 L25.95 31.35 29.5 32.1" fill="#606060" fill-rule="evenodd" stroke="none"/>
    <path d="M131.95 52.9 L145.15 52.9 146.0 51.35 149.4 55.25 126.0 52.9 127.7 52.9 131.95 52.9 M21.85 41.15 L20.7 41.1 17.3 34.5 18.05 34.45 34.6 37.85 34.7 37.95 Q36.7 38.9 38.85 38.75 L57.55 42.65 60.45 45.75 48.0 44.25 43.05 43.65 39.1 43.25 32.0 39.75 23.0 38.7 21.85 41.15" fill="#505050" fill-rule="evenodd" stroke="none"/>
    <path d="M150.35 15.1 L148.05 18.4 137.4 18.4 138.75 15.1 150.35 15.1 M124.1 52.9 L124.9 61.35 118.7 61.35 115.5 54.95 119.0 55.25 123.5 52.9 124.1 52.9 M97.45 55.75 L94.6 61.35 88.5 61.35 89.4 52.35 98.7 53.25 97.45 55.75 M108.6 43.95 L115.5 45.0 117.2 50.1 117.3 50.2 110.2 48.75 108.6 43.95" fill="#444444" fill-rule="evenodd" stroke="none"/>
    <path d="M147.6 48.5 L147.95 47.0 151.15 50.2 149.4 55.25 146.0 51.35 147.6 48.5 M149.15 41.2 L151.7 29.45 156.2 35.1 152.9 44.95 149.15 41.2 M111.45 11.2 L109.7 11.2 108.5 14.15 97.7 14.15 93.4 14.15 89.1 14.15 85.25 18.2 79.45 16.55 80.9 15.05 89.2 6.35 112.7 6.35 111.45 11.2 M117.95 27.8 L120.65 39.85 115.5 45.0 112.2 35.1 117.95 27.8 M121.9 45.7 L123.5 52.9 119.0 55.25 117.3 50.2 121.9 45.7" fill="#aaaaaa" fill-rule="evenodd" stroke="none"/>
    <path d="M144.5 45.95 L147.6 48.5 146.2 48.5 146.1 48.4 146.1 48.5 141.4 48.5 140.9 45.95 144.5 45.95 M145.05 11.2 L147.3 11.2 150.35 15.1 138.75 15.1 129.9 11.2 130.85 11.2 145.05 11.2 M112.8 5.9 L112.7 6.35 89.2 6.35 67.5 0.0 91.9 0.0 112.8 5.9" fill="#dddddd" fill-rule="evenodd" stroke="none"/>
    <path d="M149.65 22.4 L153.25 22.4 151.7 29.45 149.15 41.2 147.95 47.0 147.6 48.5 144.5 45.95 145.35 42.0 146.2 38.1 147.05 34.25 147.95 30.25 148.75 26.3 149.65 22.4 M138.75 15.1 L137.4 18.4 135.8 22.4 125.4 22.45 129.9 11.2 138.75 15.1 M105.7 24.2 L117.95 27.8 112.2 35.1 87.75 27.95 93.55 20.65 105.7 24.2 M88.6 19.2 L92.0 20.15 93.55 20.65 87.75 27.95 50.85 17.1 59.2 8.55 80.9 15.05 59.2 8.55 67.5 0.0 89.2 6.35 80.9 15.05 79.45 16.55 85.25 18.2 88.6 19.2" fill="#bbbbbb" fill-rule="evenodd" stroke="none"/>
    <path d="M147.95 47.0 L149.15 41.2 152.9 44.95 151.15 50.2 147.95 47.0 M120.65 39.85 L121.9 45.7 117.3 50.2 117.2 50.1 115.5 45.0 120.65 39.85" fill="#888888" fill-rule="evenodd" stroke="none"/>
    <path d="M130.85 11.2 L120.05 4.45 130.25 4.45 145.05 11.2 130.85 11.2" fill="#666666" fill-rule="evenodd" stroke="none"/>
    <path d="M148.05 18.4 L149.65 22.4 148.75 26.3 147.95 30.25 147.05 34.25 146.2 38.1 145.35 42.0 144.5 45.95 140.9 45.95 140.05 42.0 139.2 38.1 138.35 34.25 137.45 30.25 136.6 26.3 135.8 22.4 137.4 18.4 148.05 18.4 M149.65 22.4 L135.8 22.4 149.65 22.4 M139.2 38.1 L146.2 38.1 139.2 38.1 M145.35 42.0 L140.05 42.0 145.35 42.0 M137.45 30.25 L147.95 30.25 137.45 30.25 M147.05 34.25 L138.35 34.25 147.05 34.25 M148.75 26.3 L136.6 26.3 148.75 26.3" fill="url(#gradient0)" fill-rule="evenodd" stroke="none"/>
    <path d="M74.2 38.7 L92.3 41.45 108.6 43.95 110.2 48.75 75.2 41.55 74.2 38.7" fill="url(#gradient1)" fill-rule="evenodd" stroke="none"/>
    <path d="M39.4 38.7 L41.4 38.1 41.75 37.95 43.0 36.95 44.25 35.45 44.3 35.15 44.5 34.85 Q45.8 32.15 45.0 28.8 L45.0 28.7 45.0 28.65 Q44.25 25.35 41.6 23.1 L41.15 22.8 40.6 22.3 Q39.05 21.25 37.35 20.95 L35.65 20.75 40.3 20.25 Q42.3 20.15 44.1 21.05 L44.25 21.15 45.15 21.7 45.8 22.25 Q48.6 24.45 49.5 27.8 L49.65 28.25 49.7 28.7 49.9 29.5 Q50.2 32.1 49.15 34.3 L48.4 35.5 48.1 35.95 46.9 37.05 45.8 37.65 44.05 38.15 39.4 38.7 M45.0 28.65 L49.5 27.8 45.0 28.65" fill="url(#gradient2)" fill-rule="evenodd" stroke="none"/>
    <path d="M35.65 20.75 L37.35 20.95 Q39.05 21.25 40.6 22.3 L41.15 22.8 41.6 23.1 Q44.25 25.35 45.0 28.65 L45.0 28.7 45.0 28.8 Q45.8 32.15 44.5 34.85 L44.3 35.15 44.25 35.45 43.0 36.95 41.75 37.95 41.4 38.1 39.4 38.7 39.15 38.7 38.85 38.75 Q36.7 38.9 34.7 37.95 L34.6 37.85 33.25 37.05 32.95 36.75 31.35 35.25 31.0 34.85 Q30.05 33.55 29.5 32.1 L29.1 30.75 28.8 28.7 28.8 27.7 29.05 26.2 29.45 25.1 29.95 24.1 Q30.7 22.9 31.7 22.15 L31.75 22.05 Q32.8 21.25 34.2 20.9 L35.65 20.75 M35.65 24.8 L34.9 24.65 33.85 24.55 33.0 24.65 Q31.25 24.95 30.3 26.4 L30.2 26.6 Q29.6 27.6 29.5 28.7 29.35 29.7 29.7 30.85 L30.15 32.25 Q30.85 33.65 32.1 34.75 L32.25 34.8 32.3 34.85 33.2 35.45 34.0 35.7 36.1 36.0 37.55 35.55 37.95 35.25 38.1 35.2 38.5 34.85 38.6 34.8 39.15 34.05 39.25 33.85 Q40.4 31.95 39.85 29.6 L39.55 28.7 39.1 27.8 Q38.45 26.6 37.35 25.75 L35.65 24.8" fill="url(#gradient3)" fill-rule="evenodd" stroke="none"/>
    <path d="M61.45 39.65 L61.8 39.3 61.9 39.25 62.25 38.85 62.45 38.5 62.6 38.3 Q63.75 36.4 63.2 34.05 L62.95 33.2 61.9 31.4 60.7 30.15 Q59.9 29.55 59.05 29.3 L58.3 29.1 57.2 28.95 56.3 29.1 Q55.1 29.35 54.25 30.15 L53.6 31.05 Q52.95 32.05 52.85 33.2 52.8 34.1 53.05 35.3 L53.55 36.7 53.7 37.15 Q54.4 38.25 55.45 39.15 L55.6 39.25 55.6 39.3 56.5 39.85 57.35 40.2 59.4 40.4 60.85 40.0 61.3 39.7 61.45 39.65 M59.05 25.2 L60.7 25.45 Q62.35 25.65 63.9 26.75 L64.55 27.2 64.9 27.55 Q67.2 29.5 68.1 32.4 L68.35 33.0 68.35 33.1 68.35 33.3 Q68.95 35.75 68.4 37.95 L67.85 39.3 67.85 39.35 67.7 39.6 67.55 39.85 67.5 39.9 66.35 41.4 65.05 42.35 64.75 42.6 62.25 43.2 Q60.05 43.35 58.05 42.35 L57.95 42.3 56.55 41.5 56.3 41.15 54.65 39.65 54.4 39.3 Q53.55 38.2 53.0 36.95 L52.85 36.55 52.45 35.2 52.15 33.2 52.15 32.15 Q52.25 30.95 52.65 29.95 L52.8 29.5 53.25 28.6 Q54.0 27.35 55.1 26.6 L55.15 26.5 Q56.15 25.65 57.6 25.4 L59.05 25.2" fill="url(#gradient4)" fill-rule="evenodd" stroke="none"/>
    <path d="M73.1 33.15 L73.1 33.2 Q73.75 36.05 72.6 38.5 L72.45 38.75 71.45 40.4 71.15 40.7 70.25 41.5 69.15 42.1 67.35 42.65 62.25 43.2 64.75 42.6 65.05 42.35 66.35 41.4 67.5 39.9 67.55 39.85 67.7 39.6 67.85 39.35 67.85 39.3 68.4 37.95 Q68.95 35.75 68.35 33.3 L68.35 33.1 68.35 33.0 68.1 32.4 Q67.2 29.5 64.9 27.55 L64.55 27.2 63.9 26.75 Q62.35 25.65 60.7 25.45 L59.05 25.2 63.65 24.65 Q65.6 24.65 67.4 25.5 L67.55 25.55 68.55 26.2 69.15 26.65 Q71.85 28.8 72.85 32.05 L73.0 32.7 73.1 33.15 M68.35 33.0 L72.85 32.05 68.35 33.0" fill="url(#gradient5)" fill-rule="evenodd" stroke="none"/>
    <path d="M61.45 39.65 L61.3 39.7 60.85 40.0 59.4 40.4 57.35 40.2 56.5 39.85 55.6 39.3 55.6 39.25 55.45 39.15 Q54.4 38.25 53.7 37.15 L53.55 36.7 53.05 35.3 Q52.8 34.1 52.85 33.2 52.95 32.05 53.6 31.05 L54.25 30.15 Q55.1 29.35 56.3 29.1 L57.2 28.95 58.3 29.1 59.05 29.3 Q58.35 29.75 57.85 30.55 L57.75 30.75 Q57.3 31.65 57.2 32.6 57.05 33.65 57.35 34.8 57.8 36.8 59.3 38.25 L59.75 38.65 59.9 38.75 60.0 38.75 Q60.7 39.35 61.45 39.65" fill="url(#gradient6)" fill-rule="evenodd" stroke="none"/>
    <path d="M59.05 29.3 Q59.9 29.55 60.7 30.15 L61.9 31.4 62.95 33.2 63.2 34.05 Q63.75 36.4 62.6 38.3 L62.45 38.5 62.25 38.85 61.9 39.25 61.8 39.3 61.45 39.65 Q60.7 39.35 60.0 38.75 L59.9 38.75 59.75 38.65 59.3 38.25 Q57.8 36.8 57.35 34.8 57.05 33.65 57.2 32.6 57.3 31.65 57.75 30.75 L57.85 30.55 Q58.35 29.75 59.05 29.3" fill="url(#gradient7)" fill-rule="evenodd" stroke="none"/>
    <path d="M15.55 20.3 L19.2 19.9 Q21.2 19.8 23.05 21.05 L23.55 21.5 Q25.4 22.95 26.2 25.0 L26.45 25.8 26.55 26.2 26.6 26.55 Q27.05 28.95 26.15 30.95 L25.95 31.35 25.6 31.85 24.4 33.1 Q23.4 33.75 22.15 34.05 L18.45 34.4 20.05 34.0 20.2 33.9 20.25 33.8 Q21.5 33.1 22.25 31.8 L22.5 31.4 22.8 30.7 Q23.4 28.85 22.9 26.65 L22.9 26.5 22.65 25.7 22.4 25.2 Q21.55 23.25 19.9 21.9 L19.45 21.5 Q18.25 20.75 16.85 20.45 L15.55 20.3 M22.65 25.7 L26.2 25.0 22.65 25.7" fill="url(#gradient8)" fill-rule="evenodd" stroke="none"/>
    <path d="M38.1 35.2 L37.95 35.25 37.55 35.55 36.1 36.0 34.0 35.7 33.2 35.45 32.3 34.85 32.25 34.8 32.1 34.75 Q30.85 33.65 30.15 32.25 L29.7 30.85 Q29.35 29.7 29.5 28.7 29.6 27.6 30.2 26.6 L30.3 26.4 Q31.25 24.95 33.0 24.65 L33.85 24.55 34.9 24.65 35.65 24.8 Q34.95 25.3 34.5 26.1 L34.1 27.0 33.85 28.2 Q33.7 29.2 34.0 30.3 34.55 32.65 36.4 34.2 L36.6 34.3 38.1 35.2" fill="url(#gradient9)" fill-rule="evenodd" stroke="none"/>
    <path d="M17.3 34.5 Q16.05 34.45 14.8 33.8 L14.75 33.75 13.6 33.1 13.6 33.05 13.4 32.9 12.15 31.7 11.9 31.4 11.85 31.4 Q10.85 29.95 10.4 28.2 L10.4 28.1 10.15 26.55 10.15 25.75 Q10.25 24.65 10.6 23.7 L10.85 23.3 11.05 22.95 Q11.65 22.0 12.45 21.35 13.3 20.75 14.45 20.45 L15.55 20.3 16.85 20.45 Q18.25 20.75 19.45 21.5 L19.9 21.9 Q21.55 23.25 22.4 25.2 L22.65 25.7 22.9 26.5 22.9 26.65 Q23.4 28.85 22.8 30.7 L22.5 31.4 22.25 31.8 Q21.5 33.1 20.25 33.8 L20.2 33.9 20.05 34.0 18.45 34.4 18.3 34.4 18.05 34.45 17.3 34.5 M15.55 23.45 L14.95 23.3 14.05 23.25 13.45 23.3 12.6 23.65 Q11.8 24.0 11.25 24.9 10.8 25.65 10.65 26.55 10.6 27.35 10.85 28.25 11.35 30.1 12.75 31.3 L12.9 31.35 12.9 31.4 13.6 31.8 14.3 32.05 15.9 32.3 17.0 31.9 17.4 31.7 17.5 31.7 17.75 31.4 17.75 31.35 18.4 30.6 18.75 29.9 Q19.2 28.65 18.85 27.3 L18.6 26.55 Q18.1 25.2 17.0 24.3 L16.85 24.2 Q16.2 23.75 15.55 23.45" fill="url(#gradient10)" fill-rule="evenodd" stroke="none"/>
    <path d="M17.5 31.7 L17.4 31.7 17.0 31.9 15.9 32.3 14.3 32.05 13.6 31.8 12.9 31.4 12.9 31.35 12.75 31.3 Q11.35 30.1 10.85 28.25 10.6 27.35 10.65 26.55 10.8 25.65 11.25 24.9 11.8 24.0 12.6 23.65 L13.45 23.3 14.05 23.25 14.95 23.3 15.55 23.45 15.05 23.95 14.65 24.5 14.05 26.15 Q14.0 26.9 14.3 27.85 14.65 29.65 16.15 30.85 L16.25 30.95 16.25 31.0 17.5 31.7" fill="url(#gradient11)" fill-rule="evenodd" stroke="none"/>
    <path d="M15.55 23.45 Q16.2 23.75 16.85 24.2 L17.0 24.3 Q18.1 25.2 18.6 26.55 L18.85 27.3 Q19.2 28.65 18.75 29.9 L18.4 30.6 17.75 31.35 17.75 31.4 17.5 31.7 16.25 31.0 16.25 30.95 16.15 30.85 Q14.65 29.65 14.3 27.85 14.0 26.9 14.05 26.15 L14.65 24.5 15.05 23.95 15.55 23.45" fill="url(#gradient12)" fill-rule="evenodd" stroke="none"/>
    <path d="M35.65 24.8 L37.35 25.75 Q38.45 26.6 39.1 27.8 L39.55 28.7 39.85 29.6 Q40.4 31.95 39.25 33.85 L39.15 34.05 38.6 34.8 38.5 34.85 38.1 35.2 36.6 34.3 36.4 34.2 Q34.55 32.65 34.0 30.3 33.7 29.2 33.85 28.2 L34.1 27.0 34.5 26.1 Q34.95 25.3 35.65 24.8" fill="url(#gradient13)" fill-rule="evenodd" stroke="none"/>
    <path d="M149.65 22.4 L153.25 22.4 150.35 15.1 148.05 18.4 149.65 22.4 148.75 26.3 147.95 30.25 147.05 34.25 146.2 38.1 145.35 42.0 144.5 45.95 147.6 48.5 147.95 47.0 149.15 41.2 151.7 29.45 153.25 22.4 M145.05 11.2 L147.3 11.2 150.35 15.1 138.75 15.1 137.4 18.4 148.05 18.4 M138.75 15.1 L129.9 11.2 125.4 22.45 135.8 22.4 137.4 18.4 M107.5 16.85 L123.35 16.85 125.6 11.2 111.45 11.2 109.7 11.2 108.5 14.15 107.5 16.85 105.25 22.3 121.1 22.4 123.35 16.85 M125.6 11.2 L129.9 11.2 130.85 11.2 120.05 4.45 113.15 4.45 112.8 5.9 112.7 6.35 111.45 11.2 M141.4 48.5 L140.9 45.95 140.05 42.0 139.2 38.1 138.35 34.25 137.45 30.25 136.6 26.3 135.8 22.4 149.65 22.4 M146.1 48.5 L146.2 48.5 146.1 48.4 146.1 48.5 141.4 48.5 131.95 52.9 145.15 52.9 146.0 51.35 147.6 48.5 146.2 48.5 M151.7 29.45 L156.2 35.1 152.9 44.95 151.15 50.2 149.4 55.25 126.0 52.9 124.1 52.9 124.9 61.35 118.7 61.35 97.45 55.75 94.6 61.35 88.5 61.35 76.6 58.25 58.5 53.5 57.7 53.25 52.05 51.7 52.05 54.9 52.05 61.05 48.15 61.05 42.3 56.7 38.95 50.55 36.55 46.25 29.3 54.9 24.05 61.05 19.8 61.05 14.75 56.7 17.75 50.05 21.85 41.15 20.7 41.1 17.3 34.5 Q16.05 34.45 14.8 33.8 L14.75 33.75 7.75 32.35 5.05 26.9 2.55 22.0 0.0 17.1 17.0 12.85 16.85 6.8 20.95 2.8 25.4 0.4 33.2 7.1 33.2 6.8 37.25 2.8 41.75 0.4 42.65 1.15 43.45 0.4 47.85 2.8 48.35 4.85 57.45 2.6 59.75 0.4 61.7 1.45 67.5 0.0 91.9 0.0 112.8 5.9 M152.9 44.95 L149.15 41.2 M130.85 11.2 L145.05 11.2 130.25 4.45 120.05 4.45 M138.35 34.25 L147.05 34.25 M147.95 30.25 L137.45 30.25 M140.05 42.0 L145.35 42.0 M146.2 38.1 L139.2 38.1 M140.9 45.95 L144.5 45.95 M136.6 26.3 L148.75 26.3 M105.25 22.3 L105.7 24.2 117.95 27.8 120.65 39.85 121.9 45.7 123.5 52.9 124.1 52.9 M127.7 52.9 L121.05 22.45 121.1 22.4 125.4 22.45 131.95 52.9 127.7 52.9 126.0 52.9 M85.25 18.2 L89.1 14.15 93.4 14.15 97.7 14.15 108.5 14.15 M93.4 14.15 L88.6 19.2 92.0 20.15 97.7 14.15 M92.0 20.15 L93.55 20.65 105.7 24.2 M85.25 18.2 L88.6 19.2 M92.3 41.45 L90.45 35.85 73.1 33.15 73.1 33.2 Q73.75 36.05 72.6 38.5 L74.2 38.7 92.3 41.45 108.6 43.95 115.5 45.0 112.2 35.1 87.75 27.95 87.75 28.0 90.45 35.85 M110.2 48.75 L108.6 43.95 M117.95 27.8 L112.2 35.1 M115.5 45.0 L120.65 39.85 M112.7 6.35 L89.2 6.35 80.9 15.05 79.45 16.55 85.25 18.2 M87.75 27.95 L93.55 20.65 M115.5 54.95 L118.7 61.35 M117.3 50.2 L117.2 50.1 115.5 45.0 M119.0 55.25 L117.3 50.2 110.2 48.75 75.2 41.55 74.2 38.7 M115.5 54.95 L119.0 55.25 123.5 52.9 M88.5 61.35 L89.4 52.35 77.3 51.15 76.6 58.25 M97.45 55.75 L98.7 53.25 89.4 52.35 M98.7 53.25 L115.5 54.95 M146.0 51.35 L149.4 55.25 M147.95 47.0 L151.15 50.2 M117.3 50.2 L121.9 45.7 M57.45 2.6 L59.5 2.0 59.75 0.4 M48.35 4.85 L47.25 5.15 51.8 9.1 51.4 9.5 59.2 8.55 67.5 0.0 89.2 6.35 M43.3 1.7 L47.25 5.15 M42.65 1.15 L43.3 1.7 43.45 0.4 M39.4 38.7 L41.4 38.1 41.75 37.95 43.0 36.95 44.25 35.45 44.3 35.15 44.5 34.85 Q45.8 32.15 45.0 28.8 L45.0 28.7 45.0 28.65 Q44.25 25.35 41.6 23.1 L41.15 22.8 40.6 22.3 Q39.05 21.25 37.35 20.95 L35.65 20.75 34.2 20.9 Q32.8 21.25 31.75 22.05 L31.7 22.15 Q30.7 22.9 29.95 24.1 L29.45 25.1 29.05 26.2 28.8 27.7 28.8 28.7 29.1 30.75 29.5 32.1 Q30.05 33.55 31.0 34.85 L31.35 35.25 32.95 36.75 33.25 37.05 34.6 37.85 34.7 37.95 Q36.7 38.9 38.85 38.75 L39.15 38.7 39.4 38.7 44.05 38.15 45.8 37.65 46.9 37.05 48.1 35.95 48.4 35.5 49.15 34.3 Q50.2 32.1 49.9 29.5 L49.7 28.7 49.65 28.25 49.5 27.8 45.0 28.65 M35.65 20.75 L40.3 20.25 Q42.3 20.15 44.1 21.05 L44.25 21.15 45.15 21.7 45.8 22.25 Q48.6 24.45 49.5 27.8 M59.2 8.55 L50.85 17.1 87.75 27.95 M46.6 14.5 L51.4 9.5 M59.05 29.3 Q59.9 29.55 60.7 30.15 L61.9 31.4 62.95 33.2 63.2 34.05 Q63.75 36.4 62.6 38.3 L62.45 38.5 62.25 38.85 61.9 39.25 61.8 39.3 61.45 39.65 61.3 39.7 60.85 40.0 59.4 40.4 57.35 40.2 56.5 39.85 55.6 39.3 55.6 39.25 55.45 39.15 Q54.4 38.25 53.7 37.15 L53.55 36.7 53.05 35.3 Q52.8 34.1 52.85 33.2 52.95 32.05 53.6 31.05 L54.25 30.15 Q55.1 29.35 56.3 29.1 L57.2 28.95 58.3 29.1 59.05 29.3 Q58.35 29.75 57.85 30.55 L57.75 30.75 Q57.3 31.65 57.2 32.6 57.05 33.65 57.35 34.8 57.8 36.8 59.3 38.25 L59.75 38.65 59.9 38.75 60.0 38.75 Q60.7 39.35 61.45 39.65 M62.25 43.2 L64.75 42.6 65.05 42.35 66.35 41.4 67.5 39.9 67.55 39.85 67.7 39.6 67.85 39.35 67.85 39.3 68.4 37.95 Q68.95 35.75 68.35 33.3 L68.35 33.1 68.35 33.0 68.1 32.4 Q67.2 29.5 64.9 27.55 L64.55 27.2 63.9 26.75 Q62.35 25.65 60.7 25.45 L59.05 25.2 57.6 25.4 Q56.15 25.65 55.15 26.5 L55.1 26.6 Q54.0 27.35 53.25 28.6 L52.8 29.5 52.65 29.95 Q52.25 30.95 52.15 32.15 L52.15 33.2 52.45 35.2 52.85 36.55 53.0 36.95 Q53.55 38.2 54.4 39.3 L54.65 39.65 56.3 41.15 56.55 41.5 57.95 42.3 58.05 42.35 Q60.05 43.35 62.25 43.2 L67.35 42.65 69.15 42.1 70.25 41.5 71.15 40.7 71.45 40.4 72.45 38.75 72.6 38.5 M43.05 43.65 L48.0 44.25 60.45 45.75 57.55 42.65 38.85 38.75 M49.9 29.5 L52.65 29.95 M53.0 36.95 L48.1 35.95 M59.05 25.2 L63.65 24.65 Q65.6 24.65 67.4 25.5 L67.55 25.55 68.55 26.2 69.15 26.65 Q71.85 28.8 72.85 32.05 L73.0 32.7 73.1 33.15 M72.85 32.05 L68.35 33.0 M80.9 15.05 L59.2 8.55 M59.5 2.0 L61.7 1.45 M33.3 11.35 L33.2 7.1 M15.55 20.3 L19.2 19.9 Q21.2 19.8 23.05 21.05 L23.55 21.5 Q25.4 22.95 26.2 25.0 L26.45 25.8 29.05 26.2 M38.1 35.2 L37.95 35.25 37.55 35.55 36.1 36.0 34.0 35.7 33.2 35.45 32.3 34.85 32.25 34.8 32.1 34.75 Q30.85 33.65 30.15 32.25 L29.7 30.85 Q29.35 29.7 29.5 28.7 29.6 27.6 30.2 26.6 L30.3 26.4 Q31.25 24.95 33.0 24.65 L33.85 24.55 34.9 24.65 35.65 24.8 37.35 25.75 Q38.45 26.6 39.1 27.8 L39.55 28.7 39.85 29.6 Q40.4 31.95 39.25 33.85 L39.15 34.05 38.6 34.8 38.5 34.85 38.1 35.2 36.6 34.3 36.4 34.2 Q34.55 32.65 34.0 30.3 33.7 29.2 33.85 28.2 L34.1 27.0 34.5 26.1 Q34.95 25.3 35.65 24.8 M30.25 14.5 L33.3 11.35 33.35 14.5 46.6 14.5 37.25 2.8 M20.95 2.8 L30.25 14.5 17.05 14.5 17.0 12.85 M17.5 31.7 L17.4 31.7 17.0 31.9 15.9 32.3 14.3 32.05 13.6 31.8 12.9 31.4 12.9 31.35 12.75 31.3 Q11.35 30.1 10.85 28.25 10.6 27.35 10.65 26.55 10.8 25.65 11.25 24.9 11.8 24.0 12.6 23.65 L13.45 23.3 14.05 23.25 14.95 23.3 15.55 23.45 Q16.2 23.75 16.85 24.2 L17.0 24.3 Q18.1 25.2 18.6 26.55 L18.85 27.3 Q19.2 28.65 18.75 29.9 L18.4 30.6 17.75 31.35 17.75 31.4 17.5 31.7 16.25 31.0 16.25 30.95 16.15 30.85 Q14.65 29.65 14.3 27.85 14.0 26.9 14.05 26.15 L14.65 24.5 15.05 23.95 15.55 23.45 M15.55 20.3 L14.45 20.45 Q13.3 20.75 12.45 21.35 11.65 22.0 11.05 22.95 L10.85 23.3 10.6 23.7 Q10.25 24.65 10.15 25.75 L10.15 26.55 10.4 28.1 10.4 28.2 Q10.85 29.95 11.85 31.4 L11.9 31.4 12.15 31.7 13.4 32.9 13.6 33.05 13.6 33.1 14.75 33.75 M18.45 34.4 L20.05 34.0 20.2 33.9 20.25 33.8 Q21.5 33.1 22.25 31.8 L22.5 31.4 22.8 30.7 Q23.4 28.85 22.9 26.65 L22.9 26.5 22.65 25.7 22.4 25.2 Q21.55 23.25 19.9 21.9 L19.45 21.5 Q18.25 20.75 16.85 20.45 L15.55 20.3 M10.85 23.3 L2.55 22.0 M18.45 34.4 L18.3 34.4 18.05 34.45 34.6 37.85 M17.3 34.5 L18.05 34.45 M10.4 28.2 L5.05 26.9 M26.45 25.8 L26.55 26.2 26.6 26.55 Q27.05 28.95 26.15 30.95 L25.95 31.35 29.5 32.1 M25.95 31.35 L25.6 31.85 24.4 33.1 Q23.4 33.75 22.15 34.05 L18.45 34.4 M26.2 25.0 L22.65 25.7 M32.0 39.75 L23.0 38.7 21.85 41.15 M39.1 43.25 L32.0 39.75 23.3 54.9 29.3 54.9 M36.55 46.25 L39.1 43.25 43.05 43.65 46.35 54.95 52.05 54.9 M17.75 50.05 L23.3 54.9 19.8 61.05 M60.45 45.75 L64.2 49.8 77.3 51.15 M48.15 61.05 L46.35 54.95 38.95 50.55 M52.05 51.7 L48.8 50.85 48.0 44.25 M50.85 17.1 L0.0 17.1" fill="none" stroke="#000000" stroke-width="0.7" stroke-opacity="0.4"/>
  </g>
  <defs>
    <radialGradient cx="0" cy="0" gradientTransform="matrix(0.0164, 0.0, 0.0, 0.0247, 137.7, 31.3)" gradientUnits="userSpaceOnUse" id="gradient0" r="819.2" spreadMethod="pad">
      <stop offset="0.0" stop-color="#ff0000"/>
      <stop offset="0.2784313725490196" stop-color="#ff0000"/>
      <stop offset="1.0" stop-color="#550000"/>
    </radialGradient>
    <linearGradient gradientTransform="matrix(0.022, 0.0, 0.0, 0.0061, 92.2, 43.7)" gradientUnits="userSpaceOnUse" id="gradient1" spreadMethod="pad" x1="-819.2" x2="819.2">
      <stop offset="0.0" stop-color="#ff0000"/>
      <stop offset="1.0" stop-color="#550000"/>
    </linearGradient>
    <linearGradient gradientTransform="matrix(0.0015, 0.0112, -0.0112, 0.0015, 42.65, 29.05)" gradientUnits="userSpaceOnUse" id="gradient2" spreadMethod="pad" x1="-819.2" x2="819.2">
      <stop offset="0.0" stop-color="#bbbbbb"/>
      <stop offset="0.1411764705882353" stop-color="#cccccc"/>
      <stop offset="1.0" stop-color="#444444"/>
    </linearGradient>
    <radialGradient cx="0" cy="0" gradientTransform="matrix(0.0197, 0.0, 0.0, 0.0197, 40.2, 22.75)" gradientUnits="userSpaceOnUse" id="gradient3" r="819.2" spreadMethod="pad">
      <stop offset="0.0" stop-color="#cccccc"/>
      <stop offset="1.0" stop-color="#444444"/>
    </radialGradient>
    <radialGradient cx="0" cy="0" gradientTransform="matrix(0.0196, 0.0, 0.0, 0.0196, 63.85, 27.4)" gradientUnits="userSpaceOnUse" id="gradient4" r="819.2" spreadMethod="pad">
      <stop offset="0.0" stop-color="#cccccc"/>
      <stop offset="1.0" stop-color="#444444"/>
    </radialGradient>
    <linearGradient gradientTransform="matrix(0.0014, 0.011, -0.0112, 0.0014, 65.8, 33.6)" gradientUnits="userSpaceOnUse" id="gradient5" spreadMethod="pad" x1="-819.2" x2="819.2">
      <stop offset="0.0" stop-color="#bbbbbb"/>
      <stop offset="0.1411764705882353" stop-color="#cccccc"/>
      <stop offset="1.0" stop-color="#444444"/>
    </linearGradient>
    <linearGradient gradientTransform="matrix(0.0, -0.007, 0.007, 0.0, 57.15, 34.65)" gradientUnits="userSpaceOnUse" id="gradient6" spreadMethod="pad" x1="-819.2" x2="819.2">
      <stop offset="0.0" stop-color="#bbbbbb"/>
      <stop offset="0.1411764705882353" stop-color="#cccccc"/>
      <stop offset="1.0" stop-color="#444444"/>
    </linearGradient>
    <radialGradient cx="0" cy="0" gradientTransform="matrix(0.0069, 0.0, 0.0, 0.0069, 60.25, 34.45)" gradientUnits="userSpaceOnUse" id="gradient7" r="819.2" spreadMethod="pad">
      <stop offset="0.0" stop-color="#ff0000"/>
      <stop offset="1.0" stop-color="#550000"/>
    </radialGradient>
    <linearGradient gradientTransform="matrix(9.0E-4, 0.0088, -0.0088, 9.0E-4, 20.8, 26.85)" gradientUnits="userSpaceOnUse" id="gradient8" spreadMethod="pad" x1="-819.2" x2="819.2">
      <stop offset="0.0" stop-color="#bbbbbb"/>
      <stop offset="0.1411764705882353" stop-color="#cccccc"/>
      <stop offset="1.0" stop-color="#444444"/>
    </linearGradient>
    <linearGradient gradientTransform="matrix(0.0, -0.007, 0.007, 0.0, 33.75, 30.25)" gradientUnits="userSpaceOnUse" id="gradient9" spreadMethod="pad" x1="-819.2" x2="819.2">
      <stop offset="0.0" stop-color="#bbbbbb"/>
      <stop offset="0.1411764705882353" stop-color="#cccccc"/>
      <stop offset="1.0" stop-color="#444444"/>
    </linearGradient>
    <radialGradient cx="0" cy="0" gradientTransform="matrix(0.0151, 0.0, 0.0, 0.0151, 19.45, 22.45)" gradientUnits="userSpaceOnUse" id="gradient10" r="819.2" spreadMethod="pad">
      <stop offset="0.0" stop-color="#cccccc"/>
      <stop offset="1.0" stop-color="#444444"/>
    </radialGradient>
    <linearGradient gradientTransform="matrix(0.0, -0.0056, 0.0055, 0.0, 14.05, 27.75)" gradientUnits="userSpaceOnUse" id="gradient11" spreadMethod="pad" x1="-819.2" x2="819.2">
      <stop offset="0.0" stop-color="#bbbbbb"/>
      <stop offset="0.1411764705882353" stop-color="#cccccc"/>
      <stop offset="1.0" stop-color="#444444"/>
    </linearGradient>
    <radialGradient cx="0" cy="0" gradientTransform="matrix(0.0054, 0.0, 0.0, 0.0054, 16.5, 27.55)" gradientUnits="userSpaceOnUse" id="gradient12" r="819.2" spreadMethod="pad">
      <stop offset="0.0" stop-color="#ff0000"/>
      <stop offset="1.0" stop-color="#550000"/>
    </radialGradient>
    <radialGradient cx="0" cy="0" gradientTransform="matrix(0.0069, 0.0, 0.0, 0.0069, 36.85, 30.0)" gradientUnits="userSpaceOnUse" id="gradient13" r="819.2" spreadMethod="pad">
      <stop offset="0.0" stop-color="#ff0000"/>
      <stop offset="1.0" stop-color="#550000"/>
    </radialGradient>
  </defs>
</svg>
