<?xml version="1.0" encoding="UTF-8" standalone="no"?>
<svg xmlns:xlink="http://www.w3.org/1999/xlink" height="208.75px" width="208px" xmlns="http://www.w3.org/2000/svg">
  <g transform="matrix(1.0, 0.0, 0.0, 1.0, 0.05, 0.05)">
    <path d="M191.1 69.2L193.05 73.9Q195.05 78.9 196.9 84.7L197.3 86.1 199.3 95.5 199.75 98.1 199.75 98.15Q199.75 99.5 197.8 99.9L191.6 99.9 176.55 99.9 165.4 99.9Q161.6 99.65 158.2 98.1L158.1 98.1 153.4 95.5 151.5 84.7 149.55 73.9Q139.15 65.15 124.3 56.35L123.65 52.4Q116.1 46.35 106.95 40.3 97.7 34.3 113.7 31.35 129.75 28.5 146.9 32.05 151.5 33.0 155.7 34.4 167.3 38.55 176.4 46.9 184.55 54.4 191.1 69.2" fill="url(#gradient0)" fill-rule="evenodd" stroke="none"/>
    <path d="M193.05 73.9L191.1 69.2 197.0 73.9 193.05 73.9M124.3 56.35Q139.15 65.15 149.55 73.9L139.5 73.9Q133.3 68.6 125.4 63.3 120.2 59.85 114.35 56.35L124.3 56.35M9.25 98.55L9.6 96.45 10.15 94.3 12.1 85.05 22.45 80.6 23.8 80.05 27.6 78.4 32.25 76.45 45.0 71.0 60.9 71.0 64.45 80.75 48.85 81.9 27.6 78.4 48.85 81.9 64.45 80.75 68.0 90.55 94.15 104.25 30.2 100.05 22.05 99.5 14.15 98.95 9.25 98.55M55.55 9.3L55.1 3.6 68.8 10.1 58.75 10.1 55.55 9.3M83.65 3.6L82.7 0.0Q87.3 2.45 91.3 4.9 99.25 9.75 105.05 14.6L105.65 15.1Q110.3 19.1 113.55 23.1L108.35 23.1 105.05 19.4 103.25 17.6 100.55 15.1 94.2 10.1 83.65 3.6M103.25 17.6L105.65 15.1 103.25 17.6M10.15 94.3L18.0 95.5 20.35 86.45 52.4 91.7 68.0 90.55 52.4 91.7 20.35 86.45 18.0 95.5 10.15 94.3M20.35 86.45L12.1 85.05 20.35 86.45M47.25 123.45L42.0 122.7 39.15 122.25 30.9 120.95 32.85 128.45 67.1 148.65 75.0 148.65 93.8 148.65 93.2 146.15 88.8 129.8 83.0 128.9 77.2 128.0 71.0 127.1 65.2 126.25 59.25 125.3 53.05 124.35 47.25 123.45M11.75 104.0L14.3 109.45 20.3 110.35 29.15 111.7 38.25 113.05 96.15 121.9 103.4 149.05 97.6 156.75 82.2 156.75 69.6 156.75 77.15 175.3 52.25 171.25 77.15 175.3 81.15 185.4 72.05 183.8 58.5 181.35 52.25 171.25 49.05 166.05 48.95 166.0 31.65 137.9 19.4 132.65 18.5 129.3 17.55 125.95 16.5 122.05 15.65 118.45 14.7 114.95 14.65 114.9 13.85 111.5 13.7 111.45 12.65 107.45 11.75 104.0" fill="#666666" fill-rule="evenodd" stroke="none"/>
    <path d="M149.55 73.9L151.5 84.7 153.4 95.5 143.45 95.5 141.5 84.7 139.5 73.9 149.55 73.9M199.3 95.5L197.3 86.1 196.9 84.7Q195.05 78.9 193.05 73.9L197.0 73.9 198.95 84.7 199.95 90.3 200.85 95.5 199.3 95.5M198.95 84.7L196.9 84.7 198.95 84.7M103.65 205.5L92.2 205.5 86.75 190.05 86.75 185.4 87.1 185.4Q89.05 186.9 91.45 186.9L91.8 186.9 91.8 190.0 95.35 199.9 103.4 199.9 101.45 202.85 103.65 205.5M151.5 84.7L141.5 84.7 151.5 84.7" fill="#555555" fill-rule="evenodd" stroke="none"/>
    <path d="M153.4 95.5L158.1 98.1 158.2 98.1Q161.6 99.65 165.4 99.9L176.55 99.9 181.3 106.0 170.25 106.0Q164.35 106.1 159.4 104.85 155.3 103.8 151.75 101.85L151.6 101.85 115.05 81.65 118.35 81.65 143.45 95.5 153.4 95.5M191.6 99.9L197.8 99.9Q199.75 99.5 199.75 98.15L199.75 98.1 199.3 95.5 200.85 95.5 199.95 90.3 207.45 102.25Q208.15 103.4 207.8 104.25 207.15 105.55 203.75 106.0L197.7 106.0 191.6 99.9M8.05 79.2L15.3 79.2 23.8 80.05 22.45 80.6 8.05 79.2M10.45 55.85L18.6 55.85 18.35 56.65 33.95 60.7 29.1 60.7 33.95 60.7 74.0 71.0 69.3 71.0 29.1 60.7 10.45 55.85M18.55 34.3L43.95 34.3Q47.25 36.25 46.95 39.65L65.2 45.55 98.9 56.4 91.75 56.4 36.5 39.65 36.4 39.65 18.55 34.3M107.9 81.9L138.3 96.2 131.1 96.2 101.0 81.9 107.9 81.9M98.55 90.55L124.0 104.25 94.15 104.25 68.0 90.55 98.55 90.55M36.5 39.65L46.95 39.65 36.5 39.65M75.0 148.65L67.1 148.65 32.85 128.45 40.75 128.45 75.0 148.65M120.05 118.1L110.0 118.1 107.45 115.55 110.0 118.1 100.05 118.1 99.75 115.55 107.45 115.55 115.15 115.55 120.05 118.1" fill="#cccccc" fill-rule="evenodd" stroke="none"/>
    <path d="M207.8 104.25Q204.95 121.65 198.35 137.0L194.3 145.35Q191.55 150.55 187.8 155.2L185.9 157.4Q175.15 169.5 157.15 177.5L150.8 180.15 132.9 180.15Q146.1 169.2 152.15 155.2 153.8 151.1 155.0 146.7 160.55 125.3 159.4 104.85 164.35 106.1 170.25 106.0L181.3 106.0 180.95 114.65Q180.55 119.05 179.75 123.35L178.2 130.65 176.4 137.0 174.45 142.5 172.6 147.15Q175.8 147.75 180.8 147.15L183.8 142.5 187.0 137.0 190.2 130.65 193.25 123.35Q194.8 119.05 195.95 114.65L197.7 106.0 203.75 106.0Q207.15 105.55 207.8 104.25M187.8 155.2Q171.3 157.9 152.15 155.2 171.3 157.9 187.8 155.2" fill="url(#gradient1)" fill-rule="evenodd" stroke="none"/>
    <path d="M136.95 202.4L131.3 208.65 115.6 208.65 120.3 202.3 136.95 202.4M195.95 114.65Q194.8 119.05 193.25 123.35 186.5 123.8 179.75 123.35 186.5 123.8 193.25 123.35L190.2 130.65 187.0 137.0 183.8 142.5 180.8 147.15Q175.8 147.75 172.6 147.15L174.45 142.5 176.4 137.0 178.2 130.65 179.75 123.35Q180.55 119.05 180.95 114.65 188.15 115.15 195.95 114.65 188.15 115.15 180.95 114.65L181.3 106.0 197.7 106.0 195.95 114.65M187.0 137.0Q181.05 137.4 176.4 137.0 181.05 137.4 187.0 137.0M178.2 130.65Q183.7 130.95 190.2 130.65 183.7 130.95 178.2 130.65M174.45 142.5Q178.85 142.95 183.8 142.5 178.85 142.95 174.45 142.5M114.2 165.1L128.35 151.85 135.5 151.85 121.5 165.1 118.7 167.75 114.9 171.3 113.25 172.9 109.05 176.85 101.8 176.85 114.2 165.1 121.5 165.1 114.2 165.1" fill="#888888" fill-rule="evenodd" stroke="none"/>
    <path d="M123.65 52.4L124.3 56.35 114.35 56.35 116.6 70.4 118.35 81.65 115.05 81.65 110.35 52.4 123.65 52.4M176.55 99.9L191.6 99.9 197.7 106.0 181.3 106.0 176.55 99.9M124.0 104.25L124.0 121.9 123.0 149.05 113.2 149.05 103.4 149.05 96.15 121.9 94.15 104.25 124.0 104.25M32.85 128.45L30.9 120.95 39.15 122.25 40.75 128.45 32.85 128.45M77.15 175.3L69.6 156.75 82.2 156.75 83.15 160.1 87.3 174.4 87.5 175.3 87.65 175.75 90.25 184.95 90.4 185.1 90.45 185.35 90.45 185.4 87.1 185.4 86.75 185.4 81.15 185.4 77.15 175.3 87.5 175.3 77.15 175.3M120.05 118.1L120.05 108.65 115.15 108.65 99.0 108.65 99.75 115.55 100.05 118.1 110.0 118.1 120.05 118.1M124.0 121.9L110.25 121.9 110.0 118.1 110.25 121.9 124.0 121.9M113.2 149.05L110.25 121.9 96.15 121.9 110.25 121.9 113.2 149.05" fill="#aaaaaa" fill-rule="evenodd" stroke="none"/>
    <path d="M155.7 34.4Q151.5 33.0 146.9 32.05 129.75 28.5 113.7 31.35 97.7 34.3 106.95 40.3 116.1 46.35 123.65 52.4L110.35 52.4 110.3 52.25 110.3 52.4Q99.95 43.65 85.15 34.85 79.1 31.1 72.55 27.65L68.05 25.3 64.55 23.6Q54.25 19.0 44.35 15.1L74.8 15.1 44.35 15.1Q22.3 6.35 2.6 0.75L0.0 0.0 12.6 0.0Q35.05 4.1 55.55 9.3L58.75 10.1 74.8 15.1 100.7 23.1 108.35 23.1 113.55 23.1Q110.3 19.1 105.65 15.1L105.05 14.6Q99.25 9.75 91.3 4.9 87.3 2.45 82.7 0.0L90.45 0.0Q107.3 5.8 124.6 15.1 133.25 19.75 142.05 25.3 148.85 29.6 155.7 34.4M105.65 15.1L124.6 15.1 105.65 15.1" fill="url(#gradient2)" fill-rule="evenodd" stroke="none"/>
    <path d="M92.2 205.5L75.95 205.5 71.35 192.6 67.35 192.6 63.3 192.6 67.35 192.6 71.9 205.5 67.85 205.5 63.3 192.6 59.25 192.6 55.2 192.6 51.45 192.6 47.6 185.9 39.9 183.25 38.4 178.2 46.4 180.85 45.25 176.15 44.0 171.15 42.1 163.2 33.1 159.55 29.95 158.25 29.05 154.6 23.85 152.4 21.25 142.0 19.6 135.45 11.55 131.95 10.4 129.3 11.75 129.3 13.85 125.95 10.0 125.95 12.8 122.05 8.95 122.05 11.75 118.45 7.85 118.45 10.9 114.9 7.2 114.9 10.0 111.45 6.2 111.45 9.45 107.45 6.15 107.45 4.75 104.85 10.45 101.3 11.75 104.0 12.65 107.45 13.7 111.45 13.85 111.5 14.65 114.9 14.7 114.95 15.65 118.45 16.5 122.05 17.55 125.95 18.5 129.3 19.4 132.65 31.65 137.9 48.95 166.0 49.05 166.05 42.1 163.2 49.05 166.05 52.9 182.05 56.65 188.7 67.6 188.7 72.05 183.8 81.15 185.4 86.75 185.4 86.75 190.05 73.55 190.05 71.35 192.6 73.55 190.05 86.75 190.05 92.2 205.5M63.85 205.5L59.7 205.5 55.2 192.6 59.25 192.6 63.85 205.5M37.05 173.35L35.65 168.3 44.0 171.15 45.25 176.15 37.05 173.35M84.65 10.1L89.3 10.1 94.2 10.1 100.55 15.1 103.25 17.6 105.05 19.4 108.35 23.1 100.7 23.1 74.8 15.1 58.75 10.1 68.8 10.1 82.2 13.2 85.5 13.2 88.85 13.2 84.65 10.1M116.6 70.4L114.35 56.35Q120.2 59.85 125.4 63.3 133.3 68.6 139.5 73.9L141.5 84.7 116.6 70.4 141.5 84.7 143.45 95.5 118.35 81.65 116.6 70.4M42.0 122.7L43.2 127.45 49.15 130.95 55.9 134.9 62.6 138.95 69.3 142.85 74.95 146.15 76.15 146.15 82.05 146.15 87.65 146.15 93.2 146.15 93.8 148.65 75.0 148.65 40.75 128.45 39.15 122.25 42.0 122.7M21.25 142.0L26.4 143.9 29.05 154.6 26.4 143.9 21.25 142.0M17.55 125.95L13.85 125.95 17.55 125.95M18.5 129.3L11.75 129.3 18.5 129.3M13.7 111.45L10.0 111.45 13.7 111.45M12.65 107.45L9.45 107.45 12.65 107.45M11.75 118.45L15.65 118.45 11.75 118.45M16.5 122.05L12.8 122.05 16.5 122.05M14.65 114.9L10.9 114.9 14.65 114.9M47.6 185.9L46.4 180.85 47.6 185.9M107.45 115.55L99.75 115.55 99.0 108.65 115.15 108.65 115.15 115.55 107.45 115.55M113.25 172.9L113.25 184.9 109.95 190.0 107.2 194.05 106.8 194.75 103.4 199.9 95.35 199.9 91.8 190.0 91.8 186.9Q94.4 186.8 96.3 184.9 98.4 182.85 98.4 179.95L98.4 179.9 98.4 179.65Q98.2 176.95 96.3 175.05 94.3 173.05 91.45 173.05L91.05 173.05 91.05 167.1 91.05 173.05Q89.1 173.1 87.6 174.2L87.3 174.4 83.15 160.1 91.05 167.1 101.8 176.85 109.05 176.85 113.25 172.9M109.05 176.85L109.05 183.7 107.35 186.35 102.3 179.9 98.4 179.9 102.3 179.9 107.35 186.35 109.05 183.7 109.05 176.85M105.1 190.0L106.8 194.75 105.1 190.0 91.8 190.0 105.1 190.0 107.35 186.35 105.1 190.0 109.95 190.0 105.1 190.0" fill="#333333" fill-rule="evenodd" stroke="none"/>
    <path d="M43.95 34.3L2.1 8.55 1.05 4.3 2.6 4.8Q21.95 11.05 35.95 18.15L40.4 20.45Q45.1 22.95 49.1 25.3 54.9 28.7 59.25 31.85 67.95 38.1 65.2 45.55L46.95 39.65Q47.25 36.25 43.95 34.3M89.3 10.1L84.65 7.15 83.65 3.6 94.2 10.1 89.3 10.1" fill="url(#gradient3)" fill-rule="evenodd" stroke="none"/>
    <path d="M62.95 0.5L72.75 2.3 84.65 10.1 88.85 13.2 85.5 13.2 62.95 0.5" fill="url(#gradient4)" fill-rule="evenodd" stroke="none"/>
    <path d="M55.1 3.6L62.95 0.5 85.5 13.2 82.2 13.2 68.8 10.1 55.1 3.6" fill="url(#gradient5)" fill-rule="evenodd" stroke="none"/>
    <path d="M1.05 4.3L0.0 0.0 2.6 0.75Q22.3 6.35 44.35 15.1 54.25 19.0 64.55 23.6L68.05 25.3 72.55 27.65Q79.1 31.1 85.15 34.85 99.95 43.65 110.3 52.4L110.35 52.4 115.05 81.65 151.6 101.85 151.75 101.85Q155.3 103.8 159.4 104.85 160.55 125.3 155.0 146.7 153.8 151.1 152.15 155.2L136.75 147.85 152.15 155.2Q146.1 169.2 132.9 180.15L118.7 167.75 121.5 165.1 135.5 151.85 136.75 147.85 146.55 117.5 138.3 96.2 107.9 81.9 103.4 69.15 98.9 56.4 65.2 45.55Q67.95 38.1 59.25 31.85 54.9 28.7 49.1 25.3 45.1 22.95 40.4 20.45L35.95 18.15Q21.95 11.05 2.6 4.8L1.05 4.3M40.4 20.45L44.35 15.1 40.4 20.45" fill="url(#gradient6)" fill-rule="evenodd" stroke="none"/>
    <path d="M157.15 177.5L151.1 191.25 133.95 191.25 114.9 171.3 118.7 167.75 132.9 180.15 150.8 180.15 157.15 177.5M98.9 56.4L103.4 69.15 107.9 81.9 101.0 81.9 96.4 69.15 91.75 56.4 98.9 56.4M138.3 96.2L146.55 117.5 139.4 117.5 131.1 96.2 138.3 96.2M80.9 71.0L86.2 71.0 91.45 71.0 94.95 80.75 98.55 90.55 68.0 90.55 64.45 80.75 60.9 71.0 69.3 71.0 74.0 71.0 80.9 71.0M103.4 69.15L96.4 69.15 103.4 69.15M94.95 80.75L64.45 80.75 94.95 80.75" fill="#bbbbbb" fill-rule="evenodd" stroke="none"/>
    <path d="M151.1 191.25L136.95 202.4 120.3 202.3 133.95 191.25 151.1 191.25M9.6 96.45L8.05 95.75 8.05 79.2 22.45 80.6 12.1 85.05 10.15 94.3 9.6 96.45M15.85 72.8L8.2 71.1 10.45 55.85 29.1 60.7 69.3 71.0 60.9 71.0 45.0 71.0 32.25 76.45 26.95 75.25 29.1 60.7 26.95 75.25 15.85 72.8M20.0 50.75L12.8 48.35 18.55 34.3 36.4 39.65 36.5 39.65 91.75 56.4 96.4 69.15 86.2 71.0 96.4 69.15 101.0 81.9 131.1 96.2 139.4 117.5 128.35 151.85 114.2 165.1 104.05 156.75 106.55 156.75 114.65 156.75 123.0 149.05 114.65 156.75 106.55 156.75 104.05 156.75 114.2 165.1 101.8 176.85 91.05 167.1 83.15 160.1 82.2 156.75 97.6 156.75 103.4 149.05 113.2 149.05 123.0 149.05 124.0 121.9 124.0 104.25 98.55 90.55 94.95 80.75 91.45 71.0 86.2 71.0 80.9 71.0 30.7 54.3 20.0 50.75M30.7 54.3L36.4 39.65 30.7 54.3M106.55 156.75L113.2 149.05 106.55 156.75M104.05 156.75L97.6 156.75 104.05 156.75" fill="#777777" fill-rule="evenodd" stroke="none"/>
    <path d="M18.6 55.85L20.0 50.75 30.7 54.3 80.9 71.0 74.0 71.0 33.95 60.7 18.35 56.65 18.6 55.85" fill="url(#gradient7)" fill-rule="evenodd" stroke="none"/>
    <path d="M10.45 101.3L9.25 98.55 14.15 98.95 22.05 99.5 30.2 100.05 94.15 104.25 96.15 121.9 38.25 113.05 29.15 111.7 20.3 110.35 14.3 109.45 11.75 104.0 10.45 101.3M29.15 111.7L22.05 99.5 29.15 111.7M30.2 100.05L38.25 113.05 30.2 100.05M115.15 108.65L120.05 108.65 120.05 118.1 115.15 115.55 115.15 108.65M14.15 98.95L20.3 110.35 14.15 98.95" fill="#6f6f6f" fill-rule="evenodd" stroke="none"/>
    <path d="M15.3 79.2L15.85 72.8 26.95 75.25 32.25 76.45 27.6 78.4 23.8 80.05 15.3 79.2" fill="url(#gradient8)" fill-rule="evenodd" stroke="none"/>
    <path d="M42.0 122.7L47.25 123.45 49.15 130.95 47.25 123.45 53.05 124.35 59.25 125.3 65.2 126.25 71.0 127.1 77.2 128.0 83.0 128.9 88.8 129.8 93.2 146.15 87.65 146.15 82.05 146.15 76.15 146.15 74.95 146.15 69.3 142.85 62.6 138.95 55.9 134.9 49.15 130.95 43.2 127.45 42.0 122.7M62.6 138.95L59.25 125.3 62.6 138.95M69.3 142.85L65.2 126.25 69.3 142.85M76.15 146.15L71.0 127.1 76.15 146.15M55.9 134.9L53.05 124.35 55.9 134.9M87.65 146.15L83.0 128.9 87.65 146.15M82.05 146.15L77.2 128.0 82.05 146.15" fill="url(#gradient9)" fill-rule="evenodd" stroke="none"/>
    <path d="M75.95 205.5L71.9 205.5 67.35 192.6 71.35 192.6 75.95 205.5M67.85 205.5L63.85 205.5 59.25 192.6 63.3 192.6 67.85 205.5M38.4 178.2L37.05 173.35 45.25 176.15 46.4 180.85 38.4 178.2M35.65 168.3L33.1 159.55 42.1 163.2 44.0 171.15 35.65 168.3M49.05 166.05L52.25 171.25 58.5 181.35 72.05 183.8 67.6 188.7 56.65 188.7 52.9 182.05 49.05 166.05M91.05 173.05L91.45 173.05Q94.3 173.05 96.3 175.05 98.2 176.95 98.4 179.65L98.4 179.9 98.4 179.95Q98.4 182.85 96.3 184.9 94.4 186.8 91.8 186.9L91.45 186.9Q89.05 186.9 87.1 185.4L90.45 185.4 90.45 185.35 90.4 185.1 90.25 184.95 90.45 184.95Q92.05 184.9 93.25 183.85 92.05 184.9 90.45 184.95L90.25 184.95 87.65 175.75 87.5 175.3 87.3 174.4 87.6 174.2Q89.1 173.1 91.05 173.05M93.1 176.0Q91.8 175.05 90.2 175.05L89.95 175.05 89.6 175.05Q88.5 175.2 87.65 175.75 88.5 175.2 89.6 175.05L89.95 175.05 90.2 175.05Q91.8 175.05 93.1 176.0 92.0 176.1 91.05 177.05 90.15 178.25 90.15 179.9 90.15 181.5 91.05 182.65 92.05 183.8 93.25 183.85L93.7 183.45Q95.2 182.05 95.2 179.95L95.2 179.9 95.2 179.7Q95.1 177.85 93.7 176.45L93.1 176.0" fill="#222222" fill-rule="evenodd" stroke="none"/>
    <path d="M115.6 208.65L106.3 208.65 103.65 205.5 101.45 202.85 103.4 199.9 106.8 194.75 107.2 194.05 109.95 190.0 113.25 184.9 113.25 172.9 114.9 171.3 133.95 191.25 120.3 202.3 107.2 194.05 120.3 202.3 115.6 208.65M146.55 117.5L136.75 147.85 135.5 151.85 128.35 151.85 139.4 117.5 146.55 117.5" fill="#999999" fill-rule="evenodd" stroke="none"/>
    <path d="M93.1 176.0L93.7 176.45Q95.1 177.85 95.2 179.7L95.2 179.9 95.2 179.95Q95.2 182.05 93.7 183.45L93.25 183.85Q92.05 183.8 91.05 182.65 90.15 181.5 90.15 179.9 90.15 178.25 91.05 177.05 92.0 176.1 93.1 176.0" fill="url(#gradient10)" fill-rule="evenodd" stroke="none"/>
    <path d="M193.05 73.9L191.1 69.2Q184.55 54.4 176.4 46.9 167.3 38.55 155.7 34.4 151.5 33.0 146.9 32.05 129.75 28.5 113.7 31.35 97.7 34.3 106.95 40.3 116.1 46.35 123.65 52.4L124.3 56.35Q139.15 65.15 149.55 73.9L151.5 84.7 153.4 95.5 158.1 98.1 158.2 98.1Q161.6 99.65 165.4 99.9L176.55 99.9 191.6 99.9 197.8 99.9Q199.75 99.5 199.75 98.15L199.75 98.1 199.3 95.5 197.3 86.1 196.9 84.7Q195.05 78.9 193.05 73.9L197.0 73.9 191.1 69.2M199.95 90.3L200.85 95.5 199.3 95.5M196.9 84.7L198.95 84.7 197.0 73.9M198.95 84.7L199.95 90.3 207.45 102.25Q208.15 103.4 207.8 104.25 204.95 121.65 198.35 137.0L194.3 145.35Q191.55 150.55 187.8 155.2L185.9 157.4Q175.15 169.5 157.15 177.5L151.1 191.25 136.95 202.4 131.3 208.65 115.6 208.65 106.3 208.65 103.65 205.5 92.2 205.5 75.95 205.5 71.9 205.5 67.85 205.5 63.85 205.5 59.7 205.5 55.2 192.6 51.45 192.6 47.6 185.9 39.9 183.25 38.4 178.2 37.05 173.35 35.65 168.3 33.1 159.55 29.95 158.25 29.05 154.6 23.85 152.4 21.25 142.0 19.6 135.45 11.55 131.95 10.4 129.3 11.75 129.3 13.85 125.95 10.0 125.95 12.8 122.05 8.95 122.05 11.75 118.45 7.85 118.45 10.9 114.9 7.2 114.9 10.0 111.45 6.2 111.45 9.45 107.45 6.15 107.45 4.75 104.85 10.45 101.3 9.25 98.55 9.6 96.45 8.05 95.75 8.05 79.2 15.3 79.2 15.85 72.8 8.2 71.1 10.45 55.85 18.6 55.85 20.0 50.75 12.8 48.35 18.55 34.3 43.95 34.3 2.1 8.55 1.05 4.3 0.0 0.0 12.6 0.0Q35.05 4.1 55.55 9.3L55.1 3.6 62.95 0.5 72.75 2.3 84.65 10.1 89.3 10.1 84.65 7.15 83.65 3.6 82.7 0.0 90.45 0.0Q107.3 5.8 124.6 15.1 133.25 19.75 142.05 25.3 148.85 29.6 155.7 34.4M197.7 106.0L203.75 106.0Q207.15 105.55 207.8 104.25M193.25 123.35Q194.8 119.05 195.95 114.65 188.15 115.15 180.95 114.65 180.55 119.05 179.75 123.35 186.5 123.8 193.25 123.35L190.2 130.65 187.0 137.0 183.8 142.5 180.8 147.15Q175.8 147.75 172.6 147.15L174.45 142.5 176.4 137.0 178.2 130.65 179.75 123.35M195.95 114.65L197.7 106.0 181.3 106.0 180.95 114.65M191.6 99.9L197.7 106.0M159.4 104.85Q164.35 106.1 170.25 106.0L181.3 106.0 176.55 99.9M183.8 142.5Q178.85 142.95 174.45 142.5M190.2 130.65Q183.7 130.95 178.2 130.65M176.4 137.0Q181.05 137.4 187.0 137.0M105.65 15.1L103.25 17.6 105.05 19.4 108.35 23.1 113.55 23.1Q110.3 19.1 105.65 15.1L105.05 14.6Q99.25 9.75 91.3 4.9 87.3 2.45 82.7 0.0M85.5 13.2L88.85 13.2 84.65 10.1M85.5 13.2L82.2 13.2 68.8 10.1 58.75 10.1 74.8 15.1 100.7 23.1 108.35 23.1M103.25 17.6L100.55 15.1 94.2 10.1 89.3 10.1M83.65 3.6L94.2 10.1M110.3 52.4L110.3 52.25 110.35 52.4 123.65 52.4M110.35 52.4L110.3 52.4Q99.95 43.65 85.15 34.85 79.1 31.1 72.55 27.65L68.05 25.3 64.55 23.6Q54.25 19.0 44.35 15.1L40.4 20.45Q45.1 22.95 49.1 25.3 54.9 28.7 59.25 31.85 67.95 38.1 65.2 45.55L98.9 56.4 103.4 69.15 107.9 81.9 138.3 96.2 146.55 117.5 136.75 147.85 152.15 155.2Q153.8 151.1 155.0 146.7 160.55 125.3 159.4 104.85 155.3 103.8 151.75 101.85L151.6 101.85 115.05 81.65 110.35 52.4M114.35 56.35L116.6 70.4 141.5 84.7 139.5 73.9Q133.3 68.6 125.4 63.3 120.2 59.85 114.35 56.35L124.3 56.35M91.75 56.4L98.9 56.4M86.2 71.0L96.4 69.15 91.75 56.4 36.5 39.65 36.4 39.65 30.7 54.3 80.9 71.0 86.2 71.0 91.45 71.0 94.95 80.75 98.55 90.55 124.0 104.25 124.0 121.9 123.0 149.05 114.65 156.75 106.55 156.75 104.05 156.75 114.2 165.1 128.35 151.85 139.4 117.5 131.1 96.2 101.0 81.9 96.4 69.15 103.4 69.15M118.35 81.65L115.05 81.65M118.35 81.65L116.6 70.4M107.9 81.9L101.0 81.9M131.1 96.2L138.3 96.2M153.4 95.5L143.45 95.5 118.35 81.65M141.5 84.7L143.45 95.5M139.5 73.9L149.55 73.9M141.5 84.7L151.5 84.7M124.6 15.1L105.65 15.1M58.75 10.1L55.55 9.3M46.95 39.65Q47.25 36.25 43.95 34.3M65.2 45.55L46.95 39.65 36.5 39.65M74.8 15.1L44.35 15.1Q22.3 6.35 2.6 0.75L0.0 0.0M55.1 3.6L68.8 10.1M40.4 20.45L35.95 18.15Q21.95 11.05 2.6 4.8L1.05 4.3M36.4 39.65L18.55 34.3M29.1 60.7L33.95 60.7 18.35 56.65 18.6 55.85M9.6 96.45L10.15 94.3 12.1 85.05 22.45 80.6 8.05 79.2M9.25 98.55L14.15 98.95 22.05 99.5 30.2 100.05 94.15 104.25 68.0 90.55 52.4 91.7 20.35 86.45 18.0 95.5 10.15 94.3M26.95 75.25L32.25 76.45 45.0 71.0 60.9 71.0 69.3 71.0 29.1 60.7 26.95 75.25 15.85 72.8M32.25 76.45L27.6 78.4 48.85 81.9 64.45 80.75 60.9 71.0M23.8 80.05L22.45 80.6M23.8 80.05L27.6 78.4M15.3 79.2L23.8 80.05M20.0 50.75L30.7 54.3M10.45 55.85L29.1 60.7M12.1 85.05L20.35 86.45M69.3 71.0L74.0 71.0 33.95 60.7M74.0 71.0L80.9 71.0M68.0 90.55L64.45 80.75 94.95 80.75M47.25 123.45L42.0 122.7 43.2 127.45 49.15 130.95 47.25 123.45 53.05 124.35 59.25 125.3 65.2 126.25 71.0 127.1 77.2 128.0 83.0 128.9 88.8 129.8 93.2 146.15 93.8 148.65 75.0 148.65 67.1 148.65 32.85 128.45 30.9 120.95 39.15 122.25 42.0 122.7M93.2 146.15L87.65 146.15 82.05 146.15 76.15 146.15 74.95 146.15 69.3 142.85 62.6 138.95 55.9 134.9 49.15 130.95M53.05 124.35L55.9 134.9M71.0 127.1L76.15 146.15M65.2 126.25L69.3 142.85M59.25 125.3L62.6 138.95M96.15 121.9L38.25 113.05 29.15 111.7 20.3 110.35 14.3 109.45 11.75 104.0 12.65 107.45 13.7 111.45 13.85 111.5 14.65 114.9 14.7 114.95 15.65 118.45 16.5 122.05 17.55 125.95 18.5 129.3 19.4 132.65 31.65 137.9 48.95 166.0 49.05 166.05 52.25 171.25 77.15 175.3 69.6 156.75 82.2 156.75 97.6 156.75 103.4 149.05 96.15 121.9 94.15 104.25 124.0 104.25M38.25 113.05L30.2 100.05M22.05 99.5L29.15 111.7M11.75 104.0L10.45 101.3M10.9 114.9L14.65 114.9M12.8 122.05L16.5 122.05M15.65 118.45L11.75 118.45M9.45 107.45L12.65 107.45M10.0 111.45L13.7 111.45M11.75 129.3L18.5 129.3M13.85 125.95L17.55 125.95M29.05 154.6L26.4 143.9 21.25 142.0M35.65 168.3L44.0 171.15 42.1 163.2 33.1 159.55M49.05 166.05L42.1 163.2M55.2 192.6L59.25 192.6 63.3 192.6 67.35 192.6 71.35 192.6 73.55 190.05 86.75 190.05 86.75 185.4 81.15 185.4 72.05 183.8 67.6 188.7 56.65 188.7 52.9 182.05 49.05 166.05M45.25 176.15L46.4 180.85 47.6 185.9M44.0 171.15L45.25 176.15 37.05 173.35M52.25 171.25L58.5 181.35 72.05 183.8M32.85 128.45L40.75 128.45 39.15 122.25M46.4 180.85L38.4 178.2M40.75 128.45L75.0 148.65M146.55 117.5L139.4 117.5M115.15 108.65L120.05 108.65 120.05 118.1 110.0 118.1 110.25 121.9 124.0 121.9M110.0 118.1L107.45 115.55 99.75 115.55 100.05 118.1 110.0 118.1M115.15 115.55L120.05 118.1M115.15 108.65L115.15 115.55 107.45 115.55M99.75 115.55L99.0 108.65 115.15 108.65M83.0 128.9L87.65 146.15M96.15 121.9L110.25 121.9 113.2 149.05 123.0 149.05M114.9 171.3L113.25 172.9 113.25 184.9 109.95 190.0 107.2 194.05 120.3 202.3 133.95 191.25 114.9 171.3 118.7 167.75 121.5 165.1 114.2 165.1 101.8 176.85 109.05 176.85 113.25 172.9M113.2 149.05L106.55 156.75M113.2 149.05L103.4 149.05M91.05 173.05L91.45 173.05Q94.3 173.05 96.3 175.05 98.2 176.95 98.4 179.65L98.4 179.9 102.3 179.9 107.35 186.35 109.05 183.7 109.05 176.85M83.15 160.1L82.2 156.75M91.05 167.1L91.05 173.05Q89.1 173.1 87.6 174.2L87.3 174.4 87.5 175.3 87.65 175.75Q88.5 175.2 89.6 175.05L89.95 175.05 90.2 175.05Q91.8 175.05 93.1 176.0L93.7 176.45Q95.1 177.85 95.2 179.7L95.2 179.9 95.2 179.95Q95.2 182.05 93.7 183.45L93.25 183.85Q92.05 184.9 90.45 184.95L90.25 184.95 90.4 185.1 90.45 185.35 90.45 185.4 87.1 185.4Q89.05 186.9 91.45 186.9L91.8 186.9Q94.4 186.8 96.3 184.9 98.4 182.85 98.4 179.95L98.4 179.9M91.05 167.1L83.15 160.1 87.3 174.4M93.25 183.85Q92.05 183.8 91.05 182.65 90.15 181.5 90.15 179.9 90.15 178.25 91.05 177.05 92.0 176.1 93.1 176.0M86.75 185.4L87.1 185.4M90.25 184.95L87.65 175.75M91.8 186.9L91.8 190.0 105.1 190.0 107.35 186.35M105.1 190.0L109.95 190.0M106.8 194.75L105.1 190.0M107.2 194.05L106.8 194.75 103.4 199.9 101.45 202.85 103.65 205.5M97.6 156.75L104.05 156.75M101.8 176.85L91.05 167.1M128.35 151.85L135.5 151.85 136.75 147.85M135.5 151.85L121.5 165.1M157.15 177.5L150.8 180.15 132.9 180.15 118.7 167.75M133.95 191.25L151.1 191.25M132.9 180.15Q146.1 169.2 152.15 155.2 171.3 157.9 187.8 155.2M62.95 0.5L85.5 13.2M68.0 90.55L98.55 90.55M77.2 128.0L82.05 146.15M87.5 175.3L77.15 175.3 81.15 185.4M20.3 110.35L14.15 98.95M103.4 199.9L95.35 199.9 91.8 190.0M115.6 208.65L120.3 202.3 136.95 202.4M59.25 192.6L63.85 205.5M92.2 205.5L86.75 190.05M67.35 192.6L71.9 205.5M71.35 192.6L75.95 205.5M63.3 192.6L67.85 205.5" fill="none" stroke-width="0.7" stroke="#000" stroke-opacity="0.4"/>
    <path d="M190.15 36.6Q190.15 42.3 176.45 46.35 162.8 50.45 143.5 50.45 124.2 50.45 110.5 46.35 96.85 42.3 96.85 36.6 96.85 30.9 110.5 26.75 124.2 22.75 143.5 22.75 162.8 22.75 176.45 26.75 190.15 30.9 190.15 36.6" fill="url(#gradient11)" fill-rule="evenodd" stroke="none"/>
  </g>
  <defs>
    <radialGradient cx="0" cy="0" gradientTransform="matrix(0.0703, 0.0355, -0.0281, 0.0556, 164.4, 49.95)" gradientUnits="userSpaceOnUse" id="gradient0" r="819.2" spreadMethod="pad">
      <stop offset="0.0" stop-color="#c6edff"/>
      <stop offset="0.17254901960784313" stop-color="#70cbff"/>
      <stop offset="1.0" stop-color="#1b68d2"/>
    </radialGradient>
    <radialGradient cx="0" cy="0" gradientTransform="matrix(0.068, 0.0182, -0.0294, 0.1096, 191.4, 110.8)" gradientUnits="userSpaceOnUse" id="gradient1" r="819.2" spreadMethod="pad">
      <stop offset="0.0" stop-color="#bbbbbb"/>
      <stop offset="1.0" stop-color="#888888"/>
    </radialGradient>
    <linearGradient gradientTransform="matrix(0.0, 0.0313, -0.032, 0.0, 81.7, 25.95)" gradientUnits="userSpaceOnUse" id="gradient2" spreadMethod="pad" x1="-819.2" x2="819.2">
      <stop offset="0.0" stop-color="#cccccc"/>
      <stop offset="0.21568627450980393" stop-color="#dbdbdb"/>
      <stop offset="1.0" stop-color="#c0c0c0"/>
    </linearGradient>
    <radialGradient cx="0" cy="0" gradientTransform="matrix(0.1812, 0.0, 0.0, 0.132, 108.0, 73.4)" gradientUnits="userSpaceOnUse" id="gradient3" r="819.2" spreadMethod="pad">
      <stop offset="0.0" stop-color="#9c9c9c"/>
      <stop offset="1.0" stop-color="#777777"/>
    </radialGradient>
    <linearGradient gradientTransform="matrix(0.0158, 0.0, 0.0, 0.0078, 75.85, 6.85)" gradientUnits="userSpaceOnUse" id="gradient4" spreadMethod="pad" x1="-819.2" x2="819.2">
      <stop offset="0.0" stop-color="#cccccc"/>
      <stop offset="0.21568627450980393" stop-color="#dbdbdb"/>
      <stop offset="1.0" stop-color="#c0c0c0"/>
    </linearGradient>
    <linearGradient gradientTransform="matrix(0.0186, 0.0, 0.0, 0.0078, 70.25, 6.85)" gradientUnits="userSpaceOnUse" id="gradient5" spreadMethod="pad" x1="-819.2" x2="819.2">
      <stop offset="0.0" stop-color="#cccccc"/>
      <stop offset="0.21568627450980393" stop-color="#dbdbdb"/>
      <stop offset="1.0" stop-color="#c0c0c0"/>
    </linearGradient>
    <radialGradient cx="0" cy="0" gradientTransform="matrix(0.1812, 0.0, 0.0, 0.132, 108.0, 73.4)" gradientUnits="userSpaceOnUse" id="gradient6" r="819.2" spreadMethod="pad">
      <stop offset="0.0" stop-color="#888888"/>
      <stop offset="1.0" stop-color="#666666"/>
    </radialGradient>
    <linearGradient gradientTransform="matrix(0.0369, 0.0099, -0.0032, 0.0119, 49.1, 62.75)" gradientUnits="userSpaceOnUse" id="gradient7" spreadMethod="pad" x1="-819.2" x2="819.2">
      <stop offset="0.0" stop-color="#70ebff"/>
      <stop offset="1.0" stop-color="#005cdb"/>
    </linearGradient>
    <linearGradient gradientTransform="matrix(0.0234, 0.0035, -6.0E-4, 0.0044, 33.75, 81.15)" gradientUnits="userSpaceOnUse" id="gradient8" spreadMethod="pad" x1="-819.2" x2="819.2">
      <stop offset="0.0" stop-color="#70ebff"/>
      <stop offset="1.0" stop-color="#005cdb"/>
    </linearGradient>
    <linearGradient gradientTransform="matrix(0.0313, 0.0, 0.0, 0.0143, 67.55, 134.4)" gradientUnits="userSpaceOnUse" id="gradient9" spreadMethod="pad" x1="-819.2" x2="819.2">
      <stop offset="0.0" stop-color="#70ebff"/>
      <stop offset="1.0" stop-color="#005cdb"/>
    </linearGradient>
    <radialGradient cx="0" cy="0" gradientTransform="matrix(0.0052, 0.0, 0.0, 0.0052, 92.65, 179.9)" gradientUnits="userSpaceOnUse" id="gradient10" r="819.2" spreadMethod="pad">
      <stop offset="0.0" stop-color="#70ebff"/>
      <stop offset="1.0" stop-color="#005cdb"/>
    </radialGradient>
    <radialGradient cx="0" cy="0" gradientTransform="matrix(0.0285, 0.0046, -0.0012, 0.0076, 143.45, 36.55)" gradientUnits="userSpaceOnUse" id="gradient11" r="819.2" spreadMethod="pad">
      <stop offset="0.0" stop-color="#ffffff" stop-opacity="0.6"/>
      <stop offset="1.0" stop-color="#ffffff" stop-opacity="0.0"/>
    </radialGradient>
  </defs>
</svg>
