<?xml version="1.0" encoding="UTF-8" standalone="no"?>
<svg xmlns:xlink="http://www.w3.org/1999/xlink" height="187.8px" width="147.1px" xmlns="http://www.w3.org/2000/svg">
  <g transform="matrix(1.0, 0.0, 0.0, 1.0, 0.05, 0.05)">
    <path d="M105.15 23.6 Q105.6 21.8 105.7 19.8 L105.7 18.65 105.45 14.85 106.95 14.7 110.7 14.6 112.2 19.8 113.15 23.6 117.15 38.3 109.15 38.3 105.7 25.5 105.15 23.6 M105.7 19.8 L112.2 19.8 105.7 19.8 M113.15 25.4 L105.7 25.5 113.15 25.4 M73.45 24.15 L76.0 33.45 77.3 38.3 76.6 38.3 69.35 38.3 66.1 26.6 73.55 26.6 66.1 26.6 64.55 20.75 62.9 14.75 62.9 14.7 63.05 14.7 67.85 14.6 69.25 15.15 69.05 14.6 70.85 14.6 73.45 24.15 M72.2 20.75 L64.55 20.75 72.2 20.75" fill="#b1b1b1" fill-rule="evenodd" stroke="none"/>
    <path d="M103.5 8.75 L103.25 8.75 102.75 7.85 103.0 7.9 103.05 7.9 103.5 8.75" fill="#cccccc" fill-rule="evenodd" stroke="none"/>
    <path d="M105.45 14.85 L105.4 14.6 106.95 14.7 105.45 14.85 M88.2 47.1 L87.55 47.15 87.55 47.1 88.2 47.1 M69.05 14.6 L69.25 15.15 67.85 14.6 69.05 14.6 M46.25 166.35 L46.2 166.2 51.5 166.2 52.95 183.2 61.75 183.2 59.3 187.7 48.05 187.7 47.6 183.2 46.65 171.5 46.25 166.35 M68.5 187.7 L70.6 187.6 70.6 187.7 68.5 187.7" fill="#999999" fill-rule="evenodd" stroke="none"/>
    <path d="M99.85 33.45 L101.4 31.7 101.65 31.4 Q104.25 27.95 105.15 23.6 L105.7 25.5 105.15 25.5 105.7 25.5 109.15 38.3 102.0 39.45 99.85 33.45 M87.55 47.15 Q66.35 110.1 90.0 145.65 L76.45 158.15 Q73.1 152.4 70.4 146.6 73.1 152.4 76.45 158.15 L59.25 159.5 54.65 159.8 Q54.1 152.55 52.85 146.05 50.8 135.85 47.0 127.4 44.85 122.65 42.05 118.45 37.1 110.85 30.3 105.25 L34.05 97.15 53.4 56.35 57.25 56.1 63.4 55.55 76.15 54.65 79.45 49.45 Q80.05 48.5 87.55 47.15 M34.4 107.75 L35.9 104.55 Q41.6 109.6 45.95 116.2 48.7 120.4 50.9 125.2 54.65 133.6 56.65 143.85 L59.25 159.5 56.65 143.85 Q54.65 133.6 50.9 125.2 48.7 120.4 45.95 116.2 41.6 109.6 35.9 104.55 L34.4 107.75 M67.85 14.6 L63.05 14.7 62.9 14.6 62.9 14.7 62.9 14.75 64.55 20.75 66.1 26.6 69.35 38.3 Q62.15 39.05 56.3 40.95 L53.95 41.7 53.85 41.75 Q47.45 44.15 42.75 47.9 40.85 49.25 39.35 50.95 L39.25 50.95 23.4 47.55 39.25 50.95 37.8 52.55 Q35.1 55.7 33.15 59.6 L24.45 57.35 Q22.95 53.9 23.4 47.55 23.6 43.65 24.5 38.6 L24.6 38.6 33.15 39.6 Q49.7 27.6 66.1 26.6 49.7 27.6 33.15 39.6 L24.6 38.6 24.5 38.6 Q25.7 32.15 28.1 23.85 L36.9 15.95 Q38.6 1.85 53.9 0.0 L54.3 0.0 Q60.15 0.15 64.3 5.55 68.45 10.85 69.05 14.6 L67.85 14.6 M62.9 14.75 L55.4 16.35 Q52.4 17.1 49.7 18.0 44.4 19.65 39.95 21.95 L36.9 23.7 36.75 22.4 36.75 21.05 Q36.65 18.3 36.9 15.95 36.65 18.3 36.75 21.05 L36.75 22.4 36.9 23.7 39.95 21.95 Q44.4 19.65 49.7 18.0 52.4 17.1 55.4 16.35 L62.9 14.75 M24.6 38.6 Q44.15 21.05 64.55 20.75 44.15 21.05 24.6 38.6 M51.5 71.75 L56.55 60.85 73.3 59.7 71.75 62.75 Q69.8 66.55 68.15 70.4 L67.15 73.1 Q65.05 78.5 63.65 83.95 65.05 78.5 67.15 73.1 L68.15 70.4 Q69.8 66.55 71.75 62.75 L73.3 59.7 56.55 60.85 51.5 71.75 48.8 77.35 46.2 82.75 43.55 88.4 54.65 99.45 Q53.75 116.7 61.55 138.65 L70.4 146.6 Q60.8 126.1 60.85 105.7 60.85 101.9 61.25 98.05 L61.25 97.8 Q61.55 94.25 62.2 90.7 62.75 87.3 63.65 83.95 L51.5 71.75 M14.4 140.55 Q15.5 136.4 17.3 132.3 L23.15 138.1 36.5 138.1 23.15 138.1 17.3 132.3 Q20.9 124.0 27.65 115.8 L37.1 130.5 Q36.55 134.4 36.5 138.1 35.9 155.4 46.2 166.2 L46.25 166.35 34.1 166.35 34.5 163.7 Q34.65 159.15 32.15 155.9 29.45 152.8 25.7 152.8 21.75 152.8 19.05 155.9 17.0 158.15 16.35 161.1 L12.8 161.1 12.95 152.15 14.4 140.55 M31.5 171.5 L46.65 171.5 47.6 183.2 30.5 183.2 23.0 177.85 12.45 177.85 23.0 177.85 30.5 183.2 47.6 183.2 48.05 187.7 12.9 187.7 Q12.45 182.65 12.45 177.85 L12.45 176.75 12.75 166.2 16.05 166.2 Q16.45 169.1 18.3 171.45 20.85 174.65 24.8 174.65 28.55 174.65 31.5 171.5 M61.75 183.2 L70.6 168.3 80.9 166.7 82.5 166.5 93.1 153.9 93.95 154.2 Q97.15 155.45 99.9 156.95 100.8 157.4 101.7 158.0 111.85 163.95 115.8 172.8 L101.7 177.5 86.6 182.9 69.85 183.2 86.6 182.9 101.7 177.5 117.4 177.5 Q118.45 182.1 118.05 187.4 L70.6 187.6 68.5 187.7 70.6 187.55 70.6 183.2 69.85 183.2 67.55 183.2 65.75 183.2 61.75 183.2 M35.9 104.55 L43.55 88.4 35.9 104.55" fill="#666666" fill-rule="evenodd" stroke="none"/>
    <path d="M87.55 47.15 L88.2 47.1 93.15 47.1 Q84.75 72.2 84.3 87.9 L96.2 95.3 107.85 88.15 Q104.6 73.1 110.1 47.1 104.6 73.1 107.85 88.15 L96.2 95.3 84.3 87.9 Q84.75 72.2 93.15 47.1 L104.4 47.1 110.1 47.1 113.4 47.1 Q101.25 101.4 135.95 146.05 L90.0 145.65 Q66.35 110.1 87.55 47.15 M110.0 115.85 L113.65 115.85 Q111.15 109.65 109.45 103.5 L105.85 103.5 83.95 103.5 84.2 107.75 Q84.5 111.85 85.1 115.85 L110.0 115.85 M113.4 125.2 L86.65 125.2 Q88.45 131.65 91.35 137.5 L120.7 137.5 125.1 137.5 Q121.15 131.45 117.9 125.2 L113.4 125.2" fill="#9d9d9d" fill-rule="evenodd" stroke="none"/>
    <path d="M90.0 145.65 L135.95 146.05 126.75 154.4 125.4 153.9 124.4 152.45 124.0 152.25 Q123.7 151.95 123.4 151.8 L126.15 149.7 115.15 149.15 92.9 149.15 91.45 150.55 83.15 158.15 71.2 159.05 59.25 159.8 54.65 159.8 59.25 159.5 59.25 159.8 59.25 159.5 76.45 158.15 90.0 145.65 M117.15 38.3 Q109.1 39.2 102.75 41.4 L102.0 39.45 109.15 38.3 117.15 38.3 M59.6 42.6 Q57.9 43.4 56.3 44.3 54.35 45.2 52.7 46.4 L49.7 48.7 47.6 50.5 39.35 50.95 47.6 50.5 Q45.2 52.95 43.3 55.85 42.05 57.55 41.15 59.6 L39.9 59.6 33.15 59.6 Q35.1 55.7 37.8 52.55 L39.25 50.95 39.35 50.95 Q40.85 49.25 42.75 47.9 47.45 44.15 53.85 41.75 L53.95 41.7 56.3 40.95 Q62.15 39.05 69.35 38.3 L76.6 38.3 75.8 38.45 Q69.95 39.25 64.85 40.8 L62.0 41.7 59.6 42.6 M62.0 41.7 L60.95 41.7 62.0 41.7 M51.5 71.75 L63.65 83.95 Q62.75 87.3 62.2 90.7 61.55 94.25 61.25 97.8 L61.25 98.05 Q60.85 101.9 60.85 105.7 L54.65 99.45 43.55 88.4 46.2 82.75 48.8 77.35 51.5 71.75 M61.25 97.8 L46.2 82.75 61.25 97.8 M62.2 90.7 L48.8 77.35 62.2 90.7 M14.4 140.55 L12.95 152.15 4.0 144.65 2.9 142.9 7.5 140.2 14.4 140.55 M12.8 161.1 L16.35 161.1 Q16.0 162.3 15.95 163.7 L16.05 166.2 12.75 166.2 12.8 161.1 M34.1 166.35 L46.25 166.35 46.65 171.5 31.5 171.5 31.55 171.45 Q33.45 169.2 34.1 166.35" fill="#4c4c4c" fill-rule="evenodd" stroke="none"/>
    <path d="M63.4 55.55 L57.25 56.1 53.4 56.35 34.05 97.15 Q35.2 91.25 32.25 87.95 L42.05 62.3 40.7 60.5 39.9 59.6 41.15 59.6 Q42.05 57.55 43.3 55.85 45.2 52.95 47.6 50.5 L49.7 48.7 52.7 46.4 Q54.35 45.2 56.3 44.3 57.9 43.4 59.6 42.6 L63.4 55.55 M42.05 118.45 Q44.85 122.65 47.0 127.4 50.8 135.85 52.85 146.05 54.1 152.55 54.65 159.8 L59.25 159.8 59.5 161.1 56.45 161.1 52.4 161.1 47.55 161.1 52.4 161.1 56.45 161.1 59.5 161.1 59.25 159.8 71.2 159.05 83.15 158.15 91.45 150.55 Q94.95 151.7 96.25 153.9 94.95 151.7 91.45 150.55 L92.9 149.15 115.15 149.15 126.15 149.7 123.4 151.8 Q122.65 151.25 121.7 150.95 L121.25 150.75 120.7 150.55 115.15 149.15 120.7 150.55 121.25 150.75 121.7 150.95 Q122.65 151.25 123.4 151.8 123.7 151.95 124.0 152.25 L124.4 152.45 125.4 153.9 96.25 153.9 93.1 153.9 82.5 166.5 80.9 166.7 70.6 168.3 61.75 183.2 52.95 183.2 51.5 166.2 49.7 164.15 47.55 161.1 Q39.7 149.0 42.5 130.5 L39.5 127.2 40.7 121.15 42.05 118.45 M60.4 48.25 L52.7 46.4 60.4 48.25 M61.4 52.1 L49.7 48.7 61.4 52.1 M57.25 56.1 L49.7 53.85 47.6 50.5 49.7 53.85 57.25 56.1 M42.65 61.0 L42.05 62.3 41.15 59.6 40.7 60.5 41.15 59.6 42.05 62.3 42.65 61.0 41.15 59.6 42.65 61.0 43.25 59.7 44.9 59.05 43.25 59.7 42.65 61.0 M52.7 55.55 L47.9 56.2 46.55 58.45 44.9 59.05 43.3 55.85 44.9 59.05 46.55 58.45 47.9 56.2 52.7 55.55 M52.85 146.05 Q46.1 145.65 44.6 139.2 46.1 145.65 52.85 146.05 M52.55 151.4 Q48.45 151.5 46.0 149.65 43.85 147.9 42.95 144.5 L47.0 127.4 42.95 144.5 Q43.85 147.9 46.0 149.65 48.45 151.5 52.55 151.4 M57.2 164.85 L60.4 161.1 67.0 161.1 69.95 165.75 80.9 166.7 69.95 165.75 67.0 161.1 60.4 161.1 57.2 164.85 M83.8 164.0 L73.55 163.1 71.2 159.05 73.55 163.1 83.8 164.0 M62.0 173.9 Q62.05 174.25 62.45 174.5 L63.2 174.65 63.85 174.0 63.95 173.35 63.35 172.8 62.75 172.65 62.05 173.1 Q61.85 173.45 62.0 173.9 M53.05 152.35 L51.5 160.2 53.05 152.35 M45.1 154.55 L46.0 149.65 45.1 154.55 M55.75 177.95 L53.2 164.85 56.45 161.1 53.2 164.85 55.75 177.95 M59.5 161.1 L60.4 161.1 59.5 161.1 M52.4 161.1 L49.7 164.15 52.4 161.1 M59.9 177.05 Q59.9 177.4 60.25 177.75 L61.1 177.8 61.7 177.2 61.75 176.5 61.15 175.95 60.5 175.85 59.9 176.3 Q59.7 176.7 59.9 177.05 M57.7 180.05 L58.15 180.65 58.9 180.75 59.6 180.2 59.6 179.45 59.05 178.85 58.4 178.75 Q57.95 178.95 57.8 179.3 57.55 179.6 57.7 180.05" fill="#333333" fill-rule="evenodd" stroke="none"/>
    <path d="M27.65 115.8 L40.7 121.15 39.5 127.2 42.5 130.5 37.1 130.5 27.65 115.8" fill="#c3c3c3" fill-rule="evenodd" stroke="none"/>
    <path d="M46.2 166.2 Q35.9 155.4 36.5 138.1 36.55 134.4 37.1 130.5 L42.5 130.5 Q39.7 149.0 47.55 161.1 L49.7 164.15 51.5 166.2 46.2 166.2" fill="#b2b2b2" fill-rule="evenodd" stroke="none"/>
    <path d="M12.95 152.15 L12.8 161.1 12.75 166.2 12.45 176.75 0.85 167.45 3.8 164.1 0.25 161.4 3.35 157.55 0.05 154.85 3.35 151.35 0.0 148.7 4.0 144.65 12.95 152.15 M12.45 161.1 L12.8 161.1 12.45 161.1" fill="#282828" fill-rule="evenodd" stroke="none"/>
    <path d="M105.85 103.5 L109.45 103.5 Q111.15 109.65 113.65 115.85 L110.0 115.85 Q107.55 109.65 105.85 103.5 M120.7 137.5 Q116.65 131.45 113.4 125.2 L117.9 125.2 Q121.15 131.45 125.1 137.5 L120.7 137.5" fill="#000099" fill-rule="evenodd" stroke="none"/>
    <path d="M62.0 173.9 Q61.85 173.45 62.05 173.1 L62.75 172.65 63.35 172.8 63.95 173.35 63.85 174.0 63.2 174.65 62.45 174.5 Q62.05 174.25 62.0 173.9 M57.7 180.05 Q57.55 179.6 57.8 179.3 57.95 178.95 58.4 178.75 L59.05 178.85 59.6 179.45 59.6 180.2 58.9 180.75 58.15 180.65 57.7 180.05 M59.9 177.05 Q59.7 176.7 59.9 176.3 L60.5 175.85 61.15 175.95 61.75 176.5 61.7 177.2 61.1 177.8 60.25 177.75 Q59.9 177.4 59.9 177.05" fill="#0079ff" fill-rule="evenodd" stroke="none"/>
    <path d="M115.8 172.8 Q111.85 163.95 101.7 158.0 100.8 157.4 99.9 156.95 97.15 155.45 93.95 154.2 L93.1 153.9 96.25 153.9 125.4 153.9 126.75 154.4 Q141.8 160.5 145.65 172.4 L115.8 172.8 M118.05 187.4 Q118.45 182.1 117.4 177.5 L146.75 177.5 Q147.2 182.1 146.85 187.4 L118.05 187.4" fill="#a2a2a2" fill-rule="evenodd" stroke="none"/>
    <path d="M101.7 177.5 L115.8 172.8 Q116.8 175.05 117.4 177.5 L101.7 177.5" fill="#1954ff" fill-rule="evenodd" stroke="none"/>
    <path d="M103.0 7.9 L102.75 7.85 103.25 8.75 103.5 8.75 Q104.85 11.45 105.4 14.6 L105.45 14.85 105.7 18.65 105.7 19.8 Q105.6 21.8 105.15 23.6 104.25 27.95 101.65 31.4 L101.4 31.7 99.85 33.45 96.9 33.45 Q101.25 24.95 101.25 18.65 L101.05 15.75 Q100.6 11.6 98.75 8.3 L98.0 6.95 96.9 5.4 Q92.65 0.15 86.75 0.0 L91.25 0.0 Q97.1 0.15 101.4 5.4 L101.65 5.8 103.0 7.85 103.05 7.9 103.0 7.9" fill="url(#gradient0)" fill-rule="evenodd" stroke="none"/>
    <path d="M86.75 0.0 Q92.65 0.15 96.9 5.4 L98.0 6.95 98.75 8.3 Q100.6 11.6 101.05 15.75 L101.25 18.65 Q101.25 24.95 96.9 33.45 L76.0 33.45 73.45 24.15 Q74.05 21.5 74.05 18.65 74.05 11.6 70.55 6.55 L69.7 5.4 Q65.45 0.15 59.6 0.0 L86.75 0.0" fill="url(#gradient1)" fill-rule="evenodd" stroke="none"/>
    <path d="M96.9 33.45 L99.85 33.45 104.4 47.1 93.15 47.1 88.2 47.1 87.55 47.1 87.55 47.15 Q80.05 48.5 79.45 49.45 L76.15 54.65 63.4 55.55 59.6 42.6 62.0 41.7 64.85 40.8 Q69.95 39.25 75.8 38.45 L76.6 38.3 77.3 38.3 76.0 33.45 96.9 33.45" fill="url(#gradient2)" fill-rule="evenodd" stroke="none"/>
    <path d="M59.6 0.0 Q65.45 0.15 69.7 5.4 L70.55 6.55 Q74.05 11.6 74.05 18.65 74.05 21.5 73.45 24.15 L70.85 14.6 69.05 14.6 Q68.45 10.85 64.3 5.55 60.15 0.15 54.3 0.0 L59.6 0.0" fill="url(#gradient3)" fill-rule="evenodd" stroke="none"/>
    <path d="M60.85 105.7 Q60.8 126.1 70.4 146.6 L61.55 138.65 Q53.75 116.7 54.65 99.45 L60.85 105.7" fill="url(#gradient4)" fill-rule="evenodd" stroke="none"/>
    <path d="M16.35 161.1 Q17.0 158.15 19.05 155.9 21.75 152.8 25.7 152.8 29.45 152.8 32.15 155.9 34.65 159.15 34.5 163.7 L34.1 166.35 Q33.45 169.2 31.55 171.45 L31.5 171.5 Q28.55 174.65 24.8 174.65 20.85 174.65 18.3 171.45 16.45 169.1 16.05 166.2 L15.95 163.7 Q16.0 162.3 16.35 161.1 M28.8 163.55 Q28.95 160.65 27.2 158.85 25.7 156.8 23.4 156.8 20.85 156.8 19.15 158.85 18.25 159.8 17.75 161.0 L17.75 161.1 Q17.45 161.75 17.4 162.65 L17.3 163.55 Q17.25 165.0 17.6 166.2 17.9 167.3 18.65 168.3 20.3 170.3 22.7 170.3 24.8 170.3 26.6 168.75 L26.6 168.6 26.9 168.3 Q28.2 166.85 28.65 165.05 L28.8 163.55" fill="url(#gradient5)" fill-rule="evenodd" stroke="none"/>
    <path d="M28.8 163.55 L28.65 165.05 Q28.2 166.85 26.9 168.3 L26.6 168.6 26.6 168.75 Q24.8 170.3 22.7 170.3 20.3 170.3 18.65 168.3 17.9 167.3 17.6 166.2 17.25 165.0 17.3 163.55 L17.4 162.65 Q17.45 161.75 17.75 161.1 L17.75 161.0 Q18.25 159.8 19.15 158.85 20.85 156.8 23.4 156.8 25.7 156.8 27.2 158.85 28.95 160.65 28.8 163.55" fill="url(#gradient6)" fill-rule="evenodd" stroke="none"/>
    <path d="M110.0 115.85 L85.1 115.85 Q84.5 111.85 84.2 107.75 L83.95 103.5 105.85 103.5 Q107.55 109.65 110.0 115.85" fill="url(#gradient7)" fill-rule="evenodd" stroke="none"/>
    <path d="M120.7 137.5 L91.35 137.5 Q88.45 131.65 86.65 125.2 L113.4 125.2 Q116.65 131.45 120.7 137.5" fill="url(#gradient8)" fill-rule="evenodd" stroke="none"/>
    <path d="M117.4 177.5 Q116.8 175.05 115.8 172.8 L145.65 172.4 Q146.45 174.8 146.75 177.5 L117.4 177.5" fill="url(#gradient9)" fill-rule="evenodd" stroke="none"/>
    <path d="M103.5 8.75 L103.05 7.9 103.0 7.9 M103.05 7.9 L103.0 7.85 101.65 5.8 101.4 5.4 Q97.1 0.15 91.25 0.0 L86.75 0.0 Q92.65 0.15 96.9 5.4 L98.0 6.95 98.75 8.3 Q100.6 11.6 101.05 15.75 L101.25 18.65 Q101.25 24.95 96.9 33.45 L99.85 33.45 101.4 31.7 101.65 31.4 Q104.25 27.95 105.15 23.6 105.6 21.8 105.7 19.8 L105.7 18.65 105.45 14.85 105.4 14.6 Q104.85 11.45 103.5 8.75 M112.2 19.8 L110.7 14.6 106.95 14.7 105.45 14.85 M105.4 14.6 L106.95 14.7 M113.15 23.6 L113.6 23.6 M117.15 38.3 L113.15 23.6 112.2 19.8 105.7 19.8 M88.2 47.1 L87.55 47.15 Q66.35 110.1 90.0 145.65 L135.95 146.05 Q101.25 101.4 113.4 47.1 L110.1 47.1 Q104.6 73.1 107.85 88.15 L96.2 95.3 84.3 87.9 Q84.75 72.2 93.15 47.1 L88.2 47.1 87.55 47.1 87.55 47.15 Q80.05 48.5 79.45 49.45 L76.15 54.65 63.4 55.55 57.25 56.1 53.4 56.35 34.05 97.15 30.3 105.25 Q37.1 110.85 42.05 118.45 44.85 122.65 47.0 127.4 50.8 135.85 52.85 146.05 54.1 152.55 54.65 159.8 L59.25 159.5 56.65 143.85 Q54.65 133.6 50.9 125.2 48.7 120.4 45.95 116.2 41.6 109.6 35.9 104.55 L34.4 107.75 M105.15 25.5 L105.7 25.5 105.15 23.6 M102.0 39.45 L102.75 41.4 Q109.1 39.2 117.15 38.3 L109.15 38.3 102.0 39.45 99.85 33.45 104.4 47.1 110.1 47.1 M109.15 38.3 L105.7 25.5 113.15 25.4 M104.4 47.1 L93.15 47.1 M59.6 0.0 Q65.45 0.15 69.7 5.4 L70.55 6.55 Q74.05 11.6 74.05 18.65 74.05 21.5 73.45 24.15 L76.0 33.45 96.9 33.45 M73.45 24.15 L70.85 14.6 69.05 14.6 Q68.45 10.85 64.3 5.55 60.15 0.15 54.3 0.0 L53.9 0.0 Q38.6 1.85 36.9 15.95 36.65 18.3 36.75 21.05 L36.75 22.4 36.9 23.7 39.95 21.95 Q44.4 19.65 49.7 18.0 52.4 17.1 55.4 16.35 L62.9 14.75 64.55 20.75 72.2 20.75 M67.85 14.6 L63.05 14.7 62.9 14.7 62.9 14.75 M67.85 14.6 L69.05 14.6 M62.9 14.7 L62.9 14.6 63.05 14.7 M59.6 0.0 L54.3 0.0 M52.7 46.4 L60.4 48.25 M59.6 42.6 Q57.9 43.4 56.3 44.3 54.35 45.2 52.7 46.4 L49.7 48.7 61.4 52.1 M69.35 38.3 Q62.15 39.05 56.3 40.95 L53.95 41.7 53.85 41.75 Q47.45 44.15 42.75 47.9 40.85 49.25 39.35 50.95 L47.6 50.5 49.7 48.7 M60.95 41.7 L62.0 41.7 64.85 40.8 Q69.95 39.25 75.8 38.45 L76.6 38.3 69.35 38.3 66.1 26.6 Q49.7 27.6 33.15 39.6 L24.6 38.6 24.5 38.6 Q23.6 43.65 23.4 47.55 L39.25 50.95 39.35 50.95 M76.0 33.45 L77.3 38.3 76.6 38.3 M66.1 26.6 L73.55 26.6 M66.1 26.6 L64.55 20.75 Q44.15 21.05 24.6 38.6 M59.6 42.6 L62.0 41.7 M36.9 15.95 L28.1 23.85 Q25.7 32.15 24.5 38.6 M33.15 59.6 Q35.1 55.7 37.8 52.55 L39.25 50.95 M23.4 47.55 Q22.95 53.9 24.45 57.35 L33.15 59.6 39.9 59.6 41.15 59.6 Q42.05 57.55 43.3 55.85 45.2 52.95 47.6 50.5 L49.7 53.85 57.25 56.1 M34.05 97.15 Q35.2 91.25 32.25 87.95 L42.05 62.3 40.7 60.5 39.9 59.6 M63.65 83.95 Q65.05 78.5 67.15 73.1 L68.15 70.4 Q69.8 66.55 71.75 62.75 L73.3 59.7 56.55 60.85 51.5 71.75 63.65 83.95 Q62.75 87.3 62.2 90.7 61.55 94.25 61.25 97.8 L61.25 98.05 Q60.85 101.9 60.85 105.7 60.8 126.1 70.4 146.6 73.1 152.4 76.45 158.15 L90.0 145.65 M43.3 55.85 L44.9 59.05 46.55 58.45 47.9 56.2 52.7 55.55 M41.15 59.6 L42.65 61.0 43.25 59.7 44.9 59.05 M40.7 60.5 L41.15 59.6 42.05 62.3 42.65 61.0 M48.8 77.35 L46.2 82.75 61.25 97.8 M46.2 82.75 L43.55 88.4 54.65 99.45 60.85 105.7 M51.5 71.75 L48.8 77.35 62.2 90.7 M63.4 55.55 L59.6 42.6 M40.7 121.15 L42.05 118.45 M47.0 127.4 L42.95 144.5 Q43.85 147.9 46.0 149.65 48.45 151.5 52.55 151.4 M44.6 139.2 Q46.1 145.65 52.85 146.05 M54.65 99.45 Q53.75 116.7 61.55 138.65 L70.4 146.6 M17.3 132.3 Q15.5 136.4 14.4 140.55 L12.95 152.15 12.8 161.1 16.35 161.1 Q17.0 158.15 19.05 155.9 21.75 152.8 25.7 152.8 29.45 152.8 32.15 155.9 34.65 159.15 34.5 163.7 L34.1 166.35 46.25 166.35 46.2 166.2 Q35.9 155.4 36.5 138.1 L23.15 138.1 17.3 132.3 Q20.9 124.0 27.65 115.8 L40.7 121.15 39.5 127.2 42.5 130.5 Q39.7 149.0 47.55 161.1 L52.4 161.1 56.45 161.1 59.5 161.1 59.25 159.8 54.65 159.8 M37.1 130.5 Q36.55 134.4 36.5 138.1 M27.65 115.8 L37.1 130.5 42.5 130.5 M28.8 163.55 L28.65 165.05 Q28.2 166.85 26.9 168.3 L26.6 168.6 26.6 168.75 Q24.8 170.3 22.7 170.3 20.3 170.3 18.65 168.3 17.9 167.3 17.6 166.2 17.25 165.0 17.3 163.55 L17.4 162.65 Q17.45 161.75 17.75 161.1 L17.75 161.0 Q18.25 159.8 19.15 158.85 20.85 156.8 23.4 156.8 25.7 156.8 27.2 158.85 28.95 160.65 28.8 163.55 M34.1 166.35 Q33.45 169.2 31.55 171.45 L31.5 171.5 46.65 171.5 46.25 166.35 M12.45 176.75 L12.75 166.2 12.8 161.1 12.45 161.1 M16.05 166.2 L15.95 163.7 Q16.0 162.3 16.35 161.1 M16.05 166.2 L12.75 166.2 M31.5 171.5 Q28.55 174.65 24.8 174.65 20.85 174.65 18.3 171.45 16.45 169.1 16.05 166.2 M12.45 176.75 L12.45 177.85 23.0 177.85 30.5 183.2 47.6 183.2 46.65 171.5 M12.45 177.85 Q12.45 182.65 12.9 187.7 L48.05 187.7 47.6 183.2 M93.1 153.9 L82.5 166.5 80.9 166.7 70.6 168.3 61.75 183.2 65.75 183.2 67.55 183.2 69.85 183.2 86.6 182.9 101.7 177.5 115.8 172.8 Q111.85 163.95 101.7 158.0 100.8 157.4 99.9 156.95 97.15 155.45 93.95 154.2 L93.1 153.9 96.25 153.9 Q94.95 151.7 91.45 150.55 L83.15 158.15 71.2 159.05 73.55 163.1 83.8 164.0 M80.9 166.7 L69.95 165.75 67.0 161.1 60.4 161.1 57.2 164.85 M62.0 173.9 Q61.85 173.45 62.05 173.1 L62.75 172.65 63.35 172.8 63.95 173.35 63.85 174.0 63.2 174.65 62.45 174.5 Q62.05 174.25 62.0 173.9 M51.5 160.2 L53.05 152.35 M59.25 159.5 L59.25 159.8 71.2 159.05 M46.0 149.65 L45.1 154.55 M51.5 166.2 L49.7 164.15 47.55 161.1 M60.4 161.1 L59.5 161.1 M56.45 161.1 L53.2 164.85 55.75 177.95 M46.2 166.2 L51.5 166.2 52.95 183.2 61.75 183.2 59.3 187.7 65.6 187.7 66.2 187.7 68.5 187.7 70.6 187.7 70.6 187.6 118.05 187.4 Q118.45 182.1 117.4 177.5 L101.7 177.5 M49.7 164.15 L52.4 161.1 M57.7 180.05 Q57.55 179.6 57.8 179.3 57.95 178.95 58.4 178.75 L59.05 178.85 59.6 179.45 59.6 180.2 58.9 180.75 58.15 180.65 57.7 180.05 M59.9 177.05 Q59.7 176.7 59.9 176.3 L60.5 175.85 61.15 175.95 61.75 176.5 61.7 177.2 61.1 177.8 60.25 177.75 Q59.9 177.4 59.9 177.05 M48.05 187.7 L59.3 187.7 M70.6 187.6 L68.5 187.7 M76.45 158.15 L59.25 159.5 M105.85 103.5 L109.45 103.5 Q111.15 109.65 113.65 115.85 L110.0 115.85 85.1 115.85 Q84.5 111.85 84.2 107.75 L83.95 103.5 105.85 103.5 Q107.55 109.65 110.0 115.85 M113.4 125.2 L86.65 125.2 Q88.45 131.65 91.35 137.5 L120.7 137.5 Q116.65 131.45 113.4 125.2 L117.9 125.2 Q121.15 131.45 125.1 137.5 L120.7 137.5 M115.15 149.15 L120.7 150.55 121.25 150.75 121.7 150.95 Q122.65 151.25 123.4 151.8 L126.15 149.7 115.15 149.15 92.9 149.15 91.45 150.55 M117.4 177.5 Q116.8 175.05 115.8 172.8 L145.65 172.4 Q141.8 160.5 126.75 154.4 L125.4 153.9 96.25 153.9 M125.4 153.9 L124.4 152.45 124.0 152.25 Q123.7 151.95 123.4 151.8 M146.75 177.5 Q147.2 182.1 146.85 187.4 L118.05 187.4 M146.75 177.5 Q146.45 174.8 145.65 172.4 M135.95 146.05 L126.75 154.4 M117.4 177.5 L146.75 177.5 M43.55 88.4 L35.9 104.55 M86.75 0.0 L59.6 0.0" fill="none" stroke="#000000" stroke-width="0.7" stroke-opacity="0.4"/>
    <path d="M14.4 140.55 L7.5 140.2 2.9 142.9 4.0 144.65 0.0 148.7 3.35 151.35 0.05 154.85 3.35 157.55 0.25 161.4 3.8 164.1 0.85 167.45 12.45 176.75" fill="none" stroke="#000000" stroke-linecap="round" stroke-linejoin="round" stroke-opacity="0.32941177" stroke-width="0.1"/>
  </g>
  <defs>
    <linearGradient gradientTransform="matrix(0.0, -0.0204, 0.0116, 0.0, 96.15, 16.65)" gradientUnits="userSpaceOnUse" id="gradient0" spreadMethod="pad" x1="-819.2" x2="819.2">
      <stop offset="0.0" stop-color="#333333"/>
      <stop offset="0.7294117647058823" stop-color="#cccccc"/>
      <stop offset="1.0" stop-color="#666666"/>
    </linearGradient>
    <linearGradient gradientTransform="matrix(0.0, -0.0204, 0.0254, 0.0, 80.35, 16.65)" gradientUnits="userSpaceOnUse" id="gradient1" spreadMethod="pad" x1="-819.2" x2="819.2">
      <stop offset="0.0" stop-color="#333333"/>
      <stop offset="0.7294117647058823" stop-color="#cccccc"/>
      <stop offset="1.0" stop-color="#666666"/>
    </linearGradient>
    <linearGradient gradientTransform="matrix(0.0242, -0.0076, 0.0039, 0.0126, 81.15, 42.95)" gradientUnits="userSpaceOnUse" id="gradient2" spreadMethod="pad" x1="-819.2" x2="819.2">
      <stop offset="0.0" stop-color="#333333"/>
      <stop offset="0.7294117647058823" stop-color="#cccccc"/>
      <stop offset="1.0" stop-color="#666666"/>
    </linearGradient>
    <linearGradient gradientTransform="matrix(-9.0E-4, -0.0154, 0.0114, -7.0E-4, 64.3, 11.9)" gradientUnits="userSpaceOnUse" id="gradient3" spreadMethod="pad" x1="-819.2" x2="819.2">
      <stop offset="0.0" stop-color="#333333"/>
      <stop offset="0.7294117647058823" stop-color="#cccccc"/>
      <stop offset="1.0" stop-color="#666666"/>
    </linearGradient>
    <linearGradient gradientTransform="matrix(0.001, 0.0188, -0.0083, 4.0E-4, 62.8, 134.05)" gradientUnits="userSpaceOnUse" id="gradient4" spreadMethod="reflect" x1="-819.2" x2="819.2">
      <stop offset="0.21176470588235294" stop-color="#5bbbff"/>
      <stop offset="0.3568627450980392" stop-color="#149eff"/>
      <stop offset="0.7333333333333333" stop-color="#1954ff"/>
    </linearGradient>
    <linearGradient gradientTransform="matrix(-0.0021, 0.0131, -0.0111, -0.0018, 25.0, 163.45)" gradientUnits="userSpaceOnUse" id="gradient5" spreadMethod="pad" x1="-819.2" x2="819.2">
      <stop offset="0.0" stop-color="#4c4c4c"/>
      <stop offset="0.21568627450980393" stop-color="#999999"/>
      <stop offset="1.0" stop-color="#333333"/>
    </linearGradient>
    <radialGradient cx="0" cy="0" gradientTransform="matrix(0.0122, 0.0, 0.0, 0.0122, 26.75, 164.25)" gradientUnits="userSpaceOnUse" id="gradient6" r="819.2" spreadMethod="pad">
      <stop offset="0.21176470588235294" stop-color="#5bbbff"/>
      <stop offset="0.3568627450980392" stop-color="#149eff"/>
      <stop offset="0.7333333333333333" stop-color="#1954ff"/>
    </radialGradient>
    <linearGradient gradientTransform="matrix(0.0147, -0.0025, 0.0016, 0.0099, 96.4, 109.65)" gradientUnits="userSpaceOnUse" id="gradient7" spreadMethod="pad" x1="-819.2" x2="819.2">
      <stop offset="0.21176470588235294" stop-color="#5bbbff"/>
      <stop offset="0.3568627450980392" stop-color="#149eff"/>
      <stop offset="0.7333333333333333" stop-color="#1954ff"/>
    </linearGradient>
    <linearGradient gradientTransform="matrix(0.0166, -0.0053, 0.0041, 0.0128, 103.5, 131.25)" gradientUnits="userSpaceOnUse" id="gradient8" spreadMethod="pad" x1="-819.2" x2="819.2">
      <stop offset="0.21176470588235294" stop-color="#5bbbff"/>
      <stop offset="0.3568627450980392" stop-color="#149eff"/>
      <stop offset="0.7333333333333333" stop-color="#1954ff"/>
    </linearGradient>
    <linearGradient gradientTransform="matrix(0.0189, 0.0, 0.0, 0.0031, 131.15, 174.85)" gradientUnits="userSpaceOnUse" id="gradient9" spreadMethod="pad" x1="-819.2" x2="819.2">
      <stop offset="0.21176470588235294" stop-color="#5bbbff"/>
      <stop offset="0.3568627450980392" stop-color="#149eff"/>
      <stop offset="0.7333333333333333" stop-color="#1954ff"/>
    </linearGradient>
  </defs>
</svg>
