<?xml version="1.0" encoding="UTF-8" standalone="no"?>
<svg xmlns:xlink="http://www.w3.org/1999/xlink" height="67.9px" width="191.85px" xmlns="http://www.w3.org/2000/svg">
  <g transform="matrix(1.0, 0.0, 0.0, 1.0, 0.05, 0.05)">
    <use height="67.9" transform="matrix(1.0, 0.0, 0.0, 1.0, -0.05, -0.05)" width="191.85" xlink:href="#sprite0"/>
    <use height="37.85" transform="matrix(1.0, 0.0, 0.0, 1.0, 3.75, 7.05)" width="81.9" xlink:href="#shape1"/>
  </g>
  <defs>
    <g id="sprite0" transform="matrix(1.0, 0.0, 0.0, 1.0, 0.05, 0.05)">
      <use height="67.9" transform="matrix(1.0, 0.0, 0.0, 1.0, -0.05, -0.05)" width="191.85" xlink:href="#shape0"/>
    </g>
    <g id="shape0" transform="matrix(1.0, 0.0, 0.0, 1.0, 0.05, 0.05)">
      <path d="M187.45 13.55 L187.5 13.55 Q189.3 13.55 190.45 14.85 191.75 16.2 191.75 18.15 191.75 20.05 190.45 21.4 189.3 22.7 187.5 22.7 L187.45 22.7 186.9 22.65 Q185.55 22.45 184.6 21.4 183.3 20.05 183.3 18.15 183.3 16.2 184.6 14.85 185.7 13.6 187.45 13.55 M190.35 15.95 Q189.55 15.05 188.4 15.05 187.2 15.05 186.45 15.95 185.55 16.85 185.55 18.15 185.55 19.4 186.45 20.3 187.2 21.2 188.4 21.2 189.55 21.2 190.35 20.3 191.25 19.4 191.25 18.15 191.25 16.85 190.35 15.95" fill="url(#gradient0)" fill-rule="evenodd" stroke="none"/>
      <path d="M190.35 15.95 Q191.25 16.85 191.25 18.15 191.25 19.4 190.35 20.3 189.55 21.2 188.4 21.2 187.2 21.2 186.45 20.3 185.55 19.4 185.55 18.15 185.55 16.85 186.45 15.95 187.2 15.05 188.4 15.05 189.55 15.05 190.35 15.95 M179.95 15.25 L180.95 15.95 Q181.8 16.85 181.8 18.15 181.8 19.4 180.95 20.3 L179.95 21.0 179.1 21.2 178.95 21.2 Q177.8 21.15 177.05 20.3 176.15 19.4 176.15 18.15 176.15 16.85 177.05 15.95 177.8 15.1 178.95 15.05 L179.1 15.05 179.95 15.25 M180.95 27.2 Q181.8 28.15 181.8 29.4 181.8 30.7 180.95 31.6 L180.0 32.3 179.0 32.5 Q177.85 32.5 177.05 31.6 176.15 30.7 176.15 29.4 176.15 28.15 177.05 27.2 177.85 26.3 179.0 26.3 L180.0 26.5 180.95 27.2 M179.0 37.65 L179.95 37.8 180.95 38.55 Q181.8 39.45 181.8 40.7 L181.5 42.15 180.95 42.85 Q180.55 43.4 180.0 43.6 L179.0 43.8 Q177.85 43.8 177.05 42.85 176.15 41.95 176.15 40.7 176.15 39.45 177.05 38.55 177.75 37.7 178.75 37.7 L179.0 37.65 M190.35 27.2 Q191.25 28.15 191.25 29.4 191.25 30.7 190.35 31.6 189.55 32.5 188.4 32.5 187.2 32.5 186.45 31.6 185.55 30.7 185.55 29.4 185.55 28.15 186.45 27.2 187.2 26.3 188.4 26.3 189.55 26.3 190.35 27.2 M190.35 38.55 Q191.25 39.45 191.25 40.7 191.25 41.95 190.35 42.85 189.55 43.8 188.4 43.8 187.2 43.8 186.45 42.85 185.55 41.95 185.55 40.7 185.55 39.45 186.45 38.55 187.2 37.65 188.4 37.65 189.55 37.65 190.35 38.55" fill="#000000" fill-rule="evenodd" stroke="none"/>
      <path d="M187.45 13.55 Q185.7 13.6 184.6 14.85 183.3 16.2 183.3 18.15 183.3 20.05 184.6 21.4 185.55 22.45 186.9 22.65 L182.65 22.7 178.75 22.7 Q179.85 22.6 180.75 21.8 L181.15 21.4 Q182.45 20.05 182.45 18.15 182.45 16.2 181.15 14.85 L180.75 14.45 Q179.75 13.6 178.35 13.55 L183.15 13.55 187.45 13.55 M177.85 22.7 L173.55 22.7 169.5 22.7 166.5 22.7 165.45 22.45 Q164.65 22.15 164.0 21.4 L163.85 21.2 Q162.7 19.9 162.7 18.15 162.7 16.35 163.85 15.05 L164.0 14.85 164.45 14.5 165.45 13.8 166.85 13.55 174.05 13.55 178.15 13.55 Q176.9 13.6 175.9 14.3 L175.25 14.85 175.1 15.05 Q174.05 16.35 174.05 18.15 174.05 19.9 175.1 21.2 L175.25 21.4 Q176.35 22.55 177.85 22.7 M174.05 13.55 Q172.65 13.6 171.6 14.3 L171.0 14.85 170.85 15.05 Q169.75 16.35 169.75 18.15 169.75 19.9 170.85 21.2 L171.0 21.4 Q172.1 22.55 173.55 22.7 172.1 22.55 171.0 21.4 L170.85 21.2 Q169.75 19.9 169.75 18.15 169.75 16.35 170.85 15.05 L171.0 14.85 171.6 14.3 Q172.65 13.6 174.05 13.55 M154.5 15.05 L151.4 15.05 151.2 14.85 Q150.05 13.6 148.4 13.55 146.5 13.6 145.3 14.85 L145.2 15.05 Q144.1 16.35 144.1 18.15 144.1 19.9 145.2 21.2 L145.3 21.4 Q146.4 22.55 147.9 22.7 L143.55 22.7 140.2 17.25 137.9 13.55 148.4 13.55 157.35 13.55 Q155.75 13.65 154.65 14.85 L154.5 15.05 M151.4 21.2 L154.5 21.2 154.65 21.4 Q155.65 22.45 157.6 22.7 L147.9 22.7 Q150.2 22.55 151.2 21.4 L151.4 21.2 M183.15 13.55 Q181.75 13.6 180.75 14.45 181.75 13.6 183.15 13.55 M182.65 22.7 Q181.6 22.5 180.75 21.8 181.6 22.5 182.65 22.7" fill="url(#gradient1)" fill-rule="evenodd" stroke="none"/>
      <path d="M143.55 62.8 L138.55 67.8 119.55 67.8 114.55 62.8 119.35 62.8 143.55 62.8 M142.5 8.7 L160.85 8.7 164.45 14.5 164.0 14.85 163.85 15.05 160.7 15.05 160.55 14.85 Q159.65 13.85 158.4 13.65 L157.5 12.2 137.05 12.2 137.9 13.55 140.2 17.25 143.55 22.7 144.85 24.8 145.45 25.75 145.55 25.95 146.7 27.8 149.7 32.5 150.3 33.5 150.65 34.0 151.95 36.1 152.9 37.65 153.15 38.05 153.3 38.3 156.1 42.85 150.7 42.85 140.05 25.75 134.75 17.25 129.45 8.7 142.5 8.7 M140.2 17.25 L134.75 17.25 140.2 17.25 M145.45 25.75 L140.05 25.75 145.45 25.75 M51.4 28.5 L32.9 28.5 30.75 32.7 26.4 32.7 30.2 25.35 40.05 25.35 49.85 25.35 51.4 28.5" fill="#888888" fill-rule="evenodd" stroke="none"/>
      <path d="M163.85 15.05 Q162.7 16.35 162.7 18.15 162.7 19.9 163.85 21.2 L163.05 21.2 160.7 21.2 154.5 21.2 151.4 21.2 149.05 21.2 Q147.85 21.15 147.15 20.3 146.25 19.4 146.25 18.15 146.25 16.85 147.15 15.95 147.85 15.1 149.05 15.05 L151.4 15.05 154.5 15.05 160.7 15.05 163.85 15.05" fill="url(#gradient2)" fill-rule="evenodd" stroke="none"/>
      <path d="M169.5 22.7 L170.8 24.8 166.85 24.8 Q166.1 24.8 165.45 25.1 L163.05 21.2 163.85 21.2 164.0 21.4 Q164.65 22.15 165.45 22.45 L166.5 22.7 169.5 22.7 M176.5 34.0 L177.8 36.1 173.55 36.1 172.35 36.1 171.05 34.0 173.9 34.0 176.5 34.0" fill="#4a4a4a" fill-rule="evenodd" stroke="none"/>
      <path d="M178.75 22.7 L177.85 22.7 Q176.35 22.55 175.25 21.4 L175.1 21.2 Q174.05 19.9 174.05 18.15 174.05 16.35 175.1 15.05 L175.25 14.85 175.9 14.3 Q176.95 13.6 178.35 13.55 179.75 13.6 180.75 14.45 L181.15 14.85 Q182.45 16.2 182.45 18.15 182.45 20.05 181.15 21.4 L180.75 21.8 Q179.85 22.6 178.75 22.7 M179.95 15.25 L179.1 15.05 178.95 15.05 Q177.8 15.1 177.05 15.95 176.15 16.85 176.15 18.15 176.15 19.4 177.05 20.3 177.8 21.15 178.95 21.2 L179.1 21.2 179.95 21.0 180.95 20.3 Q181.8 19.4 181.8 18.15 181.8 16.85 180.95 15.95 L179.95 15.25" fill="url(#gradient3)" fill-rule="evenodd" stroke="none"/>
      <path d="M178.35 34.0 L178.15 34.0 176.1 33.45 175.25 32.7 Q174.25 31.55 174.05 30.1 L174.05 29.4 Q174.05 27.5 175.25 26.2 176.45 24.85 178.15 24.8 179.55 24.85 180.6 25.6 L180.75 25.75 181.15 26.2 Q182.45 27.5 182.45 29.4 182.45 31.3 181.15 32.7 L180.75 33.1 Q179.75 33.95 178.35 34.0 M180.95 27.2 L180.0 26.5 179.0 26.3 Q177.85 26.3 177.05 27.2 176.15 28.15 176.15 29.4 176.15 30.7 177.05 31.6 177.85 32.5 179.0 32.5 L180.0 32.3 180.95 31.6 Q181.8 30.7 181.8 29.4 181.8 28.15 180.95 27.2" fill="url(#gradient4)" fill-rule="evenodd" stroke="none"/>
      <path d="M170.8 24.8 L173.9 24.8 178.15 24.8 Q176.45 24.85 175.25 26.2 174.05 27.5 174.05 29.4 L174.05 30.1 Q174.25 31.55 175.25 32.7 L176.1 33.45 178.15 34.0 176.5 34.0 173.9 34.0 171.05 34.0 166.85 34.0 165.45 33.75 Q164.65 33.4 164.0 32.7 L163.85 32.5 Q162.7 31.2 162.7 29.4 162.7 27.65 163.85 26.3 L163.95 26.2 164.0 26.2 164.45 25.75 165.45 25.1 Q166.1 24.8 166.85 24.8 L170.8 24.8 M178.35 24.8 L183.15 24.8 187.45 24.8 Q185.7 24.85 184.6 26.2 183.3 27.5 183.3 29.4 183.3 31.3 184.6 32.7 185.7 33.95 187.45 34.0 L183.15 34.0 178.35 34.0 Q179.75 33.95 180.75 33.1 L181.15 32.7 Q182.45 31.3 182.45 29.4 182.45 27.5 181.15 26.2 L180.75 25.75 180.6 25.6 Q179.6 24.85 178.35 24.8 M183.15 24.8 Q181.75 24.85 180.75 25.75 181.75 24.85 183.15 24.8 M173.9 24.8 Q172.15 24.85 171.0 26.2 169.75 27.5 169.75 29.4 L169.8 30.1 Q170.0 31.55 171.0 32.7 L171.85 33.45 173.9 34.0 171.85 33.45 171.0 32.7 Q170.0 31.55 169.8 30.1 L169.75 29.4 Q169.75 27.5 171.0 26.2 172.15 24.85 173.9 24.8 M154.5 26.3 L151.35 26.3 151.2 26.2 Q150.05 24.85 148.2 24.8 L157.35 24.8 Q155.75 24.9 154.65 26.2 L154.5 26.3 M151.4 32.5 L154.5 32.5 154.65 32.7 Q155.8 33.95 157.5 34.0 L150.65 34.0 150.3 33.5 151.2 32.7 151.4 32.5 M180.75 33.1 Q181.75 33.95 183.15 34.0 181.75 33.95 180.75 33.1 M145.55 25.95 L145.45 25.75 144.85 24.8 148.2 24.8 Q146.7 24.85 145.55 25.95" fill="url(#gradient5)" fill-rule="evenodd" stroke="none"/>
      <path d="M172.35 36.1 L173.55 36.1 Q172.05 36.3 171.0 37.45 170.25 38.2 170.0 39.2 169.75 39.9 169.75 40.7 169.75 42.6 171.0 43.95 L172.25 44.95 173.9 45.35 172.25 44.95 171.0 43.95 Q169.75 42.6 169.75 40.7 169.75 39.9 170.0 39.2 170.25 38.2 171.0 37.45 172.05 36.3 173.55 36.1 L177.8 36.1 177.85 36.15 Q176.3 36.3 175.25 37.45 174.55 38.2 174.25 39.2 L174.05 40.7 Q174.05 42.6 175.25 43.95 L176.55 44.95 178.15 45.35 176.55 45.35 173.9 45.35 166.85 45.35 165.45 45.05 164.0 43.95 163.85 43.8 Q162.7 42.5 162.7 40.7 162.7 38.9 163.85 37.65 L163.95 37.5 164.0 37.45 Q164.65 36.75 165.45 36.4 166.1 36.1 166.85 36.1 L172.35 36.1 M151.95 36.1 L157.45 36.1 Q155.8 36.15 154.65 37.45 L154.5 37.65 152.9 37.65 151.95 36.1 M156.1 45.35 L156.1 45.05 157.3 45.35 156.1 45.35" fill="url(#gradient6)" fill-rule="evenodd" stroke="none"/>
      <path d="M178.15 36.1 L178.35 36.1 Q179.75 36.15 180.75 37.0 L181.15 37.45 Q182.45 38.75 182.45 40.7 182.45 41.9 181.95 42.85 L181.15 43.95 180.75 44.4 180.55 44.55 Q179.55 45.3 178.15 45.35 L176.55 44.95 175.25 43.95 Q174.05 42.6 174.05 40.7 L174.25 39.2 Q174.55 38.2 175.25 37.45 176.3 36.3 177.85 36.15 L178.15 36.1 M179.0 37.65 L178.75 37.7 Q177.75 37.7 177.05 38.55 176.15 39.45 176.15 40.7 176.15 41.95 177.05 42.85 177.85 43.8 179.0 43.8 L180.0 43.6 Q180.55 43.4 180.95 42.85 L181.5 42.15 181.8 40.7 Q181.8 39.45 180.95 38.55 L179.95 37.8 179.0 37.65" fill="url(#gradient7)" fill-rule="evenodd" stroke="none"/>
      <path d="M178.35 36.1 L183.1 36.1 187.4 36.1 Q185.7 36.15 184.6 37.45 183.3 38.75 183.3 40.7 183.3 42.6 184.6 43.95 185.7 45.3 187.45 45.35 L183.15 45.35 181.95 45.35 178.35 45.35 Q179.6 45.3 180.55 44.55 L180.75 44.4 181.15 43.95 181.95 42.85 Q182.45 41.9 182.45 40.7 182.45 38.75 181.15 37.45 L180.75 37.0 Q179.75 36.15 178.35 36.1 M183.1 36.1 Q181.75 36.15 180.75 37.0 181.75 36.15 183.1 36.1 M183.15 45.35 Q181.75 45.3 180.75 44.4 181.75 45.3 183.15 45.35" fill="url(#gradient8)" fill-rule="evenodd" stroke="none"/>
      <path d="M17.65 60.65 L15.25 54.9 19.05 54.9 22.4 54.9 26.2 54.9 30.0 54.9 45.0 54.9 50.3 60.2 53.15 60.2 53.6 60.65 32.35 60.65 28.55 60.65 24.75 60.65 21.45 60.65 17.65 60.65 M7.4 26.45 L8.9 23.4 10.2 22.6 11.3 23.8 28.2 23.8 29.05 25.35 25.5 25.35 24.95 26.45 22.7 26.45 20.35 26.45 18.0 26.45 15.65 26.45 13.3 26.45 10.95 26.45 8.6 26.45 7.4 26.45 M28.65 8.25 L30.15 4.75 34.3 4.75 34.85 8.25 28.65 8.25 M160.7 21.2 L163.05 21.2 165.45 25.1 164.45 25.75 164.0 26.2 163.95 26.2 163.85 26.3 160.65 26.3 160.55 26.2 Q159.35 24.8 157.5 24.8 L157.35 24.8 148.2 24.8 144.85 24.8 143.55 22.7 147.9 22.7 157.6 22.7 Q159.35 22.7 160.55 21.4 L160.7 21.2 M172.35 36.1 L166.85 36.1 Q166.1 36.1 165.45 36.4 164.65 36.75 164.0 37.45 L163.95 37.5 163.85 37.65 160.7 37.65 160.55 37.45 Q159.35 36.1 157.6 36.1 L157.45 36.1 151.95 36.1 150.65 34.0 157.5 34.0 Q159.35 34.0 160.55 32.7 L160.7 32.5 163.85 32.5 164.0 32.7 Q164.65 33.4 165.45 33.75 L166.85 34.0 171.05 34.0 172.35 36.1 M163.85 43.8 L164.0 43.95 165.45 45.05 166.85 45.35 173.9 45.35 176.55 45.35 176.55 46.4 156.1 46.4 156.1 45.35 157.3 45.35 157.5 45.35 Q159.4 45.3 160.55 43.95 L160.65 43.8 163.85 43.8 M148.4 13.55 L137.9 13.55 137.05 12.2 157.5 12.2 158.4 13.65 157.5 13.55 157.35 13.55 148.4 13.55 M28.55 60.65 L26.2 54.9 28.55 60.65 M30.0 54.9 L32.35 60.65 30.0 54.9 M24.75 60.65 L22.4 54.9 24.75 60.65 M21.45 60.65 L19.05 54.9 21.45 60.65" fill="#333333" fill-rule="evenodd" stroke="none"/>
      <path d="M163.85 26.3 Q162.7 27.65 162.7 29.4 162.7 31.2 163.85 32.5 L160.7 32.5 154.5 32.5 151.4 32.5 149.7 32.5 146.7 27.8 147.15 27.2 Q147.9 26.35 149.05 26.3 L151.35 26.3 154.5 26.3 160.65 26.3 163.85 26.3" fill="url(#gradient9)" fill-rule="evenodd" stroke="none"/>
      <path d="M163.85 37.65 Q162.7 38.9 162.7 40.7 162.7 42.5 163.85 43.8 L160.65 43.8 156.1 43.8 156.1 42.85 153.3 38.3 153.15 38.05 152.9 37.65 154.5 37.65 160.7 37.65 163.85 37.65" fill="url(#gradient10)" fill-rule="evenodd" stroke="none"/>
      <path d="M181.95 45.35 L181.95 50.05 150.7 50.05 150.7 45.05 150.7 42.85 156.1 42.85 156.1 43.8 156.1 45.05 156.1 45.35 156.1 46.4 176.55 46.4 176.55 45.35 178.15 45.35 178.35 45.35 181.95 45.35 M163.1 53.5 L160.25 56.95 153.75 56.95 148.35 62.8 143.55 62.8 119.35 62.8 123.75 56.95 121.1 56.95 126.8 50.05 132.2 50.05 129.35 53.5 147.85 53.5 163.1 53.5 M4.6 53.45 L0.5 43.5 0.0 42.3 3.0 38.15 24.95 38.15 26.1 40.85 16.7 40.85 17.75 43.5 0.5 43.5 17.75 43.5 16.7 40.85 26.1 40.85 28.7 47.15 30.85 47.15 48.0 47.15 50.5 53.45 21.85 53.45 4.6 53.45 M68.5 8.4 L74.3 0.0 88.65 0.0 102.95 0.0 108.1 5.15 103.5 5.15 98.4 5.15 86.0 5.15 73.65 5.15 72.35 8.4 68.5 8.4 M110.6 0.0 L121.1 0.0 126.25 5.15 118.15 5.15 110.6 0.0 M156.1 45.05 L150.7 45.05 156.1 45.05 M99.7 14.4 L104.8 22.6 98.7 28.65 83.55 28.65 98.7 28.65 104.8 22.6 117.3 42.85 117.3 50.05 121.1 50.05 119.3 52.2 115.5 52.2 105.4 52.2 103.85 52.2 99.25 44.7 89.25 44.7 99.25 44.7 103.85 52.2 93.9 52.2 90.45 46.55 89.25 44.7 85.4 38.5 83.55 35.5 83.55 28.65 83.55 25.75 83.55 21.3 90.45 14.4 94.85 14.4 99.7 14.4 M88.65 0.0 L86.0 5.15 88.65 0.0 M115.5 52.2 L117.3 50.05 115.5 52.2 M153.75 56.95 L123.75 56.95 153.75 56.95 M17.75 43.5 L21.85 53.45 17.75 43.5" fill="#777777" fill-rule="evenodd" stroke="none"/>
      <path d="M187.45 24.8 L187.5 24.8 Q189.3 24.8 190.45 26.2 191.75 27.5 191.75 29.4 191.75 31.3 190.45 32.7 189.3 34.0 187.5 34.0 L187.45 34.0 Q185.7 33.95 184.6 32.7 183.3 31.3 183.3 29.4 183.3 27.5 184.6 26.2 185.7 24.85 187.45 24.8 M190.35 27.2 Q189.55 26.3 188.4 26.3 187.2 26.3 186.45 27.2 185.55 28.15 185.55 29.4 185.55 30.7 186.45 31.6 187.2 32.5 188.4 32.5 189.55 32.5 190.35 31.6 191.25 30.7 191.25 29.4 191.25 28.15 190.35 27.2" fill="url(#gradient11)" fill-rule="evenodd" stroke="none"/>
      <path d="M187.4 36.1 L187.5 36.1 Q189.3 36.1 190.45 37.45 191.75 38.75 191.75 40.7 191.75 42.6 190.45 43.95 189.35 45.3 187.65 45.35 L187.45 45.35 Q185.7 45.3 184.6 43.95 183.3 42.6 183.3 40.7 183.3 38.75 184.6 37.45 185.7 36.15 187.4 36.1 M190.35 38.55 Q189.55 37.65 188.4 37.65 187.2 37.65 186.45 38.55 185.55 39.45 185.55 40.7 185.55 41.95 186.45 42.85 187.2 43.8 188.4 43.8 189.55 43.8 190.35 42.85 191.25 41.95 191.25 40.7 191.25 39.45 190.35 38.55" fill="url(#gradient12)" fill-rule="evenodd" stroke="none"/>
      <path d="M181.95 50.05 L179.1 53.5 163.1 53.5 147.85 53.5 150.7 50.05 181.95 50.05 M3.0 38.15 L3.25 34.9 28.35 34.9 32.7 34.9 30.75 32.7 32.9 28.5 51.4 28.5 57.6 28.5 60.6 20.85 60.65 20.7 61.65 18.1 64.1 11.85 64.2 11.65 65.45 8.4 68.5 8.4 72.35 8.4 73.65 5.15 86.0 5.15 98.4 5.15 94.85 14.4 98.4 5.15 103.5 5.15 126.8 42.85 126.8 50.05 121.1 56.95 108.3 56.95 107.05 54.95 105.4 52.2 107.05 54.95 108.3 56.95 121.1 56.95 123.75 56.95 119.35 62.8 114.55 62.8 103.9 62.8 100.7 58.5 82.4 58.5 81.0 60.2 53.15 60.2 50.3 60.2 45.0 54.9 51.1 54.9 53.15 56.95 78.1 56.95 82.2 46.55 90.45 46.55 82.2 46.55 78.1 56.95 53.15 56.95 51.1 54.9 53.15 54.9 50.65 48.55 48.0 47.15 30.85 47.15 27.8 39.55 24.95 38.15 3.0 38.15 M1.3 32.7 L2.15 31.05 3.8 31.05 6.15 31.05 8.5 31.05 10.9 31.05 13.2 31.05 15.6 31.05 17.9 31.05 20.3 31.05 22.5 31.05 24.95 26.45 25.5 25.35 29.05 25.35 30.2 25.35 26.4 32.7 1.3 32.7 M6.35 18.6 L6.35 16.6 28.35 16.6 28.35 18.6 6.35 18.6 M108.6 22.6 L103.5 14.4 99.7 14.4 94.85 14.4 90.45 14.4 83.55 21.3 83.55 25.75 65.6 25.75 72.35 8.4 65.6 25.75 83.55 25.75 83.55 28.65 83.55 35.5 85.4 38.5 89.25 44.7 90.45 46.55 93.9 52.2 103.85 52.2 105.4 52.2 115.5 52.2 119.3 52.2 121.1 50.05 121.1 42.85 108.6 22.6 M85.5 8.0 Q85.1 7.1 84.05 7.1 83.0 7.1 81.95 8.0 80.9 8.9 80.4 10.2 79.9 11.5 80.25 12.4 80.65 13.3 81.7 13.3 82.75 13.3 83.8 12.4 84.8 11.5 85.35 10.2 85.8 8.9 85.5 8.0 M107.05 54.95 L85.35 54.95 82.4 58.5 85.35 54.95 107.05 54.95 M85.4 38.5 L82.2 46.55 85.4 38.5 M79.3 8.0 Q78.95 7.1 77.9 7.1 76.85 7.1 75.8 8.0 74.7 8.9 74.25 10.2 73.7 11.5 74.1 12.4 74.45 13.3 75.5 13.3 76.55 13.3 77.6 12.4 78.65 11.5 79.15 10.2 79.65 8.9 79.3 8.0 M65.6 25.75 L62.0 34.9 32.7 34.9 62.0 34.9 65.6 25.75 M41.95 43.2 L43.6 44.85 70.7 44.85 71.4 43.2 77.2 28.2 74.35 28.2 67.45 28.2 66.85 29.7 65.9 32.1 65.15 34.05 64.35 36.15 63.5 38.3 31.85 38.3 32.9 40.7 33.9 43.2 41.95 43.2" fill="#666666" fill-rule="evenodd" stroke="none"/>
      <path d="M151.4 15.05 L149.05 15.05 Q147.85 15.1 147.15 15.95 146.25 16.85 146.25 18.15 146.25 19.4 147.15 20.3 147.85 21.15 149.05 21.2 L151.4 21.2 151.2 21.4 Q150.2 22.55 147.9 22.7 146.4 22.55 145.3 21.4 L145.2 21.2 Q144.1 19.9 144.1 18.15 144.1 16.35 145.2 15.05 L145.3 14.85 Q146.5 13.6 148.4 13.55 150.05 13.6 151.2 14.85 L151.4 15.05" fill="url(#gradient13)" fill-rule="evenodd" stroke="none"/>
      <path d="M160.7 15.05 L154.5 15.05 154.65 14.85 Q155.75 13.65 157.35 13.55 L157.5 13.55 158.4 13.65 Q159.65 13.85 160.55 14.85 L160.7 15.05 M154.5 21.2 L160.7 21.2 160.55 21.4 Q159.35 22.7 157.6 22.7 155.65 22.45 154.65 21.4 L154.5 21.2" fill="url(#gradient14)" fill-rule="evenodd" stroke="none"/>
      <path d="M39.45 8.25 L41.65 8.25 44.25 11.65 42.5 11.65 38.85 11.65 38.7 11.65 Q37.1 11.7 35.9 12.95 L35.25 13.9 32.9 11.55 35.25 13.9 Q34.7 14.95 34.7 16.25 34.7 18.15 35.9 19.5 37.1 20.75 38.7 20.85 L38.75 20.85 42.5 20.85 46.2 20.85 43.8 23.8 39.15 23.8 38.75 23.8 33.3 23.8 28.35 18.6 28.35 16.6 32.9 11.55 35.8 8.25 39.45 8.25 M102.95 0.0 L110.6 0.0 118.15 5.15 126.25 5.15 136.3 5.15 126.25 5.15 121.1 0.0 128.75 0.0 136.3 5.15 140.35 5.15 142.5 8.7 129.45 8.7 111.1 8.7 116.4 17.25 121.65 25.8 132.2 42.85 126.8 42.85 103.5 5.15 108.1 5.15 102.95 0.0 M108.1 5.15 L118.15 5.15 108.1 5.15 M99.7 14.4 L103.5 14.4 108.6 22.6 104.8 22.6 108.6 22.6 121.1 42.85 117.3 42.85 104.8 22.6 99.7 14.4 M30.75 32.7 L32.7 34.9 28.35 34.9 26.4 32.7 30.75 32.7 M48.0 47.15 L50.65 48.55 53.15 54.9 50.5 53.45 48.0 47.15 M38.75 20.85 L38.75 23.8 38.75 20.85 M26.1 40.85 L24.95 38.15 27.8 39.55 30.85 47.15 28.7 47.15 26.1 40.85" fill="#aaaaaa" fill-rule="evenodd" stroke="none"/>
      <path d="M119.55 67.8 L60.8 67.8 58.4 65.45 56.0 63.0 53.6 60.65 53.15 60.2 81.0 60.2 82.4 58.5 100.7 58.5 103.9 62.8 114.55 62.8 119.55 67.8 M3.25 34.9 L1.3 32.7 26.4 32.7 28.35 34.9 3.25 34.9 M10.2 22.6 L6.35 18.6 28.35 18.6 33.3 23.8 28.2 23.8 11.3 23.8 10.2 22.6 M129.45 8.7 L134.75 17.25 140.05 25.75 130.9 25.8 121.65 25.8 130.9 25.8 140.05 25.75 150.7 42.85 150.7 45.05 142.9 45.05 130.9 25.8 142.9 45.05 150.7 45.05 150.7 50.05 147.85 53.5 129.35 53.5 132.2 50.05 132.2 42.85 121.65 25.8 116.4 17.25 111.1 8.7 129.45 8.7 M116.4 17.25 L134.75 17.25 116.4 17.25" fill="#555555" fill-rule="evenodd" stroke="none"/>
      <path d="M126.8 42.85 L132.2 42.85 132.2 50.05 126.8 50.05 126.8 42.85 M121.1 42.85 L121.1 50.05 117.3 50.05 117.3 42.85 121.1 42.85" fill="#999999" fill-rule="evenodd" stroke="none"/>
      <path d="M160.65 26.3 L154.5 26.3 154.65 26.2 Q155.75 24.9 157.35 24.8 L157.5 24.8 Q159.35 24.8 160.55 26.2 L160.65 26.3 M154.5 32.5 L160.7 32.5 160.55 32.7 Q159.35 34.0 157.5 34.0 155.8 33.95 154.65 32.7 L154.5 32.5" fill="url(#gradient15)" fill-rule="evenodd" stroke="none"/>
      <path d="M157.45 36.1 L157.6 36.1 Q159.35 36.1 160.55 37.45 L160.7 37.65 154.5 37.65 154.65 37.45 Q155.8 36.15 157.45 36.1 M156.1 45.05 L156.1 43.8 160.65 43.8 160.55 43.95 Q159.4 45.3 157.5 45.35 L157.3 45.35 156.1 45.05" fill="url(#gradient16)" fill-rule="evenodd" stroke="none"/>
      <path d="M151.35 26.3 L149.05 26.3 Q147.9 26.35 147.15 27.2 L146.7 27.8 145.55 25.95 Q146.7 24.85 148.2 24.8 150.05 24.85 151.2 26.2 L151.35 26.3 M149.7 32.5 L151.4 32.5 151.2 32.7 150.3 33.5 149.7 32.5" fill="url(#gradient17)" fill-rule="evenodd" stroke="none"/>
      <path d="M85.5 8.0 Q85.8 8.9 85.35 10.2 84.8 11.5 83.8 12.4 82.75 13.3 81.7 13.3 80.65 13.3 80.25 12.4 79.9 11.5 80.4 10.2 80.9 8.9 81.95 8.0 83.0 7.1 84.05 7.1 85.1 7.1 85.5 8.0" fill="url(#gradient18)" fill-rule="evenodd" stroke="none"/>
      <path d="M79.3 8.0 Q79.65 8.9 79.15 10.2 78.65 11.5 77.6 12.4 76.55 13.3 75.5 13.3 74.45 13.3 74.1 12.4 73.7 11.5 74.25 10.2 74.7 8.9 75.8 8.0 76.85 7.1 77.9 7.1 78.95 7.1 79.3 8.0" fill="url(#gradient19)" fill-rule="evenodd" stroke="none"/>
      <path d="M44.25 11.65 L46.3 11.65 50.1 11.65 53.9 11.65 57.7 11.65 61.5 11.65 64.2 11.65 64.1 11.85 62.5 12.95 Q61.3 14.35 61.3 16.25 61.3 17.25 61.65 18.1 61.3 17.25 61.3 16.25 61.3 14.35 62.5 12.95 L64.1 11.85 61.65 18.1 60.65 20.7 60.6 20.85 57.7 20.85 Q56.1 20.75 54.9 19.5 53.7 18.15 53.7 16.25 53.7 14.35 54.9 12.95 56.1 11.7 57.7 11.65 56.1 11.7 54.9 12.95 53.7 14.35 53.7 16.25 53.7 18.15 54.9 19.5 56.1 20.75 57.7 20.85 L53.9 20.85 50.1 20.85 46.3 20.85 Q44.7 20.75 43.5 19.5 42.3 18.15 42.3 16.25 42.3 14.35 43.5 12.95 44.7 11.7 46.3 11.65 44.7 11.7 43.5 12.95 42.3 14.35 42.3 16.25 42.3 18.15 43.5 19.5 44.7 20.75 46.3 20.85 L46.2 20.85 42.5 20.85 38.75 20.85 38.7 20.85 Q37.1 20.75 35.9 19.5 34.7 18.15 34.7 16.25 34.7 14.95 35.25 13.9 L35.9 12.95 Q37.1 11.7 38.7 11.65 L38.85 11.65 42.5 11.65 44.25 11.65 M50.1 11.65 Q48.5 11.7 47.3 12.95 46.1 14.35 46.1 16.25 46.1 18.15 47.3 19.5 48.5 20.75 50.1 20.85 48.5 20.75 47.3 19.5 46.1 18.15 46.1 16.25 46.1 14.35 47.3 12.95 48.5 11.7 50.1 11.65 M53.9 11.65 Q52.3 11.7 51.1 12.95 49.9 14.35 49.9 16.25 49.9 18.15 51.1 19.5 52.3 20.75 53.9 20.85 52.3 20.75 51.1 19.5 49.9 18.15 49.9 16.25 49.9 14.35 51.1 12.95 52.3 11.7 53.9 11.65 M61.5 11.65 Q59.9 11.7 58.7 12.95 57.5 14.35 57.5 16.25 57.5 18.15 58.7 19.5 59.6 20.4 60.65 20.7 59.6 20.4 58.7 19.5 57.5 18.15 57.5 16.25 57.5 14.35 58.7 12.95 59.9 11.7 61.5 11.65 M42.5 11.65 Q40.9 11.7 39.7 12.95 38.5 14.35 38.5 16.25 38.5 18.15 39.7 19.5 40.9 20.75 42.5 20.85 40.9 20.75 39.7 19.5 38.5 18.15 38.5 16.25 38.5 14.35 39.7 12.95 40.9 11.7 42.5 11.65" fill="url(#gradient20)" fill-rule="evenodd" stroke="none"/>
      <path d="M71.4 43.2 L70.7 44.85 43.6 44.85 41.95 43.2 71.4 43.2" fill="url(#gradient21)" fill-rule="evenodd" stroke="none"/>
      <path d="M41.95 43.2 L33.9 43.2 32.9 40.7 69.45 40.7 74.35 28.2 77.2 28.2 71.4 43.2 41.95 43.2" fill="url(#gradient22)" fill-rule="evenodd" stroke="none"/>
      <path d="M32.9 40.7 L31.85 38.3 63.5 38.3 64.35 36.15 65.15 34.05 65.9 32.1 66.85 29.7 67.45 28.2 74.35 28.2 69.45 40.7 32.9 40.7 M71.45 32.1 L65.9 32.1 71.45 32.1 M68.25 38.3 L63.5 38.3 68.25 38.3 M69.8 29.7 L66.85 29.7 69.8 29.7 M68.1 36.15 L64.35 36.15 68.1 36.15 M68.25 34.05 L65.15 34.05 68.25 34.05" fill="url(#gradient23)" fill-rule="evenodd" stroke="none"/>
      <path d="M15.25 54.9 L7.25 54.9 4.6 53.45 21.85 53.45 50.5 53.45 53.15 54.9 51.1 54.9 45.0 54.9 30.0 54.9 26.2 54.9 22.4 54.9 19.05 54.9 15.25 54.9 M34.3 4.75 L36.25 4.75 39.45 8.25 35.8 8.25 34.85 8.25 34.3 4.75 M39.15 23.8 L40.05 25.35 30.2 25.35 29.05 25.35 28.2 23.8 33.3 23.8 38.75 23.8 39.15 23.8" fill="#444444" fill-rule="evenodd" stroke="none"/>
      <path d="M6.35 16.6 L8.05 14.7 9.65 14.7 12.0 14.7 14.35 14.7 16.7 14.7 19.05 14.7 21.45 14.7 24.3 11.55 25.8 9.85 27.2 8.25 28.65 8.25 34.85 8.25 35.8 8.25 32.9 11.55 24.3 11.55 32.9 11.55 28.35 16.6 6.35 16.6" fill="#8f8f8f" fill-rule="evenodd" stroke="none"/>
      <path d="M9.65 14.7 L14.0 9.85 16.35 9.85 18.7 9.85 21.05 9.85 23.4 9.85 25.8 9.85 24.3 11.55 21.45 14.7 19.05 14.7 16.7 14.7 14.35 14.7 12.0 14.7 9.65 14.7 M12.0 14.7 L16.35 9.85 12.0 14.7 M14.35 14.7 L18.7 9.85 14.35 14.7 M21.05 9.85 L16.7 14.7 21.05 9.85 M19.05 14.7 L23.4 9.85 19.05 14.7" fill="url(#gradient24)" fill-rule="evenodd" stroke="none"/>
      <path d="M15.65 26.45 L18.0 26.45 15.6 31.05 13.2 31.05 15.65 26.45" fill="url(#gradient25)" fill-rule="evenodd" stroke="none"/>
      <path d="M10.95 26.45 L13.3 26.45 10.9 31.05 8.5 31.05 10.95 26.45" fill="url(#gradient26)" fill-rule="evenodd" stroke="none"/>
      <path d="M13.3 26.45 L15.65 26.45 13.2 31.05 10.9 31.05 13.3 26.45" fill="url(#gradient27)" fill-rule="evenodd" stroke="none"/>
      <path d="M18.0 26.45 L20.35 26.45 17.9 31.05 15.6 31.05 18.0 26.45" fill="url(#gradient28)" fill-rule="evenodd" stroke="none"/>
      <path d="M3.8 31.05 L6.2 26.45 7.4 26.45 8.6 26.45 6.15 31.05 3.8 31.05" fill="url(#gradient29)" fill-rule="evenodd" stroke="none"/>
      <path d="M8.5 31.05 L6.15 31.05 8.6 26.45 10.95 26.45 8.5 31.05" fill="url(#gradient30)" fill-rule="evenodd" stroke="none"/>
      <path d="M20.35 26.45 L22.7 26.45 20.3 31.05 17.9 31.05 20.35 26.45" fill="url(#gradient31)" fill-rule="evenodd" stroke="none"/>
      <path d="M22.7 26.45 L24.95 26.45 22.5 31.05 20.3 31.05 22.7 26.45" fill="url(#gradient32)" fill-rule="evenodd" stroke="none"/>
      <path d="M58.4 65.45 L37.15 65.45 33.35 65.45 29.55 65.45 26.25 65.45 22.45 65.45 17.65 60.65 21.45 60.65 24.75 60.65 28.55 60.65 32.35 60.65 34.75 63.0 32.35 60.65 53.6 60.65 56.0 63.0 58.4 65.45 M29.55 65.45 L24.75 60.65 29.55 65.45 M26.25 65.45 L21.45 60.65 26.25 65.45 M33.35 65.45 L28.55 60.65 33.35 65.45 M37.15 65.45 L34.75 63.0 56.0 63.0 34.75 63.0 37.15 65.45" fill="#222222" fill-rule="evenodd" stroke="none"/>
      <path d="M186.9 22.65 L187.45 22.7 187.5 22.7 Q189.3 22.7 190.45 21.4 191.75 20.05 191.75 18.15 191.75 16.2 190.45 14.85 189.3 13.55 187.5 13.55 L187.45 13.55 Q185.7 13.6 184.6 14.85 183.3 16.2 183.3 18.15 183.3 20.05 184.6 21.4 185.55 22.45 186.9 22.65 L182.65 22.7 178.75 22.7 177.85 22.7 173.55 22.7 169.5 22.7 170.8 24.8 173.9 24.8 178.15 24.8 178.35 24.8 183.15 24.8 187.45 24.8 187.5 24.8 Q189.3 24.8 190.45 26.2 191.75 27.5 191.75 29.4 191.75 31.3 190.45 32.7 189.3 34.0 187.5 34.0 L187.45 34.0 183.15 34.0 178.35 34.0 178.15 34.0 176.5 34.0 177.8 36.1 178.15 36.1 178.35 36.1 183.1 36.1 187.4 36.1 187.5 36.1 Q189.3 36.1 190.45 37.45 191.75 38.75 191.75 40.7 191.75 42.6 190.45 43.95 189.35 45.3 187.65 45.35 L187.45 45.35 183.15 45.35 181.95 45.35 181.95 50.05 179.1 53.5 163.1 53.5 160.25 56.95 153.75 56.95 148.35 62.8 143.55 62.8 138.55 67.8 119.55 67.8 60.8 67.8 58.4 65.45 37.15 65.45 33.35 65.45 29.55 65.45 26.25 65.45 22.45 65.45 17.65 60.65 15.25 54.9 7.25 54.9 4.6 53.45 0.5 43.5 0.0 42.3 3.0 38.15 3.25 34.9 1.3 32.7 2.15 31.05 3.8 31.05 6.2 26.45 7.4 26.45 8.9 23.4 10.2 22.6 6.35 18.6 6.35 16.6 8.05 14.7 9.65 14.7 14.0 9.85 16.35 9.85 18.7 9.85 21.05 9.85 23.4 9.85 25.8 9.85 27.2 8.25 28.65 8.25 30.15 4.75 34.3 4.75 36.25 4.75 39.45 8.25 41.65 8.25 44.25 11.65 46.3 11.65 50.1 11.65 53.9 11.65 57.7 11.65 61.5 11.65 64.2 11.65 65.45 8.4 68.5 8.4 74.3 0.0 88.65 0.0 102.95 0.0 110.6 0.0 121.1 0.0 128.75 0.0 136.3 5.15 140.35 5.15 142.5 8.7 160.85 8.7 164.45 14.5 165.45 13.8 166.85 13.55 174.05 13.55 178.15 13.55 178.35 13.55 183.15 13.55 187.45 13.55 M190.35 15.95 Q191.25 16.85 191.25 18.15 191.25 19.4 190.35 20.3 189.55 21.2 188.4 21.2 187.2 21.2 186.45 20.3 185.55 19.4 185.55 18.15 185.55 16.85 186.45 15.95 187.2 15.05 188.4 15.05 189.55 15.05 190.35 15.95 M173.55 22.7 Q172.1 22.55 171.0 21.4 L170.85 21.2 Q169.75 19.9 169.75 18.15 169.75 16.35 170.85 15.05 L171.0 14.85 171.6 14.3 Q172.65 13.6 174.05 13.55 M163.85 21.2 Q162.7 19.9 162.7 18.15 162.7 16.35 163.85 15.05 L160.7 15.05 154.5 15.05 151.4 15.05 149.05 15.05 Q147.85 15.1 147.15 15.95 146.25 16.85 146.25 18.15 146.25 19.4 147.15 20.3 147.85 21.15 149.05 21.2 L151.4 21.2 154.5 21.2 160.7 21.2 163.05 21.2 163.85 21.2 164.0 21.4 Q164.65 22.15 165.45 22.45 L166.5 22.7 169.5 22.7 M163.85 15.05 L164.0 14.85 164.45 14.5 M178.35 13.55 Q179.75 13.6 180.75 14.45 181.75 13.6 183.15 13.55 M179.95 15.25 L180.95 15.95 Q181.8 16.85 181.8 18.15 181.8 19.4 180.95 20.3 L179.95 21.0 179.1 21.2 178.95 21.2 Q177.8 21.15 177.05 20.3 176.15 19.4 176.15 18.15 176.15 16.85 177.05 15.95 177.8 15.1 178.95 15.05 L179.1 15.05 179.95 15.25 M180.75 14.45 L181.15 14.85 Q182.45 16.2 182.45 18.15 182.45 20.05 181.15 21.4 L180.75 21.8 Q181.6 22.5 182.65 22.7 M177.85 22.7 Q176.35 22.55 175.25 21.4 L175.1 21.2 Q174.05 19.9 174.05 18.15 174.05 16.35 175.1 15.05 L175.25 14.85 175.9 14.3 Q176.9 13.6 178.15 13.55 M180.75 21.8 Q179.85 22.6 178.75 22.7 M175.9 14.3 Q176.95 13.6 178.35 13.55 M180.95 27.2 Q181.8 28.15 181.8 29.4 181.8 30.7 180.95 31.6 L180.0 32.3 179.0 32.5 Q177.85 32.5 177.05 31.6 176.15 30.7 176.15 29.4 176.15 28.15 177.05 27.2 177.85 26.3 179.0 26.3 L180.0 26.5 180.95 27.2 M180.6 25.6 Q179.55 24.85 178.15 24.8 176.45 24.85 175.25 26.2 174.05 27.5 174.05 29.4 L174.05 30.1 Q174.25 31.55 175.25 32.7 L176.1 33.45 178.15 34.0 M178.35 24.8 Q179.6 24.85 180.6 25.6 L180.75 25.75 Q181.75 24.85 183.15 24.8 M178.35 34.0 Q179.75 33.95 180.75 33.1 L181.15 32.7 Q182.45 31.3 182.45 29.4 182.45 27.5 181.15 26.2 L180.75 25.75 M173.55 36.1 L172.35 36.1 166.85 36.1 Q166.1 36.1 165.45 36.4 164.65 36.75 164.0 37.45 L163.95 37.5 163.85 37.65 Q162.7 38.9 162.7 40.7 162.7 42.5 163.85 43.8 L164.0 43.95 165.45 45.05 166.85 45.35 173.9 45.35 172.25 44.95 171.0 43.95 Q169.75 42.6 169.75 40.7 169.75 39.9 170.0 39.2 170.25 38.2 171.0 37.45 172.05 36.3 173.55 36.1 L177.8 36.1 177.85 36.15 178.15 36.1 M176.5 34.0 L173.9 34.0 171.05 34.0 172.35 36.1 M178.35 36.1 Q179.75 36.15 180.75 37.0 181.75 36.15 183.1 36.1 M173.9 34.0 L171.85 33.45 171.0 32.7 Q170.0 31.55 169.8 30.1 L169.75 29.4 Q169.75 27.5 171.0 26.2 172.15 24.85 173.9 24.8 M165.45 25.1 Q166.1 24.8 166.85 24.8 L170.8 24.8 M163.85 26.3 L163.95 26.2 164.0 26.2 164.45 25.75 165.45 25.1 163.05 21.2 M163.85 32.5 Q162.7 31.2 162.7 29.4 162.7 27.65 163.85 26.3 L160.65 26.3 154.5 26.3 151.35 26.3 149.05 26.3 Q147.9 26.35 147.15 27.2 L146.7 27.8 149.7 32.5 151.4 32.5 154.5 32.5 160.7 32.5 163.85 32.5 164.0 32.7 Q164.65 33.4 165.45 33.75 L166.85 34.0 171.05 34.0 M179.0 37.65 L179.95 37.8 180.95 38.55 Q181.8 39.45 181.8 40.7 L181.5 42.15 180.95 42.85 Q180.55 43.4 180.0 43.6 L179.0 43.8 Q177.85 43.8 177.05 42.85 176.15 41.95 176.15 40.7 176.15 39.45 177.05 38.55 177.75 37.7 178.75 37.7 L179.0 37.65 M178.15 45.35 L176.55 44.95 175.25 43.95 Q174.05 42.6 174.05 40.7 L174.25 39.2 Q174.55 38.2 175.25 37.45 176.3 36.3 177.85 36.15 M176.55 45.35 L173.9 45.35 M156.1 45.35 L156.1 46.4 176.55 46.4 176.55 45.35 178.15 45.35 Q179.55 45.3 180.55 44.55 L180.75 44.4 181.15 43.95 181.95 42.85 Q182.45 41.9 182.45 40.7 182.45 38.75 181.15 37.45 L180.75 37.0 M178.35 45.35 L178.15 45.35 M178.35 45.35 L181.95 45.35 M180.55 44.55 Q179.6 45.3 178.35 45.35 M190.35 27.2 Q191.25 28.15 191.25 29.4 191.25 30.7 190.35 31.6 189.55 32.5 188.4 32.5 187.2 32.5 186.45 31.6 185.55 30.7 185.55 29.4 185.55 28.15 186.45 27.2 187.2 26.3 188.4 26.3 189.55 26.3 190.35 27.2 M187.45 34.0 Q185.7 33.95 184.6 32.7 183.3 31.3 183.3 29.4 183.3 27.5 184.6 26.2 185.7 24.85 187.45 24.8 M190.35 38.55 Q191.25 39.45 191.25 40.7 191.25 41.95 190.35 42.85 189.55 43.8 188.4 43.8 187.2 43.8 186.45 42.85 185.55 41.95 185.55 40.7 185.55 39.45 186.45 38.55 187.2 37.65 188.4 37.65 189.55 37.65 190.35 38.55 M187.45 45.35 Q185.7 45.3 184.6 43.95 183.3 42.6 183.3 40.7 183.3 38.75 184.6 37.45 185.7 36.15 187.4 36.1 M180.75 44.4 Q181.75 45.3 183.15 45.35 M183.15 34.0 Q181.75 33.95 180.75 33.1 M148.4 13.55 Q150.05 13.6 151.2 14.85 L151.4 15.05 M147.9 22.7 Q146.4 22.55 145.3 21.4 L145.2 21.2 Q144.1 19.9 144.1 18.15 144.1 16.35 145.2 15.05 L145.3 14.85 Q146.5 13.6 148.4 13.55 L137.9 13.55 140.2 17.25 143.55 22.7 147.9 22.7 Q150.2 22.55 151.2 21.4 L151.4 21.2 M157.35 13.55 L157.5 13.55 158.4 13.65 157.5 12.2 137.05 12.2 137.9 13.55 M158.4 13.65 Q159.65 13.85 160.55 14.85 L160.7 15.05 M154.5 15.05 L154.65 14.85 Q155.75 13.65 157.35 13.55 L148.4 13.55 M157.6 22.7 Q155.65 22.45 154.65 21.4 L154.5 21.2 M160.7 21.2 L160.55 21.4 Q159.35 22.7 157.6 22.7 L147.9 22.7 M129.45 8.7 L134.75 17.25 140.2 17.25 M136.3 5.15 L126.25 5.15 118.15 5.15 108.1 5.15 103.5 5.15 126.8 42.85 132.2 42.85 121.65 25.8 116.4 17.25 111.1 8.7 129.45 8.7 142.5 8.7 M121.65 25.8 L130.9 25.8 140.05 25.75 134.75 17.25 116.4 17.25 M157.35 24.8 L157.5 24.8 Q159.35 24.8 160.55 26.2 L160.65 26.3 M154.5 26.3 L154.65 26.2 Q155.75 24.9 157.35 24.8 L148.2 24.8 Q150.05 24.85 151.2 26.2 L151.35 26.3 M157.5 34.0 Q155.8 33.95 154.65 32.7 L154.5 32.5 M157.45 36.1 L157.6 36.1 Q159.35 36.1 160.55 37.45 L160.7 37.65 163.85 37.65 M160.7 32.5 L160.55 32.7 Q159.35 34.0 157.5 34.0 L150.65 34.0 151.95 36.1 157.45 36.1 Q155.8 36.15 154.65 37.45 L154.5 37.65 160.7 37.65 M144.85 24.8 L145.45 25.75 145.55 25.95 Q146.7 24.85 148.2 24.8 L144.85 24.8 143.55 22.7 M145.55 25.95 L146.7 27.8 M151.4 32.5 L151.2 32.7 150.3 33.5 150.65 34.0 M149.7 32.5 L150.3 33.5 M150.7 42.85 L150.7 45.05 156.1 45.05 156.1 43.8 156.1 42.85 150.7 42.85 140.05 25.75 145.45 25.75 M150.7 45.05 L142.9 45.05 130.9 25.8 M152.9 37.65 L153.15 38.05 153.3 38.3 156.1 42.85 M154.5 37.65 L152.9 37.65 151.95 36.1 M156.1 45.05 L156.1 45.35 157.3 45.35 156.1 45.05 M160.65 43.8 L160.55 43.95 Q159.4 45.3 157.5 45.35 L157.3 45.35 M160.65 43.8 L156.1 43.8 M108.1 5.15 L102.95 0.0 M108.6 22.6 L103.5 14.4 99.7 14.4 104.8 22.6 108.6 22.6 121.1 42.85 121.1 50.05 119.3 52.2 115.5 52.2 105.4 52.2 107.05 54.95 108.3 56.95 121.1 56.95 126.8 50.05 126.8 42.85 M110.6 0.0 L118.15 5.15 M86.0 5.15 L88.65 0.0 M85.5 8.0 Q85.8 8.9 85.35 10.2 84.8 11.5 83.8 12.4 82.75 13.3 81.7 13.3 80.65 13.3 80.25 12.4 79.9 11.5 80.4 10.2 80.9 8.9 81.95 8.0 83.0 7.1 84.05 7.1 85.1 7.1 85.5 8.0 M83.55 25.75 L83.55 21.3 90.45 14.4 94.85 14.4 98.4 5.15 86.0 5.15 73.65 5.15 72.35 8.4 65.6 25.75 83.55 25.75 83.55 28.65 98.7 28.65 104.8 22.6 117.3 42.85 121.1 42.85 M94.85 14.4 L99.7 14.4 M85.4 38.5 L83.55 35.5 83.55 28.65 M90.45 46.55 L82.2 46.55 78.1 56.95 53.15 56.95 51.1 54.9 45.0 54.9 50.3 60.2 53.15 60.2 81.0 60.2 82.4 58.5 85.35 54.95 107.05 54.95 M85.4 38.5 L89.25 44.7 99.25 44.7 103.85 52.2 105.4 52.2 M89.25 44.7 L90.45 46.55 93.9 52.2 103.85 52.2 M82.2 46.55 L85.4 38.5 M103.5 5.15 L98.4 5.15 M117.3 50.05 L115.5 52.2 M117.3 42.85 L117.3 50.05 121.1 50.05 M114.55 62.8 L119.35 62.8 123.75 56.95 121.1 56.95 M119.55 67.8 L114.55 62.8 103.9 62.8 100.7 58.5 82.4 58.5 M150.7 50.05 L147.85 53.5 163.1 53.5 M126.8 50.05 L132.2 50.05 132.2 42.85 M132.2 50.05 L129.35 53.5 147.85 53.5 M123.75 56.95 L153.75 56.95 M126.25 5.15 L121.1 0.0 M143.55 62.8 L119.35 62.8 M150.7 45.05 L150.7 50.05 181.95 50.05 M79.3 8.0 Q79.65 8.9 79.15 10.2 78.65 11.5 77.6 12.4 76.55 13.3 75.5 13.3 74.45 13.3 74.1 12.4 73.7 11.5 74.25 10.2 74.7 8.9 75.8 8.0 76.85 7.1 77.9 7.1 78.95 7.1 79.3 8.0 M64.1 11.85 L64.2 11.65 M61.65 18.1 Q61.3 17.25 61.3 16.25 61.3 14.35 62.5 12.95 L64.1 11.85 61.65 18.1 60.65 20.7 60.6 20.85 57.6 28.5 51.4 28.5 32.9 28.5 30.75 32.7 32.7 34.9 62.0 34.9 65.6 25.75 M72.35 8.4 L68.5 8.4 M35.25 13.9 L35.9 12.95 Q37.1 11.7 38.7 11.65 L38.85 11.65 42.5 11.65 44.25 11.65 M50.1 20.85 Q48.5 20.75 47.3 19.5 46.1 18.15 46.1 16.25 46.1 14.35 47.3 12.95 48.5 11.7 50.1 11.65 M46.3 20.85 Q44.7 20.75 43.5 19.5 42.3 18.15 42.3 16.25 42.3 14.35 43.5 12.95 44.7 11.7 46.3 11.65 M46.3 20.85 L50.1 20.85 53.9 20.85 Q52.3 20.75 51.1 19.5 49.9 18.15 49.9 16.25 49.9 14.35 51.1 12.95 52.3 11.7 53.9 11.65 M46.2 20.85 L46.3 20.85 M46.2 20.85 L43.8 23.8 39.15 23.8 40.05 25.35 49.85 25.35 51.4 28.5 M42.5 20.85 L46.2 20.85 M60.65 20.7 Q59.6 20.4 58.7 19.5 57.5 18.15 57.5 16.25 57.5 14.35 58.7 12.95 59.9 11.7 61.5 11.65 M57.7 20.85 Q56.1 20.75 54.9 19.5 53.7 18.15 53.7 16.25 53.7 14.35 54.9 12.95 56.1 11.7 57.7 11.65 M57.7 20.85 L60.6 20.85 M53.9 20.85 L57.7 20.85 M48.0 47.15 L50.65 48.55 53.15 54.9 51.1 54.9 M71.4 43.2 L70.7 44.85 43.6 44.85 41.95 43.2 33.9 43.2 32.9 40.7 31.85 38.3 63.5 38.3 64.35 36.15 65.15 34.05 65.9 32.1 66.85 29.7 67.45 28.2 74.35 28.2 77.2 28.2 71.4 43.2 41.95 43.2 M65.15 34.05 L68.25 34.05 M64.35 36.15 L68.1 36.15 M66.85 29.7 L69.8 29.7 M63.5 38.3 L68.25 38.3 M65.9 32.1 L71.45 32.1 M32.9 40.7 L69.45 40.7 74.35 28.2 M35.8 8.25 L39.45 8.25 M32.9 11.55 L35.8 8.25 34.85 8.25 28.65 8.25 M34.85 8.25 L34.3 4.75 M25.8 9.85 L24.3 11.55 32.9 11.55 35.25 13.9 Q34.7 14.95 34.7 16.25 34.7 18.15 35.9 19.5 37.1 20.75 38.7 20.85 L38.75 20.85 42.5 20.85 Q40.9 20.75 39.7 19.5 38.5 18.15 38.5 16.25 38.5 14.35 39.7 12.95 40.9 11.7 42.5 11.65 M28.35 16.6 L28.35 18.6 33.3 23.8 38.75 23.8 38.75 20.85 M38.75 23.8 L39.15 23.8 M28.2 23.8 L33.3 23.8 M28.35 16.6 L32.9 11.55 M24.3 11.55 L21.45 14.7 19.05 14.7 16.7 14.7 14.35 14.7 12.0 14.7 9.65 14.7 M28.2 23.8 L11.3 23.8 10.2 22.6 M18.7 9.85 L14.35 14.7 M16.35 9.85 L12.0 14.7 M15.65 26.45 L18.0 26.45 20.35 26.45 22.7 26.45 24.95 26.45 25.5 25.35 29.05 25.35 28.2 23.8 M10.95 26.45 L13.3 26.45 15.65 26.45 13.2 31.05 15.6 31.05 18.0 26.45 M13.2 31.05 L10.9 31.05 8.5 31.05 6.15 31.05 3.8 31.05 M17.9 31.05 L15.6 31.05 M13.3 26.45 L10.9 31.05 M7.4 26.45 L8.6 26.45 10.95 26.45 8.5 31.05 M6.15 31.05 L8.6 26.45 M0.5 43.5 L17.75 43.5 16.7 40.85 26.1 40.85 24.95 38.15 3.0 38.15 M30.2 25.35 L29.05 25.35 M24.95 26.45 L22.5 31.05 20.3 31.05 17.9 31.05 20.35 26.45 M28.35 34.9 L26.4 32.7 1.3 32.7 M20.3 31.05 L22.7 26.45 M26.4 32.7 L30.2 25.35 40.05 25.35 M24.95 38.15 L27.8 39.55 30.85 47.15 48.0 47.15 50.5 53.45 53.15 54.9 M26.1 40.85 L28.7 47.15 30.85 47.15 M26.4 32.7 L30.75 32.7 M32.7 34.9 L28.35 34.9 3.25 34.9 M6.35 16.6 L28.35 16.6 M28.35 18.6 L6.35 18.6 M23.4 9.85 L19.05 14.7 M16.7 14.7 L21.05 9.85 M15.25 54.9 L19.05 54.9 22.4 54.9 26.2 54.9 30.0 54.9 45.0 54.9 M28.55 60.65 L24.75 60.65 29.55 65.45 M26.2 54.9 L28.55 60.65 32.35 60.65 30.0 54.9 M24.75 60.65 L21.45 60.65 26.25 65.45 M22.4 54.9 L24.75 60.65 M56.0 63.0 L34.75 63.0 37.15 65.45 M32.35 60.65 L34.75 63.0 M28.55 60.65 L33.35 65.45 M4.6 53.45 L21.85 53.45 17.75 43.5 M21.45 60.65 L17.65 60.65 M19.05 54.9 L21.45 60.65 M53.6 60.65 L53.15 60.2 M58.4 65.45 L56.0 63.0 53.6 60.65 32.35 60.65 M21.85 53.45 L50.5 53.45 M163.85 43.8 L160.65 43.8" fill="none" stroke="#000000" stroke-width="0.7" stroke-opacity="0.4"/>
    </g>
    <radialGradient cx="0" cy="0" gradientTransform="matrix(0.0086, 0.0, 0.0, 0.0086, 186.1, 15.9)" gradientUnits="userSpaceOnUse" id="gradient0" r="819.2" spreadMethod="pad">
      <stop offset="0.0" stop-color="#cccccc"/>
      <stop offset="1.0" stop-color="#666666"/>
    </radialGradient>
    <linearGradient gradientTransform="matrix(0.0, -0.0055, 0.0056, 0.0, 143.05, 18.1)" gradientUnits="userSpaceOnUse" id="gradient1" spreadMethod="pad" x1="-819.2" x2="819.2">
      <stop offset="0.0" stop-color="#444444"/>
      <stop offset="0.7019607843137254" stop-color="#bbbbbb"/>
      <stop offset="0.807843137254902" stop-color="#bbbbbb"/>
      <stop offset="1.0" stop-color="#aaaaaa"/>
    </linearGradient>
    <linearGradient gradientTransform="matrix(0.0, -0.0039, 0.0037, 0.0, 154.95, 18.15)" gradientUnits="userSpaceOnUse" id="gradient2" spreadMethod="pad" x1="-819.2" x2="819.2">
      <stop offset="0.0" stop-color="#111111"/>
      <stop offset="1.0" stop-color="#444444"/>
    </linearGradient>
    <radialGradient cx="0" cy="0" gradientTransform="matrix(0.0087, 0.0, 0.0, 0.0087, 176.8, 15.65)" gradientUnits="userSpaceOnUse" id="gradient3" r="819.2" spreadMethod="pad">
      <stop offset="0.0" stop-color="#cccccc"/>
      <stop offset="1.0" stop-color="#666666"/>
    </radialGradient>
    <radialGradient cx="0" cy="0" gradientTransform="matrix(0.0091, 0.0, 0.0, 0.0086, 177.3, 26.9)" gradientUnits="userSpaceOnUse" id="gradient4" r="819.2" spreadMethod="pad">
      <stop offset="0.0" stop-color="#cccccc"/>
      <stop offset="1.0" stop-color="#666666"/>
    </radialGradient>
    <linearGradient gradientTransform="matrix(0.0, -0.0056, 9.0E-4, 0.0, 152.45, 29.3)" gradientUnits="userSpaceOnUse" id="gradient5" spreadMethod="pad" x1="-819.2" x2="819.2">
      <stop offset="0.0" stop-color="#444444"/>
      <stop offset="0.7019607843137254" stop-color="#bbbbbb"/>
      <stop offset="0.807843137254902" stop-color="#bbbbbb"/>
      <stop offset="1.0" stop-color="#aaaaaa"/>
    </linearGradient>
    <linearGradient gradientTransform="matrix(0.0, -0.0057, 0.0038, 0.0, 158.3, 40.7)" gradientUnits="userSpaceOnUse" id="gradient6" spreadMethod="pad" x1="-819.2" x2="819.2">
      <stop offset="0.0" stop-color="#444444"/>
      <stop offset="0.7019607843137254" stop-color="#bbbbbb"/>
      <stop offset="0.807843137254902" stop-color="#bbbbbb"/>
      <stop offset="1.0" stop-color="#aaaaaa"/>
    </linearGradient>
    <radialGradient cx="0" cy="0" gradientTransform="matrix(0.0085, 0.0, 0.0, 0.0085, 176.9, 38.35)" gradientUnits="userSpaceOnUse" id="gradient7" r="819.2" spreadMethod="pad">
      <stop offset="0.0" stop-color="#cccccc"/>
      <stop offset="1.0" stop-color="#666666"/>
    </radialGradient>
    <linearGradient gradientTransform="matrix(0.0, -0.0057, 0.0038, 0.0, 158.3, 40.7)" gradientUnits="userSpaceOnUse" id="gradient8" spreadMethod="pad" x1="-819.2" x2="819.2">
      <stop offset="0.0" stop-color="#666666"/>
      <stop offset="0.7019607843137254" stop-color="#bbbbbb"/>
      <stop offset="0.807843137254902" stop-color="#bbbbbb"/>
      <stop offset="1.0" stop-color="#aaaaaa"/>
    </linearGradient>
    <linearGradient gradientTransform="matrix(0.0, -0.0039, 0.0038, 0.0, 155.25, 29.4)" gradientUnits="userSpaceOnUse" id="gradient9" spreadMethod="pad" x1="-819.2" x2="819.2">
      <stop offset="0.0" stop-color="#111111"/>
      <stop offset="1.0" stop-color="#444444"/>
    </linearGradient>
    <linearGradient gradientTransform="matrix(0.0, -0.0038, 0.0038, 0.0, 158.3, 40.7)" gradientUnits="userSpaceOnUse" id="gradient10" spreadMethod="pad" x1="-819.2" x2="819.2">
      <stop offset="0.0" stop-color="#111111"/>
      <stop offset="1.0" stop-color="#444444"/>
    </linearGradient>
    <radialGradient cx="0" cy="0" gradientTransform="matrix(0.0093, 0.0, 0.0, 0.0093, 186.6, 26.65)" gradientUnits="userSpaceOnUse" id="gradient11" r="819.2" spreadMethod="pad">
      <stop offset="0.0" stop-color="#cccccc"/>
      <stop offset="1.0" stop-color="#666666"/>
    </radialGradient>
    <radialGradient cx="0" cy="0" gradientTransform="matrix(0.0097, 0.0, 0.0, 0.0097, 186.4, 38.25)" gradientUnits="userSpaceOnUse" id="gradient12" r="819.2" spreadMethod="pad">
      <stop offset="0.0" stop-color="#cccccc"/>
      <stop offset="1.0" stop-color="#666666"/>
    </radialGradient>
    <radialGradient cx="0" cy="0" gradientTransform="matrix(0.0084, 0.0, 0.0, 0.0084, 146.95, 15.9)" gradientUnits="userSpaceOnUse" id="gradient13" r="819.2" spreadMethod="pad">
      <stop offset="0.0" stop-color="#cccccc"/>
      <stop offset="1.0" stop-color="#666666"/>
    </radialGradient>
    <radialGradient cx="0" cy="0" gradientTransform="matrix(0.0091, 0.0, 0.0, 0.0091, 156.1, 15.5)" gradientUnits="userSpaceOnUse" id="gradient14" r="819.2" spreadMethod="pad">
      <stop offset="0.0" stop-color="#cccccc"/>
      <stop offset="1.0" stop-color="#666666"/>
    </radialGradient>
    <radialGradient cx="0" cy="0" gradientTransform="matrix(0.0092, 0.0, 0.0, 0.0092, 155.4, 27.2)" gradientUnits="userSpaceOnUse" id="gradient15" r="819.2" spreadMethod="pad">
      <stop offset="0.0" stop-color="#cccccc"/>
      <stop offset="1.0" stop-color="#666666"/>
    </radialGradient>
    <radialGradient cx="0" cy="0" gradientTransform="matrix(0.0086, 0.0, 0.0, 0.0086, 155.7, 38.2)" gradientUnits="userSpaceOnUse" id="gradient16" r="819.2" spreadMethod="pad">
      <stop offset="0.0" stop-color="#cccccc"/>
      <stop offset="1.0" stop-color="#666666"/>
    </radialGradient>
    <radialGradient cx="0" cy="0" gradientTransform="matrix(0.0086, 0.0, 0.0, 0.0086, 146.75, 27.5)" gradientUnits="userSpaceOnUse" id="gradient17" r="819.2" spreadMethod="pad">
      <stop offset="0.0" stop-color="#cccccc"/>
      <stop offset="1.0" stop-color="#666666"/>
    </radialGradient>
    <radialGradient cx="0" cy="0" gradientTransform="matrix(0.0045, 0.0, 0.0, 0.0045, 82.85, 10.2)" gradientUnits="userSpaceOnUse" id="gradient18" r="819.2" spreadMethod="pad">
      <stop offset="0.0" stop-color="#ffd100"/>
      <stop offset="1.0" stop-color="#ff6800"/>
    </radialGradient>
    <radialGradient cx="0" cy="0" gradientTransform="matrix(0.0045, 0.0, 0.0, 0.0045, 76.65, 10.2)" gradientUnits="userSpaceOnUse" id="gradient19" r="819.2" spreadMethod="pad">
      <stop offset="0.0" stop-color="#ffd100"/>
      <stop offset="1.0" stop-color="#ff6800"/>
    </radialGradient>
    <linearGradient gradientTransform="matrix(0.0, -0.0056, 0.0056, 0.0, 49.95, 16.2)" gradientUnits="userSpaceOnUse" id="gradient20" spreadMethod="pad" x1="-819.2" x2="819.2">
      <stop offset="0.0" stop-color="#222222"/>
      <stop offset="1.0" stop-color="#444444"/>
    </linearGradient>
    <linearGradient gradientTransform="matrix(0.0277, 0.0, 0.0, 0.0101, 54.5, 36.5)" gradientUnits="userSpaceOnUse" id="gradient21" spreadMethod="pad" x1="-819.2" x2="819.2">
      <stop offset="0.0" stop-color="#bf5900"/>
      <stop offset="1.0" stop-color="#958100"/>
    </linearGradient>
    <radialGradient cx="0" cy="0" fx="6.4" fy="0" gradientTransform="matrix(0.0424, 0.0, 0.0, 0.0424, 67.65, 41.2)" gradientUnits="userSpaceOnUse" id="gradient22" r="819.2" spreadMethod="pad">
      <stop offset="0.0" stop-color="#ffbb00"/>
      <stop offset="1.0" stop-color="#ff5500"/>
    </radialGradient>
    <radialGradient cx="0" cy="0" fx="6.4" fy="0" gradientTransform="matrix(0.0434, 0.0, 0.0, 0.0434, 67.4, 39.1)" gradientUnits="userSpaceOnUse" id="gradient23" r="819.2" spreadMethod="pad">
      <stop offset="0.0" stop-color="#ffbb00"/>
      <stop offset="1.0" stop-color="#ff5500"/>
    </radialGradient>
    <linearGradient gradientTransform="matrix(0.0, -0.003, 0.0029, 0.0, 15.3, 12.25)" gradientUnits="userSpaceOnUse" id="gradient24" spreadMethod="pad" x1="-819.2" x2="819.2">
      <stop offset="0.0" stop-color="#ffbb00"/>
      <stop offset="1.0" stop-color="#ff5500"/>
    </linearGradient>
    <linearGradient gradientTransform="matrix(0.0, 0.0028, -0.0029, 0.0, 15.6, 28.7)" gradientUnits="userSpaceOnUse" id="gradient25" spreadMethod="pad" x1="-819.2" x2="819.2">
      <stop offset="0.0" stop-color="#ffbb00"/>
      <stop offset="1.0" stop-color="#ff5500"/>
    </linearGradient>
    <linearGradient gradientTransform="matrix(0.0, 0.0028, -0.0029, 0.0, 10.9, 28.7)" gradientUnits="userSpaceOnUse" id="gradient26" spreadMethod="pad" x1="-819.2" x2="819.2">
      <stop offset="0.0" stop-color="#ffbb00"/>
      <stop offset="1.0" stop-color="#ff5500"/>
    </linearGradient>
    <linearGradient gradientTransform="matrix(0.0, 0.0028, -0.0029, 0.0, 13.25, 28.7)" gradientUnits="userSpaceOnUse" id="gradient27" spreadMethod="pad" x1="-819.2" x2="819.2">
      <stop offset="0.0" stop-color="#ffbb00"/>
      <stop offset="1.0" stop-color="#ff5500"/>
    </linearGradient>
    <linearGradient gradientTransform="matrix(0.0, 0.0028, -0.0029, 0.0, 17.95, 28.7)" gradientUnits="userSpaceOnUse" id="gradient28" spreadMethod="pad" x1="-819.2" x2="819.2">
      <stop offset="0.0" stop-color="#ffbb00"/>
      <stop offset="1.0" stop-color="#ff5500"/>
    </linearGradient>
    <linearGradient gradientTransform="matrix(0.0, 0.0028, -0.0029, 0.0, 6.2, 28.7)" gradientUnits="userSpaceOnUse" id="gradient29" spreadMethod="pad" x1="-819.2" x2="819.2">
      <stop offset="0.0" stop-color="#ffbb00"/>
      <stop offset="1.0" stop-color="#ff5500"/>
    </linearGradient>
    <linearGradient gradientTransform="matrix(0.0, 0.0028, -0.0029, 0.0, 8.5, 28.7)" gradientUnits="userSpaceOnUse" id="gradient30" spreadMethod="pad" x1="-819.2" x2="819.2">
      <stop offset="0.0" stop-color="#ffbb00"/>
      <stop offset="1.0" stop-color="#ff5500"/>
    </linearGradient>
    <linearGradient gradientTransform="matrix(0.0, 0.0028, -0.0029, 0.0, 20.3, 28.7)" gradientUnits="userSpaceOnUse" id="gradient31" spreadMethod="pad" x1="-819.2" x2="819.2">
      <stop offset="0.0" stop-color="#ffbb00"/>
      <stop offset="1.0" stop-color="#ff5500"/>
    </linearGradient>
    <linearGradient gradientTransform="matrix(0.0, 0.0028, -0.0028, 0.0, 22.6, 28.7)" gradientUnits="userSpaceOnUse" id="gradient32" spreadMethod="pad" x1="-819.2" x2="819.2">
      <stop offset="0.0" stop-color="#ffbb00"/>
      <stop offset="1.0" stop-color="#ff5500"/>
    </linearGradient>
    <g id="shape1" transform="matrix(1.0, 0.0, 0.0, 1.0, -3.75, -7.05)">
      <path d="M85.5 8.0 Q85.8 8.9 85.35 10.2 84.8 11.5 83.8 12.4 82.75 13.3 81.7 13.3 80.65 13.3 80.25 12.4 79.9 11.5 80.4 10.2 80.9 8.9 81.95 8.0 83.0 7.1 84.05 7.1 85.1 7.1 85.5 8.0" fill="url(#gradient33)" fill-rule="evenodd" stroke="none"/>
      <path d="M79.3 8.0 Q79.65 8.9 79.15 10.2 78.65 11.5 77.6 12.4 76.55 13.3 75.5 13.3 74.45 13.3 74.1 12.4 73.7 11.5 74.25 10.2 74.7 8.9 75.8 8.0 76.85 7.1 77.9 7.1 78.95 7.1 79.3 8.0" fill="url(#gradient34)" fill-rule="evenodd" stroke="none"/>
      <path d="M71.4 43.2 L70.7 44.85 43.6 44.85 41.95 43.2 71.4 43.2" fill="#003366" fill-rule="evenodd" stroke="none"/>
      <path d="M41.95 43.2 L33.9 43.2 32.9 40.7 69.45 40.7 74.35 28.2 77.2 28.2 71.4 43.2 41.95 43.2" fill="url(#gradient35)" fill-rule="evenodd" stroke="none"/>
      <path d="M32.9 40.7 L31.85 38.3 63.5 38.3 64.35 36.15 65.15 34.05 65.9 32.1 66.85 29.7 67.45 28.2 74.35 28.2 69.45 40.7 32.9 40.7 M68.25 38.3 L63.5 38.3 68.25 38.3 M68.25 34.05 L65.15 34.05 68.25 34.05 M69.8 29.7 L66.85 29.7 69.8 29.7 M68.1 36.15 L64.35 36.15 68.1 36.15 M71.45 32.1 L65.9 32.1 71.45 32.1" fill="url(#gradient36)" fill-rule="evenodd" stroke="none"/>
      <path d="M23.4 9.85 L25.8 9.85 21.45 14.7 19.05 14.7 16.7 14.7 14.35 14.7 12.0 14.7 9.65 14.7 14.0 9.85 16.35 9.85 18.7 9.85 21.05 9.85 23.4 9.85 19.05 14.7 23.4 9.85 M14.35 14.7 L18.7 9.85 14.35 14.7 M12.0 14.7 L16.35 9.85 12.0 14.7 M21.05 9.85 L16.7 14.7 21.05 9.85" fill="url(#gradient37)" fill-rule="evenodd" stroke="none"/>
      <path d="M15.65 26.45 L18.0 26.45 15.6 31.05 13.2 31.05 15.65 26.45" fill="url(#gradient38)" fill-rule="evenodd" stroke="none"/>
      <path d="M10.9 31.05 L8.5 31.05 10.95 26.45 13.3 26.45 10.9 31.05" fill="url(#gradient39)" fill-rule="evenodd" stroke="none"/>
      <path d="M13.2 31.05 L10.9 31.05 13.3 26.45 15.65 26.45 13.2 31.05" fill="url(#gradient40)" fill-rule="evenodd" stroke="none"/>
      <path d="M18.0 26.45 L20.35 26.45 17.9 31.05 15.6 31.05 18.0 26.45" fill="url(#gradient41)" fill-rule="evenodd" stroke="none"/>
      <path d="M6.15 31.05 L3.8 31.05 6.2 26.45 8.6 26.45 6.15 31.05" fill="url(#gradient42)" fill-rule="evenodd" stroke="none"/>
      <path d="M8.5 31.05 L6.15 31.05 8.6 26.45 10.95 26.45 8.5 31.05" fill="url(#gradient43)" fill-rule="evenodd" stroke="none"/>
      <path d="M20.35 26.45 L22.7 26.45 20.3 31.05 17.9 31.05 20.35 26.45" fill="url(#gradient44)" fill-rule="evenodd" stroke="none"/>
      <path d="M22.7 26.45 L24.95 26.45 22.5 31.05 20.3 31.05 22.7 26.45" fill="url(#gradient45)" fill-rule="evenodd" stroke="none"/>
      <path d="M85.5 8.0 Q85.8 8.9 85.35 10.2 84.8 11.5 83.8 12.4 82.75 13.3 81.7 13.3 80.65 13.3 80.25 12.4 79.9 11.5 80.4 10.2 80.9 8.9 81.95 8.0 83.0 7.1 84.05 7.1 85.1 7.1 85.5 8.0 M79.3 8.0 Q79.65 8.9 79.15 10.2 78.65 11.5 77.6 12.4 76.55 13.3 75.5 13.3 74.45 13.3 74.1 12.4 73.7 11.5 74.25 10.2 74.7 8.9 75.8 8.0 76.85 7.1 77.9 7.1 78.95 7.1 79.3 8.0 M71.4 43.2 L70.7 44.85 43.6 44.85 41.95 43.2 33.9 43.2 32.9 40.7 31.85 38.3 63.5 38.3 64.35 36.15 65.15 34.05 65.9 32.1 66.85 29.7 67.45 28.2 74.35 28.2 77.2 28.2 71.4 43.2 41.95 43.2 M64.35 36.15 L68.1 36.15 M66.85 29.7 L69.8 29.7 M65.15 34.05 L68.25 34.05 M63.5 38.3 L68.25 38.3 M32.9 40.7 L69.45 40.7 74.35 28.2 M65.9 32.1 L71.45 32.1 M23.4 9.85 L25.8 9.85 21.45 14.7 19.05 14.7 16.7 14.7 14.35 14.7 12.0 14.7 9.65 14.7 14.0 9.85 16.35 9.85 18.7 9.85 21.05 9.85 23.4 9.85 19.05 14.7 M16.35 9.85 L12.0 14.7 M18.7 9.85 L14.35 14.7 M15.65 26.45 L18.0 26.45 20.35 26.45 22.7 26.45 24.95 26.45 22.5 31.05 20.3 31.05 17.9 31.05 15.6 31.05 13.2 31.05 10.9 31.05 8.5 31.05 6.15 31.05 3.8 31.05 6.2 26.45 8.6 26.45 10.95 26.45 13.3 26.45 15.65 26.45 13.2 31.05 M13.3 26.45 L10.9 31.05 M18.0 26.45 L15.6 31.05 M6.15 31.05 L8.6 26.45 M8.5 31.05 L10.95 26.45 M20.3 31.05 L22.7 26.45 M20.35 26.45 L17.9 31.05 M16.7 14.7 L21.05 9.85" fill="none" stroke="#000000" stroke-width="0.7" stroke-opacity="0.4"/>
    </g>
    <radialGradient cx="0" cy="0" gradientTransform="matrix(0.0045, 0.0, 0.0, 0.0045, 82.85, 10.2)" gradientUnits="userSpaceOnUse" id="gradient33" r="819.2" spreadMethod="pad">
      <stop offset="0.0" stop-color="#00ccff"/>
      <stop offset="1.0" stop-color="#003399"/>
    </radialGradient>
    <radialGradient cx="0" cy="0" gradientTransform="matrix(0.0045, 0.0, 0.0, 0.0045, 76.65, 10.2)" gradientUnits="userSpaceOnUse" id="gradient34" r="819.2" spreadMethod="pad">
      <stop offset="0.0" stop-color="#00ccff"/>
      <stop offset="1.0" stop-color="#003399"/>
    </radialGradient>
    <radialGradient cx="0" cy="0" fx="6.4" fy="0" gradientTransform="matrix(0.0424, 0.0, 0.0, 0.0424, 67.65, 41.2)" gradientUnits="userSpaceOnUse" id="gradient35" r="819.2" spreadMethod="pad">
      <stop offset="0.0" stop-color="#00ccff"/>
      <stop offset="1.0" stop-color="#003399"/>
    </radialGradient>
    <radialGradient cx="0" cy="0" fx="6.4" fy="0" gradientTransform="matrix(0.0434, 0.0, 0.0, 0.0434, 67.4, 39.1)" gradientUnits="userSpaceOnUse" id="gradient36" r="819.2" spreadMethod="pad">
      <stop offset="0.0" stop-color="#00ccff"/>
      <stop offset="1.0" stop-color="#003399"/>
    </radialGradient>
    <linearGradient gradientTransform="matrix(0.0, -0.003, 0.0029, 0.0, 15.3, 12.25)" gradientUnits="userSpaceOnUse" id="gradient37" spreadMethod="pad" x1="-819.2" x2="819.2">
      <stop offset="0.0" stop-color="#00ccff"/>
      <stop offset="1.0" stop-color="#003399"/>
    </linearGradient>
    <linearGradient gradientTransform="matrix(0.0, 0.0028, -0.0029, 0.0, 15.6, 28.7)" gradientUnits="userSpaceOnUse" id="gradient38" spreadMethod="pad" x1="-819.2" x2="819.2">
      <stop offset="0.0" stop-color="#00ccff"/>
      <stop offset="1.0" stop-color="#003399"/>
    </linearGradient>
    <linearGradient gradientTransform="matrix(0.0, 0.0028, -0.0029, 0.0, 10.9, 28.7)" gradientUnits="userSpaceOnUse" id="gradient39" spreadMethod="pad" x1="-819.2" x2="819.2">
      <stop offset="0.0" stop-color="#00ccff"/>
      <stop offset="1.0" stop-color="#003399"/>
    </linearGradient>
    <linearGradient gradientTransform="matrix(0.0, 0.0028, -0.0029, 0.0, 13.25, 28.7)" gradientUnits="userSpaceOnUse" id="gradient40" spreadMethod="pad" x1="-819.2" x2="819.2">
      <stop offset="0.0" stop-color="#00ccff"/>
      <stop offset="1.0" stop-color="#003399"/>
    </linearGradient>
    <linearGradient gradientTransform="matrix(0.0, 0.0028, -0.0029, 0.0, 17.95, 28.7)" gradientUnits="userSpaceOnUse" id="gradient41" spreadMethod="pad" x1="-819.2" x2="819.2">
      <stop offset="0.0" stop-color="#00ccff"/>
      <stop offset="1.0" stop-color="#003399"/>
    </linearGradient>
    <linearGradient gradientTransform="matrix(0.0, 0.0028, -0.0029, 0.0, 6.2, 28.7)" gradientUnits="userSpaceOnUse" id="gradient42" spreadMethod="pad" x1="-819.2" x2="819.2">
      <stop offset="0.0" stop-color="#00ccff"/>
      <stop offset="1.0" stop-color="#003399"/>
    </linearGradient>
    <linearGradient gradientTransform="matrix(0.0, 0.0028, -0.0029, 0.0, 8.5, 28.7)" gradientUnits="userSpaceOnUse" id="gradient43" spreadMethod="pad" x1="-819.2" x2="819.2">
      <stop offset="0.0" stop-color="#00ccff"/>
      <stop offset="1.0" stop-color="#003399"/>
    </linearGradient>
    <linearGradient gradientTransform="matrix(0.0, 0.0028, -0.0029, 0.0, 20.3, 28.7)" gradientUnits="userSpaceOnUse" id="gradient44" spreadMethod="pad" x1="-819.2" x2="819.2">
      <stop offset="0.0" stop-color="#00ccff"/>
      <stop offset="1.0" stop-color="#003399"/>
    </linearGradient>
    <linearGradient gradientTransform="matrix(0.0, 0.0028, -0.0028, 0.0, 22.6, 28.7)" gradientUnits="userSpaceOnUse" id="gradient45" spreadMethod="pad" x1="-819.2" x2="819.2">
      <stop offset="0.0" stop-color="#00ccff"/>
      <stop offset="1.0" stop-color="#003399"/>
    </linearGradient>
  </defs>
</svg>
