<?xml version="1.0" encoding="UTF-8" standalone="no"?>
<svg xmlns:xlink="http://www.w3.org/1999/xlink" height="152.8px" width="310.55px" xmlns="http://www.w3.org/2000/svg">
  <g transform="matrix(1.0, 0.0, 0.0, 1.0, 0.05, 0.05)">
    <path d="M204.05 130.2 L203.4 132.0 Q202.95 133.6 202.95 135.45 202.95 138.9 204.75 141.7 L204.95 142.1 205.7 143.1 Q208.4 146.2 212.35 146.2 L214.6 146.0 Q216.1 145.55 217.35 144.6 L218.95 143.1 219.55 142.4 219.9 141.7 221.1 139.5 221.75 136.2 221.75 135.45 221.45 133.0 221.35 132.0 220.75 130.2 224.35 130.2 223.75 132.0 Q223.25 133.6 223.25 135.45 223.25 138.9 225.1 141.7 L225.25 142.1 226.05 143.1 Q228.7 146.2 232.7 146.2 L234.95 146.0 Q236.45 145.55 237.65 144.6 L239.25 143.1 239.9 142.4 240.3 141.7 241.45 139.5 242.05 136.2 242.05 135.45 241.85 133.0 241.6 132.0 241.45 131.45 244.5 128.35 241.45 131.45 240.95 130.05 240.8 130.0 239.25 127.8 239.05 127.35 238.75 127.1 243.45 123.5 243.45 124.0 Q243.45 126.4 244.5 128.35 L245.8 130.3 Q247.95 132.8 251.2 132.8 L253.05 132.65 Q254.25 132.3 255.35 131.45 L256.6 130.3 257.1 129.7 258.3 127.35 Q258.75 126.1 258.8 124.6 L258.8 124.0 258.75 122.0 258.5 121.2 257.9 119.6 257.85 119.5 256.6 117.75 256.45 117.4 Q255.25 116.2 253.95 115.6 L257.2 113.15 258.15 115.85 258.3 116.5 258.5 116.95 258.95 118.8 259.25 120.85 259.4 121.05 259.45 124.0 259.4 124.85 259.4 125.35 259.25 125.95 258.95 127.4 258.75 128.0 258.5 128.9 258.45 129.1 257.4 130.9 255.95 133.25 253.95 135.95 252.55 137.8 249.45 141.0 Q249.15 141.05 249.05 141.3 L244.8 144.45 Q242.45 145.85 240.0 146.8 L237.8 147.5 236.9 147.6 235.25 147.6 229.75 147.6 223.1 147.6 216.4 147.6 202.95 147.6 196.25 147.6 189.55 147.6 182.8 147.6 176.2 147.6 171.4 147.6 170.8 147.6 Q168.6 147.7 166.75 146.95 165.2 146.1 163.85 144.75 L163.55 144.4 163.35 144.15 162.6 143.1 162.3 142.6 160.9 140.1 160.6 139.45 158.9 134.55 156.75 128.75 156.55 127.85 158.05 127.85 164.95 127.85 Q162.4 130.9 162.4 135.45 162.4 138.9 164.15 141.7 L164.3 142.1 165.1 143.1 Q167.75 146.2 171.75 146.2 L174.05 146.0 Q175.5 145.55 176.75 144.6 L178.3 143.1 179.0 142.4 179.35 141.7 180.55 139.5 181.1 136.2 181.1 135.45 180.9 133.0 180.7 132.0 180.55 131.3 180.0 130.05 179.85 130.0 Q179.35 128.8 178.45 127.85 L182.3 127.85 184.3 129.25 Q183.5 130.6 183.1 132.0 L180.95 132.0 180.55 131.3 180.95 132.0 183.1 132.0 Q182.65 133.6 182.65 135.45 182.65 138.9 184.45 141.7 L184.65 142.1 185.4 143.1 Q188.15 146.2 192.1 146.2 L194.4 146.0 Q195.85 145.55 197.05 144.6 L198.7 143.1 199.25 142.4 199.7 141.7 200.8 139.5 201.5 136.2 201.5 135.45 201.2 133.0 201.05 132.0 200.45 130.2 204.05 130.2 M214.9 133.0 L215.4 134.2 215.55 135.6 215.55 135.95 Q215.55 136.95 215.2 137.65 215.05 138.4 214.55 138.9 L214.3 139.2 213.05 140.05 211.65 140.3 Q209.9 140.3 208.7 138.9 207.45 137.5 207.45 135.6 207.45 134.05 208.1 133.0 L208.7 132.15 208.85 132.0 Q210.05 130.8 211.5 130.8 212.75 130.8 213.65 131.55 L214.25 132.0 214.55 132.15 214.85 132.8 214.9 133.0 M213.35 134.35 L213.3 134.2 213.15 133.9 212.7 133.6 Q212.25 133.15 211.6 133.15 210.8 133.15 210.1 133.9 209.9 134.05 209.8 134.35 209.5 134.95 209.5 135.65 209.5 136.7 210.1 137.45 210.8 138.1 211.65 138.1 L212.4 137.9 213.05 137.5 213.15 137.45 213.5 136.7 213.75 135.8 213.75 135.65 213.65 134.95 213.35 134.35 M221.35 132.0 L223.75 132.0 221.35 132.0 M235.25 133.0 L235.7 134.2 235.95 135.6 235.95 135.95 Q235.95 136.95 235.55 137.65 L234.85 138.9 234.7 139.2 233.35 140.05 231.95 140.3 Q230.25 140.3 229.0 138.9 227.8 137.5 227.8 135.6 227.8 134.05 228.5 133.0 L229.0 132.15 229.2 132.0 Q230.4 130.8 231.9 130.8 233.15 130.8 234.0 131.55 L234.6 132.0 234.85 132.15 Q235.1 132.3 235.2 132.8 L235.25 133.0 M233.7 134.35 L233.65 134.2 233.45 133.9 233.05 133.6 Q232.6 133.15 231.9 133.15 231.15 133.15 230.45 133.9 230.25 134.05 230.2 134.35 229.9 134.95 229.9 135.65 229.9 136.7 230.45 137.45 231.15 138.1 231.95 138.1 L232.75 137.9 233.35 137.5 233.45 137.45 233.8 136.7 234.1 135.8 234.1 135.65 233.95 134.95 233.7 134.35 M174.35 133.0 L174.85 134.2 175.0 135.6 175.0 135.95 Q175.0 136.95 174.65 137.65 L173.9 138.9 173.75 139.2 172.4 140.05 171.0 140.3 Q169.3 140.3 168.15 138.9 166.9 137.5 166.9 135.6 166.9 134.05 167.55 133.0 L168.15 132.15 Q169.3 130.8 170.95 130.8 172.2 130.8 173.1 131.55 L173.9 132.15 174.25 132.8 174.35 133.0 M172.8 134.35 L172.7 134.2 172.5 133.9 172.1 133.6 Q171.7 133.15 171.0 133.15 170.2 133.15 169.55 133.9 L169.25 134.35 Q168.95 134.95 168.95 135.65 168.95 136.7 169.55 137.45 170.2 138.1 171.0 138.1 L171.8 137.9 172.4 137.5 172.5 137.45 172.95 136.7 173.15 135.8 173.15 135.65 173.0 134.95 172.8 134.35 M190.7 130.9 L191.25 130.8 Q192.55 130.8 193.45 131.55 L194.05 132.0 194.25 132.15 194.55 132.8 194.6 133.0 195.15 134.2 195.35 135.6 195.35 135.95 Q195.35 136.95 195.0 137.65 L194.25 138.9 194.05 139.2 192.8 140.05 191.35 140.3 Q189.7 140.3 188.4 138.9 187.25 137.5 187.25 135.6 187.25 134.05 187.85 133.0 L188.4 132.15 188.65 132.0 Q189.6 131.05 190.7 130.9 M193.05 134.35 L193.05 134.2 192.85 133.9 192.5 133.6 Q192.05 133.15 191.3 133.15 190.55 133.15 189.8 133.9 L189.6 134.35 Q189.25 134.95 189.25 135.65 189.25 136.7 189.8 137.45 190.55 138.1 191.35 138.1 L192.1 137.9 192.8 137.5 192.85 137.45 193.2 136.7 193.5 135.8 193.5 135.65 193.35 134.95 193.05 134.35 M203.4 132.0 L201.05 132.0 203.4 132.0 M292.1 108.4 L290.4 106.55 289.55 105.8 286.45 103.2 Q284.55 101.9 282.35 100.7 L278.7 99.0 299.0 99.0 292.1 108.4 M90.65 55.4 L90.65 39.15 95.6 36.3 Q99.1 36.65 98.25 40.2 L95.4 42.0 95.4 58.0 98.25 59.7 Q99.1 63.15 95.7 63.5 L95.6 63.5 90.65 60.65 90.65 55.4 M116.35 62.8 L112.75 60.65 112.75 39.15 117.65 36.3 Q121.15 36.65 120.35 40.2 L117.45 42.0 117.45 58.0 119.45 59.15 117.5 61.15 116.35 62.8 M101.75 60.65 L101.75 39.15 106.7 36.3 Q110.15 36.65 109.35 40.2 L106.45 42.0 106.45 58.0 109.35 59.7 Q110.15 63.15 106.7 63.5 L101.75 60.65 M154.35 111.7 L154.35 111.6 154.4 111.6 154.35 111.7 M129.6 118.35 L129.75 118.7 130.75 120.5 116.5 120.5 117.15 118.8 117.45 117.45 125.5 117.45 128.65 114.85 128.9 116.05 129.6 118.35" fill="#333333" fill-rule="evenodd" stroke="none"/>
    <path d="M245.45 122.0 L246.8 121.15 249.95 118.65 Q251.65 118.65 253.0 120.05 L253.1 120.2 253.95 121.35 254.45 122.85 254.45 124.0 254.45 124.45 254.15 126.1 253.5 127.5 253.1 127.95 252.3 128.65 251.0 129.25 249.8 129.4 Q247.8 129.4 246.4 127.95 245.1 126.25 245.1 124.0 245.1 122.9 245.45 122.1 L246.8 121.15 245.45 122.1 245.45 122.0" fill="#878787" fill-rule="evenodd" stroke="none"/>
    <path d="M171.4 147.6 L176.2 147.6 182.8 147.6 189.55 147.6 196.25 147.6 202.95 147.6 216.4 147.6 223.1 147.6 229.75 147.6 235.25 147.6 236.9 147.6 237.8 147.5 240.0 146.8 Q242.45 145.85 244.8 144.45 L249.05 141.3 Q249.15 141.05 249.45 141.0 L252.55 137.8 253.95 135.95 255.95 133.25 257.4 130.9 258.45 129.1 258.5 128.9 258.75 128.0 258.95 127.4 259.25 125.95 259.4 125.35 259.4 124.85 259.45 124.0 259.4 121.05 259.25 120.85 258.95 118.8 258.5 116.95 258.3 116.5 258.15 115.85 257.2 113.15 260.95 110.3 261.15 110.15 261.45 110.75 262.2 112.6 263.3 115.85 263.55 116.5 264.05 118.8 264.25 120.85 264.5 124.85 264.4 125.95 264.05 128.0 263.55 130.2 263.1 130.9 260.05 135.95 255.95 133.25 260.05 135.95 256.2 141.0 252.0 145.1 249.05 141.3 252.0 145.1 Q249.65 147.05 247.35 148.5 245.3 149.75 243.15 150.6 L242.05 151.0 Q239.4 152.0 236.5 152.4 L233.45 152.7 229.75 152.7 223.1 152.7 216.4 152.7 202.95 152.7 196.25 152.7 189.55 152.7 182.8 152.7 176.2 152.7 170.7 152.7 171.4 147.6 170.7 152.7 168.6 152.7 Q166.45 152.2 164.75 151.3 L163.55 150.65 162.8 150.2 Q161.15 149.05 159.7 147.5 158.05 145.55 156.9 143.1 L156.65 142.6 156.65 142.45 156.55 142.25 154.5 136.35 152.4 130.45 151.55 127.85 152.25 127.85 156.55 127.85 156.75 128.75 158.9 134.55 160.6 139.45 160.9 140.1 162.3 142.6 162.6 143.1 163.35 144.15 163.55 144.4 163.85 144.75 Q165.2 146.1 166.75 146.95 168.6 147.7 170.8 147.6 L171.4 147.6 M176.2 147.6 L176.2 152.7 176.2 147.6 M235.25 147.6 L236.5 152.4 235.25 147.6 M240.0 146.8 L242.05 151.0 240.0 146.8 M164.75 151.3 L166.75 146.95 164.75 151.3 M189.55 147.6 L189.55 152.7 189.55 147.6 M182.8 147.6 L182.8 152.7 182.8 147.6 M202.95 152.7 L202.95 147.6 202.95 152.7 M196.25 147.6 L196.25 152.7 196.25 147.6 M223.1 152.7 L223.1 147.6 223.1 152.7 M216.4 152.7 L216.4 147.6 216.4 152.7 M229.75 147.6 L229.75 152.7 229.75 147.6 M258.5 116.95 L263.3 115.85 258.5 116.95 M258.45 129.1 L263.1 130.9 258.45 129.1 M256.2 141.0 L252.55 137.8 256.2 141.0 M259.4 125.35 L264.4 125.95 259.4 125.35 M259.4 121.05 L264.25 120.85 259.4 121.05 M244.8 144.45 L247.35 148.5 244.8 144.45 M158.9 134.55 L154.5 136.35 158.9 134.55 M160.9 140.1 L156.65 142.45 160.9 140.1 M152.4 130.45 L156.75 128.75 152.4 130.45 M159.7 147.5 L163.35 144.15 159.7 147.5" fill="#484848" fill-rule="evenodd" stroke="none"/>
    <path d="M264.8 82.5 L265.8 92.6 261.9 97.9 237.2 82.5 247.35 71.2 237.2 82.5 261.9 97.9 257.9 103.15 232.55 87.5 237.2 82.5 214.1 79.85 193.0 66.6 214.1 79.85 237.2 82.5 232.55 87.5 257.9 103.15 252.75 110.05 243.75 117.0 223.25 117.25 219.05 117.25 213.9 117.3 214.25 102.05 209.75 104.3 209.35 117.4 209.75 104.3 214.25 102.05 213.9 117.3 209.35 117.4 207.95 117.45 Q209.1 114.35 209.1 110.9 L209.1 110.35 Q209.1 102.9 205.1 97.9 L205.0 97.55 Q200.8 92.6 194.9 92.3 L194.05 92.3 168.15 92.3 167.9 91.55 168.15 92.3 157.6 92.3 145.85 92.3 143.7 91.55 143.95 91.55 157.2 91.55 157.35 91.5 157.6 91.55 167.9 91.55 178.7 91.55 179.0 91.55 179.7 91.55 Q185.75 91.55 190.1 86.55 192.1 83.95 193.05 81.15 194.1 78.3 194.2 74.95 L194.2 74.6 194.2 74.05 Q194.2 69.95 193.0 66.6 192.05 63.9 190.2 61.6 L190.1 61.15 Q188.3 59.1 186.3 57.85 L189.25 54.95 186.3 57.85 Q183.4 56.15 180.0 56.0 L179.15 56.0 151.4 56.0 147.9 56.0 142.7 56.0 129.9 56.0 132.8 42.0 152.25 51.95 147.9 56.0 152.25 51.95 189.15 54.95 189.25 54.95 247.35 71.2 264.8 82.5 M139.45 75.4 L139.45 75.3 139.5 75.3 139.45 75.4 M194.2 74.95 L209.25 85.45 232.55 87.5 223.75 97.15 219.05 100.65 219.05 117.25 219.05 100.65 223.75 97.15 232.55 87.5 209.25 85.45 194.2 74.95 M223.75 97.15 L223.25 117.25 223.75 97.15 M28.9 71.2 L3.3 48.1 0.0 32.75 11.75 42.25 13.55 51.4 30.1 66.9 28.9 71.2 M130.35 100.55 L116.25 111.45 98.95 101.65 114.55 90.1 121.6 90.1 Q123.35 91.1 125.25 91.5 L126.65 91.55 130.05 91.55 130.65 100.05 130.35 100.55 M118.7 87.8 L113.4 87.8 96.8 100.5 82.25 92.35 71.25 64.2 67.95 55.7 64.55 47.05 83.3 57.6 88.75 67.35 94.2 77.15 96.15 80.7 114.3 80.7 114.7 82.05 114.85 82.35 Q115.85 84.45 117.5 86.55 L118.7 87.8 M88.75 67.35 L67.95 55.7 88.75 67.35 M94.2 77.15 L71.25 64.2 94.2 77.15" fill="#666666" fill-rule="evenodd" stroke="none"/>
    <path d="M0.0 32.75 L0.0 21.15 16.1 34.75 17.95 43.9 33.35 58.45 33.05 59.0 Q31.45 62.85 30.1 66.9 L13.55 51.4 11.75 42.25 0.0 32.75" fill="#4c4c4c" fill-rule="evenodd" stroke="none"/>
    <path d="M132.8 42.0 L129.9 56.0 127.65 56.0 125.2 56.3 124.1 56.6 126.15 46.4 132.8 42.0 126.15 46.4 124.1 56.6 Q122.7 56.95 121.6 57.6 L119.45 59.15 117.45 58.0 117.45 42.0 120.35 40.2 Q121.15 36.65 117.65 36.3 L112.75 39.15 112.75 60.65 116.35 62.8 115.0 65.0 Q114.55 65.95 114.2 67.45 113.6 69.2 113.4 71.2 L101.15 72.65 95.7 63.5 101.15 72.65 113.4 71.2 Q113.25 72.5 113.25 74.05 L113.55 73.8 Q113.25 75.05 113.45 76.0 113.55 78.0 114.0 79.75 L114.3 80.7 96.15 80.7 94.2 77.15 88.75 67.35 83.3 57.6 64.55 47.05 67.95 55.7 71.25 64.2 82.25 92.35 96.8 100.5 113.4 87.8 118.7 87.8 Q120.1 89.2 121.6 90.1 L114.55 90.1 98.95 101.65 116.25 111.45 130.35 100.55 129.9 101.35 129.1 103.8 Q128.35 105.85 128.2 108.45 L116.55 117.45 111.05 114.35 103.3 110.05 99.5 107.95 91.55 103.5 89.1 102.2 83.35 98.95 80.05 97.1 79.7 96.15 79.7 96.05 79.45 95.55 76.5 87.7 74.5 82.55 74.6 82.55 73.9 81.1 71.4 74.5 67.6 64.5 66.4 61.45 62.7 51.7 60.8 46.7 59.9 44.35 51.35 40.05 48.2 38.5 30.15 29.6 34.8 23.1 30.15 29.6 48.2 38.5 46.5 39.9 Q43.45 42.85 40.6 46.4 L38.15 50.1 36.75 52.0 Q35.05 54.95 33.5 58.05 L33.35 58.45 17.95 43.9 16.1 34.75 0.0 21.15 0.0 7.65 34.8 23.1 38.35 18.0 80.2 38.05 90.65 55.4 80.2 38.05 38.35 18.0 41.0 14.4 43.75 10.5 51.15 0.0 95.75 5.45 118.95 18.9 114.35 22.15 126.15 46.4 114.35 22.15 118.95 18.9 132.8 42.0 M207.95 117.45 L209.35 117.4 213.9 117.3 219.05 117.25 223.25 117.25 243.75 117.0 232.4 125.65 226.25 130.2 224.35 130.2 220.75 130.2 214.15 130.2 207.1 130.2 204.05 130.2 200.45 130.2 193.95 130.2 190.7 130.2 186.8 130.2 185.6 130.2 184.3 129.25 182.3 127.85 193.6 127.85 193.9 127.85 194.6 127.85 Q198.7 127.85 201.9 125.65 203.55 124.45 205.0 122.85 207.0 120.25 207.95 117.45 M143.7 91.55 L145.85 92.3 143.5 92.3 143.35 91.55 143.5 92.3 142.55 92.3 140.1 92.6 Q138.05 93.05 136.5 93.9 L134.25 95.55 134.05 91.55 134.25 95.55 132.45 97.55 Q131.4 98.7 130.65 100.05 L130.05 91.55 134.05 91.55 134.9 91.55 135.3 91.55 136.4 91.55 137.35 91.55 143.35 91.55 143.65 91.55 143.7 91.55 M232.4 125.65 L201.9 125.65 232.4 125.65 M95.7 63.5 Q99.1 63.15 98.25 59.7 L95.4 58.0 95.4 42.0 98.25 40.2 Q99.1 36.65 95.6 36.3 L90.65 39.15 90.65 55.4 90.65 60.65 95.6 63.5 95.7 63.5 M101.75 60.65 L106.7 63.5 Q110.15 63.15 109.35 59.7 L106.45 58.0 106.45 42.0 109.35 40.2 Q110.15 36.65 106.7 36.3 L101.75 39.15 101.75 60.65 M114.35 22.15 L91.25 8.4 73.4 29.45 41.0 14.4 73.4 29.45 91.25 8.4 114.35 22.15 M54.2 3.6 L79.0 7.45 70.75 17.5 49.65 8.95 54.2 3.6 49.65 8.95 70.75 17.5 79.0 7.45 54.2 3.6" fill="#5e5e5e" fill-rule="evenodd" stroke="none"/>
    <path d="M249.75 48.25 L248.6 46.35 243.4 46.7 232.55 47.2 229.75 58.8 231.65 58.75 230.45 61.0 224.55 61.3 230.45 61.0 229.2 63.15 246.8 68.1 250.75 51.95 273.25 50.6 250.75 51.95 236.95 49.15 244.55 48.6 249.75 48.25 253.5 48.05 249.75 48.25 M251.05 43.9 L253.5 48.05 260.0 47.6 273.25 50.6 281.75 64.65 282.65 66.2 246.8 68.1 282.65 66.2 281.75 64.65 295.55 68.7 308.6 80.4 310.45 92.6 265.8 92.6 264.8 82.5 308.6 80.4 264.8 82.5 247.35 71.2 295.55 68.7 247.35 71.2 189.25 54.95 199.35 54.35 189.25 54.95 189.15 54.95 152.25 51.95 183.75 50.0 152.25 51.95 132.8 42.0 142.75 42.0 138.4 35.65 142.75 42.0 176.85 42.0 172.1 35.65 159.65 18.9 143.7 9.35 143.7 9.3 137.35 5.45 143.7 9.3 113.0 9.3 117.75 12.55 121.15 15.0 125.55 18.0 126.75 18.9 128.15 20.9 130.5 24.25 132.65 27.45 134.8 30.45 136.95 33.5 138.4 35.65 167.4 35.65 172.1 35.65 176.85 42.0 142.75 42.0 132.8 42.0 118.95 18.9 95.75 5.45 107.55 5.45 113.0 9.3 107.55 5.45 137.35 5.45 145.8 5.45 166.45 18.9 186.05 42.0 187.3 42.35 183.1 49.8 183.75 50.0 199.35 54.35 200.75 54.75 204.65 38.6 227.15 37.25 204.65 38.6 190.85 35.7 213.9 34.25 227.15 37.25 229.6 41.4 225.85 41.6 229.6 41.4 237.7 40.8 251.05 43.9 228.55 45.15 251.05 43.9 M224.55 61.3 L228.55 45.15 214.7 42.35 220.65 42.0 225.85 41.6 224.7 39.75 219.55 40.05 208.7 40.65 205.9 52.25 209.35 52.1 208.1 54.35 200.75 54.75 208.1 54.35 206.95 56.35 224.55 61.3 M272.15 64.55 L277.55 64.25 270.85 53.1 265.65 53.5 254.8 54.0 252.0 65.6 272.15 64.55 M186.05 42.0 L176.85 42.0 186.05 42.0 M0.0 7.65 L43.75 10.5 41.0 14.4 38.35 18.0 34.8 23.1 0.0 7.65 M166.45 18.9 L159.65 18.9 166.45 18.9 M126.75 18.9 L118.95 18.9 126.75 18.9" fill="#cccccc" fill-rule="evenodd" stroke="none"/>
    <path d="M144.6 127.85 L144.45 128.0 143.7 129.2 111.9 129.2 112.6 128.0 116.5 120.5 130.75 120.5 132.45 122.85 Q135.8 126.9 140.15 127.85 L141.6 127.85 144.6 127.85" fill="#373737" fill-rule="evenodd" stroke="none"/>
    <path d="M62.7 51.7 L66.4 61.45 67.6 64.5 65.05 65.0 63.25 65.6 Q60.2 66.9 57.55 69.65 56.6 70.4 55.85 71.5 L55.2 72.15 53.85 74.05 53.5 74.6 Q49.15 81.75 49.15 91.35 L49.2 92.75 Q49.45 99.1 51.7 104.4 52.45 106.25 53.5 108.1 L55.2 110.5 56.5 112.2 57.55 113.15 Q60.2 115.85 63.25 117.1 66.4 118.4 70.0 118.4 L70.95 118.4 Q75.3 118.2 79.0 115.85 82.05 113.85 84.6 110.5 86.85 107.65 88.25 104.4 L88.6 103.35 89.1 102.2 91.55 103.5 99.5 107.95 98.7 109.55 98.1 111.25 Q96.0 116.2 92.75 120.55 L89.95 123.8 88.4 125.25 82.25 117.4 82.2 117.45 80.25 118.85 Q76.05 121.5 71.2 121.75 L70.15 121.75 Q66.05 121.75 62.55 120.2 L60.95 119.45 55.75 127.95 53.85 126.45 51.55 124.45 50.1 123.05 48.05 120.55 45.5 116.8 Q43.8 114.05 42.8 111.25 39.25 103.2 39.05 93.55 38.9 92.6 38.9 91.5 38.9 87.85 39.05 86.85 L39.4 84.1 47.2 85.15 Q48.25 78.3 51.65 72.65 L52.0 72.0 53.5 69.85 54.2 69.15 Q55.1 67.85 56.15 67.05 L59.0 64.55 54.0 56.35 55.85 54.9 Q57.9 53.4 60.2 52.45 L62.7 51.7 M66.4 61.45 L64.65 61.8 Q63.5 62.1 62.55 62.55 L60.65 63.5 55.85 54.9 60.65 63.5 62.55 62.55 Q63.5 62.1 64.65 61.8 L66.4 61.45 M47.2 85.15 L47.0 87.5 39.05 86.85 47.0 87.5 47.2 85.15 M60.65 63.5 L59.0 64.55 60.65 63.5 M47.0 87.5 Q46.75 89.4 46.75 91.4 L46.85 92.9 Q47.05 100.05 49.65 106.0 50.45 108.15 51.65 110.05 L53.5 112.95 54.95 114.8 56.15 115.85 58.95 118.2 53.85 126.45 58.95 118.2 56.15 115.85 54.95 114.8 53.5 112.95 51.65 110.05 Q50.45 108.15 49.65 106.0 47.05 100.05 46.85 92.9 L46.75 91.4 Q46.75 89.4 47.0 87.5 M82.25 117.4 L83.8 116.0 89.95 123.8 83.8 116.0 82.25 117.4 M58.95 118.2 L60.95 119.45 58.95 118.2 M83.8 116.0 L86.55 112.95 Q88.95 109.7 90.5 106.0 L90.95 104.75 91.55 103.5 90.95 104.75 90.5 106.0 Q88.95 109.7 86.55 112.95 L83.8 116.0" fill="#363636" fill-rule="evenodd" stroke="none"/>
    <path d="M71.4 74.5 L73.9 81.1 74.6 82.55 74.5 82.55 74.0 82.4 72.75 82.25 70.75 82.65 Q70.0 82.85 69.35 83.3 L59.75 87.7 Q60.35 83.65 62.55 80.4 L63.25 79.25 Q65.75 76.0 68.9 75.05 69.85 74.65 70.95 74.5 L71.4 74.5 M79.7 96.05 L79.7 96.15 80.05 97.1 83.35 98.95 82.8 100.1 81.25 102.55 79.6 104.4 79.0 104.85 Q76.0 107.4 72.15 107.4 L70.95 107.35 Q67.6 106.9 65.0 104.4 L63.25 102.55 Q62.05 100.85 61.1 98.85 60.2 96.8 59.85 94.5 L69.8 99.95 70.0 100.05 71.7 100.65 71.75 100.65 72.45 100.8 73.1 100.8 Q75.3 100.8 76.95 99.4 L77.3 99.1 78.3 98.05 79.7 96.05 M73.9 81.1 L74.5 82.55 73.9 81.1" fill="#535353" fill-rule="evenodd" stroke="none"/>
    <path d="M143.7 129.2 L140.05 134.4 137.45 137.6 105.55 137.6 108.15 134.4 111.9 129.2 143.7 129.2" fill="#434343" fill-rule="evenodd" stroke="none"/>
    <path d="M265.8 92.6 L310.45 92.6 294.75 113.7 293.65 110.75 293.25 110.05 292.1 108.4 299.0 99.0 278.7 99.0 269.05 99.0 265.95 103.2 263.55 106.55 260.95 110.0 260.8 110.05 260.95 110.3 257.2 113.15 253.95 115.6 249.95 118.65 246.8 121.15 245.45 122.0 244.5 122.75 243.45 123.5 238.75 127.1 234.6 130.2 234.55 130.2 227.45 130.2 226.25 130.2 232.4 125.65 243.75 117.0 252.75 110.05 257.9 103.15 261.9 97.9 265.8 92.6 M252.75 110.05 L260.8 110.05 252.75 110.05 M116.55 117.45 L128.2 108.45 128.15 110.35 128.45 110.05 Q128.15 111.35 128.35 112.3 L128.65 114.85 125.5 117.45 117.45 117.45 116.55 117.45" fill="#7c7c7c" fill-rule="evenodd" stroke="none"/>
    <path d="M243.4 46.7 L248.6 46.35 249.75 48.25 244.55 48.6 243.4 46.7 M265.65 53.5 L270.85 53.1 277.55 64.25 272.15 64.55 265.65 53.5 M219.55 40.05 L224.7 39.75 225.85 41.6 220.65 42.0 219.55 40.05 M172.1 35.65 L167.4 35.65 165.7 33.35 163.55 30.45 161.35 27.45 159.0 24.25 156.4 20.8 159.65 18.9 156.4 20.8 152.35 18.0 147.9 15.0 144.25 12.55 143.7 9.35 144.25 12.55 117.75 12.55 113.0 9.3 143.7 9.3 143.7 9.35 159.65 18.9 172.1 35.65 M191.9 67.85 L192.5 69.7 192.9 73.65 192.5 77.7 191.3 80.8 191.0 81.1 Q189.6 83.8 187.3 84.2 L186.25 84.2 185.6 84.05 185.45 84.2 185.05 83.95 184.9 83.95 184.8 83.9 Q186.2 82.9 187.15 81.15 188.2 79.55 188.7 77.7 L189.15 73.65 188.7 69.7 Q188.2 67.8 187.15 66.2 186.15 64.35 184.9 63.65 L184.9 63.5 185.55 63.35 186.45 63.1 186.6 63.1 186.75 63.1 187.0 63.1 187.15 63.1 187.6 63.25 189.95 64.7 191.0 66.2 191.0 66.25 191.9 67.85 M206.2 103.05 L206.25 103.15 206.8 104.25 207.4 106.0 207.85 110.0 207.4 114.0 206.8 115.85 206.2 117.1 206.2 117.15 206.15 117.2 205.9 117.4 205.9 117.45 Q204.5 120.1 202.2 120.55 L202.05 120.55 201.2 120.55 200.5 120.35 200.35 120.5 199.95 120.25 199.8 120.25 199.7 120.2 Q201.1 119.2 202.05 117.5 L202.05 117.45 Q203.1 115.85 203.6 114.0 L204.05 110.0 203.6 106.0 Q203.1 104.1 202.05 102.45 201.05 100.65 199.8 99.95 L199.8 99.9 200.45 99.65 201.35 99.45 201.5 99.45 201.65 99.45 201.9 99.45 202.05 99.45 Q204.45 99.75 205.9 102.45 L205.9 102.55 206.2 103.05" fill="#aa5501" fill-rule="evenodd" stroke="none"/>
    <path d="M51.15 0.0 L95.45 0.0 145.8 5.45 137.35 5.45 107.55 5.45 95.75 5.45 51.15 0.0" fill="#e0e0e0" fill-rule="evenodd" stroke="none"/>
    <path d="M228.55 45.15 L224.55 61.3 206.95 56.35 208.1 54.35 209.35 52.1 214.7 42.35 228.55 45.15 M230.45 61.0 L231.65 58.75 236.95 49.15 250.75 51.95 246.8 68.1 229.2 63.15 230.45 61.0 M204.65 38.6 L200.75 54.75 199.35 54.35 183.75 50.0 183.1 49.8 187.3 42.35 190.85 35.7 204.65 38.6" fill="#8e8e8e" fill-rule="evenodd" stroke="none"/>
    <path d="M165.35 75.3 L165.55 77.25 Q165.85 79.55 166.65 81.75 167.75 84.4 169.55 86.55 173.35 91.35 178.7 91.55 L167.9 91.55 157.6 91.55 157.35 91.5 157.2 91.55 143.95 91.55 143.7 91.55 143.65 91.55 143.35 91.55 140.75 90.95 137.9 89.4 136.4 88.3 134.7 86.55 133.7 85.15 132.15 81.95 133.7 85.15 134.7 86.55 136.4 88.3 137.9 89.4 140.75 90.95 143.35 91.55 137.35 91.55 136.4 91.55 135.3 91.55 134.9 91.55 134.05 91.4 132.05 90.95 Q129.5 89.95 127.35 87.8 L126.15 86.55 Q124.6 84.6 123.7 82.5 L123.45 81.95 123.7 82.5 Q124.6 84.6 126.15 86.55 L127.35 87.8 Q129.5 89.95 132.05 90.95 L134.05 91.4 134.9 91.55 134.05 91.55 130.05 91.55 126.65 91.55 125.25 91.5 Q123.35 91.1 121.6 90.1 120.1 89.2 118.7 87.8 L117.5 86.55 Q115.85 84.45 114.85 82.35 L114.7 82.05 123.45 81.95 132.15 81.95 139.45 75.4 139.5 75.3 165.35 75.3 M180.25 111.6 Q180.45 114.95 181.55 118.1 182.65 120.7 184.45 122.85 L185.4 123.95 Q188.85 127.65 193.6 127.85 L182.3 127.85 178.45 127.85 172.5 127.85 172.1 127.85 164.95 127.85 158.05 127.85 156.55 127.85 152.25 127.85 151.55 127.85 151.3 127.85 150.2 127.85 149.7 127.85 144.6 127.85 141.6 127.85 140.15 127.85 Q135.8 126.9 132.45 122.85 L130.75 120.5 129.75 118.7 129.6 118.35 138.35 118.25 147.05 118.25 154.35 111.7 154.4 111.6 180.25 111.6 M147.05 118.25 L148.05 120.5 148.2 120.7 148.6 121.45 149.6 122.85 149.9 123.2 150.95 124.3 151.3 124.6 Q153.3 126.4 155.65 127.35 L156.4 127.55 158.05 127.85 156.4 127.55 155.65 127.35 Q153.3 126.4 151.3 124.6 L150.95 124.3 149.9 123.2 149.6 122.85 148.6 121.45 148.2 120.7 148.05 120.5 147.05 118.25 M149.7 127.85 L146.95 127.35 145.35 126.5 Q143.05 125.2 141.05 122.85 L139.45 120.5 138.6 118.8 138.35 118.25 138.6 118.8 139.45 120.5 141.05 122.85 Q143.05 125.2 145.35 126.5 L146.95 127.35 149.7 127.85" fill="#9f9f9f" fill-rule="evenodd" stroke="none"/>
    <path d="M231.65 58.75 L229.75 58.8 232.55 47.2 243.4 46.7 244.55 48.6 236.95 49.15 231.65 58.75" fill="url(#gradient0)" fill-rule="evenodd" stroke="none"/>
    <path d="M272.15 64.55 L252.0 65.6 254.8 54.0 265.65 53.5 272.15 64.55" fill="url(#gradient1)" fill-rule="evenodd" stroke="none"/>
    <path d="M209.35 52.1 L205.9 52.25 208.7 40.65 219.55 40.05 220.65 42.0 214.7 42.35 209.35 52.1" fill="url(#gradient2)" fill-rule="evenodd" stroke="none"/>
    <path d="M163.55 30.45 L165.7 33.35 136.95 33.5 134.8 30.45 163.55 30.45" fill="url(#gradient3)" fill-rule="evenodd" stroke="none"/>
    <path d="M167.4 35.65 L138.4 35.65 136.95 33.5 165.7 33.35 167.4 35.65" fill="url(#gradient4)" fill-rule="evenodd" stroke="none"/>
    <path d="M186.3 57.85 Q188.3 59.1 190.1 61.15 L190.2 61.6 Q192.05 63.9 193.0 66.6 194.2 69.95 194.2 74.05 L194.2 74.6 194.2 74.95 Q194.1 78.3 193.05 81.15 192.1 83.95 190.1 86.55 185.75 91.55 179.7 91.55 L179.0 91.55 178.7 91.55 Q173.35 91.35 169.55 86.55 167.75 84.4 166.65 81.75 165.85 79.55 165.55 77.25 L165.35 75.3 165.25 74.05 Q165.25 71.1 165.75 68.85 166.05 67.35 166.65 65.95 167.75 63.35 169.55 61.15 173.6 56.35 179.15 56.0 L180.0 56.0 Q183.4 56.15 186.3 57.85 M191.9 67.85 L191.0 66.2 189.95 64.7 187.6 63.25 187.15 63.1 187.0 63.1 186.75 63.1 186.6 63.1 186.45 63.1 185.55 63.35 184.9 63.5 184.9 63.65 Q183.4 64.25 182.15 66.25 L182.0 66.45 Q181.2 67.95 180.8 69.65 L180.4 73.65 180.8 77.75 181.05 78.65 182.15 81.15 183.05 82.35 183.85 83.2 184.75 83.9 184.8 83.9 184.9 83.95 185.05 83.95 185.45 84.2 186.25 84.2 187.3 84.2 Q189.6 83.9 191.0 81.15 L191.3 80.8 192.5 77.7 192.9 73.65 192.5 69.7 191.9 67.85" fill="url(#gradient5)" fill-rule="evenodd" stroke="none"/>
    <path d="M191.0 66.2 L191.9 67.85 191.0 66.25 191.0 66.2" fill="url(#gradient6)" fill-rule="evenodd" stroke="none"/>
    <path d="M191.3 80.8 L191.0 81.15 Q189.6 83.9 187.3 84.2 189.6 83.8 191.0 81.1 L191.3 80.8 M186.25 84.2 L185.45 84.2 185.6 84.05 186.25 84.2 M184.8 83.9 L184.75 83.9 183.85 83.2 183.05 82.35 182.15 81.15 181.05 78.65 180.8 77.75 180.4 73.65 180.8 69.65 Q181.2 67.95 182.0 66.45 L182.15 66.25 Q183.4 64.25 184.9 63.65 186.15 64.35 187.15 66.2 188.2 67.8 188.7 69.7 L189.15 73.65 188.7 77.7 Q188.2 79.55 187.15 81.15 186.2 82.9 184.8 83.9 M183.05 82.35 L182.15 81.1 181.05 78.65 182.15 81.1 183.05 82.35" fill="url(#gradient7)" fill-rule="evenodd" stroke="none"/>
    <path d="M179.15 56.0 Q173.6 56.35 169.55 61.15 167.75 63.35 166.65 65.95 166.05 67.35 165.75 68.85 L139.8 68.75 Q139.9 68.0 140.15 67.35 140.3 66.6 140.75 65.95 141.7 63.35 143.5 61.15 L144.95 59.45 Q147.05 57.6 149.4 56.8 150.2 56.3 151.4 56.0 L179.15 56.0" fill="url(#gradient8)" fill-rule="evenodd" stroke="none"/>
    <path d="M165.75 68.85 Q165.25 71.1 165.25 74.05 L165.35 75.3 139.5 75.3 139.45 75.3 139.45 75.4 132.15 81.95 Q130.6 78.15 130.6 74.05 130.6 66.4 134.7 61.15 L134.95 61.15 139.8 68.75 165.75 68.85" fill="url(#gradient9)" fill-rule="evenodd" stroke="none"/>
    <path d="M194.05 92.3 L194.9 92.3 Q200.8 92.6 205.0 97.55 L205.1 97.9 Q209.1 102.9 209.1 110.35 L209.1 110.9 Q209.1 114.35 207.95 117.45 207.0 120.25 205.0 122.85 203.55 124.45 201.9 125.65 198.7 127.85 194.6 127.85 L193.9 127.85 193.6 127.85 Q188.85 127.65 185.4 123.95 L184.45 122.85 Q182.65 120.7 181.55 118.1 180.45 114.95 180.25 111.6 L180.15 110.35 180.15 109.8 Q180.25 107.2 180.7 105.2 180.95 103.65 181.55 102.25 182.65 99.65 184.45 97.55 L184.45 97.45 Q188.5 92.65 194.05 92.3 M206.15 117.2 L206.2 117.15 206.2 117.1 206.8 115.85 207.4 114.0 207.85 110.0 207.4 106.0 206.8 104.25 206.25 103.15 206.2 103.05 205.9 102.45 Q204.45 99.75 202.05 99.45 L201.9 99.45 201.65 99.45 201.5 99.45 201.35 99.45 200.45 99.65 199.8 99.9 199.8 99.95 Q198.3 100.55 197.05 102.55 196.15 104.15 195.75 105.95 L195.3 110.0 195.75 114.05 195.95 114.95 196.45 116.25 197.05 117.45 197.15 117.6 Q197.85 118.8 198.75 119.6 L199.65 120.2 199.7 120.2 199.8 120.25 199.95 120.25 200.35 120.5 201.2 120.55 202.05 120.55 202.2 120.55 Q204.5 120.1 205.9 117.45 L206.15 117.2" fill="url(#gradient10)" fill-rule="evenodd" stroke="none"/>
    <path d="M168.15 92.3 L194.05 92.3 Q188.5 92.65 184.45 97.45 L184.45 97.55 Q182.65 99.65 181.55 102.25 180.95 103.65 180.7 105.2 L154.7 105.05 149.85 97.55 151.3 95.75 Q151.9 95.15 152.55 94.75 L155.65 93.1 Q156.4 92.6 157.6 92.3 L168.15 92.3" fill="url(#gradient11)" fill-rule="evenodd" stroke="none"/>
    <path d="M205.9 102.45 L206.2 103.05 205.9 102.55 205.9 102.45" fill="url(#gradient12)" fill-rule="evenodd" stroke="none"/>
    <path d="M206.15 117.2 L205.9 117.45 205.9 117.4 206.15 117.2 M201.2 120.55 L200.35 120.5 200.5 120.35 201.2 120.55 M199.7 120.2 L199.65 120.2 198.75 119.6 Q197.85 118.8 197.15 117.6 L197.05 117.45 196.45 116.25 195.95 114.95 195.75 114.05 195.3 110.0 195.75 105.95 Q196.15 104.15 197.05 102.55 198.3 100.55 199.8 99.95 201.05 100.65 202.05 102.45 203.1 104.1 203.6 106.0 L204.05 110.0 203.6 114.0 Q203.1 115.85 202.05 117.45 L202.05 117.5 Q201.1 119.2 199.7 120.2 M198.75 119.6 L197.2 117.6 197.05 117.4 196.45 116.25 197.05 117.4 197.2 117.6 198.75 119.6" fill="url(#gradient13)" fill-rule="evenodd" stroke="none"/>
    <path d="M207.1 130.2 L206.5 130.8 205.75 132.0 205.3 133.0 Q204.95 134.0 204.95 135.4 205.0 138.4 206.5 140.3 207.45 141.3 208.85 141.7 209.6 142.1 210.65 142.1 L212.05 141.85 212.4 141.7 Q213.15 141.6 213.65 141.2 L214.75 140.3 215.05 139.8 215.95 138.05 216.45 135.95 216.45 135.45 216.25 134.0 216.1 133.0 215.55 132.15 215.55 132.0 214.75 130.8 214.55 130.6 214.15 130.2 220.75 130.2 221.35 132.0 221.45 133.0 221.75 135.45 221.75 136.2 221.1 139.5 219.9 141.7 219.55 142.4 218.95 143.1 217.35 144.6 Q216.1 145.55 214.6 146.0 L212.35 146.2 Q208.4 146.2 205.7 143.1 L204.95 142.1 204.75 141.7 Q202.95 138.9 202.95 135.45 202.95 133.6 203.4 132.0 L204.05 130.2 207.1 130.2" fill="url(#gradient14)" fill-rule="evenodd" stroke="none"/>
    <path d="M214.15 130.2 L214.55 130.6 214.75 130.8 215.55 132.0 215.55 132.15 216.1 133.0 216.25 134.0 216.45 135.45 216.45 135.95 215.95 138.05 215.05 139.8 214.75 140.3 213.65 141.2 Q213.15 141.6 212.4 141.7 L212.05 141.85 210.65 142.1 Q209.6 142.1 208.85 141.7 207.45 141.3 206.5 140.3 205.0 138.4 204.95 135.4 204.95 134.0 205.3 133.0 L205.75 132.0 206.5 130.8 207.1 130.2 214.15 130.2 M214.9 133.0 L214.85 132.8 214.55 132.15 214.25 132.0 213.65 131.55 Q212.75 130.8 211.5 130.8 210.05 130.8 208.85 132.0 L208.7 132.15 208.1 133.0 Q207.45 134.05 207.45 135.6 207.45 137.5 208.7 138.9 209.9 140.3 211.65 140.3 L213.05 140.05 214.3 139.2 214.55 138.9 Q215.05 138.4 215.2 137.65 215.55 136.95 215.55 135.95 L215.55 135.6 215.4 134.2 214.9 133.0" fill="url(#gradient15)" fill-rule="evenodd" stroke="none"/>
    <path d="M213.35 134.35 L213.65 134.95 213.75 135.65 213.75 135.8 213.5 136.7 213.15 137.45 213.05 137.5 212.4 137.9 211.65 138.1 Q210.8 138.1 210.1 137.45 209.5 136.7 209.5 135.65 209.5 134.95 209.8 134.35 209.9 134.05 210.1 133.9 210.8 133.15 211.6 133.15 212.25 133.15 212.7 133.6 L213.15 133.9 213.3 134.2 213.35 134.35" fill="url(#gradient16)" fill-rule="evenodd" stroke="none"/>
    <path d="M241.45 131.45 L241.6 132.0 241.85 133.0 242.05 135.45 242.05 136.2 241.45 139.5 240.3 141.7 239.9 142.4 239.25 143.1 237.65 144.6 Q236.45 145.55 234.95 146.0 L232.7 146.2 Q228.7 146.2 226.05 143.1 L225.25 142.1 225.1 141.7 Q223.25 138.9 223.25 135.45 223.25 133.6 223.75 132.0 L224.35 130.2 226.25 130.2 227.45 130.2 226.8 130.8 226.1 132.0 225.7 133.0 Q225.25 134.0 225.25 135.4 225.3 138.4 226.8 140.3 227.8 141.3 229.15 141.7 229.95 142.1 230.9 142.1 L232.4 141.85 232.75 141.7 234.0 141.2 235.1 140.3 235.35 139.8 236.25 138.05 236.75 135.95 236.75 135.45 236.6 134.0 236.45 133.0 235.95 132.15 235.85 132.0 235.1 130.8 234.85 130.6 234.55 130.2 234.6 130.2 238.75 127.1 239.05 127.35 239.25 127.8 240.8 130.0 240.95 130.05 241.45 131.45" fill="url(#gradient17)" fill-rule="evenodd" stroke="none"/>
    <path d="M234.55 130.2 L234.85 130.6 235.1 130.8 235.85 132.0 235.95 132.15 236.45 133.0 236.6 134.0 236.75 135.45 236.75 135.95 236.25 138.05 235.35 139.8 235.1 140.3 234.0 141.2 232.75 141.7 232.4 141.85 230.9 142.1 Q229.95 142.1 229.15 141.7 227.8 141.3 226.8 140.3 225.3 138.4 225.25 135.4 225.25 134.0 225.7 133.0 L226.1 132.0 226.8 130.8 227.45 130.2 234.55 130.2 M235.25 133.0 L235.2 132.8 Q235.1 132.3 234.85 132.15 L234.6 132.0 234.0 131.55 Q233.15 130.8 231.9 130.8 230.4 130.8 229.2 132.0 L229.0 132.15 228.5 133.0 Q227.8 134.05 227.8 135.6 227.8 137.5 229.0 138.9 230.25 140.3 231.95 140.3 L233.35 140.05 234.7 139.2 234.85 138.9 235.55 137.65 Q235.95 136.95 235.95 135.95 L235.95 135.6 235.7 134.2 235.25 133.0" fill="url(#gradient18)" fill-rule="evenodd" stroke="none"/>
    <path d="M233.7 134.35 L233.95 134.95 234.1 135.65 234.1 135.8 233.8 136.7 233.45 137.45 233.35 137.5 232.75 137.9 231.95 138.1 Q231.15 138.1 230.45 137.45 229.9 136.7 229.9 135.65 229.9 134.95 230.2 134.35 230.25 134.05 230.45 133.9 231.15 133.15 231.9 133.15 232.6 133.15 233.05 133.6 L233.45 133.9 233.65 134.2 233.7 134.35" fill="url(#gradient19)" fill-rule="evenodd" stroke="none"/>
    <path d="M180.7 105.2 Q180.25 107.2 180.15 109.8 L180.15 110.35 180.25 111.6 154.4 111.6 154.35 111.6 154.35 111.7 147.05 118.25 Q145.5 114.45 145.5 110.35 L145.5 110.2 145.7 106.9 Q146.0 104.75 146.6 102.9 147.6 99.95 149.6 97.55 L149.85 97.55 154.7 105.05 180.7 105.2" fill="url(#gradient20)" fill-rule="evenodd" stroke="none"/>
    <path d="M165.85 130.8 Q165.1 131.9 164.75 133.0 164.3 134.0 164.3 135.4 164.35 138.4 165.85 140.3 166.9 141.3 168.2 141.7 L170.05 142.1 171.45 141.85 171.8 141.7 173.1 141.2 174.2 140.3 174.4 139.8 175.3 138.05 175.8 135.95 175.8 135.45 175.65 134.0 175.5 133.0 175.0 132.15 174.2 130.8 173.9 130.6 Q172.35 128.9 170.05 128.9 167.7 128.9 165.85 130.8 M180.55 131.3 L180.7 132.0 180.9 133.0 181.1 135.45 181.1 136.2 180.55 139.5 179.35 141.7 179.0 142.4 178.3 143.1 176.75 144.6 Q175.5 145.55 174.05 146.0 L171.75 146.2 Q167.75 146.2 165.1 143.1 L164.3 142.1 164.15 141.7 Q162.4 138.9 162.4 135.45 162.4 130.9 164.95 127.85 L172.1 127.85 172.5 127.85 178.45 127.85 Q179.35 128.8 179.85 130.0 L180.0 130.05 180.55 131.3" fill="url(#gradient21)" fill-rule="evenodd" stroke="none"/>
    <path d="M165.85 130.8 Q167.7 128.9 170.05 128.9 172.35 128.9 173.9 130.6 L174.2 130.8 175.0 132.15 175.5 133.0 175.65 134.0 175.8 135.45 175.8 135.95 175.3 138.05 174.4 139.8 174.2 140.3 173.1 141.2 171.8 141.7 171.45 141.85 170.05 142.1 168.2 141.7 Q166.9 141.3 165.85 140.3 164.35 138.4 164.3 135.4 164.3 134.0 164.75 133.0 165.1 131.9 165.85 130.8 M174.35 133.0 L174.25 132.8 173.9 132.15 173.1 131.55 Q172.2 130.8 170.95 130.8 169.3 130.8 168.15 132.15 L167.55 133.0 Q166.9 134.05 166.9 135.6 166.9 137.5 168.15 138.9 169.3 140.3 171.0 140.3 L172.4 140.05 173.75 139.2 173.9 138.9 174.65 137.65 Q175.0 136.95 175.0 135.95 L175.0 135.6 174.85 134.2 174.35 133.0" fill="url(#gradient22)" fill-rule="evenodd" stroke="none"/>
    <path d="M172.8 134.35 L173.0 134.95 173.15 135.65 173.15 135.8 172.95 136.7 172.5 137.45 172.4 137.5 171.8 137.9 171.0 138.1 Q170.2 138.1 169.55 137.45 168.95 136.7 168.95 135.65 168.95 134.95 169.25 134.35 L169.55 133.9 Q170.2 133.15 171.0 133.15 171.7 133.15 172.1 133.6 L172.5 133.9 172.7 134.2 172.8 134.35" fill="url(#gradient23)" fill-rule="evenodd" stroke="none"/>
    <path d="M183.1 132.0 Q183.5 130.6 184.3 129.25 L185.6 130.2 186.8 130.2 186.2 130.8 185.45 132.0 185.05 133.0 Q184.65 134.0 184.65 135.4 184.75 138.4 186.2 140.3 187.25 141.3 188.55 141.7 189.3 142.1 190.35 142.1 L191.75 141.85 192.1 141.7 193.45 141.2 194.45 140.3 194.75 139.8 195.65 138.05 196.15 135.95 196.15 135.45 195.95 134.0 195.85 133.0 195.35 132.15 195.3 132.0 194.45 130.8 194.25 130.6 193.95 130.2 200.45 130.2 201.05 132.0 201.2 133.0 201.5 135.45 201.5 136.2 200.8 139.5 199.7 141.7 199.25 142.4 198.7 143.1 197.05 144.6 Q195.85 145.55 194.4 146.0 L192.1 146.2 Q188.15 146.2 185.4 143.1 L184.65 142.1 184.45 141.7 Q182.65 138.9 182.65 135.45 182.65 133.6 183.1 132.0" fill="url(#gradient24)" fill-rule="evenodd" stroke="none"/>
    <path d="M193.95 130.2 L194.25 130.6 194.45 130.8 195.3 132.0 195.35 132.15 195.85 133.0 195.95 134.0 196.15 135.45 196.15 135.95 195.65 138.05 194.75 139.8 194.45 140.3 193.45 141.2 192.1 141.7 191.75 141.85 190.35 142.1 Q189.3 142.1 188.55 141.7 187.25 141.3 186.2 140.3 184.75 138.4 184.65 135.4 184.65 134.0 185.05 133.0 L185.45 132.0 186.2 130.8 186.8 130.2 190.7 130.2 193.95 130.2 M190.7 130.9 Q189.6 131.05 188.65 132.0 L188.4 132.15 187.85 133.0 Q187.25 134.05 187.25 135.6 187.25 137.5 188.4 138.9 189.7 140.3 191.35 140.3 L192.8 140.05 194.05 139.2 194.25 138.9 195.0 137.65 Q195.35 136.95 195.35 135.95 L195.35 135.6 195.15 134.2 194.6 133.0 194.55 132.8 194.25 132.15 194.05 132.0 193.45 131.55 Q192.55 130.8 191.25 130.8 L190.7 130.9 190.7 130.2 190.7 130.9" fill="url(#gradient25)" fill-rule="evenodd" stroke="none"/>
    <path d="M193.05 134.35 L193.35 134.95 193.5 135.65 193.5 135.8 193.2 136.7 192.85 137.45 192.8 137.5 192.1 137.9 191.35 138.1 Q190.55 138.1 189.8 137.45 189.25 136.7 189.25 135.65 189.25 134.95 189.6 134.35 L189.8 133.9 Q190.55 133.15 191.3 133.15 192.05 133.15 192.5 133.6 L192.85 133.9 193.05 134.2 193.05 134.35" fill="url(#gradient26)" fill-rule="evenodd" stroke="none"/>
    <path d="M236.5 152.7 L236.5 152.4 Q239.4 152.0 242.05 151.0 L243.15 150.6 Q245.3 149.75 247.35 148.5 L279.25 148.5 Q276.6 150.0 273.95 151.0 269.8 152.5 265.35 152.7 L236.5 152.7 M278.7 99.0 L282.35 100.7 Q284.55 101.9 286.45 103.2 L289.55 105.8 290.4 106.55 292.1 108.4 293.25 110.05 293.65 110.75 294.75 113.7 294.95 114.55 295.3 115.85 296.05 118.8 296.3 120.85 296.45 124.85 Q296.3 125.35 296.3 125.95 296.05 128.15 295.3 130.2 L294.95 130.75 294.95 130.9 291.85 135.95 288.0 141.0 283.9 145.1 279.25 148.5 247.35 148.5 Q249.65 147.05 252.0 145.1 L256.2 141.0 260.05 135.95 263.1 130.9 263.55 130.2 264.05 128.0 264.4 125.95 264.5 124.85 264.25 120.85 264.05 118.8 263.55 116.5 263.3 115.85 262.2 112.6 261.45 110.75 261.15 110.15 261.15 110.05 260.95 110.0 263.55 106.55 265.95 103.2 267.9 100.7 269.05 99.0 278.7 99.0 M282.35 100.7 L267.9 100.7 282.35 100.7 M293.65 110.75 L261.45 110.75 293.65 110.75 M291.85 135.95 L260.05 135.95 291.85 135.95 M283.9 145.1 L252.0 145.1 283.9 145.1 M273.95 151.0 L242.05 151.0 273.95 151.0 M290.4 106.55 L263.55 106.55 290.4 106.55 M265.95 103.2 L286.45 103.2 265.95 103.2 M264.25 120.85 L296.3 120.85 264.25 120.85 M263.3 115.85 L295.3 115.85 263.3 115.85 M296.3 125.95 L264.4 125.95 296.3 125.95 M256.2 141.0 L288.0 141.0 256.2 141.0 M294.95 130.9 L263.1 130.9 294.95 130.9" fill="url(#gradient27)" fill-rule="evenodd" stroke="none"/>
    <path d="M253.95 115.6 Q255.25 116.2 256.45 117.4 L256.6 117.75 257.85 119.5 257.9 119.6 258.5 121.2 258.75 122.0 258.8 124.0 258.8 124.6 Q258.75 126.1 258.3 127.35 L257.1 129.7 256.6 130.3 255.35 131.45 Q254.25 132.3 253.05 132.65 L251.2 132.8 Q247.95 132.8 245.8 130.3 L244.5 128.35 Q243.45 126.4 243.45 124.0 L243.45 123.5 244.5 122.75 245.45 122.0 245.45 122.1 244.5 122.75 245.45 122.1 Q245.1 122.9 245.1 124.0 245.1 126.25 246.4 127.95 247.8 129.4 249.8 129.4 L251.0 129.25 252.3 128.65 253.1 127.95 253.5 127.5 254.15 126.1 254.45 124.45 254.45 124.0 254.45 122.85 253.95 121.35 253.1 120.2 253.0 120.05 Q251.65 118.65 249.95 118.65 L253.95 115.6" fill="url(#gradient28)" fill-rule="evenodd" stroke="none"/>
    <path d="M144.25 12.55 L147.9 15.0 121.15 15.0 117.75 12.55 144.25 12.55" fill="url(#gradient29)" fill-rule="evenodd" stroke="none"/>
    <path d="M152.35 18.0 L156.4 20.8 128.15 20.9 126.75 18.9 125.55 18.0 152.35 18.0" fill="url(#gradient30)" fill-rule="evenodd" stroke="none"/>
    <path d="M156.4 20.8 L159.0 24.25 130.5 24.25 128.15 20.9 156.4 20.8" fill="url(#gradient31)" fill-rule="evenodd" stroke="none"/>
    <path d="M147.9 15.0 L152.35 18.0 125.55 18.0 121.15 15.0 147.9 15.0" fill="url(#gradient32)" fill-rule="evenodd" stroke="none"/>
    <path d="M161.35 27.45 L163.55 30.45 134.8 30.45 132.65 27.45 161.35 27.45" fill="url(#gradient33)" fill-rule="evenodd" stroke="none"/>
    <path d="M159.0 24.25 L161.35 27.45 132.65 27.45 130.5 24.25 159.0 24.25" fill="url(#gradient34)" fill-rule="evenodd" stroke="none"/>
    <path d="M129.9 56.0 L142.7 56.0 147.9 56.0 151.4 56.0 Q150.2 56.3 149.4 56.8 147.05 57.6 144.95 59.45 L143.5 61.15 Q141.7 63.35 140.75 65.95 140.3 66.6 140.15 67.35 139.9 68.0 139.8 68.75 L134.95 61.15 134.7 61.15 126.15 61.15 117.5 61.15 119.45 59.15 121.6 57.6 Q122.7 56.95 124.1 56.6 L125.2 56.3 127.65 56.0 129.9 56.0 M132.05 56.8 Q130.75 57.2 129.55 58.0 128.2 58.85 126.95 60.2 L126.15 61.15 126.95 60.2 Q128.2 58.85 129.55 58.0 130.75 57.2 132.05 56.8 M142.7 56.0 Q141.5 56.3 140.75 56.8 138.4 57.6 136.4 59.45 L134.95 61.15 136.4 59.45 Q138.4 57.6 140.75 56.8 141.5 56.3 142.7 56.0" fill="url(#gradient35)" fill-rule="evenodd" stroke="none"/>
    <path d="M113.4 71.2 Q113.6 69.2 114.2 67.45 114.55 65.95 115.0 65.0 L116.35 62.8 117.5 61.15 126.15 61.15 Q123.05 65.0 122.25 70.0 121.95 71.95 121.95 74.05 121.95 77.45 123.0 80.7 L123.45 81.95 114.7 82.05 114.3 80.7 114.0 79.75 Q113.55 78.0 113.45 76.0 113.25 75.05 113.55 73.8 L113.25 74.05 Q113.25 72.5 113.4 71.2 M114.85 79.75 L114.0 79.75 114.85 79.75" fill="url(#gradient36)" fill-rule="evenodd" stroke="none"/>
    <path d="M134.7 61.15 Q130.6 66.4 130.6 74.05 130.6 78.15 132.15 81.95 L123.45 81.95 123.0 80.7 Q121.95 77.45 121.95 74.05 121.95 71.95 122.25 70.0 123.05 65.0 126.15 61.15 L134.7 61.15" fill="url(#gradient37)" fill-rule="evenodd" stroke="none"/>
    <path d="M145.85 92.3 L157.6 92.3 Q156.4 92.6 155.65 93.1 L152.55 94.75 Q151.9 95.15 151.3 95.75 L149.85 97.55 149.6 97.55 141.05 97.55 132.45 97.55 134.25 95.55 136.5 93.9 Q138.05 93.05 140.1 92.6 L142.55 92.3 143.5 92.3 145.85 92.3 M141.05 97.55 L141.85 96.55 Q144.15 93.9 146.95 93.1 144.15 93.9 141.85 96.55 L141.05 97.55" fill="url(#gradient38)" fill-rule="evenodd" stroke="none"/>
    <path d="M128.2 108.45 Q128.35 105.85 129.1 103.8 L129.9 101.35 130.35 100.55 130.65 100.05 Q131.4 98.7 132.45 97.55 L141.05 97.55 Q140.05 98.8 139.3 100.2 138.25 101.95 137.65 104.1 137.15 105.85 136.95 107.85 L136.85 110.45 Q136.85 114.45 138.35 118.25 L129.6 118.35 128.9 116.05 128.65 114.85 128.35 112.3 Q128.15 111.35 128.45 110.05 L128.15 110.35 128.2 108.45 M129.75 116.05 L128.9 116.05 129.75 116.05" fill="url(#gradient39)" fill-rule="evenodd" stroke="none"/>
    <path d="M149.6 97.55 Q147.6 99.95 146.6 102.9 146.0 104.75 145.7 106.9 L145.5 110.2 145.5 110.35 Q145.5 114.45 147.05 118.25 L138.35 118.25 Q136.85 114.45 136.85 110.45 L136.95 107.85 Q137.15 105.85 137.65 104.1 138.25 101.95 139.3 100.2 140.05 98.8 141.05 97.55 L149.6 97.55" fill="url(#gradient40)" fill-rule="evenodd" stroke="none"/>
    <path d="M75.55 152.7 L73.8 152.7 71.7 152.65 70.95 152.65 66.9 152.0 63.25 151.1 59.75 149.85 57.55 148.8 56.5 148.35 Q52.55 146.2 48.85 143.1 44.5 139.45 40.6 134.4 L39.45 132.8 Q26.65 115.15 26.65 90.45 26.65 80.4 28.85 71.5 L28.9 71.2 30.1 66.9 Q31.45 62.85 33.05 59.0 L33.35 58.45 33.5 58.05 Q35.05 54.95 36.75 52.0 L38.15 50.1 40.6 46.4 Q43.45 42.85 46.5 39.9 L48.2 38.5 51.35 40.05 Q50.15 40.85 49.05 41.7 L46.5 43.9 Q43.55 46.65 41.0 50.1 40.8 50.1 40.7 50.25 L39.45 52.0 Q38.65 53.1 38.0 54.3 36.65 56.2 35.7 58.05 L34.75 59.85 33.05 63.5 Q32.1 65.8 31.45 68.15 L30.9 69.85 Q30.6 70.7 30.45 71.5 28.05 80.35 28.05 90.35 28.05 105.15 33.05 117.0 L33.35 117.65 33.8 118.8 Q36.2 124.0 39.45 128.65 L40.7 130.3 Q46.55 137.9 53.5 142.15 L54.45 142.6 55.4 143.1 56.5 143.7 57.45 144.15 57.55 144.15 58.15 144.45 63.25 146.1 63.35 146.1 69.7 147.05 70.95 147.05 71.5 147.05 71.7 147.05 76.3 146.65 79.0 146.2 83.5 144.95 85.15 144.25 87.55 143.1 88.45 142.6 91.35 141.0 95.55 137.6 98.55 134.65 100.1 132.8 102.1 130.3 103.0 129.2 103.8 128.0 104.75 126.8 108.3 120.5 109.2 118.8 109.5 118.2 111.05 114.35 116.55 117.45 117.45 117.45 117.15 118.8 116.5 120.5 109.5 118.2 116.5 120.5 112.6 128.0 111.9 129.2 108.15 134.4 105.55 137.6 100.65 142.6 100.1 143.05 100.05 143.1 98.65 144.25 91.35 141.0 98.65 144.25 Q94.75 147.4 90.35 149.3 L83.5 144.95 90.35 149.3 Q86.55 151.1 82.25 152.0 L79.0 152.4 75.55 152.7 M59.75 149.85 L57.55 144.15 59.75 149.85 M66.9 152.0 L63.35 146.1 66.9 152.0 M69.7 147.05 L73.8 152.7 69.7 147.05 M76.3 146.65 L82.25 152.0 76.3 146.65 M98.55 134.65 L105.55 137.6 98.55 134.65 M111.9 129.2 L104.75 126.8 111.9 129.2" fill="url(#gradient41)" fill-rule="evenodd" stroke="none"/>
    <path d="M51.35 40.05 L59.9 44.35 60.8 46.7 59.1 47.2 Q53.95 49.6 49.3 54.15 47.75 55.5 46.35 57.3 L45.3 58.6 43.3 61.25 42.95 61.7 42.4 62.7 Q34.95 74.95 34.95 91.35 34.95 92.6 35.1 93.7 35.4 104.6 39.4 113.7 40.5 116.85 42.4 119.9 L45.3 124.15 47.6 127.05 49.3 128.65 Q53.95 133.1 59.1 135.4 64.4 137.65 70.7 137.65 L72.3 137.65 Q79.75 137.3 86.1 133.25 91.25 129.75 95.7 124.15 99.45 119.2 101.9 113.7 L102.45 111.85 103.3 110.05 111.05 114.35 109.5 118.2 109.2 118.8 108.3 120.5 104.75 126.8 103.8 128.0 103.0 129.2 102.1 130.3 100.1 132.8 98.55 134.65 95.55 137.6 91.35 141.0 88.45 142.6 87.55 143.1 85.15 144.25 83.5 144.95 79.0 146.2 76.3 146.65 71.7 147.05 71.5 147.05 70.95 147.05 69.7 147.05 63.35 146.1 63.25 146.1 58.15 144.45 57.55 144.15 57.45 144.15 56.5 143.7 55.4 143.1 54.45 142.6 53.5 142.15 Q46.55 137.9 40.7 130.3 L39.45 128.65 Q36.2 124.0 33.8 118.8 L33.35 117.65 33.05 117.0 Q28.05 105.15 28.05 90.35 28.05 80.35 30.45 71.5 30.6 70.7 30.9 69.85 L31.45 68.15 Q32.1 65.8 33.05 63.5 L34.75 59.85 35.7 58.05 Q36.65 56.2 38.0 54.3 38.65 53.1 39.45 52.0 L40.7 50.25 Q40.8 50.1 41.0 50.1 43.55 46.65 46.5 43.9 L49.05 41.7 Q50.15 40.85 51.35 40.05" fill="url(#gradient42)" fill-rule="evenodd" stroke="none"/>
    <path d="M60.8 46.7 L62.7 51.7 60.2 52.45 Q57.9 53.4 55.85 54.9 L54.0 56.35 51.55 58.5 Q50.1 59.7 49.0 61.4 L48.05 62.4 45.95 65.2 45.5 66.1 Q41.15 73.1 39.4 84.1 L39.05 86.85 Q38.9 87.85 38.9 91.5 38.9 92.6 39.05 93.55 39.25 103.2 42.8 111.25 43.8 114.05 45.5 116.8 L48.05 120.55 50.1 123.05 51.55 124.45 53.85 126.45 55.75 127.95 Q57.9 129.4 60.2 130.45 65.0 132.5 70.45 132.5 L71.95 132.5 Q78.5 132.15 84.2 128.6 L88.4 125.25 89.95 123.8 92.75 120.55 Q96.0 116.2 98.1 111.25 L98.7 109.55 99.5 107.95 103.3 110.05 102.45 111.85 101.9 113.7 Q99.45 119.2 95.7 124.15 91.25 129.75 86.1 133.25 79.75 137.3 72.3 137.65 L70.7 137.65 Q64.4 137.65 59.1 135.4 53.95 133.1 49.3 128.65 L47.6 127.05 45.3 124.15 42.4 119.9 Q40.5 116.85 39.4 113.7 35.4 104.6 35.1 93.7 34.95 92.6 34.95 91.35 34.95 74.95 42.4 62.7 L42.95 61.7 43.3 61.25 45.3 58.6 46.35 57.3 Q47.75 55.5 49.3 54.15 53.95 49.6 59.1 47.2 L60.8 46.7" fill="url(#gradient43)" fill-rule="evenodd" stroke="none"/>
    <path d="M67.6 64.5 L71.4 74.5 70.95 74.5 Q69.85 74.65 68.9 75.05 65.75 76.0 63.25 79.25 L62.55 80.4 Q60.35 83.65 59.75 87.7 L53.05 90.8 59.85 94.5 Q60.2 96.8 61.1 98.85 62.05 100.85 63.25 102.55 L65.0 104.4 Q67.6 106.9 70.95 107.35 L72.15 107.4 Q76.0 107.4 79.0 104.85 L79.6 104.4 81.25 102.55 82.8 100.1 83.35 98.95 89.1 102.2 88.6 103.35 88.25 104.4 Q86.85 107.65 84.6 110.5 82.05 113.85 79.0 115.85 75.3 118.2 70.95 118.4 L70.0 118.4 Q66.4 118.4 63.25 117.1 60.2 115.85 57.55 113.15 L56.5 112.2 55.2 110.5 53.5 108.1 Q52.45 106.25 51.7 104.4 49.45 99.1 49.2 92.75 L49.15 91.35 Q49.15 81.75 53.5 74.6 L53.85 74.05 55.2 72.15 55.85 71.5 Q56.6 70.4 57.55 69.65 60.2 66.9 63.25 65.6 L65.05 65.0 67.6 64.5" fill="url(#gradient44)" fill-rule="evenodd" stroke="none"/>
    <path d="M39.4 84.1 Q41.15 73.1 45.5 66.1 L45.95 65.2 48.05 62.4 49.0 61.4 Q50.1 59.7 51.55 58.5 L54.0 56.35 59.0 64.55 56.15 67.05 Q55.1 67.85 54.2 69.15 L53.5 69.85 52.0 72.0 51.65 72.65 Q48.25 78.3 47.2 85.15 L39.4 84.1" fill="url(#gradient45)" fill-rule="evenodd" stroke="none"/>
    <path d="M53.05 90.8 L59.75 87.7 69.35 83.3 Q70.0 82.85 70.75 82.65 L72.75 82.25 74.0 82.4 53.05 90.8" fill="url(#gradient46)" fill-rule="evenodd" stroke="none"/>
    <path d="M59.85 94.5 L53.05 90.8 78.8 96.95 78.0 97.95 Q75.85 100.7 72.75 100.7 L71.75 100.65 71.7 100.65 70.0 100.05 69.8 99.95 59.85 94.5" fill="url(#gradient47)" fill-rule="evenodd" stroke="none"/>
    <path d="M74.5 82.55 L76.5 87.7 79.45 95.55 78.8 96.95 53.05 90.8 74.0 82.4 74.5 82.55 M76.5 87.7 L53.05 90.8 76.5 87.7" fill="url(#gradient48)" fill-rule="evenodd" stroke="none"/>
    <path d="M79.45 95.55 L79.7 96.05 78.3 98.05 77.3 99.1 76.95 99.4 Q75.3 100.8 73.1 100.8 L72.45 100.8 71.75 100.65 72.75 100.7 Q75.85 100.7 78.0 97.95 L78.8 96.95 79.45 95.55" fill="url(#gradient49)" fill-rule="evenodd" stroke="none"/>
    <path d="M55.75 127.95 L60.95 119.45 62.55 120.2 Q66.05 121.75 70.15 121.75 L71.2 121.75 Q76.05 121.5 80.25 118.85 L82.2 117.45 82.25 117.4 88.4 125.25 84.2 128.6 Q78.5 132.15 71.95 132.5 L70.45 132.5 Q65.0 132.5 60.2 130.45 57.9 129.4 55.75 127.95" fill="url(#gradient50)" fill-rule="evenodd" stroke="none"/>
    <path d="M122.25 149.3 L118.65 150.7 Q114.35 152.2 109.85 152.65 L107.25 152.7 79.0 152.7 79.0 152.4 82.25 152.0 Q86.55 151.1 90.35 149.3 L122.25 149.3" fill="url(#gradient51)" fill-rule="evenodd" stroke="none"/>
    <path d="M137.45 137.6 L132.5 142.6 132.0 143.1 130.75 144.15 130.5 144.25 Q126.5 147.4 122.25 149.3 L90.35 149.3 Q94.75 147.4 98.65 144.25 L100.05 143.1 100.1 143.05 100.65 142.6 105.55 137.6 137.45 137.6 M130.5 144.25 L98.65 144.25 130.5 144.25" fill="url(#gradient52)" fill-rule="evenodd" stroke="none"/>
    <path d="M243.4 46.7 L248.6 46.35 249.75 48.25 253.5 48.05 251.05 43.9 228.55 45.15 224.55 61.3 230.45 61.0 231.65 58.75 229.75 58.8 232.55 47.2 243.4 46.7 244.55 48.6 249.75 48.25 M273.25 50.6 L260.0 47.6 253.5 48.05 M246.8 68.1 L282.65 66.2 281.75 64.65 273.25 50.6 250.75 51.95 246.8 68.1 229.2 63.15 230.45 61.0 M265.65 53.5 L270.85 53.1 277.55 64.25 272.15 64.55 252.0 65.6 254.8 54.0 265.65 53.5 272.15 64.55 M264.8 82.5 L265.8 92.6 310.45 92.6 308.6 80.4 264.8 82.5 247.35 71.2 237.2 82.5 261.9 97.9 265.8 92.6 M281.75 64.65 L295.55 68.7 308.6 80.4 M247.35 71.2 L295.55 68.7 M209.35 52.1 L205.9 52.25 208.7 40.65 219.55 40.05 224.7 39.75 225.85 41.6 229.6 41.4 227.15 37.25 204.65 38.6 200.75 54.75 208.1 54.35 209.35 52.1 214.7 42.35 220.65 42.0 219.55 40.05 M251.05 43.9 L237.7 40.8 229.6 41.4 M227.15 37.25 L213.9 34.25 190.85 35.7 204.65 38.6 M214.7 42.35 L228.55 45.15 M225.85 41.6 L220.65 42.0 M172.1 35.65 L167.4 35.65 138.4 35.65 142.75 42.0 176.85 42.0 172.1 35.65 159.65 18.9 156.4 20.8 159.0 24.25 161.35 27.45 163.55 30.45 165.7 33.35 167.4 35.65 M145.8 5.45 L166.45 18.9 186.05 42.0 187.3 42.35 190.85 35.7 M176.85 42.0 L186.05 42.0 M200.75 54.75 L199.35 54.35 189.25 54.95 247.35 71.2 M183.75 50.0 L183.1 49.8 187.3 42.35 M152.25 51.95 L189.15 54.95 189.25 54.95 186.3 57.85 Q188.3 59.1 190.1 61.15 L190.2 61.6 Q192.05 63.9 193.0 66.6 L214.1 79.85 237.2 82.5 232.55 87.5 257.9 103.15 261.9 97.9 M191.0 66.2 L191.9 67.85 192.5 69.7 192.9 73.65 192.5 77.7 191.3 80.8 191.0 81.15 Q189.6 83.9 187.3 84.2 L186.25 84.2 185.45 84.2 185.05 83.95 184.9 83.95 184.8 83.9 184.75 83.9 183.85 83.2 183.05 82.35 182.15 81.15 181.05 78.65 180.8 77.75 180.4 73.65 180.8 69.65 Q181.2 67.95 182.0 66.45 L182.15 66.25 Q183.4 64.25 184.9 63.65 L184.9 63.5 185.55 63.35 186.45 63.1 186.6 63.1 186.75 63.1 187.0 63.1 187.15 63.1 187.6 63.25 189.95 64.7 191.0 66.2 M184.9 63.65 Q186.15 64.35 187.15 66.2 188.2 67.8 188.7 69.7 L189.15 73.65 188.7 77.7 Q188.2 79.55 187.15 81.15 186.2 82.9 184.8 83.9 M179.0 91.55 L179.7 91.55 Q185.75 91.55 190.1 86.55 192.1 83.95 193.05 81.15 194.1 78.3 194.2 74.95 L194.2 74.6 194.2 74.05 Q194.2 69.95 193.0 66.6 M199.35 54.35 L183.75 50.0 152.25 51.95 132.8 42.0 129.9 56.0 142.7 56.0 147.9 56.0 152.25 51.95 M165.75 68.85 Q165.25 71.1 165.25 74.05 L165.35 75.3 165.55 77.25 Q165.85 79.55 166.65 81.75 167.75 84.4 169.55 86.55 173.35 91.35 178.7 91.55 L167.9 91.55 157.6 91.55 M179.15 56.0 Q173.6 56.35 169.55 61.15 167.75 63.35 166.65 65.95 166.05 67.35 165.75 68.85 L139.8 68.75 134.95 61.15 136.4 59.45 Q138.4 57.6 140.75 56.8 141.5 56.3 142.7 56.0 M134.7 61.15 Q130.6 66.4 130.6 74.05 130.6 78.15 132.15 81.95 L139.45 75.4 M139.5 75.3 L165.35 75.3 M179.15 56.0 L151.4 56.0 M181.05 78.65 L182.15 81.1 183.05 82.35 M167.9 91.55 L168.15 92.3 194.05 92.3 Q188.5 92.65 184.45 97.45 M194.9 92.3 Q200.8 92.6 205.0 97.55 L205.1 97.9 Q209.1 102.9 209.1 110.35 L209.1 110.9 Q209.1 114.35 207.95 117.45 L209.35 117.4 209.75 104.3 214.25 102.05 213.9 117.3 219.05 117.25 219.05 100.65 223.75 97.15 232.55 87.5 209.25 85.45 194.2 74.95 M157.2 91.55 L143.95 91.55 143.7 91.55 145.85 92.3 157.6 92.3 168.15 92.3 M185.45 84.2 L185.6 84.05 186.25 84.2 M187.3 84.2 Q189.6 83.8 191.0 81.1 L191.3 80.8 M184.45 97.55 Q182.65 99.65 181.55 102.25 180.95 103.65 180.7 105.2 180.25 107.2 180.15 109.8 L180.15 110.35 180.25 111.6 Q180.45 114.95 181.55 118.1 182.65 120.7 184.45 122.85 L185.4 123.95 Q188.85 127.65 193.6 127.85 L182.3 127.85 178.45 127.85 172.5 127.85 M193.9 127.85 L194.6 127.85 Q198.7 127.85 201.9 125.65 203.55 124.45 205.0 122.85 207.0 120.25 207.95 117.45 M186.3 57.85 Q183.4 56.15 180.0 56.0 M224.55 61.3 L206.95 56.35 208.1 54.35 M231.65 58.75 L236.95 49.15 244.55 48.6 M206.2 103.05 L206.25 103.15 206.8 104.25 207.4 106.0 207.85 110.0 207.4 114.0 206.8 115.85 206.2 117.1 206.2 117.15 206.15 117.2 205.9 117.45 Q204.5 120.1 202.2 120.55 L202.05 120.55 201.2 120.55 200.35 120.5 199.95 120.25 199.8 120.25 199.7 120.2 199.65 120.2 198.75 119.6 Q197.85 118.8 197.15 117.6 L197.05 117.45 196.45 116.25 195.95 114.95 195.75 114.05 195.3 110.0 195.75 105.95 Q196.15 104.15 197.05 102.55 198.3 100.55 199.8 99.95 L199.8 99.9 200.45 99.65 201.35 99.45 201.5 99.45 201.65 99.45 201.9 99.45 202.05 99.45 Q204.45 99.75 205.9 102.45 L206.2 103.05 M199.8 99.95 Q201.05 100.65 202.05 102.45 203.1 104.1 203.6 106.0 L204.05 110.0 203.6 114.0 Q203.1 115.85 202.05 117.45 L202.05 117.5 Q201.1 119.2 199.7 120.2 M205.9 117.45 L205.9 117.4 206.15 117.2 M209.35 117.4 L213.9 117.3 M214.15 130.2 L214.55 130.6 214.75 130.8 215.55 132.0 215.55 132.15 216.1 133.0 216.25 134.0 216.45 135.45 216.45 135.95 215.95 138.05 215.05 139.8 214.75 140.3 213.65 141.2 Q213.15 141.6 212.4 141.7 L212.05 141.85 210.65 142.1 Q209.6 142.1 208.85 141.7 207.45 141.3 206.5 140.3 205.0 138.4 204.95 135.4 204.95 134.0 205.3 133.0 L205.75 132.0 206.5 130.8 207.1 130.2 204.05 130.2 203.4 132.0 Q202.95 133.6 202.95 135.45 202.95 138.9 204.75 141.7 L204.95 142.1 205.7 143.1 Q208.4 146.2 212.35 146.2 L214.6 146.0 Q216.1 145.55 217.35 144.6 L218.95 143.1 219.55 142.4 219.9 141.7 221.1 139.5 221.75 136.2 221.75 135.45 221.45 133.0 221.35 132.0 220.75 130.2 214.15 130.2 207.1 130.2 M214.9 133.0 L215.4 134.2 215.55 135.6 215.55 135.95 Q215.55 136.95 215.2 137.65 215.05 138.4 214.55 138.9 L214.3 139.2 213.05 140.05 211.65 140.3 Q209.9 140.3 208.7 138.9 207.45 137.5 207.45 135.6 207.45 134.05 208.1 133.0 L208.7 132.15 208.85 132.0 Q210.05 130.8 211.5 130.8 212.75 130.8 213.65 131.55 L214.25 132.0 214.55 132.15 214.85 132.8 214.9 133.0 M213.35 134.35 L213.65 134.95 213.75 135.65 213.75 135.8 213.5 136.7 213.15 137.45 213.05 137.5 212.4 137.9 211.65 138.1 Q210.8 138.1 210.1 137.45 209.5 136.7 209.5 135.65 209.5 134.95 209.8 134.35 209.9 134.05 210.1 133.9 210.8 133.15 211.6 133.15 212.25 133.15 212.7 133.6 L213.15 133.9 213.3 134.2 213.35 134.35 M171.4 147.6 L176.2 147.6 182.8 147.6 189.55 147.6 196.25 147.6 202.95 147.6 216.4 147.6 223.1 147.6 229.75 147.6 235.25 147.6 236.9 147.6 237.8 147.5 240.0 146.8 Q242.45 145.85 244.8 144.45 L249.05 141.3 Q249.15 141.05 249.45 141.0 L252.55 137.8 253.95 135.95 255.95 133.25 257.4 130.9 258.45 129.1 258.5 128.9 258.75 128.0 258.95 127.4 259.25 125.95 259.4 125.35 259.4 124.85 259.45 124.0 259.4 121.05 259.25 120.85 258.95 118.8 258.5 116.95 258.3 116.5 258.15 115.85 257.2 113.15 253.95 115.6 Q255.25 116.2 256.45 117.4 L256.6 117.75 257.85 119.5 257.9 119.6 258.5 121.2 258.75 122.0 258.8 124.0 258.8 124.6 Q258.75 126.1 258.3 127.35 L257.1 129.7 256.6 130.3 255.35 131.45 Q254.25 132.3 253.05 132.65 L251.2 132.8 Q247.95 132.8 245.8 130.3 L244.5 128.35 241.45 131.45 241.6 132.0 241.85 133.0 242.05 135.45 242.05 136.2 241.45 139.5 240.3 141.7 239.9 142.4 239.25 143.1 237.65 144.6 Q236.45 145.55 234.95 146.0 L232.7 146.2 Q228.7 146.2 226.05 143.1 L225.25 142.1 225.1 141.7 Q223.25 138.9 223.25 135.45 223.25 133.6 223.75 132.0 L221.35 132.0 M238.75 127.1 L239.05 127.35 239.25 127.8 240.8 130.0 240.95 130.05 241.45 131.45 M234.55 130.2 L234.85 130.6 235.1 130.8 235.85 132.0 235.95 132.15 236.45 133.0 236.6 134.0 236.75 135.45 236.75 135.95 236.25 138.05 235.35 139.8 235.1 140.3 234.0 141.2 232.75 141.7 232.4 141.85 230.9 142.1 Q229.95 142.1 229.15 141.7 227.8 141.3 226.8 140.3 225.3 138.4 225.25 135.4 225.25 134.0 225.7 133.0 L226.1 132.0 226.8 130.8 227.45 130.2 226.25 130.2 224.35 130.2 223.75 132.0 M234.55 130.2 L234.6 130.2 238.75 127.1 243.45 123.5 244.5 122.75 245.45 122.1 Q245.1 122.9 245.1 124.0 245.1 126.25 246.4 127.95 247.8 129.4 249.8 129.4 L251.0 129.25 252.3 128.65 253.1 127.95 253.5 127.5 254.15 126.1 254.45 124.45 254.45 124.0 254.45 122.85 253.95 121.35 253.1 120.2 253.0 120.05 Q251.65 118.65 249.95 118.65 L253.95 115.6 M246.8 121.15 L249.95 118.65 M235.25 133.0 L235.7 134.2 235.95 135.6 235.95 135.95 Q235.95 136.95 235.55 137.65 L234.85 138.9 234.7 139.2 233.35 140.05 231.95 140.3 Q230.25 140.3 229.0 138.9 227.8 137.5 227.8 135.6 227.8 134.05 228.5 133.0 L229.0 132.15 229.2 132.0 Q230.4 130.8 231.9 130.8 233.15 130.8 234.0 131.55 L234.6 132.0 234.85 132.15 Q235.1 132.3 235.2 132.8 L235.25 133.0 M233.7 134.35 L233.95 134.95 234.1 135.65 234.1 135.8 233.8 136.7 233.45 137.45 233.35 137.5 232.75 137.9 231.95 138.1 Q231.15 138.1 230.45 137.45 229.9 136.7 229.9 135.65 229.9 134.95 230.2 134.35 230.25 134.05 230.45 133.9 231.15 133.15 231.9 133.15 232.6 133.15 233.05 133.6 L233.45 133.9 233.65 134.2 233.7 134.35 M243.75 117.0 L232.4 125.65 226.25 130.2 M227.45 130.2 L234.55 130.2 M220.75 130.2 L224.35 130.2 M219.05 117.25 L223.25 117.25 223.75 97.15 M196.45 116.25 L197.05 117.4 197.2 117.6 198.75 119.6 M200.35 120.5 L200.5 120.35 201.2 120.55 M165.85 130.8 Q167.7 128.9 170.05 128.9 172.35 128.9 173.9 130.6 L174.2 130.8 175.0 132.15 175.5 133.0 175.65 134.0 175.8 135.45 175.8 135.95 175.3 138.05 174.4 139.8 174.2 140.3 173.1 141.2 171.8 141.7 171.45 141.85 170.05 142.1 168.2 141.7 Q166.9 141.3 165.85 140.3 164.35 138.4 164.3 135.4 164.3 134.0 164.75 133.0 165.1 131.9 165.85 130.8 M174.35 133.0 L174.85 134.2 175.0 135.6 175.0 135.95 Q175.0 136.95 174.65 137.65 L173.9 138.9 173.75 139.2 172.4 140.05 171.0 140.3 Q169.3 140.3 168.15 138.9 166.9 137.5 166.9 135.6 166.9 134.05 167.55 133.0 L168.15 132.15 Q169.3 130.8 170.95 130.8 172.2 130.8 173.1 131.55 L173.9 132.15 174.25 132.8 174.35 133.0 M172.8 134.35 L173.0 134.95 173.15 135.65 173.15 135.8 172.95 136.7 172.5 137.45 172.4 137.5 171.8 137.9 171.0 138.1 Q170.2 138.1 169.55 137.45 168.95 136.7 168.95 135.65 168.95 134.95 169.25 134.35 L169.55 133.9 Q170.2 133.15 171.0 133.15 171.7 133.15 172.1 133.6 L172.5 133.9 172.7 134.2 172.8 134.35 M180.55 131.3 L180.7 132.0 180.9 133.0 181.1 135.45 181.1 136.2 180.55 139.5 179.35 141.7 179.0 142.4 178.3 143.1 176.75 144.6 Q175.5 145.55 174.05 146.0 L171.75 146.2 Q167.75 146.2 165.1 143.1 L164.3 142.1 164.15 141.7 Q162.4 138.9 162.4 135.45 162.4 130.9 164.95 127.85 L158.05 127.85 156.55 127.85 156.75 128.75 158.9 134.55 160.6 139.45 M160.9 140.1 L162.3 142.6 162.6 143.1 163.35 144.15 163.55 144.4 163.85 144.75 Q165.2 146.1 166.75 146.95 168.6 147.7 170.8 147.6 M171.4 147.6 L170.7 152.7 176.2 152.7 176.2 147.6 M178.45 127.85 Q179.35 128.8 179.85 130.0 L180.0 130.05 180.55 131.3 180.95 132.0 183.1 132.0 Q183.5 130.6 184.3 129.25 L182.3 127.85 M172.1 127.85 L164.95 127.85 M193.95 130.2 L194.25 130.6 194.45 130.8 195.3 132.0 195.35 132.15 195.85 133.0 195.95 134.0 196.15 135.45 196.15 135.95 195.65 138.05 194.75 139.8 194.45 140.3 193.45 141.2 192.1 141.7 191.75 141.85 190.35 142.1 Q189.3 142.1 188.55 141.7 187.25 141.3 186.2 140.3 184.75 138.4 184.65 135.4 184.65 134.0 185.05 133.0 L185.45 132.0 186.2 130.8 186.8 130.2 185.6 130.2 184.3 129.25 M190.7 130.9 L191.25 130.8 Q192.55 130.8 193.45 131.55 L194.05 132.0 194.25 132.15 194.55 132.8 194.6 133.0 195.15 134.2 195.35 135.6 195.35 135.95 Q195.35 136.95 195.0 137.65 L194.25 138.9 194.05 139.2 192.8 140.05 191.35 140.3 Q189.7 140.3 188.4 138.9 187.25 137.5 187.25 135.6 187.25 134.05 187.85 133.0 L188.4 132.15 188.65 132.0 Q189.6 131.05 190.7 130.9 L190.7 130.2 186.8 130.2 M193.05 134.35 L193.35 134.95 193.5 135.65 193.5 135.8 193.2 136.7 192.85 137.45 192.8 137.5 192.1 137.9 191.35 138.1 Q190.55 138.1 189.8 137.45 189.25 136.7 189.25 135.65 189.25 134.95 189.6 134.35 L189.8 133.9 Q190.55 133.15 191.3 133.15 192.05 133.15 192.5 133.6 L192.85 133.9 193.05 134.2 193.05 134.35 M200.45 130.2 L201.05 132.0 203.4 132.0 M201.05 132.0 L201.2 133.0 201.5 135.45 201.5 136.2 200.8 139.5 199.7 141.7 199.25 142.4 198.7 143.1 197.05 144.6 Q195.85 145.55 194.4 146.0 L192.1 146.2 Q188.15 146.2 185.4 143.1 L184.65 142.1 184.45 141.7 Q182.65 138.9 182.65 135.45 182.65 133.6 183.1 132.0 M200.45 130.2 L193.95 130.2 190.7 130.2 M233.45 152.7 L229.75 152.7 223.1 152.7 216.4 152.7 202.95 152.7 196.25 152.7 189.55 152.7 182.8 152.7 176.2 152.7 M170.7 152.7 L168.6 152.7 Q166.45 152.2 164.75 151.3 L163.55 150.65 162.8 150.2 Q161.15 149.05 159.7 147.5 158.05 145.55 156.9 143.1 L156.65 142.6 M156.55 142.25 L154.5 136.35 152.4 130.45 151.55 127.85 M150.2 127.85 L149.7 127.85 144.6 127.85 144.45 128.0 143.7 129.2 140.05 134.4 137.45 137.6 132.5 142.6 132.0 143.1 130.75 144.15 130.5 144.25 Q126.5 147.4 122.25 149.3 L118.65 150.7 Q114.35 152.2 109.85 152.65 L107.25 152.7 79.0 152.7 75.55 152.7 73.8 152.7 71.7 152.65 70.95 152.65 66.9 152.0 63.25 151.1 59.75 149.85 57.55 148.8 56.5 148.35 Q52.55 146.2 48.85 143.1 44.5 139.45 40.6 134.4 L39.45 132.8 Q26.65 115.15 26.65 90.45 26.65 80.4 28.85 71.5 L28.9 71.2 3.3 48.1 0.0 32.75 0.0 21.15 0.0 7.65 43.75 10.5 51.15 0.0 95.45 0.0 145.8 5.45 137.35 5.45 143.7 9.3 143.7 9.35 159.65 18.9 166.45 18.9 M236.5 152.7 L233.45 152.7 M236.5 152.4 L235.25 147.6 M236.5 152.4 Q239.4 152.0 242.05 151.0 L240.0 146.8 M200.45 130.2 L204.05 130.2 M201.9 125.65 L232.4 125.65 M229.75 152.7 L229.75 147.6 M216.4 147.6 L216.4 152.7 M223.1 147.6 L223.1 152.7 M196.25 152.7 L196.25 147.6 M202.95 147.6 L202.95 152.7 M182.8 152.7 L182.8 147.6 M189.55 152.7 L189.55 147.6 M166.75 146.95 L164.75 151.3 M278.7 99.0 L282.35 100.7 Q284.55 101.9 286.45 103.2 L289.55 105.8 290.4 106.55 292.1 108.4 299.0 99.0 278.7 99.0 269.05 99.0 M267.9 100.7 L282.35 100.7 M292.1 108.4 L293.25 110.05 293.65 110.75 294.75 113.7 310.45 92.6 M294.75 113.7 L294.95 114.55 295.3 115.85 296.05 118.8 296.3 120.85 296.45 124.85 Q296.3 125.35 296.3 125.95 296.05 128.15 295.3 130.2 L294.95 130.75 M294.95 130.9 L291.85 135.95 288.0 141.0 283.9 145.1 279.25 148.5 Q276.6 150.0 273.95 151.0 269.8 152.5 265.35 152.7 L236.5 152.7 M260.95 110.0 L263.55 106.55 265.95 103.2 269.05 99.0 M264.25 120.85 L264.05 118.8 263.55 116.5 263.3 115.85 258.5 116.95 M260.8 110.05 L260.95 110.0 M261.45 110.75 L293.65 110.75 M260.95 110.3 L261.15 110.05 260.8 110.05 252.75 110.05 243.75 117.0 223.25 117.25 M245.45 122.1 L246.8 121.15 M245.45 122.1 L245.45 122.0 M263.3 115.85 L262.2 112.6 261.45 110.75 M257.9 103.15 L252.75 110.05 M257.2 113.15 L260.95 110.3 M260.05 135.95 L263.1 130.9 258.45 129.1 M255.95 133.25 L260.05 135.95 291.85 135.95 M244.5 128.35 Q243.45 126.4 243.45 124.0 L243.45 123.5 M252.0 145.1 L249.05 141.3 M252.55 137.8 L256.2 141.0 260.05 135.95 M256.2 141.0 L252.0 145.1 283.9 145.1 M263.1 130.9 L263.55 130.2 264.05 128.0 264.4 125.95 259.4 125.35 M264.4 125.95 L264.5 124.85 264.25 120.85 259.4 121.05 M247.35 148.5 Q245.3 149.75 243.15 150.6 L242.05 151.0 273.95 151.0 M279.25 148.5 L247.35 148.5 244.8 144.45 M288.0 141.0 L256.2 141.0 M264.4 125.95 L296.3 125.95 M295.3 115.85 L263.3 115.85 M296.3 120.85 L264.25 120.85 M286.45 103.2 L265.95 103.2 M263.55 106.55 L290.4 106.55 M247.35 148.5 Q249.65 147.05 252.0 145.1 M263.1 130.9 L294.95 130.9 M236.95 49.15 L250.75 51.95 M143.7 9.35 L144.25 12.55 147.9 15.0 152.35 18.0 156.4 20.8 128.15 20.9 130.5 24.25 159.0 24.25 M125.55 18.0 L126.75 18.9 128.15 20.9 M134.8 30.45 L136.95 33.5 165.7 33.35 M136.95 33.5 L138.4 35.65 M132.65 27.45 L134.8 30.45 163.55 30.45 M132.8 42.0 L126.15 46.4 124.1 56.6 125.2 56.3 127.65 56.0 129.9 56.0 M130.5 24.25 L132.65 27.45 161.35 27.45 M132.8 42.0 L142.75 42.0 M125.55 18.0 L152.35 18.0 M118.95 18.9 L114.35 22.15 126.15 46.4 M117.75 12.55 L121.15 15.0 147.9 15.0 M107.55 5.45 L113.0 9.3 143.7 9.3 M113.0 9.3 L117.75 12.55 144.25 12.55 M90.65 55.4 L90.65 39.15 95.6 36.3 Q99.1 36.65 98.25 40.2 L95.4 42.0 95.4 58.0 98.25 59.7 Q99.1 63.15 95.7 63.5 L101.15 72.65 113.4 71.2 Q113.6 69.2 114.2 67.45 114.55 65.95 115.0 65.0 L116.35 62.8 112.75 60.65 112.75 39.15 117.65 36.3 Q121.15 36.65 120.35 40.2 L117.45 42.0 117.45 58.0 119.45 59.15 121.6 57.6 Q122.7 56.95 124.1 56.6 M101.75 60.65 L101.75 39.15 106.7 36.3 Q110.15 36.65 109.35 40.2 L106.45 42.0 106.45 58.0 109.35 59.7 Q110.15 63.15 106.7 63.5 L101.75 60.65 M41.0 14.4 L73.4 29.45 91.25 8.4 114.35 22.15 M107.55 5.45 L95.75 5.45 118.95 18.9 126.75 18.9 M117.5 61.15 L119.45 59.15 M113.25 74.05 Q113.25 72.5 113.4 71.2 M116.35 62.8 L117.5 61.15 M126.15 61.15 L126.95 60.2 Q128.2 58.85 129.55 58.0 130.75 57.2 132.05 56.8 M95.7 63.5 L95.6 63.5 90.65 60.65 90.65 55.4 80.2 38.05 38.35 18.0 34.8 23.1 30.15 29.6 48.2 38.5 51.35 40.05 59.9 44.35 60.8 46.7 62.7 51.7 66.4 61.45 67.6 64.5 71.4 74.5 73.9 81.1 M74.6 82.55 L74.5 82.55 76.5 87.7 79.45 95.55 79.7 96.05 79.7 96.15 80.05 97.1 83.35 98.95 89.1 102.2 91.55 103.5 99.5 107.95 103.3 110.05 111.05 114.35 116.55 117.45 128.2 108.45 Q128.35 105.85 129.1 103.8 L129.9 101.35 130.35 100.55 116.25 111.45 98.95 101.65 114.55 90.1 121.6 90.1 Q120.1 89.2 118.7 87.8 L113.4 87.8 96.8 100.5 82.25 92.35 71.25 64.2 67.95 55.7 64.55 47.05 83.3 57.6 88.75 67.35 94.2 77.15 96.15 80.7 114.3 80.7 114.0 79.75 Q113.55 78.0 113.45 76.0 M118.7 87.8 L117.5 86.55 Q115.85 84.45 114.85 82.35 L114.7 82.05 114.3 80.7 M114.0 79.75 L114.85 79.75 M147.9 56.0 L151.4 56.0 M126.15 61.15 Q123.05 65.0 122.25 70.0 121.95 71.95 121.95 74.05 121.95 77.45 123.0 80.7 L123.45 81.95 132.15 81.95 133.7 85.15 134.7 86.55 136.4 88.3 137.9 89.4 140.75 90.95 143.35 91.55 143.65 91.55 143.7 91.55 M123.45 81.95 L123.7 82.5 Q124.6 84.6 126.15 86.55 L127.35 87.8 Q129.5 89.95 132.05 90.95 L134.05 91.4 134.9 91.55 135.3 91.55 M137.35 91.55 L143.35 91.55 143.5 92.3 145.85 92.3 M130.05 91.55 L126.65 91.55 125.25 91.5 Q123.35 91.1 121.6 90.1 M134.9 91.55 L134.05 91.55 134.25 95.55 136.5 93.9 Q138.05 93.05 140.1 92.6 L142.55 92.3 143.5 92.3 M132.45 97.55 L134.25 95.55 M132.45 97.55 Q131.4 98.7 130.65 100.05 L130.35 100.55 M134.05 91.55 L130.05 91.55 130.65 100.05 M149.6 97.55 Q147.6 99.95 146.6 102.9 146.0 104.75 145.7 106.9 L145.5 110.2 145.5 110.35 Q145.5 114.45 147.05 118.25 L154.35 111.7 M154.4 111.6 L180.25 111.6 M149.85 97.55 L151.3 95.75 Q151.9 95.15 152.55 94.75 L155.65 93.1 Q156.4 92.6 157.6 92.3 M146.95 93.1 Q144.15 93.9 141.85 96.55 L141.05 97.55 Q140.05 98.8 139.3 100.2 138.25 101.95 137.65 104.1 137.15 105.85 136.95 107.85 L136.85 110.45 Q136.85 114.45 138.35 118.25 L129.6 118.35 129.75 118.7 130.75 120.5 132.45 122.85 Q135.8 126.9 140.15 127.85 L141.6 127.85 144.6 127.85 M121.15 15.0 L125.55 18.0 M123.45 81.95 L114.7 82.05 M107.55 5.45 L137.35 5.45 M118.95 18.9 L132.8 42.0 M54.2 3.6 L49.65 8.95 70.75 17.5 79.0 7.45 54.2 3.6 M38.35 18.0 L41.0 14.4 43.75 10.5 M48.2 38.5 L46.5 39.9 Q43.45 42.85 40.6 46.4 L38.15 50.1 36.75 52.0 Q35.05 54.95 33.5 58.05 L33.35 58.45 33.05 59.0 Q31.45 62.85 30.1 66.9 L28.9 71.2 M57.55 144.15 L57.45 144.15 56.5 143.7 55.4 143.1 54.45 142.6 53.5 142.15 Q46.55 137.9 40.7 130.3 L39.45 128.65 Q36.2 124.0 33.8 118.8 L33.35 117.65 33.05 117.0 Q28.05 105.15 28.05 90.35 28.05 80.35 30.45 71.5 30.6 70.7 30.9 69.85 L31.45 68.15 Q32.1 65.8 33.05 63.5 L34.75 59.85 35.7 58.05 Q36.65 56.2 38.0 54.3 38.65 53.1 39.45 52.0 L40.7 50.25 Q40.8 50.1 41.0 50.1 43.55 46.65 46.5 43.9 L49.05 41.7 Q50.15 40.85 51.35 40.05 M103.3 110.05 L102.45 111.85 101.9 113.7 Q99.45 119.2 95.7 124.15 91.25 129.75 86.1 133.25 79.75 137.3 72.3 137.65 L70.7 137.65 Q64.4 137.65 59.1 135.4 53.95 133.1 49.3 128.65 L47.6 127.05 45.3 124.15 42.4 119.9 Q40.5 116.85 39.4 113.7 35.4 104.6 35.1 93.7 34.95 92.6 34.95 91.35 34.95 74.95 42.4 62.7 L42.95 61.7 43.3 61.25 45.3 58.6 46.35 57.3 Q47.75 55.5 49.3 54.15 53.95 49.6 59.1 47.2 L60.8 46.7 M0.0 21.15 L16.1 34.75 17.95 43.9 33.35 58.45 M0.0 32.75 L11.75 42.25 13.55 51.4 30.1 66.9 M0.0 7.65 L34.8 23.1 M55.75 127.95 L53.85 126.45 51.55 124.45 50.1 123.05 48.05 120.55 45.5 116.8 Q43.8 114.05 42.8 111.25 39.25 103.2 39.05 93.55 38.9 92.6 38.9 91.5 38.9 87.85 39.05 86.85 L39.4 84.1 Q41.15 73.1 45.5 66.1 L45.95 65.2 48.05 62.4 49.0 61.4 Q50.1 59.7 51.55 58.5 L54.0 56.35 55.85 54.9 Q57.9 53.4 60.2 52.45 L62.7 51.7 M55.85 54.9 L60.65 63.5 62.55 62.55 Q63.5 62.1 64.65 61.8 L66.4 61.45 M89.1 102.2 L88.6 103.35 88.25 104.4 Q86.85 107.65 84.6 110.5 82.05 113.85 79.0 115.85 75.3 118.2 70.95 118.4 L70.0 118.4 Q66.4 118.4 63.25 117.1 60.2 115.85 57.55 113.15 L56.5 112.2 55.2 110.5 53.5 108.1 Q52.45 106.25 51.7 104.4 49.45 99.1 49.2 92.75 L49.15 91.35 Q49.15 81.75 53.5 74.6 L53.85 74.05 55.2 72.15 55.85 71.5 Q56.6 70.4 57.55 69.65 60.2 66.9 63.25 65.6 L65.05 65.0 67.6 64.5 M39.4 84.1 L47.2 85.15 Q48.25 78.3 51.65 72.65 L52.0 72.0 53.5 69.85 54.2 69.15 Q55.1 67.85 56.15 67.05 L59.0 64.55 54.0 56.35 M59.0 64.55 L60.65 63.5 M39.05 86.85 L47.0 87.5 47.2 85.15 M59.85 94.5 L53.05 90.8 59.75 87.7 Q60.35 83.65 62.55 80.4 L63.25 79.25 Q65.75 76.0 68.9 75.05 69.85 74.65 70.95 74.5 L71.4 74.5 M53.85 126.45 L58.95 118.2 56.15 115.85 54.95 114.8 53.5 112.95 51.65 110.05 Q50.45 108.15 49.65 106.0 47.05 100.05 46.85 92.9 L46.75 91.4 Q46.75 89.4 47.0 87.5 M74.0 82.4 L74.5 82.55 73.9 81.1 M59.75 87.7 L69.35 83.3 Q70.0 82.85 70.75 82.65 L72.75 82.25 74.0 82.4 53.05 90.8 76.5 87.7 M79.45 95.55 L78.8 96.95 78.0 97.95 Q75.85 100.7 72.75 100.7 L71.75 100.65 72.45 100.8 73.1 100.8 Q75.3 100.8 76.95 99.4 L77.3 99.1 78.3 98.05 79.7 96.05 M59.85 94.5 Q60.2 96.8 61.1 98.85 62.05 100.85 63.25 102.55 L65.0 104.4 Q67.6 106.9 70.95 107.35 L72.15 107.4 Q76.0 107.4 79.0 104.85 L79.6 104.4 81.25 102.55 82.8 100.1 83.35 98.95 M78.8 96.95 L53.05 90.8 M71.75 100.65 L71.7 100.65 70.0 100.05 69.8 99.95 59.85 94.5 M88.4 125.25 L82.25 117.4 82.2 117.45 80.25 118.85 Q76.05 121.5 71.2 121.75 L70.15 121.75 Q66.05 121.75 62.55 120.2 L60.95 119.45 55.75 127.95 Q57.9 129.4 60.2 130.45 65.0 132.5 70.45 132.5 L71.95 132.5 Q78.5 132.15 84.2 128.6 L88.4 125.25 89.95 123.8 83.8 116.0 82.25 117.4 M63.25 146.1 L58.15 144.45 57.55 144.15 59.75 149.85 M69.7 147.05 L63.35 146.1 66.9 152.0 M69.7 147.05 L70.95 147.05 71.5 147.05 71.7 147.05 76.3 146.65 79.0 146.2 83.5 144.95 85.15 144.25 87.55 143.1 88.45 142.6 91.35 141.0 95.55 137.6 98.55 134.65 100.1 132.8 102.1 130.3 103.0 129.2 103.8 128.0 104.75 126.8 108.3 120.5 109.2 118.8 109.5 118.2 111.05 114.35 M60.95 119.45 L58.95 118.2 M79.0 152.4 L82.25 152.0 76.3 146.65 M73.8 152.7 L69.7 147.05 M158.05 127.85 L156.4 127.55 155.65 127.35 Q153.3 126.4 151.3 124.6 L150.95 124.3 149.9 123.2 149.6 122.85 148.6 121.45 148.2 120.7 148.05 120.5 147.05 118.25 138.35 118.25 138.6 118.8 139.45 120.5 141.05 122.85 Q143.05 125.2 145.35 126.5 L146.95 127.35 149.7 127.85 M128.15 110.35 L128.2 108.45 M129.6 118.35 L128.9 116.05 128.65 114.85 125.5 117.45 117.45 117.45 117.15 118.8 116.5 120.5 130.75 120.5 M128.65 114.85 L128.35 112.3 M128.9 116.05 L129.75 116.05 M156.55 127.85 L152.25 127.85 M156.75 128.75 L152.4 130.45 M156.65 142.45 L160.9 140.1 M154.5 136.35 L158.9 134.55 M116.55 117.45 L117.45 117.45 M116.5 120.5 L109.5 118.2 M99.5 107.95 L98.7 109.55 98.1 111.25 Q96.0 116.2 92.75 120.55 L89.95 123.8 M91.55 103.5 L90.95 104.75 90.5 106.0 Q88.95 109.7 86.55 112.95 L83.8 116.0 M98.65 144.25 L91.35 141.0 M100.05 143.1 L98.65 144.25 130.5 144.25 M105.55 137.6 L100.65 142.6 100.1 143.05 M116.5 120.5 L112.6 128.0 111.9 129.2 143.7 129.2 M111.9 129.2 L108.15 134.4 105.55 137.6 137.45 137.6 M104.75 126.8 L111.9 129.2 M105.55 137.6 L98.55 134.65 M90.35 149.3 Q86.55 151.1 82.25 152.0 M90.35 149.3 Q94.75 147.4 98.65 144.25 M83.5 144.95 L90.35 149.3 122.25 149.3 M67.95 55.7 L88.75 67.35 M51.15 0.0 L95.75 5.45 M71.25 64.2 L94.2 77.15 M180.7 105.2 L154.7 105.05 149.85 97.55 M163.35 144.15 L159.7 147.5" fill="none" stroke="#000000" stroke-linecap="round" stroke-width="0.7" stroke-opacity="0.4"/>
  </g>
  <defs>
    <radialGradient cx="0" cy="0" gradientTransform="matrix(0.0248, 0.0, 0.0, 0.0248, 229.95, 53.7)" gradientUnits="userSpaceOnUse" id="gradient0" r="819.2" spreadMethod="pad">
      <stop offset="0.0" stop-color="#fedc67"/>
      <stop offset="1.0" stop-color="#ff6600"/>
    </radialGradient>
    <radialGradient cx="0" cy="0" gradientTransform="matrix(0.0212, 0.0, 0.0, 0.0212, 255.0, 61.6)" gradientUnits="userSpaceOnUse" id="gradient1" r="819.2" spreadMethod="pad">
      <stop offset="0.0" stop-color="#fedc67"/>
      <stop offset="1.0" stop-color="#ff6600"/>
    </radialGradient>
    <radialGradient cx="0" cy="0" gradientTransform="matrix(0.0248, 0.0, 0.0, 0.0248, 206.1, 47.05)" gradientUnits="userSpaceOnUse" id="gradient2" r="819.2" spreadMethod="pad">
      <stop offset="0.0" stop-color="#fedc67"/>
      <stop offset="1.0" stop-color="#ff6600"/>
    </radialGradient>
    <radialGradient cx="0" cy="0" gradientTransform="matrix(0.0337, 0.0, 0.0, 0.0337, 138.1, 31.9)" gradientUnits="userSpaceOnUse" id="gradient3" r="819.2" spreadMethod="pad">
      <stop offset="0.0" stop-color="#fedc67"/>
      <stop offset="1.0" stop-color="#ff6600"/>
    </radialGradient>
    <radialGradient cx="0" cy="0" gradientTransform="matrix(0.0336, 0.0, 0.0, 0.0336, 139.8, 34.6)" gradientUnits="userSpaceOnUse" id="gradient4" r="819.2" spreadMethod="pad">
      <stop offset="0.0" stop-color="#fedc67"/>
      <stop offset="1.0" stop-color="#ff6600"/>
    </radialGradient>
    <radialGradient cx="0" cy="0" gradientTransform="matrix(0.0393, 0.0, 0.0, 0.0393, 174.0, 60.3)" gradientUnits="userSpaceOnUse" id="gradient5" r="819.2" spreadMethod="pad">
      <stop offset="0.44313725490196076" stop-color="#898989"/>
      <stop offset="1.0" stop-color="#333333"/>
    </radialGradient>
    <linearGradient gradientTransform="matrix(-2.0E-4, 0.0216, -0.0175, -2.0E-4, 179.45, 73.45)" gradientUnits="userSpaceOnUse" id="gradient6" spreadMethod="pad" x1="-819.2" x2="819.2">
      <stop offset="0.0" stop-color="#464646"/>
      <stop offset="0.3568627450980392" stop-color="#4f4f4f"/>
      <stop offset="1.0" stop-color="#272727"/>
    </linearGradient>
    <radialGradient cx="0" cy="0" gradientTransform="matrix(0.0181, 0.0, 0.0, 0.0181, 180.2, 75.25)" gradientUnits="userSpaceOnUse" id="gradient7" r="819.2" spreadMethod="pad">
      <stop offset="0.0" stop-color="#fedc67"/>
      <stop offset="1.0" stop-color="#ff6600"/>
    </radialGradient>
    <linearGradient gradientTransform="matrix(-2.0E-4, 0.0217, -0.0135, -1.0E-4, 141.5, 73.25)" gradientUnits="userSpaceOnUse" id="gradient8" spreadMethod="pad" x1="-819.2" x2="819.2">
      <stop offset="0.0" stop-color="#cccccc"/>
      <stop offset="1.0" stop-color="#333333"/>
    </linearGradient>
    <linearGradient gradientTransform="matrix(-9.0E-4, 0.0127, -0.0212, -0.0016, 148.05, 72.55)" gradientUnits="userSpaceOnUse" id="gradient9" spreadMethod="pad" x1="-819.2" x2="819.2">
      <stop offset="0.44313725490196076" stop-color="#898989"/>
      <stop offset="0.9686274509803922" stop-color="#555555"/>
    </linearGradient>
    <radialGradient cx="0" cy="0" gradientTransform="matrix(0.0379, 0.0, 0.0, 0.0379, 190.4, 97.5)" gradientUnits="userSpaceOnUse" id="gradient10" r="819.2" spreadMethod="pad">
      <stop offset="0.44313725490196076" stop-color="#898989"/>
      <stop offset="1.0" stop-color="#333333"/>
    </radialGradient>
    <linearGradient gradientTransform="matrix(-2.0E-4, 0.0129, -0.0269, -3.0E-4, 171.7, 107.75)" gradientUnits="userSpaceOnUse" id="gradient11" spreadMethod="pad" x1="-819.2" x2="819.2">
      <stop offset="0.0" stop-color="#cccccc"/>
      <stop offset="1.0" stop-color="#333333"/>
    </linearGradient>
    <linearGradient gradientTransform="matrix(-2.0E-4, 0.0216, -0.0175, -2.0E-4, 194.35, 109.75)" gradientUnits="userSpaceOnUse" id="gradient12" spreadMethod="pad" x1="-819.2" x2="819.2">
      <stop offset="0.0" stop-color="#464646"/>
      <stop offset="0.3568627450980392" stop-color="#4f4f4f"/>
      <stop offset="1.0" stop-color="#272727"/>
    </linearGradient>
    <radialGradient cx="0" cy="0" gradientTransform="matrix(0.0181, 0.0, 0.0, 0.0181, 195.1, 111.6)" gradientUnits="userSpaceOnUse" id="gradient13" r="819.2" spreadMethod="pad">
      <stop offset="0.0" stop-color="#fedc67"/>
      <stop offset="1.0" stop-color="#ff6600"/>
    </radialGradient>
    <radialGradient cx="0" cy="0" gradientTransform="matrix(0.024, 0.0, 0.0, 0.024, 206.85, 128.5)" gradientUnits="userSpaceOnUse" id="gradient14" r="819.2" spreadMethod="pad">
      <stop offset="0.0" stop-color="#626060"/>
      <stop offset="1.0" stop-color="#333333"/>
    </radialGradient>
    <radialGradient cx="0" cy="0" gradientTransform="matrix(0.0154, 0.0, 0.0, 0.0154, 215.25, 139.2)" gradientUnits="userSpaceOnUse" id="gradient15" r="819.2" spreadMethod="pad">
      <stop offset="0.0" stop-color="#626060"/>
      <stop offset="1.0" stop-color="#333333"/>
    </radialGradient>
    <radialGradient cx="0" cy="0" gradientTransform="matrix(0.0047, 0.0, 0.0, 0.0047, 211.35, 134.4)" gradientUnits="userSpaceOnUse" id="gradient16" r="819.2" spreadMethod="pad">
      <stop offset="0.0" stop-color="#626060"/>
      <stop offset="1.0" stop-color="#333333"/>
    </radialGradient>
    <radialGradient cx="0" cy="0" gradientTransform="matrix(0.024, 0.0, 0.0, 0.024, 227.2, 128.5)" gradientUnits="userSpaceOnUse" id="gradient17" r="819.2" spreadMethod="pad">
      <stop offset="0.0" stop-color="#626060"/>
      <stop offset="1.0" stop-color="#333333"/>
    </radialGradient>
    <radialGradient cx="0" cy="0" gradientTransform="matrix(0.0154, 0.0, 0.0, 0.0154, 235.55, 139.2)" gradientUnits="userSpaceOnUse" id="gradient18" r="819.2" spreadMethod="pad">
      <stop offset="0.0" stop-color="#626060"/>
      <stop offset="1.0" stop-color="#333333"/>
    </radialGradient>
    <radialGradient cx="0" cy="0" gradientTransform="matrix(0.0047, 0.0, 0.0, 0.0047, 231.65, 134.4)" gradientUnits="userSpaceOnUse" id="gradient19" r="819.2" spreadMethod="pad">
      <stop offset="0.0" stop-color="#626060"/>
      <stop offset="1.0" stop-color="#333333"/>
    </radialGradient>
    <linearGradient gradientTransform="matrix(0.0, 0.0127, -0.0215, 0.0, 163.0, 107.85)" gradientUnits="userSpaceOnUse" id="gradient20" spreadMethod="pad" x1="-819.2" x2="819.2">
      <stop offset="0.44313725490196076" stop-color="#898989"/>
      <stop offset="0.9686274509803922" stop-color="#555555"/>
    </linearGradient>
    <radialGradient cx="0" cy="0" gradientTransform="matrix(0.024, 0.0, 0.0, 0.024, 166.25, 128.5)" gradientUnits="userSpaceOnUse" id="gradient21" r="819.2" spreadMethod="pad">
      <stop offset="0.0" stop-color="#626060"/>
      <stop offset="1.0" stop-color="#333333"/>
    </radialGradient>
    <radialGradient cx="0" cy="0" gradientTransform="matrix(0.0154, 0.0, 0.0, 0.0154, 174.6, 139.2)" gradientUnits="userSpaceOnUse" id="gradient22" r="819.2" spreadMethod="pad">
      <stop offset="0.0" stop-color="#626060"/>
      <stop offset="1.0" stop-color="#333333"/>
    </radialGradient>
    <radialGradient cx="0" cy="0" gradientTransform="matrix(0.0047, 0.0, 0.0, 0.0047, 170.7, 134.4)" gradientUnits="userSpaceOnUse" id="gradient23" r="819.2" spreadMethod="pad">
      <stop offset="0.0" stop-color="#626060"/>
      <stop offset="1.0" stop-color="#333333"/>
    </radialGradient>
    <radialGradient cx="0" cy="0" gradientTransform="matrix(0.024, 0.0, 0.0, 0.024, 186.55, 128.5)" gradientUnits="userSpaceOnUse" id="gradient24" r="819.2" spreadMethod="pad">
      <stop offset="0.0" stop-color="#626060"/>
      <stop offset="1.0" stop-color="#333333"/>
    </radialGradient>
    <radialGradient cx="0" cy="0" gradientTransform="matrix(0.0154, 0.0, 0.0, 0.0154, 194.95, 139.2)" gradientUnits="userSpaceOnUse" id="gradient25" r="819.2" spreadMethod="pad">
      <stop offset="0.0" stop-color="#626060"/>
      <stop offset="1.0" stop-color="#333333"/>
    </radialGradient>
    <radialGradient cx="0" cy="0" gradientTransform="matrix(0.0047, 0.0, 0.0, 0.0047, 191.05, 134.4)" gradientUnits="userSpaceOnUse" id="gradient26" r="819.2" spreadMethod="pad">
      <stop offset="0.0" stop-color="#626060"/>
      <stop offset="1.0" stop-color="#333333"/>
    </radialGradient>
    <linearGradient gradientTransform="matrix(0.0, -0.0323, 0.0366, 0.0, 266.4, 126.0)" gradientUnits="userSpaceOnUse" id="gradient27" spreadMethod="pad" x1="-819.2" x2="819.2">
      <stop offset="0.0" stop-color="#2b2b2b"/>
      <stop offset="0.43137254901960786" stop-color="#484848"/>
      <stop offset="0.7254901960784313" stop-color="#8b8b8b"/>
      <stop offset="1.0" stop-color="#2b2b2b"/>
    </linearGradient>
    <radialGradient cx="0" cy="0" gradientTransform="matrix(0.0233, 0.0, 0.0, 0.0233, 245.2, 115.65)" gradientUnits="userSpaceOnUse" id="gradient28" r="819.2" spreadMethod="pad">
      <stop offset="0.0" stop-color="#cccccc"/>
      <stop offset="1.0" stop-color="#333333"/>
    </radialGradient>
    <radialGradient cx="0" cy="0" gradientTransform="matrix(0.0304, 0.0, 0.0, 0.0304, 122.9, 14.35)" gradientUnits="userSpaceOnUse" id="gradient29" r="819.2" spreadMethod="pad">
      <stop offset="0.0" stop-color="#fedc67"/>
      <stop offset="1.0" stop-color="#ff6600"/>
    </radialGradient>
    <radialGradient cx="0" cy="0" gradientTransform="matrix(0.0322, 0.0, 0.0, 0.0322, 129.9, 19.75)" gradientUnits="userSpaceOnUse" id="gradient30" r="819.2" spreadMethod="pad">
      <stop offset="0.0" stop-color="#fedc67"/>
      <stop offset="1.0" stop-color="#ff6600"/>
    </radialGradient>
    <radialGradient cx="0" cy="0" gradientTransform="matrix(0.0345, 0.0, 0.0, 0.0345, 130.7, 22.05)" gradientUnits="userSpaceOnUse" id="gradient31" r="819.2" spreadMethod="pad">
      <stop offset="0.0" stop-color="#fedc67"/>
      <stop offset="1.0" stop-color="#ff6600"/>
    </radialGradient>
    <radialGradient cx="0" cy="0" gradientTransform="matrix(0.0327, 0.0, 0.0, 0.0327, 125.6, 16.45)" gradientUnits="userSpaceOnUse" id="gradient32" r="819.2" spreadMethod="pad">
      <stop offset="0.0" stop-color="#fedc67"/>
      <stop offset="1.0" stop-color="#ff6600"/>
    </radialGradient>
    <radialGradient cx="0" cy="0" gradientTransform="matrix(0.0341, 0.0, 0.0, 0.0341, 135.55, 29.2)" gradientUnits="userSpaceOnUse" id="gradient33" r="819.2" spreadMethod="pad">
      <stop offset="0.0" stop-color="#fedc67"/>
      <stop offset="1.0" stop-color="#ff6600"/>
    </radialGradient>
    <radialGradient cx="0" cy="0" gradientTransform="matrix(0.0342, 0.0, 0.0, 0.0342, 133.3, 25.35)" gradientUnits="userSpaceOnUse" id="gradient34" r="819.2" spreadMethod="pad">
      <stop offset="0.0" stop-color="#fedc67"/>
      <stop offset="1.0" stop-color="#ff6600"/>
    </radialGradient>
    <linearGradient gradientTransform="matrix(-0.0013, 0.022, -0.014, -0.0012, 141.9, 72.85)" gradientUnits="userSpaceOnUse" id="gradient35" spreadMethod="pad" x1="-819.2" x2="819.2">
      <stop offset="0.0" stop-color="#cccccc"/>
      <stop offset="1.0" stop-color="#333333"/>
    </linearGradient>
    <linearGradient gradientTransform="matrix(-8.0E-4, 0.0131, -0.0074, -4.0E-4, 119.35, 71.4)" gradientUnits="userSpaceOnUse" id="gradient36" spreadMethod="pad" x1="-819.2" x2="819.2">
      <stop offset="0.44313725490196076" stop-color="#898989"/>
      <stop offset="0.9686274509803922" stop-color="#555555"/>
    </linearGradient>
    <linearGradient gradientTransform="matrix(6.0E-4, 0.0128, -0.0082, 4.0E-4, 128.5, 71.45)" gradientUnits="userSpaceOnUse" id="gradient37" spreadMethod="pad" x1="-819.2" x2="819.2">
      <stop offset="0.44313725490196076" stop-color="#898989"/>
      <stop offset="0.9686274509803922" stop-color="#555555"/>
    </linearGradient>
    <linearGradient gradientTransform="matrix(-0.0013, 0.022, -0.014, -0.0012, 156.75, 109.25)" gradientUnits="userSpaceOnUse" id="gradient38" spreadMethod="pad" x1="-819.2" x2="819.2">
      <stop offset="0.0" stop-color="#cccccc"/>
      <stop offset="1.0" stop-color="#333333"/>
    </linearGradient>
    <linearGradient gradientTransform="matrix(-0.0013, 0.0133, -0.0071, -7.0E-4, 134.05, 107.75)" gradientUnits="userSpaceOnUse" id="gradient39" spreadMethod="pad" x1="-819.2" x2="819.2">
      <stop offset="0.44313725490196076" stop-color="#898989"/>
      <stop offset="0.9686274509803922" stop-color="#555555"/>
    </linearGradient>
    <linearGradient gradientTransform="matrix(7.0E-4, 0.0128, -0.0082, 4.0E-4, 143.4, 107.85)" gradientUnits="userSpaceOnUse" id="gradient40" spreadMethod="pad" x1="-819.2" x2="819.2">
      <stop offset="0.44313725490196076" stop-color="#898989"/>
      <stop offset="0.9686274509803922" stop-color="#555555"/>
    </linearGradient>
    <radialGradient cx="0" cy="0" gradientTransform="matrix(0.1358, 0.0, 0.0, 0.1358, 111.8, 129.1)" gradientUnits="userSpaceOnUse" id="gradient41" r="819.2" spreadMethod="pad">
      <stop offset="0.0" stop-color="#2b2b2b"/>
      <stop offset="1.0" stop-color="#555555"/>
    </radialGradient>
    <radialGradient cx="0" cy="0" gradientTransform="matrix(0.1273, 0.0, 0.0, 0.1273, 78.75, 140.3)" gradientUnits="userSpaceOnUse" id="gradient42" r="819.2" spreadMethod="pad">
      <stop offset="0.09411764705882353" stop-color="#858585"/>
      <stop offset="1.0" stop-color="#333333"/>
    </radialGradient>
    <radialGradient cx="0" cy="0" gradientTransform="matrix(0.0922, 0.0, 0.0, 0.0922, 39.3, 74.4)" gradientUnits="userSpaceOnUse" id="gradient43" r="819.2" spreadMethod="pad">
      <stop offset="0.09411764705882353" stop-color="#858585"/>
      <stop offset="0.9333333333333333" stop-color="#4d4d4d"/>
    </radialGradient>
    <linearGradient gradientTransform="matrix(0.0244, 0.0, 0.0, 0.0329, 69.05, 91.4)" gradientUnits="userSpaceOnUse" id="gradient44" spreadMethod="pad" x1="-819.2" x2="819.2">
      <stop offset="0.0" stop-color="#cccccc"/>
      <stop offset="1.0" stop-color="#333333"/>
    </linearGradient>
    <radialGradient cx="0" cy="0" gradientTransform="matrix(0.0207, 0.0, 0.0, 0.0207, 49.65, 70.5)" gradientUnits="userSpaceOnUse" id="gradient45" r="819.2" spreadMethod="pad">
      <stop offset="0.0" stop-color="#fedc67"/>
      <stop offset="1.0" stop-color="#ff6600"/>
    </radialGradient>
    <radialGradient cx="0" cy="0" gradientTransform="matrix(0.0234, 0.0, 0.0, 0.0234, 56.05, 89.15)" gradientUnits="userSpaceOnUse" id="gradient46" r="819.2" spreadMethod="pad">
      <stop offset="0.0" stop-color="#cccccc"/>
      <stop offset="1.0" stop-color="#555555"/>
    </radialGradient>
    <radialGradient cx="0" cy="0" gradientTransform="matrix(0.0298, 0.0, 0.0, 0.0298, 55.0, 91.15)" gradientUnits="userSpaceOnUse" id="gradient47" r="819.2" spreadMethod="pad">
      <stop offset="0.0" stop-color="#f7f7f7"/>
      <stop offset="0.21568627450980393" stop-color="#cccccc"/>
      <stop offset="1.0" stop-color="#555555"/>
    </radialGradient>
    <radialGradient cx="0" cy="0" gradientTransform="matrix(0.0313, 0.0, 0.0, 0.0313, 54.7, 90.55)" gradientUnits="userSpaceOnUse" id="gradient48" r="819.2" spreadMethod="pad">
      <stop offset="0.0" stop-color="#f7f7f7"/>
      <stop offset="0.21568627450980393" stop-color="#cccccc"/>
      <stop offset="1.0" stop-color="#555555"/>
    </radialGradient>
    <radialGradient cx="0" cy="0" gradientTransform="matrix(0.0161, 0.0, 0.0, 0.0161, 68.8, 88.95)" gradientUnits="userSpaceOnUse" id="gradient49" r="819.2" spreadMethod="pad">
      <stop offset="0.0" stop-color="#cccccc"/>
      <stop offset="1.0" stop-color="#333333"/>
    </radialGradient>
    <radialGradient cx="0" cy="0" gradientTransform="matrix(0.0211, 0.0, 0.0, 0.0211, 71.1, 126.3)" gradientUnits="userSpaceOnUse" id="gradient50" r="819.2" spreadMethod="pad">
      <stop offset="0.0" stop-color="#fedc67"/>
      <stop offset="1.0" stop-color="#ff6600"/>
    </radialGradient>
    <linearGradient gradientTransform="matrix(0.0, -0.0217, 0.0425, 0.0, 113.8, 134.7)" gradientUnits="userSpaceOnUse" id="gradient51" spreadMethod="pad" x1="-819.2" x2="819.2">
      <stop offset="0.0" stop-color="#2b2b2b"/>
      <stop offset="0.7098039215686275" stop-color="#363636"/>
      <stop offset="1.0" stop-color="#242424"/>
    </linearGradient>
    <linearGradient gradientTransform="matrix(0.0, -0.0217, 0.0425, 0.0, 113.8, 134.7)" gradientUnits="userSpaceOnUse" id="gradient52" spreadMethod="pad" x1="-819.2" x2="819.2">
      <stop offset="0.0" stop-color="#2b2b2b"/>
      <stop offset="0.43137254901960786" stop-color="#484848"/>
      <stop offset="0.7254901960784313" stop-color="#8b8b8b"/>
      <stop offset="1.0" stop-color="#2b2b2b"/>
    </linearGradient>
  </defs>
</svg>
