<?xml version="1.0" encoding="UTF-8" standalone="no"?>
<svg xmlns:xlink="http://www.w3.org/1999/xlink" height="153.0px" width="329.65px" xmlns="http://www.w3.org/2000/svg">
  <g transform="matrix(1.0, 0.0, 0.0, 1.0, 0.05, 0.05)">
    <path d="M194.4 18.75 L212.05 18.75 228.3 31.3 234.2 44.45 230.35 44.45 227.85 38.9 225.4 33.4 211.9 22.95 197.95 22.95 197.9 22.95 190.15 32.8 192.75 40.95 195.25 49.0 191.15 51.9 184.6 31.3 194.4 18.75 M277.85 79.35 L281.3 72.05 310.45 72.05 307.0 79.35 303.05 79.35 305.05 75.1 284.45 75.1 282.45 79.35 277.85 79.35 M275.95 96.35 L327.45 96.35 321.4 108.9 318.15 103.95 280.9 103.95 278.95 108.15 275.55 115.05 272.6 121.1 269.6 127.15 268.7 127.15 Q269.9 127.8 270.85 129.05 272.9 131.55 272.9 135.2 272.9 138.75 270.85 141.3 268.9 143.85 266.0 143.85 263.1 143.85 261.1 141.3 259.15 138.75 259.15 135.2 259.15 131.55 261.1 129.05 262.15 127.8 263.35 127.15 L260.95 127.15 263.9 121.1 272.6 121.1 263.9 121.1 275.95 96.35 M177.6 115.45 Q177.6 119.0 175.6 121.45 173.65 123.95 170.8 123.95 167.85 123.95 165.85 121.45 163.9 118.95 163.9 115.4 163.9 111.75 165.85 109.25 167.3 107.5 169.1 106.95 L170.8 106.75 171.75 106.8 172.0 107.05 177.6 115.45 M167.4 115.6 Q167.45 117.55 168.55 119.0 169.75 120.55 171.5 120.55 173.25 120.55 174.4 119.0 175.65 117.5 175.65 115.4 175.65 113.15 174.4 111.65 173.25 110.15 171.5 110.15 169.75 110.15 168.55 111.65 167.6 112.95 167.4 114.65 167.6 112.95 168.55 111.65 169.75 110.15 171.5 110.15 173.25 110.15 174.4 111.65 175.65 113.15 175.65 115.4 175.65 117.5 174.4 119.0 173.25 120.55 171.5 120.55 169.75 120.55 168.55 119.0 167.45 117.55 167.4 115.6 M189.7 127.15 Q190.85 127.8 191.85 129.05 193.85 131.55 193.85 135.2 193.85 138.75 191.85 141.3 189.8 143.85 186.95 143.85 184.1 143.85 182.1 141.3 180.15 138.75 180.15 135.2 180.15 131.55 182.1 129.05 183.5 127.4 185.3 126.8 L185.55 127.15 189.7 127.15 M183.6 135.4 Q183.7 137.4 184.8 138.9 186.0 140.35 187.75 140.35 189.45 140.35 190.65 138.9 191.9 137.35 191.9 135.2 191.9 133.0 190.65 131.5 189.45 129.95 187.75 129.95 186.0 129.95 184.8 131.5 183.75 132.75 183.6 134.5 183.75 132.75 184.8 131.5 186.0 129.95 187.75 129.95 189.45 129.95 190.65 131.5 191.9 133.0 191.9 135.2 191.9 137.35 190.65 138.9 189.45 140.35 187.75 140.35 186.0 140.35 184.8 138.9 183.7 137.4 183.6 135.4 M268.7 127.15 L263.35 127.15 268.7 127.15 M262.65 135.4 Q262.7 137.4 263.8 138.9 265.0 140.35 266.75 140.35 268.5 140.35 269.65 138.9 270.95 137.35 270.95 135.2 270.95 133.0 269.65 131.5 268.5 129.95 266.75 129.95 265.0 129.95 263.8 131.5 262.75 132.75 262.65 134.5 262.75 132.75 263.8 131.5 265.0 129.95 266.75 129.95 268.5 129.95 269.65 131.5 270.95 133.0 270.95 135.2 270.95 137.35 269.65 138.9 268.5 140.35 266.75 140.35 265.0 140.35 263.8 138.9 262.7 137.4 262.65 135.4 M129.05 96.35 L161.95 96.35 159.45 103.85 134.2 103.85 131.85 108.65 129.95 112.55 127.45 117.75 122.85 127.15 114.05 127.15 117.0 121.1 129.05 96.35 M20.7 101.05 Q20.7 104.6 18.7 107.1 16.7 109.6 13.85 109.6 11.0 109.6 9.0 107.1 6.95 104.6 6.95 101.05 6.95 97.4 9.0 94.9 11.0 92.4 13.85 92.4 16.7 92.4 18.7 94.9 20.7 97.4 20.7 101.05 M10.45 101.25 Q10.5 103.2 11.65 104.65 12.9 106.2 14.65 106.2 16.3 106.2 17.5 104.65 18.75 103.15 18.75 101.05 18.75 98.8 17.5 97.3 16.3 95.8 14.65 95.8 12.9 95.8 11.65 97.3 10.65 98.6 10.5 100.25 10.65 98.6 11.65 97.3 12.9 95.8 14.65 95.8 16.3 95.8 17.5 97.3 18.75 98.8 18.75 101.05 18.75 103.15 17.5 104.65 16.3 106.2 14.65 106.2 12.9 106.2 11.65 104.65 10.5 103.2 10.45 101.25 M34.35 127.15 Q35.45 127.85 36.45 129.05 37.55 130.4 38.05 132.05 38.45 133.5 38.45 135.2 38.45 138.75 36.45 141.3 34.5 143.85 31.65 143.85 28.8 143.85 26.7 141.3 24.75 138.75 24.75 135.2 24.75 131.55 26.7 129.05 L27.3 128.5 Q29.15 126.55 31.65 126.55 L33.3 126.75 33.45 127.15 34.35 127.15 M28.2 135.4 Q28.3 137.4 29.4 138.9 30.6 140.35 32.4 140.35 34.1 140.35 35.25 138.9 36.5 137.35 36.5 135.2 36.5 133.0 35.25 131.5 34.1 129.95 32.4 129.95 30.6 129.95 29.4 131.5 28.45 132.75 28.2 134.5 28.45 132.75 29.4 131.5 30.6 129.95 32.4 129.95 34.1 129.95 35.25 131.5 36.5 133.0 36.5 135.2 36.5 137.35 35.25 138.9 34.1 140.35 32.4 140.35 30.6 140.35 29.4 138.9 28.3 137.4 28.2 135.4 M126.15 135.4 Q126.2 137.4 127.3 138.9 128.55 140.35 130.3 140.35 132.0 140.35 133.15 138.9 134.4 137.35 134.4 135.2 134.4 133.0 133.15 131.5 132.0 129.95 130.3 129.95 128.55 129.95 127.3 131.5 126.35 132.75 126.2 134.5 126.35 132.75 127.3 131.5 128.55 129.95 130.3 129.95 132.0 129.95 133.15 131.5 134.4 133.0 134.4 135.2 134.4 137.35 133.15 138.9 132.0 140.35 130.3 140.35 128.55 140.35 127.3 138.9 126.2 137.4 126.15 135.4 M136.35 135.2 Q136.35 138.75 134.35 141.3 132.4 143.85 129.55 143.85 126.7 143.85 124.65 141.3 122.65 138.75 122.65 135.2 122.65 131.55 124.65 129.05 126.7 126.55 129.55 126.55 132.4 126.55 134.35 129.05 136.35 131.55 136.35 135.2 M125.2 121.1 L117.0 121.1 125.2 121.1" fill="#595959" fill-rule="evenodd" stroke="none"/>
    <path d="M234.2 44.45 L253.65 44.45 303.4 56.05 251.5 56.05 201.75 44.45 207.45 44.45 222.45 44.45 230.35 44.45 234.2 44.45" fill="#b2b2b2" fill-rule="evenodd" stroke="none"/>
    <path d="M12.95 72.95 L11.0 67.85 28.65 31.9 31.9 25.25 37.65 25.25 37.65 31.9 41.45 31.9 41.45 25.25 45.3 25.25 45.3 31.9 49.15 31.9 52.9 31.9 49.15 31.9 49.15 25.25 52.9 25.25 52.9 31.9 56.7 31.9 56.7 25.25 60.55 25.25 60.55 31.9 56.7 31.9 60.55 31.9 64.4 31.9 64.4 25.25 68.15 25.25 68.15 31.9 64.4 31.9 68.15 31.9 72.0 31.9 72.0 25.25 75.8 25.25 75.8 31.9 79.65 31.9 79.65 25.25 83.5 25.25 83.5 31.9 87.25 31.9 87.25 25.25 91.1 25.25 91.1 31.9 87.25 31.9 91.1 31.9 94.9 31.9 94.9 25.25 106.75 25.25 122.45 75.25 117.7 84.45 109.9 59.85 117.7 84.45 122.45 75.25 129.05 96.35 117.0 121.1 31.3 121.4 30.95 120.55 30.75 120.0 30.65 119.9 26.15 107.85 42.7 107.75 26.15 107.85 15.9 80.7 12.95 72.95 M268.2 63.35 L281.3 72.05 277.85 79.35 268.2 63.35 M262.7 89.95 L262.9 89.55 267.05 81.6 262.9 89.55 262.7 89.95 M267.05 81.6 L275.95 96.35 263.9 121.1 260.95 127.15 189.7 127.15 185.55 127.15 185.3 126.8 181.45 121.1 177.6 115.45 172.0 107.05 171.75 106.8 169.9 104.05 167.3 100.2 167.25 100.0 173.65 76.7 177.9 61.25 178.6 60.75 183.25 57.5 189.25 53.25 191.15 51.9 195.25 49.0 245.55 61.1 262.9 89.55 245.55 61.1 195.25 49.0 201.75 44.45 251.5 56.05 267.05 81.6 M262.35 90.6 L253.8 107.05 248.3 107.05 246.4 103.55 243.9 99.0 241.3 94.35 238.75 89.75 236.25 85.15 233.65 80.5 231.15 75.9 230.1 74.05 227.95 73.5 224.4 72.7 220.85 71.75 217.2 70.85 213.65 70.05 210.1 69.15 206.45 68.3 202.9 67.4 199.35 66.5 195.75 65.65 192.2 64.75 188.65 63.9 185.0 63.0 177.9 61.25 185.0 63.0 188.65 63.9 192.2 64.75 195.75 65.65 199.35 66.5 202.9 67.4 206.45 68.3 210.1 69.15 213.65 70.05 217.2 70.85 220.85 71.75 224.4 72.7 227.95 73.5 230.1 74.05 231.15 75.9 233.65 80.5 236.25 85.15 238.75 89.75 241.3 94.35 243.9 99.0 246.4 103.55 248.3 107.05 253.8 107.05 262.35 90.6 M199.35 66.5 L192.25 92.25 199.35 66.5 M195.75 65.65 L188.4 92.25 195.75 65.65 M192.2 64.75 L184.6 92.25 192.2 64.75 M188.65 63.9 L180.85 92.25 188.65 63.9 M185.0 63.0 L177.0 92.25 185.0 63.0 M181.25 63.0 L173.15 92.25 181.25 63.0 M173.0 92.7 L169.9 104.05 173.0 92.7 M202.9 67.4 L196.1 92.25 202.9 67.4 M206.45 68.3 L199.9 92.25 206.45 68.3 M213.65 70.05 L207.5 92.25 213.65 70.05 M217.2 70.85 L211.35 92.25 217.2 70.85 M220.85 71.75 L215.2 92.25 220.85 71.75 M210.1 69.15 L203.7 92.25 210.1 69.15 M224.4 72.7 L218.95 92.25 224.4 72.7 M227.95 73.5 L222.8 92.25 227.95 73.5 M236.25 85.15 L234.25 92.25 236.25 85.15 M231.15 75.9 L226.6 92.25 231.15 75.9 M233.65 80.5 L230.45 92.25 233.65 80.5 M238.75 89.75 L238.05 92.25 238.75 89.75 M211.05 107.05 L207.25 107.05 203.45 107.05 207.4 92.7 203.45 107.05 207.25 107.05 211.2 92.7 207.25 107.05 211.05 107.05 215.05 92.7 211.05 107.05 214.9 107.05 211.05 107.05 M226.45 92.7 L222.5 107.05 218.75 107.05 214.9 107.05 218.85 92.7 214.9 107.05 218.75 107.05 222.7 92.7 218.75 107.05 222.5 107.05 226.45 92.7 M230.15 107.05 L226.35 107.05 230.3 92.7 226.35 107.05 230.15 107.05 234.15 92.7 230.15 107.05 234.0 107.05 237.95 92.7 234.0 107.05 230.15 107.05 M237.85 107.05 L234.0 107.05 237.85 107.05 241.3 94.35 237.85 107.05 241.6 107.05 242.35 104.45 241.6 107.05 237.85 107.05 M184.5 92.7 L180.55 107.05 176.7 107.05 172.9 107.05 176.85 92.7 172.9 107.05 176.7 107.05 180.7 92.7 176.7 107.05 180.55 107.05 184.5 92.7 M195.8 107.05 L192.0 107.05 188.15 107.05 192.1 92.7 188.15 107.05 192.0 107.05 195.95 92.7 192.0 107.05 195.8 107.05 199.8 92.7 195.8 107.05 199.65 107.05 203.6 92.7 199.65 107.05 195.8 107.05 M188.15 107.05 L184.4 107.05 188.35 92.7 184.4 107.05 188.15 107.05 M226.35 107.05 L222.5 107.05 226.35 107.05 M172.9 107.05 L172.0 107.05 172.9 107.05 M181.45 121.1 L263.9 121.1 181.45 121.1 M203.45 107.05 L199.65 107.05 203.45 107.05 M184.4 107.05 L180.55 107.05 184.4 107.05 M248.3 107.05 L245.4 107.05 246.4 103.55 245.4 107.05 248.3 107.05 M245.4 107.05 L241.6 107.05 245.4 107.05 M243.9 99.0 L242.55 103.85 243.9 99.0 M109.9 59.85 L107.95 53.6 101.05 31.9 94.9 31.9 101.05 31.9 107.95 53.6 109.9 59.85 110.75 59.85 109.9 59.85 92.0 59.85 109.9 59.85 M83.75 50.1 L91.1 31.9 83.75 50.1 75.55 46.6 38.6 46.6 45.3 31.9 38.6 46.6 30.5 46.6 37.65 31.9 30.5 46.6 23.6 51.9 23.6 67.4 70.65 67.4 75.55 72.6 39.0 72.6 29.7 72.6 23.6 67.4 29.7 72.6 39.0 72.6 75.55 72.6 70.65 67.4 71.0 67.4 92.0 66.15 92.0 59.85 92.0 53.6 83.75 50.1 M107.95 53.6 L92.0 53.6 107.95 53.6 M83.5 31.9 L79.65 31.9 83.5 31.9 M87.4 76.7 L83.75 69.4 92.0 66.15 83.75 69.4 87.4 76.7 86.4 76.3 41.4 76.3 40.7 76.85 39.0 72.6 40.7 76.85 34.5 81.6 34.5 85.55 34.5 97.05 81.55 97.05 81.9 97.05 102.85 95.8 102.85 83.25 87.4 76.7 M108.5 102.35 L99.95 102.35 97.7 97.85 102.85 95.8 97.7 97.85 99.95 102.35 108.5 102.35 111.55 96.35 108.5 102.35 106.05 107.05 52.4 107.6 42.7 107.75 52.4 107.6 50.4 102.3 40.7 102.3 40.55 102.3 34.5 97.05 40.55 102.3 40.7 102.3 50.4 102.3 86.4 102.3 81.55 97.05 86.4 102.3 90.4 100.75 97.7 97.85 90.4 100.75 86.4 102.3 50.4 102.3 52.4 107.6 106.05 107.05 108.5 102.35 M112.05 95.45 L117.7 84.45 112.05 95.45 M75.8 31.9 L72.0 31.9 75.8 31.9 M45.3 31.9 L41.45 31.9 45.3 31.9 M28.65 31.9 L37.65 31.9 28.65 31.9 M34.5 85.55 L29.7 72.6 34.5 85.55 M42.7 107.75 L40.7 102.3 42.7 107.75 M99.95 102.35 L91.35 102.35 90.4 100.75 91.35 102.35 99.95 102.35 M75.55 72.6 L83.75 69.4 75.55 72.6" fill="#666666" fill-rule="evenodd" stroke="none"/>
    <path d="M318.95 81.6 L327.85 96.35 327.45 96.35 275.95 96.35 267.05 81.6 251.5 56.05 303.4 56.05 318.95 81.6 272.6 81.6 318.95 81.6 M268.2 63.35 L277.85 79.35 282.45 79.35 303.05 79.35 307.0 79.35 310.45 72.05 297.35 63.35 268.2 63.35 M271.7 81.6 L267.05 81.6 271.7 81.6" fill="#8c8c8c" fill-rule="evenodd" stroke="none"/>
    <path d="M260.35 152.9 L191.35 152.9 Q185.8 152.75 180.4 149.1 L179.65 148.55 Q176.8 146.45 174.05 143.4 L162.2 129.25 160.15 126.75 Q158.1 124.5 157.05 122.1 L157.0 122.0 Q155.6 118.8 155.9 115.35 156.15 112.8 157.25 110.15 L157.75 108.65 159.45 103.85 161.95 96.35 165.5 85.8 159.85 85.8 153.95 85.8 148.1 85.8 140.6 85.8 137.35 75.25 132.75 60.75 138.55 60.75 140.2 60.75 144.25 60.75 146.15 60.75 149.95 60.75 152.05 60.75 155.65 60.75 161.4 60.75 167.1 60.75 172.9 60.75 178.6 60.75 177.9 61.25 173.65 76.7 Q167.1 79.5 165.5 85.8 167.1 79.5 173.65 76.7 L167.25 100.0 167.3 100.2 163.75 110.8 Q162.8 113.1 162.55 115.25 162.3 118.25 163.55 120.95 164.45 123.05 166.2 125.1 L178.2 139.45 Q180.55 142.1 183.0 143.85 L183.7 144.3 Q188.3 147.45 193.15 147.65 L261.15 147.65 Q269.8 146.8 272.65 141.45 L279.3 131.2 Q282.5 125.1 277.0 117.3 L275.55 115.05 278.95 108.15 281.1 111.5 283.25 114.75 285.75 118.95 Q287.6 122.85 287.5 126.4 287.5 129.4 286.1 132.1 L285.5 133.1 282.2 138.25 278.85 143.4 277.9 144.95 Q276.8 147.05 274.95 148.55 272.95 150.25 270.1 151.3 266.1 152.7 260.35 152.9 M129.0 152.9 L35.95 152.9 Q25.1 152.25 19.7 143.4 L1.4 107.5 Q-1.4 99.45 1.4 91.3 L12.95 72.95 15.9 80.7 7.45 94.0 Q5.1 100.85 7.1 107.65 L23.2 139.1 Q27.85 146.95 37.35 147.65 L125.85 147.65 Q135.1 146.15 137.35 138.6 139.45 131.4 133.45 124.2 L127.45 117.75 129.95 112.55 132.6 115.35 138.9 122.0 Q141.85 125.65 143.35 129.25 144.85 132.9 144.75 136.5 144.65 138.75 143.95 140.95 L142.85 143.95 Q141.45 146.6 139.15 148.55 137.3 150.15 134.7 151.3 132.1 152.35 129.0 152.9 M50.85 11.85 L53.65 0.0 57.5 0.0 64.4 0.0 59.95 18.55 53.1 18.55 49.25 18.55 50.85 11.85 M72.75 0.0 L76.6 0.0 83.5 0.0 79.0 18.55 72.1 18.55 68.35 18.55 69.95 11.85 72.75 0.0 M91.85 0.0 L95.65 0.0 102.55 0.0 98.1 18.55 91.2 18.55 87.45 18.55 89.05 11.85 91.85 0.0 M178.9 31.3 L181.45 39.3 171.85 39.3 167.65 44.9 147.1 44.9 145.65 40.15 147.1 44.9 167.65 44.9 171.85 39.3 181.45 39.3 178.9 31.3 184.6 31.3 191.15 51.9 189.25 53.25 181.95 53.25 176.25 53.25 170.5 53.25 164.8 53.25 159.0 53.25 153.3 53.25 149.7 53.25 147.6 53.25 143.75 53.25 141.85 53.25 137.85 53.25 136.15 53.25 130.4 53.25 123.55 31.3 131.0 31.3 136.95 31.3 139.35 39.15 136.95 31.3 142.85 31.3 178.9 31.3 M145.3 39.15 L142.85 31.3 145.3 39.15 M156.15 73.95 L152.05 60.75 156.15 73.95 M181.45 39.3 L185.45 51.9 181.45 39.3 M133.45 39.15 L131.0 31.3 133.45 39.15 M95.65 0.0 L94.65 4.4 95.65 0.0 M94.4 5.15 L91.2 18.55 94.4 5.15 M147.1 44.9 L149.7 53.25 147.1 44.9 M150.25 73.95 L146.15 60.75 150.25 73.95 M133.8 40.15 L137.85 53.25 133.8 40.15 M144.5 74.5 L148.1 85.8 144.5 74.5 M144.3 73.95 L140.2 60.75 144.3 73.95 M153.95 85.8 L150.45 74.5 153.95 85.8 M159.85 85.8 L156.35 74.5 159.85 85.8 M76.6 0.0 L75.6 4.05 76.6 0.0 M139.7 40.15 L143.75 53.25 139.7 40.15 M57.5 0.0 L56.6 3.6 57.5 0.0 M75.45 4.75 L72.1 18.55 75.45 4.75 M56.35 4.75 L53.1 18.55 56.35 4.75" fill="#333333" fill-rule="evenodd" stroke="none"/>
    <path d="M167.3 100.2 L169.9 104.05 171.75 106.8 170.8 106.75 169.1 106.95 Q167.3 107.5 165.85 109.25 163.9 111.75 163.9 115.4 163.9 118.95 165.85 121.45 167.85 123.95 170.8 123.95 173.65 123.95 175.6 121.45 177.6 119.0 177.6 115.45 L181.45 121.1 185.3 126.8 Q183.5 127.4 182.1 129.05 180.15 131.55 180.15 135.2 180.15 138.75 182.1 141.3 184.1 143.85 186.95 143.85 189.8 143.85 191.85 141.3 193.85 138.75 193.85 135.2 193.85 131.55 191.85 129.05 190.85 127.8 189.7 127.15 L260.95 127.15 263.35 127.15 Q262.15 127.8 261.1 129.05 259.15 131.55 259.15 135.2 259.15 138.75 261.1 141.3 263.1 143.85 266.0 143.85 268.9 143.85 270.85 141.3 272.9 138.75 272.9 135.2 272.9 131.55 270.85 129.05 269.9 127.8 268.7 127.15 L269.6 127.15 272.6 121.1 275.55 115.05 277.0 117.3 Q282.5 125.1 279.3 131.2 L272.65 141.45 Q269.8 146.8 261.15 147.65 L193.15 147.65 Q188.3 147.45 183.7 144.3 L183.0 143.85 Q180.55 142.1 178.2 139.45 L166.2 125.1 Q164.45 123.05 163.55 120.95 162.3 118.25 162.55 115.25 162.8 113.1 163.75 110.8 L167.3 100.2 M236.7 141.85 L236.7 142.45 Q236.7 144.3 237.7 145.65 238.75 146.9 240.25 146.9 241.65 146.9 242.7 145.65 243.75 144.3 243.75 142.45 L243.75 141.85 243.75 142.45 Q243.75 144.3 242.7 145.65 241.65 146.9 240.25 146.9 238.75 146.9 237.7 145.65 236.7 144.3 236.7 142.45 L236.7 141.85 M243.7 141.55 Q243.45 140.25 242.7 139.3 241.65 137.95 240.25 137.95 238.75 137.95 237.7 139.3 237.0 140.25 236.8 141.55 237.0 140.25 237.7 139.3 238.75 137.95 240.25 137.95 241.65 137.95 242.7 139.3 243.45 140.25 243.7 141.55 M234.2 141.55 Q233.95 140.25 233.15 139.3 232.1 137.95 230.7 137.95 229.2 137.95 228.2 139.3 227.45 140.25 227.25 141.55 227.45 140.25 228.2 139.3 229.2 137.95 230.7 137.95 232.1 137.95 233.15 139.3 233.95 140.25 234.2 141.55 M227.15 141.85 L227.15 142.45 Q227.15 144.3 228.2 145.65 229.2 146.9 230.7 146.9 232.1 146.9 233.15 145.65 234.2 144.3 234.2 142.45 L234.2 141.85 234.2 142.45 Q234.2 144.3 233.15 145.65 232.1 146.9 230.7 146.9 229.2 146.9 228.2 145.65 227.15 144.3 227.15 142.45 L227.15 141.85 M217.6 141.85 L217.6 142.45 Q217.6 144.3 218.65 145.65 219.65 146.9 221.15 146.9 222.65 146.9 223.6 145.65 224.65 144.3 224.65 142.45 L224.65 141.85 224.65 142.45 Q224.65 144.3 223.6 145.65 222.65 146.9 221.15 146.9 219.65 146.9 218.65 145.65 217.6 144.3 217.6 142.45 L217.6 141.85 M224.65 141.55 Q224.4 140.25 223.6 139.3 222.65 137.95 221.15 137.95 219.65 137.95 218.65 139.3 217.9 140.25 217.7 141.55 217.9 140.25 218.65 139.3 219.65 137.95 221.15 137.95 222.65 137.95 223.6 139.3 224.4 140.25 224.65 141.55 M208.05 141.85 L208.05 142.45 Q208.05 144.3 209.1 145.65 210.1 146.9 211.65 146.9 213.1 146.9 214.05 145.65 215.1 144.3 215.1 142.45 L215.1 141.85 215.1 142.45 Q215.1 144.3 214.05 145.65 213.1 146.9 211.65 146.9 210.1 146.9 209.1 145.65 208.05 144.3 208.05 142.45 L208.05 141.85 M205.55 141.55 Q205.3 140.25 204.5 139.3 203.55 137.95 202.1 137.95 200.55 137.95 199.55 139.3 198.8 140.25 198.6 141.55 198.8 140.25 199.55 139.3 200.55 137.95 202.1 137.95 203.55 137.95 204.5 139.3 205.3 140.25 205.55 141.55 M198.55 141.85 L198.55 142.45 Q198.55 144.3 199.55 145.65 200.55 146.9 202.1 146.9 203.55 146.9 204.5 145.65 205.55 144.3 205.55 142.45 L205.55 141.85 205.55 142.45 Q205.55 144.3 204.5 145.65 203.55 146.9 202.1 146.9 200.55 146.9 199.55 145.65 198.55 144.3 198.55 142.45 L198.55 141.85 M215.1 141.55 Q214.85 140.25 214.05 139.3 213.1 137.95 211.65 137.95 210.1 137.95 209.1 139.3 208.35 140.25 208.15 141.55 208.35 140.25 209.1 139.3 210.1 137.95 211.65 137.95 213.1 137.95 214.05 139.3 214.85 140.25 215.1 141.55 M279.2 124.75 Q279.0 123.5 278.25 122.5 277.2 121.2 275.75 121.2 274.25 121.2 273.25 122.5 272.45 123.5 272.25 124.75 272.45 123.5 273.25 122.5 274.25 121.2 275.75 121.2 277.2 121.2 278.25 122.5 279.0 123.5 279.2 124.75 M272.25 125.1 L272.2 125.65 Q272.2 127.5 273.25 128.75 274.25 130.1 275.75 130.1 277.2 130.1 278.25 128.75 279.3 127.5 279.3 125.65 L279.3 125.1 279.3 125.65 Q279.3 127.5 278.25 128.75 277.2 130.1 275.75 130.1 274.25 130.1 273.25 128.75 272.2 127.5 272.2 125.65 L272.25 125.1 M253.25 141.55 Q253.0 140.25 252.25 139.3 251.2 137.95 249.8 137.95 248.3 137.95 247.25 139.3 246.45 140.25 246.35 141.55 246.45 140.25 247.25 139.3 248.3 137.95 249.8 137.95 251.2 137.95 252.25 139.3 253.0 140.25 253.25 141.55 M246.25 141.85 L246.25 142.45 Q246.25 144.3 247.25 145.65 248.3 146.9 249.8 146.9 251.2 146.9 252.25 145.65 253.3 144.3 253.3 142.45 L253.3 141.85 253.3 142.45 Q253.3 144.3 252.25 145.65 251.2 146.9 249.8 146.9 248.3 146.9 247.25 145.65 246.25 144.3 246.25 142.45 L246.25 141.85 M20.7 101.05 Q20.7 97.4 18.7 94.9 16.7 92.4 13.85 92.4 11.0 92.4 9.0 94.9 6.95 97.4 6.95 101.05 6.95 104.6 9.0 107.1 11.0 109.6 13.85 109.6 16.7 109.6 18.7 107.1 20.7 104.6 20.7 101.05 M127.45 117.75 L133.45 124.2 Q139.45 131.4 137.35 138.6 135.1 146.15 125.85 147.65 L37.35 147.65 Q27.85 146.95 23.2 139.1 L7.1 107.65 Q5.1 100.85 7.45 94.0 L15.9 80.7 26.15 107.85 30.65 119.9 30.95 120.55 31.3 121.4 33.3 126.75 31.65 126.55 Q29.15 126.55 27.3 128.5 L26.7 129.05 Q24.75 131.55 24.75 135.2 24.75 138.75 26.7 141.3 28.8 143.85 31.65 143.85 34.5 143.85 36.45 141.3 38.45 138.75 38.45 135.2 38.45 133.5 38.05 132.05 37.55 130.4 36.45 129.05 35.45 127.85 34.35 127.15 L46.9 127.15 49.55 132.05 42.45 132.05 49.55 132.05 46.9 127.15 114.05 127.15 122.85 127.15 127.45 117.75 M76.0 141.85 L75.95 142.45 Q75.95 144.3 77.0 145.65 78.05 146.9 79.5 146.9 80.95 146.9 82.0 145.65 83.05 144.3 83.05 142.45 L83.05 141.85 83.05 142.45 Q83.05 144.3 82.0 145.65 80.95 146.9 79.5 146.9 78.05 146.9 77.0 145.65 75.95 144.3 75.95 142.45 L76.0 141.85 M83.0 141.55 Q82.8 140.25 82.0 139.3 80.95 137.95 79.5 137.95 78.05 137.95 77.0 139.3 76.25 140.25 76.0 141.55 76.25 140.25 77.0 139.3 78.05 137.95 79.5 137.95 80.95 137.95 82.0 139.3 82.8 140.25 83.0 141.55 M73.45 141.55 Q73.25 140.25 72.45 139.3 71.45 137.95 69.95 137.95 68.5 137.95 67.45 139.3 66.7 140.25 66.5 141.55 66.7 140.25 67.45 139.3 68.5 137.95 69.95 137.95 71.45 137.95 72.45 139.3 73.25 140.25 73.45 141.55 M66.5 141.85 L66.4 142.45 Q66.4 144.3 67.45 145.65 68.5 146.9 69.95 146.9 71.45 146.9 72.45 145.65 73.5 144.3 73.5 142.45 L73.5 141.85 73.5 142.45 Q73.5 144.3 72.45 145.65 71.45 146.9 69.95 146.9 68.5 146.9 67.45 145.65 66.4 144.3 66.4 142.45 L66.5 141.85 M120.35 135.95 L51.65 135.95 49.55 132.05 51.65 135.95 120.35 135.95 M56.95 141.85 L56.85 142.45 Q56.85 144.3 57.9 145.65 58.95 146.9 60.4 146.9 61.9 146.9 62.9 145.65 63.95 144.3 63.95 142.45 L63.95 141.85 63.95 142.45 Q63.95 144.3 62.9 145.65 61.9 146.9 60.4 146.9 58.95 146.9 57.9 145.65 56.85 144.3 56.85 142.45 L56.95 141.85 M63.9 141.55 Q63.7 140.25 62.9 139.3 61.9 137.95 60.4 137.95 58.95 137.95 57.9 139.3 57.15 140.25 56.95 141.55 57.15 140.25 57.9 139.3 58.95 137.95 60.4 137.95 61.9 137.95 62.9 139.3 63.7 140.25 63.9 141.55 M54.35 141.55 Q54.15 140.25 53.4 139.3 52.35 137.95 50.85 137.95 49.4 137.95 48.35 139.3 47.6 140.25 47.4 141.55 47.6 140.25 48.35 139.3 49.4 137.95 50.85 137.95 52.35 137.95 53.4 139.3 54.15 140.25 54.35 141.55 M47.4 141.85 L47.3 142.45 Q47.3 144.3 48.35 145.65 49.4 146.9 50.85 146.9 52.35 146.9 53.4 145.65 54.4 144.3 54.4 142.45 L54.4 141.85 54.4 142.45 Q54.4 144.3 53.4 145.65 52.35 146.9 50.85 146.9 49.4 146.9 48.35 145.65 47.3 144.3 47.3 142.45 L47.4 141.85 M41.65 132.05 L38.05 132.05 41.65 132.05 M18.95 109.95 L27.3 128.5 18.95 109.95 M136.35 135.2 Q136.35 131.55 134.35 129.05 132.4 126.55 129.55 126.55 126.7 126.55 124.65 129.05 122.65 131.55 122.65 135.2 122.65 138.75 124.65 141.3 126.7 143.85 129.55 143.85 132.4 143.85 134.35 141.3 136.35 138.75 136.35 135.2 M111.65 141.55 Q111.4 140.25 110.65 139.3 109.6 137.95 108.15 137.95 106.7 137.95 105.65 139.3 104.85 140.25 104.65 141.55 104.85 140.25 105.65 139.3 106.7 137.95 108.15 137.95 109.6 137.95 110.65 139.3 111.4 140.25 111.65 141.55 M104.65 141.85 L104.6 142.45 Q104.6 144.3 105.65 145.65 106.7 146.9 108.15 146.9 109.6 146.9 110.65 145.65 111.65 144.3 111.65 142.45 L111.65 141.85 111.65 142.45 Q111.65 144.3 110.65 145.65 109.6 146.9 108.15 146.9 106.7 146.9 105.65 145.65 104.6 144.3 104.6 142.45 L104.65 141.85 M95.1 141.85 L95.05 142.45 Q95.05 144.3 96.1 145.65 97.15 146.9 98.6 146.9 100.05 146.9 101.1 145.65 102.15 144.3 102.15 142.45 L102.15 141.85 102.15 142.45 Q102.15 144.3 101.1 145.65 100.05 146.9 98.6 146.9 97.15 146.9 96.1 145.65 95.05 144.3 95.05 142.45 L95.1 141.85 M102.1 141.55 Q101.9 140.25 101.1 139.3 100.05 137.95 98.6 137.95 97.15 137.95 96.1 139.3 95.35 140.25 95.1 141.55 95.35 140.25 96.1 139.3 97.15 137.95 98.6 137.95 100.05 137.95 101.1 139.3 101.9 140.25 102.1 141.55 M85.55 141.85 L85.5 142.45 Q85.5 144.3 86.55 145.65 87.6 146.9 89.05 146.9 90.5 146.9 91.55 145.65 92.6 144.3 92.6 142.45 L92.6 141.85 92.6 142.45 Q92.6 144.3 91.55 145.65 90.5 146.9 89.05 146.9 87.6 146.9 86.55 145.65 85.5 144.3 85.5 142.45 L85.55 141.85 M92.55 141.55 Q92.35 140.25 91.55 139.3 90.5 137.95 89.05 137.95 87.6 137.95 86.55 139.3 85.8 140.25 85.55 141.55 85.8 140.25 86.55 139.3 87.6 137.95 89.05 137.95 90.5 137.95 91.55 139.3 92.35 140.25 92.55 141.55" fill="#262626" fill-rule="evenodd" stroke="none"/>
    <path d="M281.3 72.05 L268.2 63.35 297.35 63.35 310.45 72.05 281.3 72.05" fill="#a5a5a5" fill-rule="evenodd" stroke="none"/>
    <path d="M197.95 22.95 L205.9 35.55 197.2 36.65 192.75 40.95 190.15 32.8 197.9 22.95 197.95 22.95" fill="#3300cc" fill-rule="evenodd" stroke="none"/>
    <path d="M64.4 0.0 L72.75 0.0 69.95 11.85 67.3 11.85 62.25 18.55 59.95 18.55 64.4 0.0 M83.5 0.0 L91.85 0.0 89.05 11.85 86.4 11.85 81.3 18.55 79.0 18.55 83.5 0.0 M102.55 0.0 L105.45 0.0 108.3 0.0 147.4 0.0 149.7 0.0 151.9 0.0 154.85 11.85 152.55 11.85 150.25 11.85 147.8 1.65 150.25 11.85 117.0 11.85 105.5 11.85 105.45 12.05 101.25 17.4 105.0 1.65 101.25 17.4 100.4 18.55 98.1 18.55 102.55 0.0 M170.3 18.75 L188.7 18.75 194.4 18.75 184.6 31.3 178.9 31.3 142.85 31.3 146.25 26.9 142.85 31.3 136.95 31.3 131.0 31.3 134.4 26.9 131.0 31.3 123.55 31.3 133.35 18.75 140.75 18.75 146.7 18.75 152.6 18.75 170.3 18.75 M188.7 18.75 L178.9 31.3 188.7 18.75 M147.65 1.25 L147.4 0.0 147.65 1.25 M149.95 1.25 L149.7 0.0 149.95 1.25 M150.1 1.65 L152.55 11.85 150.1 1.65 M146.7 18.75 L140.6 26.55 146.7 18.75 M140.35 26.9 L136.95 31.3 140.35 26.9 M107.85 1.65 L105.5 11.85 107.85 1.65 M152.6 18.75 L146.55 26.55 152.6 18.75 M140.75 18.75 L134.7 26.55 140.75 18.75 M108.3 0.0 L107.95 1.25 108.3 0.0 M105.45 0.0 L105.1 1.25 105.45 0.0 M94.9 25.25 L94.9 31.9 91.1 31.9 91.1 25.25 94.9 25.25 M87.25 25.25 L87.25 31.9 83.5 31.9 83.5 25.25 87.25 25.25 M79.65 25.25 L79.65 31.9 75.8 31.9 75.8 25.25 79.65 25.25 M60.55 25.25 L64.4 25.25 64.4 31.9 60.55 31.9 60.55 25.25 M68.15 31.9 L68.15 25.25 72.0 25.25 72.0 31.9 68.15 31.9 M56.7 25.25 L56.7 31.9 52.9 31.9 52.9 25.25 56.7 25.25 M49.15 31.9 L45.3 31.9 45.3 25.25 49.15 25.25 49.15 31.9 M41.45 25.25 L41.45 31.9 37.65 31.9 37.65 25.25 41.45 25.25" fill="#4c4c4c" fill-rule="evenodd" stroke="none"/>
    <path d="M205.9 35.55 L207.45 44.45 201.75 44.45 195.25 49.0 192.75 40.95 197.2 36.65 205.9 35.55" fill="#170abe" fill-rule="evenodd" stroke="none"/>
    <path d="M154.85 11.85 L160.15 11.85 170.3 18.75 152.6 18.75 146.7 18.75 140.75 18.75 133.35 18.75 123.55 31.3 130.4 53.25 136.15 53.25 138.55 60.75 132.75 60.75 137.35 75.25 122.45 75.25 137.35 75.25 140.6 85.8 148.1 85.8 153.95 85.8 159.85 85.8 165.5 85.8 161.95 96.35 129.05 96.35 122.45 75.25 106.75 25.25 117.0 11.85 150.25 11.85 152.55 11.85 154.85 11.85" fill="#7f7f7f" fill-rule="evenodd" stroke="none"/>
    <path d="M81.9 81.6 L81.9 97.05 81.55 97.05 34.5 97.05 34.5 85.55 34.5 81.6 81.9 81.6 M70.65 67.4 L23.6 67.4 23.6 51.9 71.0 51.9 71.0 67.4 70.65 67.4 M46.9 127.15 L34.35 127.15 33.45 127.15 33.3 126.75 31.3 121.4 117.0 121.1 114.05 127.15 46.9 127.15" fill="#545454" fill-rule="evenodd" stroke="none"/>
    <path d="M31.9 25.25 L42.15 11.85 50.85 11.85 49.25 18.55 53.1 18.55 59.95 18.55 62.25 18.55 67.3 11.85 69.95 11.85 68.35 18.55 72.1 18.55 79.0 18.55 81.3 18.55 86.4 11.85 89.05 11.85 87.45 18.55 91.2 18.55 98.1 18.55 100.4 18.55 101.25 17.4 105.45 12.05 105.5 11.85 117.0 11.85 106.75 25.25 94.9 25.25 98.3 20.85 94.5 20.85 91.1 25.25 87.25 25.25 90.65 20.85 86.85 20.85 83.5 25.25 79.65 25.25 83.05 20.85 79.25 20.85 75.8 25.25 72.0 25.25 75.4 20.85 71.55 20.85 68.15 25.25 64.4 25.25 67.75 20.85 63.95 20.85 60.55 25.25 56.7 25.25 60.15 20.85 56.3 20.85 52.9 25.25 49.15 25.25 52.45 20.85 48.7 20.85 45.3 25.25 41.45 25.25 44.9 20.85 41.05 20.85 37.65 25.25 31.9 25.25" fill="#999999" fill-rule="evenodd" stroke="none"/>
    <path d="M83.75 50.1 L92.0 53.6 75.6 51.9 71.0 51.9 23.6 51.9 30.5 46.6 38.6 46.6 75.55 46.6 83.75 50.1 M87.4 76.7 L102.85 83.25 81.9 81.6 86.4 76.3 81.9 81.6 34.5 81.6 40.7 76.85 41.4 76.3 86.4 76.3 87.4 76.7 M71.0 51.9 L75.55 46.6 71.0 51.9" fill="#4a4a4a" fill-rule="evenodd" stroke="none"/>
    <path d="M92.0 53.6 L92.0 59.85 92.0 66.15 71.0 67.4 71.0 51.9 75.6 51.9 92.0 53.6 M102.85 83.25 L102.85 95.8 81.9 97.05 81.9 81.6 102.85 83.25" fill="#747474" fill-rule="evenodd" stroke="none"/>
    <path d="M321.4 108.9 L323.05 111.5 325.2 114.75 Q326.75 116.95 327.7 118.95 329.6 122.85 329.55 126.4 329.55 129.4 328.05 132.1 L327.45 133.1 324.15 138.25 320.9 143.5 319.85 144.95 Q318.8 147.05 316.9 148.55 314.95 150.25 312.1 151.3 307.95 152.75 301.95 152.9 L260.35 152.9 Q266.1 152.7 270.1 151.3 272.95 150.25 274.95 148.55 276.8 147.05 277.9 144.95 L278.85 143.4 282.2 138.25 285.5 133.1 286.1 132.1 Q287.5 129.4 287.5 126.4 L295.05 126.4 287.5 126.4 Q287.6 122.85 285.75 118.95 L283.25 114.75 281.1 111.5 278.95 108.15 280.9 103.95 318.15 103.95 321.4 108.9 M295.05 111.5 L281.1 111.5 295.05 111.5 M295.05 118.95 L285.75 118.95 295.05 118.95 M320.9 143.5 L295.65 143.4 320.9 143.5 M323.05 111.5 L295.65 111.5 323.05 111.5 M295.05 133.1 L285.5 133.1 295.05 133.1 M295.05 148.55 L274.95 148.55 295.05 148.55 M295.05 143.4 L278.85 143.4 295.05 143.4 M316.9 148.55 L295.65 148.55 316.9 148.55 M312.1 151.3 L295.65 151.3 312.1 151.3 M295.05 151.3 L270.1 151.3 295.05 151.3 M295.05 138.25 L282.2 138.25 295.05 138.25 M327.45 133.1 L295.65 133.1 327.45 133.1 M329.55 126.4 L295.65 126.4 329.55 126.4 M327.7 118.95 L295.65 118.95 327.7 118.95 M324.15 138.25 L295.65 138.25 324.15 138.25" fill="url(#gradient0)" fill-rule="evenodd" stroke="none"/>
    <path d="M282.45 79.35 L284.45 75.1 305.05 75.1 303.05 79.35 282.45 79.35" fill="url(#gradient1)" fill-rule="evenodd" stroke="none"/>
    <path d="M219.9 35.05 L205.9 35.55 197.95 22.95 211.9 22.95 219.9 35.05" fill="url(#gradient2)" fill-rule="evenodd" stroke="none"/>
    <path d="M205.9 35.55 L219.9 35.05 222.45 44.45 207.45 44.45 205.9 35.55" fill="url(#gradient3)" fill-rule="evenodd" stroke="none"/>
    <path d="M222.45 44.45 L219.9 35.05 222.7 36.65 227.85 38.9 230.35 44.45 222.45 44.45" fill="url(#gradient4)" fill-rule="evenodd" stroke="none"/>
    <path d="M219.9 35.05 L211.9 22.95 225.4 33.4 227.85 38.9 222.7 36.65 219.9 35.05" fill="url(#gradient5)" fill-rule="evenodd" stroke="none"/>
    <path d="M182.85 55.95 L183.25 57.5 182.85 55.95 M189.25 53.25 L183.25 57.5 178.6 60.75 172.9 60.75 167.1 60.75 161.4 60.75 155.65 60.75 152.05 60.75 149.95 60.75 146.15 60.75 144.25 60.75 142.7 55.95 144.25 60.75 140.2 60.75 138.55 60.75 136.15 53.25 137.85 53.25 141.85 53.25 143.75 53.25 147.6 53.25 148.2 55.2 147.6 53.25 149.7 53.25 153.3 53.25 159.0 53.25 164.8 53.25 165.35 55.2 164.8 53.25 170.5 53.25 176.25 53.25 176.85 55.2 176.25 53.25 181.95 53.25 189.25 53.25 M182.55 55.2 L181.95 53.25 182.55 55.2 M171.05 55.2 L170.5 53.25 171.05 55.2 M165.65 55.95 L167.1 60.75 165.65 55.95 M177.05 55.95 L178.6 60.75 177.05 55.95 M159.65 55.2 L159.0 53.25 159.65 55.2 M171.35 55.95 L172.9 60.75 171.35 55.95 M153.3 53.25 L153.95 55.2 153.3 53.25 M159.9 55.95 L161.4 60.75 159.9 55.95 M154.2 55.95 L155.65 60.75 154.2 55.95 M142.5 55.2 L141.85 53.25 142.5 55.2 M148.5 55.95 L149.95 60.75 148.5 55.95" fill="url(#gradient6)" fill-rule="evenodd" stroke="none"/>
    <path d="M180.4 149.1 Q178.75 150.4 176.65 151.3 174.15 152.35 170.95 152.9 L129.0 152.9 Q132.1 152.35 134.7 151.3 137.3 150.15 139.15 148.55 141.45 146.6 142.85 143.95 L143.95 140.95 Q144.65 138.75 144.75 136.5 144.85 132.9 143.35 129.25 L149.4 129.25 143.35 129.25 Q141.85 125.65 138.9 122.0 L132.6 115.35 129.95 112.55 131.85 108.65 134.2 103.85 159.45 103.85 157.75 108.65 157.25 110.15 Q156.15 112.8 155.9 115.35 155.6 118.8 157.0 122.0 L157.05 122.1 Q158.1 124.5 160.15 126.75 L162.2 129.25 174.05 143.4 Q176.8 146.45 179.65 148.55 L180.4 149.1 M157.0 122.0 L150.6 122.0 157.0 122.0 M155.9 115.35 L150.6 115.35 155.9 115.35 M157.75 108.65 L150.6 108.65 157.75 108.65 M149.4 115.35 L132.6 115.35 149.4 115.35 M149.4 122.0 L138.9 122.0 149.4 122.0 M149.4 108.65 L131.85 108.65 149.4 108.65 M149.4 143.95 L142.85 143.95 149.4 143.95 M149.4 148.55 L139.15 148.55 149.4 148.55 M149.4 136.5 L144.75 136.5 149.4 136.5 M149.4 151.3 L134.7 151.3 149.4 151.3 M162.2 129.25 L150.6 129.25 162.2 129.25 M167.05 136.5 L150.6 136.5 167.05 136.5 M176.65 151.3 L150.6 151.3 176.65 151.3 M174.05 143.95 L150.6 143.95 174.05 143.95 M179.65 148.55 L150.6 148.55 179.65 148.55" fill="url(#gradient7)" fill-rule="evenodd" stroke="none"/>
    <path d="M83.5 25.25 L86.85 20.85 90.65 20.85 87.25 25.25 83.5 25.25" fill="url(#gradient8)" fill-rule="evenodd" stroke="none"/>
    <path d="M91.1 25.25 L94.5 20.85 98.3 20.85 94.9 25.25 91.1 25.25" fill="url(#gradient9)" fill-rule="evenodd" stroke="none"/>
    <path d="M60.55 25.25 L63.95 20.85 67.75 20.85 64.4 25.25 60.55 25.25" fill="url(#gradient10)" fill-rule="evenodd" stroke="none"/>
    <path d="M68.15 25.25 L71.55 20.85 75.4 20.85 72.0 25.25 68.15 25.25" fill="url(#gradient11)" fill-rule="evenodd" stroke="none"/>
    <path d="M37.65 25.25 L41.05 20.85 44.9 20.85 41.45 25.25 37.65 25.25" fill="url(#gradient12)" fill-rule="evenodd" stroke="none"/>
    <path d="M52.9 25.25 L56.3 20.85 60.15 20.85 56.7 25.25 52.9 25.25" fill="url(#gradient13)" fill-rule="evenodd" stroke="none"/>
    <path d="M45.3 25.25 L48.7 20.85 52.45 20.85 49.15 25.25 45.3 25.25" fill="url(#gradient14)" fill-rule="evenodd" stroke="none"/>
    <path d="M75.8 25.25 L79.25 20.85 83.05 20.85 79.65 25.25 75.8 25.25" fill="url(#gradient15)" fill-rule="evenodd" stroke="none"/>
    <path d="M327.45 96.35 L327.85 96.35 318.95 81.6 272.6 81.6 M321.4 108.9 L323.05 111.5 325.2 114.75 Q326.75 116.95 327.7 118.95 329.6 122.85 329.55 126.4 329.55 129.4 328.05 132.1 L327.45 133.1 324.15 138.25 320.9 143.5 319.85 144.95 Q318.8 147.05 316.9 148.55 314.95 150.25 312.1 151.3 307.95 152.75 301.95 152.9 L260.35 152.9 191.35 152.9 Q185.8 152.75 180.4 149.1 178.75 150.4 176.65 151.3 174.15 152.35 170.95 152.9 L129.0 152.9 35.95 152.9 Q25.1 152.25 19.7 143.4 L1.4 107.5 Q-1.4 99.45 1.4 91.3 L12.95 72.95 11.0 67.85 28.65 31.9 31.9 25.25 42.15 11.85 50.85 11.85 53.65 0.0 57.5 0.0 64.4 0.0 72.75 0.0 76.6 0.0 83.5 0.0 91.85 0.0 95.65 0.0 102.55 0.0 105.45 0.0 108.3 0.0 147.4 0.0 149.7 0.0 151.9 0.0 154.85 11.85 160.15 11.85 170.3 18.75 188.7 18.75 194.4 18.75 212.05 18.75 228.3 31.3 234.2 44.45 253.65 44.45 303.4 56.05 318.95 81.6 M281.3 72.05 L268.2 63.35 277.85 79.35 281.3 72.05 310.45 72.05 297.35 63.35 268.2 63.35 M267.05 81.6 L262.9 89.55 262.7 89.95 M277.85 79.35 L282.45 79.35 284.45 75.1 305.05 75.1 303.05 79.35 307.0 79.35 310.45 72.05 M267.05 81.6 L271.7 81.6 M267.05 81.6 L275.95 96.35 327.45 96.35 321.4 108.9 318.15 103.95 280.9 103.95 278.95 108.15 281.1 111.5 295.05 111.5 M251.5 56.05 L267.05 81.6 M195.25 49.0 L245.55 61.1 262.9 89.55 M251.5 56.05 L303.4 56.05 M282.45 79.35 L303.05 79.35 M211.9 22.95 L197.95 22.95 M207.45 44.45 L222.45 44.45 M227.85 38.9 L225.4 33.4 211.9 22.95 M230.35 44.45 L234.2 44.45 M227.85 38.9 L230.35 44.45 222.45 44.45 M192.75 40.95 L190.15 32.8 197.9 22.95 197.95 22.95 M145.65 40.15 L147.1 44.9 167.65 44.9 171.85 39.3 181.45 39.3 178.9 31.3 142.85 31.3 145.3 39.15 M195.25 49.0 L192.75 40.95 M195.25 49.0 L201.75 44.45 207.45 44.45 M178.9 31.3 L188.7 18.75 M178.9 31.3 L184.6 31.3 194.4 18.75 M183.25 57.5 L182.85 55.95 M177.9 61.25 L185.0 63.0 188.65 63.9 192.2 64.75 195.75 65.65 199.35 66.5 202.9 67.4 206.45 68.3 210.1 69.15 213.65 70.05 217.2 70.85 220.85 71.75 224.4 72.7 227.95 73.5 230.1 74.05 231.15 75.9 233.65 80.5 236.25 85.15 238.75 89.75 241.3 94.35 243.9 99.0 246.4 103.55 248.3 107.05 253.8 107.05 262.35 90.6 M189.25 53.25 L191.15 51.9 184.6 31.3 M183.25 57.5 L189.25 53.25 181.95 53.25 182.55 55.2 M176.85 55.2 L176.25 53.25 170.5 53.25 171.05 55.2 M173.65 76.7 L177.9 61.25 178.6 60.75 172.9 60.75 167.1 60.75 161.4 60.75 155.65 60.75 152.05 60.75 156.15 73.95 M176.25 53.25 L181.95 53.25 M178.6 60.75 L177.05 55.95 M167.1 60.75 L165.65 55.95 M165.35 55.2 L164.8 53.25 159.0 53.25 159.65 55.2 M164.8 53.25 L170.5 53.25 M172.9 60.75 L171.35 55.95 M165.5 85.8 Q167.1 79.5 173.65 76.7 L167.25 100.0 167.3 100.2 169.9 104.05 173.0 92.7 M173.15 92.25 L181.25 63.0 M177.0 92.25 L185.0 63.0 M180.85 92.25 L188.65 63.9 M184.6 92.25 L192.2 64.75 M188.4 92.25 L195.75 65.65 M192.25 92.25 L199.35 66.5 M178.6 60.75 L183.25 57.5 M238.05 92.25 L238.75 89.75 M230.45 92.25 L233.65 80.5 M226.6 92.25 L231.15 75.9 M234.25 92.25 L236.25 85.15 M222.8 92.25 L227.95 73.5 M218.95 92.25 L224.4 72.7 M203.7 92.25 L210.1 69.15 M215.2 92.25 L220.85 71.75 M211.35 92.25 L217.2 70.85 M207.5 92.25 L213.65 70.05 M199.9 92.25 L206.45 68.3 M196.1 92.25 L202.9 67.4 M191.15 51.9 L195.25 49.0 M185.45 51.9 L181.45 39.3 M241.3 94.35 L237.85 107.05 241.6 107.05 242.35 104.45 M234.15 92.7 L230.15 107.05 234.0 107.05 237.95 92.7 M234.0 107.05 L237.85 107.05 M230.3 92.7 L226.35 107.05 230.15 107.05 M207.4 92.7 L203.45 107.05 207.25 107.05 211.2 92.7 M218.85 92.7 L214.9 107.05 218.75 107.05 222.7 92.7 M218.75 107.05 L222.5 107.05 226.45 92.7 M215.05 92.7 L211.05 107.05 214.9 107.05 M207.25 107.05 L211.05 107.05 M208.15 141.55 Q208.35 140.25 209.1 139.3 210.1 137.95 211.65 137.95 213.1 137.95 214.05 139.3 214.85 140.25 215.1 141.55 M205.55 141.85 L205.55 142.45 Q205.55 144.3 204.5 145.65 203.55 146.9 202.1 146.9 200.55 146.9 199.55 145.65 198.55 144.3 198.55 142.45 L198.55 141.85 M198.6 141.55 Q198.8 140.25 199.55 139.3 200.55 137.95 202.1 137.95 203.55 137.95 204.5 139.3 205.3 140.25 205.55 141.55 M215.1 141.85 L215.1 142.45 Q215.1 144.3 214.05 145.65 213.1 146.9 211.65 146.9 210.1 146.9 209.1 145.65 208.05 144.3 208.05 142.45 L208.05 141.85 M217.7 141.55 Q217.9 140.25 218.65 139.3 219.65 137.95 221.15 137.95 222.65 137.95 223.6 139.3 224.4 140.25 224.65 141.55 M224.65 141.85 L224.65 142.45 Q224.65 144.3 223.6 145.65 222.65 146.9 221.15 146.9 219.65 146.9 218.65 145.65 217.6 144.3 217.6 142.45 L217.6 141.85 M234.2 141.85 L234.2 142.45 Q234.2 144.3 233.15 145.65 232.1 146.9 230.7 146.9 229.2 146.9 228.2 145.65 227.15 144.3 227.15 142.45 L227.15 141.85 M227.25 141.55 Q227.45 140.25 228.2 139.3 229.2 137.95 230.7 137.95 232.1 137.95 233.15 139.3 233.95 140.25 234.2 141.55 M236.8 141.55 Q237.0 140.25 237.7 139.3 238.75 137.95 240.25 137.95 241.65 137.95 242.7 139.3 243.45 140.25 243.7 141.55 M243.75 141.85 L243.75 142.45 Q243.75 144.3 242.7 145.65 241.65 146.9 240.25 146.9 238.75 146.9 237.7 145.65 236.7 144.3 236.7 142.45 L236.7 141.85 M222.5 107.05 L226.35 107.05 M199.8 92.7 L195.8 107.05 199.65 107.05 203.6 92.7 M192.1 92.7 L188.15 107.05 192.0 107.05 195.95 92.7 M188.35 92.7 L184.4 107.05 188.15 107.05 M192.0 107.05 L195.8 107.05 M176.85 92.7 L172.9 107.05 176.7 107.05 180.7 92.7 M176.7 107.05 L180.55 107.05 184.5 92.7 M275.55 115.05 L277.0 117.3 Q282.5 125.1 279.3 131.2 L272.65 141.45 Q269.8 146.8 261.15 147.65 L193.15 147.65 Q188.3 147.45 183.7 144.3 L183.0 143.85 Q180.55 142.1 178.2 139.45 L166.2 125.1 Q164.45 123.05 163.55 120.95 162.3 118.25 162.55 115.25 162.8 113.1 163.75 110.8 L167.3 100.2 M177.6 115.45 Q177.6 119.0 175.6 121.45 173.65 123.95 170.8 123.95 167.85 123.95 165.85 121.45 163.9 118.95 163.9 115.4 163.9 111.75 165.85 109.25 167.3 107.5 169.1 106.95 L170.8 106.75 171.75 106.8 169.9 104.05 M177.6 115.45 L172.0 107.05 171.75 106.8 M167.4 114.65 Q167.6 112.95 168.55 111.65 169.75 110.15 171.5 110.15 173.25 110.15 174.4 111.65 175.65 113.15 175.65 115.4 175.65 117.5 174.4 119.0 173.25 120.55 171.5 120.55 169.75 120.55 168.55 119.0 167.45 117.55 167.4 115.6 M185.3 126.8 L181.45 121.1 177.6 115.45 M172.0 107.05 L172.9 107.05 M159.45 103.85 L157.75 108.65 157.25 110.15 Q156.15 112.8 155.9 115.35 155.6 118.8 157.0 122.0 L157.05 122.1 Q158.1 124.5 160.15 126.75 L162.2 129.25 174.05 143.4 Q176.8 146.45 179.65 148.55 L180.4 149.1 M189.7 127.15 Q190.85 127.8 191.85 129.05 193.85 131.55 193.85 135.2 193.85 138.75 191.85 141.3 189.8 143.85 186.95 143.85 184.1 143.85 182.1 141.3 180.15 138.75 180.15 135.2 180.15 131.55 182.1 129.05 183.5 127.4 185.3 126.8 L185.55 127.15 189.7 127.15 260.95 127.15 263.9 121.1 181.45 121.1 M183.6 134.5 Q183.75 132.75 184.8 131.5 186.0 129.95 187.75 129.95 189.45 129.95 190.65 131.5 191.9 133.0 191.9 135.2 191.9 137.35 190.65 138.9 189.45 140.35 187.75 140.35 186.0 140.35 184.8 138.9 183.7 137.4 183.6 135.4 M180.55 107.05 L184.4 107.05 M199.65 107.05 L203.45 107.05 M285.75 118.95 L295.05 118.95 M287.5 126.4 Q287.5 129.4 286.1 132.1 L285.5 133.1 295.05 133.1 M287.5 126.4 L295.05 126.4 M295.65 111.5 L323.05 111.5 M295.65 143.4 L320.9 143.5 M285.75 118.95 Q287.6 122.85 287.5 126.4 M263.9 121.1 L272.6 121.1 275.55 115.05 278.95 108.15 M281.1 111.5 L283.25 114.75 285.75 118.95 M272.25 124.75 Q272.45 123.5 273.25 122.5 274.25 121.2 275.75 121.2 277.2 121.2 278.25 122.5 279.0 123.5 279.2 124.75 M246.4 103.55 L245.4 107.05 248.3 107.05 M272.6 121.1 L269.6 127.15 268.7 127.15 Q269.9 127.8 270.85 129.05 272.9 131.55 272.9 135.2 272.9 138.75 270.85 141.3 268.9 143.85 266.0 143.85 263.1 143.85 261.1 141.3 259.15 138.75 259.15 135.2 259.15 131.55 261.1 129.05 262.15 127.8 263.35 127.15 L260.95 127.15 M253.3 141.85 L253.3 142.45 Q253.3 144.3 252.25 145.65 251.2 146.9 249.8 146.9 248.3 146.9 247.25 145.65 246.25 144.3 246.25 142.45 L246.25 141.85 M246.35 141.55 Q246.45 140.25 247.25 139.3 248.3 137.95 249.8 137.95 251.2 137.95 252.25 139.3 253.0 140.25 253.25 141.55 M279.3 125.1 L279.3 125.65 Q279.3 127.5 278.25 128.75 277.2 130.1 275.75 130.1 274.25 130.1 273.25 128.75 272.2 127.5 272.2 125.65 L272.25 125.1 M262.65 134.5 Q262.75 132.75 263.8 131.5 265.0 129.95 266.75 129.95 268.5 129.95 269.65 131.5 270.95 133.0 270.95 135.2 270.95 137.35 269.65 138.9 268.5 140.35 266.75 140.35 265.0 140.35 263.8 138.9 262.7 137.4 262.65 135.4 M263.35 127.15 L268.7 127.15 M278.85 143.4 L277.9 144.95 Q276.8 147.05 274.95 148.55 L295.05 148.55 M282.2 138.25 L278.85 143.4 295.05 143.4 M270.1 151.3 Q266.1 152.7 260.35 152.9 M274.95 148.55 Q272.95 150.25 270.1 151.3 L295.05 151.3 M295.65 151.3 L312.1 151.3 M295.65 148.55 L316.9 148.55 M285.5 133.1 L282.2 138.25 295.05 138.25 M201.75 44.45 L251.5 56.05 M275.95 96.35 L263.9 121.1 M242.55 103.85 L243.9 99.0 M241.6 107.05 L245.4 107.05 M152.55 11.85 L154.85 11.85 M147.4 0.0 L147.65 1.25 M147.8 1.65 L150.25 11.85 152.55 11.85 150.1 1.65 M149.7 0.0 L149.95 1.25 M123.55 31.3 L133.35 18.75 140.75 18.75 146.7 18.75 152.6 18.75 170.3 18.75 M139.35 39.15 L136.95 31.3 131.0 31.3 133.45 39.15 M131.0 31.3 L134.4 26.9 M123.55 31.3 L131.0 31.3 M136.95 31.3 L140.35 26.9 M142.85 31.3 L146.25 26.9 M140.6 26.55 L146.7 18.75 M136.95 31.3 L142.85 31.3 M134.7 26.55 L140.75 18.75 M146.55 26.55 L152.6 18.75 M105.5 11.85 L107.85 1.65 M101.25 17.4 L105.45 12.05 105.5 11.85 117.0 11.85 150.25 11.85 M105.1 1.25 L105.45 0.0 M107.95 1.25 L108.3 0.0 M101.25 17.4 L105.0 1.65 M94.65 4.4 L95.65 0.0 M89.05 11.85 L86.4 11.85 81.3 18.55 79.0 18.55 72.1 18.55 68.35 18.55 69.95 11.85 67.3 11.85 62.25 18.55 59.95 18.55 53.1 18.55 49.25 18.55 50.85 11.85 M83.5 25.25 L86.85 20.85 90.65 20.85 87.25 25.25 91.1 25.25 94.5 20.85 98.3 20.85 94.9 25.25 106.75 25.25 117.0 11.85 M98.1 18.55 L100.4 18.55 101.25 17.4 M98.1 18.55 L91.2 18.55 87.45 18.55 89.05 11.85 91.85 0.0 M91.2 18.55 L94.4 5.15 M94.9 31.9 L101.05 31.9 107.95 53.6 109.9 59.85 117.7 84.45 122.45 75.25 106.75 25.25 M94.9 25.25 L94.9 31.9 91.1 31.9 91.1 25.25 94.9 25.25 M83.5 25.25 L83.5 31.9 87.25 31.9 87.25 25.25 83.5 25.25 79.65 25.25 79.65 31.9 83.5 31.9 M87.25 31.9 L91.1 31.9 M98.1 18.55 L102.55 0.0 M108.5 102.35 L111.55 96.35 M117.7 84.45 L112.05 95.45 M149.7 53.25 L153.3 53.25 159.0 53.25 M155.65 60.75 L154.2 55.95 M161.4 60.75 L159.9 55.95 M153.95 55.2 L153.3 53.25 M148.2 55.2 L147.6 53.25 143.75 53.25 141.85 53.25 142.5 55.2 M147.6 53.25 L149.7 53.25 147.1 44.9 M144.25 60.75 L142.7 55.95 M144.25 60.75 L146.15 60.75 149.95 60.75 148.5 55.95 M149.95 60.75 L152.05 60.75 M146.15 60.75 L150.25 73.95 M138.55 60.75 L136.15 53.25 130.4 53.25 123.55 31.3 M137.35 75.25 L132.75 60.75 138.55 60.75 140.2 60.75 144.25 60.75 M136.15 53.25 L137.85 53.25 133.8 40.15 M122.45 75.25 L137.35 75.25 140.6 85.8 148.1 85.8 144.5 74.5 M122.45 75.25 L129.05 96.35 161.95 96.35 165.5 85.8 159.85 85.8 153.95 85.8 148.1 85.8 M156.35 74.5 L159.85 85.8 M150.45 74.5 L153.95 85.8 M140.2 60.75 L144.3 73.95 M137.85 53.25 L141.85 53.25 M143.75 53.25 L139.7 40.15 M75.6 4.05 L76.6 0.0 M60.55 25.25 L63.95 20.85 67.75 20.85 64.4 25.25 68.15 25.25 71.55 20.85 75.4 20.85 72.0 25.25 75.8 25.25 79.25 20.85 83.05 20.85 79.65 25.25 75.8 25.25 75.8 31.9 79.65 31.9 M69.95 11.85 L72.75 0.0 M72.1 18.55 L75.45 4.75 M56.6 3.6 L57.5 0.0 M37.65 25.25 L41.05 20.85 44.9 20.85 41.45 25.25 45.3 25.25 48.7 20.85 52.45 20.85 49.15 25.25 52.9 25.25 56.3 20.85 60.15 20.85 56.7 25.25 60.55 25.25 64.4 25.25 64.4 31.9 68.15 31.9 68.15 25.25 72.0 25.25 72.0 31.9 75.8 31.9 M53.1 18.55 L56.35 4.75 M56.7 31.9 L60.55 31.9 60.55 25.25 M56.7 25.25 L56.7 31.9 52.9 31.9 49.15 31.9 45.3 31.9 45.3 25.25 49.15 25.25 49.15 31.9 M56.7 25.25 L52.9 25.25 52.9 31.9 M41.45 31.9 L45.3 31.9 M37.65 25.25 L37.65 31.9 41.45 31.9 41.45 25.25 37.65 25.25 31.9 25.25 M68.15 31.9 L72.0 31.9 M59.95 18.55 L64.4 0.0 M60.55 31.9 L64.4 31.9 M37.65 31.9 L28.65 31.9 M20.7 101.05 Q20.7 104.6 18.7 107.1 16.7 109.6 13.85 109.6 11.0 109.6 9.0 107.1 6.95 104.6 6.95 101.05 6.95 97.4 9.0 94.9 11.0 92.4 13.85 92.4 16.7 92.4 18.7 94.9 20.7 97.4 20.7 101.05 M10.5 100.25 Q10.65 98.6 11.65 97.3 12.9 95.8 14.65 95.8 16.3 95.8 17.5 97.3 18.75 98.8 18.75 101.05 18.75 103.15 17.5 104.65 16.3 106.2 14.65 106.2 12.9 106.2 11.65 104.65 10.5 103.2 10.45 101.25 M127.45 117.75 L133.45 124.2 Q139.45 131.4 137.35 138.6 135.1 146.15 125.85 147.65 L37.35 147.65 Q27.85 146.95 23.2 139.1 L7.1 107.65 Q5.1 100.85 7.45 94.0 L15.9 80.7 12.95 72.95 M42.7 107.75 L52.4 107.6 M42.45 132.05 L49.55 132.05 46.9 127.15 34.35 127.15 Q35.45 127.85 36.45 129.05 37.55 130.4 38.05 132.05 L41.65 132.05 M54.4 141.85 L54.4 142.45 Q54.4 144.3 53.4 145.65 52.35 146.9 50.85 146.9 49.4 146.9 48.35 145.65 47.3 144.3 47.3 142.45 L47.4 141.85 M47.4 141.55 Q47.6 140.25 48.35 139.3 49.4 137.95 50.85 137.95 52.35 137.95 53.4 139.3 54.15 140.25 54.35 141.55 M56.95 141.55 Q57.15 140.25 57.9 139.3 58.95 137.95 60.4 137.95 61.9 137.95 62.9 139.3 63.7 140.25 63.9 141.55 M63.95 141.85 L63.95 142.45 Q63.95 144.3 62.9 145.65 61.9 146.9 60.4 146.9 58.95 146.9 57.9 145.65 56.85 144.3 56.85 142.45 L56.95 141.85 M49.55 132.05 L51.65 135.95 120.35 135.95 M73.5 141.85 L73.5 142.45 Q73.5 144.3 72.45 145.65 71.45 146.9 69.95 146.9 68.5 146.9 67.45 145.65 66.4 144.3 66.4 142.45 L66.5 141.85 M66.5 141.55 Q66.7 140.25 67.45 139.3 68.5 137.95 69.95 137.95 71.45 137.95 72.45 139.3 73.25 140.25 73.45 141.55 M76.0 141.55 Q76.25 140.25 77.0 139.3 78.05 137.95 79.5 137.95 80.95 137.95 82.0 139.3 82.8 140.25 83.0 141.55 M83.05 141.85 L83.05 142.45 Q83.05 144.3 82.0 145.65 80.95 146.9 79.5 146.9 78.05 146.9 77.0 145.65 75.95 144.3 75.95 142.45 L76.0 141.85 M26.15 107.85 L30.65 119.9 30.75 120.0 30.95 120.55 31.3 121.4 117.0 121.1 129.05 96.35 M30.65 119.9 L30.95 120.55 M38.05 132.05 Q38.45 133.5 38.45 135.2 38.45 138.75 36.45 141.3 34.5 143.85 31.65 143.85 28.8 143.85 26.7 141.3 24.75 138.75 24.75 135.2 24.75 131.55 26.7 129.05 L27.3 128.5 18.95 109.95 M27.3 128.5 Q29.15 126.55 31.65 126.55 L33.3 126.75 31.3 121.4 M33.3 126.75 L33.45 127.15 34.35 127.15 M28.2 134.5 Q28.45 132.75 29.4 131.5 30.6 129.95 32.4 129.95 34.1 129.95 35.25 131.5 36.5 133.0 36.5 135.2 36.5 137.35 35.25 138.9 34.1 140.35 32.4 140.35 30.6 140.35 29.4 138.9 28.3 137.4 28.2 135.4 M42.7 107.75 L26.15 107.85 15.9 80.7 M150.6 108.65 L157.75 108.65 M150.6 115.35 L155.9 115.35 M150.6 122.0 L157.0 122.0 M129.95 112.55 L132.6 115.35 149.4 115.35 M131.85 108.65 L129.95 112.55 127.45 117.75 122.85 127.15 114.05 127.15 46.9 127.15 M132.6 115.35 L138.9 122.0 149.4 122.0 M159.45 103.85 L134.2 103.85 131.85 108.65 149.4 108.65 M126.2 134.5 Q126.35 132.75 127.3 131.5 128.55 129.95 130.3 129.95 132.0 129.95 133.15 131.5 134.4 133.0 134.4 135.2 134.4 137.35 133.15 138.9 132.0 140.35 130.3 140.35 128.55 140.35 127.3 138.9 126.2 137.4 126.15 135.4 M136.35 135.2 Q136.35 138.75 134.35 141.3 132.4 143.85 129.55 143.85 126.7 143.85 124.65 141.3 122.65 138.75 122.65 135.2 122.65 131.55 124.65 129.05 126.7 126.55 129.55 126.55 132.4 126.55 134.35 129.05 136.35 131.55 136.35 135.2 M142.85 143.95 L149.4 143.95 M144.75 136.5 Q144.65 138.75 143.95 140.95 L142.85 143.95 Q141.45 146.6 139.15 148.55 L149.4 148.55 M143.35 129.25 Q144.85 132.9 144.75 136.5 L149.4 136.5 M143.35 129.25 L149.4 129.25 M138.9 122.0 Q141.85 125.65 143.35 129.25 M108.5 102.35 L106.05 107.05 52.4 107.6 M85.55 141.55 Q85.8 140.25 86.55 139.3 87.6 137.95 89.05 137.95 90.5 137.95 91.55 139.3 92.35 140.25 92.55 141.55 M92.6 141.85 L92.6 142.45 Q92.6 144.3 91.55 145.65 90.5 146.9 89.05 146.9 87.6 146.9 86.55 145.65 85.5 144.3 85.5 142.45 L85.55 141.85 M95.1 141.55 Q95.35 140.25 96.1 139.3 97.15 137.95 98.6 137.95 100.05 137.95 101.1 139.3 101.9 140.25 102.1 141.55 M102.15 141.85 L102.15 142.45 Q102.15 144.3 101.1 145.65 100.05 146.9 98.6 146.9 97.15 146.9 96.1 145.65 95.05 144.3 95.05 142.45 L95.1 141.85 M111.65 141.85 L111.65 142.45 Q111.65 144.3 110.65 145.65 109.6 146.9 108.15 146.9 106.7 146.9 105.65 145.65 104.6 144.3 104.6 142.45 L104.65 141.85 M104.65 141.55 Q104.85 140.25 105.65 139.3 106.7 137.95 108.15 137.95 109.6 137.95 110.65 139.3 111.4 140.25 111.65 141.55 M117.0 121.1 L114.05 127.15 M134.7 151.3 L149.4 151.3 M139.15 148.55 Q137.3 150.15 134.7 151.3 132.1 152.35 129.0 152.9 M117.0 121.1 L125.2 121.1 M79.0 18.55 L83.5 0.0 M161.95 96.35 L159.45 103.85 M150.6 148.55 L179.65 148.55 M150.6 143.95 L174.05 143.95 M150.6 151.3 L176.65 151.3 M150.6 136.5 L167.05 136.5 M150.6 129.25 L162.2 129.25 M295.65 138.25 L324.15 138.25 M295.65 118.95 L327.7 118.95 M295.65 126.4 L329.55 126.4 M295.65 133.1 L327.45 133.1" fill="none" stroke="#000000" stroke-width="0.7" stroke-opacity="0.4"/>
    <path d="M205.9 35.55 L219.9 35.05 211.9 22.95 M197.95 22.95 L205.9 35.55 207.45 44.45 M222.45 44.45 L219.9 35.05 222.7 36.65 227.85 38.9 M192.75 40.95 L197.2 36.65 205.9 35.55 M109.9 59.85 L110.75 59.85 M91.1 31.9 L83.75 50.1 92.0 53.6 107.95 53.6 M92.0 53.6 L92.0 59.85 109.9 59.85 M92.0 59.85 L92.0 66.15 83.75 69.4 87.4 76.7 102.85 83.25 102.85 95.8 97.7 97.85 99.95 102.35 108.5 102.35 M81.9 81.6 L81.9 97.05 102.85 95.8 M86.4 76.3 L81.9 81.6 102.85 83.25 M40.7 76.85 L41.4 76.3 86.4 76.3 87.4 76.7 M45.3 31.9 L38.6 46.6 75.55 46.6 83.75 50.1 M30.5 46.6 L37.65 31.9 M30.5 46.6 L38.6 46.6 M23.6 67.4 L29.7 72.6 39.0 72.6 75.55 72.6 70.65 67.4 23.6 67.4 23.6 51.9 30.5 46.6 M34.5 81.6 L34.5 85.55 34.5 97.05 81.55 97.05 86.4 102.3 90.4 100.75 97.7 97.85 M29.7 72.6 L34.5 85.55 M70.65 67.4 L71.0 67.4 71.0 51.9 23.6 51.9 M71.0 51.9 L75.6 51.9 92.0 53.6 M39.0 72.6 L40.7 76.85 34.5 81.6 81.9 81.6 M75.55 46.6 L71.0 51.9 M34.5 97.05 L40.55 102.3 40.7 102.3 50.4 102.3 86.4 102.3 M40.7 102.3 L42.7 107.75 M52.4 107.6 L50.4 102.3 M90.4 100.75 L91.35 102.35 99.95 102.35 M83.75 69.4 L75.55 72.6 M71.0 67.4 L92.0 66.15" fill="none" stroke="#000000" stroke-width="0.7" stroke-opacity="0.4"/>
  </g>
  <defs>
    <linearGradient gradientTransform="matrix(0.0, -0.0298, 0.0422, 0.0, 294.95, 128.4)" gradientUnits="userSpaceOnUse" id="gradient0" spreadMethod="pad" x1="-819.2" x2="819.2">
      <stop offset="0.0" stop-color="#333333"/>
      <stop offset="0.3333333333333333" stop-color="#464646"/>
      <stop offset="0.6352941176470588" stop-color="#7c7c7c"/>
      <stop offset="0.9215686274509803" stop-color="#383838"/>
    </linearGradient>
    <linearGradient gradientTransform="matrix(7.0E-4, 0.002, -0.0129, 0.0049, 295.85, 82.7)" gradientUnits="userSpaceOnUse" id="gradient1" spreadMethod="pad" x1="-819.2" x2="819.2">
      <stop offset="0.0" stop-color="#003fff"/>
      <stop offset="0.39215686274509803" stop-color="#00b3d0"/>
    </linearGradient>
    <linearGradient gradientTransform="matrix(-0.0298, -0.0205, 0.0048, -0.0069, 189.6, 15.85)" gradientUnits="userSpaceOnUse" id="gradient2" spreadMethod="pad" x1="-819.2" x2="819.2">
      <stop offset="0.0" stop-color="#003fff"/>
      <stop offset="0.39215686274509803" stop-color="#00b3d0"/>
    </linearGradient>
    <linearGradient gradientTransform="matrix(0.001, -0.0173, 0.0103, 6.0E-4, 214.8, 26.95)" gradientUnits="userSpaceOnUse" id="gradient3" spreadMethod="pad" x1="-819.2" x2="819.2">
      <stop offset="0.0" stop-color="#003fff"/>
      <stop offset="0.39215686274509803" stop-color="#00b3d0"/>
    </linearGradient>
    <linearGradient gradientTransform="matrix(-0.017, -0.0162, 0.0033, -0.0034, 211.95, 29.1)" gradientUnits="userSpaceOnUse" id="gradient4" spreadMethod="pad" x1="-819.2" x2="819.2">
      <stop offset="0.0" stop-color="#003fff"/>
      <stop offset="0.39215686274509803" stop-color="#00b3d0"/>
    </linearGradient>
    <linearGradient gradientTransform="matrix(-0.0108, -0.015, 0.0027, -0.0019, 213.4, 21.3)" gradientUnits="userSpaceOnUse" id="gradient5" spreadMethod="pad" x1="-819.2" x2="819.2">
      <stop offset="0.0" stop-color="#003fff"/>
      <stop offset="0.39215686274509803" stop-color="#00b3d0"/>
    </linearGradient>
    <linearGradient gradientTransform="matrix(-0.0599, -0.0125, 0.0022, -0.0106, 127.85, 49.45)" gradientUnits="userSpaceOnUse" id="gradient6" spreadMethod="pad" x1="-819.2" x2="819.2">
      <stop offset="0.0" stop-color="#003fff"/>
      <stop offset="0.39215686274509803" stop-color="#00b3d0"/>
    </linearGradient>
    <linearGradient gradientTransform="matrix(0.0, -0.0299, 0.0314, 0.0, 154.65, 128.35)" gradientUnits="userSpaceOnUse" id="gradient7" spreadMethod="pad" x1="-819.2" x2="819.2">
      <stop offset="0.0" stop-color="#333333"/>
      <stop offset="0.4470588235294118" stop-color="#7c7c7c"/>
      <stop offset="0.8509803921568627" stop-color="#3a3a3a"/>
    </linearGradient>
    <linearGradient gradientTransform="matrix(-0.0048, 0.0014, -7.0E-4, -0.0025, 87.0, 22.95)" gradientUnits="userSpaceOnUse" id="gradient8" spreadMethod="pad" x1="-819.2" x2="819.2">
      <stop offset="0.0" stop-color="#003fff"/>
      <stop offset="0.39215686274509803" stop-color="#00b3d0"/>
    </linearGradient>
    <linearGradient gradientTransform="matrix(-0.0048, 0.0014, -7.0E-4, -0.0025, 94.65, 22.95)" gradientUnits="userSpaceOnUse" id="gradient9" spreadMethod="pad" x1="-819.2" x2="819.2">
      <stop offset="0.0" stop-color="#003fff"/>
      <stop offset="0.39215686274509803" stop-color="#00b3d0"/>
    </linearGradient>
    <linearGradient gradientTransform="matrix(-0.0048, 0.0014, -7.0E-4, -0.0025, 64.15, 22.95)" gradientUnits="userSpaceOnUse" id="gradient10" spreadMethod="pad" x1="-819.2" x2="819.2">
      <stop offset="0.0" stop-color="#003fff"/>
      <stop offset="0.39215686274509803" stop-color="#00b3d0"/>
    </linearGradient>
    <linearGradient gradientTransform="matrix(-0.0048, 0.0014, -7.0E-4, -0.0025, 71.7, 22.95)" gradientUnits="userSpaceOnUse" id="gradient11" spreadMethod="pad" x1="-819.2" x2="819.2">
      <stop offset="0.0" stop-color="#003fff"/>
      <stop offset="0.39215686274509803" stop-color="#00b3d0"/>
    </linearGradient>
    <linearGradient gradientTransform="matrix(-0.0047, 0.0014, -7.0E-4, -0.0025, 41.25, 22.95)" gradientUnits="userSpaceOnUse" id="gradient12" spreadMethod="pad" x1="-819.2" x2="819.2">
      <stop offset="0.0" stop-color="#003fff"/>
      <stop offset="0.39215686274509803" stop-color="#00b3d0"/>
    </linearGradient>
    <linearGradient gradientTransform="matrix(-0.0048, 0.0014, -7.0E-4, -0.0025, 56.5, 23.05)" gradientUnits="userSpaceOnUse" id="gradient13" spreadMethod="pad" x1="-819.2" x2="819.2">
      <stop offset="0.0" stop-color="#003fff"/>
      <stop offset="0.39215686274509803" stop-color="#00b3d0"/>
    </linearGradient>
    <linearGradient gradientTransform="matrix(-0.0047, 0.0014, -8.0E-4, -0.0025, 48.8, 22.95)" gradientUnits="userSpaceOnUse" id="gradient14" spreadMethod="pad" x1="-819.2" x2="819.2">
      <stop offset="0.0" stop-color="#003fff"/>
      <stop offset="0.39215686274509803" stop-color="#00b3d0"/>
    </linearGradient>
    <linearGradient gradientTransform="matrix(-0.0048, 0.0014, -7.0E-4, -0.0025, 79.35, 23.05)" gradientUnits="userSpaceOnUse" id="gradient15" spreadMethod="pad" x1="-819.2" x2="819.2">
      <stop offset="0.0" stop-color="#003fff"/>
      <stop offset="0.39215686274509803" stop-color="#00b3d0"/>
    </linearGradient>
  </defs>
</svg>
