<?xml version="1.0" encoding="UTF-8" standalone="no"?>
<svg xmlns:xlink="http://www.w3.org/1999/xlink" height="65.2px" width="113.65px" xmlns="http://www.w3.org/2000/svg">
  <g transform="matrix(1.0, 0.0, 0.0, 1.0, 0.05, 0.05)">
    <path d="M100.25 33.2 L97.15 33.2 Q95.95 33.25 94.95 33.65 L93.3 34.65 91.95 36.1 90.2 36.1 88.15 36.1 91.6 32.25 104.0 32.35 102.35 33.95 Q101.45 33.2 100.3 33.2 L100.25 33.2 M90.4 48.8 L91.0 48.8 91.45 49.65 93.2 48.8 93.85 48.8 95.75 48.8 94.45 50.05 92.6 50.05 91.85 50.05 90.4 48.8 M97.85 48.8 L99.65 48.8 99.15 49.45 98.45 50.05 96.6 50.05 97.85 48.8 M92.6 50.05 L93.85 48.8 92.6 50.05" fill="#5f5f5f" fill-rule="evenodd" stroke="none"/>
    <path d="M90.2 36.1 L90.1 36.5 90.1 36.8 90.05 37.35 90.25 38.8 90.55 39.5 91.1 40.3 91.25 40.5 89.5 40.5 89.15 40.5 88.15 40.5 78.95 40.5 79.45 37.75 79.65 36.5 79.7 36.1 87.95 36.1 88.15 36.1 90.2 36.1 M100.35 35.3 L101.2 35.85 Q101.7 36.45 101.7 37.35 101.7 38.25 101.2 38.9 L100.35 39.45 99.6 38.9 Q99.05 38.25 99.05 37.35 99.05 36.65 99.4 36.1 L99.6 35.85 100.15 35.4 100.35 35.3 M87.95 36.1 L87.9 36.3 87.8 37.0 87.75 37.35 87.8 37.75 79.45 37.75 87.8 37.75 87.75 37.35 87.8 37.0 87.9 36.3 87.95 36.1 M95.75 48.8 L96.4 48.8 96.5 48.8 96.6 48.8 96.75 48.8 97.85 48.8 96.6 50.05 95.75 48.8 M27.95 51.7 L16.45 50.3 14.75 47.1 26.15 48.45 27.95 51.7 M6.75 36.6 L0.0 33.25 0.0 29.8 2.4 27.65 7.7 27.65 6.45 29.1 6.45 33.05 7.95 34.4 6.75 36.6 M96.45 42.65 L97.1 43.15 97.2 43.3 Q97.65 43.85 97.65 44.65 97.65 45.45 97.2 46.05 L97.1 46.15 96.45 46.7 95.8 46.15 Q95.25 45.55 95.25 44.65 95.25 43.75 95.8 43.15 L96.45 42.65 M103.95 42.65 L104.65 43.15 Q105.15 43.75 105.15 44.65 105.15 45.55 104.65 46.15 L103.95 46.7 103.3 46.15 Q102.75 45.55 102.75 44.65 102.75 43.75 103.3 43.15 L103.95 42.65 M42.9 14.35 Q39.8 15.75 37.75 18.35 L37.35 18.85 37.05 19.3 37.0 19.4 36.9 19.55 36.85 19.6 36.8 19.65 36.8 19.7 36.2 20.65 35.3 19.65 34.0 18.3 Q36.0 15.6 39.65 14.3 L42.9 14.35 M36.9 46.8 L38.0 48.65 38.1 48.75 38.7 49.55 Q40.9 52.3 43.85 53.4 L46.45 54.0 46.8 54.0 46.45 54.05 45.05 54.05 44.15 54.05 Q42.15 53.9 40.35 53.35 L38.2 52.45 37.35 51.95 34.65 49.95 34.35 49.65 34.25 49.55 34.3 49.55 Q33.05 48.2 32.95 46.8 L35.3 45.4 35.5 45.6 35.7 45.8 36.9 46.8" fill="#333333" fill-rule="evenodd" stroke="none"/>
    <path d="M110.45 21.3 L106.85 21.3 100.65 19.1 104.35 19.05 100.65 19.1 100.6 19.1 89.7 15.4 83.85 15.7 87.4 16.8 94.8 19.3 96.75 19.95 100.8 21.3 96.4 21.3 89.8 19.35 61.8 9.75 53.7 7.25 64.1 7.25 71.4 7.25 79.0 9.75 104.35 19.05 110.45 21.3 M83.85 15.7 L79.45 14.2 83.65 14.1 85.65 14.0 89.7 15.4 85.65 14.0 83.65 14.1 79.45 14.2 83.85 15.7 M94.8 19.3 L89.8 19.35 94.8 19.3 M31.65 0.0 L51.7 0.0 64.6 5.2 44.55 5.2 31.65 0.0 M71.4 9.75 L79.0 9.75 71.4 9.75 83.65 14.1 71.4 9.75 61.8 9.75 71.4 9.75" fill="#bfbfbf" fill-rule="evenodd" stroke="none"/>
    <path d="M106.85 21.3 L110.45 21.3 113.55 30.8 99.85 30.8 96.4 21.3 100.8 21.3 101.1 22.15 102.75 26.9 105.25 28.25 106.2 28.75 108.8 26.9 106.85 21.3" fill="#adadad" fill-rule="evenodd" stroke="none"/>
    <path d="M108.8 26.9 L106.2 28.75 105.25 28.25 107.15 26.9 108.8 26.9 M91.0 16.7 L87.4 16.8 83.85 15.7 89.7 15.4 91.0 16.7" fill="#c2c2c2" fill-rule="evenodd" stroke="none"/>
    <path d="M100.65 19.1 L106.85 21.3 108.8 26.9 107.15 26.9 105.5 21.65 100.55 19.95 100.6 19.1 100.55 19.95 100.4 19.9 91.0 16.7 89.7 15.4 100.6 19.1 100.65 19.1" fill="#8e8e8e" fill-rule="evenodd" stroke="none"/>
    <path d="M96.4 21.3 L99.85 30.8 91.6 32.25 88.15 36.1 87.95 36.1 79.7 36.1 75.7 36.1 74.5 43.55 78.9 51.85 56.8 61.45 53.2 65.1 Q35.7 63.35 30.4 55.2 L27.95 51.7 26.15 48.45 14.75 47.1 9.0 46.4 5.5 38.8 6.75 36.6 7.95 34.4 9.45 35.8 21.5 35.8 9.45 35.8 7.95 34.4 6.45 33.05 6.45 29.1 11.05 29.1 15.65 29.1 20.25 29.1 24.85 29.1 29.45 29.1 32.05 29.1 31.7 30.3 32.05 29.1 32.1 29.1 31.8 29.9 31.7 30.3 31.65 30.5 31.65 30.55 31.6 30.75 31.55 30.8 31.45 31.1 31.3 32.1 31.15 33.05 31.1 33.85 31.05 34.75 31.1 35.8 29.05 35.8 21.5 35.8 20.35 38.8 22.45 43.5 28.45 44.45 32.35 52.35 32.05 52.75 32.45 53.15 Q34.6 55.2 37.05 56.5 L40.35 57.8 45.5 58.5 50.7 57.8 53.45 56.75 50.7 57.8 45.5 58.5 40.35 57.8 37.05 56.5 Q34.6 55.2 32.45 53.15 L32.05 52.75 30.4 55.2 32.05 52.75 32.35 52.35 34.25 49.55 34.35 49.65 34.65 49.95 37.35 51.95 38.2 52.45 40.35 53.35 Q42.15 53.9 44.15 54.05 L45.05 54.05 46.45 54.05 46.8 54.0 49.6 53.45 51.95 52.45 Q54.05 51.35 55.9 49.55 L56.95 48.4 57.7 47.5 58.35 46.6 58.45 46.45 59.6 44.55 61.7 43.55 61.95 43.55 64.7 43.55 69.3 41.05 70.2 36.1 66.1 36.1 63.3 36.1 61.85 34.4 61.6 31.05 61.1 28.65 59.85 25.4 Q58.7 23.05 56.95 21.05 L55.6 19.65 54.7 18.85 Q52.45 17.0 49.85 16.15 L48.9 14.15 49.95 12.65 50.6 11.7 50.95 11.15 53.7 7.25 61.8 9.75 89.8 19.35 88.25 23.65 68.2 21.75 67.85 20.05 Q66.75 16.45 63.75 14.05 62.3 12.9 60.45 12.05 L61.8 9.75 60.45 12.05 Q62.3 12.9 63.75 14.05 66.75 16.45 67.85 20.05 L68.2 21.75 88.25 23.65 89.8 19.35 96.4 21.3 M77.55 29.5 L65.5 28.65 Q64.75 25.25 63.1 22.3 L63.0 22.05 Q61.8 19.9 60.1 17.95 58.05 15.6 55.7 14.05 54.4 13.2 53.1 12.65 L50.6 11.7 53.1 12.65 Q54.4 13.2 55.7 14.05 58.05 15.6 60.1 17.95 61.8 19.9 63.0 22.05 L63.1 22.3 Q64.75 25.25 65.5 28.65 L77.55 29.5 M25.3 14.6 L24.85 14.05 10.65 12.05 12.55 8.2 14.45 4.4 31.65 0.0 44.55 5.2 43.15 11.15 42.55 11.25 Q40.9 11.5 39.4 12.0 L38.0 12.6 Q36.6 13.2 35.3 14.05 32.95 15.6 30.9 17.95 L30.55 18.45 30.5 18.5 30.45 18.6 30.2 18.85 29.85 19.3 29.55 19.65 28.85 18.8 28.2 18.05 27.15 16.75 25.3 14.6 M78.0 29.55 L89.45 30.4 91.6 32.25 89.45 30.4 78.0 29.55 M65.5 28.65 Q66.1 31.55 66.1 34.75 L66.1 36.1 66.1 34.75 Q66.1 31.55 65.5 28.65 M54.8 58.7 L53.45 56.75 53.95 56.5 Q57.25 54.75 60.1 51.5 L61.4 49.9 61.9 49.15 63.45 46.6 64.7 43.55 63.45 46.6 61.9 49.15 61.4 49.9 60.1 51.5 Q57.25 54.75 53.95 56.5 L53.45 56.75 54.8 58.7 M70.2 36.1 L75.7 36.1 70.2 36.1 M12.55 8.2 L28.85 6.0 39.4 12.0 28.85 6.0 12.55 8.2 M31.15 33.05 L6.45 33.05 31.15 33.05 M56.8 61.45 L55.15 59.15 56.8 61.45" fill="#666666" fill-rule="evenodd" stroke="none"/>
    <path d="M90.2 36.1 L91.95 36.1 93.3 34.65 94.95 33.65 Q95.95 33.25 97.15 33.2 L100.25 33.2 99.95 33.25 Q99.25 33.3 98.7 33.65 L97.8 34.4 97.2 35.3 96.9 36.1 Q96.75 36.7 96.75 37.35 L96.95 38.8 97.2 39.4 97.8 40.3 Q98.8 41.5 100.25 41.55 L98.95 41.55 Q98.2 40.75 97.2 40.55 L96.6 40.5 96.5 40.5 96.4 40.5 91.25 40.5 91.1 40.3 90.55 39.5 90.25 38.8 90.05 37.35 90.1 36.8 90.1 36.5 90.2 36.1" fill="url(#gradient0)" fill-rule="evenodd" stroke="none"/>
    <path d="M100.25 41.55 Q98.8 41.5 97.8 40.3 L97.2 39.4 96.95 38.8 96.75 37.35 Q96.75 36.7 96.9 36.1 L97.2 35.3 97.8 34.4 98.7 33.65 Q99.25 33.3 99.95 33.25 L100.25 33.2 100.3 33.2 Q101.45 33.2 102.35 33.95 L102.85 34.4 Q103.9 35.6 103.9 37.35 103.9 39.1 102.85 40.3 L102.7 40.5 Q101.7 41.55 100.3 41.55 L100.25 41.55 M100.35 35.3 L100.15 35.4 99.6 35.85 99.4 36.1 Q99.05 36.65 99.05 37.35 99.05 38.25 99.6 38.9 L100.35 39.45 100.8 39.5 100.85 39.5 Q101.65 39.5 102.2 38.9 102.7 38.25 102.7 37.35 102.7 36.45 102.2 35.85 101.7 35.3 101.05 35.2 L100.85 35.2 100.8 35.2 100.35 35.3" fill="url(#gradient1)" fill-rule="evenodd" stroke="none"/>
    <path d="M100.35 39.45 L101.2 38.9 Q101.7 38.25 101.7 37.35 101.7 36.45 101.2 35.85 L100.35 35.3 100.8 35.2 100.85 35.2 101.05 35.2 Q101.7 35.3 102.2 35.85 102.7 36.45 102.7 37.35 102.7 38.25 102.2 38.9 101.65 39.5 100.85 39.5 L100.8 39.5 100.35 39.45" fill="url(#gradient2)" fill-rule="evenodd" stroke="none"/>
    <path d="M99.85 30.8 L113.55 30.8 104.0 32.35 91.6 32.25 99.85 30.8" fill="#4d4d4d" fill-rule="evenodd" stroke="none"/>
    <path d="M91.25 40.5 L96.4 40.5 Q95.15 40.55 94.25 41.45 L94.2 41.55 94.05 41.7 Q93.0 42.9 93.0 44.65 93.0 46.35 94.05 47.6 L94.25 47.8 94.65 48.15 Q95.15 48.55 95.8 48.75 L96.4 48.8 95.75 48.8 93.85 48.8 93.2 48.8 91.0 48.8 90.4 48.8 89.35 48.8 88.15 48.8 Q87.15 48.75 86.4 48.15 L86.3 48.1 86.0 47.8 85.8 47.6 Q84.95 46.55 84.8 45.2 L84.75 44.65 Q84.75 43.4 85.3 42.4 L85.8 41.7 85.95 41.55 86.0 41.45 Q86.9 40.55 88.15 40.5 L89.15 40.5 89.5 40.5 91.25 40.5" fill="url(#gradient3)" fill-rule="evenodd" stroke="none"/>
    <path d="M78.95 40.5 L88.15 40.5 Q86.9 40.55 86.0 41.45 L85.95 41.55 85.8 41.7 85.3 42.4 Q84.75 43.4 84.75 44.65 L84.8 45.2 Q84.95 46.55 85.8 47.6 L86.0 47.8 86.3 48.1 86.4 48.15 Q87.15 48.75 88.15 48.8 L86.55 48.8 86.55 48.85 81.35 48.85 79.0 44.5 79.9 44.5 Q79.9 44.0 80.05 43.55 L80.15 43.2 Q80.35 42.35 80.95 41.7 L79.85 41.7 79.7 41.85 79.65 41.95 79.05 42.9 78.85 43.55 78.8 43.7 78.75 44.0 78.8 43.7 78.85 43.55 79.05 42.9 79.65 41.95 79.7 41.85 79.85 41.7 80.95 41.7 Q80.35 42.35 80.15 43.2 L80.05 43.55 Q79.9 44.0 79.9 44.5 L79.0 44.5 78.75 44.0 78.5 43.55 78.6 43.1 78.95 40.5 M82.35 44.5 L81.1 44.5 81.15 44.2 81.25 43.7 Q81.45 42.65 82.15 41.85 L82.3 41.7 83.4 41.7 Q82.7 42.5 82.5 43.55 82.35 44.0 82.35 44.5 82.35 44.0 82.5 43.55 82.7 42.5 83.4 41.7 L82.3 41.7 82.15 41.85 Q81.45 42.65 81.25 43.7 L81.15 44.2 81.1 44.5 82.35 44.5" fill="url(#gradient4)" fill-rule="evenodd" stroke="none"/>
    <path d="M88.15 48.8 L89.35 48.8 90.95 51.85 78.9 51.85 74.5 43.55 78.45 43.55 78.5 43.55 78.75 44.0 79.0 44.5 81.35 48.85 86.55 48.85 86.55 48.8 88.15 48.8" fill="#999999" fill-rule="evenodd" stroke="none"/>
    <path d="M96.4 40.5 L96.5 40.5 96.6 40.5 97.2 40.55 Q98.2 40.75 98.95 41.55 L99.05 41.7 Q100.15 42.9 100.15 44.65 100.15 46.35 99.05 47.6 L98.5 48.15 98.3 48.3 Q97.6 48.75 96.75 48.8 L96.6 48.8 96.5 48.8 96.4 48.8 95.8 48.75 Q95.15 48.55 94.65 48.15 L94.25 47.8 94.05 47.6 Q93.0 46.35 93.0 44.65 93.0 42.9 94.05 41.7 L94.2 41.55 94.25 41.45 Q95.15 40.55 96.4 40.5 M96.45 42.65 L95.8 43.15 Q95.25 43.75 95.25 44.65 95.25 45.55 95.8 46.15 L96.45 46.7 97.05 46.8 97.1 46.8 97.2 46.8 Q97.9 46.75 98.4 46.15 98.95 45.55 98.95 44.65 98.95 43.75 98.4 43.15 97.9 42.55 97.2 42.5 L97.1 42.5 97.05 42.5 96.45 42.65" fill="url(#gradient5)" fill-rule="evenodd" stroke="none"/>
    <path d="M96.45 46.7 L97.1 46.15 97.2 46.05 Q97.65 45.45 97.65 44.65 97.65 43.85 97.2 43.3 L97.1 43.15 96.45 42.65 97.05 42.5 97.1 42.5 97.2 42.5 Q97.9 42.55 98.4 43.15 98.95 43.75 98.95 44.65 98.95 45.55 98.4 46.15 97.9 46.75 97.2 46.8 L97.1 46.8 97.05 46.8 96.45 46.7" fill="url(#gradient6)" fill-rule="evenodd" stroke="none"/>
    <path d="M98.95 41.55 L100.25 41.55 100.3 41.55 Q101.7 41.55 102.7 40.5 L103.95 40.5 Q102.55 40.55 101.55 41.7 100.5 42.9 100.5 44.65 100.5 46.35 101.55 47.6 102.55 48.75 103.95 48.8 L99.65 48.8 97.85 48.8 96.75 48.8 Q97.6 48.75 98.3 48.3 L98.5 48.15 99.05 47.6 Q100.15 46.35 100.15 44.65 100.15 42.9 99.05 41.7 L98.95 41.55" fill="url(#gradient7)" fill-rule="evenodd" stroke="none"/>
    <path d="M91.0 48.8 L93.2 48.8 91.45 49.65 91.0 48.8" fill="#a5a5a5" fill-rule="evenodd" stroke="none"/>
    <path d="M103.95 46.7 L104.65 46.15 Q105.15 45.55 105.15 44.65 105.15 43.75 104.65 43.15 L103.95 42.65 104.55 42.5 104.65 42.5 Q105.4 42.5 105.95 43.15 106.45 43.75 106.45 44.65 106.45 45.55 105.95 46.15 105.4 46.8 104.65 46.8 L104.55 46.8 103.95 46.7" fill="url(#gradient8)" fill-rule="evenodd" stroke="none"/>
    <path d="M103.95 48.8 Q102.55 48.75 101.55 47.6 100.5 46.35 100.5 44.65 100.5 42.9 101.55 41.7 102.55 40.55 103.95 40.5 L104.0 40.5 104.1 40.5 Q105.6 40.5 106.6 41.7 107.65 42.9 107.65 44.65 107.65 46.35 106.6 47.6 105.6 48.8 104.1 48.8 L104.0 48.8 103.95 48.8 M103.95 42.65 L103.3 43.15 Q102.75 43.75 102.75 44.65 102.75 45.55 103.3 46.15 L103.95 46.7 104.55 46.8 104.65 46.8 Q105.4 46.8 105.95 46.15 106.45 45.55 106.45 44.65 106.45 43.75 105.95 43.15 105.4 42.5 104.65 42.5 L104.55 42.5 103.95 42.65" fill="url(#gradient9)" fill-rule="evenodd" stroke="none"/>
    <path d="M53.7 7.25 L50.95 11.15 43.15 11.15 44.55 5.2 64.6 5.2 64.1 7.25 53.7 7.25 M79.7 36.1 L79.65 36.5 79.45 37.75 78.95 40.5 78.6 43.1 78.45 43.55 78.6 43.1 78.5 43.55 78.45 43.55 74.5 43.55 75.7 36.1 79.7 36.1" fill="#7f7f7f" fill-rule="evenodd" stroke="none"/>
    <path d="M50.95 11.15 L50.6 11.7 49.95 12.65 48.25 12.85 48.1 12.85 46.15 13.25 Q44.75 13.55 43.6 14.05 L42.9 14.35 39.65 14.3 Q36.0 15.6 34.0 18.3 L35.3 19.65 36.2 20.65 35.7 21.65 35.65 21.75 34.85 23.75 34.5 24.85 34.5 24.9 34.45 25.0 34.25 25.25 Q33.2 26.45 32.55 27.95 L32.05 29.1 32.55 27.95 Q33.2 26.45 34.25 25.25 L34.45 25.0 34.25 25.25 Q33.25 26.5 32.6 27.95 L32.1 29.1 32.05 29.1 29.45 29.1 24.85 29.1 20.25 29.1 15.65 29.1 11.05 29.1 6.45 29.1 7.7 27.65 15.65 18.05 20.25 18.05 22.55 18.05 25.3 14.6 27.15 16.75 26.25 18.05 24.85 18.05 22.55 18.05 24.85 18.05 26.25 18.05 27.15 16.75 28.2 18.05 28.85 18.8 29.55 19.65 29.85 19.3 30.2 18.85 30.45 18.6 30.5 18.5 30.55 18.45 30.9 17.95 Q32.95 15.6 35.3 14.05 36.6 13.2 38.0 12.6 L39.4 12.0 Q40.9 11.5 42.55 11.25 L43.15 11.15 50.95 11.15 M90.95 51.85 L71.9 61.45 68.1 65.1 53.2 65.1 56.8 61.45 78.9 51.85 90.95 51.85 M28.2 18.05 L26.25 18.05 28.2 18.05 M35.7 21.65 L35.65 21.75 34.15 23.5 35.65 21.75 35.7 21.65 M29.55 23.5 L32.75 19.65 35.3 19.65 32.75 19.65 29.55 23.5 M24.95 23.5 L28.85 18.8 24.95 23.5 M24.85 18.05 L20.35 23.5 24.85 18.05 M29.55 19.65 L32.75 19.65 29.55 19.65 M31.2 36.55 L31.2 36.6 31.25 37.05 31.25 37.2 31.25 37.3 Q31.55 39.2 32.25 40.9 32.85 42.3 33.75 43.6 L34.65 44.75 34.75 44.8 33.15 44.8 Q29.2 40.8 29.05 35.8 29.2 40.8 33.15 44.8 L34.75 44.8 34.8 44.9 35.3 45.4 32.95 46.8 Q33.05 48.2 34.3 49.55 L34.25 49.55 32.35 52.35 28.45 44.45 22.45 43.5 20.35 38.8 21.5 35.8 29.05 35.8 31.1 35.8 31.15 36.45 31.2 36.55 M15.3 24.0 L11.05 29.1 15.3 24.0 M24.55 24.0 L20.25 29.1 24.55 24.0 M29.15 24.05 L24.85 29.1 29.15 24.05 M33.75 24.0 L29.45 29.1 33.75 24.0 M19.9 24.0 L15.65 29.1 19.9 24.0 M15.75 23.5 L20.25 18.05 15.75 23.5 M71.9 61.45 L66.8 61.45 71.9 61.45 M66.3 61.45 L56.8 61.45 66.3 61.45" fill="#4c4c4c" fill-rule="evenodd" stroke="none"/>
    <path d="M42.9 14.35 L43.6 14.05 Q44.75 13.55 46.15 13.25 L48.1 12.85 48.25 12.85 49.95 12.65 48.9 14.15 49.85 16.15 Q52.45 17.0 54.7 18.85 L55.6 19.65 56.95 21.05 Q58.7 23.05 59.85 25.4 L61.1 28.65 61.6 31.05 61.85 34.4 63.3 36.1 66.1 36.1 70.2 36.1 69.3 41.05 64.7 43.55 61.95 43.55 62.1 43.35 61.7 43.55 59.6 44.55 58.45 46.45 58.35 46.6 57.7 47.5 56.95 48.4 55.9 49.55 Q54.05 51.35 51.95 52.45 L49.6 53.45 46.8 54.0 46.45 54.0 43.85 53.4 Q40.9 52.3 38.7 49.55 L38.1 48.75 38.0 48.65 36.9 46.8 38.2 47.6 38.3 47.65 39.35 48.15 39.5 48.2 39.95 48.35 41.5 48.7 43.35 48.85 43.9 48.85 Q45.55 48.75 47.05 48.25 L48.4 47.65 Q50.35 46.65 52.05 44.75 L52.15 44.55 53.1 43.35 53.1 43.3 53.55 42.6 Q55.1 40.05 55.5 37.0 L55.6 34.75 55.6 34.25 55.55 33.15 55.25 31.05 55.15 30.6 Q54.3 27.3 52.05 24.75 50.45 22.95 48.6 21.9 L48.1 21.65 47.45 21.35 46.8 17.7 Q44.8 17.0 42.45 17.7 L39.5 21.3 Q38.25 21.75 37.15 22.5 L36.2 23.25 35.85 23.55 34.65 24.75 34.5 25.0 34.5 24.85 34.5 25.0 34.45 25.0 34.5 24.9 34.5 24.85 34.85 23.75 35.65 21.75 35.7 21.65 36.2 20.65 36.8 19.7 36.8 19.65 36.85 19.6 36.9 19.55 37.0 19.4 37.05 19.3 37.35 18.85 37.75 18.35 Q39.8 15.75 42.9 14.35 M59.2 44.55 L59.6 44.55 59.2 44.55 M59.2 41.1 L59.35 41.1 59.75 40.15 60.1 39.05 60.2 38.55 60.45 37.35 58.45 37.35 58.05 39.35 57.35 41.1 59.2 41.1 M67.25 41.1 L67.4 41.1 67.8 40.05 68.1 39.05 68.2 38.55 68.45 37.35 66.45 37.35 66.2 38.55 66.1 39.05 66.05 39.35 65.75 40.15 65.5 40.9 65.4 41.1 67.25 41.1 M63.4 41.1 L63.75 40.15 64.1 39.05 64.2 38.55 64.45 37.35 62.45 37.35 62.2 38.55 62.1 39.05 62.1 39.15 61.8 40.05 61.4 41.1 63.4 41.1" fill="url(#gradient10)" fill-rule="evenodd" stroke="none"/>
    <path d="M34.5 25.0 L34.65 24.75 35.85 23.55 36.2 23.25 37.15 22.5 Q38.25 21.75 39.5 21.3 L42.45 17.7 Q44.8 17.0 46.8 17.7 L47.45 21.35 48.1 21.65 48.6 21.9 Q50.45 22.95 52.05 24.75 54.3 27.3 55.15 30.6 L55.25 31.05 55.55 33.15 55.6 34.25 55.6 34.75 55.5 37.0 Q55.1 40.05 53.55 42.6 L53.1 43.3 53.1 43.35 52.15 44.55 52.05 44.75 Q50.35 46.65 48.4 47.65 L47.05 48.25 Q45.55 48.75 43.9 48.85 L43.35 48.85 41.5 48.7 39.95 48.35 39.5 48.2 39.35 48.15 38.3 47.65 38.2 47.6 36.9 46.8 35.7 45.8 35.5 45.6 35.3 45.4 34.8 44.9 34.75 44.8 34.65 44.75 33.75 43.6 Q32.85 42.3 32.25 40.9 31.55 39.2 31.25 37.3 L31.25 37.2 31.25 37.05 31.2 36.6 31.2 36.55 31.15 36.45 31.1 35.8 31.05 34.75 31.1 33.85 31.15 33.05 31.3 32.1 31.45 31.1 31.55 30.8 31.6 30.75 31.65 30.55 31.65 30.5 31.7 30.3 31.8 29.9 32.1 29.1 32.6 27.95 Q33.25 26.5 34.25 25.25 L34.45 25.0 34.5 25.0 M47.45 21.35 Q46.25 20.9 45.0 20.75 L43.35 20.6 40.25 21.05 39.5 21.3 40.25 21.05 43.35 20.6 45.0 20.75 Q46.25 20.9 47.45 21.35 M47.15 39.2 L48.1 36.75 48.3 35.6 48.35 34.35 48.1 31.9 47.7 30.6 47.15 29.5 46.1 28.05 45.25 27.2 45.05 27.0 44.65 26.7 Q43.0 25.55 41.1 25.45 L40.6 25.4 Q37.4 25.4 35.15 28.05 34.4 28.9 33.9 29.9 32.95 31.7 32.85 33.85 L32.85 34.35 Q32.85 35.55 33.1 36.6 L33.6 38.2 Q34.15 39.55 35.15 40.65 36.2 41.85 37.45 42.5 38.9 43.25 40.6 43.25 42.35 43.25 43.8 42.5 L45.1 41.65 45.25 41.55 45.3 41.5 46.1 40.65 46.8 39.75 47.15 39.2 M31.3 32.1 Q31.0 34.15 31.2 36.55 31.0 34.15 31.3 32.1" fill="url(#gradient11)" fill-rule="evenodd" stroke="none"/>
    <path d="M61.7 43.55 L62.1 43.35 61.95 43.55 61.7 43.55" fill="url(#gradient12)" fill-rule="evenodd" stroke="none"/>
    <path d="M47.15 29.5 L47.7 30.6 48.1 31.9 48.35 34.35 48.3 35.6 48.1 36.75 47.15 39.2 46.8 39.4 44.85 39.85 42.9 39.4 41.45 38.25 40.5 36.75 40.45 36.6 Q40.05 35.55 40.05 34.35 L40.1 33.85 Q40.2 31.85 41.45 30.45 42.85 28.85 44.85 28.85 46.1 28.85 47.15 29.5" fill="url(#gradient13)" fill-rule="evenodd" stroke="none"/>
    <path d="M105.25 28.25 L102.75 26.9 101.1 22.15 100.8 21.3 96.75 19.95 94.8 19.3 87.4 16.8 91.0 16.7 100.4 19.9 96.75 19.95 100.4 19.9 100.55 19.95 105.5 21.65 107.15 26.9 105.25 28.25 M101.1 22.15 L105.5 21.65 101.1 22.15" fill="url(#gradient14)" fill-rule="evenodd" stroke="none"/>
    <path d="M58.05 39.35 L58.45 37.35 60.45 37.35 60.2 38.55 60.1 39.05 59.75 40.15 59.35 41.1 59.2 41.1 58.05 39.35" fill="url(#gradient15)" fill-rule="evenodd" stroke="none"/>
    <path d="M62.1 39.15 L62.1 39.05 62.2 38.55 62.45 37.35 64.45 37.35 64.2 38.55 64.1 39.05 63.75 40.15 63.4 41.1 62.1 39.15" fill="url(#gradient16)" fill-rule="evenodd" stroke="none"/>
    <path d="M66.05 39.35 L66.1 39.05 66.2 38.55 66.45 37.35 68.45 37.35 68.2 38.55 68.1 39.05 67.8 40.05 67.4 41.1 67.25 41.1 66.05 39.35" fill="url(#gradient17)" fill-rule="evenodd" stroke="none"/>
    <path d="M59.2 41.1 L57.35 41.1 58.05 39.35 59.2 41.1" fill="url(#gradient18)" fill-rule="evenodd" stroke="none"/>
    <path d="M63.4 41.1 L61.4 41.1 61.8 40.05 62.1 39.15 63.4 41.1" fill="url(#gradient19)" fill-rule="evenodd" stroke="none"/>
    <path d="M67.25 41.1 L65.4 41.1 65.5 40.9 65.75 40.15 66.05 39.35 67.25 41.1" fill="url(#gradient20)" fill-rule="evenodd" stroke="none"/>
    <path d="M45.25 41.55 L45.1 41.65 43.8 42.5 Q42.35 43.25 40.6 43.25 38.9 43.25 37.45 42.5 36.2 41.85 35.15 40.65 34.15 39.55 33.6 38.2 L33.1 36.6 Q32.85 35.55 32.85 34.35 L32.85 33.85 Q32.95 31.7 33.9 29.9 34.4 28.9 35.15 28.05 37.4 25.4 40.6 25.4 L41.1 25.45 Q43.0 25.55 44.65 26.7 L45.05 27.0 44.3 26.95 Q41.65 26.95 39.8 29.1 37.95 31.2 37.95 34.25 37.95 35.95 38.55 37.45 39.0 38.5 39.8 39.4 L41.75 40.95 Q42.95 41.55 44.3 41.55 L45.25 41.55" fill="url(#gradient21)" fill-rule="evenodd" stroke="none"/>
    <path d="M47.15 39.2 L46.8 39.75 46.1 40.65 45.3 41.5 45.25 41.55 44.3 41.55 Q42.95 41.55 41.75 40.95 L39.8 39.4 Q39.0 38.5 38.55 37.45 37.95 35.95 37.95 34.25 37.95 31.2 39.8 29.1 41.65 26.95 44.3 26.95 L45.05 27.0 45.25 27.2 46.1 28.05 47.15 29.5 Q46.1 28.85 44.85 28.85 42.85 28.85 41.45 30.45 40.2 31.85 40.1 33.85 L40.05 34.35 Q40.05 35.55 40.45 36.6 L40.5 36.75 41.45 38.25 42.9 39.4 44.85 39.85 46.8 39.4 47.15 39.2" fill="url(#gradient22)" fill-rule="evenodd" stroke="none"/>
    <path d="M106.85 21.3 L110.45 21.3 104.35 19.05 100.65 19.1 106.85 21.3 108.8 26.9 106.2 28.75 105.25 28.25 102.75 26.9 101.1 22.15 100.8 21.3 96.4 21.3 99.85 30.8 113.55 30.8 110.45 21.3 M61.8 9.75 L60.45 12.05 Q62.3 12.9 63.75 14.05 66.75 16.45 67.85 20.05 L68.2 21.75 88.25 23.65 89.8 19.35 61.8 9.75 53.7 7.25 50.95 11.15 50.6 11.7 53.1 12.65 Q54.4 13.2 55.7 14.05 58.05 15.6 60.1 17.95 61.8 19.9 63.0 22.05 L63.1 22.3 Q64.75 25.25 65.5 28.65 L77.55 29.5 M87.4 16.8 L91.0 16.7 89.7 15.4 83.85 15.7 87.4 16.8 94.8 19.3 96.75 19.95 100.4 19.9 91.0 16.7 M89.7 15.4 L85.65 14.0 83.65 14.1 79.45 14.2 83.85 15.7 M100.8 21.3 L96.75 19.95 M100.6 19.1 L100.55 19.95 105.5 21.65 107.15 26.9 108.8 26.9 M89.7 15.4 L100.6 19.1 100.65 19.1 M100.55 19.95 L100.4 19.9 M96.4 21.3 L89.8 19.35 94.8 19.3 M100.25 33.2 L97.15 33.2 Q95.95 33.25 94.95 33.65 L93.3 34.65 91.95 36.1 90.2 36.1 90.1 36.5 90.1 36.8 90.05 37.35 90.25 38.8 90.55 39.5 91.1 40.3 91.25 40.5 96.4 40.5 96.5 40.5 96.6 40.5 97.2 40.55 Q98.2 40.75 98.95 41.55 L100.25 41.55 Q98.8 41.5 97.8 40.3 L97.2 39.4 96.95 38.8 96.75 37.35 Q96.75 36.7 96.9 36.1 L97.2 35.3 97.8 34.4 98.7 33.65 Q99.25 33.3 99.95 33.25 L100.25 33.2 100.3 33.2 Q101.45 33.2 102.35 33.95 L104.0 32.35 91.6 32.25 88.15 36.1 M100.35 39.45 L101.2 38.9 Q101.7 38.25 101.7 37.35 101.7 36.45 101.2 35.85 L100.35 35.3 100.15 35.4 99.6 35.85 99.4 36.1 Q99.05 36.65 99.05 37.35 99.05 38.25 99.6 38.9 L100.35 39.45 100.8 39.5 100.85 39.5 Q101.65 39.5 102.2 38.9 102.7 38.25 102.7 37.35 102.7 36.45 102.2 35.85 101.7 35.3 101.05 35.2 L100.85 35.2 100.8 35.2 100.35 35.3 M91.6 32.25 L99.85 30.8 M79.45 37.75 L87.8 37.75 87.75 37.35 87.8 37.0 87.9 36.3 87.95 36.1 79.7 36.1 79.65 36.5 79.45 37.75 78.95 40.5 88.15 40.5 89.15 40.5 89.5 40.5 91.25 40.5 M88.15 48.8 Q87.15 48.75 86.4 48.15 L86.3 48.1 86.0 47.8 85.8 47.6 Q84.95 46.55 84.8 45.2 L84.75 44.65 Q84.75 43.4 85.3 42.4 L85.8 41.7 85.95 41.55 86.0 41.45 Q86.9 40.55 88.15 40.5 M82.35 44.5 Q82.35 44.0 82.5 43.55 82.7 42.5 83.4 41.7 L82.3 41.7 82.15 41.85 Q81.45 42.65 81.25 43.7 L81.15 44.2 81.1 44.5 82.35 44.5 M89.35 48.8 L90.4 48.8 91.0 48.8 93.2 48.8 93.85 48.8 95.75 48.8 96.4 48.8 95.8 48.75 Q95.15 48.55 94.65 48.15 L94.25 47.8 94.05 47.6 Q93.0 46.35 93.0 44.65 93.0 42.9 94.05 41.7 L94.2 41.55 94.25 41.45 Q95.15 40.55 96.4 40.5 M88.15 48.8 L89.35 48.8 90.95 51.85 71.9 61.45 68.1 65.1 53.2 65.1 Q35.7 63.35 30.4 55.2 L27.95 51.7 16.45 50.3 14.75 47.1 9.0 46.4 5.5 38.8 6.75 36.6 0.0 33.25 0.0 29.8 2.4 27.65 7.7 27.65 15.65 18.05 20.25 18.05 22.55 18.05 25.3 14.6 24.85 14.05 10.65 12.05 12.55 8.2 14.45 4.4 31.65 0.0 51.7 0.0 64.6 5.2 64.1 7.25 71.4 7.25 79.0 9.75 104.35 19.05 M79.0 44.5 L81.35 48.85 86.55 48.85 86.55 48.8 88.15 48.8 M96.45 46.7 L97.1 46.15 97.2 46.05 Q97.65 45.45 97.65 44.65 97.65 43.85 97.2 43.3 L97.1 43.15 96.45 42.65 95.8 43.15 Q95.25 43.75 95.25 44.65 95.25 45.55 95.8 46.15 L96.45 46.7 97.05 46.8 97.1 46.8 97.2 46.8 Q97.9 46.75 98.4 46.15 98.95 45.55 98.95 44.65 98.95 43.75 98.4 43.15 97.9 42.55 97.2 42.5 L97.1 42.5 97.05 42.5 96.45 42.65 M102.7 40.5 Q101.7 41.55 100.3 41.55 L100.25 41.55 M96.75 48.8 Q97.6 48.75 98.3 48.3 L98.5 48.15 99.05 47.6 Q100.15 46.35 100.15 44.65 100.15 42.9 99.05 41.7 L98.95 41.55 M96.4 48.8 L96.5 48.8 96.6 48.8 96.75 48.8 97.85 48.8 99.65 48.8 103.95 48.8 Q102.55 48.75 101.55 47.6 100.5 46.35 100.5 44.65 100.5 42.9 101.55 41.7 102.55 40.55 103.95 40.5 L102.7 40.5 102.85 40.3 Q103.9 39.1 103.9 37.35 103.9 35.6 102.85 34.4 L102.35 33.95 M99.65 48.8 L99.15 49.45 98.45 50.05 96.6 50.05 95.75 48.8 94.45 50.05 92.6 50.05 91.85 50.05 90.4 48.8 M91.6 32.25 L89.45 30.4 78.0 29.55 M105.25 28.25 L107.15 26.9 M103.95 48.8 L104.0 48.8 104.1 48.8 Q105.6 48.8 106.6 47.6 107.65 46.35 107.65 44.65 107.65 42.9 106.6 41.7 105.6 40.5 104.1 40.5 L104.0 40.5 103.95 40.5 M103.95 46.7 L104.65 46.15 Q105.15 45.55 105.15 44.65 105.15 43.75 104.65 43.15 L103.95 42.65 103.3 43.15 Q102.75 43.75 102.75 44.65 102.75 45.55 103.3 46.15 L103.95 46.7 104.55 46.8 104.65 46.8 Q105.4 46.8 105.95 46.15 106.45 45.55 106.45 44.65 106.45 43.75 105.95 43.15 105.4 42.5 104.65 42.5 L104.55 42.5 103.95 42.65 M104.0 32.35 L113.55 30.8 M105.5 21.65 L101.1 22.15 M96.6 50.05 L97.85 48.8 M93.85 48.8 L92.6 50.05 M91.45 49.65 L93.2 48.8 M83.65 14.1 L71.4 9.75 61.8 9.75 M79.0 9.75 L71.4 9.75 M39.4 12.0 Q40.9 11.5 42.55 11.25 L43.15 11.15 44.55 5.2 31.65 0.0 M49.95 12.65 L48.25 12.85 48.1 12.85 46.15 13.25 Q44.75 13.55 43.6 14.05 L42.9 14.35 Q39.8 15.75 37.75 18.35 L37.35 18.85 37.05 19.3 37.0 19.4 36.9 19.55 36.85 19.6 M36.8 19.65 L36.8 19.7 36.2 20.65 35.7 21.65 35.65 21.75 34.85 23.75 M34.5 24.85 L34.5 25.0 34.65 24.75 35.85 23.55 36.2 23.25 37.15 22.5 Q38.25 21.75 39.5 21.3 L42.45 17.7 Q44.8 17.0 46.8 17.7 L47.45 21.35 48.1 21.65 48.6 21.9 Q50.45 22.95 52.05 24.75 54.3 27.3 55.15 30.6 L55.25 31.05 55.55 33.15 55.6 34.25 55.6 34.75 55.5 37.0 Q55.1 40.05 53.55 42.6 L53.1 43.3 53.1 43.35 52.15 44.55 52.05 44.75 Q50.35 46.65 48.4 47.65 L47.05 48.25 Q45.55 48.75 43.9 48.85 L43.35 48.85 41.5 48.7 39.95 48.35 39.5 48.2 39.35 48.15 38.3 47.65 38.2 47.6 36.9 46.8 38.0 48.65 38.1 48.75 38.7 49.55 Q40.9 52.3 43.85 53.4 L46.45 54.0 46.8 54.0 49.6 53.45 51.95 52.45 Q54.05 51.35 55.9 49.55 L56.95 48.4 57.7 47.5 58.35 46.6 58.45 46.45 59.6 44.55 59.2 44.55 M49.95 12.65 L48.9 14.15 49.85 16.15 Q52.45 17.0 54.7 18.85 L55.6 19.65 56.95 21.05 Q58.7 23.05 59.85 25.4 L61.1 28.65 61.6 31.05 61.85 34.4 63.3 36.1 66.1 36.1 66.1 34.75 Q66.1 31.55 65.5 28.65 M39.5 21.3 L40.25 21.05 43.35 20.6 45.0 20.75 Q46.25 20.9 47.45 21.35 M43.15 11.15 L50.95 11.15 M50.6 11.7 L49.95 12.65 M47.15 29.5 L47.7 30.6 48.1 31.9 48.35 34.35 48.3 35.6 48.1 36.75 47.15 39.2 46.8 39.75 46.1 40.65 45.3 41.5 45.25 41.55 45.1 41.65 43.8 42.5 Q42.35 43.25 40.6 43.25 38.9 43.25 37.45 42.5 36.2 41.85 35.15 40.65 34.15 39.55 33.6 38.2 L33.1 36.6 Q32.85 35.55 32.85 34.35 L32.85 33.85 Q32.95 31.7 33.9 29.9 34.4 28.9 35.15 28.05 37.4 25.4 40.6 25.4 L41.1 25.45 Q43.0 25.55 44.65 26.7 L45.05 27.0 45.25 27.2 46.1 28.05 47.15 29.5 Q46.1 28.85 44.85 28.85 42.85 28.85 41.45 30.45 40.2 31.85 40.1 33.85 L40.05 34.35 Q40.05 35.55 40.45 36.6 L40.5 36.75 41.45 38.25 42.9 39.4 44.85 39.85 46.8 39.4 47.15 39.2 M45.25 41.55 L44.3 41.55 Q42.95 41.55 41.75 40.95 L39.8 39.4 Q39.0 38.5 38.55 37.45 37.95 35.95 37.95 34.25 37.95 31.2 39.8 29.1 41.65 26.95 44.3 26.95 L45.05 27.0 M58.05 39.35 L58.45 37.35 60.45 37.35 60.2 38.55 60.1 39.05 59.75 40.15 59.35 41.1 59.2 41.1 57.35 41.1 58.05 39.35 59.2 41.1 M79.7 36.1 L75.7 36.1 74.5 43.55 78.45 43.55 78.6 43.1 M61.95 43.55 L64.7 43.55 69.3 41.05 70.2 36.1 66.1 36.1 M66.05 39.35 L66.1 39.05 66.2 38.55 66.45 37.35 68.45 37.35 68.2 38.55 68.1 39.05 67.8 40.05 67.4 41.1 67.25 41.1 65.4 41.1 65.5 40.9 65.75 40.15 66.05 39.35 67.25 41.1 M62.1 39.15 L62.1 39.05 62.2 38.55 62.45 37.35 64.45 37.35 64.2 38.55 64.1 39.05 63.75 40.15 63.4 41.1 61.4 41.1 61.8 40.05 62.1 39.15 63.4 41.1 M61.7 43.55 L62.1 43.35 61.95 43.55 61.7 43.55 59.6 44.55 M64.7 43.55 L63.45 46.6 61.9 49.15 61.4 49.9 60.1 51.5 Q57.25 54.75 53.95 56.5 L53.45 56.75 54.8 58.7 M78.75 44.0 L78.8 43.7 78.85 43.55 79.05 42.9 79.65 41.95 79.7 41.85 79.85 41.7 80.95 41.7 Q80.35 42.35 80.15 43.2 L80.05 43.55 Q79.9 44.0 79.9 44.5 L79.0 44.5 M78.5 43.55 L78.45 43.55 M75.7 36.1 L70.2 36.1 M53.7 7.25 L64.1 7.25 M44.55 5.2 L64.6 5.2 M22.55 18.05 L24.85 18.05 26.25 18.05 27.15 16.75 25.3 14.6 M26.25 18.05 L28.2 18.05 27.15 16.75 M28.2 18.05 L28.85 18.8 29.55 19.65 29.85 19.3 30.2 18.85 30.45 18.6 30.5 18.5 30.55 18.45 30.9 17.95 Q32.95 15.6 35.3 14.05 36.6 13.2 38.0 12.6 L39.4 12.0 28.85 6.0 12.55 8.2 M20.35 23.5 L24.85 18.05 M28.85 18.8 L24.95 23.5 M35.3 19.65 L32.75 19.65 29.55 23.5 M34.15 23.5 L35.65 21.75 35.7 21.65 M42.9 14.35 L39.65 14.3 Q36.0 15.6 34.0 18.3 L35.3 19.65 36.2 20.65 M32.75 19.65 L29.55 19.65 M32.05 29.1 L29.45 29.1 24.85 29.1 20.25 29.1 15.65 29.1 11.05 29.1 6.45 29.1 6.45 33.05 31.15 33.05 M31.3 32.1 L31.45 31.1 31.55 30.8 31.6 30.75 31.65 30.55 31.65 30.5 31.7 30.3 32.05 29.1 32.55 27.95 Q33.2 26.45 34.25 25.25 L34.45 25.0 34.5 25.0 M34.5 24.9 L34.5 24.85 M7.7 27.65 L6.45 29.1 M7.95 34.4 L6.75 36.6 M21.5 35.8 L9.45 35.8 7.95 34.4 6.45 33.05 M32.1 29.1 L32.05 29.1 M31.25 37.2 L31.25 37.05 31.2 36.6 31.2 36.55 Q31.0 34.15 31.3 32.1 M31.1 35.8 L29.05 35.8 Q29.2 40.8 33.15 44.8 L34.75 44.8 34.65 44.75 33.75 43.6 Q32.85 42.3 32.25 40.9 31.55 39.2 31.25 37.3 M21.5 35.8 L29.05 35.8 M32.35 52.35 L28.45 44.45 22.45 43.5 20.35 38.8 21.5 35.8 M34.75 44.8 L34.8 44.9 35.3 45.4 35.5 45.6 35.7 45.8 36.9 46.8 M34.25 49.55 L34.3 49.55 Q33.05 48.2 32.95 46.8 L35.3 45.4 M11.05 29.1 L15.3 24.0 M14.75 47.1 L26.15 48.45 27.95 51.7 M20.25 18.05 L15.75 23.5 M15.65 29.1 L19.9 24.0 M29.45 29.1 L33.75 24.0 M24.85 29.1 L29.15 24.05 M20.25 29.1 L24.55 24.0 M34.25 49.55 L34.35 49.65 34.65 49.95 37.35 51.95 38.2 52.45 40.35 53.35 Q42.15 53.9 44.15 54.05 L45.05 54.05 46.45 54.05 46.8 54.0 M53.45 56.75 L50.7 57.8 45.5 58.5 40.35 57.8 37.05 56.5 Q34.6 55.2 32.45 53.15 L32.05 52.75 30.4 55.2 M32.05 52.75 L32.35 52.35 34.25 49.55 M66.8 61.45 L71.9 61.45 M55.15 59.15 L56.8 61.45 78.9 51.85 74.5 43.55 M56.8 61.45 L53.2 65.1 M56.8 61.45 L66.3 61.45 M90.95 51.85 L78.9 51.85" fill="none" stroke="#000000" stroke-width="0.7" stroke-opacity="0.4"/>
  </g>
  <defs>
    <linearGradient gradientTransform="matrix(0.0, -0.0051, -0.0154, 0.0, 87.65, 37.35)" gradientUnits="userSpaceOnUse" id="gradient0" spreadMethod="pad" x1="-819.2" x2="819.2">
      <stop offset="0.0" stop-color="#666666"/>
      <stop offset="0.29" stop-color="#999999"/>
      <stop offset="1.0" stop-color="#333333"/>
    </linearGradient>
    <radialGradient cx="0" cy="0" gradientTransform="matrix(0.0071, 0.0, 0.0, 0.0071, 99.75, 35.8)" gradientUnits="userSpaceOnUse" id="gradient1" r="819.2" spreadMethod="pad">
      <stop offset="0.0" stop-color="#999999"/>
      <stop offset="1.0" stop-color="#565656"/>
    </radialGradient>
    <linearGradient gradientTransform="matrix(0.0, -0.0019, 0.0014, 0.0, 101.5, 36.75)" gradientUnits="userSpaceOnUse" id="gradient2" spreadMethod="pad" x1="-819.2" x2="819.2">
      <stop offset="0.0" stop-color="#666666"/>
      <stop offset="0.29" stop-color="#4f4f4f"/>
      <stop offset="1.0" stop-color="#333333"/>
    </linearGradient>
    <linearGradient gradientTransform="matrix(0.0, -0.0051, -0.0131, 0.0, 85.75, 44.65)" gradientUnits="userSpaceOnUse" id="gradient3" spreadMethod="pad" x1="-819.2" x2="819.2">
      <stop offset="0.0" stop-color="#666666"/>
      <stop offset="0.29" stop-color="#999999"/>
      <stop offset="1.0" stop-color="#333333"/>
    </linearGradient>
    <linearGradient gradientTransform="matrix(0.0, -0.0051, -0.0131, 0.0, 85.75, 44.65)" gradientUnits="userSpaceOnUse" id="gradient4" spreadMethod="pad" x1="-819.2" x2="819.2">
      <stop offset="0.0" stop-color="#434343"/>
      <stop offset="0.29" stop-color="#626262"/>
      <stop offset="1.0" stop-color="#1e1e1e"/>
    </linearGradient>
    <radialGradient cx="0" cy="0" gradientTransform="matrix(0.0079, 0.0, 0.0, 0.0079, 95.65, 42.45)" gradientUnits="userSpaceOnUse" id="gradient5" r="819.2" spreadMethod="pad">
      <stop offset="0.0" stop-color="#999999"/>
      <stop offset="1.0" stop-color="#565656"/>
    </radialGradient>
    <linearGradient gradientTransform="matrix(0.0, -0.0016, 0.0015, 0.0, 97.7, 43.0)" gradientUnits="userSpaceOnUse" id="gradient6" spreadMethod="pad" x1="-819.2" x2="819.2">
      <stop offset="0.0" stop-color="#666666"/>
      <stop offset="0.29" stop-color="#4f4f4f"/>
      <stop offset="1.0" stop-color="#333333"/>
    </linearGradient>
    <linearGradient gradientTransform="matrix(0.0, -0.0051, -0.0045, 0.0, 100.3, 44.65)" gradientUnits="userSpaceOnUse" id="gradient7" spreadMethod="pad" x1="-819.2" x2="819.2">
      <stop offset="0.0" stop-color="#666666"/>
      <stop offset="0.29" stop-color="#999999"/>
      <stop offset="1.0" stop-color="#333333"/>
    </linearGradient>
    <linearGradient gradientTransform="matrix(0.0, -0.0018, 0.0016, 0.0, 105.1, 43.8)" gradientUnits="userSpaceOnUse" id="gradient8" spreadMethod="pad" x1="-819.2" x2="819.2">
      <stop offset="0.0" stop-color="#666666"/>
      <stop offset="0.29" stop-color="#4f4f4f"/>
      <stop offset="1.0" stop-color="#333333"/>
    </linearGradient>
    <radialGradient cx="0" cy="0" gradientTransform="matrix(0.0078, 0.0, 0.0, 0.0078, 102.85, 42.65)" gradientUnits="userSpaceOnUse" id="gradient9" r="819.2" spreadMethod="pad">
      <stop offset="0.0" stop-color="#999999"/>
      <stop offset="1.0" stop-color="#565656"/>
    </radialGradient>
    <radialGradient cx="0" cy="0" gradientTransform="matrix(0.0458, 0.0, 0.0, 0.0458, 40.05, 17.1)" gradientUnits="userSpaceOnUse" id="gradient10" r="819.2" spreadMethod="pad">
      <stop offset="0.0" stop-color="#999999"/>
      <stop offset="1.0" stop-color="#333333"/>
    </radialGradient>
    <radialGradient cx="0" cy="0" gradientTransform="matrix(0.031, 0.0, 0.0, 0.031, 35.05, 26.15)" gradientUnits="userSpaceOnUse" id="gradient11" r="819.2" spreadMethod="pad">
      <stop offset="0.0" stop-color="#999999"/>
      <stop offset="1.0" stop-color="#333333"/>
    </radialGradient>
    <radialGradient cx="0" cy="0" gradientTransform="matrix(0.0106, 0.0, 0.0, 0.0106, 61.75, 39.0)" gradientUnits="userSpaceOnUse" id="gradient12" r="819.2" spreadMethod="pad">
      <stop offset="0.0" stop-color="#996d2a"/>
      <stop offset="1.0" stop-color="#331919"/>
    </radialGradient>
    <radialGradient cx="0" cy="0" gradientTransform="matrix(0.0094, 0.0, 0.0, 0.0094, 46.9, 33.35)" gradientUnits="userSpaceOnUse" id="gradient13" r="819.2" spreadMethod="pad">
      <stop offset="0.2" stop-color="#ff1919"/>
      <stop offset="0.96" stop-color="#6b0101"/>
    </radialGradient>
    <radialGradient cx="0" cy="0" gradientTransform="matrix(0.0055, 0.0, 0.0, 0.0055, 103.35, 24.5)" gradientUnits="userSpaceOnUse" id="gradient14" r="819.2" spreadMethod="pad">
      <stop offset="0.20784313725490197" stop-color="#ff1919"/>
      <stop offset="0.96" stop-color="#6b0101"/>
    </radialGradient>
    <radialGradient cx="0" cy="0" gradientTransform="matrix(0.0075, 0.0, 0.0, 0.0075, 59.65, 43.4)" gradientUnits="userSpaceOnUse" id="gradient15" r="819.2" spreadMethod="pad">
      <stop offset="0.2" stop-color="#380606"/>
      <stop offset="0.92" stop-color="#6b0101"/>
    </radialGradient>
    <radialGradient cx="0" cy="0" gradientTransform="matrix(0.0073, 0.0, 0.0, 0.0073, 64.45, 42.95)" gradientUnits="userSpaceOnUse" id="gradient16" r="819.2" spreadMethod="pad">
      <stop offset="0.2" stop-color="#380606"/>
      <stop offset="0.92" stop-color="#6b0101"/>
    </radialGradient>
    <radialGradient cx="0" cy="0" gradientTransform="matrix(0.0079, 0.0, 0.0, 0.0079, 68.2, 43.55)" gradientUnits="userSpaceOnUse" id="gradient17" r="819.2" spreadMethod="pad">
      <stop offset="0.2" stop-color="#380606"/>
      <stop offset="0.92" stop-color="#6b0101"/>
    </radialGradient>
    <radialGradient cx="0" cy="0" gradientTransform="matrix(0.0016, 0.0, 0.0, 0.0016, 58.3, 40.7)" gradientUnits="userSpaceOnUse" id="gradient18" r="819.2" spreadMethod="pad">
      <stop offset="0.2" stop-color="#380606"/>
      <stop offset="0.92" stop-color="#6b0101"/>
    </radialGradient>
    <radialGradient cx="0" cy="0" gradientTransform="matrix(0.0021, 0.0, 0.0, 0.0021, 62.8, 40.7)" gradientUnits="userSpaceOnUse" id="gradient19" r="819.2" spreadMethod="pad">
      <stop offset="0.2" stop-color="#380606"/>
      <stop offset="0.92" stop-color="#6b0101"/>
    </radialGradient>
    <radialGradient cx="0" cy="0" gradientTransform="matrix(0.002, 0.0, 0.0, 0.002, 66.25, 41.0)" gradientUnits="userSpaceOnUse" id="gradient20" r="819.2" spreadMethod="pad">
      <stop offset="0.2" stop-color="#380606"/>
      <stop offset="0.92" stop-color="#6b0101"/>
    </radialGradient>
    <radialGradient cx="0" cy="0" gradientTransform="matrix(0.0178, 0.0, 0.0, 0.0178, 37.9, 30.1)" gradientUnits="userSpaceOnUse" id="gradient21" r="819.2" spreadMethod="pad">
      <stop offset="0.2" stop-color="#380606"/>
      <stop offset="0.92" stop-color="#6b0101"/>
    </radialGradient>
    <radialGradient cx="0" cy="0" gradientTransform="matrix(0.0166, 0.0, 0.0, 0.0166, 43.75, 28.1)" gradientUnits="userSpaceOnUse" id="gradient22" r="819.2" spreadMethod="pad">
      <stop offset="0.2" stop-color="#380606"/>
      <stop offset="0.92" stop-color="#6b0101"/>
    </radialGradient>
  </defs>
</svg>
