<?xml version="1.0" encoding="UTF-8" standalone="no"?>
<svg xmlns:xlink="http://www.w3.org/1999/xlink" height="87.2px" width="169.05px" xmlns="http://www.w3.org/2000/svg">
  <g transform="matrix(1.0, 0.0, 0.0, 1.0, 0.05, 0.05)">
    <use height="87.2" transform="matrix(1.0, 0.0, 0.0, 1.0, -0.05, -0.05)" width="169.05" xlink:href="#sprite0"/>
    <use height="48.4" transform="matrix(1.0, 0.0, 0.0, 1.0, 99.25, 25.4)" width="46.8" xlink:href="#shape1"/>
  </g>
  <defs>
    <g id="sprite0" transform="matrix(1.0, 0.0, 0.0, 1.0, 0.05, 0.05)">
      <use height="87.2" transform="matrix(1.0, 0.0, 0.0, 1.0, -0.05, -0.05)" width="169.05" xlink:href="#shape0"/>
    </g>
    <g id="shape0" transform="matrix(1.0, 0.0, 0.0, 1.0, 0.05, 0.05)">
      <path d="M168.95 20.7 L168.95 22.0 168.9 25.85 162.85 31.15 168.7 31.15 168.35 36.3 168.25 37.55 167.75 42.6 163.3 42.6 158.6 42.6 153.05 42.6 146.6 42.6 146.65 37.55 146.6 36.3 146.4 31.15 155.0 31.15 145.9 25.85 145.5 22.0 145.3 20.7 168.95 20.7 M151.55 70.2 L156.2 70.2 154.5 82.2 129.95 82.2 127.6 76.2 125.35 70.2 131.45 70.2 134.1 77.1 138.85 77.1 145.75 77.1 150.6 77.1 151.55 70.2 M162.85 31.15 L155.0 31.15 162.85 31.15" fill="#999999" fill-rule="evenodd" stroke="none"/>
      <path d="M167.75 42.6 L167.75 42.65 Q165.85 50.65 163.0 58.7 L162.35 60.65 161.3 63.4 161.75 60.65 162.05 58.7 Q163.2 50.65 163.3 42.6 L167.75 42.6 M146.6 42.6 L153.05 42.6 158.6 42.6 163.3 42.6 Q161.8 50.9 159.1 58.7 L158.4 60.65 157.3 63.4 157.7 60.65 158.0 58.7 Q158.9 50.65 158.6 42.6 157.0 50.65 154.2 58.7 L153.4 60.65 152.4 63.4 152.7 60.65 152.8 58.7 Q153.5 50.7 153.05 42.8 L153.05 42.6 Q151.45 50.7 148.55 58.7 L147.85 60.65 146.8 63.35 146.75 63.3 146.95 60.65 147.0 58.7 Q147.25 50.65 146.6 42.6 146.35 51.0 144.85 58.7 L144.4 60.65 144.1 62.0 143.75 63.4 143.5 61.85 143.35 60.65 143.0 58.7 Q142.4 55.5 141.4 52.25 L139.55 46.45 137.4 41.15 146.6 42.6 M122.65 41.2 L122.65 41.15 122.65 41.2 119.65 49.75 115.7 40.1 122.65 41.15 Q125.95 40.0 130.1 40.15 133.45 40.2 137.4 41.15 137.3 48.1 136.1 52.25 L134.75 55.5 135.0 52.25 Q134.9 46.1 130.1 40.15 130.7 48.35 127.5 51.4 128.15 44.4 122.65 41.2 M101.4 37.85 L99.9 42.1 98.4 46.4 95.1 38.2 95.35 36.95 101.4 37.85 108.4 38.95 115.5 40.1 112.5 48.6 108.4 38.95 107.3 42.05 105.4 47.45 101.4 37.85 M117.3 70.2 L117.35 70.2 119.75 76.2 113.5 76.2 117.3 70.2 M124.55 70.2 L125.35 70.2 127.6 76.2 120.7 76.2 124.55 70.2 M112.85 76.2 L106.55 76.2 105.2 76.15 100.55 75.95 98.9 75.8 97.5 75.65 93.3 75.2 91.2 74.95 89.8 74.75 83.5 73.6 82.15 73.3 75.85 71.9 74.45 71.5 68.15 69.7 66.8 69.25 61.9 67.6 66.8 65.75 68.15 69.7 70.1 64.45 73.2 63.25 75.85 71.9 79.7 61.85 83.5 73.6 87.35 64.85 91.2 74.95 95.05 67.15 98.9 75.8 102.7 68.9 106.55 76.2 110.4 70.2 112.85 76.2" fill="#cccccc" fill-rule="evenodd" stroke="none"/>
      <path d="M168.9 25.85 L168.7 31.15 162.85 31.15 168.9 25.85 M149.9 70.2 L151.55 70.2 150.6 77.1 145.75 77.1 Q146.75 76.55 147.6 75.6 L148.15 75.0 Q149.75 72.95 149.9 70.2 M27.5 61.55 L24.0 61.9 18.25 61.55 Q15.35 60.95 12.8 59.7 10.3 58.5 8.15 56.7 L5.1 53.75 4.4 52.85 Q2.65 50.65 1.6 48.4 0.6 46.15 0.2 43.75 -0.2 41.15 0.2 38.5 L0.5 36.85 Q0.9 35.05 1.5 33.5 2.7 30.35 4.6 28.25 6.5 26.2 8.95 25.15 10.7 24.35 12.7 24.0 L12.5 26.1 Q12.5 28.9 13.85 31.1 12.8 31.5 11.8 32.0 10.5 32.65 9.55 33.5 8.3 34.45 7.5 35.65 6.7 36.85 6.4 38.2 L6.25 39.05 Q5.9 41.2 6.25 43.15 6.55 44.5 7.15 45.85 7.8 47.1 8.75 48.25 L10.15 49.6 11.5 50.75 Q12.9 51.8 14.45 52.45 16.25 53.2 18.2 53.45 20.15 53.75 22.25 53.5 L21.85 55.15 22.25 53.5 Q24.55 57.55 27.5 61.55 M34.0 11.9 L34.7 10.15 36.9 4.4 50.45 4.4 53.15 0.0 56.8 0.0 60.65 0.0 64.5 0.0 68.35 0.0 72.2 0.0 76.0 0.0 76.45 0.0 78.1 3.05 78.95 4.6 79.7 3.0 80.3 3.0 90.1 7.8 92.45 13.6 88.25 13.6 81.65 13.6 79.0 18.25 76.9 21.85 76.6 22.3 76.4 22.3 75.05 22.3 Q74.15 18.85 71.65 16.1 L70.2 14.65 Q66.85 11.9 62.4 11.9 L62.2 11.9 62.05 11.9 51.65 11.9 46.45 11.9 34.0 11.9 M85.45 0.0 L89.4 0.0 93.25 0.0 93.65 0.0 95.35 3.05 94.6 4.25 95.35 3.05 96.2 4.6 96.9 3.0 97.5 3.0 107.35 7.8 109.7 13.6 103.3 13.6 100.25 7.8 95.8 5.4 96.2 4.6 95.8 5.4 91.5 3.05 91.4 3.0 87.5 3.0 85.45 0.0 M145.9 25.85 L155.0 31.15 146.4 31.15 145.9 25.85 146.4 31.15 139.3 24.85 145.9 25.85 M133.0 32.45 L134.1 34.5 96.4 30.9 97.5 25.0 100.1 25.4 99.3 29.5 133.0 32.45 M122.65 41.2 Q128.15 44.4 127.5 51.4 130.7 48.35 130.1 40.15 134.9 46.1 135.0 52.25 L123.55 52.25 123.2 52.7 Q119.3 56.95 113.6 56.95 L113.45 56.95 113.15 56.95 Q110.7 56.9 108.55 55.9 107.75 55.6 107.05 55.15 L105.25 53.9 104.0 52.7 103.55 52.2 101.95 50.0 Q101.05 48.35 100.55 46.6 L100.5 46.4 99.9 42.1 101.4 37.85 105.4 47.45 107.3 42.05 107.8 44.5 108.55 46.75 109.85 48.85 110.35 49.3 110.4 49.4 Q112.9 52.0 116.35 52.25 L116.8 52.25 123.55 52.25 116.8 52.25 116.35 52.25 Q112.9 52.0 110.4 49.4 L110.35 49.3 109.85 48.85 108.55 46.75 107.8 44.5 107.3 42.05 108.4 38.95 112.5 48.6 115.5 40.1 115.7 40.1 119.65 49.75 122.65 41.2 M137.4 41.15 L139.55 46.45 141.4 52.25 136.1 52.25 Q137.3 48.1 137.4 41.15 M93.25 0.0 L91.5 3.05 93.25 0.0 M89.4 0.0 L87.85 2.7 89.4 0.0 M78.3 12.9 L79.7 10.15 80.45 8.7 86.6 8.7 88.25 13.6 86.6 8.7 80.45 8.7 79.7 10.15 78.3 12.9 M95.1 38.2 L98.4 46.4 99.9 42.1 100.5 46.4 100.55 46.6 Q101.05 48.35 101.95 50.0 L103.55 52.2 104.0 52.7 105.25 53.9 107.05 55.15 Q107.75 55.6 108.55 55.9 110.7 56.9 113.15 56.95 L100.0 56.95 100.45 58.0 86.75 58.0 89.5 56.95 91.8 56.05 92.5 52.2 92.95 50.0 93.55 46.6 94.15 43.25 95.1 38.2 M95.45 46.6 L93.55 46.6 95.45 46.6 M96.0 46.6 L100.55 46.6 96.0 46.6 M95.45 50.0 L92.95 50.0 95.45 50.0 M95.45 52.2 L92.5 52.2 95.45 52.2 M100.0 56.95 L96.1 56.95 100.0 56.95 M95.8 56.95 L89.5 56.95 95.8 56.95 M101.95 50.0 L96.0 50.0 101.95 50.0 M103.55 52.2 L96.0 52.2 103.55 52.2 M50.45 4.4 L52.15 7.8 52.3 8.1 55.8 8.1 59.65 8.1 63.5 8.1 67.3 8.1 71.15 8.1 75.0 8.1 77.35 8.1 78.95 4.6 77.35 8.1 75.0 8.1 71.15 8.1 67.3 8.1 63.5 8.1 59.65 8.1 55.8 8.1 52.3 8.1 52.15 7.8 50.45 4.4 M64.5 0.0 L62.05 4.25 64.5 0.0 M68.35 0.0 L65.9 4.25 68.35 0.0 M76.0 0.0 L73.55 4.25 76.0 0.0 M71.15 8.1 L73.4 4.55 71.15 8.1 M77.2 4.55 L75.0 8.1 77.2 4.55 M77.4 4.25 L78.1 3.05 77.4 4.25 M63.5 8.1 L65.65 4.55 63.5 8.1 M69.5 4.55 L67.3 8.1 69.5 4.55 M70.2 14.65 L77.35 14.65 78.1 13.25 77.35 14.65 70.2 14.65 M56.8 0.0 L54.35 4.25 56.8 0.0 M54.1 4.55 L52.15 7.8 54.1 4.55 M57.95 4.55 L55.8 8.1 57.95 4.55 M60.65 0.0 L58.2 4.25 60.65 0.0 M79.7 10.15 L67.9 10.15 79.7 10.15 M72.2 0.0 L69.7 4.25 72.2 0.0 M61.8 4.55 L59.65 8.1 61.8 4.55 M11.8 32.0 Q10.7 31.2 9.95 30.05 10.7 31.2 11.8 32.0 M4.4 43.3 L6.25 43.15 4.4 43.3 M6.0 46.3 L1.6 48.4 6.0 46.3 M4.1 43.3 L0.2 43.75 4.1 43.3 M6.25 39.05 L4.4 39.25 6.25 39.05 M6.35 46.2 Q6.75 46.05 7.15 45.85 6.75 46.05 6.35 46.2 M4.1 39.3 Q2.0 39.3 0.2 38.5 2.0 39.3 4.1 39.3 M4.6 28.25 L5.1 29.75 4.6 28.25 M4.4 35.4 L7.5 35.65 4.4 35.4 M9.55 33.5 Q6.4 32.4 5.2 30.05 6.4 32.4 9.55 33.5 M1.5 33.5 Q2.65 34.75 4.1 35.3 2.65 34.75 1.5 33.5 M8.95 25.15 Q8.75 27.85 9.8 29.75 8.75 27.85 8.95 25.15 M21.85 55.45 Q21.3 59.05 24.0 61.9 21.3 59.05 21.85 55.45 M9.0 52.8 Q9.9 51.7 11.5 50.75 9.9 51.7 9.0 52.8 M6.0 50.5 L4.4 52.85 6.0 50.5 M8.8 53.15 Q7.75 54.7 8.15 56.7 7.75 54.7 8.8 53.15 M14.45 52.45 Q13.0 53.7 12.5 55.15 13.0 53.7 14.45 52.45 M12.35 55.45 Q11.75 57.4 12.8 59.7 11.75 57.4 12.35 55.45 M17.05 55.45 Q15.95 58.3 18.25 61.55 15.95 58.3 17.05 55.45 M17.15 55.15 Q17.5 54.3 18.2 53.45 17.5 54.3 17.15 55.15 M6.35 50.15 Q7.45 49.1 8.75 48.25 7.45 49.1 6.35 50.15 M67.55 10.15 L34.7 10.15 67.55 10.15" fill="#333333" fill-rule="evenodd" stroke="none"/>
      <path d="M167.75 42.65 Q166.8 51.0 164.5 58.7 L163.9 60.65 162.95 63.4 161.3 63.4 157.3 63.4 152.4 63.4 146.95 63.4 146.8 63.35 147.85 60.65 148.55 58.7 Q151.45 50.7 153.05 42.6 L153.05 42.8 Q153.5 50.7 152.8 58.7 L152.7 60.65 152.4 63.4 153.4 60.65 154.2 58.7 Q157.0 50.65 158.6 42.6 158.9 50.65 158.0 58.7 L157.7 60.65 157.3 63.4 158.4 60.65 159.1 58.7 Q161.8 50.9 163.3 42.6 163.2 50.65 162.05 58.7 L161.75 60.65 161.3 63.4 162.35 60.65 163.0 58.7 Q165.85 50.65 167.75 42.65 M143.75 63.4 L144.1 62.0 144.4 60.65 144.85 58.7 Q146.35 51.0 146.6 42.6 147.25 50.65 147.0 58.7 L146.95 60.65 146.75 63.3 146.75 63.4 143.75 63.4 M78.35 61.25 L79.7 61.85 86.0 64.4 87.35 64.85 92.4 66.4 93.65 66.8 95.05 67.15 98.3 67.9 101.35 68.6 102.7 68.9 106.5 69.55 109.0 69.95 110.4 70.2 110.6 70.2 112.6 70.2 117.3 70.2 113.5 76.2 112.85 76.2 110.4 70.2 106.55 76.2 102.7 68.9 98.9 75.8 95.05 67.15 91.2 74.95 87.35 64.85 83.5 73.6 79.7 61.85 75.85 71.9 73.2 63.25 78.35 61.25 M117.35 70.2 L124.55 70.2 120.7 76.2 119.75 76.2 117.35 70.2 M70.1 64.45 L68.15 69.7 66.8 65.75 70.1 64.45" fill="#000000" fill-rule="evenodd" stroke="none"/>
      <path d="M75.5 87.1 Q59.0 82.1 49.1 72.6 L40.15 76.0 Q33.5 69.55 28.6 63.1 L27.5 61.55 Q24.55 57.55 22.25 53.5 19.7 48.8 18.0 44.05 L26.9 42.35 36.1 40.55 36.85 40.4 41.9 39.4 45.65 38.7 53.95 37.0 69.95 33.9 72.25 29.95 72.5 29.5 73.4 28.0 76.6 22.3 76.9 21.85 79.0 18.25 81.65 13.6 145.3 20.7 145.5 22.0 145.9 25.85 139.3 24.85 146.4 31.15 146.6 36.3 146.65 37.55 146.6 42.6 137.4 41.15 Q133.45 40.2 130.1 40.15 125.95 40.0 122.65 41.15 L115.7 40.1 115.5 40.1 108.4 38.95 101.4 37.85 95.35 36.95 95.1 38.2 94.15 43.25 93.55 46.6 92.95 50.0 92.5 52.2 91.8 56.05 89.5 56.95 86.75 58.0 78.35 61.25 73.2 63.25 70.1 64.45 66.8 65.75 61.9 67.6 66.8 69.25 68.15 69.7 74.45 71.5 75.85 71.9 82.15 73.3 83.5 73.6 89.8 74.75 91.2 74.95 93.3 75.2 97.5 75.65 98.9 75.8 100.55 75.95 105.2 76.15 106.55 76.2 112.85 76.2 113.5 76.2 119.75 76.2 120.7 76.2 127.6 76.2 129.95 82.2 75.5 87.1 M104.7 3.0 L108.55 3.0 117.5 7.8 107.35 7.8 97.5 3.0 104.7 3.0 M100.1 25.4 L97.5 25.0 96.4 30.9 134.1 34.5 133.0 32.45 130.25 27.8 100.1 25.4 M134.1 34.5 L137.4 41.15 134.1 34.5 M95.8 5.4 L100.25 7.8 90.1 7.8 80.3 3.0 87.5 3.0 91.4 3.0 91.5 3.05 95.8 5.4 M96.4 30.9 L95.35 36.95 96.4 30.9 M91.7 24.1 L97.5 25.0 91.7 24.1 M49.1 72.6 L61.9 67.6 49.1 72.6 M28.6 63.1 L37.1 60.55 45.7 57.9 54.0 55.45 45.7 57.9 37.1 60.55 28.6 63.1 M31.1 51.35 Q33.65 55.9 37.1 60.55 33.65 55.9 31.1 51.35 M41.2 51.05 Q38.05 45.8 36.1 40.55 38.05 45.8 41.2 51.05 M30.9 51.05 Q28.5 46.7 26.9 42.35 28.5 46.7 30.9 51.05 M45.7 57.9 Q43.3 54.6 41.4 51.35 43.3 54.6 45.7 57.9 M54.3 55.3 L94.15 43.25 54.3 55.3 M91.0 24.0 L76.9 21.85 91.0 24.0 M79.0 18.25 L139.3 24.85 79.0 18.25" fill="#666666" fill-rule="evenodd" stroke="none"/>
      <path d="M133.0 32.45 L99.3 29.5 100.1 25.4 130.25 27.8 133.0 32.45" fill="url(#gradient0)" fill-rule="evenodd" stroke="none"/>
      <path d="M76.45 0.0 L85.45 0.0 87.5 3.0 80.3 3.0 79.7 3.0 78.95 4.6 78.1 3.05 76.45 0.0 M93.65 0.0 L102.65 0.0 104.7 3.0 97.5 3.0 96.9 3.0 96.2 4.6 95.35 3.05 93.65 0.0 M117.5 7.8 L120.55 13.6 109.7 13.6 107.35 7.8 117.5 7.8 M100.25 7.8 L103.3 13.6 92.45 13.6 90.1 7.8 100.25 7.8" fill="#4c4c4c" fill-rule="evenodd" stroke="none"/>
      <path d="M120.55 13.6 L124.15 13.6 168.95 20.7 145.3 20.7 81.65 13.6 88.25 13.6 92.45 13.6 103.3 13.6 109.7 13.6 120.55 13.6" fill="#b2b2b2" fill-rule="evenodd" stroke="none"/>
      <path d="M116.8 58.0 L115.7 58.2 113.6 58.8 112.4 59.45 110.95 60.5 110.0 61.4 Q107.9 63.65 107.15 66.4 L106.5 69.55 102.7 68.9 101.35 68.6 98.3 67.9 95.05 67.15 93.65 66.8 92.4 66.4 87.35 64.85 86.0 64.4 79.7 61.85 78.35 61.25 86.75 58.0 100.45 58.0 116.8 58.0" fill="url(#gradient1)" fill-rule="evenodd" stroke="none"/>
      <path d="M106.5 69.55 L107.15 66.4 Q107.9 63.65 110.0 61.4 L110.95 60.5 112.4 59.45 113.6 58.8 115.7 58.2 116.8 58.0 117.55 58.0 117.65 58.0 Q122.15 58.0 125.3 61.4 L125.6 61.75 120.2 61.75 119.8 61.8 Q117.55 61.9 115.7 63.5 L115.1 64.0 115.0 64.15 114.65 64.5 113.6 66.2 113.0 67.9 112.6 70.2 110.6 70.2 110.4 70.2 109.0 69.95 106.5 69.55" fill="url(#gradient2)" fill-rule="evenodd" stroke="none"/>
      <path d="M112.6 70.2 L113.0 67.9 113.6 66.2 114.65 64.5 115.0 64.15 115.1 64.0 115.7 63.5 Q117.55 61.9 119.8 61.8 L120.2 61.75 125.6 61.75 141.9 61.75 141.7 61.8 Q138.9 62.0 136.9 64.15 L136.55 64.5 135.65 65.8 Q134.7 67.6 134.7 69.85 L134.7 70.0 134.7 70.2 Q134.75 73.1 136.55 75.2 L136.9 75.6 Q137.75 76.55 138.85 77.1 L134.1 77.1 131.45 70.2 125.35 70.2 124.55 70.2 117.35 70.2 117.3 70.2 112.6 70.2" fill="url(#gradient3)" fill-rule="evenodd" stroke="none"/>
      <path d="M146.95 63.4 L147.6 64.15 148.85 65.8 149.5 67.3 Q149.9 68.5 149.9 69.85 L149.9 70.0 149.9 70.2 Q149.75 72.95 148.15 75.0 L147.6 75.6 Q146.75 76.55 145.75 77.1 L138.85 77.1 Q137.75 76.55 136.9 75.6 L136.55 75.2 Q134.75 73.1 134.7 70.2 L134.7 70.0 134.7 69.85 Q134.7 67.6 135.65 65.8 L136.55 64.5 136.9 64.15 Q138.9 62.0 141.7 61.8 L141.9 61.75 142.25 61.75 143.5 61.85 143.75 63.4 146.75 63.4 146.95 63.4 M141.1 73.45 L141.1 73.5 Q142.45 74.95 144.35 74.95 146.3 74.95 147.6 73.5 L148.15 72.8 Q148.9 71.65 148.9 70.2 L148.9 70.0 Q148.9 68.5 148.15 67.3 L147.6 66.55 146.75 65.8 Q145.7 65.1 144.35 65.1 143.05 65.1 141.95 65.8 L141.55 66.2 Q141.3 66.3 141.1 66.55 139.75 68.0 139.75 70.0 L139.75 70.2 Q139.85 72.05 141.1 73.45" fill="url(#gradient4)" fill-rule="evenodd" stroke="none"/>
      <path d="M141.55 66.2 L141.95 65.8 Q143.05 65.1 144.35 65.1 145.7 65.1 146.75 65.8 L147.6 66.55 148.15 67.3 Q148.9 68.5 148.9 70.0 L148.9 70.2 Q148.9 71.65 148.15 72.8 L147.6 73.5 Q146.3 74.95 144.35 74.95 142.45 74.95 141.1 73.5 L141.1 73.45 142.4 73.7 Q143.9 73.7 144.9 72.6 145.85 71.6 146.0 70.2 L146.0 70.0 146.0 69.9 Q146.0 68.3 144.9 67.15 143.9 66.05 142.4 66.05 L141.55 66.2" fill="url(#gradient5)" fill-rule="evenodd" stroke="none"/>
      <path d="M141.55 66.2 L142.4 66.05 Q143.9 66.05 144.9 67.15 146.0 68.3 146.0 69.9 L146.0 70.0 146.0 70.2 Q145.85 71.6 144.9 72.6 143.9 73.7 142.4 73.7 L141.1 73.45 Q139.85 72.05 139.75 70.2 L139.75 70.0 Q139.75 68.0 141.1 66.55 141.3 66.3 141.55 66.2" fill="url(#gradient6)" fill-rule="evenodd" stroke="none"/>
      <path d="M154.5 82.2 L119.65 87.1 75.5 87.1 129.95 82.2 154.5 82.2" fill="#7f7f7f" fill-rule="evenodd" stroke="none"/>
      <path d="M62.05 11.9 L62.2 11.9 62.4 11.9 Q66.85 11.9 70.2 14.65 L71.65 16.1 Q74.15 18.85 75.05 22.3 L74.05 22.3 71.65 22.3 Q70.25 20.8 68.2 20.8 66.2 20.8 64.75 22.4 63.3 23.95 63.3 26.15 63.3 28.4 64.75 29.95 66.2 31.5 68.2 31.5 70.25 31.5 71.65 29.95 L72.25 29.95 69.95 33.9 53.95 37.0 53.15 36.25 Q49.3 32.05 49.3 26.1 49.3 20.2 53.15 16.1 56.8 12.0 62.05 11.9" fill="url(#gradient7)" fill-rule="evenodd" stroke="none"/>
      <path d="M71.65 29.95 Q70.25 31.5 68.2 31.5 66.2 31.5 64.75 29.95 63.3 28.4 63.3 26.15 63.3 23.95 64.75 22.4 66.2 20.8 68.2 20.8 70.25 20.8 71.65 22.3 L69.4 22.3 Q68.05 22.4 67.0 23.45 66.0 24.55 66.0 26.15 66.0 27.7 67.0 28.85 68.05 29.95 69.4 29.95 L71.65 29.95" fill="url(#gradient8)" fill-rule="evenodd" stroke="none"/>
      <path d="M72.25 29.95 L71.65 29.95 69.4 29.95 Q68.05 29.95 67.0 28.85 66.0 27.7 66.0 26.15 66.0 24.55 67.0 23.45 68.05 22.4 69.4 22.3 L71.65 22.3 74.05 22.3 75.05 22.3 76.4 22.3 76.6 22.3 73.4 28.0 72.5 29.5 71.65 28.85 Q70.6 27.7 70.6 26.15 L70.6 25.55 Q70.8 24.35 71.65 23.45 72.65 22.4 74.05 22.3 72.65 22.4 71.65 23.45 70.8 24.35 70.6 25.55 L70.6 26.15 Q70.6 27.7 71.65 28.85 L72.5 29.5 72.25 29.95 M71.65 29.95 Q70.25 29.9 69.3 28.85 68.3 27.7 68.3 26.15 L68.35 25.55 Q68.5 24.35 69.3 23.45 70.25 22.45 71.65 22.3 70.25 22.45 69.3 23.45 68.5 24.35 68.35 25.55 L68.3 26.15 Q68.3 27.7 69.3 28.85 70.25 29.9 71.65 29.95 M76.4 22.3 Q74.95 22.4 73.9 23.45 73.1 24.35 72.95 25.55 L72.9 26.15 Q72.9 27.2 73.4 28.0 72.9 27.2 72.9 26.15 L72.95 25.55 Q73.1 24.35 73.9 23.45 74.95 22.4 76.4 22.3" fill="url(#gradient9)" fill-rule="evenodd" stroke="none"/>
      <path d="M18.6 17.6 L19.8 16.1 Q23.5 12.0 28.75 11.9 L34.0 11.9 46.45 11.9 51.65 11.9 Q46.45 12.0 42.7 16.1 40.0 19.0 39.25 22.85 40.0 19.0 42.7 16.1 46.45 12.0 51.65 11.9 L62.05 11.9 Q56.8 12.0 53.15 16.1 49.3 20.2 49.3 26.1 49.3 32.05 53.15 36.25 L53.95 37.0 45.65 38.7 41.9 39.4 Q39.5 38.35 37.55 36.25 33.7 32.05 33.7 26.1 33.7 25.1 33.85 24.1 33.7 25.1 33.7 26.1 33.7 32.05 37.55 36.25 39.5 38.35 41.9 39.4 L36.85 40.4 28.75 40.4 Q23.5 40.25 19.8 36.25 L18.55 34.7 Q15.95 30.95 15.95 26.1 15.95 21.3 18.6 17.6 M34.0 22.85 Q34.8 19.0 37.55 16.1 41.2 12.0 46.45 11.9 41.2 12.0 37.55 16.1 34.8 19.0 34.0 22.85 M39.05 24.1 L38.95 26.1 Q38.95 32.05 42.7 36.25 L45.65 38.7 42.7 36.25 Q38.95 32.05 38.95 26.1 L39.05 24.1" fill="url(#gradient10)" fill-rule="evenodd" stroke="none"/>
      <path d="M12.7 24.0 Q13.2 21.7 14.8 19.9 16.45 18.2 18.6 17.6 15.95 21.3 15.95 26.1 15.95 30.95 18.55 34.7 16.45 34.1 14.8 32.35 L13.85 31.1 Q12.5 28.9 12.5 26.1 L12.7 24.0" fill="url(#gradient11)" fill-rule="evenodd" stroke="none"/>
      <path d="M168.95 20.7 L168.95 22.0 168.9 25.85 168.7 31.15 168.35 36.3 168.25 37.55 167.75 42.6 167.75 42.65 Q166.8 51.0 164.5 58.7 L163.9 60.65 162.95 63.4 161.3 63.4 157.3 63.4 152.4 63.4 146.95 63.4 147.6 64.15 148.85 65.8 149.5 67.3 Q149.9 68.5 149.9 69.85 L149.9 70.0 149.9 70.2 151.55 70.2 156.2 70.2 154.5 82.2 119.65 87.1 75.5 87.1 Q59.0 82.1 49.1 72.6 L40.15 76.0 Q33.5 69.55 28.6 63.1 L27.5 61.55 24.0 61.9 18.25 61.55 Q15.35 60.95 12.8 59.7 10.3 58.5 8.15 56.7 L5.1 53.75 4.4 52.85 Q2.65 50.65 1.6 48.4 0.6 46.15 0.2 43.75 -0.2 41.15 0.2 38.5 L0.5 36.85 Q0.9 35.05 1.5 33.5 2.7 30.35 4.6 28.25 6.5 26.2 8.95 25.15 10.7 24.35 12.7 24.0 13.2 21.7 14.8 19.9 16.45 18.2 18.6 17.6 L19.8 16.1 Q23.5 12.0 28.75 11.9 L34.0 11.9 34.7 10.15 36.9 4.4 50.45 4.4 53.15 0.0 56.8 0.0 60.65 0.0 64.5 0.0 68.35 0.0 72.2 0.0 76.0 0.0 76.45 0.0 85.45 0.0 89.4 0.0 93.25 0.0 93.65 0.0 102.65 0.0 104.7 3.0 108.55 3.0 117.5 7.8 120.55 13.6 124.15 13.6 168.95 20.7 145.3 20.7 145.5 22.0 145.9 25.85 155.0 31.15 162.85 31.15 168.9 25.85 M162.85 31.15 L168.7 31.15 M146.6 42.6 L153.05 42.6 158.6 42.6 163.3 42.6 167.75 42.6 M163.3 42.6 Q163.2 50.65 162.05 58.7 L161.75 60.65 161.3 63.4 162.35 60.65 163.0 58.7 Q165.85 50.65 167.75 42.65 M100.1 25.4 L97.5 25.0 96.4 30.9 134.1 34.5 133.0 32.45 99.3 29.5 100.1 25.4 130.25 27.8 133.0 32.45 M122.65 41.15 L122.65 41.2 Q128.15 44.4 127.5 51.4 130.7 48.35 130.1 40.15 125.95 40.0 122.65 41.15 L115.7 40.1 119.65 49.75 122.65 41.2 M137.4 41.15 L139.55 46.45 141.4 52.25 Q142.4 55.5 143.0 58.7 L143.35 60.65 143.5 61.85 143.75 63.4 144.1 62.0 144.4 60.65 144.85 58.7 Q146.35 51.0 146.6 42.6 L137.4 41.15 Q133.45 40.2 130.1 40.15 134.9 46.1 135.0 52.25 L134.75 55.5 136.1 52.25 Q137.3 48.1 137.4 41.15 L134.1 34.5 M146.4 31.15 L146.6 36.3 146.65 37.55 146.6 42.6 Q147.25 50.65 147.0 58.7 L146.95 60.65 146.75 63.3 146.8 63.35 147.85 60.65 148.55 58.7 Q151.45 50.7 153.05 42.6 L153.05 42.8 Q153.5 50.7 152.8 58.7 L152.7 60.65 152.4 63.4 153.4 60.65 154.2 58.7 Q157.0 50.65 158.6 42.6 158.9 50.65 158.0 58.7 L157.7 60.65 157.3 63.4 158.4 60.65 159.1 58.7 Q161.8 50.9 163.3 42.6 M146.4 31.15 L145.9 25.85 139.3 24.85 146.4 31.15 155.0 31.15 M109.7 13.6 L107.35 7.8 97.5 3.0 96.9 3.0 96.2 4.6 95.8 5.4 100.25 7.8 103.3 13.6 109.7 13.6 120.55 13.6 M117.5 7.8 L107.35 7.8 M91.5 3.05 L93.25 0.0 M87.5 3.0 L91.4 3.0 91.5 3.05 95.8 5.4 M95.35 3.05 L93.65 0.0 M95.35 3.05 L94.6 4.25 M96.2 4.6 L95.35 3.05 M87.85 2.7 L89.4 0.0 M85.45 0.0 L87.5 3.0 80.3 3.0 90.1 7.8 100.25 7.8 M81.65 13.6 L88.25 13.6 86.6 8.7 80.45 8.7 79.7 10.15 78.3 12.9 M90.1 7.8 L92.45 13.6 103.3 13.6 M88.25 13.6 L92.45 13.6 M95.35 36.95 L96.4 30.9 M95.1 38.2 L98.4 46.4 99.9 42.1 101.4 37.85 95.35 36.95 95.1 38.2 94.15 43.25 93.55 46.6 95.45 46.6 M99.9 42.1 L100.5 46.4 100.55 46.6 Q101.05 48.35 101.95 50.0 L103.55 52.2 104.0 52.7 105.25 53.9 107.05 55.15 Q107.75 55.6 108.55 55.9 110.7 56.9 113.15 56.95 L113.45 56.95 113.6 56.95 Q119.3 56.95 123.2 52.7 L123.55 52.25 116.8 52.25 116.35 52.25 Q112.9 52.0 110.4 49.4 L110.35 49.3 109.85 48.85 108.55 46.75 107.8 44.5 107.3 42.05 105.4 47.45 101.4 37.85 108.4 38.95 115.5 40.1 115.7 40.1 M100.55 46.6 L96.0 46.6 M115.5 40.1 L112.5 48.6 108.4 38.95 107.3 42.05 M97.5 3.0 L104.7 3.0 M97.5 25.0 L91.7 24.1 M106.5 69.55 L107.15 66.4 Q107.9 63.65 110.0 61.4 L110.95 60.5 112.4 59.45 113.6 58.8 115.7 58.2 116.8 58.0 100.45 58.0 86.75 58.0 78.35 61.25 79.7 61.85 86.0 64.4 87.35 64.85 92.4 66.4 93.65 66.8 95.05 67.15 98.3 67.9 101.35 68.6 102.7 68.9 106.5 69.55 109.0 69.95 110.4 70.2 110.6 70.2 112.6 70.2 113.0 67.9 113.6 66.2 114.65 64.5 115.0 64.15 115.1 64.0 115.7 63.5 Q117.55 61.9 119.8 61.8 L120.2 61.75 125.6 61.75 125.3 61.4 Q122.15 58.0 117.65 58.0 L117.55 58.0 116.8 58.0 M117.3 70.2 L117.35 70.2 124.55 70.2 125.35 70.2 131.45 70.2 134.1 77.1 138.85 77.1 Q137.75 76.55 136.9 75.6 L136.55 75.2 Q134.75 73.1 134.7 70.2 L134.7 70.0 134.7 69.85 Q134.7 67.6 135.65 65.8 L136.55 64.5 136.9 64.15 Q138.9 62.0 141.7 61.8 L141.9 61.75 125.6 61.75 M112.6 70.2 L117.3 70.2 113.5 76.2 119.75 76.2 117.35 70.2 M86.75 58.0 L89.5 56.95 91.8 56.05 92.5 52.2 92.95 50.0 93.55 46.6 M92.5 52.2 L95.45 52.2 M92.95 50.0 L95.45 50.0 M113.15 56.95 L100.0 56.95 100.45 58.0 M96.1 56.95 L100.0 56.95 M112.85 76.2 L106.55 76.2 105.2 76.15 100.55 75.95 98.9 75.8 97.5 75.65 93.3 75.2 91.2 74.95 89.8 74.75 83.5 73.6 82.15 73.3 75.85 71.9 74.45 71.5 68.15 69.7 66.8 69.25 61.9 67.6 49.1 72.6 M91.2 74.95 L87.35 64.85 83.5 73.6 79.7 61.85 75.85 71.9 73.2 63.25 70.1 64.45 68.15 69.7 66.8 65.75 61.9 67.6 M89.5 56.95 L95.8 56.95 M120.7 76.2 L119.75 76.2 M113.5 76.2 L112.85 76.2 110.4 70.2 106.55 76.2 102.7 68.9 98.9 75.8 95.05 67.15 91.2 74.95 M96.0 52.2 L103.55 52.2 M96.0 50.0 L101.95 50.0 M143.5 61.85 L142.25 61.75 141.9 61.75 M141.1 73.45 L141.1 73.5 Q142.45 74.95 144.35 74.95 146.3 74.95 147.6 73.5 L148.15 72.8 Q148.9 71.65 148.9 70.2 L148.9 70.0 Q148.9 68.5 148.15 67.3 L147.6 66.55 146.75 65.8 Q145.7 65.1 144.35 65.1 143.05 65.1 141.95 65.8 L141.55 66.2 142.4 66.05 Q143.9 66.05 144.9 67.15 146.0 68.3 146.0 69.9 L146.0 70.0 146.0 70.2 Q145.85 71.6 144.9 72.6 143.9 73.7 142.4 73.7 L141.1 73.45 Q139.85 72.05 139.75 70.2 L139.75 70.0 Q139.75 68.0 141.1 66.55 141.3 66.3 141.55 66.2 M146.75 63.4 L146.75 63.3 M146.8 63.35 L146.75 63.4 146.95 63.4 146.8 63.35 M146.75 63.4 L143.75 63.4 M136.1 52.25 L141.4 52.25 M135.0 52.25 L123.55 52.25 M129.95 82.2 L127.6 76.2 120.7 76.2 124.55 70.2 M145.75 77.1 L150.6 77.1 151.55 70.2 M145.75 77.1 Q146.75 76.55 147.6 75.6 L148.15 75.0 Q149.75 72.95 149.9 70.2 M127.6 76.2 L125.35 70.2 M138.85 77.1 L145.75 77.1 M129.95 82.2 L154.5 82.2 M81.65 13.6 L145.3 20.7 M80.3 3.0 L79.7 3.0 78.95 4.6 77.35 8.1 75.0 8.1 71.15 8.1 67.3 8.1 63.5 8.1 59.65 8.1 55.8 8.1 52.3 8.1 52.15 7.8 50.45 4.4 M78.1 3.05 L76.45 0.0 M78.95 4.6 L78.1 3.05 77.4 4.25 M75.0 8.1 L77.2 4.55 M73.4 4.55 L71.15 8.1 M73.55 4.25 L76.0 0.0 M65.9 4.25 L68.35 0.0 M62.05 4.25 L64.5 0.0 M75.05 22.3 Q74.15 18.85 71.65 16.1 L70.2 14.65 Q66.85 11.9 62.4 11.9 L62.2 11.9 62.05 11.9 Q56.8 12.0 53.15 16.1 49.3 20.2 49.3 26.1 49.3 32.05 53.15 36.25 L53.95 37.0 69.95 33.9 72.25 29.95 71.65 29.95 Q70.25 31.5 68.2 31.5 66.2 31.5 64.75 29.95 63.3 28.4 63.3 26.15 63.3 23.95 64.75 22.4 66.2 20.8 68.2 20.8 70.25 20.8 71.65 22.3 L74.05 22.3 75.05 22.3 76.4 22.3 76.6 22.3 76.9 21.85 79.0 18.25 81.65 13.6 M67.3 8.1 L69.5 4.55 M65.65 4.55 L63.5 8.1 M71.65 29.95 L69.4 29.95 Q68.05 29.95 67.0 28.85 66.0 27.7 66.0 26.15 66.0 24.55 67.0 23.45 68.05 22.4 69.4 22.3 L71.65 22.3 Q70.25 22.45 69.3 23.45 68.5 24.35 68.35 25.55 L68.3 26.15 Q68.3 27.7 69.3 28.85 70.25 29.9 71.65 29.95 M78.1 13.25 L77.35 14.65 70.2 14.65 M74.05 22.3 Q72.65 22.4 71.65 23.45 70.8 24.35 70.6 25.55 L70.6 26.15 Q70.6 27.7 71.65 28.85 L72.5 29.5 73.4 28.0 Q72.9 27.2 72.9 26.15 L72.95 25.55 Q73.1 24.35 73.9 23.45 74.95 22.4 76.4 22.3 M69.7 4.25 L72.2 0.0 M67.9 10.15 L79.7 10.15 M58.2 4.25 L60.65 0.0 M55.8 8.1 L57.95 4.55 M52.15 7.8 L54.1 4.55 M54.35 4.25 L56.8 0.0 M51.65 11.9 L46.45 11.9 Q41.2 12.0 37.55 16.1 34.8 19.0 34.0 22.85 M39.25 22.85 Q40.0 19.0 42.7 16.1 46.45 12.0 51.65 11.9 L62.05 11.9 M41.9 39.4 L45.65 38.7 42.7 36.25 Q38.95 32.05 38.95 26.1 L39.05 24.1 M53.95 37.0 L45.65 38.7 M72.5 29.5 L72.25 29.95 M76.6 22.3 L73.4 28.0 M59.65 8.1 L61.8 4.55 M18.55 34.7 Q16.45 34.1 14.8 32.35 L13.85 31.1 Q12.8 31.5 11.8 32.0 10.5 32.65 9.55 33.5 8.3 34.45 7.5 35.65 6.7 36.85 6.4 38.2 L6.25 39.05 Q5.9 41.2 6.25 43.15 6.55 44.5 7.15 45.85 7.8 47.1 8.75 48.25 L10.15 49.6 11.5 50.75 Q12.9 51.8 14.45 52.45 16.25 53.2 18.2 53.45 20.15 53.75 22.25 53.5 19.7 48.8 18.0 44.05 L26.9 42.35 36.1 40.55 36.85 40.4 28.75 40.4 Q23.5 40.25 19.8 36.25 L18.55 34.7 Q15.95 30.95 15.95 26.1 15.95 21.3 18.6 17.6 M13.85 31.1 Q12.5 28.9 12.5 26.1 L12.7 24.0 M9.8 29.75 Q8.75 27.85 8.95 25.15 M4.1 35.3 Q2.65 34.75 1.5 33.5 M5.2 30.05 Q6.4 32.4 9.55 33.5 M7.5 35.65 L4.4 35.4 M5.1 29.75 L4.6 28.25 M0.2 38.5 Q2.0 39.3 4.1 39.3 M7.15 45.85 Q6.75 46.05 6.35 46.2 M4.4 39.25 L6.25 39.05 M0.2 43.75 L4.1 43.3 M1.6 48.4 L6.0 46.3 M6.25 43.15 L4.4 43.3 M9.95 30.05 Q10.7 31.2 11.8 32.0 M33.85 24.1 Q33.7 25.1 33.7 26.1 33.7 32.05 37.55 36.25 39.5 38.35 41.9 39.4 L36.85 40.4 M21.85 55.15 L22.25 53.5 Q24.55 57.55 27.5 61.55 M54.0 55.45 L45.7 57.9 37.1 60.55 28.6 63.1 M24.0 61.9 Q21.3 59.05 21.85 55.45 M37.1 60.55 Q33.65 55.9 31.1 51.35 M18.2 53.45 Q17.5 54.3 17.15 55.15 M18.25 61.55 Q15.95 58.3 17.05 55.45 M12.8 59.7 Q11.75 57.4 12.35 55.45 M12.5 55.15 Q13.0 53.7 14.45 52.45 M8.15 56.7 Q7.75 54.7 8.8 53.15 M4.4 52.85 L6.0 50.5 M11.5 50.75 Q9.9 51.7 9.0 52.8 M66.8 65.75 L70.1 64.45 M73.2 63.25 L78.35 61.25 M41.4 51.35 Q43.3 54.6 45.7 57.9 M26.9 42.35 Q28.5 46.7 30.9 51.05 M36.1 40.55 Q38.05 45.8 41.2 51.05 M46.45 11.9 L34.0 11.9 M34.7 10.15 L67.55 10.15 M8.75 48.25 Q7.45 49.1 6.35 50.15 M76.9 21.85 L91.0 24.0 M94.15 43.25 L54.3 55.3 M75.5 87.1 L129.95 82.2 M139.3 24.85 L79.0 18.25" fill="none" stroke-width="0.7" stroke="#000000" stroke-opacity="0.4"/>
    </g>
    <radialGradient cx="0" cy="0" gradientTransform="matrix(0.0307, 0.0, 0.0, 0.0307, 124.45, 29.35)" gradientUnits="userSpaceOnUse" id="gradient0" r="819.2" spreadMethod="pad">
      <stop offset="0.0" stop-color="#ff3300"/>
      <stop offset="1.0" stop-color="#990000"/>
    </radialGradient>
    <linearGradient gradientTransform="matrix(0.0, -0.007, 0.0237, 0.0, 97.75, 63.75)" gradientUnits="userSpaceOnUse" id="gradient1" spreadMethod="pad" x1="-819.2" x2="819.2">
      <stop offset="0.0" stop-color="#333333"/>
      <stop offset="1.0" stop-color="#666666"/>
    </linearGradient>
    <radialGradient cx="0" cy="0" gradientTransform="matrix(0.0172, 0.0, 0.0, 0.0172, 111.55, 62.3)" gradientUnits="userSpaceOnUse" id="gradient2" r="819.2" spreadMethod="pad">
      <stop offset="0.0" stop-color="#999999"/>
      <stop offset="1.0" stop-color="#333333"/>
    </radialGradient>
    <linearGradient gradientTransform="matrix(0.0, -0.0094, 0.0179, 0.0, 127.25, 69.4)" gradientUnits="userSpaceOnUse" id="gradient3" spreadMethod="pad" x1="-819.2" x2="819.2">
      <stop offset="0.0" stop-color="#333333"/>
      <stop offset="0.8156862745098039" stop-color="#999999"/>
      <stop offset="1.0" stop-color="#666666"/>
    </linearGradient>
    <radialGradient cx="0" cy="0" gradientTransform="matrix(0.0161, 0.0, 0.0, 0.0161, 138.65, 66.05)" gradientUnits="userSpaceOnUse" id="gradient4" r="819.2" spreadMethod="pad">
      <stop offset="0.0" stop-color="#999999"/>
      <stop offset="1.0" stop-color="#333333"/>
    </radialGradient>
    <radialGradient cx="0" cy="0" gradientTransform="matrix(0.0104, 0.0, 0.0, 0.0104, 144.5, 73.4)" gradientUnits="userSpaceOnUse" id="gradient5" r="819.2" spreadMethod="pad">
      <stop offset="0.0" stop-color="#999999"/>
      <stop offset="1.0" stop-color="#333333"/>
    </radialGradient>
    <radialGradient cx="0" cy="0" gradientTransform="matrix(0.0067, 0.0, 0.0, 0.0067, 141.0, 70.2)" gradientUnits="userSpaceOnUse" id="gradient6" r="819.2" spreadMethod="pad">
      <stop offset="0.0" stop-color="#ff3300"/>
      <stop offset="1.0" stop-color="#990000"/>
    </radialGradient>
    <radialGradient cx="0" cy="0" gradientTransform="matrix(0.0288, 0.0, 0.0, 0.0288, 53.35, 17.05)" gradientUnits="userSpaceOnUse" id="gradient7" r="819.2" spreadMethod="pad">
      <stop offset="0.0" stop-color="#999999"/>
      <stop offset="1.0" stop-color="#333333"/>
    </radialGradient>
    <radialGradient cx="0" cy="0" gradientTransform="matrix(0.0112, 0.0, 0.0, 0.0112, 64.75, 23.85)" gradientUnits="userSpaceOnUse" id="gradient8" r="819.2" spreadMethod="pad">
      <stop offset="0.0" stop-color="#999999"/>
      <stop offset="1.0" stop-color="#333333"/>
    </radialGradient>
    <linearGradient gradientTransform="matrix(0.0, -0.0046, 0.0065, 0.0, 71.3, 26.15)" gradientUnits="userSpaceOnUse" id="gradient9" spreadMethod="pad" x1="-819.2" x2="819.2">
      <stop offset="0.0" stop-color="#333333"/>
      <stop offset="0.8156862745098039" stop-color="#999999"/>
      <stop offset="1.0" stop-color="#666666"/>
    </linearGradient>
    <linearGradient gradientTransform="matrix(0.0, -0.0174, 0.0281, 0.0, 38.95, 26.15)" gradientUnits="userSpaceOnUse" id="gradient10" spreadMethod="pad" x1="-819.2" x2="819.2">
      <stop offset="0.0" stop-color="#333333"/>
      <stop offset="0.8156862745098039" stop-color="#999999"/>
      <stop offset="1.0" stop-color="#666666"/>
    </linearGradient>
    <radialGradient cx="0" cy="0" gradientTransform="matrix(0.0157, 0.0, 0.0, 0.0157, 14.25, 22.6)" gradientUnits="userSpaceOnUse" id="gradient11" r="819.2" spreadMethod="pad">
      <stop offset="0.0" stop-color="#999999"/>
      <stop offset="1.0" stop-color="#333333"/>
    </radialGradient>
    <g id="shape1" transform="matrix(1.0, 0.0, 0.0, 1.0, -99.25, -25.4)">
      <path d="M133.0 32.5 L99.3 29.55 100.1 25.45 130.25 27.85 133.0 32.5" fill="url(#gradient12)" fill-rule="evenodd" stroke="none"/>
      <path d="M141.55 66.25 L142.4 66.1 Q143.9 66.1 144.9 67.2 146.0 68.35 146.0 69.95 L146.0 70.05 146.0 70.25 Q145.85 71.65 144.9 72.65 143.9 73.75 142.4 73.75 L141.1 73.5 Q139.85 72.1 139.75 70.25 L139.75 70.05 Q139.75 68.05 141.1 66.6 141.3 66.35 141.55 66.25" fill="url(#gradient13)" fill-rule="evenodd" stroke="none"/>
      <path d="M133.0 32.5 L99.3 29.55 100.1 25.45 130.25 27.85 133.0 32.5 M141.55 66.25 L142.4 66.1 Q143.9 66.1 144.9 67.2 146.0 68.35 146.0 69.95 L146.0 70.05 146.0 70.25 Q145.85 71.65 144.9 72.65 143.9 73.75 142.4 73.75 L141.1 73.5 Q139.85 72.1 139.75 70.25 L139.75 70.05 Q139.75 68.05 141.1 66.6 141.3 66.35 141.55 66.25" fill="none" stroke="#000000" stroke-width="0.7" stroke-opacity="0.4"/>
    </g>
    <radialGradient cx="0" cy="0" gradientTransform="matrix(0.0296, 0.0, 0.0, 0.0296, 123.55, 29.4)" gradientUnits="userSpaceOnUse" id="gradient12" r="819.2" spreadMethod="pad">
      <stop offset="0.0" stop-color="#00ccff"/>
      <stop offset="0.3176470588235294" stop-color="#0099ff"/>
      <stop offset="1.0" stop-color="#0033cc"/>
    </radialGradient>
    <radialGradient cx="0" cy="0" gradientTransform="matrix(0.0077, 0.0, 0.0, 0.0077, 140.2, 70.0)" gradientUnits="userSpaceOnUse" id="gradient13" r="819.2" spreadMethod="pad">
      <stop offset="0.0" stop-color="#00ccff"/>
      <stop offset="0.3176470588235294" stop-color="#0099ff"/>
      <stop offset="1.0" stop-color="#0033cc"/>
    </radialGradient>
  </defs>
</svg>
