<?xml version="1.0" encoding="UTF-8" standalone="no"?>
<svg xmlns:xlink="http://www.w3.org/1999/xlink" height="198.65px" width="192.35px" xmlns="http://www.w3.org/2000/svg">
  <g transform="matrix(1.0, 0.0, 0.0, 1.0, 0.05, 0.05)">
    <path d="M192.25 97.6 L175.05 149.6 167.55 175.1 162.9 174.85 168.65 150.75 179.1 97.8 192.25 97.6 M70.55 1.8 L79.6 1.8 76.8 3.9 76.25 5.65 73.2 5.65 70.55 1.8 M99.75 0.0 L104.4 0.0 107.9 0.0 111.35 0.0 113.2 1.8 115.5 3.9 112.2 3.9 108.8 3.9 102.5 3.9 99.75 0.0 M119.95 1.8 L123.25 1.8 126.65 1.8 129.4 1.8 127.95 2.9 127.0 3.9 127.0 4.45 126.2 4.45 122.9 4.45 119.95 1.8 M149.15 0.0 L152.55 0.0 156.1 0.0 159.85 0.0 164.9 3.9 160.4 3.9 156.95 3.9 153.45 3.9 149.15 0.0 M156.1 0.0 L160.4 3.9 156.1 0.0 M152.55 0.0 L156.95 3.9 152.55 0.0 M123.25 1.8 L126.2 4.45 123.25 1.8 M126.65 1.8 L127.95 2.9 126.65 1.8 M104.4 0.0 L108.8 3.9 104.4 0.0 M107.9 0.0 L112.2 3.9 107.9 0.0 M109.1 98.8 L123.1 98.8 122.35 102.75 121.15 108.95 119.95 115.1 118.7 121.85 117.5 127.9 116.05 134.85 114.65 142.8 114.4 146.0 110.65 165.5 109.1 173.9 104.7 173.55 105.5 150.75 109.1 98.8 M50.5 43.45 L63.6 43.45 63.25 45.45 62.7 47.45 60.95 47.45 53.8 47.45 53.0 50.85 52.15 54.35 51.35 57.7 50.5 61.1 49.7 64.6 49.4 66.4 51.05 68.05 54.65 71.7 57.3 71.9 56.45 75.45 53.1 75.2 45.2 66.95 50.5 43.45" fill="#b2b2b2" fill-rule="evenodd" stroke="none"/>
    <path d="M171.75 27.35 L160.4 27.35 156.95 27.35 153.45 27.35 153.45 26.5 153.75 26.25 153.9 26.25 155.3 24.7 Q156.4 23.5 156.95 21.95 L157.2 19.2 156.95 16.45 Q156.4 15.0 155.3 13.8 L155.3 13.7 154.85 13.15 153.9 12.35 153.45 12.05 153.45 3.9 156.95 3.9 160.4 3.9 160.4 27.35 160.4 3.9 164.9 3.9 171.75 27.35 M37.15 30.8 L43.95 7.3 46.95 7.3 40.65 29.0 41.75 30.8 37.15 30.8 M156.95 16.45 L156.95 3.9 156.95 16.45 M115.5 6.65 L115.5 10.25 115.5 13.35 115.5 25.4 115.5 27.35 112.2 27.35 112.2 3.9 112.2 27.35 108.8 27.35 95.55 27.35 102.5 3.9 108.8 3.9 112.2 3.9 115.5 3.9 115.5 4.45 115.5 6.65 M156.95 21.95 L156.95 27.35 156.95 21.95 M108.8 3.9 L108.8 27.35 108.8 3.9 M73.2 5.65 L76.25 5.65 69.9 27.35 71.1 29.0 66.35 29.0 73.2 5.65" fill="#a0a0a0" fill-rule="evenodd" stroke="none"/>
    <path d="M149.15 31.2 L138.65 31.2 137.45 28.45 148.25 28.45 148.5 28.45 148.7 28.45 151.0 28.0 153.35 26.6 153.45 26.5 153.45 27.35 149.15 31.2 M2.85 80.15 L10.25 76.1 20.5 76.1 20.5 76.2 13.55 81.25 20.5 76.2 20.95 76.3 27.35 76.65 34.15 77.2 27.35 82.35 34.15 77.2 41.1 77.65 47.5 78.05 49.7 78.3 53.1 75.45 53.1 75.2 56.45 75.45 57.3 71.9 58.1 68.05 58.95 64.6 59.75 61.1 60.5 57.7 61.15 54.35 62.05 50.85 62.7 47.45 63.25 45.45 67.35 45.45 69.35 36.6 79.25 36.6 75.6 58.45 75.4 59.75 74.75 61.3 64.7 57.25 61.4 72.25 94.35 97.9 95.25 152.15 89.5 149.05 83.45 149.05 55.9 131.75 52.45 129.45 49.4 127.55 48.4 122.6 41.1 83.8 34.15 83.05 27.35 82.35 20.5 81.8 27.35 76.65 20.5 81.8 13.55 81.25 3.65 80.3 3.4 80.3 2.85 80.15 M5.85 64.05 L0.0 44.45 21.4 43.45 23.6 43.45 27.9 43.45 50.5 43.45 45.2 66.95 22.8 65.85 22.7 65.85 18.5 65.6 5.85 64.05 M46.95 7.3 L47.5 5.65 52.45 1.8 70.55 1.8 73.2 5.65 66.35 29.0 61.4 33.0 54.65 33.0 51.25 33.0 47.85 33.0 43.4 33.0 41.75 30.8 40.65 29.0 46.95 7.3 M79.6 1.8 L81.8 0.0 99.75 0.0 102.5 3.9 95.55 27.35 90.7 31.2 84.0 31.2 80.55 31.2 77.15 31.2 72.65 31.2 71.1 29.0 69.9 27.35 76.25 5.65 76.8 3.9 79.6 1.8 M113.2 1.8 L119.95 1.8 122.9 4.45 115.5 4.45 115.5 3.9 113.2 1.8 M129.4 1.8 L131.3 0.0 149.15 0.0 153.45 3.9 153.45 12.05 153.2 11.95 153.1 11.8 151.0 10.7 148.7 10.25 148.5 10.25 139.9 10.25 138.1 6.65 134.35 4.45 127.0 4.45 127.0 3.9 127.95 2.9 129.4 1.8 M150.35 95.15 L149.35 119.75 132.6 165.15 136.8 150.75 136.8 150.4 137.55 147.75 139.45 141.35 141.55 134.1 143.65 127.0 145.4 120.5 145.4 113.35 145.3 107.4 145.15 101.0 145.15 96.5 144.05 93.85 140.3 85.35 135.9 74.75 150.35 95.15 M95.9 5.85 L95.45 5.1 93.45 5.1 89.95 5.1 86.55 5.1 83.1 5.1 81.0 6.65 75.85 24.6 76.95 26.25 80.35 26.25 83.75 26.25 87.2 26.25 89.3 26.25 90.15 25.6 91.4 24.6 96.55 6.65 95.9 5.85 M67.35 8.4 L66.7 7.5 66.25 6.85 64.15 6.85 60.75 6.85 57.3 6.85 53.8 6.85 51.7 8.4 46.5 26.35 47.6 27.9 51.05 27.9 54.55 27.9 57.95 27.9 59.95 27.9 60.85 27.35 62.05 26.35 62.15 26.35 67.35 8.4 M94.15 133.55 L65.6 116.45 65.6 109.05 47.15 92.95 44.1 83.9 49.7 78.3 44.1 83.9 47.15 92.95 65.6 109.05 65.6 116.45 94.15 133.55 M27.9 43.45 L22.7 65.85 27.9 43.45 M67.35 45.45 L64.7 57.25 67.35 45.45 M60.05 86.25 L56.75 83.35 56.75 91.85 60.05 94.6 68.8 102.2 68.8 109.6 87.85 121.05 87.85 113.55 72.2 104.2 72.2 96.8 60.05 86.25 M41.45 83.8 L41.1 83.8 41.45 83.8 47.5 78.05 41.45 83.8 44.1 83.9 41.45 83.8 M34.15 83.05 L41.1 77.65 34.15 83.05 M18.5 65.6 L23.6 43.45 18.5 65.6" fill="#7a7a7a" fill-rule="evenodd" stroke="none"/>
    <path d="M171.75 27.35 L167.0 31.2 156.1 31.2 160.4 27.35 156.1 31.2 152.65 31.2 149.15 31.2 153.45 27.35 156.95 27.35 152.65 31.2 156.95 27.35 160.4 27.35 171.75 27.35 M32.2 34.65 L37.15 30.8 41.75 30.8 43.4 33.0 47.85 33.0 51.25 33.0 54.65 33.0 52.8 34.65 49.4 34.65 45.85 34.65 32.2 34.65 M112.2 27.35 L115.5 27.35 114.4 28.45 113.65 29.15 111.35 31.2 107.9 31.2 104.4 31.2 90.7 31.2 95.55 27.35 108.8 27.35 104.4 31.2 108.8 27.35 112.2 27.35 107.9 31.2 112.2 27.35 M84.0 31.2 L82.1 33.0 78.6 33.0 75.15 33.0 61.4 33.0 66.35 29.0 71.1 29.0 72.65 31.2 77.15 31.2 80.55 31.2 84.0 31.2 M78.6 33.0 L80.55 31.2 78.6 33.0 M49.4 34.65 L51.25 33.0 49.4 34.65 M47.85 33.0 L45.85 34.65 47.85 33.0 M77.15 31.2 L75.15 33.0 77.15 31.2" fill="#848484" fill-rule="evenodd" stroke="none"/>
    <path d="M145.5 36.6 L147.7 36.6 156.75 36.6 165.65 52.7 165.8 52.95 165.9 53.25 166.25 53.95 169.2 59.75 162.5 69.6 162.35 69.7 162.05 69.8 134.35 70.8 116.75 66.6 114.3 56.15 132.15 57.7 134.35 70.8 132.15 57.7 114.3 56.15 110.1 36.6 119.7 36.6 124.65 36.6 145.5 36.6 M166.1 70.9 L192.25 97.6 179.1 97.8 175.7 92.75 173.4 85.35 166.1 70.9 M89.4 63.3 L89.95 70.15 89.95 70.35 90.05 70.35 92.15 72.0 98.45 77.5 115.3 92.1 123.1 98.8 109.1 98.8 79.45 69.5 79.45 60.55 89.4 63.3 M89.95 70.15 L79.45 69.5 89.95 70.15 M165.65 52.7 L158.4 57.9 158.3 57.9 156.4 53.95 156.1 52.95 Q152.35 44.35 147.7 36.6 152.35 44.35 156.1 52.95 L156.4 53.95 158.3 57.9 158.4 57.9 165.65 52.7 M124.65 36.6 Q127.95 44.65 132.15 57.7 L158.3 57.9 162.35 69.7 158.3 57.9 132.15 57.7 Q127.95 44.65 124.65 36.6" fill="#cbcbcb" fill-rule="evenodd" stroke="none"/>
    <path d="M169.2 59.75 L170.5 62.75 165.9 70.05 163.45 73.65 162.5 69.6 163.45 73.65 136.15 74.75 Q134.6 72.1 134.35 70.8 134.6 72.1 136.15 74.75 L124.8 71.25 117.3 69.05 89.4 63.3 79.45 60.55 80.0 59.0 116.75 66.6 134.35 70.8 162.05 69.8 162.35 69.7 162.5 69.6 169.2 59.75 M21.4 43.45 L22.7 39.05 28.2 39.05 57.95 39.05 61.3 35.1 87.2 35.1 113.1 35.1 115.4 33.1 118.15 33.1 119.7 36.6 110.1 36.6 87.3 36.6 87.2 35.1 87.3 36.6 79.25 36.6 69.35 36.6 67.35 45.45 63.25 45.45 63.6 43.45 50.5 43.45 27.9 43.45 23.6 43.45 21.4 43.45 M117.3 69.05 L116.75 66.6 117.3 69.05 M62.7 47.45 L62.05 50.85 61.15 54.35 60.5 57.7 59.75 61.1 58.95 64.6 58.1 68.05 57.3 71.9 56.3 68.05 58.1 68.05 57.1 64.6 58.95 64.6 57.85 61.1 59.75 61.1 58.65 57.7 60.5 57.7 59.5 54.35 61.15 54.35 60.2 50.85 62.05 50.85 60.95 47.45 62.7 47.45" fill="#666666" fill-rule="evenodd" stroke="none"/>
    <path d="M167.2 85.35 L173.4 85.35 175.7 92.75 175.35 93.85 169.95 93.85 175.35 93.85 173.4 101.0 172.95 102.75 172.85 102.9 172.85 103.1 171.65 107.4 169.95 113.35 168.1 120.5 167.55 122.3 167.55 122.6 166.35 127.0 164.35 134.1 162.35 141.35 160.6 147.75 160.15 149.75 159.95 150.4 159.85 150.75 152.0 150.75 152.1 150.4 152.35 148.5 152.0 150.4 150.55 150.4 152.0 150.4 152.0 150.75 150.35 150.75 150.55 150.4 151.8 147.75 154.75 141.35 158.3 134.1 161.6 127.0 166.35 127.0 161.6 127.0 164.7 120.5 165.0 119.75 166.25 113.35 167.35 107.4 168.65 101.0 169.95 93.85 167.2 85.35 M171.65 107.4 L167.35 107.4 171.65 107.4 M173.4 101.0 L168.65 101.0 173.4 101.0 M169.95 113.35 L166.25 113.35 169.95 113.35 M168.1 120.5 L164.7 120.5 168.1 120.5 M134.35 101.0 L135.15 93.85 132.15 85.35 140.3 85.35 144.05 93.85 145.15 96.5 145.15 101.0 145.3 107.4 145.4 113.35 145.4 120.5 143.65 127.0 141.55 134.1 139.45 141.35 137.55 147.75 136.8 150.4 136.8 150.75 128.1 150.75 128.2 150.4 128.2 150.15 128.5 147.75 137.55 147.75 128.5 147.75 129.3 141.35 139.45 141.35 129.3 141.35 130.2 134.1 131.05 127.0 143.65 127.0 131.05 127.0 131.85 120.5 132.7 113.35 133.5 107.4 134.35 101.0 145.15 101.0 134.35 101.0 M144.05 93.85 L135.15 93.85 144.05 93.85 M60.05 94.6 L56.75 91.85 56.75 83.35 60.05 86.25 60.05 94.6 M145.4 120.5 L131.85 120.5 145.4 120.5 M141.55 134.1 L130.2 134.1 141.55 134.1 M145.3 107.4 L133.5 107.4 145.3 107.4 M136.8 150.4 L128.2 150.4 136.8 150.4 M160.6 147.75 L151.8 147.75 160.6 147.75 M164.35 134.1 L158.3 134.1 164.35 134.1 M162.35 141.35 L154.75 141.35 162.35 141.35 M145.4 113.35 L132.7 113.35 145.4 113.35 M159.95 150.4 L152.1 150.4 159.95 150.4" fill="#535353" fill-rule="evenodd" stroke="none"/>
    <path d="M172.95 102.75 L172.85 103.1 172.85 102.9 172.95 102.75" fill="#444444" fill-rule="evenodd" stroke="none"/>
    <path d="M162.9 174.85 L153.35 158.9 159.85 150.75 159.95 150.4 160.15 149.75 160.6 147.75 162.35 141.35 164.35 134.1 166.35 127.0 167.55 122.6 167.55 122.3 168.1 120.5 169.95 113.35 171.65 107.4 172.85 103.1 172.95 102.75 173.4 101.0 175.35 93.85 175.7 92.75 179.1 97.8 168.65 150.75 162.9 174.85" fill="#888888" fill-rule="evenodd" stroke="none"/>
    <path d="M138.65 31.2 L139.55 33.1 118.15 33.1 115.4 33.1 113.65 29.15 114.4 28.45 120.7 28.45 121.75 28.45 134.6 28.45 134.7 28.45 134.9 28.45 135.5 28.45 137.45 28.45 138.65 31.2 M153.35 158.9 L148.05 165.5 141.1 165.5 120.25 165.5 128.1 150.75 136.8 150.75 132.6 165.15 143.5 165.15 150.35 150.75 152.0 150.75 159.85 150.75 153.35 158.9" fill="#5e5e5e" fill-rule="evenodd" stroke="none"/>
    <path d="M135.5 10.25 L134.9 10.25 134.7 10.25 134.6 10.25 121.85 10.25 121.05 10.25 115.5 10.25 115.5 6.65 138.1 6.65 139.9 10.25 135.5 10.25" fill="#777777" fill-rule="evenodd" stroke="none"/>
    <path d="M138.1 6.65 L115.5 6.65 115.5 4.45 122.9 4.45 126.2 4.45 127.0 4.45 134.35 4.45 138.1 6.65" fill="#8c8c8c" fill-rule="evenodd" stroke="none"/>
    <path d="M139.55 33.1 L143.1 33.1 145.5 36.6 124.65 36.6 119.7 36.6 118.15 33.1 139.55 33.1" fill="#9e9e9e" fill-rule="evenodd" stroke="none"/>
    <path d="M93.45 5.1 L95.45 5.1 95.9 5.85 94.8 6.65 95.9 5.85 96.55 6.65 94.8 6.65 91.25 6.65 93.45 5.1 91.25 6.65 87.85 6.65 84.45 6.65 86.55 5.1 84.45 6.65 81.0 6.65 83.1 5.1 86.55 5.1 89.95 5.1 93.45 5.1 M89.95 5.1 L87.85 6.65 89.95 5.1 M66.7 7.5 L67.35 8.4 65.45 8.4 66.7 7.5 65.45 8.4 62.05 8.4 64.15 6.85 62.05 8.4 58.65 8.4 55.1 8.4 57.3 6.85 55.1 8.4 51.7 8.4 53.8 6.85 57.3 6.85 60.75 6.85 64.15 6.85 66.25 6.85 66.7 7.5 M60.75 6.85 L58.65 8.4 60.75 6.85" fill="#383838" fill-rule="evenodd" stroke="none"/>
    <path d="M91.25 198.55 L86.85 195.05 83.1 189.1 74.05 174.75 61.6 174.75 55.1 162.4 54.9 150.4 59.3 147.4 58.75 144.65 57.2 137.5 55.9 131.75 83.45 149.05 76.4 160.45 83.2 160.45 89.5 149.05 95.25 152.15 95.25 152.4 95.35 155.45 95.35 156.8 101.2 166.7 Q100.85 167.6 99.4 169.15 L99.0 170.55 97.35 176.75 95.9 181.6 93.7 190.1 80.8 174.75 74.05 174.75 80.8 174.75 86.4 174.75 87.1 173.9 90.6 167.9 95.35 155.45 90.6 167.9 87.1 173.9 86.4 174.75 80.8 174.75 93.7 190.1 91.25 198.55 M20.5 76.1 L20.5 72.9 20.85 73.1 20.95 73.2 25.7 73.2 27.35 73.35 30.2 73.55 34.15 73.9 41.1 74.35 47.5 74.9 53.1 75.45 49.7 78.3 47.5 78.05 41.1 77.65 34.15 77.2 27.35 76.65 20.95 76.3 20.5 76.1 20.95 76.3 20.5 76.2 20.5 76.1 M91.25 6.65 L94.8 6.65 96.55 6.65 91.4 24.6 89.6 24.6 94.8 6.65 89.6 24.6 86.2 24.6 91.25 6.65 86.2 24.6 82.65 24.6 79.25 24.6 84.45 6.65 79.25 24.6 75.85 24.6 81.0 6.65 84.45 6.65 87.85 6.65 91.25 6.65 M87.85 6.65 L82.65 24.6 87.85 6.65 M65.45 8.4 L67.35 8.4 62.15 26.35 62.05 26.35 60.3 26.35 65.45 8.4 60.3 26.35 56.85 26.35 62.05 8.4 56.85 26.35 53.45 26.35 49.95 26.35 46.5 26.35 51.7 8.4 55.1 8.4 49.95 26.35 55.1 8.4 58.65 8.4 53.45 26.35 58.65 8.4 62.05 8.4 65.45 8.4 M34.5 22.2 L34.6 22.2 34.5 22.4 34.5 22.2 M27.35 73.35 L27.35 76.65 27.35 73.35 M34.15 77.2 L34.15 73.9 34.15 77.2 M41.1 74.35 L41.1 77.65 41.1 74.35 M47.5 74.9 L47.5 78.05 47.5 74.9 M76.4 160.45 L68.9 160.45 59.75 149.3 59.3 147.4 59.75 149.3 68.9 160.45 76.4 160.45 M90.6 167.9 L92.9 171.9 99.0 170.55 92.9 171.9 90.6 167.9 M97.35 176.75 L88.85 177.05 87.1 173.9 88.85 177.05 97.35 176.75" fill="#4f4f4f" fill-rule="evenodd" stroke="none"/>
    <path d="M141.1 165.5 L134.15 181.6 133.8 181.6 129.3 198.55 122.9 198.55 118.7 193.15 98.3 193.15 96.9 198.55 91.25 198.55 93.7 190.1 95.9 181.6 97.35 176.75 99.0 170.55 99.4 169.15 Q100.85 167.6 101.2 166.7 L101.3 166.8 104.7 173.55 109.1 173.9 110.65 165.5 120.25 165.5 141.1 165.5 M91.4 24.6 L90.15 25.6 89.3 26.25 87.2 26.25 83.75 26.25 80.35 26.25 76.95 26.25 75.85 24.6 79.25 24.6 82.65 24.6 86.2 24.6 89.6 24.6 91.4 24.6 M90.15 25.6 L89.6 24.6 90.15 25.6 M83.75 26.25 L82.65 24.6 83.75 26.25 M87.2 26.25 L86.2 24.6 87.2 26.25 M62.05 26.35 L60.85 27.35 59.95 27.9 57.95 27.9 54.55 27.9 51.05 27.9 47.6 27.9 46.5 26.35 49.95 26.35 51.05 27.9 49.95 26.35 53.45 26.35 54.55 27.9 53.45 26.35 56.85 26.35 60.3 26.35 62.05 26.35 M60.85 27.35 L60.3 26.35 60.85 27.35 M57.95 27.9 L56.85 26.35 57.95 27.9 M79.25 24.6 L80.35 26.25 79.25 24.6 M32.5 28.0 L32.85 28.0 32.5 28.35 32.5 28.0 M133.8 181.6 L127.55 181.6 101.4 181.6 95.9 181.6 101.4 181.6 127.55 181.6 133.8 181.6 M98.3 193.15 L101.4 181.6 98.3 193.15 M122.9 198.55 L124.35 193.3 127.55 181.6 124.35 193.3 122.9 198.55 M124.35 193.3 L118.7 193.15 124.35 193.3" fill="#6b6b6b" fill-rule="evenodd" stroke="none"/>
    <path d="M28.2 39.05 L29.65 34.65 32.2 34.65 45.85 34.65 49.4 34.65 52.8 34.65 54.65 33.0 61.4 33.0 75.15 33.0 78.6 33.0 82.1 33.0 84.0 31.2 90.7 31.2 104.4 31.2 107.9 31.2 111.35 31.2 113.65 29.15 115.4 33.1 113.1 35.1 87.2 35.1 61.3 35.1 57.95 39.05 28.2 39.05" fill="#494949" fill-rule="evenodd" stroke="none"/>
    <path d="M87.3 36.6 L110.1 36.6 114.3 56.15 116.75 66.6 80.0 59.0 79.45 60.55 79.45 69.5 109.1 98.8 105.5 150.75 104.7 173.55 101.3 166.8 101.2 166.7 95.35 156.8 95.35 155.45 95.25 152.4 95.25 152.15 94.35 97.9 61.4 72.25 64.7 57.25 74.75 61.3 75.4 59.75 75.6 58.45 80.0 59.0 85.3 46.1 78.8 43.35 85.3 46.1 80.0 59.0 75.6 58.45 79.25 36.6 87.3 36.6 85.3 46.1 114.3 56.15 85.3 46.1 87.3 36.6 M79.45 60.55 L75.4 59.75 79.45 60.55" fill="#999999" fill-rule="evenodd" stroke="none"/>
    <path d="M83.1 189.1 L53.8 180.95 50.7 176.2 39.9 173.35 39.7 173.0 Q31.65 170.9 26.25 166.5 14.55 157.0 11.8 149.95 5.05 135.05 15.85 124.8 L17.95 122.95 20.6 121.05 22.9 127.55 20.6 121.05 52.45 129.45 55.9 131.75 57.2 137.5 58.75 144.65 59.3 147.4 54.9 150.4 28.45 143.35 54.9 150.4 55.1 162.4 61.6 174.75 74.05 174.75 83.1 189.1 M89.95 70.15 L90.05 70.35 89.95 70.35 89.95 70.15 M92.15 72.0 L132.15 85.35 135.15 93.85 134.35 101.0 115.3 92.1 134.35 101.0 133.5 107.4 122.35 102.75 133.5 107.4 132.7 113.35 131.85 120.5 119.95 115.1 131.85 120.5 131.05 127.0 130.2 134.1 129.3 141.35 128.5 147.75 114.65 142.8 128.5 147.75 128.2 150.15 128.2 150.4 128.1 150.75 114.4 146.0 128.1 150.75 120.25 165.5 110.65 165.5 114.4 146.0 114.65 142.8 116.05 134.85 129.3 141.35 116.05 134.85 117.5 127.9 130.2 134.1 117.5 127.9 118.7 121.85 119.95 115.1 121.15 108.95 132.7 113.35 121.15 108.95 122.35 102.75 123.1 98.8 115.3 92.1 98.45 77.5 135.15 93.85 98.45 77.5 92.15 72.0 M25.8 135.95 L58.75 144.65 25.8 135.95 23.25 128.45 57.2 137.5 23.25 128.45 22.9 127.55 23.25 128.55 Q3.95 143.65 36.6 158.35 L36.6 158.45 30.95 159.0 33.05 162.4 30.95 159.0 36.6 158.45 41.2 157.9 42.3 153.15 30.2 148.5 28.45 143.35 25.8 135.95 M33.05 162.4 Q28.45 161.1 24.8 159.0 30.95 165.6 42.0 168.7 L45.65 168.35 44.2 165.95 33.4 163.2 33.05 162.4 M24.8 159.0 Q22.5 157.8 20.5 156.15 15.85 152.4 11.8 149.95 15.85 152.4 20.5 156.15 22.5 157.8 24.8 159.0 M39.7 173.0 L37.45 169.25 42.0 168.7 37.45 169.25 39.7 173.0 M45.65 168.35 L50.7 176.2 45.65 168.35 M55.1 162.4 L42.3 153.15 55.1 162.4 M44.2 165.95 L40.55 160.45 41.2 157.9 40.55 160.45 44.2 165.95 M118.7 121.85 L131.05 127.0 118.7 121.85" fill="#333333" fill-rule="evenodd" stroke="none"/>
    <path d="M20.5 72.9 L5.85 64.05 18.5 65.6 25.7 73.2 18.5 65.6 22.7 65.85 22.8 65.85 45.2 66.95 53.1 75.2 53.1 75.45 47.5 74.9 41.1 74.35 34.15 73.9 30.2 73.55 27.35 73.35 25.7 73.2 20.95 73.2 20.85 73.1 20.5 72.9 M22.8 65.85 L30.2 73.55 22.8 65.85" fill="#606060" fill-rule="evenodd" stroke="none"/>
    <path d="M20.6 121.05 L18.4 114.35 11.25 112.45 2.75 80.5 2.65 80.15 2.85 80.15 3.4 80.3 2.75 80.5 3.4 80.3 3.65 80.3 13.55 81.25 20.5 81.8 27.35 82.35 34.95 118.85 28.3 117.1 20.5 81.8 28.3 117.1 34.95 118.85 27.35 82.35 34.15 83.05 41.1 83.8 48.4 122.6 49.4 127.55 52.45 129.45 20.6 121.05 M28.3 117.1 L21.15 115.1 13.55 81.25 21.15 115.1 28.3 117.1 M48.4 122.6 L42.0 120.85 34.15 83.05 42.0 120.85 48.4 122.6 M21.15 115.1 L18.4 114.35 21.15 115.1 M42.0 120.85 L34.95 118.85 42.0 120.85" fill="#5b5b5b" fill-rule="evenodd" stroke="none"/>
    <path d="M60.95 47.45 L62.05 50.85 60.2 50.85 61.15 54.35 59.5 54.35 60.5 57.7 58.65 57.7 59.75 61.1 57.85 61.1 58.95 64.6 57.1 64.6 58.1 68.05 56.3 68.05 57.3 71.9 54.65 71.7 51.05 68.05 49.4 66.4 49.7 64.6 50.5 61.1 51.35 57.7 52.15 54.35 53.0 50.85 53.8 47.45 60.95 47.45 M50.5 61.1 L57.85 61.1 50.5 61.1 M57.1 64.6 L49.7 64.6 57.1 64.6 M56.3 68.05 L51.05 68.05 56.3 68.05 M52.15 54.35 L59.5 54.35 52.15 54.35 M51.35 57.7 L58.65 57.7 51.35 57.7 M53.0 50.85 L60.2 50.85 53.0 50.85" fill="#3f3f3f" fill-rule="evenodd" stroke="none"/>
    <path d="M83.45 149.05 L89.5 149.05 83.2 160.45 76.4 160.45 83.45 149.05" fill="#6d6d6d" fill-rule="evenodd" stroke="none"/>
    <path d="M136.15 74.75 L163.45 73.65 167.2 85.35 169.95 93.85 168.65 101.0 167.35 107.4 166.25 113.35 165.0 119.75 149.35 119.75 150.35 95.15 169.95 93.85 150.35 95.15 135.9 74.75 136.15 74.75" fill="#a8a8a8" fill-rule="evenodd" stroke="none"/>
    <path d="M149.35 119.75 L165.0 119.75 164.7 120.5 161.6 127.0 158.3 134.1 154.75 141.35 151.8 147.75 150.55 150.4 150.35 150.75 143.5 165.15 132.6 165.15 149.35 119.75" fill="#878787" fill-rule="evenodd" stroke="none"/>
    <path d="M165.9 70.05 L166.1 70.9 173.4 85.35 167.2 85.35 163.45 73.65 165.9 70.05 M124.8 71.25 L136.15 74.75 135.9 74.75 140.3 85.35 132.15 85.35 124.8 71.25" fill="url(#gradient0)" fill-rule="evenodd" stroke="none"/>
    <path d="M153.1 11.8 L152.65 11.7 151.0 11.4 150.9 11.4 Q148.25 11.4 146.4 13.8 145.7 14.45 145.4 15.45 144.6 17.1 144.6 19.2 144.6 22.5 146.4 24.7 147.25 25.8 148.25 26.35 149.6 27.15 150.9 27.15 L151.0 27.15 Q152.1 27.15 153.1 26.6 L153.35 26.6 151.0 28.0 148.7 28.45 148.5 28.45 148.25 28.45 Q145.5 28.25 143.5 25.7 L142.2 23.95 Q143.5 21.95 143.5 19.2 143.5 17.1 142.75 15.45 L142.3 14.7 143.5 12.9 Q145.5 10.4 148.5 10.25 L148.7 10.25 151.0 10.7 153.1 11.8" fill="url(#gradient1)" fill-rule="evenodd" stroke="none"/>
    <path d="M153.35 26.6 L153.1 26.6 Q152.1 27.15 151.0 27.15 L150.9 27.15 Q149.6 27.15 148.25 26.35 147.25 25.8 146.4 24.7 144.6 22.5 144.6 19.2 144.6 17.1 145.4 15.45 145.7 14.45 146.4 13.8 148.25 11.4 150.9 11.4 L151.0 11.4 152.65 11.7 153.1 11.8 153.2 11.95 153.45 12.15 153.9 12.35 154.85 13.15 155.3 13.7 155.3 13.8 Q156.4 15.0 156.95 16.45 L157.2 19.2 156.95 21.95 Q156.4 23.5 155.3 24.7 L153.9 26.25 153.75 26.25 153.45 26.5 153.35 26.6 M155.0 16.25 L154.2 15.45 154.1 15.45 Q153.75 15.15 153.45 15.15 L152.45 14.9 151.45 15.15 Q151.1 15.15 150.8 15.45 L149.9 16.25 Q148.8 17.45 148.8 19.3 148.8 21.1 149.9 22.5 150.55 23.3 151.45 23.6 L152.45 23.7 153.45 23.6 154.2 23.05 155.0 22.5 Q155.95 21.1 155.95 19.3 155.95 17.45 155.0 16.25" fill="url(#gradient2)" fill-rule="evenodd" stroke="none"/>
    <path d="M155.0 16.25 Q155.95 17.45 155.95 19.3 155.95 21.1 155.0 22.5 L154.2 23.05 153.45 23.6 152.45 23.7 151.45 23.6 Q150.55 23.3 149.9 22.5 148.8 21.1 148.8 19.3 148.8 17.45 149.9 16.25 L150.8 15.45 Q151.1 15.15 151.45 15.15 L152.45 14.9 153.45 15.15 Q153.75 15.15 154.1 15.45 L154.2 15.45 155.0 16.25" fill="url(#gradient3)" fill-rule="evenodd" stroke="none"/>
    <path d="M148.5 10.25 Q145.5 10.4 143.5 12.9 L142.3 14.7 141.65 13.8 141.1 13.15 Q140.65 12.7 140.2 12.35 L140.0 12.35 139.55 11.95 139.35 11.8 137.25 10.7 Q136.5 10.3 135.5 10.25 L139.9 10.25 148.5 10.25 M134.6 10.25 Q131.7 10.4 129.75 12.9 128.95 13.8 128.65 14.7 L127.85 13.8 127.3 13.15 127.0 12.7 126.45 12.35 126.3 12.35 125.65 11.95 125.55 11.8 123.45 10.7 Q122.75 10.3 121.85 10.25 L134.6 10.25 M128.5 23.95 Q128.95 24.95 129.75 25.7 131.7 28.25 134.6 28.45 L121.75 28.45 123.45 28.0 125.65 26.6 126.2 26.25 126.3 26.25 127.0 25.7 127.85 24.7 128.5 23.95 M115.5 10.25 L121.05 10.25 Q117.95 10.4 115.95 12.9 L115.5 13.35 115.5 10.25 M115.5 27.35 L115.5 25.4 115.95 25.7 Q117.95 28.25 120.7 28.45 L114.4 28.45 115.5 27.35" fill="url(#gradient4)" fill-rule="evenodd" stroke="none"/>
    <path d="M142.3 14.7 L142.75 15.45 Q143.5 17.1 143.5 19.2 143.5 21.95 142.2 23.95 L143.5 25.7 Q145.5 28.25 148.25 28.45 L137.45 28.45 135.5 28.45 134.9 28.45 134.7 28.45 134.6 28.45 Q131.7 28.25 129.75 25.7 128.95 24.95 128.5 23.95 129.75 21.95 129.75 19.2 129.75 17.1 128.85 15.45 L128.65 14.7 Q128.95 13.8 129.75 12.9 131.7 10.4 134.6 10.25 L134.7 10.25 134.9 10.25 135.5 10.25 Q136.5 10.3 137.25 10.7 L139.35 11.8 139.55 11.95 140.0 12.35 140.2 12.35 Q140.65 12.7 141.1 13.15 L141.65 13.8 142.3 14.7 M139.35 11.8 L139.0 11.7 137.25 11.4 137.1 11.4 Q134.5 11.4 132.7 13.8 132.05 14.45 131.6 15.45 130.85 17.1 130.85 19.2 130.85 22.5 132.7 24.7 133.5 25.8 134.6 26.35 135.7 27.15 137.1 27.15 L137.25 27.15 Q138.35 27.15 139.35 26.6 L139.85 26.4 137.25 28.0 135.5 28.45 137.25 28.0 139.85 26.4 139.35 26.6 Q138.35 27.15 137.25 27.15 L137.1 27.15 Q135.7 27.15 134.6 26.35 133.5 25.8 132.7 24.7 130.85 22.5 130.85 19.2 130.85 17.1 131.6 15.45 132.05 14.45 132.7 13.8 134.5 11.4 137.1 11.4 L137.25 11.4 139.0 11.7 139.35 11.8 M141.65 16.8 L141.1 16.25 140.55 15.45 140.3 15.45 Q139.55 14.9 138.65 14.9 L137.65 15.15 Q137.35 15.15 137.0 15.45 136.45 15.7 136.15 16.25 135.15 17.45 135.15 19.3 135.15 21.1 136.15 22.5 136.8 23.3 137.65 23.6 L138.65 23.7 Q139.75 23.7 140.55 23.05 L141.1 22.5 141.65 21.95 Q142.2 20.75 142.2 19.3 142.2 17.9 141.65 16.8 M139.85 26.4 L140.0 26.25 141.65 24.7 142.2 23.95 141.65 24.7 140.0 26.25 139.85 26.4" fill="url(#gradient5)" fill-rule="evenodd" stroke="none"/>
    <path d="M128.65 14.7 L128.85 15.45 Q129.75 17.1 129.75 19.2 129.75 21.95 128.5 23.95 L127.85 24.7 127.0 25.7 126.3 26.25 126.2 26.25 125.65 26.6 Q124.55 27.15 123.45 27.15 122.0 27.15 120.7 26.35 119.7 25.8 118.8 24.7 117.05 22.5 117.05 19.2 117.05 17.1 117.85 15.45 118.25 14.45 118.8 13.8 120.7 11.4 123.45 11.4 L124.25 11.5 125.1 11.7 125.55 11.8 125.65 11.95 126.3 12.35 126.45 12.35 127.0 12.7 127.3 13.15 127.85 13.8 128.65 14.7 M127.4 16.25 L127.0 15.7 126.65 15.45 126.55 15.45 Q125.9 14.9 124.9 14.9 L123.9 15.15 Q123.55 15.15 123.25 15.45 L122.35 16.25 Q121.25 17.45 121.25 19.3 121.25 21.1 122.35 22.5 123.0 23.3 123.9 23.6 L124.9 23.7 Q125.9 23.7 126.65 23.05 L127.0 22.95 127.4 22.5 127.75 21.95 Q128.4 20.75 128.4 19.3 128.4 17.9 127.75 16.8 L127.4 16.25" fill="url(#gradient6)" fill-rule="evenodd" stroke="none"/>
    <path d="M121.05 10.25 L121.85 10.25 Q122.75 10.3 123.45 10.7 L125.55 11.8 125.1 11.7 124.25 11.5 123.45 11.4 Q120.7 11.4 118.8 13.8 118.25 14.45 117.85 15.45 117.05 17.1 117.05 19.2 117.05 22.5 118.8 24.7 119.7 25.8 120.7 26.35 122.0 27.15 123.45 27.15 124.55 27.15 125.65 26.6 L123.45 28.0 121.75 28.45 120.7 28.45 Q117.95 28.25 115.95 25.7 L115.5 25.4 115.5 13.35 115.95 12.9 Q117.95 10.4 121.05 10.25" fill="url(#gradient7)" fill-rule="evenodd" stroke="none"/>
    <path d="M127.4 16.25 L127.75 16.8 Q128.4 17.9 128.4 19.3 128.4 20.75 127.75 21.95 L127.4 22.5 127.0 22.95 126.65 23.05 Q125.9 23.7 124.9 23.7 L123.9 23.6 Q123.0 23.3 122.35 22.5 121.25 21.1 121.25 19.3 121.25 17.45 122.35 16.25 L123.25 15.45 Q123.55 15.15 123.9 15.15 L124.9 14.9 Q125.9 14.9 126.55 15.45 L126.65 15.45 127.0 15.7 127.4 16.25" fill="url(#gradient8)" fill-rule="evenodd" stroke="none"/>
    <path d="M141.65 16.8 Q142.2 17.9 142.2 19.3 142.2 20.75 141.65 21.95 L141.1 22.5 140.55 23.05 Q139.75 23.7 138.65 23.7 L137.65 23.6 Q136.8 23.3 136.15 22.5 135.15 21.1 135.15 19.3 135.15 17.45 136.15 16.25 136.45 15.7 137.0 15.45 137.35 15.15 137.65 15.15 L138.65 14.9 Q139.55 14.9 140.3 15.45 L140.55 15.45 141.1 16.25 141.65 16.8" fill="url(#gradient9)" fill-rule="evenodd" stroke="none"/>
    <path d="M117.3 69.05 L124.8 71.25 132.15 85.35 92.15 72.0 90.05 70.35 89.95 70.15 89.4 63.3 117.3 69.05" fill="url(#gradient10)" fill-rule="evenodd" stroke="none"/>
    <path d="M60.05 86.25 L72.2 96.8 72.2 104.2 87.85 113.55 87.85 121.05 68.8 109.6 68.8 102.2 60.05 94.6 60.05 86.25" fill="url(#gradient11)" fill-rule="evenodd" stroke="none"/>
    <path d="M152.0 150.4 L152.35 148.5 152.1 150.4 152.0 150.75 152.0 150.4 152.1 150.4 152.0 150.4" fill="url(#gradient12)" fill-rule="evenodd" stroke="none"/>
    <path d="M156.1 31.2 L167.0 31.2 171.75 27.35 160.4 27.35 156.1 31.2 152.65 31.2 149.15 31.2 138.65 31.2 139.55 33.1 143.1 33.1 145.5 36.6 147.7 36.6 156.75 36.6 165.65 52.7 165.8 52.95 165.9 53.25 166.25 53.95 169.2 59.75 170.5 62.75 165.9 70.05 166.1 70.9 192.25 97.6 175.05 149.6 167.55 175.1 162.9 174.85 153.35 158.9 148.05 165.5 141.1 165.5 134.15 181.6 133.8 181.6 129.3 198.55 122.9 198.55 118.7 193.15 98.3 193.15 96.9 198.55 91.25 198.55 86.85 195.05 83.1 189.1 53.8 180.95 50.7 176.2 39.9 173.35 39.7 173.0 Q31.65 170.9 26.25 166.5 14.55 157.0 11.8 149.95 5.05 135.05 15.85 124.8 L17.95 122.95 20.6 121.05 18.4 114.35 11.25 112.45 2.75 80.5 2.65 80.15 2.85 80.15 10.25 76.1 20.5 76.1 20.5 72.9 5.85 64.05 0.0 44.45 21.4 43.45 22.7 39.05 28.2 39.05 29.65 34.65 32.2 34.65 37.15 30.8 43.95 7.3 46.95 7.3 47.5 5.65 52.45 1.8 70.55 1.8 79.6 1.8 81.8 0.0 99.75 0.0 104.4 0.0 107.9 0.0 111.35 0.0 113.2 1.8 119.95 1.8 123.25 1.8 126.65 1.8 129.4 1.8 131.3 0.0 149.15 0.0 152.55 0.0 156.1 0.0 159.85 0.0 164.9 3.9 171.75 27.35 M163.45 73.65 L165.9 70.05 M163.45 73.65 L162.5 69.6 162.35 69.7 162.05 69.8 134.35 70.8 Q134.6 72.1 136.15 74.75 L163.45 73.65 M173.4 85.35 L166.1 70.9 M162.5 69.6 L169.2 59.75 M175.7 92.75 L173.4 85.35 M175.7 92.75 L179.1 97.8 192.25 97.6 M175.35 93.85 L175.7 92.75 M169.95 93.85 L175.35 93.85 173.4 101.0 172.95 102.75 172.85 103.1 171.65 107.4 169.95 113.35 168.1 120.5 167.55 122.3 167.55 122.6 166.35 127.0 164.35 134.1 162.35 141.35 160.6 147.75 160.15 149.75 M159.85 150.75 L153.35 158.9 M172.85 103.1 L172.85 102.9 172.95 102.75 M167.35 107.4 L171.65 107.4 M164.7 120.5 L168.1 120.5 M166.25 113.35 L169.95 113.35 M168.65 101.0 L173.4 101.0 M162.9 174.85 L168.65 150.75 179.1 97.8 M156.95 3.9 L160.4 3.9 156.1 0.0 M153.35 26.6 L153.1 26.6 Q152.1 27.15 151.0 27.15 L150.9 27.15 Q149.6 27.15 148.25 26.35 147.25 25.8 146.4 24.7 144.6 22.5 144.6 19.2 144.6 17.1 145.4 15.45 145.7 14.45 146.4 13.8 148.25 11.4 150.9 11.4 L151.0 11.4 152.65 11.7 153.1 11.8 151.0 10.7 148.7 10.25 148.5 10.25 Q145.5 10.4 143.5 12.9 L142.3 14.7 142.75 15.45 Q143.5 17.1 143.5 19.2 143.5 21.95 142.2 23.95 L143.5 25.7 Q145.5 28.25 148.25 28.45 L148.5 28.45 148.7 28.45 151.0 28.0 153.35 26.6 153.45 26.5 153.75 26.25 153.9 26.25 155.3 24.7 Q156.4 23.5 156.95 21.95 L157.2 19.2 156.95 16.45 Q156.4 15.0 155.3 13.8 L155.3 13.7 154.85 13.15 153.9 12.35 153.45 12.15 153.2 11.95 153.1 11.8 M153.2 11.95 L153.45 12.05 153.45 3.9 149.15 0.0 M153.9 12.35 L153.45 12.05 153.45 12.15 M153.45 3.9 L156.95 3.9 152.55 0.0 M155.0 16.25 Q155.95 17.45 155.95 19.3 155.95 21.1 155.0 22.5 L154.2 23.05 153.45 23.6 152.45 23.7 151.45 23.6 Q150.55 23.3 149.9 22.5 148.8 21.1 148.8 19.3 148.8 17.45 149.9 16.25 L150.8 15.45 Q151.1 15.15 151.45 15.15 L152.45 14.9 153.45 15.15 Q153.75 15.15 154.1 15.45 L154.2 15.45 155.0 16.25 M156.95 3.9 L156.95 16.45 M135.5 10.25 L134.9 10.25 134.7 10.25 134.6 10.25 Q131.7 10.4 129.75 12.9 128.95 13.8 128.65 14.7 L128.85 15.45 Q129.75 17.1 129.75 19.2 129.75 21.95 128.5 23.95 128.95 24.95 129.75 25.7 131.7 28.25 134.6 28.45 L134.7 28.45 134.9 28.45 135.5 28.45 137.25 28.0 139.85 26.4 139.35 26.6 Q138.35 27.15 137.25 27.15 L137.1 27.15 Q135.7 27.15 134.6 26.35 133.5 25.8 132.7 24.7 130.85 22.5 130.85 19.2 130.85 17.1 131.6 15.45 132.05 14.45 132.7 13.8 134.5 11.4 137.1 11.4 L137.25 11.4 139.0 11.7 139.35 11.8 137.25 10.7 Q136.5 10.3 135.5 10.25 L139.9 10.25 138.1 6.65 115.5 6.65 115.5 10.25 121.05 10.25 121.85 10.25 134.6 10.25 M142.3 14.7 L141.65 13.8 141.1 13.15 Q140.65 12.7 140.2 12.35 L140.0 12.35 139.55 11.95 139.35 11.8 M138.1 6.65 L134.35 4.45 127.0 4.45 126.2 4.45 122.9 4.45 115.5 4.45 115.5 6.65 M127.95 2.9 L129.4 1.8 M127.0 4.45 L127.0 3.9 127.95 2.9 126.65 1.8 M126.2 4.45 L123.25 1.8 M121.85 10.25 Q122.75 10.3 123.45 10.7 L125.55 11.8 125.65 11.95 126.3 12.35 126.45 12.35 127.0 12.7 127.3 13.15 127.85 13.8 128.65 14.7 M125.55 11.8 L125.1 11.7 124.25 11.5 123.45 11.4 Q120.7 11.4 118.8 13.8 118.25 14.45 117.85 15.45 117.05 17.1 117.05 19.2 117.05 22.5 118.8 24.7 119.7 25.8 120.7 26.35 122.0 27.15 123.45 27.15 124.55 27.15 125.65 26.6 L126.2 26.25 126.3 26.25 127.0 25.7 127.85 24.7 128.5 23.95 M127.4 16.25 L127.75 16.8 Q128.4 17.9 128.4 19.3 128.4 20.75 127.75 21.95 L127.4 22.5 127.0 22.95 126.65 23.05 Q125.9 23.7 124.9 23.7 L123.9 23.6 Q123.0 23.3 122.35 22.5 121.25 21.1 121.25 19.3 121.25 17.45 122.35 16.25 L123.25 15.45 Q123.55 15.15 123.9 15.15 L124.9 14.9 Q125.9 14.9 126.55 15.45 L126.65 15.45 127.0 15.7 127.4 16.25 M141.65 16.8 Q142.2 17.9 142.2 19.3 142.2 20.75 141.65 21.95 L141.1 22.5 140.55 23.05 Q139.75 23.7 138.65 23.7 L137.65 23.6 Q136.8 23.3 136.15 22.5 135.15 21.1 135.15 19.3 135.15 17.45 136.15 16.25 136.45 15.7 137.0 15.45 137.35 15.15 137.65 15.15 L138.65 14.9 Q139.55 14.9 140.3 15.45 L140.55 15.45 141.1 16.25 141.65 16.8 M142.2 23.95 L141.65 24.7 140.0 26.25 139.85 26.4 M137.45 28.45 L135.5 28.45 M137.45 28.45 L138.65 31.2 M125.65 26.6 L123.45 28.0 121.75 28.45 134.6 28.45 M156.95 27.35 L160.4 27.35 160.4 3.9 164.9 3.9 M153.45 26.5 L153.45 27.35 156.95 27.35 156.95 21.95 M152.65 31.2 L156.95 27.35 M153.45 27.35 L149.15 31.2 M148.5 10.25 L139.9 10.25 M148.25 28.45 L137.45 28.45 M119.7 36.6 L124.65 36.6 145.5 36.6 M115.5 3.9 L113.2 1.8 M115.5 4.45 L115.5 3.9 112.2 3.9 112.2 27.35 115.5 27.35 115.5 25.4 115.5 13.35 115.5 10.25 M108.8 3.9 L104.4 0.0 M102.5 3.9 L108.8 3.9 112.2 3.9 107.9 0.0 M121.05 10.25 Q117.95 10.4 115.95 12.9 L115.5 13.35 M95.9 5.85 L95.45 5.1 93.45 5.1 91.25 6.65 94.8 6.65 95.9 5.85 96.55 6.65 91.4 24.6 90.15 25.6 89.3 26.25 87.2 26.25 83.75 26.25 80.35 26.25 76.95 26.25 75.85 24.6 81.0 6.65 83.1 5.1 86.55 5.1 89.95 5.1 93.45 5.1 M96.55 6.65 L94.8 6.65 89.6 24.6 91.4 24.6 M87.85 6.65 L89.95 5.1 M84.45 6.65 L81.0 6.65 M84.45 6.65 L87.85 6.65 91.25 6.65 86.2 24.6 89.6 24.6 90.15 25.6 M86.55 5.1 L84.45 6.65 79.25 24.6 82.65 24.6 87.85 6.65 M86.2 24.6 L82.65 24.6 83.75 26.25 M87.2 35.1 L87.3 36.6 110.1 36.6 119.7 36.6 118.15 33.1 115.4 33.1 113.1 35.1 87.2 35.1 61.3 35.1 57.95 39.05 28.2 39.05 M84.0 31.2 L82.1 33.0 78.6 33.0 75.15 33.0 61.4 33.0 54.65 33.0 52.8 34.65 49.4 34.65 45.85 34.65 32.2 34.65 M87.3 36.6 L85.3 46.1 114.3 56.15 110.1 36.6 M90.7 31.2 L84.0 31.2 80.55 31.2 78.6 33.0 M95.55 27.35 L90.7 31.2 104.4 31.2 108.8 27.35 95.55 27.35 102.5 3.9 99.75 0.0 M115.5 25.4 L115.95 25.7 Q117.95 28.25 120.7 28.45 L121.75 28.45 M114.4 28.45 L113.65 29.15 115.4 33.1 M114.4 28.45 L115.5 27.35 M120.7 28.45 L114.4 28.45 M113.65 29.15 L111.35 31.2 107.9 31.2 104.4 31.2 M112.2 27.35 L107.9 31.2 M108.8 27.35 L112.2 27.35 M86.2 24.6 L87.2 26.25 M108.8 27.35 L108.8 3.9 M114.3 56.15 L116.75 66.6 134.35 70.8 132.15 57.7 114.3 56.15 M116.75 66.6 L117.3 69.05 124.8 71.25 136.15 74.75 M89.4 63.3 L89.95 70.15 90.05 70.35 92.15 72.0 132.15 85.35 124.8 71.25 M89.95 70.15 L89.95 70.35 90.05 70.35 M117.3 69.05 L89.4 63.3 79.45 60.55 79.45 69.5 89.95 70.15 M98.45 77.5 L115.3 92.1 134.35 101.0 145.15 101.0 M135.15 93.85 L98.45 77.5 92.15 72.0 M147.7 36.6 Q152.35 44.35 156.1 52.95 L156.4 53.95 158.3 57.9 158.4 57.9 165.65 52.7 M162.35 69.7 L158.3 57.9 132.15 57.7 Q127.95 44.65 124.65 36.6 M135.15 93.85 L144.05 93.85 M119.95 1.8 L122.9 4.45 M118.15 33.1 L139.55 33.1 M109.1 98.8 L123.1 98.8 115.3 92.1 M76.25 5.65 L76.8 3.9 79.6 1.8 M73.2 5.65 L76.25 5.65 69.9 27.35 71.1 29.0 72.65 31.2 77.15 31.2 80.55 31.2 M67.35 8.4 L66.7 7.5 65.45 8.4 67.35 8.4 62.15 26.35 62.05 26.35 60.85 27.35 59.95 27.9 57.95 27.9 54.55 27.9 51.05 27.9 47.6 27.9 46.5 26.35 51.7 8.4 53.8 6.85 57.3 6.85 60.75 6.85 64.15 6.85 66.25 6.85 66.7 7.5 M62.05 8.4 L65.45 8.4 60.3 26.35 62.05 26.35 M64.15 6.85 L62.05 8.4 56.85 26.35 60.3 26.35 60.85 27.35 M79.25 24.6 L75.85 24.6 M70.55 1.8 L73.2 5.65 66.35 29.0 71.1 29.0 M57.3 6.85 L55.1 8.4 58.65 8.4 60.75 6.85 M55.1 8.4 L51.7 8.4 M56.85 26.35 L57.95 27.9 M53.45 26.35 L54.55 27.9 M54.65 33.0 L51.25 33.0 49.4 34.65 M53.45 26.35 L56.85 26.35 M45.85 34.65 L47.85 33.0 43.4 33.0 41.75 30.8 37.15 30.8 M46.5 26.35 L49.95 26.35 55.1 8.4 M41.75 30.8 L40.65 29.0 46.95 7.3 M51.05 27.9 L49.95 26.35 53.45 26.35 58.65 8.4 62.05 8.4 M47.85 33.0 L51.25 33.0 M75.15 33.0 L77.15 31.2 M66.35 29.0 L61.4 33.0 M63.25 45.45 L67.35 45.45 69.35 36.6 79.25 36.6 87.3 36.6 M50.5 43.45 L63.6 43.45 63.25 45.45 62.7 47.45 62.05 50.85 61.15 54.35 60.5 57.7 59.75 61.1 58.95 64.6 58.1 68.05 57.3 71.9 56.45 75.45 53.1 75.2 53.1 75.45 49.7 78.3 44.1 83.9 47.15 92.95 65.6 109.05 65.6 116.45 94.15 133.55 M62.7 47.45 L60.95 47.45 62.05 50.85 60.2 50.85 61.15 54.35 59.5 54.35 60.5 57.7 58.65 57.7 59.75 61.1 57.85 61.1 58.95 64.6 57.1 64.6 58.1 68.05 56.3 68.05 57.3 71.9 54.65 71.7 51.05 68.05 49.4 66.4 49.7 64.6 50.5 61.1 51.35 57.7 52.15 54.35 53.0 50.85 53.8 47.45 60.95 47.45 M80.35 26.25 L79.25 24.6 M21.4 43.45 L23.6 43.45 27.9 43.45 50.5 43.45 45.2 66.95 53.1 75.2 M20.5 72.9 L20.85 73.1 20.95 73.2 25.7 73.2 18.5 65.6 5.85 64.05 M22.7 65.85 L22.8 65.85 45.2 66.95 M25.7 73.2 L27.35 73.35 30.2 73.55 22.8 65.85 M30.2 73.55 L34.15 73.9 41.1 74.35 47.5 74.9 53.1 75.45 M3.4 80.3 L2.85 80.15 M2.75 80.5 L3.4 80.3 3.65 80.3 13.55 81.25 20.5 76.2 20.5 76.1 20.95 76.3 27.35 76.65 27.35 73.35 M20.95 76.3 L20.5 76.2 M27.35 82.35 L20.5 81.8 28.3 117.1 34.95 118.85 27.35 82.35 34.15 77.2 27.35 76.65 20.5 81.8 13.55 81.25 21.15 115.1 28.3 117.1 M34.15 83.05 L27.35 82.35 M18.5 65.6 L22.7 65.85 27.9 43.45 M34.15 73.9 L34.15 77.2 41.1 77.65 41.1 74.35 M75.6 58.45 L80.0 59.0 85.3 46.1 78.8 43.35 M75.6 58.45 L75.4 59.75 79.45 60.55 80.0 59.0 116.75 66.6 M64.7 57.25 L74.75 61.3 75.4 59.75 M95.25 152.15 L94.35 97.9 61.4 72.25 64.7 57.25 67.35 45.45 M60.2 50.85 L53.0 50.85 M58.65 57.7 L51.35 57.7 M59.5 54.35 L52.15 54.35 M51.05 68.05 L56.3 68.05 M49.7 64.6 L57.1 64.6 M57.85 61.1 L50.5 61.1 M60.05 94.6 L56.75 91.85 56.75 83.35 60.05 86.25 72.2 96.8 72.2 104.2 87.85 113.55 87.85 121.05 68.8 109.6 68.8 102.2 60.05 94.6 60.05 86.25 M47.5 78.05 L47.5 74.9 M49.7 78.3 L47.5 78.05 41.45 83.8 44.1 83.9 M41.1 83.8 L41.45 83.8 M47.5 78.05 L41.1 77.65 34.15 83.05 41.1 83.8 48.4 122.6 49.4 127.55 52.45 129.45 55.9 131.75 83.45 149.05 89.5 149.05 95.25 152.15 95.25 152.4 95.35 155.45 95.35 156.8 101.2 166.7 101.3 166.8 104.7 173.55 105.5 150.75 109.1 98.8 79.45 69.5 M79.25 36.6 L75.6 58.45 M23.6 43.45 L18.5 65.6 M34.15 83.05 L42.0 120.85 48.4 122.6 M54.9 150.4 L59.3 147.4 58.75 144.65 25.8 135.95 28.45 143.35 54.9 150.4 55.1 162.4 61.6 174.75 74.05 174.75 80.8 174.75 86.4 174.75 87.1 173.9 90.6 167.9 95.35 155.45 M58.75 144.65 L57.2 137.5 23.25 128.45 25.8 135.95 M55.9 131.75 L57.2 137.5 M36.6 158.45 L36.6 158.35 Q3.95 143.65 23.25 128.55 L22.9 127.55 20.6 121.05 52.45 129.45 M23.25 128.45 L22.9 127.55 M18.4 114.35 L21.15 115.1 M33.05 162.4 Q28.45 161.1 24.8 159.0 30.95 165.6 42.0 168.7 L45.65 168.35 44.2 165.95 33.4 163.2 33.05 162.4 30.95 159.0 36.6 158.45 41.2 157.9 42.3 153.15 30.2 148.5 28.45 143.35 M42.0 168.7 L37.45 169.25 39.7 173.0 M11.8 149.95 Q15.85 152.4 20.5 156.15 22.5 157.8 24.8 159.0 M59.3 147.4 L59.75 149.3 68.9 160.45 76.4 160.45 83.45 149.05 M41.2 157.9 L40.55 160.45 44.2 165.95 M42.3 153.15 L55.1 162.4 M50.7 176.2 L45.65 168.35 M34.95 118.85 L42.0 120.85 M122.35 102.75 L133.5 107.4 145.3 107.4 M132.7 113.35 L121.15 108.95 119.95 115.1 131.85 120.5 145.4 120.5 M128.5 147.75 L137.55 147.75 M130.2 134.1 L141.55 134.1 M129.3 141.35 L139.45 141.35 M129.3 141.35 L116.05 134.85 114.65 142.8 128.5 147.75 M128.2 150.4 L136.8 150.4 M130.2 134.1 L117.5 127.9 116.05 134.85 M131.05 127.0 L118.7 121.85 117.5 127.9 M151.8 147.75 L160.6 147.75 M158.3 134.1 L164.35 134.1 M154.75 141.35 L162.35 141.35 M150.55 150.4 L152.0 150.4 152.1 150.4 159.95 150.4 M132.7 113.35 L145.4 113.35 M131.05 127.0 L143.65 127.0 M119.95 115.1 L118.7 121.85 M114.65 142.8 L114.4 146.0 128.1 150.75 M110.65 165.5 L120.25 165.5 128.1 150.75 M76.4 160.45 L83.2 160.45 89.5 149.05 M99.4 169.15 L99.0 170.55 97.35 176.75 95.9 181.6 101.4 181.6 127.55 181.6 133.8 181.6 M99.0 170.55 L92.9 171.9 90.6 167.9 M93.7 190.1 L95.9 181.6 M87.1 173.9 L88.85 177.05 97.35 176.75 M104.7 173.55 L109.1 173.9 110.65 165.5 114.4 146.0 M101.4 181.6 L98.3 193.15 M127.55 181.6 L124.35 193.3 122.9 198.55 M122.35 102.75 L121.15 108.95 M118.7 193.15 L124.35 193.3 M120.25 165.5 L141.1 165.5 M123.1 98.8 L122.35 102.75 M93.7 190.1 L80.8 174.75 M83.1 189.1 L74.05 174.75 M161.6 127.0 L166.35 127.0 M91.25 198.55 L93.7 190.1" fill="none" stroke="#000000" stroke-width="0.7" stroke-opacity="0.4"/>
    <path d="M167.2 85.35 L173.4 85.35 M134.35 101.0 L135.15 93.85 132.15 85.35 140.3 85.35 M133.5 107.4 L134.35 101.0 M131.85 120.5 L132.7 113.35 133.5 107.4 M128.5 147.75 L129.3 141.35 130.2 134.1 131.05 127.0 131.85 120.5 M128.5 147.75 L128.2 150.15 128.2 150.4 M128.1 150.75 L128.2 150.4" fill="none" stroke="#000000" stroke-width="0.7" stroke-opacity="0.4"/>
    <path d="M163.45 73.65 L167.2 85.35 M169.95 93.85 L167.2 85.35 M165.0 119.75 L166.25 113.35 167.35 107.4 168.65 101.0 169.95 93.85 150.35 95.15 149.35 119.75 165.0 119.75 164.7 120.5 161.6 127.0 158.3 134.1 154.75 141.35 151.8 147.75 150.55 150.4 150.35 150.75 143.5 165.15 132.6 165.15 149.35 119.75 M136.15 74.75 L135.9 74.75 150.35 95.15 M140.3 85.35 L135.9 74.75 M140.3 85.35 L144.05 93.85 145.15 96.5 145.15 101.0 145.3 107.4 145.4 113.35 145.4 120.5 143.65 127.0 141.55 134.1 139.45 141.35 137.55 147.75 136.8 150.4 136.8 150.75 132.6 165.15" fill="none" stroke="#000000" stroke-width="0.7" stroke-opacity="0.4"/>
  </g>
  <defs>
    <linearGradient gradientTransform="matrix(0.0, 0.0, 0.0, 0.0, -0.05, 0.0)" gradientUnits="userSpaceOnUse" id="gradient0" spreadMethod="pad" x1="-819.2" x2="819.2">
      <stop offset="0.0" stop-color="#ffa800"/>
      <stop offset="0.19607843137254902" stop-color="#ffb13a"/>
      <stop offset="0.3568627450980392" stop-color="#ffc810"/>
      <stop offset="1.0" stop-color="#f08400"/>
    </linearGradient>
    <radialGradient cx="0" cy="0" gradientTransform="matrix(0.0205, 0.0, 0.0, 0.0205, 145.15, 12.25)" gradientUnits="userSpaceOnUse" id="gradient1" r="819.2" spreadMethod="pad">
      <stop offset="0.0" stop-color="#b2b2b2"/>
      <stop offset="1.0" stop-color="#6b6b6b"/>
    </radialGradient>
    <radialGradient cx="0" cy="0" gradientTransform="matrix(0.0163, 0.0, 0.0, 0.0163, 147.9, 14.2)" gradientUnits="userSpaceOnUse" id="gradient2" r="819.2" spreadMethod="pad">
      <stop offset="0.0" stop-color="#b2b2b2"/>
      <stop offset="1.0" stop-color="#6b6b6b"/>
    </radialGradient>
    <radialGradient cx="0" cy="0" gradientTransform="matrix(0.0114, 0.0, 0.0, 0.0114, 147.7, 19.95)" gradientUnits="userSpaceOnUse" id="gradient3" r="819.2" spreadMethod="pad">
      <stop offset="0.21176470588235294" stop-color="#ffb600"/>
      <stop offset="0.3568627450980392" stop-color="#ffb600"/>
      <stop offset="0.7137254901960784" stop-color="#c28000"/>
    </radialGradient>
    <linearGradient gradientTransform="matrix(0.0, 0.0111, -0.0208, 0.0, 131.35, 19.4)" gradientUnits="userSpaceOnUse" id="gradient4" spreadMethod="pad" x1="-819.2" x2="819.2">
      <stop offset="0.0" stop-color="#969696"/>
      <stop offset="0.32941176470588235" stop-color="#b2b2b2"/>
      <stop offset="1.0" stop-color="#3f3f3f"/>
    </linearGradient>
    <radialGradient cx="0" cy="0" gradientTransform="matrix(0.0198, 0.0, 0.0, 0.0198, 132.15, 12.55)" gradientUnits="userSpaceOnUse" id="gradient5" r="819.2" spreadMethod="pad">
      <stop offset="0.0" stop-color="#b2b2b2"/>
      <stop offset="1.0" stop-color="#6b6b6b"/>
    </radialGradient>
    <radialGradient cx="0" cy="0" gradientTransform="matrix(0.0176, 0.0, 0.0, 0.0176, 119.35, 13.55)" gradientUnits="userSpaceOnUse" id="gradient6" r="819.2" spreadMethod="pad">
      <stop offset="0.0" stop-color="#b2b2b2"/>
      <stop offset="1.0" stop-color="#6b6b6b"/>
    </radialGradient>
    <radialGradient cx="0" cy="0" gradientTransform="matrix(0.0196, 0.0, 0.0, 0.0196, 117.9, 12.9)" gradientUnits="userSpaceOnUse" id="gradient7" r="819.2" spreadMethod="pad">
      <stop offset="0.0" stop-color="#b2b2b2"/>
      <stop offset="1.0" stop-color="#6b6b6b"/>
    </radialGradient>
    <radialGradient cx="0" cy="0" gradientTransform="matrix(0.0107, 0.0, 0.0, 0.0107, 120.25, 19.4)" gradientUnits="userSpaceOnUse" id="gradient8" r="819.2" spreadMethod="pad">
      <stop offset="0.21176470588235294" stop-color="#ffb600"/>
      <stop offset="0.3568627450980392" stop-color="#ffb600"/>
      <stop offset="0.7137254901960784" stop-color="#c28000"/>
    </radialGradient>
    <radialGradient cx="0" cy="0" gradientTransform="matrix(0.0096, 0.0, 0.0, 0.0096, 134.9, 19.05)" gradientUnits="userSpaceOnUse" id="gradient9" r="819.2" spreadMethod="pad">
      <stop offset="0.21176470588235294" stop-color="#ffb600"/>
      <stop offset="0.3568627450980392" stop-color="#ffb600"/>
      <stop offset="0.7137254901960784" stop-color="#c28000"/>
    </radialGradient>
    <linearGradient gradientTransform="matrix(-0.026, -0.0132, 0.0043, -0.0084, 100.05, 67.6)" gradientUnits="userSpaceOnUse" id="gradient10" spreadMethod="pad" x1="-819.2" x2="819.2">
      <stop offset="0.0" stop-color="#d0820b"/>
      <stop offset="1.0" stop-color="#f08400"/>
    </linearGradient>
    <radialGradient cx="0" cy="0" gradientTransform="matrix(0.05, 0.0, 0.0, 0.05, 99.85, 96.15)" gradientUnits="userSpaceOnUse" id="gradient11" r="819.2" spreadMethod="pad">
      <stop offset="0.0" stop-color="#ffa800"/>
      <stop offset="0.19607843137254902" stop-color="#ffb13a"/>
      <stop offset="0.3568627450980392" stop-color="#ffc810"/>
      <stop offset="1.0" stop-color="#f08400"/>
    </radialGradient>
    <linearGradient gradientTransform="matrix(0.0093, 0.0, 0.0, 0.0057, 147.15, 145.95)" gradientUnits="userSpaceOnUse" id="gradient12" spreadMethod="pad" x1="-819.2" x2="819.2">
      <stop offset="0.23137254901960785" stop-color="#3bb1ff"/>
      <stop offset="0.7843137254901961" stop-color="#204062"/>
    </linearGradient>
  </defs>
</svg>
