<?xml version="1.0" encoding="UTF-8" standalone="no"?>
<svg xmlns:xlink="http://www.w3.org/1999/xlink" height="92.75px" width="103.1px" xmlns="http://www.w3.org/2000/svg">
  <g transform="matrix(1.0, 0.0, 0.0, 1.0, 0.05, 0.05)">
    <path d="M70.85 0.55 L71.1 0.5 Q74.75 -0.9 78.5 1.45 82.3 3.85 84.05 8.45 85.75 13.1 84.45 17.4 83.15 21.6 79.5 23.0 L79.25 23.05 Q75.75 24.25 72.05 22.05 69.65 20.5 68.05 18.05 L66.6 15.0 Q64.85 10.4 66.1 6.1 67.45 1.95 70.85 0.55 M70.65 16.5 L68.05 18.05 70.65 16.5 M73.65 13.75 Q74.5 15.35 75.95 16.2 L76.85 16.65 79.75 16.75 79.9 16.7 Q81.75 16.0 82.5 13.8 83.15 11.55 82.25 9.1 81.3 6.7 79.35 5.45 77.35 4.2 75.5 4.9 L75.35 4.95 Q73.95 5.5 73.2 6.9 L72.8 7.85 Q72.15 10.1 73.1 12.5 73.3 13.2 73.65 13.75 L71.15 16.1 73.65 13.75" fill="url(#gradient0)" fill-rule="evenodd" stroke="none"/>
    <path d="M73.65 13.75 Q73.3 13.2 73.1 12.5 72.15 10.1 72.8 7.85 L73.2 6.9 Q73.95 5.5 75.35 4.95 L75.5 4.9 Q77.35 4.2 79.35 5.45 81.3 6.7 82.25 9.1 83.15 11.55 82.5 13.8 81.75 16.0 79.9 16.7 L79.75 16.75 76.85 16.65 75.95 16.2 Q74.5 15.35 73.65 13.75" fill="#333333" fill-rule="evenodd" stroke="none"/>
    <path d="M79.25 23.05 L67.8 27.35 Q64.3 28.55 60.6 26.3 58.15 24.8 56.55 22.3 L55.1 19.25 Q54.35 17.3 54.2 15.45 L54.1 14.45 54.15 13.3 54.2 13.25 54.15 13.2 Q54.25 11.75 54.65 10.35 56.0 6.25 59.4 4.85 L63.55 3.3 70.85 0.55 Q67.45 1.95 66.1 6.1 64.85 10.4 66.6 15.0 L68.05 18.05 62.6 20.05 68.05 18.05 Q69.65 20.5 72.05 22.05 75.75 24.25 79.25 23.05 M65.05 28.4 L63.2 29.05 58.3 30.9 58.2 30.95 57.65 31.0 Q54.6 31.65 51.4 29.75 49.0 28.2 47.4 25.7 L45.95 22.7 Q45.1 20.5 44.95 18.4 L44.95 17.9 45.0 16.6 Q45.1 15.15 45.45 13.8 45.9 12.5 46.5 11.5 47.6 9.7 49.35 8.7 L49.5 8.6 49.6 8.6 49.6 8.55 50.95 8.05 49.1 11.25 49.95 12.5 Q49.5 14.25 49.55 16.15 49.5 14.25 49.95 12.5 L51.3 14.4 51.4 14.4 51.35 15.45 51.45 16.45 Q51.6 18.3 52.35 20.25 L53.8 23.3 Q55.4 25.8 57.85 27.3 61.55 29.55 65.05 28.4 M55.45 32.0 L49.05 34.4 46.25 35.4 41.4 37.2 Q37.9 38.4 34.2 36.15 31.8 34.6 30.2 32.15 29.3 30.8 28.7 29.1 27.55 26.1 27.75 23.25 27.8 21.7 28.25 20.2 L28.8 18.8 29.3 17.9 Q30.5 15.9 32.5 14.95 L30.75 18.0 33.1 21.15 33.05 22.3 33.05 22.8 Q33.2 24.9 34.05 27.1 34.65 28.75 35.55 30.15 L30.2 32.15 35.55 30.15 Q34.65 28.75 34.05 27.1 33.2 24.9 33.05 22.8 L33.05 22.3 33.1 21.15 33.1 21.05 35.85 20.0 35.8 21.3 35.8 21.8 Q35.95 23.9 36.8 26.1 37.4 27.75 38.25 29.1 L38.3 29.15 38.25 29.1 Q37.4 27.75 36.8 26.1 35.95 23.9 35.8 21.8 L35.8 21.3 35.85 20.0 Q35.95 18.55 36.3 17.2 36.75 15.9 37.35 14.9 38.45 13.1 40.2 12.1 L41.65 11.55 39.9 14.6 39.85 14.65 42.1 17.75 42.25 17.65 42.2 18.9 42.2 19.4 Q42.35 21.5 43.2 23.7 43.8 25.35 44.65 26.7 L44.7 26.75 Q46.25 29.2 48.65 30.75 51.85 32.65 54.9 32.0 L55.45 32.0 M54.55 6.65 L54.7 6.6 54.6 6.65 54.55 6.65 M49.55 16.65 Q49.7 18.8 50.55 21.0 51.15 22.65 52.0 24.0 53.55 26.5 56.0 28.05 L56.65 28.3 Q59.95 30.15 63.2 29.05 59.95 30.15 56.65 28.3 L56.0 28.05 Q53.55 26.5 52.0 24.0 51.15 22.65 50.55 21.0 49.7 18.8 49.55 16.65 M54.15 13.2 L54.2 13.25 54.15 13.3 54.15 13.2 M62.1 20.25 L56.55 22.3 62.1 20.25 M46.25 35.4 L45.75 35.4 Q42.7 36.05 39.5 34.15 37.1 32.6 35.55 30.15 L38.3 29.15 Q39.85 31.6 42.25 33.15 45.45 35.05 48.5 34.4 L49.05 34.4 48.5 34.4 Q45.45 35.05 42.25 33.15 39.85 31.6 38.3 29.15 L35.55 30.15 Q37.1 32.6 39.5 34.15 42.7 36.05 45.75 35.4 L46.25 35.4 M42.9 27.4 L44.7 26.75 42.9 27.4 M42.35 27.6 L38.3 29.15 42.35 27.6" fill="url(#gradient1)" fill-rule="evenodd" stroke="none"/>
    <path d="M32.5 14.95 L34.65 11.15 37.55 10.05 33.75 16.85 30.75 18.0 33.75 16.85 35.85 20.0 33.1 21.05 33.1 21.15 30.75 18.0 32.5 14.95 M42.5 10.05 L43.8 7.75 46.7 6.65 42.9 13.45 39.9 14.6 42.9 13.45 45.0 16.6 42.25 17.65 42.1 17.75 39.85 14.65 39.9 14.6 41.65 11.55 42.5 10.05 M51.7 6.65 L53.0 4.4 55.9 3.3 52.1 10.1 49.1 11.25 52.1 10.1 54.15 13.2 54.15 13.3 51.4 14.4 51.3 14.4 49.95 12.5 49.1 11.25 50.95 8.05 51.7 6.65" fill="#666666" fill-rule="evenodd" stroke="none"/>
    <path d="M37.55 10.05 L42.5 10.05 41.65 11.55 40.2 12.1 Q38.45 13.1 37.35 14.9 36.75 15.9 36.3 17.2 35.95 18.55 35.85 20.0 L33.75 16.85 37.55 10.05 M46.7 6.65 L51.7 6.65 50.95 8.05 49.6 8.55 49.6 8.6 49.5 8.6 49.35 8.7 Q47.6 9.7 46.5 11.5 45.9 12.5 45.45 13.8 45.1 15.15 45.0 16.6 L42.9 13.45 46.7 6.65 M55.9 3.3 L63.55 3.3 59.4 4.85 Q56.0 6.25 54.65 10.35 54.25 11.75 54.15 13.2 L52.1 10.1 55.9 3.3 M54.6 6.65 L54.7 6.6 54.55 6.65 54.6 6.65" fill="#828282" fill-rule="evenodd" stroke="none"/>
    <path d="M67.8 27.35 L65.05 28.4 Q61.55 29.55 57.85 27.3 55.4 25.8 53.8 23.3 L52.35 20.25 Q51.6 18.3 51.45 16.45 L51.35 15.45 51.4 14.4 54.15 13.3 54.1 14.45 54.2 15.45 Q54.35 17.3 55.1 19.25 L56.55 22.3 Q58.15 24.8 60.6 26.3 64.3 28.55 67.8 27.35 M58.2 30.95 L55.45 32.0 54.9 32.0 Q51.85 32.65 48.65 30.75 46.25 29.2 44.7 26.75 L44.65 26.7 Q43.8 25.35 43.2 23.7 42.35 21.5 42.2 19.4 L42.2 18.9 42.25 17.65 45.0 16.6 44.95 17.9 44.95 18.4 Q45.1 20.5 45.95 22.7 L47.4 25.7 44.7 26.75 47.4 25.7 Q49.0 28.2 51.4 29.75 54.6 31.65 57.65 31.0 L58.2 30.95" fill="url(#gradient2)" fill-rule="evenodd" stroke="none"/>
    <path d="M70.85 0.55 L71.1 0.5 Q74.75 -0.9 78.5 1.45 82.3 3.85 84.05 8.45 85.75 13.1 84.45 17.4 83.15 21.6 79.5 23.0 L79.25 23.05 67.8 27.35 65.05 28.4 63.2 29.05 58.3 30.9 58.2 30.95 55.45 32.0 49.05 34.4 46.25 35.4 41.4 37.2 Q37.9 38.4 34.2 36.15 31.8 34.6 30.2 32.15 29.3 30.8 28.7 29.1 27.55 26.1 27.75 23.25 27.8 21.7 28.25 20.2 L28.8 18.8 29.3 17.9 Q30.5 15.9 32.5 14.95 L34.65 11.15 37.55 10.05 42.5 10.05 43.8 7.75 46.7 6.65 51.7 6.65 53.0 4.4 55.9 3.3 63.55 3.3 70.85 0.55 Q67.45 1.95 66.1 6.1 64.85 10.4 66.6 15.0 L68.05 18.05 70.65 16.5 M73.65 13.75 Q73.3 13.2 73.1 12.5 72.15 10.1 72.8 7.85 L73.2 6.9 Q73.95 5.5 75.35 4.95 L75.5 4.9 Q77.35 4.2 79.35 5.45 81.3 6.7 82.25 9.1 83.15 11.55 82.5 13.8 81.75 16.0 79.9 16.7 L79.75 16.75 76.85 16.65 75.95 16.2 Q74.5 15.35 73.65 13.75 L71.15 16.1 M62.6 20.05 L68.05 18.05 Q69.65 20.5 72.05 22.05 75.75 24.25 79.25 23.05 M54.6 6.65 L54.55 6.65 M52.1 10.1 L55.9 3.3 M51.7 6.65 L50.95 8.05 49.1 11.25 52.1 10.1 54.15 13.2 Q54.25 11.75 54.65 10.35 56.0 6.25 59.4 4.85 L63.55 3.3 M42.5 10.05 L41.65 11.55 39.9 14.6 42.9 13.45 46.7 6.65 M45.0 16.6 Q45.1 15.15 45.45 13.8 45.9 12.5 46.5 11.5 47.6 9.7 49.35 8.7 L49.5 8.6 49.6 8.6 49.6 8.55 50.95 8.05 M49.55 16.15 Q49.5 14.25 49.95 12.5 L49.1 11.25 M47.4 25.7 L45.95 22.7 Q45.1 20.5 44.95 18.4 L44.95 17.9 45.0 16.6 42.25 17.65 42.2 18.9 42.2 19.4 Q42.35 21.5 43.2 23.7 43.8 25.35 44.65 26.7 L44.7 26.75 47.4 25.7 Q49.0 28.2 51.4 29.75 54.6 31.65 57.65 31.0 L58.2 30.95 M45.0 16.6 L42.9 13.45 M39.9 14.6 L39.85 14.65 42.1 17.75 42.25 17.65 M63.2 29.05 Q59.95 30.15 56.65 28.3 L56.0 28.05 Q53.55 26.5 52.0 24.0 51.15 22.65 50.55 21.0 49.7 18.8 49.55 16.65 M67.8 27.35 Q64.3 28.55 60.6 26.3 58.15 24.8 56.55 22.3 L55.1 19.25 Q54.35 17.3 54.2 15.45 L54.1 14.45 54.15 13.3 51.4 14.4 51.35 15.45 51.45 16.45 Q51.6 18.3 52.35 20.25 L53.8 23.3 Q55.4 25.8 57.85 27.3 61.55 29.55 65.05 28.4 M54.15 13.3 L54.2 13.25 54.15 13.2 54.15 13.3 M49.95 12.5 L51.3 14.4 51.4 14.4 M55.45 32.0 L54.9 32.0 Q51.85 32.65 48.65 30.75 46.25 29.2 44.7 26.75 L42.9 27.4 M49.05 34.4 L48.5 34.4 Q45.45 35.05 42.25 33.15 39.85 31.6 38.3 29.15 L35.55 30.15 Q37.1 32.6 39.5 34.15 42.7 36.05 45.75 35.4 L46.25 35.4 M56.55 22.3 L62.1 20.25 M35.85 20.0 Q35.95 18.55 36.3 17.2 36.75 15.9 37.35 14.9 38.45 13.1 40.2 12.1 L41.65 11.55 M32.5 14.95 L30.75 18.0 33.75 16.85 37.55 10.05 M30.2 32.15 L35.55 30.15 Q34.65 28.75 34.05 27.1 33.2 24.9 33.05 22.8 L33.05 22.3 33.1 21.15 30.75 18.0 M35.85 20.0 L33.1 21.05 33.1 21.15 M38.3 29.15 L38.25 29.1 Q37.4 27.75 36.8 26.1 35.95 23.9 35.8 21.8 L35.8 21.3 35.85 20.0 33.75 16.85 M38.3 29.15 L42.35 27.6" fill="none" stroke="#000000" stroke-width="0.7" stroke-opacity="0.4"/>
    <path d="M83.45 24.55 L88.3 24.55 99.4 29.35 91.4 29.35 80.3 24.55 83.45 24.55 M81.85 80.5 L87.7 84.35 82.5 84.35 80.8 84.35 75.45 84.35 73.75 84.35 68.15 84.35 66.4 84.35 61.25 84.35 54.0 80.5 57.4 80.5 59.75 81.75 62.15 83.0 83.2 83.0 79.4 80.5 81.85 80.5 M58.3 24.55 L63.5 24.55 78.55 29.35 65.7 29.35 51.0 24.55 58.3 24.55 M32.45 56.05 L34.85 57.35 37.6 58.75 40.4 60.25 Q41.8 61.0 43.2 61.7 L45.95 63.15 48.7 64.65 55.85 68.35 52.45 68.35 28.4 55.75 31.8 55.75 32.45 56.05" fill="#b2b2b2" fill-rule="evenodd" stroke="none"/>
    <path d="M91.4 29.35 L99.4 29.35 101.5 42.7 100.3 42.7 90.5 42.7 92.3 35.5 91.4 29.35 M102.55 49.5 L103.0 52.45 103.0 59.85 96.35 59.85 90.2 56.0 82.75 59.85 72.05 59.85 72.05 52.45 83.65 50.85 98.4 50.85 103.0 52.45 98.4 50.85 83.65 50.85 72.05 52.45 71.25 49.5 84.8 45.2 93.5 45.2 102.55 49.5 M81.8 79.1 L81.85 80.5 79.4 80.5 79.45 79.1 81.8 79.1 M78.55 29.35 L80.2 35.5 84.65 42.7 69.4 42.7 65.7 29.35 78.55 29.35 M52.45 68.35 L55.85 68.35 56.0 68.95 56.35 72.1 57.25 79.15 57.4 80.5 54.0 80.5 53.95 80.5 52.45 68.35" fill="#999999" fill-rule="evenodd" stroke="none"/>
    <path d="M100.3 47.15 L102.55 49.5 93.5 45.2 84.8 45.2 71.25 49.5 45.25 37.0 47.7 35.45 58.55 39.1 57.05 40.5 71.05 47.15 84.65 42.7 90.5 42.7 84.65 42.7 80.2 35.5 78.55 29.35 91.4 29.35 92.3 35.5 90.5 42.7 100.3 47.15" fill="#3a3a3a" fill-rule="evenodd" stroke="none"/>
    <path d="M100.3 42.7 L100.3 47.15 90.5 42.7 100.3 42.7" fill="url(#gradient3)" fill-rule="evenodd" stroke="none"/>
    <path d="M83.45 24.55 L80.3 24.55 91.4 29.35 78.55 29.35 63.5 24.55 75.35 24.55 80.3 24.55 78.6 23.2 80.65 22.35 83.45 24.55 M86.2 79.1 L84.45 79.1 88.3 73.65 90.0 73.65 86.2 79.1 M27.1 89.95 L26.15 89.3 27.7 69.65 30.3 71.3 27.1 89.95 M0.8 89.95 L0.0 89.3 15.05 64.25 13.15 62.8 8.7 62.15 8.4 60.7 10.5 59.9 15.95 57.75 15.8 54.4 15.7 52.7 Q17.95 55.3 20.7 56.0 L21.25 56.15 22.8 56.25 24.85 56.0 27.1 55.1 Q29.1 53.95 30.65 51.75 33.9 47.25 33.9 40.9 33.9 34.55 30.65 30.05 L30.55 29.85 Q28.4 26.9 25.55 25.95 L29.4 24.5 33.2 24.5 35.3 26.45 40.4 26.45 41.0 26.45 44.25 24.75 41.0 26.45 40.4 26.45 29.75 18.1 23.6 13.25 29.6 13.25 35.7 18.05 44.25 24.75 47.45 23.0 47.75 22.9 55.2 22.9 58.3 24.55 51.0 24.55 43.75 31.05 41.9 32.75 38.15 36.1 35.6 38.35 36.5 45.2 36.0 46.45 34.15 51.55 32.45 56.05 31.8 55.75 28.4 55.75 27.1 56.75 27.3 58.45 27.35 58.9 27.8 62.2 24.9 64.25 23.05 64.25 19.0 64.25 0.8 89.95 M3.7 38.3 L3.2 35.75 6.3 33.65 10.45 30.95 13.6 29.9 14.15 29.9 15.05 29.85 14.95 30.05 Q13.4 32.25 12.55 34.9 L3.7 38.3 M82.5 84.35 L79.5 88.7 77.75 88.7 80.8 84.35 82.5 84.35 M75.45 84.35 L72.75 88.7 71.0 88.7 73.75 84.35 75.45 84.35 M68.15 84.35 L66.25 88.7 64.5 88.7 66.4 84.35 68.15 84.35 M37.45 28.45 L35.3 26.45 37.45 28.45 M35.7 18.05 L29.75 18.1 35.7 18.05 M35.0 32.6 L32.45 29.85 30.55 29.85 32.45 29.85 35.0 32.6 M43.75 31.05 L40.2 31.05 37.8 28.75 40.2 31.05 43.75 31.05 M35.4 33.05 L38.15 36.1 35.4 33.05 M24.9 59.95 L23.05 61.15 17.15 61.15 20.3 59.95 21.25 56.15 20.3 59.95 17.15 61.15 23.05 61.15 24.9 59.95 M27.3 58.45 L25.25 59.75 27.3 58.45 M17.15 61.15 L13.15 62.8 17.15 61.15 M19.0 64.25 L15.05 64.25 19.0 64.25 M68.75 79.1 L71.15 73.65 72.85 73.65 70.45 79.1 68.75 79.1 M77.0 79.1 L80.45 73.65 82.15 73.65 78.75 79.1 77.0 79.1" fill="#4c4c4c" fill-rule="evenodd" stroke="none"/>
    <path d="M103.0 59.85 L91.0 79.1 86.2 79.1 90.0 73.65 88.3 73.65 84.45 79.1 81.8 79.1 79.45 79.1 78.75 79.1 82.15 73.65 80.45 73.65 77.0 79.1 70.45 79.1 72.85 73.65 71.15 73.65 68.75 79.1 67.85 79.1 63.55 79.1 72.05 59.85 82.75 59.85 81.55 62.25 94.85 62.25 96.35 59.85 103.0 59.85 M87.7 84.35 L82.45 92.65 57.55 92.65 61.25 84.35 66.4 84.35 64.5 88.7 66.25 88.7 68.15 84.35 73.75 84.35 71.0 88.7 72.75 88.7 75.45 84.35 80.8 84.35 77.75 88.7 79.5 88.7 82.5 84.35 87.7 84.35" fill="#7f7f7f" fill-rule="evenodd" stroke="none"/>
    <path d="M82.75 59.85 L90.2 56.0 96.35 59.85 94.85 62.25 81.55 62.25 82.75 59.85" fill="url(#gradient4)" fill-rule="evenodd" stroke="none"/>
    <path d="M35.0 74.5 L33.7 73.65 28.0 89.95 27.1 89.95 30.3 71.3 27.7 69.65 25.4 68.0 25.25 65.75 24.6 65.3 1.9 89.95 0.8 89.95 19.0 64.25 23.05 64.25 24.9 64.25 27.8 62.2 27.9 62.9 34.1 67.3 34.7 72.1 35.0 74.5 M10.5 59.9 L7.75 57.5 9.8 56.65 7.1 54.35 9.1 53.5 6.4 51.1 8.45 50.3 5.75 47.9 7.8 47.15 5.1 44.75 7.15 43.95 4.4 41.55 6.5 40.7 3.7 38.3 12.55 34.9 12.55 35.05 Q12.0 36.75 11.8 38.65 L11.7 40.9 11.75 42.15 Q11.8 43.85 12.2 45.4 L13.15 48.5 Q13.8 50.0 14.7 51.35 L14.95 51.75 15.7 52.7 15.8 54.4 15.95 57.75 10.5 59.9 M6.3 33.65 L5.75 31.45 5.3 29.3 17.4 14.1 23.55 13.25 23.6 13.25 29.75 18.1 21.0 19.25 8.65 29.2 21.0 19.25 29.75 18.1 40.4 26.45 35.3 26.45 33.2 24.5 29.4 24.5 25.55 25.95 22.8 25.55 Q19.25 25.55 16.5 28.15 L15.05 29.85 14.15 29.9 13.6 29.9 10.45 30.95 6.3 33.65 M75.35 24.55 L78.6 23.2 80.3 24.55 75.35 24.55 M8.3 29.5 L5.75 31.45 8.3 29.5 M6.5 40.7 L11.8 38.65 6.5 40.7 M7.8 47.15 L12.2 45.4 7.8 47.15 M7.15 43.95 L11.75 42.15 7.15 43.95 M23.05 64.25 L24.6 65.3 23.05 64.25 M30.3 71.3 L33.7 73.65 30.3 71.3 M30.05 68.95 L34.7 72.1 30.05 68.95 M25.25 65.75 L29.4 68.5 25.25 65.75 M9.1 53.5 L14.7 51.35 9.1 53.5 M15.8 54.4 L9.8 56.65 15.8 54.4 M8.45 50.3 L13.15 48.5 8.45 50.3" fill="#333333" fill-rule="evenodd" stroke="none"/>
    <path d="M57.55 92.65 L49.9 87.25 35.3 76.9 35.0 74.5 34.7 72.1 34.1 67.3 27.9 62.9 27.8 62.2 27.35 58.9 27.3 58.45 27.1 56.75 28.4 55.75 52.45 68.35 53.95 80.5 54.0 80.5 61.25 84.35 57.55 92.65 M58.55 39.1 L47.7 35.45 45.25 37.0 71.25 49.5 72.05 52.45 72.05 59.85 63.55 79.1 62.15 78.35 59.4 76.9 59.2 75.75 58.75 72.1 58.4 68.95 57.8 64.45 48.05 59.35 45.3 57.85 42.5 56.45 39.7 55.0 37.55 53.85 36.5 45.2 35.6 38.35 38.15 36.1 41.9 32.75 43.75 31.05 51.0 24.55 65.7 29.35 69.4 42.7 58.55 39.1 M45.25 37.0 L42.85 38.55 41.9 32.75 42.85 38.55 45.25 37.0 M49.9 87.25 L47.45 69.85 27.35 58.9 47.45 69.85 49.9 87.25 M42.85 38.55 L44.8 50.45 56.5 56.45 57.8 64.45 56.5 56.45 44.8 50.45 42.85 38.55" fill="#666666" fill-rule="evenodd" stroke="none"/>
    <path d="M84.65 42.7 L71.05 47.15 57.05 40.5 58.55 39.1 69.4 42.7 84.65 42.7" fill="url(#gradient5)" fill-rule="evenodd" stroke="none"/>
    <path d="M25.55 25.95 Q28.4 26.9 30.55 29.85 L30.65 30.05 Q33.9 34.55 33.9 40.9 33.9 47.25 30.65 51.75 29.1 53.95 27.1 55.1 L24.85 56.0 22.8 56.25 21.25 56.15 20.7 56.0 Q17.95 55.3 15.7 52.7 L14.95 51.75 14.7 51.35 Q13.8 50.0 13.15 48.5 L12.2 45.4 Q11.8 43.85 11.75 42.15 L11.7 40.9 11.8 38.65 Q12.0 36.75 12.55 35.05 L12.55 34.9 Q13.4 32.25 14.95 30.05 L15.05 29.85 16.5 28.15 Q19.25 25.55 22.8 25.55 L25.55 25.95 M25.8 31.25 Q23.7 29.2 21.0 29.2 17.5 29.2 15.05 32.6 L14.0 34.35 Q13.1 36.15 12.8 38.25 12.55 39.5 12.55 40.9 L12.6 41.8 Q12.65 43.55 13.1 45.05 13.5 46.65 14.3 48.05 L15.05 49.15 15.55 49.85 Q17.9 52.6 21.0 52.6 23.7 52.6 25.85 50.55 L27.0 49.15 Q29.45 45.75 29.45 40.9 29.45 36.05 27.0 32.6 L25.8 31.25" fill="url(#gradient6)" fill-rule="evenodd" stroke="none"/>
    <path d="M25.85 50.55 Q23.7 52.6 21.0 52.6 17.9 52.6 15.55 49.85 L15.05 49.15 14.3 48.05 Q13.5 46.65 13.1 45.05 12.65 43.55 12.6 41.8 L12.55 40.9 Q12.55 39.5 12.8 38.25 13.1 36.15 14.0 34.35 L15.05 32.6 Q17.5 29.2 21.0 29.2 23.7 29.2 25.8 31.25 L23.7 30.8 Q20.65 30.8 18.55 33.75 16.4 36.7 16.4 40.9 16.4 45.05 18.55 48.05 20.65 50.95 23.7 50.95 L25.85 50.55" fill="url(#gradient7)" fill-rule="evenodd" stroke="none"/>
    <path d="M25.8 31.25 L27.0 32.6 Q29.45 36.05 29.45 40.9 29.45 45.75 27.0 49.15 L25.85 50.55 23.7 50.95 Q20.65 50.95 18.55 48.05 16.4 45.05 16.4 40.9 16.4 36.7 18.55 33.75 20.65 30.8 23.7 30.8 L25.8 31.25" fill="url(#gradient8)" fill-rule="evenodd" stroke="none"/>
    <path d="M32.45 56.05 L34.15 51.55 36.0 46.45 36.5 45.2 37.55 53.85 39.7 55.0 40.15 58.3 39.7 55.0 42.5 56.45 45.3 57.85 45.65 61.0 45.3 57.85 48.05 59.35 48.3 61.0 48.05 59.35 57.8 64.45 58.4 68.95 58.75 72.1 57.4 72.1 58.75 72.1 59.2 75.75 57.4 75.75 59.2 75.75 59.4 76.9 62.15 78.35 63.55 79.1 67.85 79.1 68.75 79.1 70.45 79.1 77.0 79.1 78.75 79.1 79.45 79.1 79.4 80.5 83.2 83.0 62.15 83.0 59.75 81.75 57.4 80.5 57.25 79.15 56.35 72.1 56.0 68.95 55.85 68.35 48.7 64.65 45.95 63.15 43.2 61.7 Q41.8 61.0 40.4 60.25 L37.6 58.75 34.85 57.35 32.45 56.05 M34.55 55.15 L34.15 51.55 34.55 55.15 M34.85 57.35 L34.6 55.45 34.85 57.35 M37.2 55.45 L37.6 58.75 37.2 55.45 M40.4 60.25 L40.2 58.6 40.4 60.25 M57.05 68.95 L56.0 68.95 57.05 68.95 M42.7 58.3 L42.5 56.45 42.7 58.3 M43.2 61.7 L42.8 58.6 43.2 61.7 M57.05 72.1 L56.35 72.1 57.05 72.1 M57.4 68.95 L58.4 68.95 57.4 68.95 M45.95 63.15 L45.7 61.35 45.95 63.15 M48.7 64.65 L48.3 61.35 48.7 64.65 M66.3 80.65 L65.2 81.75 59.75 81.75 65.2 81.75 66.3 80.65 M59.45 79.15 L57.25 79.15 59.45 79.15 M66.6 80.35 L67.85 79.1 66.6 80.35 M59.75 79.15 L61.3 79.15 62.15 78.35 61.3 79.15 59.75 79.15 M36.0 46.45 L37.15 55.15 36.0 46.45" fill="url(#gradient9)" fill-rule="evenodd" stroke="none"/>
    <path d="M99.4 29.35 L88.3 24.55 83.45 24.55 80.3 24.55 91.4 29.35 99.4 29.35 101.5 42.7 100.3 42.7 100.3 47.15 102.55 49.5 103.0 52.45 103.0 59.85 91.0 79.1 86.2 79.1 84.45 79.1 81.8 79.1 81.85 80.5 87.7 84.35 82.45 92.65 57.55 92.65 49.9 87.25 35.3 76.9 35.0 74.5 33.7 73.65 28.0 89.95 27.1 89.95 26.15 89.3 27.7 69.65 25.4 68.0 25.25 65.75 24.6 65.3 1.9 89.95 0.8 89.95 0.0 89.3 15.05 64.25 13.15 62.8 8.7 62.15 8.4 60.7 10.5 59.9 7.75 57.5 9.8 56.65 7.1 54.35 9.1 53.5 6.4 51.1 8.45 50.3 5.75 47.9 7.8 47.15 5.1 44.75 7.15 43.95 4.4 41.55 6.5 40.7 3.7 38.3 3.2 35.75 6.3 33.65 5.75 31.45 5.3 29.3 17.4 14.1 23.55 13.25 23.6 13.25 29.6 13.25 35.7 18.05 44.25 24.75 47.45 23.0 47.75 22.9 55.2 22.9 58.3 24.55 63.5 24.55 75.35 24.55 78.6 23.2 80.65 22.35 83.45 24.55 M84.65 42.7 L90.5 42.7 92.3 35.5 91.4 29.35 78.55 29.35 80.2 35.5 84.65 42.7 71.05 47.15 57.05 40.5 58.55 39.1 47.7 35.45 45.25 37.0 71.25 49.5 84.8 45.2 93.5 45.2 102.55 49.5 M100.3 47.15 L90.5 42.7 100.3 42.7 M86.2 79.1 L90.0 73.65 88.3 73.65 84.45 79.1 M103.0 52.45 L98.4 50.85 83.65 50.85 72.05 52.45 72.05 59.85 82.75 59.85 90.2 56.0 96.35 59.85 103.0 59.85 M82.75 59.85 L81.55 62.25 94.85 62.25 96.35 59.85 M87.7 84.35 L82.5 84.35 79.5 88.7 77.75 88.7 80.8 84.35 75.45 84.35 72.75 88.7 71.0 88.7 73.75 84.35 68.15 84.35 66.25 88.7 64.5 88.7 66.4 84.35 61.25 84.35 57.55 92.65 M75.35 24.55 L80.3 24.55 78.6 23.2 M51.0 24.55 L58.3 24.55 M51.0 24.55 L43.75 31.05 41.9 32.75 42.85 38.55 45.25 37.0 M44.25 24.75 L41.0 26.45 40.4 26.45 35.3 26.45 37.45 28.45 M65.7 29.35 L78.55 29.35 63.5 24.55 M65.7 29.35 L69.4 42.7 84.65 42.7 M51.0 24.55 L65.7 29.35 M58.55 39.1 L69.4 42.7 M23.6 13.25 L29.75 18.1 35.7 18.05 M8.65 29.2 L21.0 19.25 29.75 18.1 40.4 26.45 M35.3 26.45 L33.2 24.5 29.4 24.5 25.55 25.95 Q28.4 26.9 30.55 29.85 L32.45 29.85 35.0 32.6 M13.6 29.9 L10.45 30.95 6.3 33.65 M15.05 29.85 L16.5 28.15 Q19.25 25.55 22.8 25.55 L25.55 25.95 M12.55 34.9 Q13.4 32.25 14.95 30.05 L15.05 29.85 M25.85 50.55 Q23.7 52.6 21.0 52.6 17.9 52.6 15.55 49.85 L15.05 49.15 14.3 48.05 Q13.5 46.65 13.1 45.05 12.65 43.55 12.6 41.8 L12.55 40.9 Q12.55 39.5 12.8 38.25 13.1 36.15 14.0 34.35 L15.05 32.6 Q17.5 29.2 21.0 29.2 23.7 29.2 25.8 31.25 L27.0 32.6 Q29.45 36.05 29.45 40.9 29.45 45.75 27.0 49.15 L25.85 50.55 23.7 50.95 Q20.65 50.95 18.55 48.05 16.4 45.05 16.4 40.9 16.4 36.7 18.55 33.75 20.65 30.8 23.7 30.8 L25.8 31.25 M11.8 38.65 Q12.0 36.75 12.55 35.05 L12.55 34.9 3.7 38.3 M5.75 31.45 L8.3 29.5 M11.75 42.15 L11.7 40.9 11.8 38.65 6.5 40.7 M13.15 48.5 L12.2 45.4 7.8 47.15 M12.2 45.4 Q11.8 43.85 11.75 42.15 L7.15 43.95 M38.15 36.1 L35.4 33.05 M37.8 28.75 L40.2 31.05 43.75 31.05 M30.55 29.85 L30.65 30.05 Q33.9 34.55 33.9 40.9 33.9 47.25 30.65 51.75 29.1 53.95 27.1 55.1 L24.85 56.0 22.8 56.25 21.25 56.15 20.3 59.95 17.15 61.15 23.05 61.15 24.9 59.95 M32.45 56.05 L34.15 51.55 36.0 46.45 36.5 45.2 35.6 38.35 38.15 36.1 41.9 32.75 M39.7 55.0 L37.55 53.85 36.5 45.2 M34.15 51.55 L34.55 55.15 M55.85 68.35 L48.7 64.65 45.95 63.15 43.2 61.7 Q41.8 61.0 40.4 60.25 L37.6 58.75 34.85 57.35 32.45 56.05 31.8 55.75 28.4 55.75 52.45 68.35 55.85 68.35 56.0 68.95 57.05 68.95 M40.2 58.6 L40.4 60.25 M37.6 58.75 L37.2 55.45 M34.6 55.45 L34.85 57.35 M39.7 55.0 L40.15 58.3 M21.25 56.15 L20.7 56.0 Q17.95 55.3 15.7 52.7 L15.8 54.4 15.95 57.75 10.5 59.9 M28.4 55.75 L27.1 56.75 27.3 58.45 27.35 58.9 47.45 69.85 49.9 87.25 M25.25 59.75 L27.3 58.45 M27.8 62.2 L27.9 62.9 34.1 67.3 34.7 72.1 35.0 74.5 M24.6 65.3 L23.05 64.25 19.0 64.25 0.8 89.95 M23.05 64.25 L24.9 64.25 27.8 62.2 27.35 58.9 M27.1 89.95 L30.3 71.3 27.7 69.65 M29.4 68.5 L25.25 65.75 M34.7 72.1 L30.05 68.95 M33.7 73.65 L30.3 71.3 M15.7 52.7 L14.95 51.75 14.7 51.35 9.1 53.5 M15.05 64.25 L19.0 64.25 M13.15 62.8 L17.15 61.15 M9.8 56.65 L15.8 54.4 M71.25 49.5 L72.05 52.45 M68.75 79.1 L71.15 73.65 72.85 73.65 70.45 79.1 77.0 79.1 80.45 73.65 82.15 73.65 78.75 79.1 79.45 79.1 81.8 79.1 M42.8 58.6 L43.2 61.7 M42.5 56.45 L42.7 58.3 M45.3 57.85 L42.5 56.45 39.7 55.0 M48.05 59.35 L48.3 61.0 M45.3 57.85 L45.65 61.0 M48.05 59.35 L45.3 57.85 M56.35 72.1 L57.05 72.1 M57.4 80.5 L57.25 79.15 56.35 72.1 56.0 68.95 M57.4 72.1 L58.75 72.1 58.4 68.95 57.4 68.95 M57.8 64.45 L58.4 68.95 M48.3 61.35 L48.7 64.65 M45.7 61.35 L45.95 63.15 M48.05 59.35 L57.8 64.45 56.5 56.45 44.8 50.45 42.85 38.55 M54.0 80.5 L57.4 80.5 59.75 81.75 65.2 81.75 66.3 80.65 M52.45 68.35 L53.95 80.5 54.0 80.5 61.25 84.35 M57.25 79.15 L59.45 79.15 M57.4 75.75 L59.2 75.75 58.75 72.1 M62.15 78.35 L59.4 76.9 59.2 75.75 M78.75 79.1 L77.0 79.1 M75.45 84.35 L73.75 84.35 M79.4 80.5 L79.45 79.1 M70.45 79.1 L68.75 79.1 67.85 79.1 66.6 80.35 M63.55 79.1 L62.15 78.35 61.3 79.15 59.75 79.15 M68.15 84.35 L66.4 84.35 M67.85 79.1 L63.55 79.1 72.05 59.85 M79.4 80.5 L83.2 83.0 62.15 83.0 59.75 81.75 M37.15 55.15 L36.0 46.45 M14.7 51.35 Q13.8 50.0 13.15 48.5 L8.45 50.3 M82.5 84.35 L80.8 84.35 M79.4 80.5 L81.85 80.5" fill="none" stroke="#000000" stroke-width="0.7" stroke-opacity="0.4"/>
  </g>
  <defs>
    <radialGradient cx="0" cy="0" gradientTransform="matrix(0.0226, -0.0085, 0.0085, 0.0226, 67.85, 7.65)" gradientUnits="userSpaceOnUse" id="gradient0" r="819.2" spreadMethod="pad">
      <stop offset="0.0" stop-color="#cccccc"/>
      <stop offset="1.0" stop-color="#333333"/>
    </radialGradient>
    <linearGradient gradientTransform="matrix(0.0051, 0.0137, -0.0283, 0.0106, 51.85, 20.45)" gradientUnits="userSpaceOnUse" id="gradient1" spreadMethod="pad" x1="-819.2" x2="819.2">
      <stop offset="0.0" stop-color="#666666"/>
      <stop offset="0.16470588235294117" stop-color="#cccccc"/>
      <stop offset="1.0" stop-color="#333333"/>
    </linearGradient>
    <linearGradient gradientTransform="matrix(0.0051, 0.0137, -0.0283, 0.0106, 51.85, 20.45)" gradientUnits="userSpaceOnUse" id="gradient2" spreadMethod="pad" x1="-819.2" x2="819.2">
      <stop offset="0.0" stop-color="#666666"/>
      <stop offset="0.16470588235294117" stop-color="#7a7a7a"/>
      <stop offset="1.0" stop-color="#333333"/>
    </linearGradient>
    <radialGradient cx="0" cy="0" gradientTransform="matrix(0.0088, 0.0, 0.0, 0.0088, 97.6, 43.8)" gradientUnits="userSpaceOnUse" id="gradient3" r="819.2" spreadMethod="pad">
      <stop offset="0.0" stop-color="#ffc800"/>
      <stop offset="0.47843137254901963" stop-color="#ff9400"/>
      <stop offset="1.0" stop-color="#ff6e00"/>
    </radialGradient>
    <radialGradient cx="0" cy="0" gradientTransform="matrix(0.0143, 0.0, 0.0, 0.0143, 84.6, 60.2)" gradientUnits="userSpaceOnUse" id="gradient4" r="819.2" spreadMethod="pad">
      <stop offset="0.0" stop-color="#ff9400"/>
      <stop offset="1.0" stop-color="#a04500"/>
    </radialGradient>
    <radialGradient cx="0" cy="0" gradientTransform="matrix(0.0189, 0.0, 0.0, 0.0189, 72.2, 43.6)" gradientUnits="userSpaceOnUse" id="gradient5" r="819.2" spreadMethod="pad">
      <stop offset="0.0" stop-color="#ffc800"/>
      <stop offset="0.47843137254901963" stop-color="#ff9400"/>
      <stop offset="1.0" stop-color="#ff6e00"/>
    </radialGradient>
    <radialGradient cx="0" cy="0" gradientTransform="matrix(0.0332, 0.0, 0.0, 0.0332, 14.9, 30.85)" gradientUnits="userSpaceOnUse" id="gradient6" r="819.2" spreadMethod="pad">
      <stop offset="0.0" stop-color="#b2b2b2"/>
      <stop offset="1.0" stop-color="#333333"/>
    </radialGradient>
    <radialGradient cx="0" cy="0" gradientTransform="matrix(0.0274, 0.0, 0.0, 0.0274, 23.5, 51.2)" gradientUnits="userSpaceOnUse" id="gradient7" r="819.2" spreadMethod="pad">
      <stop offset="0.0" stop-color="#b2b2b2"/>
      <stop offset="1.0" stop-color="#333333"/>
    </radialGradient>
    <radialGradient cx="0" cy="0" gradientTransform="matrix(0.0156, 0.0, 0.0, 0.0156, 27.65, 39.5)" gradientUnits="userSpaceOnUse" id="gradient8" r="819.2" spreadMethod="pad">
      <stop offset="0.0" stop-color="#ffc800"/>
      <stop offset="0.47843137254901963" stop-color="#ff9400"/>
      <stop offset="1.0" stop-color="#ff6e00"/>
    </radialGradient>
    <radialGradient cx="0" cy="0" gradientTransform="matrix(0.0427, 0.0, 0.0, 0.0427, 54.0, 63.8)" gradientUnits="userSpaceOnUse" id="gradient9" r="819.2" spreadMethod="pad">
      <stop offset="0.0" stop-color="#ffc800"/>
      <stop offset="0.47843137254901963" stop-color="#ff9400"/>
      <stop offset="1.0" stop-color="#ff6e00"/>
    </radialGradient>
  </defs>
</svg>
