<?xml version="1.0" encoding="UTF-8" standalone="no"?>
<svg xmlns:xlink="http://www.w3.org/1999/xlink" height="231.8px" width="245.3px" xmlns="http://www.w3.org/2000/svg">
  <g transform="matrix(1.0, 0.0, 0.0, 1.0, 0.05, 0.05)">
    <path d="M109.85 214.1 L105.35 214.1 101.9 211.1 94.8 211.1 87.7 204.9 96.75 204.9 97.8 205.8 96.75 204.9 93.75 191.35 95.75 187.45 98.5 188.1 95.25 194.4 97.8 205.8 98.25 207.95 107.3 207.95 104.3 194.4 106.75 189.55 109.8 189.55 105.8 197.4 108.35 208.85 108.8 210.95 117.85 210.95 114.85 197.4 118.85 189.55 119.0 189.55 119.8 193.1 120.05 193.15 116.35 200.4 118.85 211.85 117.85 210.95 118.85 211.85 119.35 213.95 128.4 213.95 125.35 200.4 128.15 195.05 130.85 195.7 126.85 203.4 129.4 214.85 128.4 213.95 129.4 214.85 129.9 216.95 138.9 216.95 146.0 223.15 136.95 223.15 133.5 220.15 126.4 220.15 123.0 217.1 115.9 217.1 112.45 214.1 109.85 214.1 M56.65 118.4 L54.75 117.3 52.75 116.1 47.35 112.85 40.0 108.45 32.6 104.05 30.4 100.15 27.05 94.15 21.95 85.1 27.2 85.75 32.5 86.45 37.75 87.1 43.05 87.8 48.3 88.45 53.6 89.1 53.55 89.2 61.8 103.8 53.55 89.2 53.6 89.1 58.85 89.8 58.85 89.85 64.4 99.7 58.85 89.85 58.85 89.8 64.1 90.45 69.35 91.15 73.95 91.7 71.05 94.15 67.7 96.9 64.4 99.7 61.75 101.9 61.8 103.8 62.25 113.25 62.65 122.0 62.1 121.7 43.05 87.8 62.1 121.7 56.65 118.4 M234.1 110.4 L232.75 110.4 231.3 111.65 231.5 107.9 231.7 106.95 234.1 110.4 M230.75 119.2 L230.8 119.1 232.75 120.75 237.2 120.75 236.95 133.0 236.7 133.0 230.85 133.0 229.85 133.9 230.05 130.5 230.4 124.85 230.75 119.2 M207.05 107.9 L206.9 110.4 206.85 110.4 191.8 107.4 188.85 104.25 176.45 104.25 170.2 104.25 179.95 95.4 207.05 107.9 M201.5 120.75 L206.85 120.75 206.2 120.9 191.8 123.75 206.2 120.9 205.95 124.85 205.55 130.5 205.4 133.0 204.95 133.0 189.9 130.0 187.0 126.85 174.6 126.85 158.95 126.85 158.9 126.6 176.45 126.6 188.85 126.6 191.8 123.75 180.95 123.75 201.5 120.75 M199.6 143.35 L204.95 143.35 204.75 143.4 189.9 146.35 204.75 143.4 204.5 147.4 204.1 153.05 203.95 155.6 203.1 155.6 188.05 152.55 185.1 149.45 172.7 149.45 160.0 149.45 160.0 149.15 174.6 149.15 187.0 149.15 189.9 146.35 179.1 146.35 199.6 143.35 M228.95 147.4 L229.3 142.0 230.85 143.35 236.7 143.35 236.4 155.6 234.8 155.6 228.95 155.6 228.4 156.05 228.6 153.05 228.95 147.4 M172.7 171.75 L185.1 171.75 188.05 168.95 177.2 168.95 197.7 165.95 203.1 165.95 203.3 165.95 203.05 170.0 209.45 170.0 206.65 174.3 201.8 178.3 201.75 178.3 185.0 178.25 176.55 178.25 169.0 171.75 172.7 171.75 M232.45 171.05 L231.5 169.65 227.55 169.65 227.8 164.95 228.95 165.95 234.8 165.95 235.5 165.95 232.45 171.05 M224.65 170.0 L221.9 174.3 218.1 177.4 217.95 172.05 216.5 170.0 224.65 170.0 M203.1 165.95 L188.05 168.95 203.1 165.95 M48.3 88.45 L62.25 113.25 48.3 88.45 M71.05 94.15 L69.35 91.15 71.05 94.15 M67.7 96.9 L64.1 90.55 64.1 90.45 64.1 90.55 67.7 96.9 M47.35 112.85 L32.5 86.45 47.35 112.85 M40.0 108.45 L27.2 85.75 40.0 108.45 M37.75 87.1 L54.75 117.3 37.75 87.1 M133.5 220.15 L129.9 216.95 133.5 220.15 M108.35 208.85 L107.3 207.95 108.35 208.85 M112.45 214.1 L108.8 210.95 112.45 214.1 M101.9 211.1 L98.25 207.95 101.9 211.1 M119.35 213.95 L123.0 217.1 119.35 213.95" fill="#333333" fill-rule="evenodd" stroke="none"/>
    <path d="M184.0 91.7 L205.75 100.45 207.05 107.9 179.95 95.4 184.0 91.7" fill="#990000" fill-rule="evenodd" stroke="none"/>
    <path d="M205.75 100.45 L209.3 101.85 232.65 101.85 231.7 106.95 231.5 107.9 207.05 107.9 205.75 100.45" fill="url(#gradient0)" fill-rule="evenodd" stroke="none"/>
    <path d="M110.0 83.65 L116.35 84.25 91.6 105.45 93.85 156.15 115.3 172.9 117.65 183.55 110.1 183.55 106.25 166.85 84.7 150.4 82.75 106.45 110.0 83.65" fill="url(#gradient1)" fill-rule="evenodd" stroke="none"/>
    <path d="M140.0 86.35 L146.45 86.95 121.75 109.0 122.0 115.1 122.3 121.15 124.05 161.65 145.4 179.05 147.9 190.6 140.2 190.6 136.35 173.0 114.9 155.85 112.9 110.0 140.0 86.35 M122.0 121.1 L122.3 121.15 122.0 121.1" fill="url(#gradient2)" fill-rule="evenodd" stroke="none"/>
    <path d="M178.8 43.35 L164.95 43.35 157.85 10.5 166.15 10.5 178.8 43.35 M152.6 43.35 L151.1 43.35 173.35 59.2 206.0 82.5 209.3 101.85 205.75 100.45 184.0 91.7 176.55 90.3 170.4 89.1 161.5 88.35 146.45 86.95 140.0 86.35 131.4 85.6 116.35 84.25 110.0 83.65 101.25 82.9 86.2 81.5 82.45 81.2 81.2 81.05 84.25 69.3 161.95 71.65 173.35 59.2 161.95 71.65 84.25 69.3 81.2 81.05 77.15 80.7 75.3 80.55 71.85 80.2 69.45 80.0 66.55 79.75 63.55 79.45 61.25 79.25 57.65 78.95 55.95 78.75 51.75 78.4 50.6 78.3 45.9 77.85 45.3 77.8 40.0 77.3 34.7 76.85 34.1 76.8 29.35 76.35 28.2 76.25 24.05 75.85 22.35 75.7 16.45 75.15 10.55 74.65 4.75 74.1 6.7 66.55 10.8 65.6 13.05 65.05 16.05 64.35 19.45 63.5 21.6 63.05 25.9 62.0 27.0 61.75 32.3 60.45 32.4 60.45 38.0 59.15 38.75 58.95 43.25 57.9 45.15 57.45 40.0 77.3 45.15 57.45 48.95 56.5 51.55 55.9 54.05 55.3 58.0 54.4 59.95 53.9 64.4 52.85 68.3 51.95 70.8 51.35 75.6 50.2 73.55 40.65 81.85 40.65 84.7 48.05 89.4 46.9 90.05 46.75 97.5 45.0 94.6 31.6 102.95 31.6 107.45 43.35 110.45 43.35 120.2 43.35 115.7 22.55 124.0 22.55 131.55 42.1 131.55 43.35 142.6 43.35 136.75 16.55 145.1 16.55 152.6 36.1 152.6 43.35 M121.75 109.0 L136.9 110.8 152.0 112.6 153.9 155.0 154.15 161.05 154.45 167.1 139.25 164.35 124.05 161.65 122.3 121.15 137.45 122.95 138.75 152.25 124.05 149.6 138.75 152.25 137.45 122.95 122.3 121.15 122.0 115.1 121.75 109.0 M245.2 118.75 L241.85 120.75 241.6 120.75 238.55 120.75 238.1 118.75 245.2 118.75 M243.35 141.3 L241.05 142.7 240.0 143.35 236.7 143.35 236.2 141.3 228.5 141.3 228.5 136.1 228.5 135.05 236.2 135.05 236.2 141.3 243.35 141.3 M241.45 163.9 L240.5 164.45 238.1 165.95 235.5 165.95 234.8 165.95 234.35 163.9 226.6 163.9 226.6 158.7 226.6 157.6 234.35 157.6 234.35 163.9 241.45 163.9 M233.45 182.75 L229.15 193.1 220.95 193.1 226.9 182.75 225.3 181.85 226.6 172.05 226.9 182.75 233.45 182.75 M203.7 207.2 L195.4 224.05 188.0 224.05 183.35 231.7 155.65 231.7 159.4 223.05 163.0 224.05 168.85 204.55 164.95 203.65 149.9 200.15 149.15 196.6 147.9 190.6 145.4 179.05 160.45 182.1 164.95 203.65 160.45 182.1 175.5 185.2 180.05 207.2 168.85 204.55 180.05 207.2 203.7 207.2 M84.7 191.35 L89.0 183.05 86.1 170.75 85.15 166.8 100.2 169.85 104.75 189.55 98.5 188.1 104.75 189.55 106.75 189.55 104.3 194.4 95.25 194.4 98.5 188.1 95.75 187.45 89.7 186.05 89.0 183.05 89.7 186.05 95.75 187.45 93.75 191.35 84.7 191.35 M54.2 153.95 L56.4 150.6 67.9 153.75 77.9 161.3 54.2 153.95 M63.9 150.7 L63.8 147.95 63.5 141.35 63.25 136.35 63.5 141.35 36.15 132.85 38.35 129.5 63.25 136.35 63.15 134.0 62.8 125.65 62.65 122.0 62.8 125.65 18.05 111.8 20.3 108.45 56.65 118.4 62.1 121.7 62.65 122.0 62.25 113.25 61.8 103.8 61.75 101.9 76.45 103.65 78.65 153.4 63.9 150.7 M0.0 90.7 L2.2 87.35 27.05 94.15 30.4 100.15 0.0 90.7 M230.35 112.45 L238.1 112.45 238.1 118.75 230.35 118.75 230.35 113.55 230.35 112.45 M217.0 118.75 L216.25 119.2 213.65 120.75 207.8 120.75 208.35 118.75 199.75 118.75 199.75 112.45 177.85 110.4 180.95 107.4 201.5 110.4 199.75 112.45 208.35 112.45 208.35 118.75 217.0 118.75 M206.45 135.05 L206.45 141.3 215.1 141.3 214.35 141.75 211.75 143.35 205.9 143.35 206.45 141.3 197.9 141.3 197.9 135.05 206.45 135.05 M172.25 108.4 L165.65 108.4 170.2 104.25 176.45 104.25 172.25 108.4 M174.6 126.85 L170.35 130.95 159.1 130.95 158.95 126.85 174.6 126.85 M176.0 133.0 L179.1 130.0 199.6 133.0 197.9 135.05 176.0 133.0 M196.0 163.9 L196.0 157.6 174.1 155.6 177.2 152.55 197.7 155.6 196.0 157.6 204.6 157.6 204.6 163.9 196.0 163.9 M172.7 149.45 L168.45 153.55 160.25 153.55 160.0 149.45 172.7 149.45 M204.05 165.95 L204.6 163.9 213.2 163.9 212.5 164.35 209.85 165.95 204.05 165.95 M181.95 183.4 L181.85 182.8 176.55 178.25 185.0 178.25 181.95 183.4 M201.0 180.4 L201.75 178.3 201.0 180.4 186.7 185.6 189.15 181.85 201.75 178.3 201.8 178.3 206.65 174.3 206.65 175.7 206.65 174.3 209.45 170.0 209.65 169.65 206.65 175.7 201.0 180.4 M224.65 170.0 L224.9 169.65 221.85 175.7 221.9 174.3 221.85 175.7 218.15 178.85 218.1 177.4 221.9 174.3 224.65 170.0 M210.05 181.85 L211.35 172.05 211.65 182.75 218.25 182.75 217.3 185.05 213.9 193.1 205.7 193.1 211.65 182.75 210.05 181.85 M151.1 43.35 L142.6 43.35 151.1 43.35 M107.45 43.35 L104.45 43.35 97.5 45.0 104.45 43.35 107.45 43.35 M84.7 48.05 L83.65 48.3 77.25 49.8 75.6 50.2 77.25 49.8 83.65 48.3 84.7 48.05 M90.05 46.75 L84.25 69.3 90.05 46.75 M131.55 43.35 L120.2 43.35 131.55 43.35 M32.3 60.45 L28.2 76.25 32.3 60.45 M51.55 55.9 L45.9 77.85 51.55 55.9 M25.9 62.0 L22.35 75.7 25.9 62.0 M16.45 75.15 L19.45 63.5 16.45 75.15 M10.55 74.65 L13.05 65.05 10.55 74.65 M38.75 58.95 L34.1 76.8 38.75 58.95 M64.4 52.85 L57.65 78.95 64.4 52.85 M70.8 51.35 L63.55 79.45 70.8 51.35 M69.45 80.0 L77.25 49.8 69.45 80.0 M51.75 78.4 L58.0 54.4 51.75 78.4 M152.0 118.65 L122.0 115.1 152.0 118.65 M124.05 155.6 L154.15 161.05 124.05 155.6 M137.45 122.95 L152.0 124.65 137.45 122.95 M91.6 105.45 L106.6 107.25 108.9 158.9 93.85 156.15 91.6 105.45 M109.8 189.55 L118.85 189.55 114.85 197.4 105.8 197.4 109.8 189.55 M119.0 189.55 L117.65 183.55 115.3 172.9 130.35 176.0 134.85 196.6 139.4 196.6 135.9 203.4 126.85 203.4 130.85 195.7 128.15 195.05 125.35 200.4 116.35 200.4 120.05 193.15 119.8 193.1 119.0 189.55 M130.85 195.7 L134.85 196.6 130.85 195.7 M138.75 152.25 L153.9 155.0 138.75 152.25 M120.05 193.15 L128.15 195.05 120.05 193.15 M75.3 80.55 L83.65 48.3 75.3 80.55 M188.0 224.05 L163.0 224.05 188.0 224.05" fill="#666666" fill-rule="evenodd" stroke="none"/>
    <path d="M164.95 43.35 L152.6 43.35 152.6 36.1 152.6 13.25 143.8 1.15 146.6 0.0 157.85 10.5 164.95 43.35 M81.2 81.05 L82.45 81.2 86.2 81.5 81.5 85.45 74.8 91.0 73.95 91.7 69.35 91.15 71.85 80.2 69.35 91.15 64.1 90.45 66.55 79.75 64.1 90.45 58.85 89.8 53.6 89.1 48.3 88.45 50.6 78.3 48.3 88.45 43.05 87.8 37.75 87.1 32.5 86.45 27.2 85.75 29.35 76.35 27.2 85.75 21.95 85.1 24.05 75.85 28.2 76.25 29.35 76.35 34.1 76.8 34.7 76.85 32.5 86.45 34.7 76.85 40.0 77.3 37.75 87.1 40.0 77.3 45.3 77.8 45.9 77.85 50.6 78.3 51.75 78.4 55.95 78.75 53.6 89.1 55.95 78.75 57.65 78.95 61.25 79.25 63.55 79.45 66.55 79.75 69.45 80.0 71.85 80.2 75.3 80.55 77.15 80.7 74.8 91.0 77.15 80.7 81.2 81.05 M229.15 193.1 L229.0 193.2 223.9 197.15 220.1 200.15 207.95 200.15 220.95 193.1 218.7 191.5 213.15 193.7 206.35 199.0 204.85 200.15 192.75 200.15 205.7 193.1 203.45 191.5 188.8 197.3 186.7 185.6 201.0 180.4 203.45 191.5 201.0 180.4 206.65 175.7 209.65 169.65 209.45 170.0 203.05 170.0 203.3 165.95 203.1 165.95 197.7 165.95 196.0 163.9 174.1 165.95 174.1 155.6 196.0 157.6 196.0 163.9 204.6 163.9 204.05 165.95 203.3 165.95 204.05 165.95 209.85 165.95 212.5 164.35 213.2 163.9 213.2 158.7 213.2 157.6 209.85 155.6 204.05 155.6 203.95 155.6 204.1 153.05 204.5 147.4 204.75 143.4 204.95 143.35 199.6 143.35 197.9 141.3 176.0 143.35 176.0 133.0 197.9 135.05 197.9 141.3 206.45 141.3 205.9 143.35 211.75 143.35 214.35 141.75 215.1 141.3 215.1 136.1 215.1 135.05 211.75 133.0 205.9 133.0 205.4 133.0 205.55 130.5 205.95 124.85 206.2 120.9 206.85 120.75 201.5 120.75 199.75 118.75 208.35 118.75 207.8 120.75 213.65 120.75 216.25 119.2 217.0 118.75 217.0 113.55 230.35 113.55 217.0 113.55 217.0 112.45 213.65 110.4 207.8 110.4 206.9 110.4 207.05 107.9 231.5 107.9 231.3 111.65 230.35 112.45 230.35 113.55 230.35 118.75 230.8 119.1 230.35 118.75 238.1 118.75 238.55 120.75 237.2 120.75 232.75 120.75 230.8 119.1 230.75 119.2 216.25 119.2 230.75 119.2 230.4 124.85 205.95 124.85 230.4 124.85 230.05 130.5 229.85 133.9 228.5 135.05 228.5 136.1 228.5 141.3 229.0 141.75 214.35 141.75 229.0 141.75 228.5 141.3 236.2 141.3 236.7 143.35 230.85 143.35 229.3 142.0 228.95 147.4 204.5 147.4 228.95 147.4 228.6 153.05 228.4 156.05 226.6 157.6 226.6 158.7 226.6 163.9 227.1 164.35 212.5 164.35 227.1 164.35 226.6 163.9 234.35 163.9 234.8 165.95 228.95 165.95 227.8 164.95 227.55 169.65 224.9 169.65 226.6 172.05 225.3 181.85 221.85 175.7 225.3 181.85 226.9 182.75 220.95 193.1 229.15 193.1 M155.65 231.7 L112.7 218.0 109.85 214.1 112.45 214.1 115.9 217.1 123.0 217.1 126.4 220.15 133.5 220.15 136.95 223.15 146.0 223.15 159.4 223.05 147.65 219.85 145.7 196.6 149.15 196.6 149.9 200.15 164.95 203.65 168.85 204.55 163.0 224.05 159.4 223.05 155.65 231.7 M87.7 204.9 L84.7 191.35 93.75 191.35 96.75 204.9 87.7 204.9 M86.1 170.75 L55.95 158.4 54.2 153.95 77.9 161.3 67.9 153.75 63.9 150.7 78.65 153.4 100.2 169.85 85.15 166.8 86.1 170.75 M63.8 147.95 L37.9 137.3 36.15 132.85 63.5 141.35 63.8 147.95 M63.15 134.0 L19.8 116.25 18.05 111.8 62.8 125.65 63.15 134.0 M52.75 116.1 L1.75 95.15 0.0 90.7 30.4 100.15 32.6 104.05 40.0 108.45 47.35 112.85 52.75 116.1 M10.8 65.6 L7.15 59.75 8.8 57.65 16.05 64.35 13.05 65.05 10.8 65.6 M21.6 63.05 L17.7 56.75 19.35 54.65 27.0 61.75 25.9 62.0 21.6 63.05 M32.4 60.45 L28.25 53.75 29.9 51.65 38.0 59.15 32.4 60.45 M43.25 57.9 L38.8 50.7 40.45 48.6 48.95 56.5 45.15 57.45 43.25 57.9 M54.05 55.3 L49.3 47.7 51.0 45.6 59.95 53.9 58.0 54.4 54.05 55.3 M68.3 51.95 L68.3 43.35 59.45 31.3 62.25 30.1 73.55 40.65 75.6 50.2 70.8 51.35 68.3 51.95 M89.4 46.9 L89.4 34.3 80.55 22.25 83.35 21.05 94.6 31.6 97.5 45.0 90.05 46.75 89.4 46.9 M110.45 43.35 L110.45 25.3 101.65 13.2 104.45 12.05 115.7 22.55 120.2 43.35 110.45 43.35 M131.55 42.1 L131.55 19.25 122.7 7.2 125.5 6.0 136.75 16.55 142.6 43.35 131.55 43.35 131.55 42.1 M207.8 120.75 L206.85 120.75 207.8 120.75 M215.1 136.1 L228.5 136.1 215.1 136.1 M205.9 143.35 L204.95 143.35 205.9 143.35 M229.0 141.75 L229.3 142.0 229.0 141.75 M205.55 130.5 L230.05 130.5 205.55 130.5 M177.85 110.4 L199.75 112.45 199.75 118.75 177.85 120.75 177.85 110.4 M165.65 108.4 L172.25 108.4 172.25 122.5 158.7 122.5 158.35 115.0 165.65 108.4 M170.35 130.95 L170.35 145.05 159.8 145.05 159.1 130.95 170.35 130.95 M168.45 153.55 L168.45 167.65 164.2 167.65 160.75 164.7 160.25 153.55 168.45 153.55 M227.1 164.35 L227.8 164.95 227.1 164.35 M213.2 158.7 L226.6 158.7 213.2 158.7 M221.85 175.7 L224.9 169.65 224.65 170.0 216.5 170.0 216.25 169.65 209.65 169.65 211.35 172.05 210.05 181.85 206.65 175.7 210.05 181.85 211.65 182.75 205.7 193.1 213.9 193.1 217.3 185.05 218.25 182.75 218.15 178.85 221.85 175.7 M203.45 191.5 L210.05 181.85 203.45 191.5 M213.9 193.1 L213.15 193.7 213.9 193.1 M217.3 185.05 L218.7 191.5 217.3 185.05 M218.7 191.5 L225.3 181.85 218.7 191.5 M204.1 153.05 L228.6 153.05 204.1 153.05 M82.45 81.2 L81.5 85.45 82.45 81.2 M45.3 77.8 L43.05 87.8 45.3 77.8 M61.25 79.25 L58.85 89.8 61.25 79.25 M124.05 161.65 L139.25 164.35 154.45 167.1 175.5 185.2 160.45 182.1 145.4 179.05 124.05 161.65 M95.25 194.4 L104.3 194.4 107.3 207.95 98.25 207.95 97.8 205.8 95.25 194.4 M114.85 197.4 L117.85 210.95 108.8 210.95 108.35 208.85 105.8 197.4 114.85 197.4 M118.85 211.85 L116.35 200.4 125.35 200.4 128.4 213.95 119.35 213.95 118.85 211.85 M93.85 156.15 L108.9 158.9 130.35 176.0 115.3 172.9 93.85 156.15 M126.85 203.4 L135.9 203.4 138.9 216.95 129.9 216.95 129.4 214.85 126.85 203.4 M139.25 164.35 L160.45 182.1 139.25 164.35 M85.15 166.8 L77.9 161.3 85.15 166.8" fill="#4c4c4c" fill-rule="evenodd" stroke="none"/>
    <path d="M146.45 86.95 L161.5 88.35 170.4 89.1 176.55 90.3 152.0 112.6 136.9 110.8 121.75 109.0 146.45 86.95 M86.2 81.5 L101.25 82.9 76.45 103.65 61.75 101.9 64.4 99.7 67.7 96.9 71.05 94.15 73.95 91.7 74.8 91.0 81.5 85.45 86.2 81.5 M116.35 84.25 L131.4 85.6 106.6 107.25 91.6 105.45 116.35 84.25 M161.5 88.35 L136.9 110.8 161.5 88.35 M245.2 112.45 L245.2 118.75 238.1 118.75 238.1 112.45 230.35 112.45 231.3 111.65 232.75 110.4 234.1 110.4 238.55 110.4 238.1 112.45 245.2 112.45 M243.35 135.05 L243.35 141.3 236.2 141.3 236.2 135.05 228.5 135.05 229.85 133.9 230.85 133.0 236.7 133.0 236.2 135.05 243.35 135.05 M241.45 157.6 L241.45 163.9 234.35 163.9 234.35 157.6 226.6 157.6 228.4 156.05 228.95 155.6 234.8 155.6 234.35 157.6 241.45 157.6 M233.35 179.15 L233.45 182.75 226.9 182.75 226.6 172.05 233.2 172.05 233.35 179.15 M217.0 113.55 L217.0 118.75 208.35 118.75 208.35 112.45 217.0 112.45 217.0 113.55 M206.9 110.4 L207.8 110.4 208.35 112.45 199.75 112.45 201.5 110.4 206.85 110.4 206.9 110.4 M180.95 123.75 L191.8 123.75 188.85 126.6 176.45 126.6 172.25 122.5 172.25 108.4 176.45 104.25 188.85 104.25 191.8 107.4 180.95 107.4 177.85 110.4 177.85 120.75 180.95 123.75 M215.1 135.05 L215.1 136.1 215.1 141.3 206.45 141.3 206.45 135.05 215.1 135.05 M205.9 133.0 L206.45 135.05 197.9 135.05 199.6 133.0 204.95 133.0 205.4 133.0 205.9 133.0 M179.1 146.35 L189.9 146.35 187.0 149.15 174.6 149.15 170.35 145.05 170.35 130.95 174.6 126.85 187.0 126.85 189.9 130.0 179.1 130.0 176.0 133.0 176.0 143.35 179.1 146.35 M174.1 155.6 L174.1 165.95 177.2 168.95 188.05 168.95 185.1 171.75 172.7 171.75 168.45 167.65 168.45 153.55 172.7 149.45 185.1 149.45 188.05 152.55 177.2 152.55 174.1 155.6 M204.6 163.9 L204.6 157.6 196.0 157.6 197.7 155.6 203.1 155.6 203.95 155.6 204.05 155.6 204.6 157.6 213.2 157.6 213.2 158.7 213.2 163.9 204.6 163.9 M181.95 183.4 L185.0 178.25 201.75 178.3 189.15 181.85 186.7 185.6 188.8 197.3 192.75 200.15 204.85 200.15 206.35 199.0 207.95 200.15 220.1 200.15 223.9 197.15 223.4 201.75 185.75 201.75 181.95 183.4 M211.35 172.05 L217.95 172.05 218.1 177.4 218.15 178.85 218.25 182.75 211.65 182.75 211.35 172.05 M135.9 203.4 L139.4 196.6 145.7 196.6 147.65 219.85 159.4 223.05 146.0 223.15 138.9 216.95 135.9 203.4" fill="#7f7f7f" fill-rule="evenodd" stroke="none"/>
    <path d="M166.15 10.5 L157.85 10.5 146.6 0.0 150.2 0.0 166.15 10.5 M176.55 90.3 L184.0 91.7 179.95 95.4 170.2 104.25 165.65 108.4 158.35 115.0 158.7 122.5 158.9 126.6 158.95 126.85 159.1 130.95 159.8 145.05 160.0 149.15 160.0 149.45 160.25 153.55 160.75 164.7 164.2 167.65 169.0 171.75 176.55 178.25 181.85 182.8 181.95 183.4 185.75 201.75 223.4 201.75 223.9 197.15 229.0 193.2 227.45 207.2 203.7 207.2 180.05 207.2 175.5 185.2 154.45 167.1 154.15 161.05 153.9 155.0 154.45 155.1 153.9 155.0 152.0 112.6 176.55 90.3 M209.3 101.85 L206.0 82.5 240.6 82.5 236.75 101.85 234.1 101.85 240.15 110.4 241.85 110.4 245.2 112.45 238.1 112.45 238.55 110.4 234.1 110.4 231.7 106.95 232.65 101.85 209.3 101.85 M101.25 82.9 L110.0 83.65 82.75 106.45 84.7 150.4 106.25 166.85 110.1 183.55 117.65 183.55 119.0 189.55 118.85 189.55 109.8 189.55 106.75 189.55 104.75 189.55 100.2 169.85 78.65 153.4 76.45 103.65 101.25 82.9 M131.4 85.6 L140.0 86.35 112.9 110.0 114.9 155.85 136.35 173.0 140.2 190.6 147.9 190.6 149.15 196.6 145.7 196.6 139.4 196.6 134.85 196.6 130.35 176.0 108.9 158.9 106.6 107.25 131.4 85.6 M241.6 120.75 L241.25 133.8 243.35 135.05 236.2 135.05 236.7 133.0 236.95 133.0 237.2 120.75 238.55 120.75 241.6 120.75 M241.05 142.7 L240.7 157.15 241.45 157.6 234.35 157.6 234.8 155.6 236.4 155.6 238.1 155.6 240.7 157.15 238.1 155.6 236.4 155.6 236.7 143.35 240.0 143.35 241.05 142.7 M240.5 164.45 L240.45 167.1 240.45 167.2 233.35 179.15 233.2 172.05 226.6 172.05 224.9 169.65 227.55 169.65 231.5 169.65 232.45 171.05 233.2 172.05 232.45 171.05 235.5 165.95 238.1 165.95 240.5 164.45 M62.25 30.1 L65.9 30.1 81.85 40.65 73.55 40.65 62.25 30.1 M83.35 21.05 L86.95 21.05 102.95 31.6 94.6 31.6 83.35 21.05 M104.45 12.05 L108.05 12.05 124.0 22.55 115.7 22.55 104.45 12.05 M125.5 6.0 L129.15 6.0 145.1 16.55 136.75 16.55 125.5 6.0 M240.15 110.4 L238.55 110.4 240.15 110.4 M207.8 110.4 L213.65 110.4 217.0 112.45 208.35 112.45 207.8 110.4 M232.65 101.85 L234.1 101.85 232.65 101.85 M206.85 110.4 L201.5 110.4 180.95 107.4 191.8 107.4 206.85 110.4 M215.1 135.05 L206.45 135.05 205.9 133.0 211.75 133.0 215.1 135.05 M241.25 133.8 L240.0 133.0 236.95 133.0 240.0 133.0 241.25 133.8 M199.6 133.0 L179.1 130.0 189.9 130.0 204.95 133.0 199.6 133.0 M197.7 155.6 L177.2 152.55 188.05 152.55 203.1 155.6 197.7 155.6 M213.2 157.6 L204.6 157.6 204.05 155.6 209.85 155.6 213.2 157.6 M211.35 172.05 L209.65 169.65 216.25 169.65 216.5 170.0 217.95 172.05 211.35 172.05 M154.45 161.1 L154.15 161.05 154.45 161.1" fill="#999999" fill-rule="evenodd" stroke="none"/>
    <path d="M164.95 43.35 L178.8 43.35 214.35 43.35 224.9 59.1 173.45 59.1 173.35 59.2 173.45 59.1 224.9 59.1 240.6 82.5 206.0 82.5 173.35 59.2 151.1 43.35 152.6 43.35 164.95 43.35" fill="#b2b2b2" fill-rule="evenodd" stroke="none"/>
    <path d="M201.5 120.75 L180.95 123.75 177.85 120.75 199.75 118.75 201.5 120.75 M199.6 143.35 L179.1 146.35 176.0 143.35 197.9 141.3 199.6 143.35 M158.7 122.5 L172.25 122.5 176.45 126.6 158.9 126.6 158.7 122.5 M170.35 145.05 L174.6 149.15 160.0 149.15 159.8 145.05 170.35 145.05 M174.1 165.95 L196.0 163.9 197.7 165.95 177.2 168.95 174.1 165.95 M168.45 167.65 L172.7 171.75 169.0 171.75 164.2 167.65 168.45 167.65 M188.8 197.3 L203.45 191.5 205.7 193.1 192.75 200.15 188.8 197.3 M206.35 199.0 L213.15 193.7 218.7 191.5 220.95 193.1 207.95 200.15 206.35 199.0" fill="#3f3f3f" fill-rule="evenodd" stroke="none"/>
    <path d="M178.8 43.35 L164.95 43.35 152.6 43.35 151.1 43.35 173.35 59.2 173.45 59.1 224.9 59.1 214.35 43.35 178.8 43.35 166.15 10.5 157.85 10.5 164.95 43.35 M146.45 86.95 L161.5 88.35 170.4 89.1 176.55 90.3 184.0 91.7 205.75 100.45 209.3 101.85 206.0 82.5 173.35 59.2 161.95 71.65 84.25 69.3 81.2 81.05 82.45 81.2 86.2 81.5 101.25 82.9 110.0 83.65 116.35 84.25 131.4 85.6 140.0 86.35 146.45 86.95 121.75 109.0 136.9 110.8 161.5 88.35 M179.95 95.4 L184.0 91.7 M206.0 82.5 L240.6 82.5 224.9 59.1 M240.6 82.5 L236.75 101.85 234.1 101.85 240.15 110.4 241.85 110.4 245.2 112.45 245.2 118.75 241.85 120.75 241.6 120.75 241.25 133.8 243.35 135.05 243.35 141.3 241.05 142.7 240.7 157.15 241.45 157.6 241.45 163.9 240.5 164.45 240.45 167.1 240.5 167.1 240.45 167.2 233.35 179.15 233.45 182.75 229.15 193.1 229.0 193.2 227.45 207.2 203.7 207.2 195.4 224.05 188.0 224.05 183.35 231.7 155.65 231.7 112.7 218.0 109.85 214.1 105.35 214.1 101.9 211.1 94.8 211.1 87.7 204.9 84.7 191.35 89.0 183.05 86.1 170.75 55.95 158.4 54.2 153.95 56.4 150.6 67.9 153.75 63.9 150.7 63.8 147.95 37.9 137.3 36.15 132.85 38.35 129.5 63.25 136.35 63.15 134.0 19.8 116.25 18.05 111.8 20.3 108.45 56.65 118.4 54.75 117.3 52.75 116.1 1.75 95.15 0.0 90.7 2.2 87.35 27.05 94.15 21.95 85.1 24.05 75.85 22.35 75.7 16.45 75.15 10.55 74.65 4.75 74.1 6.7 66.55 10.8 65.6 7.15 59.75 8.8 57.65 16.05 64.35 19.45 63.5 21.6 63.05 17.7 56.75 19.35 54.65 27.0 61.75 32.3 60.45 32.4 60.45 28.25 53.75 29.9 51.65 38.0 59.15 38.75 58.95 43.25 57.9 38.8 50.7 40.45 48.6 48.95 56.5 51.55 55.9 54.05 55.3 49.3 47.7 51.0 45.6 59.95 53.9 64.4 52.85 68.3 51.95 68.3 43.35 59.45 31.3 62.25 30.1 65.9 30.1 81.85 40.65 84.7 48.05 89.4 46.9 89.4 34.3 80.55 22.25 83.35 21.05 86.95 21.05 102.95 31.6 107.45 43.35 110.45 43.35 110.45 25.3 101.65 13.2 104.45 12.05 108.05 12.05 124.0 22.55 131.55 42.1 131.55 19.25 122.7 7.2 125.5 6.0 129.15 6.0 145.1 16.55 152.6 36.1 152.6 13.25 143.8 1.15 146.6 0.0 150.2 0.0 166.15 10.5 M238.55 110.4 L240.15 110.4 M238.1 112.45 L238.55 110.4 234.1 110.4 232.75 110.4 231.3 111.65 230.35 112.45 238.1 112.45 245.2 112.45 M231.5 107.9 L231.7 106.95 232.65 101.85 209.3 101.85 M230.35 113.55 L230.35 112.45 M230.35 118.75 L230.35 113.55 217.0 113.55 217.0 118.75 216.25 119.2 230.75 119.2 230.8 119.1 230.35 118.75 238.1 118.75 238.1 112.45 M230.8 119.1 L232.75 120.75 237.2 120.75 238.55 120.75 238.1 118.75 245.2 118.75 M241.6 120.75 L238.55 120.75 M231.3 111.65 L231.5 107.9 207.05 107.9 206.9 110.4 207.8 110.4 213.65 110.4 217.0 112.45 217.0 113.55 M231.7 106.95 L234.1 110.4 M234.1 101.85 L232.65 101.85 M206.9 110.4 L206.85 110.4 201.5 110.4 199.75 112.45 208.35 112.45 207.8 110.4 M208.35 118.75 L208.35 112.45 217.0 112.45 M206.2 120.9 L206.85 120.75 201.5 120.75 180.95 123.75 191.8 123.75 206.2 120.9 205.95 124.85 230.4 124.85 230.75 119.2 M206.85 120.75 L207.8 120.75 208.35 118.75 199.75 118.75 201.5 120.75 M207.8 120.75 L213.65 120.75 216.25 119.2 M217.0 118.75 L208.35 118.75 M215.1 141.3 L215.1 136.1 215.1 135.05 206.45 135.05 206.45 141.3 215.1 141.3 214.35 141.75 229.0 141.75 228.5 141.3 228.5 136.1 215.1 136.1 M205.9 133.0 L206.45 135.05 197.9 135.05 197.9 141.3 206.45 141.3 205.9 143.35 211.75 143.35 214.35 141.75 M204.95 133.0 L205.4 133.0 205.55 130.5 205.95 124.85 M215.1 135.05 L211.75 133.0 205.9 133.0 205.4 133.0 M204.75 143.4 L204.95 143.35 199.6 143.35 179.1 146.35 189.9 146.35 204.75 143.4 204.5 147.4 228.95 147.4 229.3 142.0 229.0 141.75 M204.95 143.35 L205.9 143.35 M236.7 133.0 L236.2 135.05 243.35 135.05 M236.7 133.0 L236.95 133.0 237.2 120.75 M236.95 133.0 L240.0 133.0 241.25 133.8 M230.4 124.85 L230.05 130.5 229.85 133.9 230.85 133.0 236.7 133.0 M229.85 133.9 L228.5 135.05 236.2 135.05 236.2 141.3 243.35 141.3 M228.5 135.05 L228.5 136.1 M229.3 142.0 L230.85 143.35 236.7 143.35 236.2 141.3 228.5 141.3 M236.7 143.35 L240.0 143.35 241.05 142.7 M230.05 130.5 L205.55 130.5 M176.45 104.25 L188.85 104.25 191.8 107.4 206.85 110.4 M199.75 118.75 L199.75 112.45 177.85 110.4 177.85 120.75 199.75 118.75 M172.25 108.4 L165.65 108.4 158.35 115.0 158.7 122.5 172.25 122.5 172.25 108.4 176.45 104.25 170.2 104.25 165.65 108.4 M177.85 110.4 L180.95 107.4 191.8 107.4 M174.6 126.85 L170.35 130.95 170.35 145.05 174.6 149.15 187.0 149.15 189.9 146.35 M179.1 130.0 L176.0 133.0 197.9 135.05 199.6 133.0 179.1 130.0 189.9 130.0 187.0 126.85 174.6 126.85 158.95 126.85 159.1 130.95 170.35 130.95 M176.0 143.35 L179.1 146.35 M176.0 133.0 L176.0 143.35 197.9 141.3 199.6 143.35 M176.45 126.6 L188.85 126.6 191.8 123.75 M180.95 107.4 L201.5 110.4 M172.25 122.5 L176.45 126.6 158.9 126.6 158.95 126.85 M177.85 120.75 L180.95 123.75 M196.0 163.9 L196.0 157.6 174.1 155.6 174.1 165.95 196.0 163.9 204.6 163.9 204.6 157.6 196.0 157.6 197.7 155.6 177.2 152.55 174.1 155.6 M188.05 152.55 L185.1 149.45 172.7 149.45 168.45 153.55 168.45 167.65 172.7 171.75 185.1 171.75 188.05 168.95 177.2 168.95 174.1 165.95 M196.0 163.9 L197.7 165.95 203.1 165.95 203.3 165.95 204.05 165.95 204.6 163.9 213.2 163.9 213.2 158.7 213.2 157.6 204.6 157.6 204.05 155.6 203.95 155.6 203.1 155.6 197.7 155.6 M164.2 167.65 L168.45 167.65 M164.2 167.65 L169.0 171.75 172.7 171.75 M176.55 178.25 L181.85 182.8 181.95 183.4 185.0 178.25 176.55 178.25 169.0 171.75 M201.75 178.3 L201.0 180.4 206.65 175.7 206.65 174.3 201.8 178.3 201.75 178.3 185.0 178.25 M201.0 180.4 L186.7 185.6 188.8 197.3 203.45 191.5 201.0 180.4 M186.7 185.6 L189.15 181.85 201.75 178.3 M188.05 152.55 L177.2 152.55 M177.2 168.95 L197.7 165.95 M236.4 155.6 L234.8 155.6 234.35 157.6 241.45 157.6 M240.7 157.15 L238.1 155.6 236.4 155.6 236.7 143.35 M228.4 156.05 L228.95 155.6 234.8 155.6 M228.95 147.4 L228.6 153.05 228.4 156.05 226.6 157.6 234.35 157.6 234.35 163.9 241.45 163.9 M226.6 158.7 L226.6 157.6 M212.5 164.35 L227.1 164.35 226.6 163.9 226.6 158.7 213.2 158.7 M227.8 164.95 L227.1 164.35 M227.55 169.65 L224.9 169.65 226.6 172.05 233.2 172.05 232.45 171.05 231.5 169.65 227.55 169.65 227.8 164.95 228.95 165.95 234.8 165.95 234.35 163.9 226.6 163.9 M221.85 175.7 L224.9 169.65 224.65 170.0 221.9 174.3 221.85 175.7 225.3 181.85 226.6 172.05 226.9 182.75 233.45 182.75 M235.5 165.95 L238.1 165.95 240.5 164.45 M235.5 165.95 L234.8 165.95 M240.45 167.1 L240.45 167.2 M232.45 171.05 L235.5 165.95 M204.05 155.6 L209.85 155.6 213.2 157.6 M203.95 155.6 L204.1 153.05 204.5 147.4 M204.05 165.95 L209.85 165.95 212.5 164.35 213.2 163.9 M216.5 170.0 L216.25 169.65 209.65 169.65 211.35 172.05 217.95 172.05 216.5 170.0 224.65 170.0 M209.45 170.0 L209.65 169.65 206.65 175.7 210.05 181.85 211.35 172.05 211.65 182.75 218.25 182.75 218.15 178.85 218.1 177.4 217.95 172.05 M203.3 165.95 L203.05 170.0 209.45 170.0 206.65 174.3 M221.9 174.3 L218.1 177.4 M211.65 182.75 L205.7 193.1 213.9 193.1 217.3 185.05 218.25 182.75 M218.15 178.85 L221.85 175.7 M211.65 182.75 L210.05 181.85 203.45 191.5 205.7 193.1 192.75 200.15 204.85 200.15 206.35 199.0 213.15 193.7 213.9 193.1 M213.15 193.7 L218.7 191.5 217.3 185.05 M218.7 191.5 L220.95 193.1 226.9 182.75 225.3 181.85 218.7 191.5 M223.9 197.15 L229.0 193.2 M228.6 153.05 L204.1 153.05 M233.35 179.15 L233.2 172.05 M220.95 193.1 L229.15 193.1 M188.05 168.95 L203.1 165.95 M203.1 155.6 L188.05 152.55 M199.6 133.0 L204.95 133.0 189.9 130.0 M170.2 104.25 L179.95 95.4 207.05 107.9 M146.6 0.0 L157.85 10.5 M136.75 16.55 L125.5 6.0 M131.55 42.1 L131.55 43.35 142.6 43.35 136.75 16.55 145.1 16.55 M142.6 43.35 L151.1 43.35 M152.6 43.35 L152.6 36.1 M104.45 12.05 L115.7 22.55 124.0 22.55 M89.4 46.9 L90.05 46.75 97.5 45.0 94.6 31.6 83.35 21.05 M75.6 50.2 L77.25 49.8 83.65 48.3 84.7 48.05 M97.5 45.0 L104.45 43.35 107.45 43.35 M110.45 43.35 L120.2 43.35 115.7 22.55 M94.6 31.6 L102.95 31.6 M81.5 85.45 L82.45 81.2 M86.2 81.5 L81.5 85.45 74.8 91.0 73.95 91.7 71.05 94.15 67.7 96.9 64.4 99.7 61.75 101.9 76.45 103.65 101.25 82.9 M120.2 43.35 L131.55 43.35 M84.25 69.3 L90.05 46.75 M73.55 40.65 L62.25 30.1 M38.0 59.15 L32.4 60.45 M21.6 63.05 L25.9 62.0 27.0 61.75 M10.8 65.6 L13.05 65.05 16.05 64.35 M34.7 76.85 L34.1 76.8 29.35 76.35 27.2 85.75 32.5 86.45 34.7 76.85 40.0 77.3 45.15 57.45 43.25 57.9 M24.05 75.85 L28.2 76.25 32.3 60.45 M28.2 76.25 L29.35 76.35 M27.2 85.75 L21.95 85.1 M37.75 87.1 L40.0 77.3 45.3 77.8 45.9 77.85 51.55 55.9 M32.5 86.45 L37.75 87.1 43.05 87.8 45.3 77.8 M34.1 76.8 L38.75 58.95 M13.05 65.05 L10.55 74.65 M19.45 63.5 L16.45 75.15 M22.35 75.7 L25.9 62.0 M68.3 51.95 L70.8 51.35 75.6 50.2 73.55 40.65 81.85 40.65 M54.05 55.3 L58.0 54.4 59.95 53.9 M45.15 57.45 L48.95 56.5 M55.95 78.75 L51.75 78.4 50.6 78.3 48.3 88.45 53.6 89.1 55.95 78.75 57.65 78.95 64.4 52.85 M50.6 78.3 L45.9 77.85 M48.3 88.45 L43.05 87.8 62.1 121.7 62.65 122.0 62.25 113.25 48.3 88.45 M53.6 89.1 L53.55 89.2 61.8 103.8 61.75 101.9 M64.4 99.7 L58.85 89.85 58.85 89.8 53.6 89.1 M77.15 80.7 L75.3 80.55 71.85 80.2 69.35 91.15 73.95 91.7 M71.85 80.2 L69.45 80.0 66.55 79.75 64.1 90.45 69.35 91.15 71.05 94.15 M63.55 79.45 L66.55 79.75 M57.65 78.95 L61.25 79.25 63.55 79.45 70.8 51.35 M64.1 90.45 L64.1 90.55 67.7 96.9 M77.15 80.7 L74.8 91.0 M58.0 54.4 L51.75 78.4 M77.25 49.8 L69.45 80.0 M58.85 89.8 L61.25 79.25 M58.85 89.8 L64.1 90.45 M61.8 103.8 L62.25 113.25 M47.35 112.85 L52.75 116.1 M62.8 125.65 L63.15 134.0 M63.25 136.35 L63.5 141.35 63.8 147.95 M56.65 118.4 L62.1 121.7 M62.65 122.0 L62.8 125.65 18.05 111.8 M47.35 112.85 L40.0 108.45 32.6 104.05 30.4 100.15 0.0 90.7 M54.2 153.95 L77.9 161.3 67.9 153.75 M63.9 150.7 L78.65 153.4 76.45 103.65 M36.15 132.85 L63.5 141.35 M121.75 109.0 L122.0 115.1 152.0 118.65 M124.05 149.6 L138.75 152.25 137.45 122.95 122.3 121.15 124.05 161.65 139.25 164.35 154.45 167.1 154.15 161.05 124.05 155.6 M122.3 121.15 L122.0 121.1 M122.0 115.1 L122.3 121.15 M159.1 130.95 L159.8 145.05 170.35 145.05 M152.0 112.6 L136.9 110.8 M158.7 122.5 L158.9 126.6 M152.0 124.65 L137.45 122.95 M91.6 105.45 L106.6 107.25 131.4 85.6 M100.2 169.85 L85.15 166.8 86.1 170.75 M95.75 187.45 L98.5 188.1 104.75 189.55 100.2 169.85 78.65 153.4 M95.75 187.45 L89.7 186.05 89.0 183.05 M84.7 191.35 L93.75 191.35 95.75 187.45 M98.5 188.1 L95.25 194.4 104.3 194.4 106.75 189.55 104.75 189.55 M106.75 189.55 L109.8 189.55 118.85 189.55 119.0 189.55 117.65 183.55 110.1 183.55 106.25 166.85 84.7 150.4 82.75 106.45 110.0 83.65 M105.8 197.4 L109.8 189.55 M118.85 189.55 L114.85 197.4 117.85 210.95 118.85 211.85 116.35 200.4 120.05 193.15 119.8 193.1 119.0 189.55 M114.85 197.4 L105.8 197.4 108.35 208.85 108.8 210.95 117.85 210.95 M93.85 156.15 L108.9 158.9 106.6 107.25 M115.3 172.9 L117.65 183.55 M93.85 156.15 L115.3 172.9 130.35 176.0 108.9 158.9 M160.0 149.15 L160.0 149.45 172.7 149.45 M160.0 149.45 L160.25 153.55 168.45 153.55 M160.25 153.55 L160.75 164.7 164.2 167.65 M153.9 155.0 L154.45 155.1 M153.9 155.0 L154.15 161.05 154.45 161.1 M134.85 196.6 L130.85 195.7 126.85 203.4 135.9 203.4 139.4 196.6 134.85 196.6 130.35 176.0 M130.85 195.7 L128.15 195.05 125.35 200.4 128.4 213.95 129.4 214.85 126.85 203.4 M160.45 182.1 L145.4 179.05 147.9 190.6 149.15 196.6 149.9 200.15 164.95 203.65 160.45 182.1 139.25 164.35 M149.15 196.6 L145.7 196.6 147.65 219.85 159.4 223.05 163.0 224.05 168.85 204.55 164.95 203.65 M153.9 155.0 L138.75 152.25 M145.4 179.05 L124.05 161.65 M140.0 86.35 L112.9 110.0 114.9 155.85 136.35 173.0 140.2 190.6 147.9 190.6 M145.7 196.6 L139.4 196.6 M159.8 145.05 L160.0 149.15 174.6 149.15 M128.15 195.05 L120.05 193.15 M152.0 112.6 L153.9 155.0 M91.6 105.45 L93.85 156.15 M27.05 94.15 L30.4 100.15 M27.2 85.75 L40.0 108.45 M32.5 86.45 L47.35 112.85 M116.35 84.25 L91.6 105.45 M81.2 81.05 L77.15 80.7 M83.65 48.3 L75.3 80.55 M77.9 161.3 L85.15 166.8 M54.75 117.3 L37.75 87.1 M146.0 223.15 L136.95 223.15 133.5 220.15 126.4 220.15 123.0 217.1 115.9 217.1 112.45 214.1 109.85 214.1 M129.4 214.85 L129.9 216.95 138.9 216.95 135.9 203.4 M129.9 216.95 L133.5 220.15 M155.65 231.7 L159.4 223.05 146.0 223.15 138.9 216.95 M107.3 207.95 L108.35 208.85 M118.85 211.85 L119.35 213.95 128.4 213.95 M108.8 210.95 L112.45 214.1 M96.75 204.9 L87.7 204.9 M95.25 194.4 L97.8 205.8 98.25 207.95 107.3 207.95 104.3 194.4 M97.8 205.8 L96.75 204.9 93.75 191.35 M98.25 207.95 L101.9 211.1 M125.35 200.4 L116.35 200.4 M123.0 217.1 L119.35 213.95 M207.95 200.15 L206.35 199.0 M223.9 197.15 L220.1 200.15 207.95 200.15 220.95 193.1 M168.85 204.55 L180.05 207.2 175.5 185.2 160.45 182.1 M163.0 224.05 L188.0 224.05 M181.95 183.4 L185.75 201.75 223.4 201.75 223.9 197.15 M203.7 207.2 L180.05 207.2 M176.55 90.3 L152.0 112.6 M188.8 197.3 L192.75 200.15 M154.45 167.1 L175.5 185.2" fill="none" stroke="#000000" stroke-width="0.7" stroke-opacity="0.4"/>
  </g>
  <defs>
    <linearGradient gradientTransform="matrix(0.0175, 0.0, 0.0, 0.0074, 219.25, 101.8)" gradientUnits="userSpaceOnUse" id="gradient0" spreadMethod="pad" x1="-819.2" x2="819.2">
      <stop offset="0.0" stop-color="#ff0000"/>
      <stop offset="1.0" stop-color="#cc0000"/>
    </linearGradient>
    <linearGradient gradientTransform="matrix(0.0131, -0.0408, 0.033, 0.0106, 107.9, 121.05)" gradientUnits="userSpaceOnUse" id="gradient1" spreadMethod="pad" x1="-819.2" x2="819.2">
      <stop offset="0.0" stop-color="#000000"/>
      <stop offset="0.39215686274509803" stop-color="#ff0000"/>
      <stop offset="0.5764705882352941" stop-color="#990000"/>
      <stop offset="1.0" stop-color="#000000"/>
    </linearGradient>
    <linearGradient gradientTransform="matrix(0.0112, -0.0416, 0.0322, 0.0086, 137.25, 124.7)" gradientUnits="userSpaceOnUse" id="gradient2" spreadMethod="pad" x1="-819.2" x2="819.2">
      <stop offset="0.0" stop-color="#000000"/>
      <stop offset="0.39215686274509803" stop-color="#ff0000"/>
      <stop offset="0.5764705882352941" stop-color="#990000"/>
      <stop offset="1.0" stop-color="#000000"/>
    </linearGradient>
  </defs>
</svg>
