<?xml version="1.0" encoding="UTF-8" standalone="no"?>
<svg xmlns:xlink="http://www.w3.org/1999/xlink" height="118.75px" width="97.8px" xmlns="http://www.w3.org/2000/svg">
  <g transform="matrix(1.0, 0.0, 0.0, 1.0, 1.0, 10.9)">
    <path d="M6.4 -2.6 L23.4 16.45 18.25 19.3 3.2 -2.6 6.4 -2.6 M51.9 -8.5 L56.85 5.85 51.9 5.85 49.5 -8.5 49.5 -8.6 51.9 -8.5 M47.0 96.5 L49.0 98.25 46.35 105.8 44.9 105.8 46.55 96.2 47.0 96.5 M31.95 78.5 L30.4 77.2 4.0 105.8 2.25 105.8 25.55 72.9 23.0 70.65 27.35 70.65 27.9 73.85 31.95 78.5 M13.5 66.25 L10.8 63.9 12.85 63.05 10.05 60.65 12.15 59.9 9.45 57.5 11.5 56.7 8.8 54.3 10.85 53.45 8.15 51.15 10.2 50.3 7.45 47.9 9.55 47.1 6.75 44.7 15.6 41.3 15.55 41.45 Q15.05 43.15 14.85 45.0 L14.75 47.3 14.8 48.5 Q14.85 50.25 15.25 51.8 L16.2 54.85 11.5 56.7 16.2 54.85 Q16.8 56.35 17.75 57.75 L18.0 58.15 18.75 59.1 18.85 60.75 19.0 64.15 13.5 66.25 M81.65 57.2 L75.1 58.85 67.3 58.85 59.55 49.8 59.1 46.45 75.1 47.7 81.65 51.3 81.65 57.2 M79.75 66.2 L85.55 63.25 87.15 62.4 93.4 66.2 91.9 68.65 78.6 68.65 79.75 66.2 M67.8 57.9 L67.3 58.85 67.8 57.9 70.95 57.9 74.4 57.9 79.9 56.5 79.9 51.5 74.4 48.5 69.9 48.15 60.9 47.45 61.3 50.25 67.8 57.9 M86.3 63.8 L81.5 66.25 80.6 68.1 89.2 68.1 90.7 68.1 91.85 66.25 87.1 63.35 86.3 63.8 85.55 63.25 86.3 63.8 M9.55 47.1 L14.85 45.0 9.55 47.1 M30.4 77.2 L25.55 72.9 30.4 77.2 M10.85 53.45 L15.25 51.8 10.85 53.45 M12.15 59.9 L17.75 57.75 12.15 59.9 M18.85 60.75 L12.85 63.05 18.85 60.75 M10.2 50.3 L14.8 48.5 10.2 50.3" fill="#333333" fill-rule="evenodd" stroke="none"/>
    <path d="M23.4 16.45 L24.35 15.9 42.6 5.85 49.3 11.5 54.25 9.35 60.65 16.9 47.05 20.4 47.0 20.4 35.7 17.05 49.3 11.5 35.7 17.05 47.0 20.4 47.05 20.4 60.65 16.9 62.2 16.5 74.1 29.05 52.55 29.05 45.5 37.45 41.2 42.5 38.65 44.75 39.45 51.55 39.0 52.85 37.15 57.9 34.5 62.8 30.05 60.65 26.35 60.65 26.2 60.65 25.0 61.7 25.3 62.65 26.65 67.2 27.0 68.5 27.35 70.65 23.0 70.65 25.55 72.9 2.25 105.8 0.95 104.65 21.35 70.65 18.05 70.65 16.2 69.15 11.75 68.55 11.45 67.1 13.5 66.25 19.0 64.15 18.85 60.75 18.75 59.1 Q21.0 61.7 23.75 62.4 L24.3 62.55 25.3 62.65 24.3 62.55 23.35 66.3 20.2 67.55 26.05 67.55 26.65 67.2 26.05 67.55 20.2 67.55 23.35 66.3 24.3 62.55 23.75 62.4 Q21.0 61.7 18.75 59.1 L18.0 58.15 17.75 57.75 Q16.8 56.35 16.2 54.85 L15.25 51.8 Q14.85 50.25 14.8 48.5 L14.75 47.3 14.85 45.0 Q15.05 43.15 15.55 41.45 L15.6 41.3 6.75 44.7 6.25 42.05 9.35 40.05 8.8 37.85 8.35 35.7 12.35 22.5 14.15 21.55 1.0 -1.1 3.2 -2.6 18.25 19.3 23.4 16.45 M48.15 5.85 L47.15 -6.6 49.5 -8.5 51.9 5.85 48.15 5.85 M95.4 57.5 L96.75 58.0 96.75 58.85 92.4 57.2 92.4 56.35 95.4 57.5 M81.3 85.45 L79.6 85.45 80.65 83.75 82.95 80.05 84.7 80.05 82.4 83.75 80.65 83.75 82.4 83.75 81.3 85.45 M44.9 105.8 L43.35 104.65 44.15 94.55 46.25 96.0 46.55 96.2 44.9 105.8 M81.0 92.05 L82.95 92.05 80.75 96.9 78.85 96.9 81.0 92.05 M45.5 37.45 L43.2 37.45 34.8 29.0 29.15 27.55 16.6 31.35 19.55 27.4 47.0 20.4 19.55 27.4 16.6 31.35 29.15 27.55 34.8 29.0 43.2 37.45 45.5 37.45 M47.05 20.4 L52.55 29.05 47.05 20.4 M71.3 26.85 L70.65 26.35 71.6 27.1 71.3 26.85 M16.6 31.35 L14.95 31.85 16.6 31.35 M38.05 39.0 L35.5 36.25 33.6 36.25 Q31.35 33.3 28.6 32.35 L25.85 31.95 23.4 32.3 Q21.3 32.9 19.55 34.55 L19.45 34.7 18.1 36.25 18.0 36.35 18.0 36.45 Q16.45 38.65 15.6 41.3 16.45 38.65 18.0 36.45 L18.0 36.35 18.1 36.25 17.2 36.3 16.65 36.3 14.2 37.5 9.35 40.05 14.2 37.5 16.65 36.3 17.2 36.3 18.1 36.25 19.45 34.7 19.55 34.55 Q21.3 32.9 23.4 32.3 L25.85 31.95 28.6 32.35 Q31.35 33.3 33.6 36.25 L35.5 36.25 38.05 39.0 M14.25 32.05 L11.45 32.9 12.9 34.65 11.7 35.6 12.9 34.65 11.45 32.9 14.25 32.05 M14.15 21.55 L18.25 19.3 14.15 21.55 M24.35 15.9 L35.7 17.05 14.95 25.5 11.45 32.9 8.35 35.7 11.45 32.9 14.95 25.5 35.7 17.05 24.35 15.9 M28.85 37.65 Q27.45 36.3 25.85 35.85 L24.05 35.6 Q22.15 35.6 20.55 36.6 19.2 37.45 18.05 39.0 17.5 39.8 17.05 40.75 16.15 42.55 15.85 44.65 15.6 45.9 15.6 47.3 L15.65 48.2 Q15.7 49.95 16.15 51.45 16.55 53.05 17.35 54.45 L18.05 55.55 18.6 56.25 Q20.95 59.0 24.05 59.0 26.75 59.0 28.85 56.95 L30.05 55.55 Q32.5 52.15 32.5 47.3 32.5 45.05 32.0 43.1 31.35 40.85 30.05 39.0 L28.85 37.65 M34.75 56.5 Q36.95 52.5 36.95 47.3 36.95 45.1 36.55 43.1 35.8 39.35 33.7 36.35 L33.6 36.25 33.7 36.35 Q35.8 39.35 36.55 43.1 36.95 45.1 36.95 47.3 36.95 52.5 34.75 56.5 M11.35 35.85 L8.8 37.85 11.35 35.85 M14.2 37.5 L12.9 34.65 14.2 37.5 M23.0 70.65 L21.35 70.65 23.0 70.65 M20.2 67.55 L16.2 69.15 20.2 67.55 M72.5 83.75 L74.15 80.05 75.9 80.05 74.25 83.75 73.5 85.45 71.75 85.45 72.5 83.75 74.25 83.75 72.5 83.75 M73.45 92.05 L75.4 92.05 74.1 96.9 72.2 96.9 73.45 92.05 M38.4 39.45 L41.2 42.5 38.4 39.45" fill="#4c4c4c" fill-rule="evenodd" stroke="none"/>
    <path d="M79.6 87.95 L86.8 92.05 82.95 92.05 81.0 92.05 75.4 92.05 73.45 92.05 67.8 92.05 57.45 87.95 61.4 87.95 68.5 90.65 81.6 90.65 76.95 87.95 79.6 87.95 M71.3 26.85 L71.6 27.1 70.65 26.35 71.3 26.85 M26.35 60.65 L30.05 60.65 34.5 62.8 34.45 62.8 35.9 63.5 48.9 69.75 51.7 71.1 58.85 74.55 55.05 74.55 26.35 60.65" fill="#b2b2b2" fill-rule="evenodd" stroke="none"/>
    <path d="M92.6 29.05 L92.6 30.95 94.2 36.7 96.75 40.45 96.75 47.7 95.4 48.85 92.4 51.3 92.4 56.35 92.4 57.2 96.75 58.85 96.75 66.2 93.4 66.2 87.15 62.4 85.55 63.25 79.75 66.2 75.1 66.2 75.1 58.85 81.65 57.2 81.65 51.3 75.1 47.7 75.1 40.45 78.45 36.7 74.1 30.95 74.1 29.05 92.6 29.05 M79.6 85.45 L79.6 87.95 76.95 87.95 76.55 85.45 79.6 85.45 M81.65 57.2 L92.4 57.2 81.65 57.2 M94.2 36.7 L78.45 36.7 94.2 36.7 M58.85 74.55 L59.15 75.2 59.2 75.35 61.4 87.95 57.45 87.95 55.05 74.55 58.85 74.55 M96.75 40.45 L75.1 40.45 96.75 40.45 M92.6 30.95 L74.1 30.95 92.6 30.95" fill="#999999" fill-rule="evenodd" stroke="none"/>
    <path d="M96.75 66.2 L85.8 83.75 84.75 85.45 81.3 85.45 82.4 83.75 84.7 80.05 82.95 80.05 80.65 83.75 74.25 83.75 80.65 83.75 79.6 85.45 76.55 85.45 73.5 85.45 74.25 83.75 75.9 80.05 74.15 80.05 72.5 83.75 71.75 85.45 70.9 85.45 66.6 85.45 67.35 83.75 75.1 66.2 79.75 66.2 78.6 68.65 91.9 68.65 93.4 66.2 96.75 66.2 M86.8 92.05 L79.0 107.8 62.15 107.8 67.8 92.05 73.45 92.05 72.2 96.9 74.1 96.9 75.4 92.05 81.0 92.05 78.85 96.9 80.75 96.9 82.95 92.05 86.8 92.05 M85.8 83.75 L82.4 83.75 85.8 83.75 M67.35 83.75 L72.5 83.75 67.35 83.75" fill="#7f7f7f" fill-rule="evenodd" stroke="none"/>
    <path d="M42.6 5.85 L48.15 5.85 51.9 5.85 56.85 5.85 64.75 5.85 68.8 9.35 73.45 9.35 80.75 16.5 84.75 16.5 92.6 29.05 74.1 29.05 62.2 16.5 80.75 16.5 62.2 16.5 60.65 16.9 54.25 9.35 49.3 11.5 42.6 5.85 M62.15 107.8 L56.65 104.1 53.55 101.4 52.3 100.45 49.25 98.1 47.0 96.5 46.55 96.2 46.25 96.0 44.15 94.55 37.5 90.05 36.4 83.7 31.95 78.5 27.9 73.85 27.35 70.65 27.0 68.5 26.65 67.2 25.3 62.65 25.0 61.7 26.2 60.65 26.35 60.65 55.05 74.55 57.45 87.95 67.8 92.05 62.15 107.8 M75.1 58.85 L75.1 66.2 67.35 83.75 66.6 85.45 65.15 84.75 62.4 83.3 61.8 78.45 61.35 75.35 60.85 70.8 62.55 67.65 64.55 82.45 67.35 83.75 64.55 82.45 62.55 67.65 60.85 70.8 51.1 65.7 48.35 64.25 45.55 62.85 42.75 61.4 40.6 60.2 39.45 51.55 38.65 44.75 41.2 42.5 45.5 37.45 52.55 29.05 54.65 30.95 42.2 45.05 38.65 44.75 42.2 45.05 54.65 30.95 52.55 29.05 74.1 29.05 74.1 30.95 78.45 36.7 75.1 40.45 75.1 47.7 59.1 46.45 59.55 49.8 67.3 58.85 62.55 67.65 47.45 59.8 43.7 57.9 40.6 60.2 43.7 57.9 42.2 45.05 59.1 46.45 54.65 30.95 74.1 30.95 54.65 30.95 59.1 46.45 42.2 45.05 43.7 57.9 47.45 59.8 62.55 67.65 67.3 58.85 75.1 58.85 M54.25 9.35 L68.8 9.35 54.25 9.35 M47.45 59.8 L59.55 49.8 47.45 59.8 M54.35 92.65 L46.45 77.55 40.3 73.7 48.5 88.85 54.35 92.65 53.55 101.4 54.35 92.65" fill="#666666" fill-rule="evenodd" stroke="none"/>
    <path d="M28.85 56.95 Q26.75 59.0 24.05 59.0 20.95 59.0 18.6 56.25 L18.05 55.55 17.35 54.45 Q16.55 53.05 16.15 51.45 15.7 49.95 15.65 48.2 L15.6 47.3 Q15.6 45.9 15.85 44.65 16.15 42.55 17.05 40.75 17.5 39.8 18.05 39.0 19.2 37.45 20.55 36.6 22.15 35.6 24.05 35.6 L25.85 35.85 Q27.45 36.3 28.85 37.65 27.9 37.2 26.75 37.2 L26.7 37.2 Q24.1 37.2 22.2 39.45 L21.6 40.15 Q19.45 43.1 19.45 47.3 19.45 51.45 21.6 54.35 23.7 57.35 26.7 57.35 27.85 57.35 28.85 56.95" fill="url(#gradient0)" fill-rule="evenodd" stroke="none"/>
    <path d="M34.5 62.8 L35.9 63.5 34.45 62.8 34.5 62.8" fill="url(#gradient1)" fill-rule="evenodd" stroke="none"/>
    <path d="M28.85 37.65 L30.05 39.0 Q31.35 40.85 32.0 43.1 32.5 45.05 32.5 47.3 32.5 52.15 30.05 55.55 L28.85 56.95 Q27.85 57.35 26.7 57.35 23.7 57.35 21.6 54.35 19.45 51.45 19.45 47.3 19.45 43.1 21.6 40.15 L22.2 39.45 Q24.1 37.2 26.7 37.2 L26.75 37.2 Q27.9 37.2 28.85 37.65" fill="url(#gradient2)" fill-rule="evenodd" stroke="none"/>
    <path d="M67.8 57.9 L61.3 50.25 60.9 47.45 69.9 48.15 76.45 51.5 76.45 56.5 70.95 57.9 67.8 57.9" fill="url(#gradient3)" fill-rule="evenodd" stroke="none"/>
    <path d="M95.4 48.85 L95.4 57.5 92.4 56.35 92.4 51.3 95.4 48.85" fill="url(#gradient4)" fill-rule="evenodd" stroke="none"/>
    <path d="M89.2 68.1 L80.6 68.1 81.5 66.25 86.3 63.8 90.35 66.25 89.2 68.1" fill="url(#gradient5)" fill-rule="evenodd" stroke="none"/>
    <path d="M39.45 51.55 L40.6 60.2 42.75 61.4 45.55 62.85 48.35 64.25 48.7 67.4 48.35 64.25 51.1 65.7 51.3 67.4 51.1 65.7 60.85 70.8 61.35 75.35 61.8 78.45 62.4 83.3 65.15 84.75 66.6 85.45 70.9 85.45 71.75 85.45 73.5 85.45 76.55 85.45 76.95 87.95 81.6 90.65 68.5 90.65 61.4 87.95 59.2 75.35 59.15 75.2 58.85 74.55 51.7 71.1 51.35 67.75 51.7 71.1 48.9 69.75 35.9 63.5 34.5 62.8 37.15 57.9 39.0 52.85 39.45 51.55 M48.75 67.75 L48.9 69.75 48.75 67.75 M37.9 63.75 L37.15 57.9 37.9 63.75 M46.2 68.1 L45.85 65.0 46.2 68.1 M43.45 66.6 L43.25 65.0 43.45 66.6 M45.75 64.7 L45.55 62.85 45.75 64.7 M60.1 75.35 L59.2 75.35 60.1 75.35 M43.2 64.7 L42.75 61.4 43.2 64.7 M54.35 92.65 L48.5 88.85 40.3 73.7 46.45 77.55 54.35 92.65 M69.35 87.0 L68.25 88.1 62.8 88.1 68.25 88.1 69.35 87.0 M65.15 84.75 L64.35 85.5 62.75 85.5 64.35 85.5 65.15 84.75 M69.6 86.75 L70.9 85.45 69.6 86.75 M61.35 75.35 L60.45 75.35 61.35 75.35 M61.8 78.45 L60.45 78.45 61.8 78.45 M39.0 52.85 L40.65 65.15 39.0 52.85" fill="url(#gradient6)" fill-rule="evenodd" stroke="none"/>
    <path d="M69.9 48.15 L74.4 48.5 79.9 51.5 79.9 56.5 74.4 57.9 70.95 57.9 76.45 56.5 76.45 51.5 69.9 48.15 M89.2 68.1 L90.35 66.25 86.3 63.8 87.1 63.35 91.85 66.25 90.7 68.1 89.2 68.1" fill="#450101" fill-rule="evenodd" stroke="none"/>
    <path d="M1.0 -1.1 L-0.95 -4.4 0.85 -6.05 3.3 -6.05 6.4 -2.6 3.2 -2.6 1.0 -1.1 M47.15 -6.6 L46.95 -9.2 49.1 -10.85 51.1 -10.85 51.9 -8.5 49.5 -8.6 49.5 -8.5 47.15 -6.6 M0.85 -6.05 L3.2 -2.6 0.85 -6.05 M49.1 -10.85 L49.5 -8.6 49.1 -10.85" fill="url(#gradient7)" fill-rule="evenodd" stroke="none"/>
    <path d="M1.0 -1.1 L-0.95 -4.4 0.85 -6.05 3.3 -6.05 6.4 -2.6 23.4 16.45 24.35 15.9 42.6 5.85 48.15 5.85 47.15 -6.6 46.95 -9.2 49.1 -10.85 51.1 -10.85 51.9 -8.5 56.85 5.85 64.75 5.85 68.8 9.35 73.45 9.35 80.75 16.5 84.75 16.5 92.6 29.05 92.6 30.95 94.2 36.7 96.75 40.45 96.75 47.7 95.4 48.85 95.4 57.5 96.75 58.0 96.75 58.85 96.75 66.2 85.8 83.75 84.75 85.45 81.3 85.45 79.6 85.45 79.6 87.95 86.8 92.05 79.0 107.8 62.15 107.8 56.65 104.1 53.55 101.4 52.3 100.45 49.25 98.1 47.0 96.5 M49.0 98.25 L46.35 105.8 44.9 105.8 43.35 104.65 44.15 94.55 37.5 90.05 36.4 83.7 31.95 78.5 30.4 77.2 4.0 105.8 2.25 105.8 0.95 104.65 21.35 70.65 18.05 70.65 16.2 69.15 11.75 68.55 11.45 67.1 13.5 66.25 10.8 63.9 12.85 63.05 10.05 60.65 12.15 59.9 9.45 57.5 11.5 56.7 8.8 54.3 10.85 53.45 8.15 51.15 10.2 50.3 7.45 47.9 9.55 47.1 6.75 44.7 6.25 42.05 9.35 40.05 8.8 37.85 8.35 35.7 12.35 22.5 14.15 21.55 1.0 -1.1 3.2 -2.6 0.85 -6.05 M6.4 -2.6 L3.2 -2.6 18.25 19.3 23.4 16.45 M51.9 -8.5 L49.5 -8.6 49.5 -8.5 51.9 5.85 56.85 5.85 M49.5 -8.5 L47.15 -6.6 M49.5 -8.6 L49.1 -10.85 M92.4 57.2 L92.4 56.35 92.4 51.3 95.4 48.85 M96.75 58.85 L92.4 57.2 81.65 57.2 75.1 58.85 75.1 66.2 79.75 66.2 85.55 63.25 87.15 62.4 93.4 66.2 96.75 66.2 M95.4 57.5 L92.4 56.35 M81.65 57.2 L81.65 51.3 75.1 47.7 59.1 46.45 59.55 49.8 67.3 58.85 67.8 57.9 61.3 50.25 60.9 47.45 69.9 48.15 74.4 48.5 79.9 51.5 79.9 56.5 74.4 57.9 70.95 57.9 67.8 57.9 M86.3 63.8 L81.5 66.25 80.6 68.1 89.2 68.1 90.35 66.25 86.3 63.8 85.55 63.25 M89.2 68.1 L90.7 68.1 M87.1 63.35 L86.3 63.8 M79.75 66.2 L78.6 68.65 91.9 68.65 93.4 66.2 M82.95 92.05 L81.0 92.05 78.85 96.9 80.75 96.9 82.95 92.05 86.8 92.05 M82.4 83.75 L84.7 80.05 82.95 80.05 80.65 83.75 82.4 83.75 85.8 83.75 M81.3 85.45 L82.4 83.75 M80.75 16.5 L62.2 16.5 74.1 29.05 92.6 29.05 M60.65 16.9 L54.25 9.35 49.3 11.5 35.7 17.05 47.0 20.4 47.05 20.4 60.65 16.9 62.2 16.5 M48.15 5.85 L51.9 5.85 M49.3 11.5 L42.6 5.85 M38.65 44.75 L42.2 45.05 54.65 30.95 52.55 29.05 45.5 37.45 41.2 42.5 38.65 44.75 39.45 51.55 40.6 60.2 43.7 57.9 42.2 45.05 59.1 46.45 54.65 30.95 74.1 30.95 74.1 29.05 52.55 29.05 47.05 20.4 M47.0 20.4 L19.55 27.4 16.6 31.35 29.15 27.55 34.8 29.0 43.2 37.45 45.5 37.45 M74.1 30.95 L78.45 36.7 94.2 36.7 M75.1 47.7 L75.1 40.45 78.45 36.7 M68.8 9.35 L54.25 9.35 M8.35 35.7 L11.45 32.9 14.95 25.5 35.7 17.05 24.35 15.9 M18.25 19.3 L14.15 21.55 M11.7 35.6 L12.9 34.65 11.45 32.9 14.25 32.05 M15.6 41.3 Q16.45 38.65 18.0 36.45 L18.0 36.35 18.1 36.25 17.2 36.3 16.65 36.3 14.2 37.5 9.35 40.05 M18.1 36.25 L19.45 34.7 19.55 34.55 Q21.3 32.9 23.4 32.3 L25.85 31.95 28.6 32.35 Q31.35 33.3 33.6 36.25 L35.5 36.25 38.05 39.0 M14.95 31.85 L16.6 31.35 M14.8 48.5 L14.75 47.3 14.85 45.0 9.55 47.1 M28.85 56.95 Q26.75 59.0 24.05 59.0 20.95 59.0 18.6 56.25 L18.05 55.55 17.35 54.45 Q16.55 53.05 16.15 51.45 15.7 49.95 15.65 48.2 L15.6 47.3 Q15.6 45.9 15.85 44.65 16.15 42.55 17.05 40.75 17.5 39.8 18.05 39.0 19.2 37.45 20.55 36.6 22.15 35.6 24.05 35.6 L25.85 35.85 Q27.45 36.3 28.85 37.65 L30.05 39.0 Q31.35 40.85 32.0 43.1 32.5 45.05 32.5 47.3 32.5 52.15 30.05 55.55 L28.85 56.95 Q27.85 57.35 26.7 57.35 23.7 57.35 21.6 54.35 19.45 51.45 19.45 47.3 19.45 43.1 21.6 40.15 L22.2 39.45 Q24.1 37.2 26.7 37.2 L26.75 37.2 Q27.9 37.2 28.85 37.65 M14.85 45.0 Q15.05 43.15 15.55 41.45 L15.6 41.3 6.75 44.7 M12.9 34.65 L14.2 37.5 M8.8 37.85 L11.35 35.85 M33.6 36.25 L33.7 36.35 Q35.8 39.35 36.55 43.1 36.95 45.1 36.95 47.3 36.95 52.5 34.75 56.5 M34.5 62.8 L37.15 57.9 39.0 52.85 39.45 51.55 M26.2 60.65 L25.0 61.7 25.3 62.65 26.65 67.2 27.0 68.5 27.35 70.65 27.9 73.85 31.95 78.5 M26.35 60.65 L30.05 60.65 34.5 62.8 35.9 63.5 48.9 69.75 48.75 67.75 M25.3 62.65 L24.3 62.55 23.35 66.3 20.2 67.55 26.05 67.55 26.65 67.2 M24.3 62.55 L23.75 62.4 Q21.0 61.7 18.75 59.1 L18.85 60.75 19.0 64.15 13.5 66.25 M21.35 70.65 L23.0 70.65 27.35 70.65 M23.0 70.65 L25.55 72.9 30.4 77.2 M34.45 62.8 L34.5 62.8 M37.15 57.9 L37.9 63.75 M16.2 54.85 L15.25 51.8 10.85 53.45 M18.75 59.1 L18.0 58.15 17.75 57.75 12.15 59.9 M11.5 56.7 L16.2 54.85 Q16.8 56.35 17.75 57.75 M16.2 69.15 L20.2 67.55 M12.85 63.05 L18.85 60.75 M70.95 57.9 L76.45 56.5 76.45 51.5 69.9 48.15 M67.35 83.75 L64.55 82.45 62.55 67.65 60.85 70.8 61.35 75.35 61.8 78.45 62.4 83.3 65.15 84.75 66.6 85.45 67.35 83.75 75.1 66.2 M67.3 58.85 L62.55 67.65 47.45 59.8 43.7 57.9 M67.3 58.85 L75.1 58.85 M42.75 61.4 L40.6 60.2 M48.35 64.25 L48.7 67.4 M43.25 65.0 L43.45 66.6 M45.85 65.0 L46.2 68.1 M48.35 64.25 L45.55 62.85 45.75 64.7 M51.1 65.7 L51.3 67.4 M51.35 67.75 L51.7 71.1 58.85 74.55 59.15 75.2 59.2 75.35 60.1 75.35 M59.55 49.8 L47.45 59.8 M51.1 65.7 L48.35 64.25 M45.55 62.85 L42.75 61.4 43.2 64.7 M48.9 69.75 L51.7 71.1 M55.05 74.55 L58.85 74.55 M44.15 94.55 L46.25 96.0 46.55 96.2 47.0 96.5 M54.35 92.65 L46.45 77.55 40.3 73.7 48.5 88.85 54.35 92.65 53.55 101.4 M55.05 74.55 L57.45 87.95 61.4 87.95 59.2 75.35 M72.5 83.75 L74.15 80.05 75.9 80.05 74.25 83.75 80.65 83.75 79.6 85.45 M76.55 85.45 L76.95 87.95 79.6 87.95 M71.75 85.45 L72.5 83.75 67.35 83.75 M74.25 83.75 L73.5 85.45 76.55 85.45 M72.5 83.75 L74.25 83.75 M73.5 85.45 L71.75 85.45 70.9 85.45 69.6 86.75 M62.75 85.5 L64.35 85.5 65.15 84.75 M62.8 88.1 L68.25 88.1 69.35 87.0 M76.95 87.95 L81.6 90.65 68.5 90.65 61.4 87.95 M75.4 92.05 L73.45 92.05 72.2 96.9 74.1 96.9 75.4 92.05 81.0 92.05 M73.45 92.05 L67.8 92.05 62.15 107.8 M70.9 85.45 L66.6 85.45 M67.8 92.05 L57.45 87.95 M51.1 65.7 L60.85 70.8 M60.45 78.45 L61.8 78.45 M60.45 75.35 L61.35 75.35 M41.2 42.5 L38.4 39.45 M15.25 51.8 Q14.85 50.25 14.8 48.5 L10.2 50.3 M40.65 65.15 L39.0 52.85 M55.05 74.55 L26.35 60.65 M46.55 96.2 L44.9 105.8 M74.1 30.95 L92.6 30.95 M75.1 40.45 L96.75 40.45 M25.55 72.9 L2.25 105.8" fill="none" stroke="#000000" stroke-width="0.7" stroke-opacity="0.4"/>
  </g>
  <defs>
    <radialGradient cx="0" cy="0" gradientTransform="matrix(0.0277, 0.0, 0.0, 0.0277, 25.65, 57.95)" gradientUnits="userSpaceOnUse" id="gradient0" r="819.2" spreadMethod="pad">
      <stop offset="0.0" stop-color="#b2b2b2"/>
      <stop offset="1.0" stop-color="#333333"/>
    </radialGradient>
    <radialGradient cx="0" cy="0" gradientTransform="matrix(0.0353, 0.0, 0.0, 0.0353, 59.4, 72.5)" gradientUnits="userSpaceOnUse" id="gradient1" r="819.2" spreadMethod="pad">
      <stop offset="0.0" stop-color="#ffcc00"/>
      <stop offset="0.4627450980392157" stop-color="#ff6600"/>
      <stop offset="1.0" stop-color="#66300c"/>
    </radialGradient>
    <radialGradient cx="0" cy="0" gradientTransform="matrix(0.0177, 0.0, 0.0, 0.0177, 30.0, 50.4)" gradientUnits="userSpaceOnUse" id="gradient2" r="819.2" spreadMethod="pad">
      <stop offset="0.20784313725490197" stop-color="#ff1919"/>
      <stop offset="0.5529411764705883" stop-color="#6b0101"/>
      <stop offset="0.9176470588235294" stop-color="#2a0101"/>
    </radialGradient>
    <radialGradient cx="0" cy="0" gradientTransform="matrix(0.0116, 0.0, 0.0, 0.0116, 68.6, 53.05)" gradientUnits="userSpaceOnUse" id="gradient3" r="819.2" spreadMethod="pad">
      <stop offset="0.20784313725490197" stop-color="#ff1919"/>
      <stop offset="0.5529411764705883" stop-color="#6b0101"/>
      <stop offset="0.9176470588235294" stop-color="#2a0101"/>
    </radialGradient>
    <radialGradient cx="0" cy="0" gradientTransform="matrix(0.0064, 0.0, 0.0, 0.0064, 94.05, 53.9)" gradientUnits="userSpaceOnUse" id="gradient4" r="819.2" spreadMethod="pad">
      <stop offset="0.20784313725490197" stop-color="#ff1919"/>
      <stop offset="0.5529411764705883" stop-color="#6b0101"/>
      <stop offset="0.9176470588235294" stop-color="#2a0101"/>
    </radialGradient>
    <radialGradient cx="0" cy="0" gradientTransform="matrix(0.0126, 0.0, 0.0, 0.0126, 80.1, 67.3)" gradientUnits="userSpaceOnUse" id="gradient5" r="819.2" spreadMethod="pad">
      <stop offset="0.20784313725490197" stop-color="#ff1919"/>
      <stop offset="0.5529411764705883" stop-color="#6b0101"/>
      <stop offset="0.9176470588235294" stop-color="#2a0101"/>
    </radialGradient>
    <radialGradient cx="0" cy="0" gradientTransform="matrix(0.0428, 0.0, 0.0, 0.0428, 60.6, 79.5)" gradientUnits="userSpaceOnUse" id="gradient6" r="819.2" spreadMethod="pad">
      <stop offset="0.20784313725490197" stop-color="#ff1919"/>
      <stop offset="0.5529411764705883" stop-color="#6b0101"/>
      <stop offset="0.9176470588235294" stop-color="#2a0101"/>
    </radialGradient>
    <radialGradient cx="0" cy="0" gradientTransform="matrix(0.0, 0.0, 0.0, 0.0, 0.0, 0.0)" gradientUnits="userSpaceOnUse" id="gradient7" r="819.2" spreadMethod="pad">
      <stop offset="0.20784313725490197" stop-color="#ff1919"/>
      <stop offset="0.5529411764705883" stop-color="#6b0101"/>
      <stop offset="0.9176470588235294" stop-color="#2a0101"/>
    </radialGradient>
  </defs>
</svg>
