<?xml version="1.0" encoding="UTF-8" standalone="no"?>
<svg xmlns:xlink="http://www.w3.org/1999/xlink" height="61.3px" width="246.55px" xmlns="http://www.w3.org/2000/svg">
  <g transform="matrix(1.0, 0.0, 0.0, 1.0, 0.05, 0.05)">
    <use height="61.3" transform="matrix(1.0, 0.0, 0.0, 1.0, -0.05, -0.05)" width="246.55" xlink:href="#sprite0"/>
    <use height="43.65" transform="matrix(1.0, 0.0, 0.0, 1.0, 34.35, 2.7)" width="207.95" xlink:href="#shape1"/>
  </g>
  <defs>
    <g id="sprite0" transform="matrix(1.0, 0.0, 0.0, 1.0, 0.05, 0.05)">
      <use height="61.3" transform="matrix(1.0, 0.0, 0.0, 1.0, -0.05, -0.05)" width="246.55" xlink:href="#shape0"/>
    </g>
    <g id="shape0" transform="matrix(1.0, 0.0, 0.0, 1.0, 0.05, 0.05)">
      <path d="M226.9 20.85 L219.5 20.85 217.25 14.55 224.65 14.55 226.9 20.85" fill="url(#gradient0)" fill-rule="evenodd" stroke="none"/>
      <path d="M226.9 20.85 L224.65 14.55 217.25 14.55 219.5 20.85 226.9 20.85 M206.2 21.85 L208.95 15.2 211.95 15.2 208.95 15.2 206.6 12.05 208.85 12.05 211.95 15.2 209.2 21.85 206.2 21.85 M233.4 28.8 L246.45 28.8 241.3 43.45 228.25 43.45 233.4 28.8 M138.4 50.35 L126.75 50.35 119.5 43.95 119.5 28.9 122.1 28.9 123.6 28.9 123.6 29.9 123.6 32.8 123.6 36.65 123.6 38.65 123.6 41.25 123.6 42.5 128.85 47.2 138.15 47.2 138.15 50.15 138.4 50.35 M133.5 6.75 L153.1 6.75 158.0 12.7 154.7 12.7 152.2 9.4 148.1 9.4 139.2 9.4 136.6 9.4 135.3 9.4 131.55 12.75 130.8 13.45 130.8 15.6 130.8 17.65 130.8 20.5 130.8 23.3 130.8 24.95 130.8 25.05 130.1 25.05 128.05 25.05 127.35 25.05 127.35 12.25 133.5 6.75 M212.5 10.3 L225.55 10.3 230.75 24.95 217.7 24.95 212.5 10.3 M158.85 24.95 L158.85 28.8 155.35 28.8 155.35 24.95 158.85 24.95 M242.6 32.85 L235.25 32.85 233.0 39.15 240.35 39.15 242.6 32.85 M180.5 36.25 L180.65 36.05 180.85 35.9 183.5 33.65 190.45 33.65 194.85 33.65 197.95 33.65 194.8 36.0 191.9 38.2 178.2 38.2 180.5 36.25 M189.65 35.9 L194.8 35.9 194.8 36.0 194.8 35.9 189.65 35.9 M177.95 33.65 L174.8 36.0 174.8 35.9 169.45 35.9 174.8 35.9 174.8 36.0 171.85 38.2 158.2 38.2 160.45 36.25 160.65 36.05 160.8 35.9 163.45 33.65 177.95 33.65 M169.15 35.9 L160.8 35.9 169.15 35.9 M180.85 35.9 L189.2 35.9 180.85 35.9 M138.15 38.2 L140.75 35.9 143.45 33.65 149.2 33.65 157.9 33.65 154.7 36.0 151.8 38.2 138.15 38.2 M140.75 35.9 L154.7 35.9 154.7 36.0 154.7 35.9 140.75 35.9" fill="#a5a5a5" fill-rule="evenodd" stroke="none"/>
      <path d="M208.95 15.2 L206.2 21.85 197.1 21.85 192.75 21.85 188.35 21.85 184.1 21.85 179.75 21.85 175.35 21.85 173.8 17.6 171.85 12.05 176.25 12.05 180.55 12.05 184.95 12.05 189.25 12.05 193.6 12.05 206.6 12.05 208.95 15.2 182.6 15.2 178.2 17.6 195.6 17.6 208.95 15.2 M178.2 17.6 L173.8 17.6 178.2 17.6" fill="#646464" fill-rule="evenodd" stroke="none"/>
      <path d="M206.2 21.85 L209.2 21.85 211.95 15.2 208.85 12.05 206.6 12.05 193.6 12.05 189.25 12.05 184.95 12.05 180.55 12.05 176.25 12.05 171.85 12.05 173.8 17.6 175.35 21.85 179.75 21.85 184.1 21.85 188.35 21.85 192.75 21.85 197.1 21.85 198.15 24.95 197.1 21.85 206.2 21.85 M205.15 28.8 L209.55 28.8 204.3 43.45 209.55 28.8 213.9 28.8 233.4 28.8 228.25 43.45 227.75 43.45 218.5 43.45 208.7 43.45 204.75 43.45 204.3 43.45 201.65 43.45 201.65 38.9 205.15 28.8 201.65 38.9 201.65 37.4 198.85 34.55 200.9 28.8 198.85 34.55 197.95 33.65 194.85 33.65 190.45 33.65 183.5 33.65 180.85 35.9 180.65 36.05 180.35 36.05 177.95 33.65 163.45 33.65 160.8 35.9 160.65 36.05 160.3 36.05 157.9 33.65 149.2 33.65 143.45 33.65 140.75 35.9 138.15 38.2 133.55 28.85 138.15 38.2 138.15 38.65 131.45 35.8 131.45 35.05 131.45 35.8 138.15 38.65 123.6 38.65 123.6 36.65 123.6 32.8 123.6 29.9 125.0 29.9 123.6 29.9 123.6 28.9 124.25 28.9 126.3 28.9 128.4 28.85 130.5 28.85 131.25 29.9 130.5 28.85 133.55 28.85 133.55 29.9 133.55 28.85 149.2 33.65 133.55 28.85 139.6 28.8 143.15 28.8 146.15 28.8 149.5 28.8 155.35 28.8 158.85 28.8 192.15 28.8 196.55 28.8 200.9 28.8 205.15 28.8 M222.7 54.75 L209.0 54.75 206.1 51.65 204.75 50.15 218.5 50.15 222.7 54.75 M202.7 54.75 L197.7 54.75 184.1 54.75 183.35 54.15 182.25 53.35 182.0 53.15 181.85 52.95 181.25 52.5 180.6 52.0 180.4 51.85 180.15 51.65 178.2 50.15 191.9 50.15 194.8 52.45 197.7 54.75 200.0 51.8 202.7 54.75 M182.7 54.75 L177.65 54.75 164.1 54.75 161.1 52.5 160.05 51.65 158.2 50.15 171.85 50.15 174.8 52.45 177.65 54.75 179.9 51.8 182.7 54.75 M157.65 54.75 L143.95 54.75 141.1 52.5 138.4 50.35 138.15 50.15 151.8 50.15 154.7 52.45 157.65 54.75 M126.75 50.35 L122.5 50.35 121.6 49.55 110.15 49.55 108.8 48.3 109.05 48.5 108.3 47.8 106.35 46.0 103.05 43.1 115.35 43.1 115.35 43.95 119.5 43.95 126.75 50.35 M96.9 48.3 L96.4 49.8 95.55 52.15 89.7 52.15 88.6 49.8 85.5 49.8 85.25 49.25 83.15 49.25 83.8 45.3 83.55 43.8 83.35 42.25 83.15 40.65 82.6 37.05 83.7 35.85 85.05 33.4 Q86.65 29.4 82.8 28.25 L82.4 28.25 81.4 28.25 79.65 28.25 75.6 35.65 74.7 35.65 73.1 35.65 67.4 35.65 65.35 35.65 62.05 40.45 54.9 40.45 56.55 38.0 61.45 31.0 68.0 31.0 69.5 28.25 69.3 28.3 68.25 28.3 65.45 28.3 61.15 28.3 62.2 24.2 90.65 24.2 92.55 26.85 98.5 26.85 98.5 33.05 98.5 33.35 98.5 38.9 96.2 38.9 93.85 38.9 Q95.7 39.65 97.3 41.0 L98.75 42.45 Q100.0 44.05 100.4 46.0 L92.7 46.0 91.95 43.8 90.8 40.65 90.25 38.95 89.05 35.85 90.95 33.05 93.85 42.45 98.75 42.45 93.85 42.45 90.95 33.05 92.7 30.25 88.65 26.75 85.55 26.75 82.7 26.75 79.95 26.75 77.1 26.75 74.2 26.75 71.4 26.75 68.6 26.75 65.8 26.75 65.45 28.3 65.8 26.75 68.6 26.75 71.4 26.75 74.2 26.75 77.1 26.75 79.95 26.75 82.7 26.75 85.55 26.75 89.2 30.25 85.35 35.85 83.7 35.85 85.35 35.85 86.85 38.95 87.55 40.65 88.75 43.8 90.5 48.3 83.8 45.3 90.5 48.3 93.25 48.3 96.9 48.3 M95.55 53.3 L92.0 57.15 86.85 57.15 84.4 61.2 81.3 61.2 83.7 57.15 86.15 57.15 86.85 57.15 86.15 57.15 89.7 53.3 95.55 53.3 M77.65 61.2 L74.3 61.2 75.95 58.4 77.65 61.2 M70.5 61.2 L67.3 61.2 68.95 58.4 70.5 61.2 M63.6 61.2 L60.3 61.2 61.85 58.4 63.6 61.2 M56.5 61.2 L53.3 61.2 54.95 58.4 56.5 61.2 M24.75 41.8 L24.75 40.45 31.15 40.45 33.7 40.45 34.55 41.8 24.75 41.8 M12.25 15.1 L20.15 12.55 25.85 8.7 1.7 6.75 8.55 6.75 27.5 8.25 35.6 6.05 28.8 13.35 23.0 14.7 22.0 15.1 12.25 15.1 M12.1 0.0 L18.2 0.0 48.65 2.3 46.65 2.9 12.1 0.0 M165.65 12.7 L165.65 10.3 175.6 10.3 179.9 10.3 184.3 10.3 188.6 10.3 192.95 10.3 212.5 10.3 217.7 24.95 198.15 24.95 193.85 24.95 189.45 24.95 185.15 24.95 180.85 24.95 158.85 24.95 155.35 24.95 149.7 24.95 146.25 24.95 143.15 24.95 139.6 24.95 137.9 24.95 137.55 24.95 135.8 24.95 135.4 24.95 133.7 24.95 133.3 24.95 131.65 24.95 130.8 24.95 130.8 23.3 130.8 20.5 130.8 17.65 131.95 17.65 146.4 17.65 165.65 17.65 165.65 15.0 165.65 12.7 M213.9 28.8 L208.7 43.45 213.9 28.8 M192.95 10.3 L193.6 12.05 192.95 10.3 M189.25 12.05 L188.6 10.3 189.25 12.05 M184.3 10.3 L184.95 12.05 184.3 10.3 M185.15 24.95 L184.1 21.85 185.15 24.95 M193.85 24.95 L192.75 21.85 193.85 24.95 M189.45 24.95 L188.35 21.85 189.45 24.95 M179.9 10.3 L180.55 12.05 179.9 10.3 M176.25 12.05 L175.6 10.3 176.25 12.05 M131.95 18.1 L131.95 17.65 131.95 18.1 M192.15 28.8 L190.45 33.65 192.15 28.8 M196.55 28.8 L194.85 33.65 196.55 28.8 M180.85 24.95 L179.75 21.85 180.85 24.95 M190.85 52.45 L194.8 52.45 190.85 52.45 M190.55 52.45 L181.25 52.5 190.55 52.45 M170.75 52.45 L174.8 52.45 170.75 52.45 M130.8 20.5 L131.95 18.4 130.8 20.5 M130.8 23.3 L131.65 24.95 130.8 23.3 M131.45 32.8 L131.45 31.3 133.55 31.3 133.55 29.9 133.55 31.3 131.45 31.3 131.45 32.8 131.45 35.05 131.45 32.8 127.7 32.8 131.45 32.8 M131.25 29.9 L133.55 29.9 131.25 29.9 129.15 29.9 131.25 29.9 M127.05 29.9 L129.15 29.9 127.05 29.9 125.0 29.9 127.05 29.9 126.3 28.9 127.05 29.9 M127.45 32.8 L123.6 32.8 127.45 32.8 M129.15 29.9 L128.4 28.85 129.15 29.9 M125.0 29.9 L124.25 28.9 125.0 29.9 M125.6 36.65 L126.3 36.65 127.65 35.05 131.45 35.05 127.65 35.05 126.3 36.65 125.6 36.65 M125.35 36.65 L123.6 36.65 125.35 36.65 M98.5 33.05 L90.95 33.05 98.5 33.05 M82.7 26.75 L82.4 28.25 82.7 26.75 M96.4 49.8 L88.6 49.8 96.4 49.8 M83.55 43.8 L88.75 43.8 83.55 43.8 M83.15 40.65 L87.55 40.65 83.15 40.65 M154.7 52.45 L150.75 52.45 154.7 52.45 M121.6 49.55 L115.35 43.95 121.6 49.55 M150.5 52.45 L141.1 52.5 150.5 52.45 M36.7 19.75 L38.8 19.75 38.1 22.55 39.5 22.55 38.25 27.05 35.35 25.1 36.7 19.75 M43.8 19.75 L45.9 19.75 45.1 22.55 46.5 22.55 45.25 27.05 42.5 25.1 43.8 19.75 M50.85 19.75 L52.9 19.75 52.2 22.55 53.5 22.55 52.4 27.05 49.6 25.1 50.85 19.75 M58.9 31.0 L52.4 40.45 45.2 40.45 46.85 38.0 50.75 32.45 51.8 31.0 58.9 31.0 M37.5 38.0 L41.4 32.5 41.45 32.45 42.35 31.0 49.55 31.0 48.45 32.45 47.25 34.25 44.7 37.95 44.6 38.0 43.0 40.45 35.85 40.45 37.5 38.0 M69.5 28.25 L71.05 28.25 73.95 28.25 76.75 28.25 79.55 28.25 79.65 28.25 79.55 28.25 76.75 28.25 73.95 28.25 71.05 28.25 69.5 28.25 M75.4 51.75 L80.4 51.75 80.25 52.0 78.7 52.0 75.15 52.0 75.4 51.75 M74.2 26.75 L73.95 28.25 74.2 26.75 M71.4 26.75 L71.05 28.25 71.4 26.75 M79.95 26.75 L79.55 28.25 79.95 26.75 M77.1 26.75 L76.75 28.25 77.1 26.75 M68.6 26.75 L68.25 28.3 68.6 26.75 M35.1 42.65 L38.7 48.45 38.75 48.85 32.7 47.0 31.25 43.8 28.8 42.65 35.1 42.65 M27.5 8.25 L25.85 8.7 27.5 8.25 M170.5 52.45 L161.1 52.5 170.5 52.45" fill="#4c4c4c" fill-rule="evenodd" stroke="none"/>
      <path d="M108.8 48.3 L96.9 48.3 93.25 48.3 92.7 46.0 93.25 48.3 90.5 48.3 88.75 43.8 87.55 40.65 86.85 38.95 90.25 38.95 90.8 40.65 91.95 43.8 92.7 46.0 100.4 46.0 101.95 46.0 106.35 46.0 108.3 47.8 108.8 48.3 M46.0 54.75 L36.7 54.35 24.75 43.15 24.75 41.8 34.55 41.8 35.1 42.65 28.8 42.65 31.25 43.8 32.7 47.0 38.75 48.85 38.7 48.45 38.85 48.7 45.25 48.7 51.75 48.7 54.85 51.75 75.4 51.75 75.15 52.0 72.45 52.0 65.45 52.0 58.4 52.0 51.4 52.0 44.4 52.0 41.8 52.0 38.75 48.85 41.8 52.0 44.4 52.0 46.0 54.75 M24.75 40.45 L24.75 38.4 31.15 40.45 24.75 40.45 M158.0 12.7 L165.65 12.7 165.65 15.0 165.65 17.65 146.4 17.65 131.95 17.65 130.8 17.65 130.8 15.6 130.8 13.45 131.55 12.75 134.5 12.75 146.15 12.7 150.45 12.7 154.7 12.7 158.0 12.7 M204.75 43.45 L208.7 43.45 218.5 43.45 218.5 50.15 204.75 50.15 204.75 43.45 M180.65 36.05 L180.5 36.25 180.35 36.05 180.65 36.05 M178.2 38.2 L191.9 38.2 191.9 50.15 178.2 50.15 178.2 38.2 M160.05 48.25 L169.95 48.25 169.95 40.1 160.05 40.1 160.05 48.25 M190.0 40.1 L180.15 40.1 180.15 48.25 190.0 48.25 190.0 40.1 M171.85 38.2 L171.85 50.15 158.2 50.15 158.2 38.2 171.85 38.2 M150.45 12.7 L138.45 15.6 130.8 15.6 138.45 15.6 150.45 12.7 M165.65 15.0 L154.6 15.0 146.4 17.65 154.6 15.0 165.65 15.0 M122.1 12.25 L127.35 12.25 127.35 25.05 125.9 25.05 123.8 25.05 121.7 25.05 105.5 25.05 105.5 18.65 106.55 18.65 122.1 18.65 122.1 13.75 122.1 18.65 106.55 18.65 106.55 16.7 106.55 13.75 122.1 13.75 122.1 12.25 M138.15 38.65 L138.15 38.2 151.8 38.2 151.8 50.15 138.15 50.15 138.15 47.2 138.15 44.7 138.15 41.25 138.15 38.65 M119.5 28.9 L119.5 43.95 115.35 43.95 115.35 43.1 115.35 36.4 103.05 36.4 101.35 36.4 101.35 28.9 119.5 28.9 M103.05 38.85 L103.05 36.4 115.35 36.4 115.35 43.1 103.05 43.1 103.05 38.85 M149.95 40.1 L140.0 40.1 140.0 48.25 149.95 48.25 149.95 40.1 M160.65 36.05 L160.45 36.25 160.3 36.05 160.65 36.05 M61.15 28.3 L65.45 28.3 68.25 28.3 69.3 28.3 58.9 31.0 51.8 31.0 50.75 32.45 49.7 32.45 50.55 31.0 49.55 31.0 42.35 31.0 41.45 32.45 39.25 32.45 36.75 36.0 36.05 31.7 37.65 28.3 57.05 28.3 61.15 28.3 M85.55 26.75 L88.65 26.75 92.7 30.25 89.2 30.25 85.55 26.75 M90.8 40.65 L87.55 40.65 90.8 40.65 M77.85 38.8 L75.7 38.85 73.35 38.85 74.7 35.65 75.6 35.65 77.35 35.65 77.85 38.8 M91.95 43.8 L88.75 43.8 91.95 43.8 M48.45 32.45 L49.55 31.0 48.55 32.45 48.45 32.45" fill="#666666" fill-rule="evenodd" stroke="none"/>
      <path d="M201.65 38.9 L201.65 43.45 204.3 43.45 204.75 43.45 204.75 50.15 206.1 51.65 202.7 54.75 200.0 51.8 197.7 54.75 194.8 52.45 191.9 50.15 191.9 38.2 194.8 36.0 197.95 33.65 198.85 34.55 201.65 37.4 201.65 38.9 M227.75 43.45 L227.75 50.15 222.7 54.75 218.5 50.15 218.5 43.45 227.75 43.45 M183.35 54.15 L182.7 54.75 179.9 51.8 177.65 54.75 174.8 52.45 174.8 36.0 174.8 52.45 171.85 50.15 171.85 38.2 174.8 36.0 177.95 33.65 180.35 36.05 180.5 36.25 178.2 38.2 178.2 50.15 180.15 51.65 179.9 51.8 180.15 51.65 180.4 51.85 180.6 52.0 181.25 52.5 181.85 52.95 182.0 53.15 182.25 53.35 183.35 54.15 M160.05 51.65 L157.65 54.75 154.7 52.45 154.7 36.0 154.7 52.45 151.8 50.15 151.8 38.2 154.7 36.0 157.9 33.65 160.3 36.05 160.45 36.25 158.2 38.2 158.2 50.15 160.05 51.65 M95.55 52.15 L95.55 53.3 89.7 53.3 89.7 52.15 95.55 52.15 M91.8 12.55 L94.25 12.55 95.4 13.75 99.3 18.2 100.8 19.9 100.8 25.35 100.75 33.35 100.7 38.85 98.5 38.9 98.5 33.35 98.5 33.05 98.5 26.85 98.5 20.0 96.9 18.2 99.3 18.2 96.9 18.2 96.4 17.65 94.95 17.65 91.65 22.55 86.0 22.55 87.9 19.85 84.85 15.1 94.1 15.1 91.8 12.55 M201.65 43.45 L201.65 49.65 200.0 51.8 201.65 49.65 201.65 43.45 M194.8 36.0 L194.8 52.45 194.8 36.0 M94.1 15.1 L96.4 17.65 94.1 15.1 M100.8 19.9 L98.5 20.0 100.8 19.9 M100.75 33.35 L98.5 33.35 100.75 33.35 M81.75 31.0 L82.6 37.05 83.15 40.65 83.35 42.25 83.55 43.8 83.8 45.3 83.15 49.25 79.65 42.25 77.9 38.8 77.85 38.8 77.35 35.65 78.2 35.65 80.75 30.9 81.75 31.0 M100.4 46.0 Q100.0 44.05 98.75 42.45 L97.3 41.0 Q95.7 39.65 93.85 38.9 L96.2 38.9 Q100.95 40.35 101.95 46.0 L100.4 46.0 M79.65 42.25 L83.35 42.25 79.65 42.25 M108.8 48.3 L108.3 47.8 109.05 48.5 108.8 48.3 M58.9 31.0 L60.1 31.0 55.8 38.0 52.4 40.45 58.9 31.0 M43.0 40.45 L44.6 38.0 44.7 37.95 47.25 34.25 48.55 32.45 49.55 31.0 50.55 31.0 49.7 32.45 46.45 38.0 43.0 40.45 M62.05 40.45 L65.35 35.65 67.4 35.65 62.05 40.45 M73.1 35.65 L74.7 35.65 73.35 38.85 71.85 38.85 73.1 35.65" fill="#7f7f7f" fill-rule="evenodd" stroke="none"/>
      <path d="M242.6 32.85 L240.35 39.15 233.0 39.15 235.25 32.85 242.6 32.85" fill="url(#gradient1)" fill-rule="evenodd" stroke="none"/>
      <path d="M81.3 61.2 L77.65 61.2 75.95 58.4 74.3 61.2 70.5 61.2 68.95 58.4 67.3 61.2 63.6 61.2 61.85 58.4 60.3 61.2 56.5 61.2 54.95 58.4 53.3 61.2 49.5 61.2 46.0 54.75 44.4 52.0 51.4 52.0 58.4 52.0 65.45 52.0 72.45 52.0 75.15 52.0 78.7 52.0 80.25 52.0 80.4 51.75 82.3 51.75 85.5 51.75 86.0 50.95 85.5 49.8 88.6 49.8 89.7 52.15 89.7 53.3 86.15 57.15 83.7 57.15 81.3 61.2 M13.65 31.55 L0.45 16.9 4.2 16.4 12.25 15.1 13.15 25.4 13.65 31.55 M20.15 12.55 L0.0 10.7 1.7 6.75 25.85 8.7 20.15 12.55 M35.6 6.05 L10.15 3.95 12.1 0.0 46.65 2.9 45.25 3.25 35.6 6.05 M168.4 41.95 L163.1 41.95 163.1 46.35 168.4 46.35 168.4 41.95 M190.0 40.1 L190.0 48.25 180.15 48.25 180.15 40.1 190.0 40.1 M160.05 48.25 L160.05 40.1 169.95 40.1 169.95 48.25 160.05 48.25 M188.55 41.95 L183.25 41.95 183.25 46.35 188.55 46.35 188.55 41.95 M147.7 9.7 L148.1 9.4 147.7 9.7 M150.45 12.7 L146.15 12.7 143.95 11.15 140.75 11.15 143.95 11.15 146.15 12.7 134.5 12.75 131.55 12.75 135.3 9.4 136.6 9.4 139.2 9.4 148.1 9.4 152.2 9.4 154.7 12.7 150.45 12.7 M138.85 9.7 L139.2 9.4 138.85 9.7 M140.8 10.5 L141.2 9.95 140.8 10.5 140.75 11.15 140.8 10.5 M136.2 9.7 L136.6 9.4 136.2 9.7 M135.5 11.8 L135.5 11.15 Q135.4 10.55 135.95 9.95 135.4 10.55 135.5 11.15 L135.5 11.8 136.15 11.15 138.15 11.15 136.15 11.15 135.5 11.8 134.5 12.75 135.5 11.8 M138.55 9.95 Q138.05 10.55 138.15 11.15 138.05 10.55 138.55 9.95 M140.75 11.15 L138.15 11.15 140.75 11.15 M106.55 18.65 L105.5 18.65 105.5 25.05 121.7 25.05 123.8 25.05 125.9 25.05 127.35 25.05 128.05 25.05 130.1 25.05 130.8 25.05 130.8 24.95 131.65 24.95 132.05 25.75 133.3 24.95 132.05 25.75 131.65 24.95 133.3 24.95 133.7 24.95 134.15 25.75 135.4 24.95 134.15 25.75 133.7 24.95 135.4 24.95 135.8 24.95 136.2 25.75 137.55 24.95 136.2 25.75 135.8 24.95 137.55 24.95 137.9 24.95 139.6 24.95 138.3 25.75 137.9 24.95 138.3 25.75 139.6 24.95 143.15 24.95 146.25 24.95 149.7 24.95 155.35 24.95 155.35 28.8 149.5 28.8 146.15 28.8 143.15 28.8 139.6 28.8 139.6 24.95 139.6 28.8 133.55 28.85 130.5 28.85 128.4 28.85 Q127.9 27.95 127.8 26.9 127.9 27.95 128.4 28.85 L126.3 28.9 124.25 28.9 123.6 28.9 122.1 28.9 119.5 28.9 101.35 28.9 101.35 36.4 103.05 36.4 103.05 38.85 100.7 38.85 103.05 38.85 103.05 43.1 106.35 46.0 101.95 46.0 Q100.95 40.35 96.2 38.9 L98.5 38.9 100.7 38.85 100.75 33.35 100.8 25.35 103.0 25.35 105.4 27.85 121.7 27.85 122.1 28.9 121.7 27.85 105.4 27.85 103.0 25.35 100.8 25.35 100.8 19.9 99.3 18.2 100.15 18.2 102.25 16.7 106.55 16.7 102.25 16.7 100.15 18.2 99.3 18.2 95.4 13.75 103.45 13.75 106.55 13.75 106.55 16.7 106.55 18.65 M129.9 26.65 L130.1 25.05 129.9 26.65 M143.15 24.95 L143.15 28.8 143.15 24.95 M127.8 26.65 L128.05 25.05 127.8 26.65 M129.9 26.9 Q130.0 27.95 130.5 28.85 130.0 27.95 129.9 26.9 M125.75 26.65 L125.9 25.05 125.75 26.65 M123.65 26.65 L123.8 25.05 123.65 26.65 M121.55 26.65 L121.7 25.05 121.55 26.65 M123.65 26.9 Q123.75 28.0 124.25 28.9 123.75 28.0 123.65 26.9 M121.55 26.9 L121.7 27.85 121.55 26.9 M126.3 28.9 Q125.85 28.0 125.75 26.9 125.85 28.0 126.3 28.9 M127.2 41.25 L129.6 44.7 133.7 44.7 129.6 44.7 127.2 41.25 125.6 41.25 127.2 41.25 138.15 41.25 138.15 44.7 138.15 47.2 128.85 47.2 123.6 42.5 123.6 41.25 123.6 38.65 138.15 38.65 138.15 41.25 127.2 41.25 M125.35 41.25 L123.6 41.25 125.35 41.25 M133.95 44.7 L138.15 44.7 133.95 44.7 M149.95 40.1 L149.95 48.25 140.0 48.25 140.0 40.1 149.95 40.1 M149.5 28.8 L149.7 24.95 149.5 28.8 M146.15 28.8 L146.25 24.95 146.15 28.8 M148.4 41.95 L143.1 41.95 143.1 46.35 148.4 46.35 148.4 41.95 M106.55 16.7 L103.45 13.75 106.55 16.7 M62.2 24.2 L61.15 28.3 57.05 28.3 58.65 22.55 62.65 22.55 62.2 24.2 M81.4 28.25 L82.4 28.25 82.8 28.25 Q86.65 29.4 85.05 33.4 L83.7 35.85 82.6 37.05 81.75 31.0 82.3 31.0 82.65 30.1 81.4 28.25 M80.5 55.2 L81.65 57.15 83.7 57.15 81.65 57.15 80.5 55.2 M40.2 22.55 L40.95 19.75 43.8 19.75 42.5 25.1 39.7 25.1 40.2 22.55 M47.3 22.55 L48.0 19.75 50.85 19.75 49.6 25.1 46.7 25.1 47.3 22.55 M55.8 38.0 L60.1 31.0 58.9 31.0 69.3 28.3 69.5 28.25 68.0 31.0 61.45 31.0 56.55 38.0 55.8 38.0 M50.75 32.45 L46.85 38.0 46.45 38.0 49.7 32.45 50.75 32.45 M41.45 32.45 L41.4 32.5 37.5 38.0 35.3 38.0 36.75 36.0 39.25 32.45 41.45 32.45 M47.25 34.25 L48.45 32.45 48.55 32.45 47.25 34.25 M33.15 22.55 L33.85 19.75 36.7 19.75 35.35 25.1 32.6 25.1 33.15 22.55 M4.2 16.4 L13.15 25.4 4.2 16.4 M20.65 29.9 L20.75 30.0 20.65 30.0 20.65 29.9 M80.25 54.75 L78.7 52.0 80.25 54.75 M74.05 54.75 L72.45 52.0 74.05 54.75 M67.05 54.75 L65.45 52.0 67.05 54.75 M75.95 58.4 L74.2 55.2 75.95 58.4 M54.95 58.4 L53.2 55.2 54.95 58.4 M52.9 54.75 L51.4 52.0 52.9 54.75 M60.05 54.75 L58.4 52.0 60.05 54.75 M67.2 55.2 L68.95 58.4 67.2 55.2 M61.85 58.4 L60.2 55.2 61.85 58.4" fill="#333333" fill-rule="evenodd" stroke="none"/>
      <path d="M168.4 41.95 L168.4 46.35 163.1 46.35 163.1 41.95 168.4 41.95" fill="url(#gradient2)" fill-rule="evenodd" stroke="none"/>
      <path d="M188.55 41.95 L188.55 46.35 183.25 46.35 183.25 41.95 188.55 41.95" fill="url(#gradient3)" fill-rule="evenodd" stroke="none"/>
      <path d="M178.2 17.6 L182.6 15.2 208.95 15.2 195.6 17.6 178.2 17.6" fill="url(#gradient4)" fill-rule="evenodd" stroke="none"/>
      <path d="M107.55 12.55 L112.75 7.8 127.05 7.8 128.25 6.75 133.5 6.75 127.35 12.25 122.1 12.25 122.1 13.75 106.55 13.75 107.55 12.55 M122.1 12.25 L127.05 7.8 122.1 12.25" fill="#8e8e8e" fill-rule="evenodd" stroke="none"/>
      <path d="M148.4 41.95 L148.4 46.35 143.1 46.35 143.1 41.95 148.4 41.95" fill="url(#gradient5)" fill-rule="evenodd" stroke="none"/>
      <path d="M64.45 9.65 L77.75 9.65 80.3 12.55 83.2 12.55 86.1 12.55 91.8 12.55 94.1 15.1 84.85 15.1 87.9 19.85 86.0 22.55 62.65 22.55 58.65 22.55 53.5 22.55 52.2 22.55 52.9 19.75 50.85 19.75 48.0 19.75 47.3 22.55 46.5 22.55 45.1 22.55 45.9 19.75 43.8 19.75 40.95 19.75 40.2 22.55 39.5 22.55 38.1 22.55 38.8 19.75 36.7 19.75 37.4 13.35 36.7 19.75 33.85 19.75 33.15 22.55 26.85 22.55 28.8 13.35 37.4 13.35 46.05 13.35 46.25 9.65 58.25 9.65 64.45 9.65 M94.25 12.55 L102.15 12.55 107.55 12.55 106.55 13.75 103.45 13.75 102.15 12.55 103.45 13.75 95.4 13.75 94.25 12.55 M84.85 15.1 L83.2 12.55 84.85 15.1 M58.25 9.65 L65.15 14.7 77.5 14.7 77.5 19.75 52.9 19.75 77.5 19.75 77.5 14.7 65.15 14.7 58.25 9.65 M87.9 19.85 L77.5 19.75 87.9 19.85" fill="#808080" fill-rule="evenodd" stroke="none"/>
      <path d="M50.9 1.65 L61.1 1.65 64.45 9.65 58.25 9.65 46.25 9.65 50.9 1.65 M77.75 9.65 L83.25 9.65 86.1 12.55 83.2 12.55 80.3 12.55 77.75 9.65 M59.8 2.85 L56.75 2.85 57.3 8.4 62.15 8.4 59.8 2.85 M51.95 2.85 L48.95 8.35 55.15 8.35 55.7 2.85 51.95 2.85" fill="#999999" fill-rule="evenodd" stroke="none"/>
      <path d="M86.0 22.55 L91.65 22.55 94.95 17.65 96.4 17.65 96.9 18.2 98.5 20.0 98.5 26.85 92.55 26.85 90.65 24.2 62.2 24.2 62.65 22.55 86.0 22.55 M75.7 38.85 L77.4 42.05 82.3 51.75 80.4 51.75 75.4 51.75 54.85 51.75 51.75 48.7 45.25 48.7 42.65 44.95 72.3 44.95 77.4 42.05 72.3 44.95 42.65 44.95 45.25 48.7 38.85 48.7 38.7 48.45 35.1 42.65 65.55 42.65 66.15 41.8 68.0 38.85 71.85 38.85 73.35 38.85 75.7 38.85" fill="#939393" fill-rule="evenodd" stroke="none"/>
      <path d="M81.4 28.25 L82.65 30.1 82.3 31.0 81.75 31.0 80.75 30.9 78.2 35.65 77.35 35.65 75.6 35.65 79.65 28.25 81.4 28.25 M89.05 35.85 L90.25 38.95 86.85 38.95 85.35 35.85 89.05 35.85 M83.15 49.25 L85.25 49.25 85.5 49.8 86.0 50.95 85.5 51.75 82.3 51.75 77.4 42.05 75.7 38.85 77.85 38.8 77.9 38.8 79.65 42.25 83.15 49.25" fill="#696969" fill-rule="evenodd" stroke="none"/>
      <path d="M92.7 30.25 L90.95 33.05 89.05 35.85 85.35 35.85 89.2 30.25 92.7 30.25" fill="#515151" fill-rule="evenodd" stroke="none"/>
      <path d="M51.95 2.85 L55.7 2.85 55.15 8.35 48.95 8.35 51.95 2.85" fill="url(#gradient6)" fill-rule="evenodd" stroke="none"/>
      <path d="M59.8 2.85 L62.15 8.4 57.3 8.4 56.75 2.85 59.8 2.85" fill="url(#gradient7)" fill-rule="evenodd" stroke="none"/>
      <path d="M48.65 2.3 L50.9 1.65 46.25 9.65 46.05 13.35 37.4 13.35 28.8 13.35 35.6 6.05 45.25 3.25 46.65 2.9 48.65 2.3 M45.25 3.25 L37.4 13.35 45.25 3.25" fill="url(#gradient8)" fill-rule="evenodd" stroke="none"/>
      <path d="M24.75 38.4 L15.4 35.0 13.65 32.8 13.65 31.55 13.15 25.4 12.25 15.1 22.0 15.1 23.0 14.7 28.8 13.35 26.85 22.55 22.25 28.8 17.95 30.2 13.15 25.4 17.95 30.2 22.25 28.8 26.85 22.55 33.15 22.55 32.6 25.1 35.35 27.05 38.25 27.05 39.5 22.55 40.2 22.55 39.7 25.1 42.5 27.05 45.25 27.05 46.5 22.55 47.3 22.55 46.7 25.1 49.6 27.05 52.4 27.05 53.5 22.55 58.65 22.55 57.05 28.3 37.65 28.3 36.05 31.7 36.75 36.0 35.3 38.0 33.7 40.45 31.15 40.45 24.75 38.4 M16.35 19.6 L18.2 18.85 18.2 24.95 16.35 24.95 16.35 19.6 16.35 24.95 18.2 24.95 18.2 18.85 16.35 19.6 M17.95 30.2 L13.65 31.55 17.95 30.2 M13.65 32.8 L30.8 32.8 35.35 27.05 30.8 32.8 13.65 32.8 M20.75 30.0 L20.65 29.9 20.65 30.0 20.75 30.0 M19.25 18.8 L21.1 18.0 21.1 24.95 19.25 24.95 19.25 18.8 19.25 24.95 21.1 24.95 21.1 18.0 19.25 18.8" fill="url(#gradient9)" fill-rule="evenodd" stroke="none"/>
      <path d="M46.7 25.1 L49.6 25.1 52.4 27.05 49.6 27.05 46.7 25.1 M45.25 27.05 L42.5 27.05 39.7 25.1 42.5 25.1 45.25 27.05 M32.6 25.1 L35.35 25.1 38.25 27.05 35.35 27.05 32.6 25.1" fill="#262626" fill-rule="evenodd" stroke="none"/>
      <path d="M55.8 38.0 L56.55 38.0 54.9 40.45 62.05 40.45 67.4 35.65 73.1 35.65 71.85 38.85 68.0 38.85 66.15 41.8 34.55 41.8 33.7 40.45 37.5 38.0 35.85 40.45 43.0 40.45 46.45 38.0 46.85 38.0 45.2 40.45 52.4 40.45 55.8 38.0" fill="url(#gradient10)" fill-rule="evenodd" stroke="none"/>
      <path d="M66.15 41.8 L65.55 42.65 35.1 42.65 34.55 41.8 66.15 41.8" fill="#721a1a" fill-rule="evenodd" stroke="none"/>
      <path d="M35.3 38.0 L37.5 38.0 33.7 40.45 35.3 38.0" fill="#ba2a25" fill-rule="evenodd" stroke="none"/>
      <path d="M226.9 20.85 L224.65 14.55 217.25 14.55 219.5 20.85 226.9 20.85 M242.6 32.85 L240.35 39.15 233.0 39.15 235.25 32.85 242.6 32.85 M168.4 41.95 L163.1 41.95 163.1 46.35 168.4 46.35 168.4 41.95 M160.05 48.25 L169.95 48.25 169.95 40.1 160.05 40.1 160.05 48.25 M190.0 40.1 L180.15 40.1 180.15 48.25 190.0 48.25 190.0 40.1 M188.55 41.95 L183.25 41.95 183.25 46.35 188.55 46.35 188.55 41.95 M171.85 50.15 L171.85 38.2 158.2 38.2 158.2 50.15 171.85 50.15 M141.2 9.95 L140.8 10.5 M146.4 17.65 L154.6 15.0 165.65 15.0 M121.7 25.05 L121.55 26.65 M122.1 28.9 L121.7 27.85 105.4 27.85 103.0 25.35 100.8 25.35 100.75 33.35 100.7 38.85 103.05 38.85 103.05 36.4 101.35 36.4 101.35 28.9 119.5 28.9 M121.7 27.85 L121.55 26.9 M149.95 40.1 L140.0 40.1 140.0 48.25 149.95 48.25 149.95 40.1 M148.4 41.95 L143.1 41.95 143.1 46.35 148.4 46.35 148.4 41.95 M94.25 12.55 L95.4 13.75 103.45 13.75 M98.5 26.85 L98.5 33.05 98.5 33.35 100.75 33.35 M98.5 26.85 L92.55 26.85 90.65 24.2 62.2 24.2 61.15 28.3 65.45 28.3 65.8 26.75 68.6 26.75 71.4 26.75 74.2 26.75 77.1 26.75 79.95 26.75 82.7 26.75 85.55 26.75 88.65 26.75 92.7 30.25 90.95 33.05 98.5 33.05 M81.4 28.25 L82.65 30.1 82.3 31.0 81.75 31.0 82.6 37.05 M90.95 33.05 L89.05 35.85 90.25 38.95 90.8 40.65 91.95 43.8 92.7 46.0 100.4 46.0 Q100.0 44.05 98.75 42.45 L93.85 42.45 90.95 33.05 M85.35 35.85 L89.05 35.85 M86.85 38.95 L87.55 40.65 90.8 40.65 M86.85 38.95 L85.35 35.85 M83.35 42.25 L83.15 40.65 82.6 37.05 M85.5 49.8 L85.25 49.25 83.15 49.25 79.65 42.25 77.9 38.8 77.85 38.8 75.7 38.85 77.4 42.05 82.3 51.75 85.5 51.75 86.0 50.95 85.5 49.8 88.6 49.8 96.4 49.8 M83.15 49.25 L83.8 45.3 83.55 43.8 83.35 42.25 79.65 42.25 M90.5 48.3 L88.75 43.8 83.55 43.8 M88.75 43.8 L87.55 40.65 83.15 40.65 M90.5 48.3 L83.8 45.3 M98.5 38.9 L96.2 38.9 Q100.95 40.35 101.95 46.0 L106.35 46.0 103.05 43.1 103.05 38.85 M96.2 38.9 L93.85 38.9 Q95.7 39.65 97.3 41.0 L98.75 42.45 M100.7 38.85 L98.5 38.9 98.5 33.35 M92.7 46.0 L93.25 48.3 96.9 48.3 M89.2 30.25 L92.7 30.25 M88.75 43.8 L91.95 43.8 M93.25 48.3 L90.5 48.3 M108.3 47.8 L106.35 46.0 M108.8 48.3 L108.3 47.8 109.05 48.5 108.8 48.3 M115.35 43.1 L115.35 43.95 119.5 43.95 M115.35 43.1 L115.35 36.4 103.05 36.4 M103.05 43.1 L115.35 43.1 M98.5 26.85 L98.5 20.0 M100.4 46.0 L101.95 46.0 M89.7 52.15 L88.6 49.8 M89.7 53.3 L95.55 53.3 M86.15 57.15 L83.7 57.15 81.3 61.2 M83.7 57.15 L81.65 57.15 80.5 55.2 M86.85 57.15 L86.15 57.15 89.7 53.3 M95.55 52.15 L89.7 52.15 M150.75 52.45 L154.7 52.45 151.8 50.15 M158.2 50.15 L160.05 51.65 M138.15 50.15 L138.4 50.35 M141.1 52.5 L150.5 52.45 M115.35 43.95 L121.6 49.55 M52.9 19.75 L77.5 19.75 77.5 14.7 65.15 14.7 58.25 9.65 46.25 9.65 46.05 13.35 37.4 13.35 36.7 19.75 38.8 19.75 38.1 22.55 39.5 22.55 40.2 22.55 40.95 19.75 43.8 19.75 45.9 19.75 45.1 22.55 46.5 22.55 47.3 22.55 48.0 19.75 50.85 19.75 52.9 19.75 52.2 22.55 53.5 22.55 58.65 22.55 62.65 22.55 86.0 22.55 M62.2 24.2 L62.65 22.55 M59.8 2.85 L62.15 8.4 57.3 8.4 56.75 2.85 59.8 2.85 M51.95 2.85 L48.95 8.35 55.15 8.35 55.7 2.85 51.95 2.85 M46.65 2.9 L48.65 2.3 M35.6 6.05 L45.25 3.25 46.65 2.9 12.1 0.0 M50.9 1.65 L46.25 9.65 M58.9 31.0 L60.1 31.0 55.8 38.0 56.55 38.0 61.45 31.0 68.0 31.0 69.5 28.25 69.3 28.3 58.9 31.0 52.4 40.45 55.8 38.0 M58.9 31.0 L51.8 31.0 50.75 32.45 46.85 38.0 45.2 40.45 52.4 40.45 M46.7 25.1 L49.6 25.1 50.85 19.75 M52.4 27.05 L49.6 27.05 46.7 25.1 47.3 22.55 M45.25 27.05 L42.5 27.05 39.7 25.1 40.2 22.55 M45.25 27.05 L42.5 25.1 39.7 25.1 M37.5 38.0 L41.4 32.5 41.45 32.45 39.25 32.45 36.75 36.0 35.3 38.0 37.5 38.0 35.85 40.45 43.0 40.45 44.6 38.0 44.7 37.95 47.25 34.25 48.55 32.45 48.45 32.45 M49.55 31.0 L42.35 31.0 41.45 32.45 M49.55 31.0 L50.55 31.0 49.7 32.45 50.75 32.45 M49.55 31.0 L48.55 32.45 M46.45 38.0 L46.85 38.0 M43.0 40.45 L46.45 38.0 49.7 32.45 M45.25 48.7 L42.65 44.95 72.3 44.95 77.4 42.05 M56.55 38.0 L54.9 40.45 62.05 40.45 65.35 35.65 67.4 35.65 73.1 35.65 74.7 35.65 75.6 35.65 79.65 28.25 79.55 28.25 76.75 28.25 73.95 28.25 71.05 28.25 69.5 28.25 M45.25 48.7 L51.75 48.7 54.85 51.75 75.4 51.75 80.4 51.75 82.3 51.75 M52.4 27.05 L49.6 25.1 M76.75 28.25 L77.1 26.75 M79.55 28.25 L79.95 26.75 M71.05 28.25 L71.4 26.75 M73.95 28.25 L74.2 26.75 M81.75 31.0 L80.75 30.9 78.2 35.65 77.35 35.65 77.85 38.8 M77.35 35.65 L75.6 35.65 M69.3 28.3 L68.25 28.3 65.45 28.3 M68.25 28.3 L68.6 26.75 M71.85 38.85 L68.0 38.85 66.15 41.8 65.55 42.65 35.1 42.65 38.7 48.45 38.85 48.7 45.25 48.7 M75.7 38.85 L73.35 38.85 71.85 38.85 73.1 35.65 M62.05 40.45 L67.4 35.65 M73.35 38.85 L74.7 35.65 M58.25 9.65 L64.45 9.65 M57.05 28.3 L61.15 28.3 M53.5 22.55 L52.4 27.05 M57.05 28.3 L58.65 22.55 M46.5 22.55 L45.25 27.05 M42.5 25.1 L43.8 19.75 M25.85 8.7 L27.5 8.25 M28.8 13.35 L23.0 14.7 22.0 15.1 12.25 15.1 M13.15 25.4 L17.95 30.2 22.25 28.8 26.85 22.55 28.8 13.35 35.6 6.05 M36.7 19.75 L33.85 19.75 33.15 22.55 32.6 25.1 35.35 25.1 36.7 19.75 M37.4 13.35 L28.8 13.35 M26.85 22.55 L33.15 22.55 M16.35 19.6 L16.35 24.95 18.2 24.95 18.2 18.85 16.35 19.6 M13.15 25.4 L4.2 16.4 M13.65 31.55 L17.95 30.2 M35.35 25.1 L38.25 27.05 39.5 22.55 M38.25 27.05 L35.35 27.05 30.8 32.8 13.65 32.8 M35.35 27.05 L32.6 25.1 M36.75 36.0 L36.05 31.7 37.65 28.3 57.05 28.3 M20.75 30.0 L20.65 30.0 20.65 29.9 M33.7 40.45 L31.15 40.45 24.75 40.45 M35.1 42.65 L34.55 41.8 24.75 41.8 M35.3 38.0 L33.7 40.45 M34.55 41.8 L33.7 40.45 M38.75 48.85 L32.7 47.0 31.25 43.8 28.8 42.65 35.1 42.65 M38.7 48.45 L38.75 48.85 41.8 52.0 44.4 52.0 51.4 52.0 58.4 52.0 65.45 52.0 72.45 52.0 75.15 52.0 75.4 51.75 M31.15 40.45 L24.75 38.4 M20.15 12.55 L25.85 8.7 1.7 6.75 M19.25 18.8 L19.25 24.95 21.1 24.95 21.1 18.0 19.25 18.8 M78.7 52.0 L80.25 54.75 M80.4 51.75 L80.25 52.0 78.7 52.0 75.15 52.0 M72.45 52.0 L74.05 54.75 M77.65 61.2 L75.95 58.4 74.3 61.2 M74.2 55.2 L75.95 58.4 M65.45 52.0 L67.05 54.75 M63.6 61.2 L61.85 58.4 60.3 61.2 M70.5 61.2 L68.95 58.4 67.3 61.2 M68.95 58.4 L67.2 55.2 M58.4 52.0 L60.05 54.75 M51.4 52.0 L52.9 54.75 M53.2 55.2 L54.95 58.4 56.5 61.2 M54.95 58.4 L53.3 61.2 M46.0 54.75 L44.4 52.0 M60.2 55.2 L61.85 58.4 M37.4 13.35 L45.25 3.25 M66.15 41.8 L34.55 41.8 M79.65 28.25 L81.4 28.25 M77.5 19.75 L87.9 19.85 M161.1 52.5 L170.5 52.45" fill="none" stroke-width="0.7" stroke="#000000" stroke-opacity="0.4"/>
      <path d="M208.95 15.2 L206.2 21.85 209.2 21.85 211.95 15.2 208.95 15.2 206.6 12.05 193.6 12.05 189.25 12.05 184.95 12.05 180.55 12.05 176.25 12.05 171.85 12.05 173.8 17.6 178.2 17.6 182.6 15.2 208.95 15.2 195.6 17.6 178.2 17.6 M211.95 15.2 L208.85 12.05 206.6 12.05 M209.55 28.8 L205.15 28.8 201.65 38.9 201.65 43.45 204.3 43.45 209.55 28.8 213.9 28.8 233.4 28.8 246.45 28.8 241.3 43.45 228.25 43.45 227.75 43.45 227.75 50.15 222.7 54.75 209.0 54.75 206.1 51.65 202.7 54.75 197.7 54.75 184.1 54.75 183.35 54.15 182.7 54.75 177.65 54.75 164.1 54.75 161.1 52.5 160.05 51.65 157.65 54.75 143.95 54.75 141.1 52.5 138.4 50.35 126.75 50.35 122.5 50.35 121.6 49.55 110.15 49.55 108.8 48.3 96.9 48.3 96.4 49.8 95.55 52.15 95.55 53.3 92.0 57.15 86.85 57.15 84.4 61.2 81.3 61.2 77.65 61.2 74.3 61.2 70.5 61.2 67.3 61.2 63.6 61.2 60.3 61.2 56.5 61.2 53.3 61.2 49.5 61.2 46.0 54.75 36.7 54.35 24.75 43.15 24.75 41.8 24.75 40.45 24.75 38.4 15.4 35.0 13.65 32.8 13.65 31.55 0.45 16.9 4.2 16.4 12.25 15.1 20.15 12.55 0.0 10.7 1.7 6.75 8.55 6.75 27.5 8.25 35.6 6.05 10.15 3.95 12.1 0.0 18.2 0.0 48.65 2.3 50.9 1.65 61.1 1.65 64.45 9.65 77.75 9.65 83.25 9.65 86.1 12.55 91.8 12.55 94.25 12.55 102.15 12.55 107.55 12.55 112.75 7.8 127.05 7.8 128.25 6.75 133.5 6.75 153.1 6.75 158.0 12.7 165.65 12.7 165.65 10.3 175.6 10.3 179.9 10.3 184.3 10.3 188.6 10.3 192.95 10.3 212.5 10.3 225.55 10.3 230.75 24.95 217.7 24.95 198.15 24.95 193.85 24.95 189.45 24.95 185.15 24.95 180.85 24.95 158.85 24.95 158.85 28.8 192.15 28.8 196.55 28.8 200.9 28.8 205.15 28.8 M204.75 43.45 L208.7 43.45 213.9 28.8 M204.3 43.45 L204.75 43.45 204.75 50.15 218.5 50.15 218.5 43.45 208.7 43.45 M228.25 43.45 L233.4 28.8 M218.5 43.45 L227.75 43.45 M212.5 10.3 L217.7 24.95 M193.6 12.05 L192.95 10.3 M188.6 10.3 L189.25 12.05 M184.95 12.05 L184.3 10.3 M188.35 21.85 L184.1 21.85 185.15 24.95 M197.1 21.85 L192.75 21.85 193.85 24.95 M192.75 21.85 L188.35 21.85 189.45 24.95 M180.55 12.05 L179.9 10.3 M175.6 10.3 L176.25 12.05 M179.75 21.85 L175.35 21.85 173.8 17.6 M180.65 36.05 L180.5 36.25 178.2 38.2 191.9 38.2 194.8 36.0 197.95 33.65 194.85 33.65 190.45 33.65 M180.35 36.05 L177.95 33.65 174.8 36.0 174.8 52.45 177.65 54.75 179.9 51.8 180.15 51.65 178.2 50.15 178.2 38.2 M180.5 36.25 L180.35 36.05 180.65 36.05 180.85 35.9 183.5 33.65 190.45 33.65 M200.9 28.8 L198.85 34.55 201.65 37.4 201.65 38.9 M194.85 33.65 L196.55 28.8 M198.85 34.55 L197.95 33.65 M198.15 24.95 L197.1 21.85 206.2 21.85 M184.1 21.85 L179.75 21.85 M194.8 52.45 L197.7 54.75 200.0 51.8 201.65 49.65 201.65 43.45 M181.25 52.5 L181.85 52.95 182.0 53.15 182.25 53.35 183.35 54.15 M191.9 50.15 L194.8 52.45 194.8 36.0 M180.15 51.65 L180.4 51.85 180.6 52.0 181.25 52.5 M178.2 50.15 L191.9 50.15 191.9 38.2 M182.7 54.75 L179.9 51.8 M218.5 50.15 L222.7 54.75 M206.1 51.65 L204.75 50.15 M200.0 51.8 L202.7 54.75 M146.15 12.7 L150.45 12.7 154.7 12.7 152.2 9.4 148.1 9.4 139.2 9.4 M140.75 11.15 L143.95 11.15 146.15 12.7 134.5 12.75 131.55 12.75 130.8 13.45 130.8 15.6 138.45 15.6 150.45 12.7 M131.55 12.75 L135.3 9.4 136.6 9.4 139.2 9.4 M135.5 11.8 L136.15 11.15 138.15 11.15 140.75 11.15 M122.1 12.25 L127.35 12.25 133.5 6.75 M130.8 17.65 L130.8 15.6 M123.8 25.05 L125.9 25.05 127.35 25.05 127.35 12.25 M130.8 24.95 L130.8 23.3 130.8 20.5 130.8 17.65 131.95 17.65 M122.1 12.25 L122.1 13.75 106.55 13.75 106.55 16.7 102.25 16.7 100.15 18.2 99.3 18.2 96.9 18.2 96.4 17.65 94.1 15.1 91.8 12.55 M134.5 12.75 L135.5 11.8 M139.6 24.95 L137.9 24.95 138.3 25.75 139.6 24.95 143.15 24.95 146.25 24.95 149.7 24.95 155.35 24.95 155.35 28.8 M137.9 24.95 L137.55 24.95 136.2 25.75 135.8 24.95 135.4 24.95 134.15 25.75 133.7 24.95 133.3 24.95 132.05 25.75 131.65 24.95 130.8 24.95 130.8 25.05 130.1 25.05 M139.6 24.95 L139.6 28.8 143.15 28.8 143.15 24.95 M133.3 24.95 L131.65 24.95 130.8 23.3 M138.15 38.2 L133.55 28.85 133.55 29.9 133.55 31.3 131.45 31.3 131.45 32.8 131.45 35.05 131.45 35.8 138.15 38.65 138.15 38.2 140.75 35.9 143.45 33.65 149.2 33.65 133.55 28.85 139.6 28.8 M135.4 24.95 L133.7 24.95 M137.55 24.95 L135.8 24.95 M127.35 25.05 L128.05 25.05 130.1 25.05 M133.55 29.9 L131.25 29.9 129.15 29.9 127.05 29.9 125.0 29.9 123.6 29.9 123.6 32.8 M131.25 29.9 L130.5 28.85 128.4 28.85 129.15 29.9 M123.6 29.9 L123.6 28.9 124.25 28.9 125.0 29.9 M126.3 28.9 L124.25 28.9 M126.3 28.9 L128.4 28.85 M123.6 38.65 L123.6 36.65 123.6 32.8 M126.3 28.9 L127.05 29.9 M123.6 41.25 L123.6 38.65 138.15 38.65 138.15 41.25 138.15 44.7 138.15 47.2 138.15 50.15 151.8 50.15 151.8 38.2 138.15 38.2 M133.55 28.85 L130.5 28.85 M127.2 41.25 L138.15 41.25 M154.7 36.0 L154.7 35.9 140.75 35.9 M160.3 36.05 L157.9 33.65 154.7 36.0 154.7 52.45 157.65 54.75 M160.65 36.05 L160.45 36.25 M160.65 36.05 L160.3 36.05 160.45 36.25 M149.7 24.95 L149.5 28.8 155.35 28.8 M149.5 28.8 L146.15 28.8 143.15 28.8 M146.25 24.95 L146.15 28.8 M157.9 33.65 L149.2 33.65 M106.55 13.75 L107.55 12.55 M103.45 13.75 L106.55 13.75 M103.45 13.75 L106.55 16.7 M84.85 15.1 L94.1 15.1 M84.85 15.1 L87.9 19.85 86.0 22.55 91.65 22.55 94.95 17.65 96.4 17.65" fill="none" stroke="#000000" stroke-width="0.7" stroke-opacity="0.4"/>
      <path d="M165.65 12.7 L165.65 15.0 165.65 17.65 146.4 17.65 131.95 17.65 M171.85 38.2 L174.8 36.0 M189.2 35.9 L180.85 35.9 M171.85 50.15 L174.8 52.45 M140.8 10.5 L140.75 11.15 M135.95 9.95 Q135.4 10.55 135.5 11.15 L135.5 11.8 M127.05 7.8 L122.1 12.25 M122.1 13.75 L122.1 18.65 106.55 18.65 105.5 18.65 105.5 25.05 121.7 25.05 123.8 25.05 M131.95 18.4 L130.8 20.5 M125.75 26.9 Q125.85 28.0 126.3 28.9 M133.7 44.7 L129.6 44.7 127.2 41.25 M138.15 47.2 L128.85 47.2 123.6 42.5 123.6 41.25 M160.8 35.9 L160.65 36.05 M151.8 38.2 L154.7 36.0 M102.15 12.55 L103.45 13.75 M77.75 9.65 L80.3 12.55 83.2 12.55 86.1 12.55 M83.2 12.55 L84.85 15.1 M95.4 13.75 L99.3 18.2 M81.4 28.25 L82.4 28.25" fill="none" stroke="#000000" stroke-width="0.7" stroke-opacity="0.4"/>
      <path d="M131.95 17.65 L131.95 18.1 M194.8 36.0 L194.8 35.9 189.65 35.9 M190.45 33.65 L192.15 28.8 M174.8 36.0 L174.8 35.9 169.45 35.9 M177.95 33.65 L163.45 33.65 160.8 35.9 169.15 35.9 M179.75 21.85 L180.85 24.95 M194.8 52.45 L190.85 52.45 M181.25 52.5 L190.55 52.45 M174.8 52.45 L170.75 52.45 M148.1 9.4 L147.7 9.7 M139.2 9.4 L138.85 9.7 M154.7 12.7 L158.0 12.7 M136.6 9.4 L136.2 9.7 M138.15 11.15 Q138.05 10.55 138.55 9.95 M106.55 16.7 L106.55 18.65 M155.35 24.95 L158.85 24.95 M130.1 25.05 L129.9 26.65 M128.05 25.05 L127.8 26.65 M123.6 32.8 L127.45 32.8 M128.4 28.85 Q127.9 27.95 127.8 26.9 M130.5 28.85 Q130.0 27.95 129.9 26.9 M125.9 25.05 L125.75 26.65 M123.8 25.05 L123.65 26.65 M123.6 28.9 L122.1 28.9 119.5 28.9 119.5 43.95 126.75 50.35 M124.25 28.9 Q123.75 28.0 123.65 26.9 M131.45 35.05 L127.65 35.05 126.3 36.65 125.6 36.65 M123.6 36.65 L125.35 36.65 M131.45 32.8 L127.7 32.8 M127.2 41.25 L125.6 41.25 M123.6 41.25 L125.35 41.25 M138.15 44.7 L133.95 44.7 M155.35 28.8 L158.85 28.8 M160.45 36.25 L158.2 38.2 M99.3 18.2 L100.8 19.9 100.8 25.35 M96.9 18.2 L98.5 20.0 100.8 19.9 M82.4 28.25 L82.7 26.75 M82.4 28.25 L82.8 28.25 Q86.65 29.4 85.05 33.4 L83.7 35.85 85.35 35.85 89.2 30.25 85.55 26.75" fill="none" stroke="#000000" stroke-width="0.7" stroke-opacity="0.4"/>
    </g>
    <radialGradient cx="0" cy="0" gradientTransform="matrix(0.0102, 0.0, 0.0, 0.0102, 219.25, 17.5)" gradientUnits="userSpaceOnUse" id="gradient0" r="819.2" spreadMethod="pad">
      <stop offset="0.20392156862745098" stop-color="#ff3300"/>
      <stop offset="0.5607843137254902" stop-color="#8a1100"/>
      <stop offset="1.0" stop-color="#510000"/>
    </radialGradient>
    <radialGradient cx="0" cy="0" gradientTransform="matrix(0.0104, 0.0, 0.0, 0.0104, 234.75, 36.25)" gradientUnits="userSpaceOnUse" id="gradient1" r="819.2" spreadMethod="pad">
      <stop offset="0.20392156862745098" stop-color="#ff3300"/>
      <stop offset="0.5607843137254902" stop-color="#8a1100"/>
      <stop offset="1.0" stop-color="#510000"/>
    </radialGradient>
    <radialGradient cx="0" cy="0" gradientTransform="matrix(0.0063, 0.0, 0.0, 0.0063, 167.7, 43.95)" gradientUnits="userSpaceOnUse" id="gradient2" r="819.2" spreadMethod="pad">
      <stop offset="0.29411764705882354" stop-color="#ff3300"/>
      <stop offset="1.0" stop-color="#990000"/>
    </radialGradient>
    <radialGradient cx="0" cy="0" gradientTransform="matrix(0.0063, 0.0, 0.0, 0.0063, 187.8, 43.95)" gradientUnits="userSpaceOnUse" id="gradient3" r="819.2" spreadMethod="pad">
      <stop offset="0.29411764705882354" stop-color="#ff3300"/>
      <stop offset="1.0" stop-color="#990000"/>
    </radialGradient>
    <radialGradient cx="0" cy="0" gradientTransform="matrix(0.0253, 0.0, 0.0, 0.0253, 188.25, 16.05)" gradientUnits="userSpaceOnUse" id="gradient4" r="819.2" spreadMethod="pad">
      <stop offset="0.29411764705882354" stop-color="#ff3300"/>
      <stop offset="1.0" stop-color="#990000"/>
    </radialGradient>
    <radialGradient cx="0" cy="0" gradientTransform="matrix(0.0063, 0.0, 0.0, 0.0063, 147.7, 43.95)" gradientUnits="userSpaceOnUse" id="gradient5" r="819.2" spreadMethod="pad">
      <stop offset="0.29411764705882354" stop-color="#ff3300"/>
      <stop offset="1.0" stop-color="#990000"/>
    </radialGradient>
    <radialGradient cx="0" cy="0" gradientTransform="matrix(0.0076, 0.0, 0.0, 0.0076, 50.05, 5.55)" gradientUnits="userSpaceOnUse" id="gradient6" r="819.2" spreadMethod="pad">
      <stop offset="0.0" stop-color="#ff0033"/>
      <stop offset="1.0" stop-color="#990000"/>
    </radialGradient>
    <radialGradient cx="0" cy="0" gradientTransform="matrix(0.0091, 0.0, 0.0, 0.0091, 55.2, 5.75)" gradientUnits="userSpaceOnUse" id="gradient7" r="819.2" spreadMethod="pad">
      <stop offset="0.0" stop-color="#ff0033"/>
      <stop offset="1.0" stop-color="#990000"/>
    </radialGradient>
    <linearGradient gradientTransform="matrix(0.0, 0.0, 0.0, 0.0, -488.75, -353.7)" gradientUnits="userSpaceOnUse" id="gradient8" spreadMethod="pad" x1="-819.2" x2="819.2">
      <stop offset="0.0" stop-color="#333333"/>
      <stop offset="0.8117647058823529" stop-color="#cccccc"/>
      <stop offset="1.0" stop-color="#666666"/>
    </linearGradient>
    <linearGradient gradientTransform="matrix(0.0, -0.0146, 0.0323, 0.0, 85.05, -2.2)" gradientUnits="userSpaceOnUse" id="gradient9" spreadMethod="pad" x1="-819.2" x2="819.2">
      <stop offset="0.0" stop-color="#333333"/>
      <stop offset="0.8117647058823529" stop-color="#cccccc"/>
      <stop offset="1.0" stop-color="#666666"/>
    </linearGradient>
    <radialGradient cx="0" cy="0" gradientTransform="matrix(0.0444, 0.0, 0.0, 0.0444, 69.9, 37.2)" gradientUnits="userSpaceOnUse" id="gradient10" r="819.2" spreadMethod="pad">
      <stop offset="0.29411764705882354" stop-color="#ff3300"/>
      <stop offset="1.0" stop-color="#990000"/>
    </radialGradient>
    <g id="shape1" transform="matrix(1.0, 0.0, 0.0, 1.0, -34.35, -2.7)">
      <path d="M242.25 32.95 L240.05 39.1 232.85 39.1 235.05 32.95 242.25 32.95" fill="url(#gradient11)" fill-rule="evenodd" stroke="none"/>
      <path d="M226.8 20.7 L219.6 20.7 217.4 14.55 224.6 14.55 226.8 20.7" fill="url(#gradient12)" fill-rule="evenodd" stroke="none"/>
      <path d="M168.4 42.0 L168.4 46.3 163.2 46.3 163.2 42.0 168.4 42.0" fill="url(#gradient13)" fill-rule="evenodd" stroke="none"/>
      <path d="M188.5 42.0 L188.5 46.3 183.3 46.3 183.3 42.0 188.5 42.0" fill="url(#gradient14)" fill-rule="evenodd" stroke="none"/>
      <path d="M208.95 15.2 L195.6 17.6 178.2 17.6 182.6 15.2 208.95 15.2" fill="url(#gradient15)" fill-rule="evenodd" stroke="none"/>
      <path d="M148.4 42.0 L148.4 46.3 143.2 46.3 143.2 42.0 148.4 42.0" fill="url(#gradient16)" fill-rule="evenodd" stroke="none"/>
      <path d="M59.8 2.85 L62.15 8.4 57.3 8.4 56.75 2.85 59.8 2.85" fill="url(#gradient17)" fill-rule="evenodd" stroke="none"/>
      <path d="M51.95 2.85 L55.7 2.85 55.15 8.35 48.95 8.35 51.95 2.85" fill="url(#gradient18)" fill-rule="evenodd" stroke="none"/>
      <path d="M38.15 37.9 L36.5 40.35 43.55 40.35 46.9 37.9 47.35 37.9 45.7 40.35 52.7 40.35 56.1 37.9 56.85 37.9 55.2 40.35 62.2 40.35 67.45 35.65 73.05 35.65 71.85 38.8 68.1 38.8 66.25 41.65 35.25 41.65 34.4 40.35 35.95 37.9 38.15 37.9" fill="url(#gradient19)" fill-rule="evenodd" stroke="none"/>
      <path d="M66.25 41.65 L65.65 42.5 35.8 42.5 35.25 41.65 66.25 41.65" fill="#cc5100" fill-rule="evenodd" stroke="none"/>
      <path d="M226.8 20.7 L224.6 14.55 217.4 14.55 219.6 20.7 226.8 20.7 M242.25 32.95 L240.05 39.1 232.85 39.1 235.05 32.95 242.25 32.95 M168.4 42.0 L163.2 42.0 163.2 46.3 168.4 46.3 168.4 42.0 M188.5 42.0 L183.3 42.0 183.3 46.3 188.5 46.3 188.5 42.0 M208.95 15.2 L182.6 15.2 178.2 17.6 195.6 17.6 208.95 15.2 M148.4 42.0 L143.2 42.0 143.2 46.3 148.4 46.3 148.4 42.0 M59.8 2.85 L62.15 8.4 57.3 8.4 56.75 2.85 59.8 2.85 M51.95 2.85 L48.95 8.35 55.15 8.35 55.7 2.85 51.95 2.85 M38.15 37.9 L36.5 40.35 43.55 40.35 46.9 37.9 47.35 37.9 45.7 40.35 52.7 40.35 56.1 37.9 56.85 37.9 55.2 40.35 62.2 40.35 67.45 35.65 73.05 35.65 71.85 38.8 68.1 38.8 66.25 41.65 65.65 42.5 35.8 42.5 35.25 41.65 34.4 40.35 M66.25 41.65 L35.25 41.65" fill="none" stroke="#000000" stroke-width="0.7" stroke-opacity="0.4"/>
    </g>
    <radialGradient cx="0" cy="0" gradientTransform="matrix(0.0115, 0.0, 0.0, 0.0115, 233.2, 35.65)" gradientUnits="userSpaceOnUse" id="gradient11" r="819.2" spreadMethod="pad">
      <stop offset="0.16470588235294117" stop-color="#ffbb00"/>
      <stop offset="1.0" stop-color="#b25400"/>
    </radialGradient>
    <radialGradient cx="0" cy="0" gradientTransform="matrix(0.0104, 0.0, 0.0, 0.0104, 218.45, 18.6)" gradientUnits="userSpaceOnUse" id="gradient12" r="819.2" spreadMethod="pad">
      <stop offset="0.16470588235294117" stop-color="#ffbb00"/>
      <stop offset="1.0" stop-color="#b25400"/>
    </radialGradient>
    <linearGradient gradientTransform="matrix(-0.0032, 0.0, 0.0, -0.0026, 165.8, 44.1)" gradientUnits="userSpaceOnUse" id="gradient13" spreadMethod="pad" x1="-819.2" x2="819.2">
      <stop offset="0.29411764705882354" stop-color="#ff9900"/>
      <stop offset="1.0" stop-color="#ff6600"/>
    </linearGradient>
    <linearGradient gradientTransform="matrix(-0.0032, 0.0, 0.0, -0.0026, 185.9, 44.1)" gradientUnits="userSpaceOnUse" id="gradient14" spreadMethod="pad" x1="-819.2" x2="819.2">
      <stop offset="0.29411764705882354" stop-color="#ff9900"/>
      <stop offset="1.0" stop-color="#ff6600"/>
    </linearGradient>
    <linearGradient gradientTransform="matrix(0.0188, 0.0, 0.0, 0.0015, 193.55, 16.4)" gradientUnits="userSpaceOnUse" id="gradient15" spreadMethod="pad" x1="-819.2" x2="819.2">
      <stop offset="0.29411764705882354" stop-color="#ff9900"/>
      <stop offset="1.0" stop-color="#ff6600"/>
    </linearGradient>
    <linearGradient gradientTransform="matrix(-0.0032, 0.0, 0.0, -0.0026, 145.8, 44.1)" gradientUnits="userSpaceOnUse" id="gradient16" spreadMethod="pad" x1="-819.2" x2="819.2">
      <stop offset="0.29411764705882354" stop-color="#ff9900"/>
      <stop offset="1.0" stop-color="#ff6600"/>
    </linearGradient>
    <linearGradient gradientTransform="matrix(0.0033, 0.0, 0.0, 0.0034, 59.45, 5.6)" gradientUnits="userSpaceOnUse" id="gradient17" spreadMethod="pad" x1="-819.2" x2="819.2">
      <stop offset="0.29411764705882354" stop-color="#ff9900"/>
      <stop offset="1.0" stop-color="#ff6600"/>
    </linearGradient>
    <linearGradient gradientTransform="matrix(-0.0041, 0.0, 0.0, -0.0034, 52.35, 5.6)" gradientUnits="userSpaceOnUse" id="gradient18" spreadMethod="pad" x1="-819.2" x2="819.2">
      <stop offset="0.29411764705882354" stop-color="#ff9900"/>
      <stop offset="1.0" stop-color="#ff6600"/>
    </linearGradient>
    <linearGradient gradientTransform="matrix(0.0236, 0.0, 0.0, 0.0036, 53.65, 38.55)" gradientUnits="userSpaceOnUse" id="gradient19" spreadMethod="pad" x1="-819.2" x2="819.2">
      <stop offset="0.29411764705882354" stop-color="#ff9900"/>
      <stop offset="1.0" stop-color="#ff6600"/>
    </linearGradient>
  </defs>
</svg>
