<?xml version="1.0" encoding="UTF-8" standalone="no"?>
<svg xmlns:xlink="http://www.w3.org/1999/xlink" height="208.6px" width="140.2px" xmlns="http://www.w3.org/2000/svg">
  <g transform="matrix(1.0, 0.0, 0.0, 1.0, 0.05, 0.05)">
    <path d="M90.8 38.55 L124.05 38.55 128.35 41.4 132.3 44.15 99.05 44.15 90.8 38.55 M62.2 19.3 L95.45 19.25 97.65 20.7 67.65 20.8 66.1 21.95 62.2 19.3 M81.95 30.35 L80.4 31.55 76.5 28.9 109.75 28.9 111.95 30.35 81.95 30.35 M113.9 79.9 L105.6 79.9 103.5 77.6 111.75 77.6 113.9 79.9 M105.55 99.95 L109.1 91.3 113.65 91.3 119.4 97.2 122.05 99.95 105.55 99.95 M136.45 77.6 L138.65 79.9 130.4 79.9 128.2 77.6 136.45 77.6 M97.8 163.55 L98.45 164.0 113.9 174.05 103.4 174.05 85.3 162.25 86.75 162.25 95.75 162.25 97.8 163.55 M101.8 162.25 L112.25 162.25 130.4 174.05 119.9 174.05 101.8 162.25 M33.6 0.0 L66.95 0.0 83.35 11.05 53.35 11.2 51.8 12.3 33.6 0.0 M68.75 162.25 L78.5 162.25 79.25 162.25 82.05 164.0 97.35 174.05 86.9 174.05 68.75 162.25" fill="#b2b2b2" fill-rule="evenodd" stroke="none"/>
    <path d="M99.05 44.15 L132.3 44.15 139.15 52.35 129.2 74.65 127.65 74.65 127.9 71.7 Q127.9 69.45 127.45 67.45 L127.45 67.2 134.0 52.4 134.0 52.35 133.95 52.35 130.85 48.65 117.2 48.65 111.9 48.65 101.5 48.65 94.95 53.5 94.2 55.05 93.75 56.3 91.25 61.75 85.8 74.1 78.35 74.1 88.0 52.35 99.05 44.15 M110.5 88.15 L110.35 88.4 109.1 91.3 105.55 99.95 103.25 105.4 101.05 110.95 98.75 116.45 96.4 121.9 94.2 127.35 91.9 132.95 89.65 138.4 87.35 143.9 85.05 149.4 82.85 154.95 76.45 154.95 69.05 154.95 95.8 99.95 95.95 99.95 95.9 99.85 105.6 79.9 113.9 79.9 113.15 81.65 111.65 85.15 110.85 87.05 110.5 88.15 M138.65 79.9 L132.55 95.9 130.55 101.3 128.05 108.0 125.9 113.6 123.85 119.2 122.6 122.2 120.5 127.95 119.1 131.5 117.05 137.0 115.45 141.3 112.9 148.1 110.25 154.95 99.3 154.95 101.55 149.4 103.85 143.9 106.15 138.4 108.4 132.95 110.7 127.35 112.9 121.9 115.2 116.45 117.5 110.95 119.8 105.4 122.05 99.95 130.4 79.9 138.65 79.9" fill="#7f7f7f" fill-rule="evenodd" stroke="none"/>
    <path d="M128.35 41.4 L124.05 38.55 90.8 38.55 79.85 46.8 74.3 59.2 79.85 46.8 88.0 52.35 78.35 74.1 64.5 80.95 47.25 89.4 46.05 88.6 40.15 88.6 39.0 86.7 39.05 86.7 48.95 65.55 54.55 62.5 49.75 59.35 44.15 62.35 35.25 81.3 34.05 80.5 44.9 56.1 34.05 80.5 35.25 81.3 34.85 82.1 30.5 82.1 29.4 80.25 29.4 80.2 39.35 59.05 44.9 56.1 40.1 52.85 34.55 55.85 34.5 55.85 25.65 74.8 24.4 74.0 35.3 49.55 24.4 74.0 25.65 74.8 25.3 75.6 20.95 75.6 19.85 73.7 29.8 52.55 35.3 49.55 30.5 46.35 24.9 49.3 16.0 68.35 14.8 67.5 25.65 43.05 14.8 67.5 16.0 68.35 15.7 69.15 11.3 69.15 11.3 69.05 10.15 67.2 20.1 46.05 25.65 43.05 20.85 39.9 15.35 42.8 6.35 61.85 4.15 60.35 2.5 47.4 12.45 27.8 22.4 8.2 41.35 20.95 37.3 30.05 37.2 30.15 38.75 35.25 45.75 39.9 51.25 27.55 45.75 39.9 44.15 34.7 48.8 24.4 60.3 15.75 94.35 15.7 98.45 20.7 97.65 20.7 95.45 19.25 62.2 19.3 51.25 27.55 55.65 30.5 51.6 39.65 51.5 39.75 53.05 44.9 60.0 49.55 58.45 44.35 63.0 34.0 74.6 25.45 108.65 25.35 112.75 30.35 111.95 30.35 109.75 28.9 76.5 28.9 65.55 37.15 69.95 40.15 65.9 49.3 67.35 54.45 74.3 59.2 72.75 53.95 77.3 43.65 88.8 35.0 88.9 34.95 122.95 34.95 128.35 41.4 M84.25 91.6 L88.3 92.15 86.45 95.9 71.55 95.9 69.65 99.95 74.95 105.4 76.95 101.3 91.7 101.3 91.9 101.3 103.5 77.6 105.6 79.9 95.9 99.85 95.8 99.95 69.05 154.95 65.25 156.1 68.5 149.4 61.25 147.5 52.8 145.3 61.25 147.5 60.15 149.85 54.7 151.45 47.3 148.6 35.3 124.65 38.85 117.25 42.4 109.95 63.7 97.15 73.7 91.1 69.05 84.4 74.6 84.4 80.25 91.05 84.25 91.6 M119.4 97.2 L128.2 77.6 130.4 79.9 122.05 99.95 119.4 97.2 M138.35 101.3 L136.35 105.4 128.05 108.0 130.55 101.3 138.35 101.3 M133.95 119.2 L132.45 122.2 131.0 125.3 120.5 127.95 122.6 122.2 123.85 119.2 133.95 119.2 M129.2 137.0 L127.15 141.3 125.25 145.3 112.9 148.1 115.45 141.3 117.05 137.0 129.2 137.0 M92.45 208.5 L54.9 208.5 55.85 205.15 57.0 201.0 57.35 199.45 91.6 196.85 92.45 208.5 M19.45 208.5 L0.0 208.5 1.7 195.6 7.3 188.7 11.55 188.7 18.85 198.65 19.45 208.5 M60.0 49.55 L65.55 37.15 60.0 49.55 M46.05 88.6 L43.7 87.0 54.55 62.5 43.7 87.0 46.05 88.6 M73.7 91.1 L75.1 90.3 80.25 91.05 75.1 90.3 73.7 91.1 M64.5 80.95 L60.8 59.5 12.45 27.8 60.8 59.5 64.5 80.95 M81.25 106.65 L74.9 105.4 74.95 105.4 74.9 105.4 81.25 106.65 77.85 113.6 61.45 113.6 60.05 116.75 58.65 120.0 63.85 125.3 71.3 127.05 63.85 125.3 65.4 122.2 66.85 119.2 83.2 119.2 81.75 122.2 65.4 122.2 81.75 122.2 83.2 119.2 88.6 108.15 81.25 106.65 M91.9 101.3 L88.6 108.15 91.9 101.3 M54.7 141.3 L56.75 137.0 74.45 137.0 74.5 137.0 72.4 141.3 74.5 137.0 78.55 128.75 71.3 127.05 69.05 131.5 51.45 131.5 49.4 135.85 38.85 117.25 49.4 135.85 47.55 139.9 52.8 145.3 54.7 141.3 72.4 141.3 68.5 149.4 72.4 141.3 54.7 141.3 M81.75 122.2 L78.55 128.75 81.75 122.2 M50.85 183.15 L53.5 170.7 57.2 168.65 61.75 166.15 66.2 163.65 68.75 162.25 86.9 174.05 88.6 191.35 60.35 194.75 58.45 197.7 57.5 196.85 53.05 192.75 51.3 191.15 49.55 189.6 50.85 183.15 M132.45 122.2 L122.6 122.2 132.45 122.2 M115.45 141.3 L127.15 141.3 115.45 141.3" fill="#666666" fill-rule="evenodd" stroke="none"/>
    <path d="M122.95 34.95 L88.9 34.95 88.8 35.0 81.95 30.35 111.95 30.35 112.75 30.35 116.1 30.35 122.95 34.95 M83.35 11.05 L87.5 11.05 94.35 15.7 60.3 15.75 53.35 11.2 83.35 11.05 M98.45 20.7 L101.8 20.7 108.65 25.35 74.6 25.45 67.65 20.8 97.65 20.7 98.45 20.7 M127.65 74.65 L129.2 74.65 133.65 74.65 136.45 77.6 128.2 77.6 125.4 74.65 127.65 74.65 M110.25 76.15 L110.7 76.6 111.75 77.6 103.5 77.6 100.6 74.65 101.95 74.65 108.85 74.65 110.25 76.15 M86.45 95.9 L91.7 101.3 76.95 101.3 71.55 95.9 86.45 95.9 M132.55 95.9 L133.2 95.9 138.5 101.3 138.35 101.3 130.55 101.3 132.55 95.9 M125.9 113.6 L128.7 113.6 134.1 119.2 133.95 119.2 123.85 119.2 125.9 113.6 M119.1 131.5 L124.05 131.5 129.35 137.0 129.2 137.0 117.05 137.0 119.1 131.5 M130.4 174.05 L132.0 191.35 121.6 191.35 119.9 174.05 130.4 174.05 M137.6 196.85 L140.1 208.5 125.4 208.5 124.65 196.85 137.6 196.85 M123.7 208.5 L108.95 208.5 108.15 196.85 121.2 196.85 121.25 197.1 123.7 208.5 M107.15 208.5 L92.45 208.5 91.6 196.85 104.65 196.85 104.75 197.1 107.15 208.5 M66.85 119.2 L61.45 113.6 77.85 113.6 83.2 119.2 66.85 119.2 M56.75 137.0 L51.45 131.5 69.05 131.5 74.45 137.0 56.75 137.0 M88.6 191.35 L86.9 174.05 97.35 174.05 99.05 191.35 88.6 191.35 M103.4 174.05 L113.9 174.05 115.5 191.35 105.1 191.35 103.4 174.05" fill="#999999" fill-rule="evenodd" stroke="none"/>
    <path d="M77.3 43.65 L72.75 53.95 74.3 59.2 67.35 54.45 65.9 49.3 69.95 40.15 70.45 39.05 70.45 39.0 77.3 43.65 M115.8 88.3 L125.4 74.65 128.2 77.6 119.4 97.2 113.65 91.3 115.8 88.3 M85.8 74.1 L84.05 74.95 86.4 79.25 85.65 83.9 84.9 87.8 84.25 91.6 80.25 91.05 74.6 84.4 69.05 84.4 66.35 86.4 69.05 84.4 73.7 91.1 63.7 97.15 63.7 88.4 66.35 86.4 65.6 84.05 54.7 89.4 47.25 89.4 64.5 80.95 78.35 74.1 85.8 74.1 M91.05 88.4 L91.2 88.1 100.6 74.65 103.5 77.6 91.9 101.3 91.7 101.3 86.45 95.9 88.3 92.15 88.4 92.15 91.05 88.4 M46.75 205.15 L46.9 208.5 19.45 208.5 18.85 198.65 25.7 198.65 18.05 188.7 16.3 186.4 17.9 178.65 22.05 176.45 17.9 166.6 21.4 157.5 25.3 154.65 28.4 154.55 22.9 158.9 20.7 163.55 22.9 158.9 28.4 154.55 37.75 147.1 36.4 144.45 35.4 142.4 36.4 144.45 23.65 154.65 25.85 149.9 35.4 142.4 31.05 133.55 35.3 124.65 47.3 148.6 54.7 151.45 60.15 149.85 62.2 157.0 60.15 149.85 61.25 147.5 68.5 149.4 65.25 156.1 64.7 156.25 62.2 157.0 60.75 157.45 56.3 158.85 56.25 158.85 56.3 158.85 57.2 168.65 53.5 170.7 50.85 183.15 44.9 190.55 50.85 183.15 49.55 189.6 51.3 191.15 49.75 192.75 45.75 196.85 41.8 201.0 37.9 205.15 46.75 205.15 M40.15 88.6 L35.3 85.3 34.2 83.45 34.85 82.1 35.25 81.3 44.15 62.35 48.95 65.55 39.05 86.7 39.0 86.7 40.15 88.6 M30.5 82.1 L25.7 78.8 24.6 76.95 25.3 75.6 25.65 74.8 34.5 55.85 34.55 55.85 39.35 59.05 29.4 80.2 29.4 80.25 30.5 82.1 M20.95 75.6 L16.05 72.3 14.95 70.45 15.05 70.45 15.7 69.15 16.0 68.35 24.9 49.3 29.8 52.55 19.85 73.7 20.95 75.6 M11.3 69.05 L6.5 65.8 5.4 63.9 6.35 61.85 15.35 42.8 20.1 46.05 10.15 67.2 11.3 69.05 M41.35 20.95 L41.85 19.75 48.8 24.4 44.15 34.7 45.75 39.9 38.75 35.25 37.2 30.15 37.3 30.05 41.35 20.95 M58.45 44.35 L51.6 39.65 58.45 44.35 60.0 49.55 53.05 44.9 51.5 39.75 51.6 39.65 55.65 30.5 56.15 29.4 63.0 34.0 58.45 44.35 M37.3 30.05 L44.15 34.7 37.3 30.05 M10.15 67.2 L5.4 63.9 10.15 67.2 M19.85 73.7 L15.05 70.45 19.85 73.7 M24.6 76.95 L29.4 80.2 24.6 76.95 M34.2 83.45 L39.05 86.7 34.2 83.45 M64.5 80.95 L71.95 80.95 65.6 84.05 71.95 80.95 64.5 80.95 M65.9 49.3 L72.75 53.95 65.9 49.3 M81.25 106.65 L88.6 108.15 83.2 119.2 77.85 113.6 81.25 106.65 M66.85 119.2 L65.4 122.2 60.05 116.75 65.4 122.2 63.85 125.3 58.65 120.0 60.05 116.75 61.45 113.6 66.85 119.2 M76.95 101.3 L74.95 105.4 69.65 99.95 71.55 95.9 76.95 101.3 M54.7 141.3 L49.4 135.85 54.7 141.3 52.8 145.3 47.55 139.9 49.4 135.85 51.45 131.5 56.75 137.0 54.7 141.3 M71.3 127.05 L78.55 128.75 74.5 137.0 74.45 137.0 69.05 131.5 71.3 127.05 M38.75 149.2 L37.75 147.1 38.75 149.2 20.7 163.55 25.35 163.55 23.2 168.2 25.35 163.55 40.1 151.85 38.75 149.2 M41.2 154.0 L40.1 151.85 41.2 154.0 23.2 168.2 27.85 168.2 25.65 172.85 30.35 172.85 28.15 177.4 30.35 172.85 48.8 158.1 45.75 156.85 43.35 155.9 45.75 156.85 25.65 172.85 27.85 168.2 43.35 155.9 41.8 155.3 41.2 154.0 M51.25 159.15 L48.8 158.1 51.25 159.15 28.15 177.4 32.85 177.4 56.25 158.85 53.0 159.85 51.25 159.15 M44.9 190.55 L44.9 190.25 Q44.9 186.1 42.45 183.1 39.95 180.2 36.5 180.2 33.0 180.2 30.6 183.1 28.4 185.75 28.15 189.3 L26.75 188.05 22.05 176.45 26.75 188.05 28.15 189.3 28.1 190.25 Q28.1 194.35 30.6 197.3 33.0 200.25 36.5 200.25 39.95 200.25 42.45 197.3 L43.95 194.9 Q44.8 192.95 44.9 190.55 M84.05 74.95 L71.95 80.95 84.05 74.95 M37.9 205.15 L28.4 202.1 25.7 198.65 28.4 202.1 37.9 205.15" fill="#4c4c4c" fill-rule="evenodd" stroke="none"/>
    <path d="M88.8 35.0 L77.3 43.65 70.45 39.0 80.4 31.55 81.95 30.35 88.8 35.0 M67.65 20.8 L74.6 25.45 63.0 34.0 56.15 29.4 66.1 21.95 67.65 20.8 M53.35 11.2 L60.3 15.75 48.8 24.4 41.85 19.75 51.8 12.3 53.35 11.2 M20.1 46.05 L15.35 42.8 20.85 39.9 25.65 43.05 20.1 46.05 M24.9 49.3 L30.5 46.35 35.3 49.55 29.8 52.55 24.9 49.3 M34.55 55.85 L40.1 52.85 44.9 56.1 39.35 59.05 34.55 55.85 M44.15 62.35 L49.75 59.35 54.55 62.5 48.95 65.55 44.15 62.35 M58.45 197.7 L60.35 194.75 88.6 191.35 91.6 196.85 57.35 199.45 58.45 197.7" fill="#727272" fill-rule="evenodd" stroke="none"/>
    <path d="M90.8 38.55 L99.05 44.15 88.0 52.35 79.85 46.8 90.8 38.55 M80.4 31.55 L70.45 39.0 70.45 39.05 69.95 40.15 65.55 37.15 76.5 28.9 80.4 31.55 M22.4 8.2 L33.6 0.0 51.8 12.3 41.85 19.75 41.35 20.95 22.4 8.2 M62.2 19.3 L66.1 21.95 56.15 29.4 55.65 30.5 51.25 27.55 62.2 19.3" fill="#8c8c8c" fill-rule="evenodd" stroke="none"/>
    <path d="M91.05 88.4 L88.95 88.4 91.2 88.1 91.05 88.4 M76.45 154.95 L82.85 154.95 84.7 154.95 Q86.3 158.25 86.75 162.25 L85.3 162.25 82.05 164.0 79.25 162.25 78.5 162.25 Q78.05 158.25 76.45 154.95 M25.3 154.65 L23.65 154.65 36.4 144.45 37.75 147.1 28.4 154.55 25.3 154.65 M38.75 149.2 L40.1 151.85 25.35 163.55 20.7 163.55 38.75 149.2 M41.2 154.0 L41.8 155.3 43.35 155.9 27.85 168.2 23.2 168.2 41.2 154.0 M45.75 156.85 L48.8 158.1 30.35 172.85 25.65 172.85 45.75 156.85 M51.25 159.15 L53.0 159.85 56.25 158.85 32.85 177.4 28.15 177.4 51.25 159.15 M56.3 158.85 L60.75 157.45 62.2 157.0 64.7 156.25 Q66.05 159.65 66.2 163.65 L61.75 166.15 60.75 157.45 61.75 166.15 57.2 168.65 56.3 158.85 M37.75 193.85 L36.5 194.9 34.85 195.35 Q33.1 195.35 31.85 193.85 31.1 192.95 30.8 191.8 L30.65 190.4 Q30.65 188.3 31.85 186.85 33.1 185.45 34.85 185.45 36.55 185.45 37.75 186.85 39.0 188.3 39.0 190.4 39.0 192.45 37.75 193.85 M53.05 192.75 L49.75 192.75 51.3 191.15 53.05 192.75" fill="#333333" fill-rule="evenodd" stroke="none"/>
    <path d="M132.0 191.35 L137.6 196.85 124.65 196.85 121.6 191.35 132.0 191.35 M91.6 196.85 L88.6 191.35 99.05 191.35 99.75 192.0 104.65 196.85 91.6 196.85 M108.15 196.85 L105.1 191.35 115.5 191.35 116.25 192.0 121.2 196.85 108.15 196.85" fill="#a5a5a5" fill-rule="evenodd" stroke="none"/>
    <path d="M11.55 188.7 L18.05 188.7 25.7 198.65 18.85 198.65 11.55 188.7" fill="#595959" fill-rule="evenodd" stroke="none"/>
    <path d="M111.9 48.65 L114.9 55.05 108.5 55.05 97.65 55.05 94.2 55.05 94.95 53.5 101.5 48.65 111.9 48.65" fill="url(#gradient0)" fill-rule="evenodd" stroke="none"/>
    <path d="M111.9 48.65 L117.2 48.65 125.3 55.5 124.25 60.45 125.3 55.5 117.2 48.65 130.85 48.65 133.95 52.35 134.0 52.4 127.45 67.2 Q126.85 64.7 125.75 62.65 L124.25 60.45 123.9 59.9 Q120.15 55.35 114.9 55.05 L111.9 48.65 M110.35 88.4 L114.7 88.4 115.8 88.3 113.65 91.3 109.1 91.3 110.35 88.4 M88.95 88.4 L91.05 88.4 88.4 92.15 88.3 92.15 84.25 91.6 84.9 87.8 88.4 88.4 88.95 88.4" fill="url(#gradient1)" fill-rule="evenodd" stroke="none"/>
    <path d="M115.2 57.7 L117.5 59.9 117.85 60.45 107.15 60.45 106.75 59.9 104.5 57.7 115.2 57.7" fill="url(#gradient2)" fill-rule="evenodd" stroke="none"/>
    <path d="M114.9 55.05 Q120.15 55.35 123.9 59.9 L124.25 60.45 125.75 62.65 Q126.85 64.7 127.45 67.2 L127.45 67.45 Q127.9 69.45 127.9 71.7 L127.65 74.65 125.4 74.65 115.8 88.3 114.7 88.4 110.35 88.4 110.5 88.15 Q111.95 87.8 113.3 87.05 L115.95 85.15 117.5 83.5 118.75 81.65 Q120.2 79.3 120.9 76.6 121.45 74.3 121.45 71.7 L121.4 70.1 Q121.2 67.2 120.2 64.7 119.4 62.45 117.85 60.45 L117.5 59.9 115.2 57.7 113.3 56.4 Q111.0 55.2 108.5 55.05 L114.9 55.05 M94.2 55.05 L97.65 55.05 Q100.3 55.2 102.55 56.4 L104.5 57.7 106.75 59.9 107.15 60.45 Q108.65 62.45 109.55 64.7 110.5 67.2 110.7 70.1 L110.7 71.7 Q110.7 74.1 110.25 76.15 L108.85 74.65 101.95 74.65 102.15 71.7 Q102.15 64.85 98.2 59.9 96.1 57.5 93.75 56.3 L94.2 55.05" fill="url(#gradient3)" fill-rule="evenodd" stroke="none"/>
    <path d="M113.3 56.4 L115.2 57.7 104.5 57.7 102.55 56.4 113.3 56.4" fill="url(#gradient4)" fill-rule="evenodd" stroke="none"/>
    <path d="M121.4 70.1 L121.45 71.7 Q121.45 74.3 120.9 76.6 L110.7 76.6 110.25 76.15 Q110.7 74.1 110.7 71.7 L110.7 70.1 121.4 70.1" fill="url(#gradient5)" fill-rule="evenodd" stroke="none"/>
    <path d="M120.2 64.7 Q121.2 67.2 121.4 70.1 L110.7 70.1 Q110.5 67.2 109.55 64.7 L120.2 64.7" fill="url(#gradient6)" fill-rule="evenodd" stroke="none"/>
    <path d="M97.65 55.05 L108.5 55.05 Q111.0 55.2 113.3 56.4 L102.55 56.4 Q100.3 55.2 97.65 55.05" fill="url(#gradient7)" fill-rule="evenodd" stroke="none"/>
    <path d="M117.85 60.45 Q119.4 62.45 120.2 64.7 L109.55 64.7 Q108.65 62.45 107.15 60.45 L117.85 60.45" fill="url(#gradient8)" fill-rule="evenodd" stroke="none"/>
    <path d="M85.65 83.9 L86.25 83.9 Q90.3 83.9 93.1 80.35 95.95 76.9 95.95 72.0 95.95 67.05 93.1 63.6 L91.25 61.75 93.75 56.3 Q96.1 57.5 98.2 59.9 102.15 64.85 102.15 71.7 L101.95 74.65 100.6 74.65 91.2 88.1 88.95 88.4 88.4 88.4 84.9 87.8 85.65 83.9" fill="url(#gradient9)" fill-rule="evenodd" stroke="none"/>
    <path d="M85.8 74.1 L91.25 61.75 93.1 63.6 Q95.95 67.05 95.95 72.0 95.95 76.9 93.1 80.35 90.3 83.9 86.25 83.9 L85.65 83.9 86.4 79.25 84.05 74.95 85.8 74.1" fill="url(#gradient10)" fill-rule="evenodd" stroke="none"/>
    <path d="M118.75 81.65 L117.5 83.5 115.95 85.15 111.65 85.15 113.15 81.65 118.75 81.65" fill="url(#gradient11)" fill-rule="evenodd" stroke="none"/>
    <path d="M120.9 76.6 Q120.2 79.3 118.75 81.65 L113.15 81.65 113.9 79.9 111.75 77.6 110.7 76.6 120.9 76.6" fill="url(#gradient12)" fill-rule="evenodd" stroke="none"/>
    <path d="M115.95 85.15 L113.3 87.05 110.85 87.05 111.65 85.15 115.95 85.15" fill="url(#gradient13)" fill-rule="evenodd" stroke="none"/>
    <path d="M113.3 87.05 Q111.95 87.8 110.5 88.15 L110.85 87.05 113.3 87.05" fill="url(#gradient14)" fill-rule="evenodd" stroke="none"/>
    <path d="M28.15 189.3 Q28.4 185.75 30.6 183.1 33.0 180.2 36.5 180.2 39.95 180.2 42.45 183.1 44.9 186.1 44.9 190.25 L44.9 190.55 Q44.8 192.95 43.95 194.9 L42.45 197.3 Q39.95 200.25 36.5 200.25 33.0 200.25 30.6 197.3 28.1 194.35 28.1 190.25 L28.15 189.3 M37.75 193.85 Q39.0 192.45 39.0 190.4 39.0 188.3 37.75 186.85 36.55 185.45 34.85 185.45 33.1 185.45 31.85 186.85 30.65 188.3 30.65 190.4 L30.8 191.8 Q31.1 192.95 31.85 193.85 33.1 195.35 34.85 195.35 L36.5 194.9 37.75 193.85" fill="url(#gradient15)" fill-rule="evenodd" stroke="none"/>
    <path d="M69.05 154.95 L76.45 154.95 Q78.05 158.25 78.5 162.25 L68.75 162.25 66.2 163.65 Q66.05 159.65 64.7 156.25 L65.25 156.1 69.05 154.95" fill="url(#gradient16)" fill-rule="evenodd" stroke="none"/>
    <path d="M45.75 196.85 L49.75 192.75 53.05 192.75 57.5 196.85 45.75 196.85" fill="url(#gradient17)" fill-rule="evenodd" stroke="none"/>
    <path d="M45.75 196.85 L57.5 196.85 58.45 197.7 57.35 199.45 57.0 201.0 41.8 201.0 45.75 196.85" fill="url(#gradient18)" fill-rule="evenodd" stroke="none"/>
    <path d="M96.4 121.9 L98.75 116.45 115.2 116.45 112.9 121.9 96.4 121.9" fill="url(#gradient19)" fill-rule="evenodd" stroke="none"/>
    <path d="M98.75 116.45 L101.05 110.95 117.5 110.95 115.2 116.45 98.75 116.45" fill="url(#gradient20)" fill-rule="evenodd" stroke="none"/>
    <path d="M101.05 110.95 L103.25 105.4 119.8 105.4 117.5 110.95 101.05 110.95" fill="url(#gradient21)" fill-rule="evenodd" stroke="none"/>
    <path d="M103.25 105.4 L105.55 99.95 122.05 99.95 119.8 105.4 103.25 105.4" fill="url(#gradient22)" fill-rule="evenodd" stroke="none"/>
    <path d="M87.35 143.9 L89.65 138.4 106.15 138.4 103.85 143.9 87.35 143.9" fill="url(#gradient23)" fill-rule="evenodd" stroke="none"/>
    <path d="M89.65 138.4 L91.9 132.95 108.4 132.95 106.15 138.4 89.65 138.4" fill="url(#gradient24)" fill-rule="evenodd" stroke="none"/>
    <path d="M91.9 132.95 L94.2 127.35 110.7 127.35 108.4 132.95 91.9 132.95" fill="url(#gradient25)" fill-rule="evenodd" stroke="none"/>
    <path d="M94.2 127.35 L96.4 121.9 112.9 121.9 110.7 127.35 94.2 127.35" fill="url(#gradient26)" fill-rule="evenodd" stroke="none"/>
    <path d="M85.05 149.4 L87.35 143.9 103.85 143.9 101.55 149.4 85.05 149.4" fill="url(#gradient27)" fill-rule="evenodd" stroke="none"/>
    <path d="M82.85 154.95 L85.05 149.4 101.55 149.4 99.3 154.95 95.65 154.95 84.7 154.95 82.85 154.95" fill="url(#gradient28)" fill-rule="evenodd" stroke="none"/>
    <path d="M108.95 208.5 L107.15 208.5 104.75 197.1 108.15 196.85 108.95 208.5 M85.3 162.25 L103.4 174.05 105.1 191.35 99.75 192.0 99.05 191.35 97.35 174.05 82.05 164.0 85.3 162.25" fill="url(#gradient29)" fill-rule="evenodd" stroke="none"/>
    <path d="M95.65 154.95 Q97.6 158.75 97.8 163.55 L95.75 162.25 86.75 162.25 Q86.3 158.25 84.7 154.95 L95.65 154.95" fill="url(#gradient30)" fill-rule="evenodd" stroke="none"/>
    <path d="M99.75 192.0 L105.1 191.35 108.15 196.85 104.75 197.1 104.65 196.85 99.75 192.0" fill="url(#gradient31)" fill-rule="evenodd" stroke="none"/>
    <path d="M121.2 196.85 L116.25 192.0 121.6 191.35 124.65 196.85 121.25 197.1 121.2 196.85" fill="url(#gradient32)" fill-rule="evenodd" stroke="none"/>
    <path d="M98.45 164.0 L101.8 162.25 119.9 174.05 121.6 191.35 116.25 192.0 115.5 191.35 113.9 174.05 98.45 164.0 M125.4 208.5 L123.7 208.5 121.25 197.1 124.65 196.85 125.4 208.5" fill="url(#gradient33)" fill-rule="evenodd" stroke="none"/>
    <path d="M55.85 205.15 L46.75 205.15 37.9 205.15 41.8 201.0 57.0 201.0 55.85 205.15" fill="url(#gradient34)" fill-rule="evenodd" stroke="none"/>
    <path d="M128.35 41.4 L124.05 38.55 90.8 38.55 99.05 44.15 132.3 44.15 128.35 41.4 122.95 34.95 88.9 34.95 88.8 35.0 77.3 43.65 72.75 53.95 74.3 59.2 79.85 46.8 90.8 38.55 M83.35 11.05 L87.5 11.05 94.35 15.7 98.45 20.7 101.8 20.7 108.65 25.35 112.75 30.35 116.1 30.35 122.95 34.95 M97.65 20.7 L98.45 20.7 M62.2 19.3 L95.45 19.25 97.65 20.7 67.65 20.8 74.6 25.45 108.65 25.35 M88.8 35.0 L81.95 30.35 80.4 31.55 70.45 39.0 77.3 43.65 M111.95 30.35 L112.75 30.35 M111.95 30.35 L109.75 28.9 76.5 28.9 80.4 31.55 M117.2 48.65 L111.9 48.65 114.9 55.05 Q120.15 55.35 123.9 59.9 L124.25 60.45 125.3 55.5 117.2 48.65 130.85 48.65 133.95 52.35 134.0 52.35 134.0 52.4 127.45 67.2 127.45 67.45 Q127.9 69.45 127.9 71.7 L127.65 74.65 129.2 74.65 139.15 52.35 132.3 44.15 M111.9 48.65 L101.5 48.65 94.95 53.5 94.2 55.05 97.65 55.05 108.5 55.05 114.9 55.05 M81.95 30.35 L111.95 30.35 M113.3 56.4 L115.2 57.7 117.5 59.9 117.85 60.45 Q119.4 62.45 120.2 64.7 121.2 67.2 121.4 70.1 L121.45 71.7 Q121.45 74.3 120.9 76.6 120.2 79.3 118.75 81.65 L117.5 83.5 115.95 85.15 113.3 87.05 Q111.95 87.8 110.5 88.15 L110.35 88.4 114.7 88.4 115.8 88.3 125.4 74.65 127.65 74.65 M104.5 57.7 L106.75 59.9 107.15 60.45 117.85 60.45 M102.55 56.4 L104.5 57.7 115.2 57.7 M110.7 70.1 L110.7 71.7 Q110.7 74.1 110.25 76.15 L110.7 76.6 120.9 76.6 M109.55 64.7 Q110.5 67.2 110.7 70.1 L121.4 70.1 M108.5 55.05 Q111.0 55.2 113.3 56.4 L102.55 56.4 Q100.3 55.2 97.65 55.05 M107.15 60.45 Q108.65 62.45 109.55 64.7 L120.2 64.7 M91.25 61.75 L85.8 74.1 84.05 74.95 86.4 79.25 85.65 83.9 86.25 83.9 Q90.3 83.9 93.1 80.35 95.95 76.9 95.95 72.0 95.95 67.05 93.1 63.6 L91.25 61.75 93.75 56.3 94.2 55.05 M101.95 74.65 L102.15 71.7 Q102.15 64.85 98.2 59.9 96.1 57.5 93.75 56.3 M88.95 88.4 L91.05 88.4 91.2 88.1 88.95 88.4 88.4 88.4 84.9 87.8 84.25 91.6 88.3 92.15 88.4 92.15 91.05 88.4 M88.3 92.15 L86.45 95.9 91.7 101.3 91.9 101.3 103.5 77.6 100.6 74.65 91.2 88.1 M85.65 83.9 L84.9 87.8 M113.15 81.65 L113.9 79.9 105.6 79.9 95.9 99.85 95.95 99.95 95.8 99.95 69.05 154.95 76.45 154.95 82.85 154.95 85.05 149.4 87.35 143.9 89.65 138.4 91.9 132.95 94.2 127.35 96.4 121.9 98.75 116.45 101.05 110.95 103.25 105.4 105.55 99.95 109.1 91.3 110.35 88.4 M115.95 85.15 L111.65 85.15 110.85 87.05 113.3 87.05 M111.65 85.15 L113.15 81.65 118.75 81.65 M113.9 79.9 L111.75 77.6 103.5 77.6 105.6 79.9 M110.25 76.15 L108.85 74.65 101.95 74.65 100.6 74.65 M110.5 88.15 L110.85 87.05 M113.65 91.3 L119.4 97.2 122.05 99.95 119.8 105.4 103.25 105.4 M128.2 77.6 L125.4 74.65 M115.8 88.3 L113.65 91.3 109.1 91.3 M111.75 77.6 L110.7 76.6 M133.95 52.35 L134.0 52.4 M124.25 60.45 L125.75 62.65 Q126.85 64.7 127.45 67.2 M136.45 77.6 L138.65 79.9 132.55 95.9 133.2 95.9 138.5 101.3 138.35 101.3 136.35 105.4 128.05 108.0 125.9 113.6 128.7 113.6 134.1 119.2 133.95 119.2 132.45 122.2 131.0 125.3 120.5 127.95 119.1 131.5 124.05 131.5 129.35 137.0 129.2 137.0 127.15 141.3 125.25 145.3 112.9 148.1 110.25 154.95 99.3 154.95 95.65 154.95 Q97.6 158.75 97.8 163.55 L98.45 164.0 101.8 162.25 112.25 162.25 130.4 174.05 132.0 191.35 137.6 196.85 140.1 208.5 125.4 208.5 123.7 208.5 108.95 208.5 107.15 208.5 92.45 208.5 54.9 208.5 55.85 205.15 46.75 205.15 46.9 208.5 19.45 208.5 0.0 208.5 1.7 195.6 7.3 188.7 11.55 188.7 18.05 188.7 16.3 186.4 17.9 178.65 22.05 176.45 17.9 166.6 21.4 157.5 25.3 154.65 23.65 154.65 25.85 149.9 35.4 142.4 31.05 133.55 35.3 124.65 38.85 117.25 42.4 109.95 63.7 97.15 63.7 88.4 66.35 86.4 65.6 84.05 54.7 89.4 47.25 89.4 46.05 88.6 40.15 88.6 35.3 85.3 34.2 83.45 34.85 82.1 30.5 82.1 25.7 78.8 24.6 76.95 25.3 75.6 20.95 75.6 16.05 72.3 14.95 70.45 15.05 70.45 15.7 69.15 11.3 69.15 11.3 69.05 6.5 65.8 5.4 63.9 6.35 61.85 4.15 60.35 2.5 47.4 12.45 27.8 22.4 8.2 33.6 0.0 66.95 0.0 83.35 11.05 53.35 11.2 60.3 15.75 94.35 15.7 M129.2 74.65 L133.65 74.65 136.45 77.6 128.2 77.6 130.4 79.9 138.65 79.9 M88.0 52.35 L99.05 44.15 M62.2 19.3 L66.1 21.95 67.65 20.8 M51.8 12.3 L53.35 11.2 M41.35 20.95 L41.85 19.75 51.8 12.3 33.6 0.0 M41.85 19.75 L48.8 24.4 60.3 15.75 M55.65 30.5 L51.25 27.55 45.75 39.9 38.75 35.25 37.2 30.15 37.3 30.05 41.35 20.95 22.4 8.2 M51.6 39.65 L58.45 44.35 63.0 34.0 56.15 29.4 55.65 30.5 51.6 39.65 51.5 39.75 53.05 44.9 60.0 49.55 58.45 44.35 M45.75 39.9 L44.15 34.7 37.3 30.05 M74.3 59.2 L67.35 54.45 65.9 49.3 69.95 40.15 65.55 37.15 60.0 49.55 M69.95 40.15 L70.45 39.05 70.45 39.0 M63.0 34.0 L74.6 25.45 M65.55 37.15 L76.5 28.9 M48.8 24.4 L44.15 34.7 M66.1 21.95 L56.15 29.4 M51.25 27.55 L62.2 19.3 M20.1 46.05 L15.35 42.8 6.35 61.85 M29.8 52.55 L35.3 49.55 30.5 46.35 24.9 49.3 29.8 52.55 19.85 73.7 20.95 75.6 M15.35 42.8 L20.85 39.9 25.65 43.05 14.8 67.5 16.0 68.35 24.9 49.3 M25.65 43.05 L20.1 46.05 10.15 67.2 11.3 69.05 M25.65 74.8 L34.5 55.85 34.55 55.85 40.1 52.85 44.9 56.1 34.05 80.5 35.25 81.3 44.15 62.35 49.75 59.35 54.55 62.5 43.7 87.0 46.05 88.6 M34.55 55.85 L39.35 59.05 44.9 56.1 M35.3 49.55 L24.4 74.0 25.65 74.8 25.3 75.6 M15.7 69.15 L16.0 68.35 M15.05 70.45 L19.85 73.7 M5.4 63.9 L10.15 67.2 M34.85 82.1 L35.25 81.3 M29.4 80.2 L24.6 76.95 M30.5 82.1 L29.4 80.25 29.4 80.2 39.35 59.05 M40.15 88.6 L39.0 86.7 39.05 86.7 34.2 83.45 M54.55 62.5 L48.95 65.55 39.05 86.7 M48.95 65.55 L44.15 62.35 M66.35 86.4 L69.05 84.4 74.6 84.4 80.25 91.05 84.25 91.6 M80.25 91.05 L75.1 90.3 73.7 91.1 63.7 97.15 M65.6 84.05 L71.95 80.95 64.5 80.95 47.25 89.4 M69.05 84.4 L73.7 91.1 M64.5 80.95 L78.35 74.1 88.0 52.35 79.85 46.8 M12.45 27.8 L60.8 59.5 64.5 80.95 M72.75 53.95 L65.9 49.3 M74.95 105.4 L74.9 105.4 81.25 106.65 88.6 108.15 91.9 101.3 M65.4 122.2 L66.85 119.2 61.45 113.6 60.05 116.75 65.4 122.2 81.75 122.2 83.2 119.2 66.85 119.2 M77.85 113.6 L61.45 113.6 M71.55 95.9 L69.65 99.95 74.95 105.4 76.95 101.3 71.55 95.9 86.45 95.9 M63.85 125.3 L58.65 120.0 60.05 116.75 M49.4 135.85 L54.7 141.3 56.75 137.0 51.45 131.5 49.4 135.85 38.85 117.25 M52.8 145.3 L47.55 139.9 49.4 135.85 M54.7 141.3 L52.8 145.3 61.25 147.5 68.5 149.4 72.4 141.3 54.7 141.3 M71.3 127.05 L78.55 128.75 81.75 122.2 M69.05 131.5 L71.3 127.05 63.85 125.3 65.4 122.2 M72.4 141.3 L74.5 137.0 74.45 137.0 56.75 137.0 M74.45 137.0 L69.05 131.5 51.45 131.5 M74.5 137.0 L78.55 128.75 M36.4 144.45 L37.75 147.1 38.75 149.2 40.1 151.85 41.2 154.0 41.8 155.3 43.35 155.9 45.75 156.85 48.8 158.1 51.25 159.15 53.0 159.85 56.25 158.85 56.3 158.85 60.75 157.45 62.2 157.0 60.15 149.85 54.7 151.45 47.3 148.6 35.3 124.65 M35.4 142.4 L36.4 144.45 23.65 154.65 M20.7 163.55 L22.9 158.9 28.4 154.55 25.3 154.65 M27.85 168.2 L23.2 168.2 25.35 163.55 20.7 163.55 38.75 149.2 M27.85 168.2 L25.65 172.85 45.75 156.85 M30.35 172.85 L25.65 172.85 M40.1 151.85 L25.35 163.55 M28.15 189.3 Q28.4 185.75 30.6 183.1 33.0 180.2 36.5 180.2 39.95 180.2 42.45 183.1 44.9 186.1 44.9 190.25 L44.9 190.55 50.85 183.15 53.5 170.7 57.2 168.65 56.3 158.85 M22.05 176.45 L26.75 188.05 28.15 189.3 28.1 190.25 Q28.1 194.35 30.6 197.3 33.0 200.25 36.5 200.25 39.95 200.25 42.45 197.3 L43.95 194.9 Q44.8 192.95 44.9 190.55 M37.75 193.85 L36.5 194.9 34.85 195.35 Q33.1 195.35 31.85 193.85 31.1 192.95 30.8 191.8 L30.65 190.4 Q30.65 188.3 31.85 186.85 33.1 185.45 34.85 185.45 36.55 185.45 37.75 186.85 39.0 188.3 39.0 190.4 39.0 192.45 37.75 193.85 M56.25 158.85 L32.85 177.4 28.15 177.4 30.35 172.85 48.8 158.1 M62.2 157.0 L64.7 156.25 65.25 156.1 68.5 149.4 M69.05 154.95 L65.25 156.1 M66.2 163.65 L68.75 162.25 78.5 162.25 Q78.05 158.25 76.45 154.95 M61.75 166.15 L66.2 163.65 Q66.05 159.65 64.7 156.25 M82.05 164.0 L79.25 162.25 78.5 162.25 M60.75 157.45 L61.75 166.15 57.2 168.65 M49.75 192.75 L45.75 196.85 57.5 196.85 53.05 192.75 49.75 192.75 51.3 191.15 49.55 189.6 50.85 183.15 M88.6 191.35 L60.35 194.75 58.45 197.7 57.35 199.45 91.6 196.85 88.6 191.35 86.9 174.05 68.75 162.25 M53.05 192.75 L51.3 191.15 M58.45 197.7 L57.5 196.85 M28.4 154.55 L37.75 147.1 M43.35 155.9 L27.85 168.2 M23.2 168.2 L41.2 154.0 M28.15 177.4 L51.25 159.15 M60.15 149.85 L61.25 147.5 M128.05 108.0 L130.55 101.3 132.55 95.9 M125.9 113.6 L123.85 119.2 133.95 119.2 M123.85 119.2 L122.6 122.2 132.45 122.2 M138.35 101.3 L130.55 101.3 M112.9 121.9 L115.2 116.45 98.75 116.45 M117.5 110.95 L115.2 116.45 M119.8 105.4 L117.5 110.95 101.05 110.95 M95.8 99.95 L95.9 99.85 M88.6 108.15 L83.2 119.2 77.85 113.6 81.25 106.65 M108.4 132.95 L110.7 127.35 94.2 127.35 M103.85 143.9 L106.15 138.4 89.65 138.4 M112.9 148.1 L115.45 141.3 117.05 137.0 119.1 131.5 M106.15 138.4 L108.4 132.95 91.9 132.95 M112.9 121.9 L96.4 121.9 M103.85 143.9 L87.35 143.9 M110.7 127.35 L112.9 121.9 M82.85 154.95 L84.7 154.95 95.65 154.95 M86.75 162.25 L85.3 162.25 103.4 174.05 113.9 174.05 98.45 164.0 M85.3 162.25 L82.05 164.0 97.35 174.05 99.05 191.35 99.75 192.0 105.1 191.35 103.4 174.05 M86.75 162.25 L95.75 162.25 97.8 163.55 M84.7 154.95 Q86.3 158.25 86.75 162.25 M99.05 191.35 L88.6 191.35 M97.35 174.05 L86.9 174.05 M104.65 196.85 L104.75 197.1 108.15 196.85 105.1 191.35 115.5 191.35 113.9 174.05 M121.2 196.85 L116.25 192.0 115.5 191.35 M121.2 196.85 L121.25 197.1 124.65 196.85 121.6 191.35 116.25 192.0 M108.15 196.85 L121.2 196.85 M91.6 196.85 L104.65 196.85 99.75 192.0 M99.3 154.95 L101.55 149.4 85.05 149.4 M101.8 162.25 L119.9 174.05 130.4 174.05 M137.6 196.85 L124.65 196.85 125.4 208.5 M121.6 191.35 L132.0 191.35 M119.9 174.05 L121.6 191.35 M127.15 141.3 L115.45 141.3 M117.05 137.0 L129.2 137.0 M122.6 122.2 L120.5 127.95 M101.55 149.4 L103.85 143.9 M122.05 99.95 L105.55 99.95 M71.95 80.95 L84.05 74.95 M76.95 101.3 L91.7 101.3 M85.8 74.1 L78.35 74.1 M122.05 99.95 L130.4 79.9 M55.85 205.15 L57.0 201.0 41.8 201.0 37.9 205.15 46.75 205.15 M57.0 201.0 L57.35 199.45 M25.7 198.65 L28.4 202.1 37.9 205.15 M19.45 208.5 L18.85 198.65 11.55 188.7 M18.85 198.65 L25.7 198.65 18.05 188.7 M45.75 196.85 L41.8 201.0 M92.45 208.5 L91.6 196.85 M104.75 197.1 L107.15 208.5 M108.95 208.5 L108.15 196.85 M121.25 197.1 L123.7 208.5" fill="none" stroke="#000000" stroke-width="0.7" stroke-opacity="0.4"/>
  </g>
  <defs>
    <radialGradient cx="0" cy="0" gradientTransform="matrix(0.0541, 0.0, 0.0, 0.0541, 101.4, 12.8)" gradientUnits="userSpaceOnUse" id="gradient0" r="819.2" spreadMethod="pad">
      <stop offset="0.0" stop-color="#ff0000"/>
      <stop offset="1.0" stop-color="#141414"/>
    </radialGradient>
    <radialGradient cx="0" cy="0" gradientTransform="matrix(0.0511, 0.0, 0.0, 0.0511, 96.1, 53.25)" gradientUnits="userSpaceOnUse" id="gradient1" r="819.2" spreadMethod="pad">
      <stop offset="0.0" stop-color="#ff0000"/>
      <stop offset="1.0" stop-color="#141414"/>
    </radialGradient>
    <linearGradient gradientTransform="matrix(0.0, -0.0017, 0.0081, 0.0, 111.15, 59.0)" gradientUnits="userSpaceOnUse" id="gradient2" spreadMethod="pad" x1="-819.2" x2="819.2">
      <stop offset="0.0" stop-color="#333333"/>
      <stop offset="0.7333333333333333" stop-color="#666666"/>
      <stop offset="1.0" stop-color="#333333"/>
    </linearGradient>
    <linearGradient gradientTransform="matrix(0.0, -0.0128, 0.0104, 0.0, 102.15, 65.6)" gradientUnits="userSpaceOnUse" id="gradient3" spreadMethod="pad" x1="-819.2" x2="819.2">
      <stop offset="0.0" stop-color="#333333"/>
      <stop offset="0.7333333333333333" stop-color="#666666"/>
      <stop offset="1.0" stop-color="#333333"/>
    </linearGradient>
    <linearGradient gradientTransform="matrix(0.0, -8.0E-4, 0.0077, 0.0, 108.75, 56.95)" gradientUnits="userSpaceOnUse" id="gradient4" spreadMethod="pad" x1="-819.2" x2="819.2">
      <stop offset="0.0" stop-color="#333333"/>
      <stop offset="0.7333333333333333" stop-color="#666666"/>
      <stop offset="1.0" stop-color="#333333"/>
    </linearGradient>
    <linearGradient gradientTransform="matrix(0.0, -0.0039, 0.0068, 0.0, 115.75, 73.25)" gradientUnits="userSpaceOnUse" id="gradient5" spreadMethod="pad" x1="-819.2" x2="819.2">
      <stop offset="0.0" stop-color="#333333"/>
      <stop offset="0.7333333333333333" stop-color="#666666"/>
      <stop offset="1.0" stop-color="#333333"/>
    </linearGradient>
    <linearGradient gradientTransform="matrix(0.0, -0.0033, 0.0072, 0.0, 115.4, 67.4)" gradientUnits="userSpaceOnUse" id="gradient6" spreadMethod="pad" x1="-819.2" x2="819.2">
      <stop offset="0.0" stop-color="#333333"/>
      <stop offset="0.7333333333333333" stop-color="#666666"/>
      <stop offset="1.0" stop-color="#333333"/>
    </linearGradient>
    <linearGradient gradientTransform="matrix(0.0, -8.0E-4, 0.0095, 0.0, 105.45, 55.7)" gradientUnits="userSpaceOnUse" id="gradient7" spreadMethod="pad" x1="-819.2" x2="819.2">
      <stop offset="0.0" stop-color="#333333"/>
      <stop offset="0.7333333333333333" stop-color="#666666"/>
      <stop offset="1.0" stop-color="#333333"/>
    </linearGradient>
    <linearGradient gradientTransform="matrix(0.0, -0.0026, 0.0079, 0.0, 113.65, 62.55)" gradientUnits="userSpaceOnUse" id="gradient8" spreadMethod="pad" x1="-819.2" x2="819.2">
      <stop offset="0.0" stop-color="#333333"/>
      <stop offset="0.7333333333333333" stop-color="#666666"/>
      <stop offset="1.0" stop-color="#333333"/>
    </linearGradient>
    <radialGradient cx="0" cy="0" gradientTransform="matrix(0.0351, 0.0, 0.0, 0.0351, 93.5, 60.55)" gradientUnits="userSpaceOnUse" id="gradient9" r="819.2" spreadMethod="pad">
      <stop offset="0.0" stop-color="#666666"/>
      <stop offset="1.0" stop-color="#333333"/>
      <stop offset="1.0" stop-color="#333333"/>
    </radialGradient>
    <radialGradient cx="0" cy="0" gradientTransform="matrix(0.019, 0.0, 0.0, 0.019, 94.55, 71.1)" gradientUnits="userSpaceOnUse" id="gradient10" r="819.2" spreadMethod="pad">
      <stop offset="0.0" stop-color="#ff0000"/>
      <stop offset="1.0" stop-color="#141414"/>
    </radialGradient>
    <linearGradient gradientTransform="matrix(0.0, -0.0021, 0.0043, 0.0, 115.1, 83.4)" gradientUnits="userSpaceOnUse" id="gradient11" spreadMethod="pad" x1="-819.2" x2="819.2">
      <stop offset="0.0" stop-color="#333333"/>
      <stop offset="0.7333333333333333" stop-color="#666666"/>
      <stop offset="1.0" stop-color="#333333"/>
    </linearGradient>
    <linearGradient gradientTransform="matrix(0.0, -0.0031, 0.0062, 0.0, 115.7, 79.05)" gradientUnits="userSpaceOnUse" id="gradient12" spreadMethod="pad" x1="-819.2" x2="819.2">
      <stop offset="0.0" stop-color="#333333"/>
      <stop offset="0.7333333333333333" stop-color="#666666"/>
      <stop offset="1.0" stop-color="#333333"/>
    </linearGradient>
    <linearGradient gradientTransform="matrix(0.0, -0.0011, 0.0031, 0.0, 113.35, 86.05)" gradientUnits="userSpaceOnUse" id="gradient13" spreadMethod="pad" x1="-819.2" x2="819.2">
      <stop offset="0.0" stop-color="#333333"/>
      <stop offset="0.7333333333333333" stop-color="#666666"/>
      <stop offset="1.0" stop-color="#333333"/>
    </linearGradient>
    <linearGradient gradientTransform="matrix(0.0, -6.0E-4, 0.0017, 0.0, 111.8, 87.55)" gradientUnits="userSpaceOnUse" id="gradient14" spreadMethod="pad" x1="-819.2" x2="819.2">
      <stop offset="0.0" stop-color="#333333"/>
      <stop offset="0.7333333333333333" stop-color="#666666"/>
      <stop offset="1.0" stop-color="#333333"/>
    </linearGradient>
    <radialGradient cx="0" cy="0" gradientTransform="matrix(0.0206, 0.0, 0.0, 0.0206, 30.95, 185.0)" gradientUnits="userSpaceOnUse" id="gradient15" r="819.2" spreadMethod="pad">
      <stop offset="0.0" stop-color="#666666"/>
      <stop offset="1.0" stop-color="#333333"/>
      <stop offset="1.0" stop-color="#333333"/>
    </radialGradient>
    <linearGradient gradientTransform="matrix(0.0, -0.0053, 0.0084, 0.0, 71.55, 159.25)" gradientUnits="userSpaceOnUse" id="gradient16" spreadMethod="pad" x1="-819.2" x2="819.2">
      <stop offset="0.0" stop-color="#333333"/>
      <stop offset="0.7333333333333333" stop-color="#666666"/>
      <stop offset="1.0" stop-color="#333333"/>
    </linearGradient>
    <linearGradient gradientTransform="matrix(-0.0019, 0.0038, -0.0057, -0.0029, 51.95, 196.05)" gradientUnits="userSpaceOnUse" id="gradient17" spreadMethod="pad" x1="-819.2" x2="819.2">
      <stop offset="0.0" stop-color="#ff0000"/>
      <stop offset="0.43137254901960786" stop-color="#990000"/>
      <stop offset="1.0" stop-color="#141414"/>
    </linearGradient>
    <linearGradient gradientTransform="matrix(-0.0029, 0.0058, -0.0073, -0.0037, 50.25, 199.2)" gradientUnits="userSpaceOnUse" id="gradient18" spreadMethod="pad" x1="-819.2" x2="819.2">
      <stop offset="0.0" stop-color="#ff0000"/>
      <stop offset="0.43137254901960786" stop-color="#990000"/>
      <stop offset="1.0" stop-color="#141414"/>
    </linearGradient>
    <linearGradient gradientTransform="matrix(0.002, 0.0057, -0.0112, 0.004, 105.8, 119.1)" gradientUnits="userSpaceOnUse" id="gradient19" spreadMethod="pad" x1="-819.2" x2="819.2">
      <stop offset="0.0" stop-color="#ff0000"/>
      <stop offset="1.0" stop-color="#141414"/>
    </linearGradient>
    <linearGradient gradientTransform="matrix(0.002, 0.0057, -0.0112, 0.004, 108.05, 113.65)" gradientUnits="userSpaceOnUse" id="gradient20" spreadMethod="pad" x1="-819.2" x2="819.2">
      <stop offset="0.0" stop-color="#ff0000"/>
      <stop offset="1.0" stop-color="#141414"/>
    </linearGradient>
    <linearGradient gradientTransform="matrix(0.002, 0.0057, -0.0112, 0.004, 110.3, 108.1)" gradientUnits="userSpaceOnUse" id="gradient21" spreadMethod="pad" x1="-819.2" x2="819.2">
      <stop offset="0.0" stop-color="#ff0000"/>
      <stop offset="1.0" stop-color="#141414"/>
    </linearGradient>
    <linearGradient gradientTransform="matrix(0.002, 0.0057, -0.0112, 0.004, 112.6, 102.65)" gradientUnits="userSpaceOnUse" id="gradient22" spreadMethod="pad" x1="-819.2" x2="819.2">
      <stop offset="0.0" stop-color="#ff0000"/>
      <stop offset="1.0" stop-color="#141414"/>
    </linearGradient>
    <linearGradient gradientTransform="matrix(0.002, 0.0057, -0.0112, 0.004, 96.6, 141.05)" gradientUnits="userSpaceOnUse" id="gradient23" spreadMethod="pad" x1="-819.2" x2="819.2">
      <stop offset="0.0" stop-color="#ff0000"/>
      <stop offset="1.0" stop-color="#141414"/>
    </linearGradient>
    <linearGradient gradientTransform="matrix(0.002, 0.0057, -0.0112, 0.004, 98.95, 135.6)" gradientUnits="userSpaceOnUse" id="gradient24" spreadMethod="pad" x1="-819.2" x2="819.2">
      <stop offset="0.0" stop-color="#ff0000"/>
      <stop offset="1.0" stop-color="#141414"/>
    </linearGradient>
    <linearGradient gradientTransform="matrix(0.0021, 0.0058, -0.0112, 0.004, 101.25, 130.05)" gradientUnits="userSpaceOnUse" id="gradient25" spreadMethod="pad" x1="-819.2" x2="819.2">
      <stop offset="0.0" stop-color="#ff0000"/>
      <stop offset="1.0" stop-color="#141414"/>
    </linearGradient>
    <linearGradient gradientTransform="matrix(0.002, 0.0057, -0.0112, 0.004, 103.45, 124.55)" gradientUnits="userSpaceOnUse" id="gradient26" spreadMethod="pad" x1="-819.2" x2="819.2">
      <stop offset="0.0" stop-color="#ff0000"/>
      <stop offset="1.0" stop-color="#141414"/>
    </linearGradient>
    <linearGradient gradientTransform="matrix(0.002, 0.0057, -0.0112, 0.004, 94.4, 146.6)" gradientUnits="userSpaceOnUse" id="gradient27" spreadMethod="pad" x1="-819.2" x2="819.2">
      <stop offset="0.0" stop-color="#ff0000"/>
      <stop offset="1.0" stop-color="#141414"/>
    </linearGradient>
    <linearGradient gradientTransform="matrix(0.0021, 0.0057, -0.0112, 0.004, 92.2, 152.1)" gradientUnits="userSpaceOnUse" id="gradient28" spreadMethod="pad" x1="-819.2" x2="819.2">
      <stop offset="0.0" stop-color="#ff0000"/>
      <stop offset="1.0" stop-color="#141414"/>
    </linearGradient>
    <radialGradient cx="0" cy="0" gradientTransform="matrix(0.0354, 0.0, 0.0, 0.0354, 99.1, 187.25)" gradientUnits="userSpaceOnUse" id="gradient29" r="819.2" spreadMethod="pad">
      <stop offset="0.0" stop-color="#ff0000"/>
      <stop offset="1.0" stop-color="#141414"/>
    </radialGradient>
    <linearGradient gradientTransform="matrix(0.0, -0.0052, 0.008, 0.0, 91.15, 159.2)" gradientUnits="userSpaceOnUse" id="gradient30" spreadMethod="pad" x1="-819.2" x2="819.2">
      <stop offset="0.0" stop-color="#333333"/>
      <stop offset="0.7333333333333333" stop-color="#666666"/>
      <stop offset="1.0" stop-color="#333333"/>
    </linearGradient>
    <radialGradient cx="0" cy="0" gradientTransform="matrix(0.0354, 0.0, 0.0, 0.0354, 99.1, 187.25)" gradientUnits="userSpaceOnUse" id="gradient31" r="819.2" spreadMethod="pad">
      <stop offset="0.0" stop-color="#ff3300"/>
      <stop offset="1.0" stop-color="#141414"/>
    </radialGradient>
    <radialGradient cx="0" cy="0" gradientTransform="matrix(0.035, 0.0, 0.0, 0.035, 116.2, 186.55)" gradientUnits="userSpaceOnUse" id="gradient32" r="819.2" spreadMethod="pad">
      <stop offset="0.0" stop-color="#ff3300"/>
      <stop offset="1.0" stop-color="#141414"/>
    </radialGradient>
    <radialGradient cx="0" cy="0" gradientTransform="matrix(0.035, 0.0, 0.0, 0.035, 116.2, 186.55)" gradientUnits="userSpaceOnUse" id="gradient33" r="819.2" spreadMethod="pad">
      <stop offset="0.0" stop-color="#ff0000"/>
      <stop offset="1.0" stop-color="#141414"/>
    </radialGradient>
    <linearGradient gradientTransform="matrix(-0.0034, 0.0067, -0.0087, -0.0044, 47.75, 203.1)" gradientUnits="userSpaceOnUse" id="gradient34" spreadMethod="pad" x1="-819.2" x2="819.2">
      <stop offset="0.0" stop-color="#ff0000"/>
      <stop offset="0.43137254901960786" stop-color="#990000"/>
      <stop offset="1.0" stop-color="#141414"/>
    </linearGradient>
  </defs>
</svg>
