<?xml version="1.0" encoding="UTF-8" standalone="no"?>
<svg xmlns:xlink="http://www.w3.org/1999/xlink" height="201.4px" width="149.25px" xmlns="http://www.w3.org/2000/svg">
  <g transform="matrix(1.0, 0.0, 0.0, 1.0, 0.05, 0.05)">
    <path d="M86.05 64.45 L84.1 56.4 92.0 56.4 92.85 59.65 95.0 68.55 99.95 88.55 92.0 88.55 90.05 80.55 90.45 80.55 90.05 80.55 86.05 64.45 M68.2 56.4 L76.15 88.55 68.2 88.55 60.25 56.4 68.2 56.4 M99.95 147.4 L107.15 147.4 119.0 169.1 99.15 169.1 88.05 147.4 99.95 147.4 M60.25 182.8 L62.9 185.9 64.3 187.65 48.35 195.7 Q52.85 188.75 60.25 182.8 M79.35 169.1 L67.45 147.4 88.05 147.4 99.15 169.1 79.35 169.1" fill="#a8a8a8" fill-rule="evenodd" stroke="none"/>
    <path d="M54.85 48.3 L48.35 83.75 26.95 62.8 26.95 40.3 2.35 19.4 26.95 40.3 26.95 62.8 48.35 83.75 28.55 96.65 28.4 96.5 24.0 92.0 20.85 88.8 18.6 86.55 14.35 82.25 7.1 74.85 8.05 73.45 10.35 69.25 Q11.85 65.55 12.4 61.25 12.75 58.9 12.75 56.4 12.75 46.35 8.05 39.25 5.55 35.4 2.35 33.7 L2.35 19.4 2.35 0.0 Q44.6 20.8 54.75 48.3 L54.85 48.3" fill="#676767" fill-rule="evenodd" stroke="none"/>
    <path d="M77.7 51.55 L94.4 51.55 92.85 59.65 92.0 56.4 77.7 51.55 M14.35 82.25 L18.6 86.55 Q18.25 89.0 18.25 91.85 18.25 98.1 20.15 102.6 22.0 107.1 24.65 107.1 26.55 107.1 28.0 104.7 L29.1 102.6 Q29.9 100.5 30.4 98.0 L35.3 101.55 Q34.5 104.4 32.95 106.8 31.0 110.25 28.55 111.65 26.7 112.75 24.65 112.75 19.65 112.75 16.15 106.8 14.55 104.0 13.65 100.65 12.75 96.95 12.75 92.6 12.75 86.9 14.35 82.25 M1.6 73.3 L4.0 75.75 4.0 79.75 1.6 77.35 4.0 79.75 4.0 83.75 4.0 87.8 4.0 91.55 0.0 87.8 1.6 85.4 0.0 83.75 1.6 81.35 0.0 79.75 1.6 77.35 0.0 75.75 1.6 73.3 M4.0 87.8 L1.6 85.4 4.0 87.8 M1.6 81.35 L4.0 83.75 1.6 81.35 M139.6 201.3 L121.35 201.3 122.95 198.15 141.25 198.15 139.6 201.3 M75.35 193.3 L64.3 193.3 64.3 187.65 62.9 185.9 67.35 182.9 68.2 183.6 70.6 183.6 70.6 184.45 73.7 190.1 75.35 193.3 M28.55 197.3 L19.55 197.3 Q21.45 195.85 23.0 194.85 L23.0 190.85 20.6 190.05 14.25 182.1 10.35 177.2 12.8 175.65 23.0 188.5 30.85 191.65 29.9 193.25 28.55 195.7 28.55 197.3 M28.55 136.9 L20.6 128.85 20.6 120.8 29.35 127.35 28.55 128.85 41.45 136.4 41.9 136.8 39.9 142.95 36.5 136.9 31.7 136.9 28.55 136.9 M84.1 103.2 L79.35 103.2 80.95 107.1 59.0 107.1 62.05 103.1 62.05 103.05 65.05 99.05 82.5 99.05 84.1 103.2 M79.35 103.2 L62.05 103.1 79.35 103.2 M29.9 193.25 L23.0 190.85 29.9 193.25" fill="#363636" fill-rule="evenodd" stroke="none"/>
    <path d="M92.85 59.65 L94.4 51.55 77.7 51.55 57.9 51.55 57.25 55.4 52.4 83.75 48.35 83.75 54.85 48.3 75.5 48.3 79.7 48.3 99.15 48.3 95.0 68.55 92.85 59.65" fill="#a6a6a6" fill-rule="evenodd" stroke="none"/>
    <path d="M84.1 56.4 L68.2 56.4 60.25 56.4 57.25 55.4 57.9 51.55 77.7 51.55 92.0 56.4 84.1 56.4" fill="#505050" fill-rule="evenodd" stroke="none"/>
    <path d="M84.1 56.4 L86.05 64.45 90.05 80.55 92.0 88.55 76.15 88.55 68.2 56.4 84.1 56.4 M74.55 80.55 L82.1 80.55 90.05 80.55 82.1 80.55 74.55 80.55 M86.05 64.45 L78.15 64.45 70.6 64.45 78.15 64.45 86.05 64.45 M77.7 128.85 L88.85 128.85 Q93.45 134.25 96.85 140.9 98.5 144.0 99.95 147.4 L88.05 147.4 67.45 147.4 62.7 150.95 Q59.5 145.7 55.8 140.95 L55.65 140.85 Q50.55 134.3 44.45 128.85 L61.1 128.85 77.7 128.85 M50.75 182.8 L60.25 182.8 Q52.85 188.75 48.35 195.7 L28.55 195.7 29.9 193.25 30.85 191.65 Q34.6 186.1 40.45 182.8 L50.75 182.8 M96.85 140.9 L55.8 140.95 96.85 140.9 M82.1 80.55 L78.15 64.45 82.1 80.55" fill="#959595" fill-rule="evenodd" stroke="none"/>
    <path d="M76.15 88.55 L92.0 88.55 99.95 88.55 88.5 103.1 80.95 112.75 67.45 112.75 52.4 112.75 50.75 112.75 54.85 107.2 54.85 107.1 57.8 103.05 60.7 99.05 61.1 99.05 60.8 98.9 68.2 88.55 76.15 88.55 M119.0 169.1 L119.8 173.95 80.95 173.95 76.15 178.0 72.95 183.6 70.6 183.6 68.2 183.6 72.95 173.95 79.35 169.1 99.15 169.1 119.0 169.1 M80.95 107.1 L81.3 107.1 84.2 103.2 84.25 103.1 88.5 103.1 84.25 103.1 87.25 99.05 82.5 99.05 65.05 99.05 62.05 103.05 62.05 103.1 59.0 107.1 80.95 107.1 M62.05 103.05 L57.8 103.05 62.05 103.05 M20.6 190.05 L23.0 190.85 23.0 194.85 20.6 194.85 20.6 190.05 M84.1 190.05 L76.95 182.8 80.95 182.8 88.05 190.05 84.1 190.05 M103.95 196.5 L99.95 196.5 93.6 190.05 97.6 190.05 103.95 196.5" fill="#8a8a8a" fill-rule="evenodd" stroke="none"/>
    <path d="M52.4 83.75 L57.25 55.4 60.25 56.4 68.2 88.55 60.8 98.9 46.35 87.85 52.4 83.75 M28.55 96.65 L33.3 96.65 37.05 94.1 41.85 90.9 46.35 87.85 60.8 98.9 60.7 99.05 57.8 103.05 54.85 107.1 54.85 107.2 50.75 112.75 35.3 101.55 30.4 98.0 28.55 96.65 M0.0 61.25 L12.4 61.25 Q11.85 65.55 10.35 69.25 L0.0 61.25 M37.05 94.1 L54.85 107.2 37.05 94.1 M149.15 193.3 L145.15 201.3 139.6 201.3 141.25 198.15 122.95 198.15 121.35 201.3 115.8 201.3 79.35 201.3 75.35 193.3 73.7 190.1 70.6 184.45 70.6 183.6 72.95 183.6 76.15 178.0 80.95 173.95 Q107.4 182.75 119.8 193.3 L118.2 196.5 109.5 196.5 118.2 196.5 119.8 193.3 130.85 193.3 129.3 196.5 134.85 196.5 136.45 193.3 149.15 193.3 M64.3 193.3 L64.3 194.85 Q60.95 197.35 59.5 201.3 L48.35 201.3 48.35 195.7 64.3 187.65 64.3 193.3 M14.25 201.3 L0.85 201.3 0.85 195.7 Q5.55 187.05 14.25 182.1 L20.6 190.05 20.6 194.85 Q16.3 197.65 14.25 201.3 M24.25 168.5 L20.6 167.55 20.6 161.1 23.4 161.1 36.5 161.1 50.75 182.8 40.45 182.8 Q34.4 172.05 24.25 168.5 M80.95 107.1 L79.35 103.2 84.1 103.2 84.2 103.2 84.1 103.2 82.5 99.05 87.25 99.05 84.25 103.1 84.2 103.2 81.3 107.1 80.95 107.1 M41.85 90.9 L57.8 103.05 41.85 90.9 M67.35 182.9 L57.9 175.55 57.9 154.6 72.95 173.95 68.2 183.6 67.35 182.9 M0.85 195.7 L20.6 190.05 0.85 195.7 M80.95 182.8 L76.95 182.8 84.1 190.05 73.7 190.1 84.1 190.05 88.05 190.05 93.6 190.05 99.95 196.5 103.95 196.5 109.5 196.5 100.75 187.65 91.25 187.65 86.45 182.8 80.95 182.8 M115.8 201.3 L118.2 196.5 115.8 201.3" fill="#666666" fill-rule="evenodd" stroke="none"/>
    <path d="M67.45 112.75 L74.55 116.0 76.15 120.8 76.15 125.6 77.7 128.85 61.1 128.85 59.5 125.6 59.5 120.8 57.9 116.0 52.4 112.75 67.45 112.75 M20.6 120.8 L30.85 120.8 Q30.75 124.2 29.35 127.35 L20.6 120.8 M76.15 125.6 L59.5 125.6 76.15 125.6 M74.55 116.0 L57.9 116.0 74.55 116.0 M76.15 120.8 L59.5 120.8 76.15 120.8" fill="#4d4d4d" fill-rule="evenodd" stroke="none"/>
    <path d="M20.6 161.1 L9.55 136.9 28.55 136.9 31.7 136.9 36.5 136.9 39.9 142.95 38.15 148.25 36.75 152.75 Q39.05 154.0 41.0 156.25 L30.95 156.25 25.4 144.95 16.05 145.05 23.4 161.1 20.6 161.1 M57.9 154.6 L62.7 150.95 67.45 147.4 79.35 169.1 72.95 173.95 57.9 154.6 M31.7 136.9 L38.15 148.25 31.7 136.9" fill="#7d7d7d" fill-rule="evenodd" stroke="none"/>
    <path d="M48.35 83.75 L52.4 83.75 46.35 87.85 41.85 90.9 37.05 94.1 33.3 96.65 28.55 96.65 48.35 83.75 M1.6 73.3 L0.0 71.7 0.0 61.25 10.35 69.25 8.05 73.45 7.1 74.85 14.35 82.25 Q12.75 86.9 12.75 92.6 12.75 96.95 13.65 100.65 L13.5 100.7 4.0 91.55 4.0 87.8 4.0 83.75 4.0 79.75 4.0 75.75 1.6 73.3 M35.3 101.55 L50.75 112.75 52.4 112.75 57.9 116.0 59.5 120.8 59.5 125.6 61.1 128.85 44.45 128.85 41.9 136.7 44.45 128.85 Q50.55 134.3 55.65 140.85 L55.8 140.95 Q59.5 145.7 62.7 150.95 L57.9 154.6 57.9 175.55 67.35 182.9 62.9 185.9 60.25 182.8 50.75 182.8 Q47.85 164.15 41.1 156.35 L41.0 156.25 Q39.05 154.0 36.75 152.75 L38.15 148.25 39.9 142.95 41.9 136.8 42.05 136.9 41.9 136.7 41.45 136.4 28.55 128.85 29.35 127.35 Q30.75 124.2 30.85 120.8 30.85 116.4 28.55 111.65 31.0 110.25 32.95 106.8 34.5 104.4 35.3 101.55 M48.35 201.3 L28.55 201.3 28.55 197.3 28.55 195.7 48.35 195.7 48.35 201.3 M19.55 197.3 Q17.3 199.0 15.9 201.3 L14.25 201.3 Q16.3 197.65 20.6 194.85 L23.0 194.85 Q21.45 195.85 19.55 197.3 M12.8 175.65 L24.25 168.5 Q34.4 172.05 40.45 182.8 34.6 186.1 30.85 191.65 L23.0 188.5 12.8 175.65 M42.8 113.4 Q41.2 110.35 38.85 110.35 36.6 110.35 35.0 113.4 33.3 116.45 33.3 120.8 33.3 125.2 35.0 128.25 36.6 131.3 38.85 131.3 41.2 131.3 42.8 128.25 44.45 125.2 44.45 120.8 44.45 116.45 42.8 113.4 M52.4 116.8 Q51.35 116.8 50.65 118.1 50.0 119.35 50.0 121.2 50.0 123.05 50.65 124.35 51.35 125.6 52.4 125.6 53.35 125.6 54.05 124.35 54.75 123.05 54.75 121.2 54.75 119.35 54.05 118.1 53.35 116.8 52.4 116.8" fill="#4c4c4c" fill-rule="evenodd" stroke="none"/>
    <path d="M99.15 48.3 L79.7 48.3 75.5 48.3 54.85 48.3 54.75 48.3 Q44.6 20.8 2.35 0.0 L28.6 0.0 36.5 4.1 28.6 0.0 33.4 0.0 57.9 0.0 Q92.45 19.5 99.15 48.3 M36.5 4.1 Q55.75 14.9 65.8 28.2 71.35 35.6 74.1 43.6 L78.35 43.6 Q70.8 20.8 41.2 4.1 L36.5 4.1 M79.7 48.3 L79.7 48.1 78.35 43.6 79.7 48.1 79.7 48.3 M75.5 48.3 L74.1 43.6 75.5 48.3 M41.2 4.1 L33.4 0.0 41.2 4.1" fill="url(#gradient0)" fill-rule="evenodd" stroke="none"/>
    <path d="M36.5 4.1 L41.2 4.1 Q70.8 20.8 78.35 43.6 L74.1 43.6 Q71.35 35.6 65.8 28.2 55.75 14.9 36.5 4.1" fill="url(#gradient1)" fill-rule="evenodd" stroke="none"/>
    <path d="M18.6 86.55 L20.85 88.8 Q20.6 90.6 20.6 92.6 20.6 97.65 21.8 101.15 23.0 104.7 24.65 104.7 25.4 104.7 26.1 103.8 L27.35 101.15 Q28.05 99.05 28.4 96.5 L28.55 96.65 30.4 98.0 Q29.9 100.5 29.1 102.6 L28.0 104.7 Q26.55 107.1 24.65 107.1 22.0 107.1 20.15 102.6 18.25 98.1 18.25 91.85 18.25 89.0 18.6 86.55" fill="url(#gradient2)" fill-rule="evenodd" stroke="none"/>
    <path d="M20.85 88.8 L24.0 92.0 23.8 95.05 Q23.8 99.05 24.95 101.9 25.45 103.15 26.1 103.8 25.4 104.7 24.65 104.7 23.0 104.7 21.8 101.15 20.6 97.65 20.6 92.6 20.6 90.6 20.85 88.8" fill="url(#gradient3)" fill-rule="evenodd" stroke="none"/>
    <path d="M24.0 92.0 L28.4 96.5 Q28.05 99.05 27.35 101.15 L26.1 103.8 Q25.45 103.15 24.95 101.9 23.8 99.05 23.8 95.05 L24.0 92.0" fill="url(#gradient4)" fill-rule="evenodd" stroke="none"/>
    <path d="M39.7 128.25 L40.4 127.35 40.85 126.5 Q42.05 124.15 42.05 120.8 42.05 117.5 40.85 115.1 L40.4 114.2 39.7 113.4 Q39.0 112.75 38.1 112.75 36.45 112.75 35.25 115.1 34.1 117.5 34.1 120.8 34.1 124.15 35.25 126.5 36.45 128.85 38.1 128.85 39.0 128.85 39.7 128.25 M42.8 113.4 Q44.45 116.45 44.45 120.8 44.45 125.2 42.8 128.25 41.2 131.3 38.85 131.3 36.6 131.3 35.0 128.25 33.3 125.2 33.3 120.8 33.3 116.45 35.0 113.4 36.6 110.35 38.85 110.35 41.2 110.35 42.8 113.4" fill="url(#gradient5)" fill-rule="evenodd" stroke="none"/>
    <path d="M39.7 113.4 L40.4 114.2 40.85 115.1 Q42.05 117.5 42.05 120.8 42.05 124.15 40.85 126.5 L40.4 127.35 39.7 128.25 Q39.0 127.65 38.45 126.5 37.3 124.15 37.3 120.8 37.3 117.5 38.45 115.1 39.0 114.0 39.7 113.4" fill="url(#gradient6)" fill-rule="evenodd" stroke="none"/>
    <path d="M52.4 116.8 Q53.35 116.8 54.05 118.1 54.75 119.35 54.75 121.2 54.75 123.05 54.05 124.35 53.35 125.6 52.4 125.6 51.35 125.6 50.65 124.35 50.0 123.05 50.0 121.2 50.0 119.35 50.65 118.1 51.35 116.8 52.4 116.8" fill="url(#gradient7)" fill-rule="evenodd" stroke="none"/>
    <path d="M39.7 128.25 Q39.0 128.85 38.1 128.85 36.45 128.85 35.25 126.5 34.1 124.15 34.1 120.8 34.1 117.5 35.25 115.1 36.45 112.75 38.1 112.75 39.0 112.75 39.7 113.4 39.0 114.0 38.45 115.1 37.3 117.5 37.3 120.8 37.3 124.15 38.45 126.5 39.0 127.65 39.7 128.25" fill="url(#gradient8)" fill-rule="evenodd" stroke="none"/>
    <path d="M41.0 156.25 L41.1 156.35 Q47.85 164.15 50.75 182.8 L36.5 161.1 23.4 161.1 16.05 145.05 25.4 144.95 30.95 156.25 41.0 156.25" fill="url(#gradient9)" fill-rule="evenodd" stroke="none"/>
    <path d="M80.95 182.8 L86.45 182.8 91.25 187.65 100.75 187.65 109.5 196.5 103.95 196.5 97.6 190.05 93.6 190.05 88.05 190.05 80.95 182.8" fill="url(#gradient10)" fill-rule="evenodd" stroke="none"/>
    <path d="M118.2 180.4 Q129.0 186.85 136.45 193.3 L134.85 196.5 129.3 196.5 130.85 193.3 Q124.85 188.0 118.2 183.7 L118.2 180.4" fill="url(#gradient11)" fill-rule="evenodd" stroke="none"/>
    <path d="M118.2 183.7 L112.65 180.4 118.2 180.4 118.2 183.7" fill="url(#gradient12)" fill-rule="evenodd" stroke="none"/>
    <path d="M119.8 173.95 Q131.8 180.6 144.25 189.7 L144.4 189.8 149.15 193.3 136.45 193.3 Q129.0 186.85 118.2 180.4 L112.65 180.4 118.2 183.7 Q124.85 188.0 130.85 193.3 L119.8 193.3 Q107.4 182.75 80.95 173.95 L119.8 173.95" fill="url(#gradient13)" fill-rule="evenodd" stroke="none"/>
    <path d="M86.05 64.45 L84.1 56.4 68.2 56.4 76.15 88.55 92.0 88.55 90.05 80.55 82.1 80.55 74.55 80.55 M92.85 59.65 L94.4 51.55 77.7 51.55 92.0 56.4 92.85 59.65 95.0 68.55 99.15 48.3 79.7 48.3 75.5 48.3 54.85 48.3 48.35 83.75 52.4 83.75 57.25 55.4 57.9 51.55 77.7 51.55 M84.1 56.4 L92.0 56.4 M90.05 80.55 L90.45 80.55 M92.0 88.55 L99.95 88.55 95.0 68.55 M86.05 64.45 L90.05 80.55 M54.85 48.3 L54.75 48.3 Q44.6 20.8 2.35 0.0 L2.35 19.4 26.95 40.3 26.95 62.8 48.35 83.75 28.55 96.65 33.3 96.65 37.05 94.1 41.85 90.9 46.35 87.85 52.4 83.75 M36.5 4.1 Q55.75 14.9 65.8 28.2 71.35 35.6 74.1 43.6 L78.35 43.6 Q70.8 20.8 41.2 4.1 L36.5 4.1 28.6 0.0 2.35 0.0 M74.1 43.6 L75.5 48.3 M78.35 43.6 L79.7 48.1 79.7 48.3 M28.6 0.0 L33.4 0.0 57.9 0.0 Q92.45 19.5 99.15 48.3 M12.4 61.25 Q12.75 58.9 12.75 56.4 12.75 46.35 8.05 39.25 5.55 35.4 2.35 33.7 L2.35 19.4 M1.6 73.3 L0.0 71.7 0.0 61.25 12.4 61.25 Q11.85 65.55 10.35 69.25 L8.05 73.45 7.1 74.85 14.35 82.25 18.6 86.55 20.85 88.8 24.0 92.0 28.4 96.5 28.55 96.65 30.4 98.0 35.3 101.55 50.75 112.75 54.85 107.2 37.05 94.1 M0.0 61.25 L10.35 69.25 M4.0 79.75 L4.0 75.75 1.6 73.3 0.0 75.75 1.6 77.35 4.0 79.75 4.0 83.75 4.0 87.8 4.0 91.55 13.5 100.7 13.65 100.65 Q12.75 96.95 12.75 92.6 12.75 86.9 14.35 82.25 M4.0 91.55 L0.0 87.8 1.6 85.4 0.0 83.75 1.6 81.35 0.0 79.75 1.6 77.35 M4.0 83.75 L1.6 81.35 M1.6 85.4 L4.0 87.8 M18.6 86.55 Q18.25 89.0 18.25 91.85 18.25 98.1 20.15 102.6 22.0 107.1 24.65 107.1 26.55 107.1 28.0 104.7 L29.1 102.6 Q29.9 100.5 30.4 98.0 M24.0 92.0 L23.8 95.05 Q23.8 99.05 24.95 101.9 25.45 103.15 26.1 103.8 L27.35 101.15 Q28.05 99.05 28.4 96.5 M26.1 103.8 Q25.4 104.7 24.65 104.7 23.0 104.7 21.8 101.15 20.6 97.65 20.6 92.6 20.6 90.6 20.85 88.8 M70.6 64.45 L78.15 64.45 86.05 64.45 M60.25 56.4 L57.25 55.4 M68.2 88.55 L76.15 88.55 M60.8 98.9 L68.2 88.55 60.25 56.4 68.2 56.4 M60.8 98.9 L46.35 87.85 M33.4 0.0 L41.2 4.1 M67.45 112.75 L74.55 116.0 76.15 120.8 76.15 125.6 77.7 128.85 88.85 128.85 Q93.45 134.25 96.85 140.9 98.5 144.0 99.95 147.4 L107.15 147.4 119.0 169.1 119.8 173.95 Q131.8 180.6 144.25 189.7 L144.4 189.8 149.15 193.3 145.15 201.3 139.6 201.3 121.35 201.3 115.8 201.3 79.35 201.3 75.35 193.3 64.3 193.3 64.3 194.85 Q60.95 197.35 59.5 201.3 L48.35 201.3 28.55 201.3 28.55 197.3 19.55 197.3 Q17.3 199.0 15.9 201.3 L14.25 201.3 0.85 201.3 0.85 195.7 Q5.55 187.05 14.25 182.1 L10.35 177.2 12.8 175.65 24.25 168.5 20.6 167.55 20.6 161.1 9.55 136.9 28.55 136.9 20.6 128.85 20.6 120.8 30.85 120.8 Q30.85 116.4 28.55 111.65 26.7 112.75 24.65 112.75 19.65 112.75 16.15 106.8 14.55 104.0 13.65 100.65 M84.1 103.2 L79.35 103.2 80.95 107.1 81.3 107.1 84.2 103.2 84.1 103.2 82.5 99.05 65.05 99.05 62.05 103.05 62.05 103.1 79.35 103.2 M67.45 112.75 L80.95 112.75 88.5 103.1 84.25 103.1 84.2 103.2 M54.85 107.2 L54.85 107.1 57.8 103.05 41.85 90.9 M57.8 103.05 L60.7 99.05 60.8 98.9 61.1 99.05 60.7 99.05 M39.7 113.4 L40.4 114.2 40.85 115.1 Q42.05 117.5 42.05 120.8 42.05 124.15 40.85 126.5 L40.4 127.35 39.7 128.25 Q39.0 128.85 38.1 128.85 36.45 128.85 35.25 126.5 34.1 124.15 34.1 120.8 34.1 117.5 35.25 115.1 36.45 112.75 38.1 112.75 39.0 112.75 39.7 113.4 39.0 114.0 38.45 115.1 37.3 117.5 37.3 120.8 37.3 124.15 38.45 126.5 39.0 127.65 39.7 128.25 M42.8 113.4 Q44.45 116.45 44.45 120.8 44.45 125.2 42.8 128.25 41.2 131.3 38.85 131.3 36.6 131.3 35.0 128.25 33.3 125.2 33.3 120.8 33.3 116.45 35.0 113.4 36.6 110.35 38.85 110.35 41.2 110.35 42.8 113.4 M61.1 128.85 L59.5 125.6 59.5 120.8 57.9 116.0 52.4 112.75 50.75 112.75 M52.4 116.8 Q53.35 116.8 54.05 118.1 54.75 119.35 54.75 121.2 54.75 123.05 54.05 124.35 53.35 125.6 52.4 125.6 51.35 125.6 50.65 124.35 50.0 123.05 50.0 121.2 50.0 119.35 50.65 118.1 51.35 116.8 52.4 116.8 M41.45 136.4 L41.9 136.7 44.45 128.85 61.1 128.85 77.7 128.85 M41.45 136.4 L41.9 136.8 41.9 136.7 42.05 136.9 41.9 136.8 39.9 142.95 38.15 148.25 36.75 152.75 Q39.05 154.0 41.0 156.25 L41.1 156.35 Q47.85 164.15 50.75 182.8 L60.25 182.8 62.9 185.9 67.35 182.9 57.9 175.55 57.9 154.6 62.7 150.95 Q59.5 145.7 55.8 140.95 L55.65 140.85 Q50.55 134.3 44.45 128.85 M59.5 125.6 L76.15 125.6 M62.05 103.1 L59.0 107.1 80.95 107.1 M59.5 120.8 L76.15 120.8 M57.9 116.0 L74.55 116.0 M52.4 112.75 L67.45 112.75 M57.8 103.05 L62.05 103.05 M35.3 101.55 Q34.5 104.4 32.95 106.8 31.0 110.25 28.55 111.65 M29.35 127.35 L28.55 128.85 41.45 136.4 M28.55 136.9 L31.7 136.9 36.5 136.9 39.9 142.95 M38.15 148.25 L31.7 136.9 M30.85 120.8 Q30.75 124.2 29.35 127.35 L20.6 120.8 M23.4 161.1 L16.05 145.05 25.4 144.95 30.95 156.25 41.0 156.25 M23.4 161.1 L20.6 161.1 M50.75 182.8 L36.5 161.1 23.4 161.1 M20.6 190.05 L23.0 190.85 29.9 193.25 30.85 191.65 23.0 188.5 12.8 175.65 M23.0 194.85 L20.6 194.85 Q16.3 197.65 14.25 201.3 M28.55 195.7 L29.9 193.25 M20.6 194.85 L20.6 190.05 0.85 195.7 M23.0 194.85 L23.0 190.85 M28.55 197.3 L28.55 195.7 48.35 195.7 Q52.85 188.75 60.25 182.8 M30.85 191.65 Q34.6 186.1 40.45 182.8 34.4 172.05 24.25 168.5 M19.55 197.3 Q21.45 195.85 23.0 194.85 M14.25 182.1 L20.6 190.05 M70.6 183.6 L72.95 183.6 76.15 178.0 80.95 173.95 119.8 173.95 M84.1 190.05 L76.95 182.8 80.95 182.8 86.45 182.8 91.25 187.65 100.75 187.65 109.5 196.5 118.2 196.5 119.8 193.3 Q107.4 182.75 80.95 173.95 M67.35 182.9 L68.2 183.6 72.95 173.95 57.9 154.6 M68.2 183.6 L70.6 183.6 70.6 184.45 73.7 190.1 84.1 190.05 88.05 190.05 80.95 182.8 M64.3 187.65 L62.9 185.9 M64.3 187.65 L64.3 193.3 M73.7 190.1 L75.35 193.3 M48.35 195.7 L64.3 187.65 M72.95 173.95 L79.35 169.1 67.45 147.4 62.7 150.95 M40.45 182.8 L50.75 182.8 M84.25 103.1 L87.25 99.05 82.5 99.05 M67.45 147.4 L88.05 147.4 99.95 147.4 M93.6 190.05 L99.95 196.5 103.95 196.5 97.6 190.05 93.6 190.05 88.05 190.05 M118.2 183.7 L112.65 180.4 118.2 180.4 Q129.0 186.85 136.45 193.3 L149.15 193.3 M103.95 196.5 L109.5 196.5 M118.2 180.4 L118.2 183.7 Q124.85 188.0 130.85 193.3 L129.3 196.5 134.85 196.5 136.45 193.3 M99.15 169.1 L119.0 169.1 M130.85 193.3 L119.8 193.3 M99.15 169.1 L88.05 147.4 M78.15 64.45 L82.1 80.55 M55.8 140.95 L96.85 140.9 M79.35 169.1 L99.15 169.1 M88.5 103.1 L99.95 88.55 M121.35 201.3 L122.95 198.15 141.25 198.15 139.6 201.3 M118.2 196.5 L115.8 201.3 M48.35 195.7 L48.35 201.3" fill="none" stroke="#000000" stroke-width="0.7" stroke-opacity="0.4"/>
  </g>
  <defs>
    <radialGradient cx="0" cy="0" gradientTransform="matrix(0.0949, 0.0, 0.0, 0.0949, 92.45, 44.45)" gradientUnits="userSpaceOnUse" id="gradient0" r="819.2" spreadMethod="pad">
      <stop offset="0.0" stop-color="#bbbbbb"/>
      <stop offset="1.0" stop-color="#747474"/>
    </radialGradient>
    <radialGradient cx="0" cy="0" gradientTransform="matrix(0.064, 0.0, 0.0, 0.064, 74.55, 40.2)" gradientUnits="userSpaceOnUse" id="gradient1" r="819.2" spreadMethod="pad">
      <stop offset="0.0" stop-color="#ff0000"/>
      <stop offset="1.0" stop-color="#141414"/>
    </radialGradient>
    <radialGradient cx="0" cy="0" gradientTransform="matrix(0.0263, 0.0, 0.0, 0.0263, 25.35, 106.5)" gradientUnits="userSpaceOnUse" id="gradient2" r="819.2" spreadMethod="pad">
      <stop offset="0.0" stop-color="#bbbbbb"/>
      <stop offset="1.0" stop-color="#747474"/>
    </radialGradient>
    <radialGradient cx="0" cy="0" gradientTransform="matrix(0.0177, 0.0, 0.0, 0.0177, 21.65, 90.45)" gradientUnits="userSpaceOnUse" id="gradient3" r="819.2" spreadMethod="pad">
      <stop offset="0.0" stop-color="#bbbbbb"/>
      <stop offset="1.0" stop-color="#747474"/>
    </radialGradient>
    <radialGradient cx="0" cy="0" gradientTransform="matrix(0.0096, 0.0, 0.0, 0.0096, 27.55, 96.7)" gradientUnits="userSpaceOnUse" id="gradient4" r="819.2" spreadMethod="pad">
      <stop offset="0.0" stop-color="#ff0000"/>
      <stop offset="1.0" stop-color="#141414"/>
    </radialGradient>
    <radialGradient cx="0" cy="0" gradientTransform="matrix(0.0241, 0.0, 0.0, 0.0241, 39.55, 130.0)" gradientUnits="userSpaceOnUse" id="gradient5" r="819.2" spreadMethod="pad">
      <stop offset="0.0" stop-color="#bbbbbb"/>
      <stop offset="1.0" stop-color="#747474"/>
    </radialGradient>
    <radialGradient cx="0" cy="0" gradientTransform="matrix(0.0098, 0.0, 0.0, 0.0098, 41.55, 120.7)" gradientUnits="userSpaceOnUse" id="gradient6" r="819.2" spreadMethod="pad">
      <stop offset="0.0" stop-color="#ff0000"/>
      <stop offset="1.0" stop-color="#141414"/>
    </radialGradient>
    <radialGradient cx="0" cy="0" gradientTransform="matrix(0.0071, 0.0, 0.0, 0.0071, 54.05, 121.7)" gradientUnits="userSpaceOnUse" id="gradient7" r="819.2" spreadMethod="pad">
      <stop offset="0.0" stop-color="#ff0000"/>
      <stop offset="1.0" stop-color="#141414"/>
    </radialGradient>
    <radialGradient cx="0" cy="0" gradientTransform="matrix(0.019, 0.0, 0.0, 0.019, 38.15, 113.25)" gradientUnits="userSpaceOnUse" id="gradient8" r="819.2" spreadMethod="pad">
      <stop offset="0.0" stop-color="#bbbbbb"/>
      <stop offset="1.0" stop-color="#747474"/>
    </radialGradient>
    <radialGradient cx="0" cy="0" gradientTransform="matrix(0.0454, 0.0, 0.0, 0.0454, 45.55, 167.7)" gradientUnits="userSpaceOnUse" id="gradient9" r="819.2" spreadMethod="pad">
      <stop offset="0.0" stop-color="#ff0000"/>
      <stop offset="1.0" stop-color="#141414"/>
    </radialGradient>
    <radialGradient cx="0" cy="0" gradientTransform="matrix(0.0304, 0.0, 0.0, 0.0304, 87.05, 185.7)" gradientUnits="userSpaceOnUse" id="gradient10" r="819.2" spreadMethod="pad">
      <stop offset="0.0" stop-color="#ff0000"/>
      <stop offset="1.0" stop-color="#141414"/>
    </radialGradient>
    <radialGradient cx="0" cy="0" gradientTransform="matrix(0.023, 0.0, 0.0, 0.023, 120.55, 184.2)" gradientUnits="userSpaceOnUse" id="gradient11" r="819.2" spreadMethod="pad">
      <stop offset="0.0" stop-color="#ff0000"/>
      <stop offset="1.0" stop-color="#141414"/>
    </radialGradient>
    <radialGradient cx="0" cy="0" gradientTransform="matrix(0.0246, 0.0, 0.0, 0.0246, 131.8, 195.1)" gradientUnits="userSpaceOnUse" id="gradient12" r="819.2" spreadMethod="pad">
      <stop offset="0.0" stop-color="#ff0000"/>
      <stop offset="1.0" stop-color="#000000"/>
    </radialGradient>
    <radialGradient cx="0" cy="0" gradientTransform="matrix(0.0774, 0.0, 0.0, 0.0774, 141.95, 190.85)" gradientUnits="userSpaceOnUse" id="gradient13" r="819.2" spreadMethod="pad">
      <stop offset="0.0" stop-color="#bbbbbb"/>
      <stop offset="1.0" stop-color="#747474"/>
    </radialGradient>
  </defs>
</svg>
