<?xml version="1.0" encoding="UTF-8" standalone="no"?>
<svg xmlns:xlink="http://www.w3.org/1999/xlink" height="197.8px" width="150.3px" xmlns="http://www.w3.org/2000/svg">
  <g transform="matrix(1.0, 0.0, 0.0, 1.0, 0.0, 0.05)">
    <path d="M131.45 47.7 L124.15 47.7 120.7 43.4 118.9 41.2 118.9 41.05 118.7 41.05 113.2 34.4 111.05 31.8 110.85 31.8 110.85 31.25 104.4 23.65 102.85 23.65 104.4 23.65 110.85 31.25 96.25 31.25 91.65 27.1 91.65 27.05 91.05 26.55 87.9 23.65 102.85 23.65 102.3 21.1 96.5 14.05 94.75 14.05 96.5 14.05 102.3 21.1 85.2 21.1 85.2 21.15 77.4 14.05 94.75 14.05 94.15 11.25 90.3 6.45 94.15 11.25 74.3 11.25 61.25 0.0 84.9 0.0 89.8 5.95 90.2 6.45 90.3 6.45 99.15 6.45 131.45 47.7 M110.1 47.7 L101.45 47.7 53.4 6.45 64.75 6.45 110.1 47.7 M107.9 33.7 L114.6 41.05 111.3 41.05 103.85 33.7 107.9 33.7 M116.85 43.5 L118.05 44.9 115.1 44.9 113.7 43.5 116.85 43.5 M113.9 156.4 L120.6 156.4 121.55 157.9 Q123.6 160.9 125.35 164.2 L126.8 167.25 Q130.55 175.45 133.0 185.65 L119.6 185.65 117.55 178.25 117.5 177.9 Q115.95 173.3 114.2 169.2 L111.95 164.3 111.95 164.2 Q109.7 160.05 107.1 156.4 L110.65 156.4 113.9 156.4 M124.35 156.4 L137.8 156.4 Q140.35 160.05 142.55 164.2 147.4 173.5 150.3 185.65 L136.85 185.65 Q133.95 173.5 129.15 164.2 127.0 160.05 124.35 156.4 M94.65 164.2 Q92.5 160.05 89.8 156.4 L103.2 156.4 103.8 157.1 104.25 157.9 104.8 158.55 Q106.6 161.2 108.1 164.2 L109.7 167.5 Q112.4 173.45 114.45 180.45 L115.7 185.65 102.3 185.65 Q100.65 178.65 98.3 172.55 96.9 168.55 95.05 165.0 L94.65 164.2 108.1 164.2 94.65 164.2 M111.95 164.2 L125.35 164.2 111.95 164.2 M142.55 164.2 L129.15 164.2 142.55 164.2" fill="#e3e3e3" fill-rule="evenodd" stroke="none"/>
    <path d="M94.15 11.25 L94.75 14.05 77.4 14.05 77.3 14.05 75.4 13.75 74.3 11.25 94.15 11.25 M102.3 21.1 L102.85 23.65 87.9 23.65 87.85 23.65 85.8 23.4 85.7 23.4 85.2 21.15 85.2 21.1 102.3 21.1 M110.85 31.25 L110.85 31.8 111.0 33.7 107.9 33.7 103.85 33.7 98.95 33.75 96.95 33.75 96.25 31.25 110.85 31.25 M118.7 41.05 L118.9 41.05 118.9 41.2 118.65 43.5 116.85 43.5 113.7 43.5 109.7 43.5 107.55 43.5 106.95 41.05 111.3 41.05 114.6 41.05 118.7 41.05" fill="#c2c2c2" fill-rule="evenodd" stroke="none"/>
    <path d="M124.15 47.7 L131.45 47.7 131.5 47.85 Q136.65 59.55 136.9 70.1 L136.85 74.05 136.25 79.15 Q135.15 84.35 132.9 89.4 L131.75 91.45 127.45 91.45 Q130.6 85.05 131.5 78.35 L127.6 78.35 113.15 78.35 112.0 78.35 110.95 82.85 Q109.7 87.2 107.35 91.45 L101.65 91.45 Q112.35 72.2 101.45 47.7 L110.1 47.7 Q116.7 55.65 118.05 69.95 L128.7 69.95 Q130.55 57.65 124.15 47.7" fill="#cccccc" fill-rule="evenodd" stroke="none"/>
    <path d="M118.05 69.95 Q116.7 55.65 110.1 47.7 L64.75 6.45 53.4 6.45 19.05 18.25 22.65 13.25 61.25 0.0 74.3 11.25 75.4 13.75 77.3 14.05 77.4 14.05 85.2 21.15 85.7 23.4 85.8 23.4 87.85 23.65 87.9 23.65 91.05 26.55 91.65 27.1 96.25 31.25 96.95 33.75 98.95 33.75 106.95 41.05 107.55 43.5 109.7 43.5 Q118.4 51.8 118.05 69.95 M91.65 27.1 L91.05 26.55 91.65 27.05 91.65 27.1" fill="#a6a6a6" fill-rule="evenodd" stroke="none"/>
    <path d="M127.6 78.35 L131.5 78.35 Q130.6 85.05 127.45 91.45 L126.45 91.45 127.6 88.55 Q128.2 86.2 128.2 83.45 128.2 80.7 127.6 78.35 M83.1 78.3 L83.55 78.55 84.65 79.15 87.85 81.1 85.7 79.9 83.55 78.55 85.7 79.9 73.3 84.4 Q70.25 83.05 67.6 82.25 L58.8 81.95 56.95 82.4 56.85 82.45 56.95 82.4 58.8 81.95 67.6 82.25 Q70.25 83.05 73.3 84.4 L72.95 84.6 71.55 85.0 68.5 84.8 67.1 85.15 65.45 85.15 63.1 84.05 Q59.8 83.1 55.15 83.2 59.8 83.1 63.1 84.05 L65.45 85.15 67.1 85.15 57.4 88.15 52.05 89.75 52.05 98.45 52.05 100.5 49.85 105.5 50.85 112.55 52.05 113.3 Q52.85 115.5 52.85 117.65 52.85 120.0 52.05 122.1 L52.0 122.1 50.05 121.1 49.9 121.1 48.55 120.6 Q44.15 119.6 40.45 123.1 L39.4 124.1 38.8 124.85 42.35 129.95 45.95 135.05 49.65 140.45 54.45 147.3 51.0 151.7 46.3 157.9 44.75 160.05 40.85 165.15 40.15 165.9 48.75 171.75 Q49.25 166.35 52.15 162.25 55.35 158.4 59.35 157.7 L59.8 157.65 60.8 157.55 61.3 157.55 Q63.55 157.65 65.45 158.5 66.75 159.1 67.9 160.05 L70.25 162.25 Q71.65 164.2 72.55 166.7 L73.0 168.1 73.45 167.2 73.0 168.15 73.1 168.35 76.4 168.35 80.35 165.2 80.5 165.2 80.1 167.15 79.5 171.3 78.75 175.3 78.25 179.0 78.05 180.2 77.2 185.15 90.15 194.5 72.75 194.5 61.0 194.5 60.95 194.6 Q59.3 195.25 53.7 197.75 L44.5 185.7 34.05 173.65 35.45 171.85 40.15 165.9 27.05 147.0 30.55 139.55 25.45 132.35 18.5 127.75 Q16.0 126.8 13.8 124.1 L13.55 123.85 13.1 123.1 Q10.5 118.9 10.5 113.15 10.5 106.85 13.55 102.55 16.4 99.15 19.8 98.5 L20.35 98.45 21.15 98.45 21.65 98.45 Q24.75 98.55 27.3 100.5 L29.35 102.55 30.75 104.95 35.2 104.95 39.75 103.15 39.75 99.5 38.4 89.85 31.3 95.95 31.3 91.95 37.15 88.15 Q39.3 88.55 39.9 89.3 L55.15 83.2 56.85 82.45 56.75 82.45 54.95 83.2 68.6 76.7 62.6 76.7 57.3 80.85 56.5 80.85 49.4 80.85 46.35 80.85 45.75 80.85 43.4 79.45 42.25 78.75 32.0 82.3 Q23.75 80.5 23.65 74.25 L19.6 75.55 Q12.6 73.75 12.45 67.85 12.35 65.3 13.5 62.2 L16.6 60.35 8.6 57.3 7.25 52.2 10.1 53.3 11.05 53.7 14.65 55.1 18.05 56.5 18.5 56.65 21.2 57.75 25.65 59.5 28.75 61.7 28.9 61.95 31.3 71.85 28.3 69.9 25.65 59.5 28.3 69.9 31.3 71.85 28.9 61.95 28.75 61.7 29.05 61.7 29.05 61.9 31.8 63.75 34.85 65.9 37.35 75.6 34.3 73.7 31.8 63.75 34.3 73.7 37.35 75.6 34.85 65.9 38.0 68.0 40.45 77.5 37.35 75.6 40.45 77.5 38.0 68.0 41.15 70.2 42.25 70.95 42.95 70.9 Q43.6 71.85 43.8 70.75 L47.65 70.2 48.55 70.1 49.0 70.1 52.85 69.9 55.55 70.0 Q63.0 70.35 70.4 72.75 L70.65 72.85 Q72.2 73.3 73.75 74.05 77.05 75.2 80.25 76.8 L80.5 76.85 80.55 76.85 81.0 77.15 83.1 78.3 M89.5 83.65 L89.65 86.35 81.15 89.75 80.6 89.35 Q79.6 88.55 78.6 87.9 L89.5 83.65 M91.55 92.0 Q92.1 93.4 93.2 94.55 L93.6 95.1 88.9 96.95 85.95 94.25 91.55 92.0 M28.3 98.45 L31.3 95.95 38.4 89.85 39.75 99.5 39.75 103.15 35.2 104.95 Q36.05 111.55 40.1 114.7 L48.9 114.9 49.85 114.4 50.45 114.15 50.6 114.5 50.45 114.15 49.85 114.4 48.9 114.9 40.1 114.7 33.85 114.5 35.75 117.65 52.85 117.65 35.75 117.65 33.85 114.5 40.1 114.7 Q36.05 111.55 35.2 104.95 33.25 99.1 28.3 98.45 M40.05 25.6 L39.15 31.2 24.9 36.8 25.85 31.2 40.05 25.6 M16.6 60.35 L21.2 57.75 16.6 60.35 M28.75 61.7 L29.05 61.9 28.75 61.7 M34.3 73.7 L31.3 71.85 34.3 73.7 M8.6 57.3 L14.65 55.1 8.6 57.3 M14.55 68.45 L12.45 67.85 14.55 68.45 M39.9 89.3 L38.4 89.85 39.9 89.3 M49.0 95.6 L48.25 94.9 43.85 91.75 48.25 94.9 49.0 95.6 M49.4 80.85 Q52.4 79.65 56.5 80.85 52.4 79.65 49.4 80.85 M62.6 76.7 L52.85 76.7 Q47.95 75.95 47.65 70.2 47.95 75.95 52.85 76.7 L62.6 76.7 M42.25 78.75 L40.45 77.5 42.25 78.75 M41.15 70.2 L43.4 79.45 41.15 70.2 M46.35 80.85 L43.8 70.75 46.35 80.85 M73.75 74.05 L68.6 76.7 73.75 74.05 M52.05 113.3 L50.45 114.15 50.45 114.1 49.85 114.4 50.45 114.1 50.45 114.15 52.05 113.3 M33.85 114.5 L32.4 114.5 32.4 113.15 Q32.2 108.6 31.45 106.35 L30.75 104.95 31.45 106.35 Q32.2 108.6 32.4 113.15 L32.4 114.5 33.85 114.5 M28.15 113.1 Q28.15 108.25 25.85 104.65 23.65 101.2 20.5 101.2 17.4 101.2 15.1 104.65 12.9 108.25 12.9 113.1 12.9 118.05 15.1 121.55 15.8 122.7 16.6 123.5 18.4 125.1 20.5 125.1 23.65 125.1 25.85 121.55 28.15 118.05 28.15 113.1 M32.4 114.5 L32.25 116.1 31.7 119.25 29.9 123.1 29.35 123.85 29.05 124.1 Q27.3 126.4 25.1 127.4 L22.55 128.15 21.35 128.2 19.8 128.05 18.5 127.75 19.8 128.05 21.35 128.2 22.55 128.15 25.1 127.4 Q27.3 126.4 29.05 124.1 L29.35 123.85 29.9 123.1 31.7 119.25 32.25 116.1 32.4 114.5 M36.0 130.15 Q31.1 130.15 30.5 135.05 L28.6 132.35 28.15 132.35 32.25 125.85 35.4 124.85 33.85 127.15 36.0 130.15 33.85 127.15 35.4 124.85 32.25 125.85 28.15 132.35 28.6 132.35 30.5 135.05 41.6 151.1 Q43.6 146.75 47.9 147.2 L36.0 130.15 M28.15 132.35 L25.45 132.35 28.15 132.35 M35.75 117.65 L35.4 124.85 38.8 124.85 35.4 124.85 35.75 117.65 M38.1 171.0 L48.9 178.7 Q49.65 182.7 51.65 185.85 51.75 186.45 52.15 186.65 L52.45 187.0 Q54.9 190.0 57.85 191.2 L59.35 191.5 61.15 191.7 62.3 191.65 61.0 194.5 62.3 191.65 61.15 191.7 59.35 191.5 57.85 191.2 Q54.9 190.0 52.45 187.0 L52.15 186.65 Q51.75 186.45 51.65 185.85 49.65 182.7 48.9 178.7 L38.1 171.0 M48.9 178.7 Q48.55 176.7 48.55 174.45 L48.75 171.75 48.55 174.45 Q48.55 176.7 48.9 178.7 M58.6 163.8 L58.0 163.85 57.65 163.9 Q54.95 164.35 52.8 166.95 50.95 169.6 50.6 173.0 L50.45 175.15 Q50.45 178.0 51.3 180.4 L52.45 182.8 52.8 183.35 53.0 183.6 Q54.6 185.55 56.55 186.35 L57.65 186.65 58.85 186.7 59.75 186.65 60.0 186.65 61.7 186.05 Q63.4 185.3 64.7 183.6 L65.0 183.35 65.25 182.9 65.3 182.8 66.75 179.85 67.2 177.4 67.3 175.15 67.3 174.3 Q67.2 171.85 66.55 169.9 L65.0 166.95 63.4 165.4 Q61.35 163.9 59.0 163.8 L58.6 163.8 M73.35 169.5 L76.4 168.35 73.2 168.8 73.35 169.5 73.75 173.15 73.75 173.35 73.75 174.45 73.7 177.2 73.6 177.85 73.1 180.85 72.9 181.5 Q72.0 183.85 70.75 185.85 70.6 186.45 70.25 186.65 L69.95 187.0 Q67.9 189.6 65.35 190.75 63.95 191.4 62.4 191.55 L62.3 191.65 62.4 191.55 Q63.95 191.4 65.35 190.75 67.9 189.6 69.95 187.0 L70.25 186.65 Q70.6 186.45 70.75 185.85 72.0 183.85 72.9 181.5 L73.1 180.85 73.6 177.85 73.7 177.2 73.75 174.45 73.75 173.35 73.75 173.15 73.35 169.5 73.2 168.8 73.1 168.35 73.2 168.8 76.4 168.35 73.35 169.5 M73.0 168.1 L73.0 168.15 73.0 168.1 M80.1 167.15 L76.4 168.35 80.1 167.15 M40.85 165.15 L40.5 165.3 40.15 165.9 40.5 165.3 40.85 165.15 M41.6 151.1 L46.3 157.9 41.6 151.1 M73.7 177.2 L78.75 175.3 73.7 177.2 M78.25 179.0 L73.1 180.85 78.25 179.0 M44.75 160.05 L30.55 139.55 44.75 160.05 M73.75 173.35 L79.5 171.3 73.75 173.35 M39.75 103.15 Q42.75 112.15 48.9 114.9 42.75 112.15 39.75 103.15 M47.9 147.2 L51.0 151.7 47.9 147.2 M81.0 77.15 L80.5 76.85 81.0 77.15" fill="#333333" fill-rule="evenodd" stroke="none"/>
    <path d="M101.65 91.45 L107.35 91.45 Q109.7 87.2 110.95 82.85 L112.0 78.35 113.15 78.35 Q113.6 80.65 113.6 83.25 L113.6 83.45 Q113.6 86.2 113.0 88.55 L111.95 91.45 109.9 94.55 108.8 95.95 Q105.95 99.2 101.8 99.3 L101.15 99.3 Q99.1 99.25 97.15 98.25 95.25 97.15 93.6 95.1 95.25 97.15 97.15 98.25 L92.45 100.15 88.9 96.95 93.6 95.1 93.2 94.55 Q92.1 93.4 91.55 92.0 90.1 89.5 89.65 86.35 L89.5 83.65 89.5 83.45 89.5 82.15 91.0 83.1 91.85 83.7 94.55 85.75 96.25 86.95 99.0 89.2 101.65 91.45 M91.85 83.7 Q91.85 84.8 92.0 85.75 92.4 88.2 93.5 90.15 93.95 91.3 94.75 92.3 L95.15 92.65 Q96.4 94.35 97.95 95.2 99.45 96.0 101.1 96.0 99.45 96.0 97.95 95.2 96.4 94.35 95.15 92.65 L94.75 92.3 Q93.95 91.3 93.5 90.15 92.4 88.2 92.0 85.75 91.85 84.8 91.85 83.7 M101.5 96.0 Q104.85 95.95 107.15 93.4 L108.0 92.3 109.7 89.75 110.1 88.55 113.0 88.55 110.1 88.55 109.7 89.75 108.0 92.3 107.15 93.4 Q104.85 95.95 101.5 96.0" fill="#454545" fill-rule="evenodd" stroke="none"/>
    <path d="M101.45 47.7 Q112.35 72.2 101.65 91.45 L99.0 89.2 96.25 86.95 94.55 85.75 91.85 83.7 91.0 83.1 89.5 82.15 88.55 81.55 88.55 81.5 88.35 81.3 88.55 81.5 88.4 81.45 88.35 81.3 87.85 81.1 84.65 79.15 83.55 78.55 83.1 78.3 81.0 77.15 80.55 76.85 80.5 76.85 80.25 76.8 Q77.05 75.2 73.75 74.05 72.2 73.3 70.65 72.85 L70.4 72.75 Q63.0 70.35 55.55 70.0 L52.85 69.9 49.0 70.1 48.55 70.1 47.65 70.2 43.8 70.75 Q43.6 71.85 42.95 70.9 L42.25 70.95 41.15 70.2 38.0 68.0 34.85 65.9 31.8 63.75 29.05 61.9 29.05 61.7 28.75 61.7 25.65 59.5 21.2 57.75 18.5 56.65 18.05 56.5 14.65 55.1 11.05 53.7 10.6 53.5 10.1 53.3 7.25 52.2 2.35 50.2 0.0 38.05 5.2 28.05 8.35 22.1 19.05 18.25 53.4 6.45 101.45 47.7 97.5 54.35 101.45 47.7 M97.5 54.35 L97.95 53.5 75.55 36.2 49.2 15.95 44.4 17.75 16.75 27.9 16.05 31.0 5.2 28.05 16.05 31.0 16.75 27.9 44.4 17.75 68.65 36.4 93.0 55.1 84.3 70.65 Q71.4 63.35 54.6 61.95 49.05 61.5 43.15 61.7 L39.1 61.9 28.1 53.9 26.1 52.45 27.8 51.9 Q33.8 49.85 41.35 50.0 46.95 50.0 53.35 51.25 L60.05 52.7 68.65 36.4 60.05 52.7 53.35 51.25 Q46.95 50.0 41.35 50.0 33.8 49.85 27.8 51.9 L26.1 52.45 28.1 53.9 39.1 61.9 43.55 65.05 43.6 65.05 Q48.9 63.9 54.95 64.25 L55.55 70.0 54.95 64.25 Q68.45 65.05 85.65 74.05 L85.7 74.05 97.5 54.35 M83.1 78.3 L85.65 74.05 83.1 78.3 M103.4 110.85 L104.25 110.8 91.7 114.1 78.2 117.6 71.2 119.45 Q65.65 120.4 57.85 117.4 L55.5 115.9 55.1 115.65 Q53.65 114.65 52.35 113.5 L52.05 113.3 50.85 112.55 49.85 105.5 52.05 100.5 52.05 98.45 52.05 89.75 57.4 88.15 67.1 85.15 68.5 84.8 68.95 85.0 73.55 88.3 87.45 101.0 Q96.8 110.85 103.4 110.85 M121.55 157.9 L124.35 156.4 Q127.0 160.05 129.15 164.2 L126.8 167.25 125.35 164.2 Q123.6 160.9 121.55 157.9 M129.0 197.75 L126.4 195.85 133.0 185.65 Q130.55 175.45 126.8 167.25 L129.15 164.2 Q133.95 173.5 136.85 185.65 L129.0 197.75 M111.65 197.75 L109.1 195.85 115.7 185.65 114.45 180.45 Q112.4 173.45 109.7 167.5 L108.1 164.2 Q106.6 161.2 104.8 158.55 L104.25 157.9 107.1 156.4 Q109.7 160.05 111.95 164.2 L111.95 164.3 109.7 167.5 111.95 164.3 114.2 169.2 Q115.95 173.3 117.5 177.9 L117.55 178.25 119.6 185.65 111.65 197.75 M94.5 197.75 L90.15 194.5 77.2 185.15 78.05 180.2 78.25 179.0 78.75 175.3 79.5 171.3 80.1 167.15 80.5 165.2 80.5 165.0 80.9 162.2 89.8 156.4 Q92.5 160.05 94.65 164.2 L87.4 180.2 78.05 180.2 87.4 180.2 94.65 164.2 95.05 165.0 Q96.9 168.55 98.3 172.55 100.65 178.65 102.3 185.65 L94.5 197.75 M53.7 197.75 L28.95 197.75 21.95 186.1 21.95 185.7 21.95 180.05 Q30.15 177.1 35.45 171.85 L34.05 173.65 44.5 185.7 53.7 197.75 M16.05 31.0 L13.15 43.15 26.1 52.45 13.15 43.15 16.05 31.0 M40.05 25.6 L25.85 31.2 24.9 36.8 39.15 31.2 40.05 25.6 M28.1 53.9 L29.05 61.7 28.1 53.9 M43.55 65.05 Q44.0 69.4 43.8 70.75 L42.95 70.9 43.8 70.75 Q44.0 69.4 43.55 65.05 M78.2 117.6 Q71.6 117.4 62.2 107.65 L52.05 98.45 62.2 107.65 Q71.6 117.4 78.2 117.6 M91.7 114.1 Q85.05 113.9 75.65 104.0 L61.7 91.3 57.4 88.15 61.7 91.3 75.65 104.0 Q85.05 113.9 91.7 114.1 M54.45 147.3 L62.6 136.55 63.05 136.55 63.3 136.6 Q71.25 137.65 77.0 141.4 L75.0 141.4 65.45 158.5 75.0 141.4 77.0 141.4 Q80.25 143.5 82.85 146.6 L75.4 162.75 75.4 162.8 73.45 167.2 73.0 168.1 72.55 166.7 Q71.65 164.2 70.25 162.25 L67.9 160.05 Q66.75 159.1 65.45 158.5 63.55 157.65 61.3 157.55 L60.8 157.55 59.8 157.65 59.35 157.7 Q55.35 158.4 52.15 162.25 49.25 166.35 48.75 171.75 L40.15 165.9 40.85 165.15 44.75 160.05 46.3 157.9 51.0 151.7 54.45 147.3 M20.8 122.05 Q22.65 121.75 24.05 119.4 25.4 117.1 25.55 113.9 L25.55 113.3 25.55 113.2 Q25.55 109.7 24.05 107.05 23.05 105.4 21.9 104.95 23.05 105.4 24.05 107.05 25.55 109.7 25.55 113.2 L25.55 113.3 25.55 113.9 Q25.4 117.1 24.05 119.4 22.65 121.75 20.8 122.05 19.25 121.55 18.0 119.55 16.5 117.25 16.5 113.9 L16.5 113.5 16.5 113.2 Q16.5 109.8 18.0 107.3 19.5 104.95 21.65 104.95 L21.9 104.95 20.4 104.65 Q18.15 104.65 16.6 107.05 15.1 109.7 15.1 113.3 15.1 116.9 16.6 119.4 18.15 122.05 20.4 122.05 L20.8 122.05 M25.55 113.9 L16.5 113.9 25.55 113.9 M28.15 113.1 Q28.15 118.05 25.85 121.55 23.65 125.1 20.5 125.1 18.4 125.1 16.6 123.5 15.8 122.7 15.1 121.55 12.9 118.05 12.9 113.1 12.9 108.25 15.1 104.65 17.4 101.2 20.5 101.2 23.65 101.2 25.85 104.65 28.15 108.25 28.15 113.1 M21.95 185.7 L44.5 185.7 21.95 185.7 M106.15 101.65 L111.95 99.3 107.5 102.05 111.95 99.3 106.15 101.65 M111.95 99.3 L115.95 99.3 116.35 99.3 Q111.25 101.1 111.95 99.3 103.35 108.85 94.55 102.05 L111.95 99.3" fill="#666666" fill-rule="evenodd" stroke="none"/>
    <path d="M44.4 17.75 L49.2 15.95 75.55 36.2 97.95 53.5 93.0 55.1 68.65 36.4 75.55 36.2 68.65 36.4 44.4 17.75" fill="#838383" fill-rule="evenodd" stroke="none"/>
    <path d="M97.95 53.5 L97.5 54.35 85.7 74.05 85.7 73.95 84.3 70.65 93.0 55.1 97.95 53.5" fill="#6b6b6b" fill-rule="evenodd" stroke="none"/>
    <path d="M84.3 70.65 L85.7 73.95 85.7 74.05 85.65 74.05 Q68.45 65.05 54.95 64.25 48.9 63.9 43.6 65.05 L43.55 65.05 39.1 61.9 43.15 61.7 Q49.05 61.5 54.6 61.95 71.4 63.35 84.3 70.65" fill="#585858" fill-rule="evenodd" stroke="none"/>
    <path d="M20.8 122.05 L20.4 122.05 Q18.15 122.05 16.6 119.4 15.1 116.9 15.1 113.3 15.1 109.7 16.6 107.05 18.15 104.65 20.4 104.65 L21.9 104.95 21.65 104.95 Q19.5 104.95 18.0 107.3 16.5 109.8 16.5 113.2 L16.5 113.5 16.5 113.9 Q16.5 117.25 18.0 119.55 19.25 121.55 20.8 122.05" fill="#545454" fill-rule="evenodd" stroke="none"/>
    <path d="M97.15 98.25 Q99.1 99.25 101.15 99.3 L101.8 99.3 111.95 99.3 94.55 102.05 92.45 100.15 97.15 98.25" fill="#555555" fill-rule="evenodd" stroke="none"/>
    <path d="M65.45 136.55 L87.4 136.55 Q91.25 137.55 94.55 138.8 L98.5 140.5 100.3 141.4 Q102.2 142.3 103.8 143.4 106.15 144.85 108.15 146.6 L82.85 146.6 Q80.25 143.5 77.0 141.4 71.25 137.65 63.3 136.6 L63.4 136.55 65.45 136.55 M100.3 141.4 L77.0 141.4 100.3 141.4" fill="#efefef" fill-rule="evenodd" stroke="none"/>
    <path d="M108.15 146.6 L113.9 156.4 110.65 156.4 106.6 149.4 88.4 149.4 85.45 149.4 76.4 168.35 73.1 168.35 73.0 168.15 73.45 167.2 75.4 162.8 75.4 162.75 82.85 146.6 108.15 146.6" fill="#d5d5d5" fill-rule="evenodd" stroke="none"/>
    <path d="M58.6 163.8 L59.0 163.8 Q61.35 163.9 63.4 165.4 L65.0 166.95 66.55 169.9 Q67.2 171.85 67.3 174.3 L67.3 175.15 67.2 177.4 66.75 179.85 65.3 182.8 65.25 182.9 65.0 183.35 64.7 183.6 Q63.4 185.3 61.7 186.05 L60.0 186.65 59.75 186.65 58.85 186.7 57.65 186.65 56.55 186.35 Q54.6 185.55 53.0 183.6 L52.8 183.35 52.45 182.8 51.3 180.4 Q50.45 178.0 50.45 175.15 L50.6 173.0 Q50.95 169.6 52.8 166.95 54.95 164.35 57.65 163.9 L58.0 163.85 58.6 163.8 M65.65 175.15 Q65.65 172.0 63.95 169.8 62.2 167.65 59.8 167.65 L59.45 167.65 Q57.35 167.75 55.75 169.8 54.0 172.0 54.0 175.15 L54.0 175.45 Q54.1 178.35 55.75 180.45 57.35 182.5 59.45 182.7 L59.8 182.7 Q61.55 182.7 63.0 181.4 L63.95 180.45 Q65.65 178.2 65.65 175.15" fill="#414141" fill-rule="evenodd" stroke="none"/>
    <path d="M72.75 194.5 L72.2 197.75 53.7 197.75 Q59.3 195.25 60.95 194.6 L61.0 194.5 72.75 194.5" fill="#4a4a4a" fill-rule="evenodd" stroke="none"/>
    <path d="M150.3 185.65 L142.45 197.75 129.0 197.75 136.85 185.65 150.3 185.65 M126.4 195.85 L125.15 197.75 111.65 197.75 119.6 185.65 133.0 185.65 126.4 195.85 M109.1 195.85 L107.85 197.75 94.5 197.75 102.3 185.65 115.7 185.65 109.1 195.85" fill="#aaaaaa" fill-rule="evenodd" stroke="none"/>
    <path d="M110.85 31.8 L111.05 31.8 113.2 34.4 118.7 41.05 114.6 41.05 107.9 33.7 111.0 33.7 110.85 31.8 M118.9 41.2 L120.7 43.4 124.15 47.7 Q130.55 57.65 128.7 69.95 L118.05 69.95 Q118.4 51.8 109.7 43.5 L113.7 43.5 115.1 44.9 118.05 44.9 116.85 43.5 118.65 43.5 120.7 43.4 118.65 43.5 118.9 41.2 M113.2 34.4 L112.2 33.7 111.0 33.7 112.2 33.7 113.2 34.4 M103.85 33.7 L111.3 41.05 106.95 41.05 98.95 33.75 103.85 33.7 M78.6 87.9 Q79.6 88.55 80.6 89.35 L81.15 89.75 85.95 94.25 88.9 96.95 92.45 100.15 94.55 102.05 Q103.35 108.85 111.95 99.3 111.25 101.1 116.35 99.3 112.0 108.85 103.4 110.85 96.8 110.85 87.45 101.0 L73.55 88.3 68.95 85.0 68.5 84.8 71.55 85.0 74.6 85.05 76.1 86.05 76.55 86.35 78.6 87.9 M55.15 83.2 L54.95 83.2 56.75 82.45 56.85 82.45 55.15 83.2" fill="url(#gradient0)" fill-rule="evenodd" stroke="none"/>
    <path d="M87.85 81.1 L88.35 81.3 88.4 81.45 88.55 81.5 88.55 81.55 89.5 82.15 89.5 83.45 89.5 83.65 78.6 87.9 76.55 86.35 76.1 86.05 74.6 85.05 73.3 84.4 85.7 79.9 87.85 81.1" fill="url(#gradient1)" fill-rule="evenodd" stroke="none"/>
    <path d="M81.15 89.75 L89.65 86.35 Q90.1 89.5 91.55 92.0 L85.95 94.25 81.15 89.75" fill="url(#gradient2)" fill-rule="evenodd" stroke="none"/>
    <path d="M113.15 78.35 L127.6 78.35 Q128.2 80.7 128.2 83.45 128.2 86.2 127.6 88.55 L124.15 88.55 122.45 90.8 116.9 90.8 115.95 88.55 113.0 88.55 115.95 88.55 116.9 90.8 122.45 90.8 124.15 88.55 127.6 88.55 126.45 91.45 124.45 94.55 Q121.15 99.25 116.35 99.3 L115.95 99.3 111.95 99.3 101.8 99.3 Q105.95 99.2 108.8 95.95 L109.9 94.55 111.95 91.45 113.0 88.55 Q113.6 86.2 113.6 83.45 L113.6 83.25 Q113.6 80.65 113.15 78.35" fill="url(#gradient3)" fill-rule="evenodd" stroke="none"/>
    <path d="M21.65 98.45 L28.3 98.45 Q33.25 99.1 35.2 104.95 L30.75 104.95 29.35 102.55 27.3 100.5 Q24.75 98.55 21.65 98.45" fill="url(#gradient4)" fill-rule="evenodd" stroke="none"/>
    <path d="M73.3 84.4 L74.6 85.05 71.55 85.0 72.95 84.6 73.3 84.4" fill="url(#gradient5)" fill-rule="evenodd" stroke="none"/>
    <path d="M52.05 122.1 L52.85 122.7 53.6 123.1 54.8 124.1 55.55 124.85 59.85 129.95 64.25 135.05 65.45 136.55 63.4 136.55 62.7 136.3 62.6 136.55 54.45 147.3 49.65 140.45 Q56.65 134.3 62.7 136.3 56.65 134.3 49.65 140.45 L45.95 135.05 42.35 129.95 38.8 124.85 39.4 124.1 40.45 123.1 Q44.15 119.6 48.55 120.6 L49.9 121.1 50.05 121.1 52.0 122.1 52.05 122.1 52.05 122.75 52.05 122.1 M59.85 129.95 L57.15 127.8 Q49.3 122.35 42.35 129.95 49.3 122.35 57.15 127.8 L59.85 129.95 M64.25 135.05 L61.4 132.85 Q53.6 127.45 45.95 135.05 53.6 127.45 61.4 132.85 L64.25 135.05" fill="url(#gradient6)" fill-rule="evenodd" stroke="none"/>
    <path d="M30.5 135.05 Q31.1 130.15 36.0 130.15 L47.9 147.2 Q43.6 146.75 41.6 151.1 L30.5 135.05" fill="url(#gradient7)" fill-rule="evenodd" stroke="none"/>
    <path d="M89.8 156.4 L80.9 162.2 80.5 165.0 80.5 165.2 80.35 165.2 76.4 168.35 85.45 149.4 88.4 149.4 106.6 149.4 110.65 156.4 107.1 156.4 104.25 157.9 103.8 157.1 103.2 156.4 89.8 156.4" fill="url(#gradient8)" fill-rule="evenodd" stroke="none"/>
    <path d="M65.65 175.15 Q65.65 178.2 63.95 180.45 L63.0 181.4 Q61.55 182.7 59.8 182.7 L59.45 182.7 Q57.35 182.5 55.75 180.45 54.1 178.35 54.0 175.45 L54.0 175.15 Q54.0 172.0 55.75 169.8 57.35 167.75 59.45 167.65 L59.8 167.65 Q62.2 167.65 63.95 169.8 65.65 172.0 65.65 175.15" fill="url(#gradient9)" fill-rule="evenodd" stroke="none"/>
    <path d="M124.15 47.7 L131.45 47.7 99.15 6.45 90.3 6.45 94.15 11.25 94.75 14.05 96.5 14.05 102.3 21.1 102.85 23.65 104.4 23.65 110.85 31.25 110.85 31.8 111.0 33.7 107.9 33.7 103.85 33.7 M118.7 41.05 L118.9 41.05 118.9 41.2 118.65 43.5 120.7 43.4 M110.1 47.7 L101.45 47.7 Q112.35 72.2 101.65 91.45 L107.35 91.45 Q109.7 87.2 110.95 82.85 L112.0 78.35 113.15 78.35 127.6 78.35 131.5 78.35 Q130.6 85.05 127.45 91.45 L131.75 91.45 132.9 89.4 Q135.15 84.35 136.25 79.15 L136.85 74.05 136.9 70.1 Q136.65 59.55 131.5 47.85 L131.45 47.7 M89.8 5.95 L90.3 6.45 90.2 6.45 M89.8 5.95 L84.9 0.0 M74.3 11.25 L94.15 11.25 M87.9 23.65 L87.85 23.65 85.8 23.4 85.7 23.4 85.2 21.15 77.4 14.05 77.3 14.05 75.4 13.75 74.3 11.25 M85.2 21.15 L85.2 21.1 102.3 21.1 M91.65 27.1 L96.25 31.25 110.85 31.25 M91.05 26.55 L91.65 27.1 M91.05 26.55 L87.9 23.65 102.85 23.65 M98.95 33.75 L96.95 33.75 96.25 31.25 M111.0 33.7 L112.2 33.7 113.2 34.4 M114.6 41.05 L118.7 41.05 M111.3 41.05 L114.6 41.05 M109.7 43.5 L107.55 43.5 106.95 41.05 98.95 33.75 103.85 33.7 M106.95 41.05 L111.3 41.05 M116.85 43.5 L113.7 43.5 109.7 43.5 M118.65 43.5 L116.85 43.5 M97.95 53.5 L97.5 54.35 101.45 47.7 53.4 6.45 19.05 18.25 8.35 22.1 5.2 28.05 16.05 31.0 16.75 27.9 44.4 17.75 49.2 15.95 75.55 36.2 97.95 53.5 93.0 55.1 84.3 70.65 85.7 73.95 85.7 74.05 97.5 54.35 M85.7 74.05 L85.65 74.05 83.1 78.3 83.55 78.55 84.65 79.15 87.85 81.1 88.35 81.3 88.55 81.5 M88.55 81.55 L89.5 82.15 91.0 83.1 91.85 83.7 94.55 85.75 96.25 86.95 99.0 89.2 101.65 91.45 M101.1 96.0 Q99.45 96.0 97.95 95.2 96.4 94.35 95.15 92.65 L94.75 92.3 Q93.95 91.3 93.5 90.15 92.4 88.2 92.0 85.75 91.85 84.8 91.85 83.7 M55.55 70.0 Q63.0 70.35 70.4 72.75 L70.65 72.85 Q72.2 73.3 73.75 74.05 77.05 75.2 80.25 76.8 L80.5 76.85 80.55 76.85 81.0 77.15 83.1 78.3 M83.55 78.55 L85.7 79.9 87.85 81.1 M89.5 83.65 L89.5 83.45 89.5 82.15 M88.4 81.45 L88.35 81.3 M89.65 86.35 L89.5 83.65 78.6 87.9 Q79.6 88.55 80.6 89.35 L81.15 89.75 89.65 86.35 Q90.1 89.5 91.55 92.0 92.1 93.4 93.2 94.55 L93.6 95.1 Q95.25 97.15 97.15 98.25 99.1 99.25 101.15 99.3 L101.8 99.3 Q105.95 99.2 108.8 95.95 L109.9 94.55 111.95 91.45 113.0 88.55 110.1 88.55 109.7 89.75 108.0 92.3 107.15 93.4 Q104.85 95.95 101.5 96.0 M81.15 89.75 L85.95 94.25 91.55 92.0 M85.95 94.25 L88.9 96.95 93.6 95.1 M113.15 78.35 Q113.6 80.65 113.6 83.25 L113.6 83.45 Q113.6 86.2 113.0 88.55 L115.95 88.55 116.9 90.8 122.45 90.8 124.15 88.55 127.6 88.55 Q128.2 86.2 128.2 83.45 128.2 80.7 127.6 78.35 M126.45 91.45 L124.45 94.55 Q121.15 99.25 116.35 99.3 112.0 108.85 103.4 110.85 L104.25 110.8 91.7 114.1 78.2 117.6 71.2 119.45 Q65.65 120.4 57.85 117.4 L55.5 115.9 55.1 115.65 Q53.65 114.65 52.35 113.5 L52.05 113.3 Q52.85 115.5 52.85 117.65 52.85 120.0 52.05 122.1 L52.85 122.7 53.6 123.1 54.8 124.1 55.55 124.85 59.85 129.95 64.25 135.05 65.45 136.55 87.4 136.55 Q91.25 137.55 94.55 138.8 L98.5 140.5 100.3 141.4 Q102.2 142.3 103.8 143.4 106.15 144.85 108.15 146.6 L113.9 156.4 120.6 156.4 121.55 157.9 124.35 156.4 137.8 156.4 Q140.35 160.05 142.55 164.2 147.4 173.5 150.3 185.65 L142.45 197.75 129.0 197.75 126.4 195.85 125.15 197.75 111.65 197.75 109.1 195.85 107.85 197.75 94.5 197.75 90.15 194.5 72.75 194.5 72.2 197.75 53.7 197.75 28.95 197.75 21.95 186.1 21.95 185.7 21.95 180.05 Q30.15 177.1 35.45 171.85 L40.15 165.9 27.05 147.0 30.55 139.55 25.45 132.35 18.5 127.75 Q16.0 126.8 13.8 124.1 L13.55 123.85 13.1 123.1 Q10.5 118.9 10.5 113.15 10.5 106.85 13.55 102.55 16.4 99.15 19.8 98.5 L20.35 98.45 21.15 98.45 21.65 98.45 28.3 98.45 31.3 95.95 31.3 91.95 37.15 88.15 Q39.3 88.55 39.9 89.3 L55.15 83.2 54.95 83.2 68.6 76.7 62.6 76.7 57.3 80.85 M56.5 80.85 L49.4 80.85 46.35 80.85 45.75 80.85 43.4 79.45 42.25 78.75 M23.65 74.25 L19.6 75.55 Q12.6 73.75 12.45 67.85 12.35 65.3 13.5 62.2 L16.6 60.35 8.6 57.3 7.25 52.2 2.35 50.2 0.0 38.05 5.2 28.05 M127.45 91.45 L126.45 91.45 127.6 88.55 M75.55 36.2 L68.65 36.4 93.0 55.1 M44.4 17.75 L68.65 36.4 60.05 52.7 53.35 51.25 Q46.95 50.0 41.35 50.0 33.8 49.85 27.8 51.9 L26.1 52.45 28.1 53.9 39.1 61.9 43.15 61.7 Q49.05 61.5 54.6 61.95 71.4 63.35 84.3 70.65 M53.4 6.45 L64.75 6.45 M26.1 52.45 L13.15 43.15 16.05 31.0 M40.05 25.6 L25.85 31.2 24.9 36.8 39.15 31.2 40.05 25.6 M28.75 61.7 L25.65 59.5 28.3 69.9 31.3 71.85 28.9 61.95 28.75 61.7 M29.05 61.7 L28.1 53.9 M25.65 59.5 L21.2 57.75 16.6 60.35 M31.8 63.75 L34.3 73.7 37.35 75.6 34.85 65.9 31.8 63.75 29.05 61.9 28.75 61.7 M38.0 68.0 L34.85 65.9 M31.3 71.85 L34.3 73.7 M29.05 61.9 L29.05 61.7 M18.05 56.5 L14.65 55.1 8.6 57.3 M11.05 53.7 L14.65 55.1 M10.6 53.5 L10.1 53.3 11.05 53.7 M7.25 52.2 L10.1 53.3 M12.45 67.85 L14.55 68.45 M37.35 75.6 L40.45 77.5 38.0 68.0 41.15 70.2 42.25 70.95 42.95 70.9 43.8 70.75 Q44.0 69.4 43.55 65.05 L39.1 61.9 M35.2 104.95 L39.75 103.15 39.75 99.5 38.4 89.85 31.3 95.95 M38.4 89.85 L39.9 89.3 M18.5 56.65 L21.2 57.75 M54.95 64.25 Q48.9 63.9 43.6 65.05 L43.55 65.05 M42.95 70.9 Q43.6 71.85 43.8 70.75 L47.65 70.2 48.55 70.1 49.0 70.1 52.85 69.9 55.55 70.0 54.95 64.25 Q68.45 65.05 85.65 74.05 M54.95 83.2 L56.75 82.45 56.85 82.45 56.95 82.4 58.8 81.95 67.6 82.25 Q70.25 83.05 73.3 84.4 L85.7 79.9 M55.15 83.2 L56.85 82.45 M43.85 91.75 L48.25 94.9 49.0 95.6 M57.4 88.15 L52.05 89.75 52.05 98.45 62.2 107.65 Q71.6 117.4 78.2 117.6 M56.5 80.85 Q52.4 79.65 49.4 80.85 M73.3 84.4 L74.6 85.05 76.1 86.05 76.55 86.35 78.6 87.9 M73.3 84.4 L72.95 84.6 71.55 85.0 74.6 85.05 M55.15 83.2 Q59.8 83.1 63.1 84.05 L65.45 85.15 67.1 85.15 68.5 84.8 71.55 85.0 M68.5 84.8 L68.95 85.0 73.55 88.3 87.45 101.0 Q96.8 110.85 103.4 110.85 M47.65 70.2 Q47.95 75.95 52.85 76.7 L62.6 76.7 M67.1 85.15 L57.4 88.15 61.7 91.3 75.65 104.0 Q85.05 113.9 91.7 114.1 M68.6 76.7 L73.75 74.05 M43.8 70.75 L46.35 80.85 M43.4 79.45 L41.15 70.2 M40.45 77.5 L42.25 78.75 M52.05 122.1 L52.0 122.1 50.05 121.1 49.9 121.1 48.55 120.6 Q44.15 119.6 40.45 123.1 L39.4 124.1 38.8 124.85 42.35 129.95 Q49.3 122.35 57.15 127.8 L59.85 129.95 M50.6 114.5 L50.45 114.15 49.85 114.4 48.9 114.9 40.1 114.7 33.85 114.5 35.75 117.65 52.85 117.65 M49.85 114.4 L50.45 114.1 50.45 114.15 52.05 113.3 50.85 112.55 49.85 105.5 52.05 100.5 52.05 98.45 M52.05 122.1 L52.05 122.75 M49.65 140.45 L54.45 147.3 62.6 136.55 M62.7 136.3 Q56.65 134.3 49.65 140.45 L45.95 135.05 42.35 129.95 M45.95 135.05 Q53.6 127.45 61.4 132.85 L64.25 135.05 M63.4 136.55 L63.05 136.55 63.3 136.6 M63.4 136.55 L62.7 136.3 M65.45 136.55 L63.4 136.55 M63.05 136.55 L62.6 136.55 M65.45 158.5 L75.0 141.4 77.0 141.4 Q71.25 137.65 63.3 136.6 M30.75 104.95 L31.45 106.35 Q32.2 108.6 32.4 113.15 L32.4 114.5 33.85 114.5 M35.2 104.95 L30.75 104.95 29.35 102.55 27.3 100.5 Q24.75 98.55 21.65 98.45 M21.9 104.95 Q23.05 105.4 24.05 107.05 25.55 109.7 25.55 113.2 L25.55 113.3 25.55 113.9 Q25.4 117.1 24.05 119.4 22.65 121.75 20.8 122.05 L20.4 122.05 Q18.15 122.05 16.6 119.4 15.1 116.9 15.1 113.3 15.1 109.7 16.6 107.05 18.15 104.65 20.4 104.65 L21.9 104.95 21.65 104.95 Q19.5 104.95 18.0 107.3 16.5 109.8 16.5 113.2 L16.5 113.5 16.5 113.9 25.55 113.9 M28.15 113.1 Q28.15 118.05 25.85 121.55 23.65 125.1 20.5 125.1 18.4 125.1 16.6 123.5 15.8 122.7 15.1 121.55 12.9 118.05 12.9 113.1 12.9 108.25 15.1 104.65 17.4 101.2 20.5 101.2 23.65 101.2 25.85 104.65 28.15 108.25 28.15 113.1 M18.5 127.75 L19.8 128.05 21.35 128.2 22.55 128.15 25.1 127.4 Q27.3 126.4 29.05 124.1 L29.35 123.85 29.9 123.1 31.7 119.25 32.25 116.1 32.4 114.5 M35.2 104.95 Q36.05 111.55 40.1 114.7 M20.8 122.05 Q19.25 121.55 18.0 119.55 16.5 117.25 16.5 113.9 M30.5 135.05 Q31.1 130.15 36.0 130.15 L33.85 127.15 35.4 124.85 32.25 125.85 28.15 132.35 28.6 132.35 30.5 135.05 41.6 151.1 Q43.6 146.75 47.9 147.2 L36.0 130.15 M38.8 124.85 L35.4 124.85 35.75 117.65 M25.45 132.35 L28.15 132.35 M35.45 171.85 L34.05 173.65 M60.95 194.6 L61.0 194.5 62.3 191.65 61.15 191.7 59.35 191.5 57.85 191.2 Q54.9 190.0 52.45 187.0 L52.15 186.65 Q51.75 186.45 51.65 185.85 49.65 182.7 48.9 178.7 L38.1 171.0 M73.0 168.1 L72.55 166.7 Q71.65 164.2 70.25 162.25 L67.9 160.05 Q66.75 159.1 65.45 158.5 63.55 157.65 61.3 157.55 L60.8 157.55 59.8 157.65 59.35 157.7 Q55.35 158.4 52.15 162.25 49.25 166.35 48.75 171.75 L48.55 174.45 Q48.55 176.7 48.9 178.7 M58.6 163.8 L58.0 163.85 57.65 163.9 Q54.95 164.35 52.8 166.95 50.95 169.6 50.6 173.0 L50.45 175.15 Q50.45 178.0 51.3 180.4 L52.45 182.8 52.8 183.35 53.0 183.6 Q54.6 185.55 56.55 186.35 L57.65 186.65 58.85 186.7 59.75 186.65 60.0 186.65 61.7 186.05 Q63.4 185.3 64.7 183.6 L65.0 183.35 65.25 182.9 65.3 182.8 66.75 179.85 67.2 177.4 67.3 175.15 67.3 174.3 Q67.2 171.85 66.55 169.9 L65.0 166.95 63.4 165.4 Q61.35 163.9 59.0 163.8 L58.6 163.8 M89.8 156.4 L80.9 162.2 80.5 165.0 80.5 165.2 80.1 167.15 79.5 171.3 78.75 175.3 78.25 179.0 78.05 180.2 87.4 180.2 94.65 164.2 Q92.5 160.05 89.8 156.4 L103.2 156.4 103.8 157.1 104.25 157.9 107.1 156.4 110.65 156.4 106.6 149.4 88.4 149.4 M76.4 168.35 L80.35 165.2 80.5 165.2 M73.45 167.2 L75.4 162.8 75.4 162.75 82.85 146.6 Q80.25 143.5 77.0 141.4 L100.3 141.4 M73.0 168.1 L73.45 167.2 73.0 168.15 73.1 168.35 76.4 168.35 80.1 167.15 M62.3 191.65 L62.4 191.55 Q63.95 191.4 65.35 190.75 67.9 189.6 69.95 187.0 L70.25 186.65 Q70.6 186.45 70.75 185.85 72.0 183.85 72.9 181.5 L73.1 180.85 73.6 177.85 73.7 177.2 73.75 174.45 73.75 173.35 73.75 173.15 73.35 169.5 73.2 168.8 73.1 168.35 M73.0 168.15 L73.0 168.1 M73.2 168.8 L76.4 168.35 73.35 169.5 M54.45 147.3 L51.0 151.7 46.3 157.9 44.75 160.05 40.85 165.15 40.15 165.9 48.75 171.75 M46.3 157.9 L41.6 151.1 M40.15 165.9 L40.5 165.3 40.85 165.15 M65.65 175.15 Q65.65 178.2 63.95 180.45 L63.0 181.4 Q61.55 182.7 59.8 182.7 L59.45 182.7 Q57.35 182.5 55.75 180.45 54.1 178.35 54.0 175.45 L54.0 175.15 Q54.0 172.0 55.75 169.8 57.35 167.75 59.45 167.65 L59.8 167.65 Q62.2 167.65 63.95 169.8 65.65 172.0 65.65 175.15 M78.05 180.2 L77.2 185.15 90.15 194.5 M73.1 180.85 L78.25 179.0 M78.75 175.3 L73.7 177.2 M61.0 194.5 L72.75 194.5 M79.5 171.3 L73.75 173.35 M30.55 139.55 L44.75 160.05 M44.5 185.7 L21.95 185.7 M51.0 151.7 L47.9 147.2 M48.9 114.9 Q42.75 112.15 39.75 103.15 M107.5 102.05 L111.95 99.3 106.15 101.65 M101.8 99.3 L111.95 99.3 115.95 99.3 M116.35 99.3 Q111.25 101.1 111.95 99.3 103.35 108.85 94.55 102.05 L92.45 100.15 88.9 96.95 M108.15 146.6 L82.85 146.6 M94.55 102.05 L111.95 99.3 M104.25 157.9 L104.8 158.55 Q106.6 161.2 108.1 164.2 L109.7 167.5 111.95 164.3 111.95 164.2 Q109.7 160.05 107.1 156.4 M119.6 185.65 L117.55 178.25 117.5 177.9 Q115.95 173.3 114.2 169.2 L111.95 164.3 M110.65 156.4 L113.9 156.4 M102.3 185.65 Q100.65 178.65 98.3 172.55 96.9 168.55 95.05 165.0 L94.65 164.2 108.1 164.2 M115.7 185.65 L109.1 195.85 M111.65 197.75 L119.6 185.65 133.0 185.65 Q130.55 175.45 126.8 167.25 L125.35 164.2 111.95 164.2 M109.7 167.5 Q112.4 173.45 114.45 180.45 L115.7 185.65 102.3 185.65 94.5 197.75 M129.15 164.2 Q127.0 160.05 124.35 156.4 M121.55 157.9 Q123.6 160.9 125.35 164.2 M129.15 164.2 L126.8 167.25 M133.0 185.65 L126.4 195.85 M129.0 197.75 L136.85 185.65 Q133.95 173.5 129.15 164.2 L142.55 164.2 M136.85 185.65 L150.3 185.65 M97.15 98.25 L92.45 100.15 M28.3 98.45 Q33.25 99.1 35.2 104.95 M80.5 76.85 L81.0 77.15 M77.4 14.05 L94.75 14.05" fill="none" stroke="#000000" stroke-width="0.7" stroke-opacity="0.4"/>
    <path d="M113.2 34.4 L118.7 41.05 M120.7 43.4 L124.15 47.7 Q130.55 57.65 128.7 69.95 L118.05 69.95 Q116.7 55.65 110.1 47.7 M84.9 0.0 L61.25 0.0 74.3 11.25 M109.7 43.5 Q118.4 51.8 118.05 69.95 M88.55 81.5 L88.55 81.55 M88.55 81.5 L88.4 81.45 M64.75 6.45 L110.1 47.7 M61.25 0.0 L22.65 13.25 19.05 18.25 M88.4 149.4 L85.45 149.4 76.4 168.35" fill="none" stroke="#000000" stroke-linecap="round" stroke-linejoin="round" stroke-opacity="0.3019608" stroke-width="0.1"/>
  </g>
  <defs>
    <linearGradient gradientTransform="matrix(0.0026, 0.0225, -0.0172, 0.0019, 113.65, 54.4)" gradientUnits="userSpaceOnUse" id="gradient0" spreadMethod="pad" x1="-819.2" x2="819.2">
      <stop offset="0.34901960784313724" stop-color="#e2e2e2"/>
      <stop offset="0.7686274509803922" stop-color="#bfbfbf"/>
      <stop offset="1.0" stop-color="#afafaf"/>
    </linearGradient>
    <radialGradient cx="0" cy="0" gradientTransform="matrix(0.0242, 0.0, 0.0, 0.0242, 92.15, 78.55)" gradientUnits="userSpaceOnUse" id="gradient1" r="819.2" spreadMethod="pad">
      <stop offset="0.0" stop-color="#5bbbff"/>
      <stop offset="0.3568627450980392" stop-color="#149eff"/>
      <stop offset="0.7333333333333333" stop-color="#1954ff"/>
    </radialGradient>
    <radialGradient cx="0" cy="0" gradientTransform="matrix(0.0136, 0.0, 0.0, 0.0136, 92.0, 87.55)" gradientUnits="userSpaceOnUse" id="gradient2" r="819.2" spreadMethod="pad">
      <stop offset="0.0" stop-color="#5bbbff"/>
      <stop offset="0.3568627450980392" stop-color="#149eff"/>
      <stop offset="0.7333333333333333" stop-color="#1954ff"/>
    </radialGradient>
    <linearGradient gradientTransform="matrix(0.0, -0.0122, 0.0161, 0.0, 114.8, 89.1)" gradientUnits="userSpaceOnUse" id="gradient3" spreadMethod="pad" x1="-819.2" x2="819.2">
      <stop offset="0.1843137254901961" stop-color="#393939"/>
      <stop offset="0.6313725490196078" stop-color="#888888"/>
      <stop offset="0.9137254901960784" stop-color="#484848"/>
    </linearGradient>
    <linearGradient gradientTransform="matrix(0.0, -0.0047, 0.0083, 0.0, 28.25, 98.75)" gradientUnits="userSpaceOnUse" id="gradient4" spreadMethod="pad" x1="-819.2" x2="819.2">
      <stop offset="0.1843137254901961" stop-color="#393939"/>
      <stop offset="0.6313725490196078" stop-color="#888888"/>
      <stop offset="0.9137254901960784" stop-color="#484848"/>
    </linearGradient>
    <radialGradient cx="0" cy="0" gradientTransform="matrix(0.0329, 0.0, 0.0, 0.0329, 65.55, 96.0)" gradientUnits="userSpaceOnUse" id="gradient5" r="819.2" spreadMethod="pad">
      <stop offset="0.0" stop-color="#5bbbff"/>
      <stop offset="0.3568627450980392" stop-color="#149eff"/>
      <stop offset="0.7333333333333333" stop-color="#1954ff"/>
    </radialGradient>
    <linearGradient gradientTransform="matrix(0.0092, -0.0071, 0.0159, 0.0204, 58.85, 135.3)" gradientUnits="userSpaceOnUse" id="gradient6" spreadMethod="pad" x1="-819.2" x2="819.2">
      <stop offset="0.0" stop-color="#666666"/>
      <stop offset="0.5529411764705883" stop-color="#dadada"/>
      <stop offset="0.8470588235294118" stop-color="#cccccc"/>
    </linearGradient>
    <radialGradient cx="0" cy="0" gradientTransform="matrix(0.0267, 0.0, 0.0, 0.0267, 42.3, 147.2)" gradientUnits="userSpaceOnUse" id="gradient7" r="819.2" spreadMethod="pad">
      <stop offset="0.0" stop-color="#5bbbff"/>
      <stop offset="0.3568627450980392" stop-color="#149eff"/>
      <stop offset="0.7333333333333333" stop-color="#1954ff"/>
    </radialGradient>
    <radialGradient cx="0" cy="0" gradientTransform="matrix(0.0325, 0.0, 0.0, 0.0325, 84.1, 152.65)" gradientUnits="userSpaceOnUse" id="gradient8" r="819.2" spreadMethod="pad">
      <stop offset="0.0" stop-color="#5bbbff"/>
      <stop offset="0.3568627450980392" stop-color="#149eff"/>
      <stop offset="0.7333333333333333" stop-color="#05143f"/>
    </radialGradient>
    <radialGradient cx="0" cy="0" gradientTransform="matrix(0.0134, 0.0, 0.0, 0.0134, 64.55, 175.3)" gradientUnits="userSpaceOnUse" id="gradient9" r="819.2" spreadMethod="pad">
      <stop offset="0.0" stop-color="#5bbbff"/>
      <stop offset="0.3568627450980392" stop-color="#149eff"/>
      <stop offset="0.9019607843137255" stop-color="#0b319c"/>
    </radialGradient>
  </defs>
</svg>
