<?xml version="1.0" encoding="utf-8"?>
<svg version="1.1" id="Layer_1"
xmlns="http://www.w3.org/2000/svg"
xmlns:xlink="http://www.w3.org/1999/xlink"
width="150px" height="71px"
xml:space="preserve">
<g id="PathID_2" transform="matrix(1, 0, 0, 1, 0.05, 0.05)">
<path fill="#333333" d="M86.45 49L85.55 45.8L84.1 40.8L83.75 39.7L82.6 35.7L85.95 35.7L89.3 35.7L94.95 55.2L89.3 35.7L92.6 35.7L98.3 55.2L92.6 35.7L95.95 35.7L99.3 35.7L102.6 35.7L104.85 35.7L111.75 59.55L109.55 59.55L106.2 59.55L102.85 59.55L99.55 59.55L96.2 59.55L92.85 59.55L89.55 59.55L86.95 50.6L86.45 49M63.35 64.8Q62.3 63.55 62.15 61.25L74.7 61.25Q73.4 65.85 68.35 66.25L66.05 66.25L63.8 66.25L61.6 66.25L59.35 66.25L57.15 66.25L54.9 66.25L47.8 66.25L43.8 66.25Q40.25 65.75 39.9 61.25L51 61.25L53.25 61.25L55.45 61.25L57.7 61.25L59.9 61.25L62.15 61.25Q62.3 63.55 63.35 64.8M37.35 62.5L35.1 62.5L31.45 62.5L28.9 64.8L18.35 64.8L16.9 63.5L18 63.5L20.25 63.5L22.25 63.5L24.8 63.5L30.75 59L29.8 56.45L31.7 56.45L29.8 56.45L28.85 53.9L28.4 52.7L23.9 40.55L21.35 40.55L3.4 40.55L4.9 37.7L3.2 37.7Q1.8 36 3.2 34.55L13.2 34.55L13.2 32.4L13.2 31.75L13.2 31.1L14.15 30.25L16.65 27.9L18.95 27.9L16.65 27.9L14.15 30.25L14.15 26.95L12.55 26.4L10.85 25.8L9.95 25.45L9.95 25.1L9.95 25L9.95 23.9L4.7 23.9L4.7 22.3L5.95 21.25L18.15 21.25L14 13.7L16.25 13.7L18.45 13.7L20.7 13.7L22.9 13.7L25.15 13.7L27.35 13.7L29.55 13.7L31.8 13.7L34 13.7L34.9 13.7L37.25 15.55L41.6 19L39.15 19L36.9 19L34.7 19L32.45 19L30.25 19L28.05 19L25.8 19L23.6 19L22.45 19L22 20.2L21.6 21.25L20.55 23.9L18.95 27.9L17.35 31.9L18 32.65L22.05 37.25L29.8 37.25L29.05 39.6L27.15 45.25L31.35 52.7L33.45 56.45L36.15 61.25L38.7 61.25L37.35 62.5M6.1 10.55L9.2 0L12.55 0L11.1 10.55L6.1 10.55M20.15 10.55L15.35 10.55L18.1 1.1L21.45 1.1L20.15 10.55M29.2 10.55L24.55 10.55L27 2.2L30.35 2.2L29.2 10.55M33.75 10.55L35.9 3.35L39.25 3.35L38.25 10.55L33.75 10.55M47.3 10.55L43 10.55L44.8 4.45L48.1 4.45L47.3 10.55M101.9 20.55L95.4 20.55L98.7 12.1L102.95 12.1L101.9 20.55M110.75 20.55L104.25 20.55L104.5 20L107.6 12.1L111.85 12.1L110.75 20.55M119.65 20.55L119.05 20.55L113.15 20.55L113.4 20L116.5 12.1L120.7 12.1L119.65 20.55M122.05 20.55L122.25 20L125.4 12.1L129.6 12.1L128.55 20.55L122.05 20.55M135.8 39.25Q134.05 37 134.05 33.85Q134.05 32.35 134.45 31Q134.9 29.6 135.8 28.45L136.25 27.9Q136.95 27.15 137.8 26.75L139.3 27.9L139.8 28.45Q140.7 29.6 141.1 31Q141.5 32.35 141.5 33.85Q141.5 37 139.8 39.25Q138.9 40.4 137.8 40.95Q136.7 40.4 135.8 39.25M122.65 40.95Q121.55 40.4 120.65 39.25Q118.95 37 118.95 33.85Q118.95 32.35 119.35 31Q119.75 29.6 120.65 28.45L121.15 27.9Q121.85 27.15 122.65 26.75Q123.5 27.15 124.2 27.9L124.65 28.45Q125.55 29.6 126 31Q126.4 32.35 126.4 33.85Q126.4 37 124.65 39.25Q123.75 40.4 122.65 40.95M131.8 43.55Q133.5 45.8 133.5 48.95Q133.5 52.1 131.8 54.35Q130.9 55.5 129.8 56.1Q128.7 55.5 127.75 54.35Q126.05 52.1 126.05 48.95Q126.05 45.8 127.75 43.55Q128.7 42.4 129.8 41.85Q130.9 42.4 131.8 43.55M101.75 55.7L102.85 59.55L101.75 55.7M106.2 59.55L105.1 55.7L106.2 59.55M109.55 59.55L108.45 55.7L109.55 59.55M99.55 59.55L98.45 55.7L99.55 59.55M96.2 59.55L95.1 55.7L96.2 59.55M92.85 59.55L91.75 55.7L92.85 59.55M102.6 35.7L108.3 55.2L102.6 35.7M91.6 55.2L85.95 35.7L91.6 55.2M95.95 35.7L101.6 55.2L95.95 35.7M104.95 55.2L99.3 35.7L104.95 55.2M27.35 13.7L29.35 17.35L27.35 13.7M24.9 17.35L22.9 13.7L24.9 17.35M22.7 17.35L20.7 13.7L22.7 17.35M18.15 21.25L20.35 21.25L21.6 21.25L20.35 21.25L18.15 21.25M23 17.9L23.6 19L23 17.9M20.75 17.9L22 20.2L20.75 17.9M29.65 17.9L30.25 19L29.65 17.9M27.45 17.9L28.05 19L27.45 17.9M25.2 17.9L25.8 19L25.2 17.9M27.15 17.35L25.15 13.7L27.15 17.35M38.25 17.35L37.25 15.55L38.25 17.35M31.8 13.7L33.8 17.35L31.8 13.7M31.85 17.9L32.45 19L31.85 17.9M34.1 17.9L34.7 19L34.1 17.9M36 17.35L34 13.7L36 17.35M36.3 17.9L36.9 19L36.3 17.9M38.55 17.9L39.15 19L38.55 17.9M31.55 17.35L29.55 13.7L31.55 17.35M16.25 13.7L18.25 17.35L16.25 13.7M18 32.65L14.95 33.85L14.95 34.55L13.2 34.55L14.95 34.55L14.95 33.85L18 32.65M28.6 38.5L22.9 38.5L18.55 36L15.35 36L18.55 36L22.9 38.5L28.6 38.5M4.9 37.7L14.95 37.7L17.85 39.55L29.05 39.6L17.85 39.55L14.95 37.7L4.9 37.7M14.95 34.55L14.95 37.7L14.95 34.55M9.95 23.9L20.55 23.9L9.95 23.9M20.55 22.3L4.7 22.3L20.55 22.3M20.45 17.35L18.45 13.7L20.45 17.35M18.55 17.9L20.35 21.25L18.55 17.9M33.45 56.45L32.2 56.45L33.45 56.45M29.35 52.7L28.4 52.7L29.35 52.7M29.9 52.7L31.35 52.7L29.9 52.7M63.55 65.1Q64.5 66.05 66.05 66.25Q64.5 66.05 63.55 65.1M61.35 65.1Q62.3 66.05 63.8 66.25Q62.3 66.05 61.35 65.1M54.7 65.1Q55.6 66.05 57.15 66.25Q55.6 66.05 54.7 65.1M56.9 65.1Q57.85 66.05 59.35 66.25Q57.85 66.05 56.9 65.1M52.45 65.1Q53.4 66.05 54.9 66.25Q53.4 66.05 52.45 65.1M58.9 64.8Q57.85 63.55 57.7 61.25Q57.85 63.55 58.9 64.8M51 61.25Q51.2 63.55 52.2 64.8Q51.2 63.55 51 61.25M55.45 61.25Q55.65 63.55 56.65 64.8Q55.65 63.55 55.45 61.25M54.45 64.8Q53.4 63.55 53.25 61.25Q53.4 63.55 54.45 64.8M59.1 65.1Q60.05 66.05 61.6 66.25Q60.05 66.05 59.1 65.1M61.1 64.8Q60.1 63.55 59.9 61.25Q60.1 63.55 61.1 64.8" />
<path fill="#666666" d="M22.25 63.5L20.25 63.5L18 63.5L16.9 63.5L18.35 64.8L28.9 64.8L31.45 62.5L35.1 62.5L35.1 66.05L12.9 66.05L12.9 63.5L11.35 63.5L9.1 63.5L3.95 58.6L3.45 57.25L0 48L0 40.55L3.4 40.55L21.35 40.55L26.3 53.9L24 53.9L20 57.25L14.55 57.25L12.35 57.25L10.1 57.25L7.9 57.25L5.65 57.25L3.45 57.25L5.65 57.25L7.9 57.25L10.1 57.25L12.35 57.25L14.55 57.25L20 57.25L24 53.9L26.3 53.9L28.2 59L22.25 63.5M49.4 10.6L63.6 19L41.6 19L37.25 15.55L34.9 13.7L34 13.7L31.8 13.7L29.55 13.7L27.35 13.7L25.15 13.7L22.9 13.7L20.7 13.7L18.45 13.7L16.25 13.7L14 13.7L3.55 13.7L2.25 10.55L6.1 10.55L11.1 10.55L13.65 10.55L15.35 10.55L20.15 10.55L22.6 10.55L24.55 10.55L29.2 10.55L31.55 10.55L33.75 10.55L38.25 10.55L40.45 10.55L43 10.55L47.3 10.55L49.35 10.55L49.4 10.6M82.8 19L79.5 19L65.85 12.45L58.1 12.45L54.9 10.55L65.25 10.55L82.8 19M75.8 45.8L74.8 42.6L66.05 42.6L66.05 40.8L84.1 40.8L85.55 45.8L75.8 45.8M2.85 44.55Q2 46.25 2.65 48.6Q3.3 50.95 5.05 52.65Q6.85 54.3 8.75 54.3Q10.65 54.3 11.5 52.65Q12.4 50.95 11.75 48.6Q11.1 46.25 9.3 44.55Q7.55 42.9 5.65 42.9Q3.75 42.9 2.85 44.55M21.8 48.6Q21.15 46.2 19.35 44.55Q17.55 42.85 15.65 42.85Q13.75 42.85 12.9 44.55Q12 46.2 12.65 48.6Q13.3 50.95 15.1 52.65Q16.9 54.3 18.8 54.3Q20.65 54.3 21.55 52.65Q22.45 50.95 21.8 48.6M12.35 57.25L12.8 58.6L16.7 62.25L12.8 58.6L12.35 57.25M14.55 57.25L15.05 58.6L18.95 62.25L15.05 58.6L14.55 57.25M10.05 62.25L6.15 58.6L5.65 57.25L6.15 58.6L10.05 62.25M7.9 57.25L8.4 58.6L12.25 62.25L8.4 58.6L7.9 57.25M17 62.5L18 63.5L17 62.5M12.9 63.5L13.55 63.5L15.8 63.5L16.9 63.5L15.8 63.5L13.55 63.5L12.9 63.5M10.3 62.5L11.35 63.5L10.3 62.5M12.55 62.5L13.55 63.5L12.55 62.5M15.8 63.5L14.75 62.5L15.8 63.5M14.5 62.25L10.6 58.6L10.1 57.25L10.6 58.6L14.5 62.25M19.2 62.5L20.25 63.5L19.2 62.5" />
<path fill="#424242" d="M35.1 66.05L39 70.7L16.8 70.7L12.9 66.05L35.1 66.05" />
<path fill="#828282" d="M35.1 62.5L37.35 62.5L38.7 61.25L39.9 61.25Q40.25 65.75 43.8 66.25L47.8 66.25L44.8 70.7L39 70.7L35.1 66.05L35.1 62.5M113.15 20.55L119.05 20.55L113.75 35.7L104.85 35.7L106.6 30.4L104.5 30.4L101.15 30.4L97.8 30.4L94.5 30.4L91.15 30.4L87.8 30.4L84.5 30.4L82.25 30.4L83.9 25.7L83.95 25.6L85.75 20.55L87.7 20.55L95.4 20.55L101.9 20.55L104.25 20.55L110.75 20.55L113.15 20.55M66.05 40.8L70.6 39.65L71.05 39.7L74.25 39.7L77.6 39.7L83.75 39.7L84.1 40.8L66.05 40.8M17.35 31.9L18.95 27.9L20.55 23.9L21.6 21.25L22 20.2L22.45 19L23.6 19L25.8 19L28.05 19L30.25 19L32.45 19L34.7 19L36.9 19L39.15 19L41.6 19L63.6 19L58.5 31.9L17.35 31.9M39.7 29.55L41.05 29.55L44.15 29.55L46.8 22.95L47.3 21.55L42.9 21.55L39.7 29.55M33.6 29.55L34.9 29.55L38.05 29.55L40.65 22.95L41.2 21.55L36.75 21.55L33.6 29.55M74.8 42.6L72.65 44.25L64.6 44.25L66.05 42.6L74.8 42.6M27.15 45.25L29.05 39.6L29.8 37.25L63.15 37.25L60.5 45.25L27.15 45.25M22.7 29.55L25.8 29.55L28.45 22.95L29 21.55L24.55 21.55L21.35 29.55L22.7 29.55M27.45 29.55L28.8 29.55L31.9 29.55L34.55 22.95L35.1 21.55L30.65 21.55L27.45 29.55" />
<path fill="#4F4F4F" d="M104.85 35.7L113.75 35.7L121.3 61.75L112.4 61.75L111.75 59.55L104.85 35.7M29.8 37.25L22.05 37.25L18 32.65L17.35 31.9L58.5 31.9L63.15 37.25L29.8 37.25M43.65 22.95L42.9 21.55L47.3 21.55L46.8 22.95L43.65 22.95M37.55 22.95L36.75 21.55L41.2 21.55L40.65 22.95L37.55 22.95M57.35 36.9L54.45 33.6L52.25 33.6L48.9 33.6L45.6 33.6L42.25 33.6L38.9 33.6L35.55 33.6L19.7 33.6L35.55 33.6L38.9 33.6L42.25 33.6L45.6 33.6L48.9 33.6L52.25 33.6L54.45 33.6L57.35 36.9M52.25 33.6L55.15 36.9L52.25 33.6M42.25 33.6L44.3 35.95L45.15 36.9L44.3 35.95L42.25 33.6M48.5 36.9L45.6 33.6L48.5 36.9M48.9 33.6L51.8 36.9L48.9 33.6M64.6 44.25L72.65 44.25L73.95 47.35L67.05 49.9L64.6 44.25M62.15 61.25L59.9 61.25L57.7 61.25L55.45 61.25L53.25 61.25L51 61.25L39.9 61.25L38.7 61.25L36.15 61.25L33.45 56.45L31.35 52.7L27.15 45.25L60.5 45.25L67.15 57.05L62.15 61.25M24.55 21.55L29 21.55L28.45 22.95L25.35 22.95L24.55 21.55M30.65 21.55L35.1 21.55L34.55 22.95L31.45 22.95L30.65 21.55M38.45 36.9L35.55 33.6L38.45 36.9M30 49.2L56.7 49.2L62.7 59.8L56.7 49.2L30 49.2M38.9 33.6L41.8 36.9L38.9 33.6" />
<path fill="#B7B7B7" d="M58.1 12.45L69.15 19L63.6 19L49.4 10.6L49.4 10.55L54.9 10.55L58.1 12.45M65.25 10.55L68.7 10.55L86.95 19L82.8 19L65.25 10.55" />
<path fill="#939393" d="M69.15 19L58.1 12.45L65.85 12.45L79.5 19L69.15 19" />
<path fill="#A5A5A5" d="M113.75 35.7L119.05 20.55L119.65 20.55L122.05 20.55L128.55 20.55L131.15 20.55L145.25 20.55L149.5 35.7L143.5 61.75L121.3 61.75L113.75 35.7M79.8 51L73.95 47.35L72.65 44.25L74.8 42.6L75.8 45.8L80.8 49L86.45 49L86.95 50.6L86.55 51L79.8 51M66.85 37.65Q68.4 39.45 70.6 39.65L66.05 40.8L66.05 42.6L64.6 44.25L67.05 49.9L74.5 54.05L83.25 54.05L84.2 53.2L82.5 57.05L67.15 57.05L60.5 45.25L63.15 37.25L66.5 37.25L66.85 37.65M77.6 25.6L74.25 25.6L71.05 25.6Q68.55 25.65 66.85 27.65Q65.05 29.75 65.05 32.65Q65.05 35.3 66.5 37.25L63.15 37.25L58.5 31.9L63.6 19L69.15 19L79.5 19L82.8 19L86.95 19L87.7 20.55L85.75 20.55L83.95 25.6L77.6 25.6M137.8 40.95Q138.8 41.45 139.95 41.45Q142.4 41.45 144.1 39.25Q145.85 37 145.85 33.85Q145.85 32.35 145.45 31Q145 29.6 144.1 28.45L143.65 27.9Q142.1 26.25 139.95 26.25Q138.8 26.25 137.8 26.75Q136.95 27.15 136.25 27.9L135.8 28.45Q134.9 29.6 134.45 31Q134.05 32.35 134.05 33.85Q134.05 37 135.8 39.25Q136.7 40.4 137.8 40.95M121.15 27.9L120.65 28.45Q119.75 29.6 119.35 31Q118.95 32.35 118.95 33.85Q118.95 37 120.65 39.25Q121.55 40.4 122.65 40.95Q123.65 41.45 124.85 41.45Q127.3 41.45 129 39.25Q130.75 37 130.75 33.85Q130.75 32.35 130.35 31Q129.9 29.6 129 28.45L128.55 27.9Q126.95 26.25 124.85 26.25Q123.65 26.25 122.65 26.75Q121.85 27.15 121.15 27.9M131.95 56.6Q134.4 56.6 136.1 54.35Q137.85 52.1 137.85 48.95Q137.85 45.8 136.1 43.55Q134.4 41.35 131.95 41.35Q130.8 41.35 129.8 41.85Q128.7 42.4 127.75 43.55Q126.05 45.8 126.05 48.95Q126.05 52.1 127.75 54.35Q128.7 55.5 129.8 56.1Q130.8 56.6 131.95 56.6M41.05 29.55L39.7 29.55L42.9 21.55L43.65 22.95L41.05 29.55M34.9 29.55L33.6 29.55L36.75 21.55L37.55 22.95L34.9 29.55M21.35 29.55L24.55 21.55L25.35 22.95L22.7 29.55L21.35 29.55M30.65 21.55L31.45 22.95L28.8 29.55L27.45 29.55L30.65 21.55M26.3 53.9L21.35 40.55L23.9 40.55L28.4 52.7L28.85 53.9L29.8 56.45L26.3 53.9M29.8 56.45L30.75 59L28.2 59L26.3 53.9L28.85 53.9" />
<path fill="#595959" d="M83.25 54.05L74.5 54.05L79.8 51L86.55 51L84.2 53.2L83.25 54.05M62.15 61.25L67.15 57.05L82.5 57.05L78.9 61.25L74.7 61.25L62.15 61.25M28.2 59L30.75 59L24.8 63.5L22.25 63.5L28.2 59" />
<path fill="#474747" d="M80.8 49L75.8 45.8L85.55 45.8L86.45 49L80.8 49M73.95 47.35L79.8 51L74.5 54.05L67.05 49.9L73.95 47.35" />
<path fill="#545454" d="M128.55 20.55L129.6 12.1L131.15 12.1L131.15 20.55L128.55 20.55M11.1 10.55L12.55 0L14 0L13.65 10.55L11.1 10.55M21.45 1.1L22.9 1.1L22.6 10.55L20.15 10.55L21.45 1.1M29.2 10.55L30.35 2.2L31.8 2.2L31.55 10.55L29.2 10.55M38.25 10.55L39.25 3.35L40.7 3.35L40.45 10.55L38.25 10.55M49.35 10.55L47.3 10.55L48.1 4.45L49.55 4.45L49.4 10.55L49.35 10.55M102.95 12.1L104.5 12.1L104.5 20L104.25 20.55L101.9 20.55L102.95 12.1M110.75 20.55L111.85 12.1L113.4 12.1L113.4 20L113.15 20.55L110.75 20.55M119.65 20.55L120.7 12.1L122.25 12.1L122.25 20L122.05 20.55L119.65 20.55" />
<linearGradient
id="LinearGradID_1" gradientUnits="userSpaceOnUse" gradientTransform="matrix(0, -0.0092926, 0.00492859, 0, 141.8, 33.85)" spreadMethod ="pad" x1="-819.2" y1="0" x2="819.2" y2="0" >
<stop offset="0" stop-color="#CCCCCC" />
<stop offset="1" stop-color="#333333" />
</linearGradient>
<path style="fill:url(#LinearGradID_1) " d="M139.95 26.25Q142.1 26.25 143.65 27.9L144.1 28.45Q145 29.6 145.45 31Q145.85 32.35 145.85 33.85Q145.85 37 144.1 39.25Q142.4 41.45 139.95 41.45Q138.8 41.45 137.8 40.95Q138.9 40.4 139.8 39.25Q141.5 37 141.5 33.85Q141.5 32.35 141.1 31Q140.7 29.6 139.8 28.45L139.3 27.9L137.8 26.75Q138.8 26.25 139.95 26.25" />
<linearGradient
id="LinearGradID_2" gradientUnits="userSpaceOnUse" gradientTransform="matrix(0, -0.0092926, 0.00492859, 0, 126.7, 33.85)" spreadMethod ="pad" x1="-819.2" y1="0" x2="819.2" y2="0" >
<stop offset="0" stop-color="#CCCCCC" />
<stop offset="1" stop-color="#333333" />
</linearGradient>
<path style="fill:url(#LinearGradID_2) " d="M124.65 39.25Q126.4 37 126.4 33.85Q126.4 32.35 126 31Q125.55 29.6 124.65 28.45L124.2 27.9Q123.5 27.15 122.65 26.75Q123.65 26.25 124.85 26.25Q126.95 26.25 128.55 27.9L129 28.45Q129.9 29.6 130.35 31Q130.75 32.35 130.75 33.85Q130.75 37 129 39.25Q127.3 41.45 124.85 41.45Q123.65 41.45 122.65 40.95Q123.75 40.4 124.65 39.25" />
<linearGradient
id="LinearGradID_3" gradientUnits="userSpaceOnUse" gradientTransform="matrix(0, -0.0092926, 0.00492859, 0, 133.8, 48.95)" spreadMethod ="pad" x1="-819.2" y1="0" x2="819.2" y2="0" >
<stop offset="0" stop-color="#CCCCCC" />
<stop offset="1" stop-color="#333333" />
</linearGradient>
<path style="fill:url(#LinearGradID_3) " d="M129.8 56.1Q130.9 55.5 131.8 54.35Q133.5 52.1 133.5 48.95Q133.5 45.8 131.8 43.55Q130.9 42.4 129.8 41.85Q130.8 41.35 131.95 41.35Q134.4 41.35 136.1 43.55Q137.85 45.8 137.85 48.95Q137.85 52.1 136.1 54.35Q134.4 56.6 131.95 56.6Q130.8 56.6 129.8 56.1" />
<linearGradient
id="LinearGradID_4" gradientUnits="userSpaceOnUse" gradientTransform="matrix(0, 0.0085907, -0.0118713, 0, 74.75, 32.65)" spreadMethod ="pad" x1="-819.2" y1="0" x2="819.2" y2="0" >
<stop offset="0" stop-color="#333333" />
<stop offset="0.258824" stop-color="#666666" />
<stop offset="0.839216" stop-color="#333333" />
</linearGradient>
<path style="fill:url(#LinearGradID_4) " d="M70.6 39.65Q68.4 39.45 66.85 37.65L66.5 37.25Q65.05 35.3 65.05 32.65Q65.05 29.75 66.85 27.65Q68.55 25.65 71.05 25.6L74.25 25.6L77.6 25.6Q75.2 25.7 73.5 27.65L72.4 29.35L73.5 27.65Q75.2 25.7 77.6 25.6L83.95 25.6L83.9 25.7L82.25 30.4L84.5 30.4L82.6 35.7L83.75 39.7L77.6 39.7L74.25 39.7L71.05 39.7L70.6 39.65M72.2 29.9Q71.7 31.15 71.7 32.65Q71.7 35.3 73.2 37.25L73.5 37.65Q75.2 39.6 77.6 39.7Q75.2 39.6 73.5 37.65L73.2 37.25Q71.7 35.3 71.7 32.65Q71.7 31.15 72.2 29.9M68.85 29.9Q68.4 31.15 68.4 32.65Q68.4 35.3 69.85 37.25L70.15 37.65Q71.85 39.6 74.25 39.7Q71.85 39.6 70.15 37.65L69.85 37.25Q68.4 35.3 68.4 32.65Q68.4 31.15 68.85 29.9M74.25 25.6Q71.85 25.7 70.15 27.65L69.05 29.35L70.15 27.65Q71.85 25.7 74.25 25.6" />
<linearGradient
id="LinearGradID_5" gradientUnits="userSpaceOnUse" gradientTransform="matrix(0, 0.0045166, -0.00816345, 0, 7.45, 28.7)" spreadMethod ="pad" x1="-819.2" y1="0" x2="819.2" y2="0" >
<stop offset="0" stop-color="#333333" />
<stop offset="0.258824" stop-color="#666666" />
<stop offset="0.839216" stop-color="#333333" />
</linearGradient>
<path style="fill:url(#LinearGradID_5) " d="M12.4 30.75Q11.9 29.85 11.9 28.7Q11.9 27.4 12.55 26.4L14.15 26.95L14.15 30.25L13.2 31.1L13.2 31.75L12.8 31.35L12.55 31L12.8 31.35L13.2 31.75L13.2 32.4L12.65 32.4L10.45 32.4L8.25 32.4L6 32.4L3.85 32.4L3.5 32.4Q2.45 32.25 1.7 31.35Q0.8 30.25 0.8 28.7Q0.8 27.2 1.7 26.1Q2.6 25.05 3.85 25L6.05 25L8.3 25L9.95 25L9.95 25.1L9.95 25.45L10.85 25.8L10.6 26.1Q9.65 27.2 9.65 28.7Q9.65 29.85 10.2 30.75Q9.65 29.85 9.65 28.7Q9.65 27.2 10.6 26.1L10.85 25.8L12.55 26.4Q11.9 27.4 11.9 28.7Q11.9 29.85 12.4 30.75M10.35 31L10.6 31.35Q11.45 32.35 12.65 32.4Q11.45 32.35 10.6 31.35L10.35 31M7.95 30.75Q7.45 29.85 7.45 28.7Q7.45 27.2 8.35 26.1Q9.05 25.3 9.95 25.1Q9.05 25.3 8.35 26.1Q7.45 27.2 7.45 28.7Q7.45 29.85 7.95 30.75M8.3 25Q7 25.05 6.15 26.1Q5.2 27.2 5.2 28.7Q5.2 29.85 5.75 30.75Q5.2 29.85 5.2 28.7Q5.2 27.2 6.15 26.1Q7 25.05 8.3 25M6.05 25Q4.8 25.05 3.9 26.1Q3 27.2 3 28.7Q3 29.85 3.5 30.75Q3 29.85 3 28.7Q3 27.2 3.9 26.1Q4.8 25.05 6.05 25M3.7 31L3.9 31.35Q4.8 32.35 6 32.4Q4.8 32.35 3.9 31.35L3.7 31M10.45 32.4Q9.25 32.35 8.35 31.35L8.1 31L8.35 31.35Q9.25 32.35 10.45 32.4M5.9 31L6.15 31.35Q7 32.35 8.25 32.4Q7 32.35 6.15 31.35L5.9 31" />
<radialGradient
id="RadialGradID_6" gradientUnits="userSpaceOnUse" gradientTransform="matrix(0.0137482, 0, 0, 0.0137482, 3.4, 45.15)" spreadMethod ="pad" cx="0" cy="0" r="819.2" fx="0" fy="0" >
<stop offset="0" stop-color="#CCCCCC" />
<stop offset="1" stop-color="#333333" />
</radialGradient>
<path style="fill:url(#RadialGradID_6) " d="M5.65 42.9Q7.55 42.9 9.3 44.55Q11.1 46.25 11.75 48.6Q12.4 50.95 11.5 52.65Q10.65 54.3 8.75 54.3Q6.85 54.3 5.05 52.65Q3.3 50.95 2.65 48.6Q2 46.25 2.85 44.55Q3.75 42.9 5.65 42.9M5.4 44.95Q4.2 44.95 3.6 46Q3.05 47.1 3.5 48.6Q3.9 50.1 5 51.15Q6.15 52.25 7.35 52.25Q8.6 52.25 9.15 51.15Q9.7 50.1 9.3 48.6Q8.85 47.1 7.75 46Q6.6 44.95 5.4 44.95" />
<radialGradient
id="RadialGradID_7" gradientUnits="userSpaceOnUse" gradientTransform="matrix(0.0137482, 0, 0, 0.0137482, 13.15, 45.35)" spreadMethod ="pad" cx="0" cy="0" r="819.2" fx="0" fy="0" >
<stop offset="0" stop-color="#CCCCCC" />
<stop offset="1" stop-color="#333333" />
</radialGradient>
<path style="fill:url(#RadialGradID_7) " d="M15.4 44.95Q14.2 44.95 13.65 46Q13.1 47.1 13.5 48.6Q13.9 50.1 15.05 51.15Q16.2 52.25 17.4 52.25Q18.6 52.25 19.15 51.15Q19.7 50.1 19.3 48.6Q18.9 47.1 17.75 46Q16.6 44.95 15.4 44.95M21.55 52.65Q20.65 54.3 18.8 54.3Q16.9 54.3 15.1 52.65Q13.3 50.95 12.65 48.6Q12 46.2 12.9 44.55Q13.75 42.85 15.65 42.85Q17.55 42.85 19.35 44.55Q21.15 46.2 21.8 48.6Q22.45 50.95 21.55 52.65" />
<radialGradient
id="RadialGradID_8" gradientUnits="userSpaceOnUse" gradientTransform="matrix(0.00872803, 0, 0, 0.00872803, 24.5, 28.9)" spreadMethod ="pad" cx="0" cy="0" r="819.2" fx="6" fy="0" >
<stop offset="0" stop-color="#FFBB00" />
<stop offset="1" stop-color="#FF5500" />
</radialGradient>
<path style="fill:url(#RadialGradID_8) " d="M25.8 29.55L22.7 29.55L25.35 22.95L28.45 22.95L25.8 29.55" />
<radialGradient
id="RadialGradID_9" gradientUnits="userSpaceOnUse" gradientTransform="matrix(0.00854492, 0, 0, 0.00854492, 31, 29)" spreadMethod ="pad" cx="0" cy="0" r="819.2" fx="6" fy="0" >
<stop offset="0" stop-color="#FFBB00" />
<stop offset="1" stop-color="#FF5500" />
</radialGradient>
<path style="fill:url(#RadialGradID_9) " d="M31.9 29.55L28.8 29.55L31.45 22.95L34.55 22.95L31.9 29.55" />
<radialGradient
id="RadialGradID_10" gradientUnits="userSpaceOnUse" gradientTransform="matrix(0.00836182, 0, 0, 0.00836182, 36.65, 28.5)" spreadMethod ="pad" cx="0" cy="0" r="819.2" fx="6" fy="0" >
<stop offset="0" stop-color="#FFBB00" />
<stop offset="1" stop-color="#FF5500" />
</radialGradient>
<path style="fill:url(#RadialGradID_10) " d="M37.55 22.95L40.65 22.95L38.05 29.55L34.9 29.55L37.55 22.95" />
<radialGradient
id="RadialGradID_11" gradientUnits="userSpaceOnUse" gradientTransform="matrix(0.00860596, 0, 0, 0.00860596, 43, 28.9)" spreadMethod ="pad" cx="0" cy="0" r="819.2" fx="6" fy="0" >
<stop offset="0" stop-color="#FFBB00" />
<stop offset="1" stop-color="#FF5500" />
</radialGradient>
<path style="fill:url(#RadialGradID_11) " d="M43.65 22.95L46.8 22.95L44.15 29.55L41.05 29.55L43.65 22.95" />
<radialGradient
id="RadialGradID_12" gradientUnits="userSpaceOnUse" gradientTransform="matrix(0.00862122, 0, 0, 0.00862122, 14.15, 46.35)" spreadMethod ="pad" cx="0" cy="0" r="819.2" fx="6" fy="0" >
<stop offset="0" stop-color="#FFBB00" />
<stop offset="1" stop-color="#FF5500" />
</radialGradient>
<path style="fill:url(#RadialGradID_12) " d="M17.75 46Q18.9 47.1 19.3 48.6Q19.7 50.1 19.15 51.15Q18.6 52.25 17.4 52.25Q16.2 52.25 15.05 51.15Q13.9 50.1 13.5 48.6Q13.1 47.1 13.65 46Q14.2 44.95 15.4 44.95Q16.6 44.95 17.75 46" />
<radialGradient
id="RadialGradID_13" gradientUnits="userSpaceOnUse" gradientTransform="matrix(0.008, 0, 0, 0.008, 4, 46)" spreadMethod ="pad" cx="0" cy="0" r="819.2" fx="6" fy="0" >
<stop stop-color="#FB0" stop-opacity="1"/>
<stop offset="1" stop-color="#F50" stop-opacity="1"/>
</radialGradient>
<path fill="url(#RadialGradID_13)" d="M7.75 46Q8.85 47.1 9.3 48.6Q9.7 50.1 9.15 51.15Q8.6 52.25 7.35 52.25Q6.15 52.25 5 51.15Q3.9 50.1 3.5 48.6Q3.05 47.1 3.6 46Q4.2 44.95 5.4 44.95Q6.6 44.95 7.75 46" />
<path fill="#555" d="M90.45 32.45L89.3 35.7L85.95 35.7L87.1 32.45L85.95 35.7L82.6 35.7L84.5 30.4L87.8 30.4L91.15 30.4L94.5 30.4L97.8 30.4L101.15 30.4L104.5 30.4L106.6 30.4L104.85 35.7L102.6 35.7L103.75 32.45L102.6 35.7L99.3 35.7L100.45 32.45L99.3 35.7L95.95 35.7L97.1 32.45L95.95 35.7L92.6 35.7L93.75 32.45L92.6 35.7L89.3 35.7L90.45 32.45M93.95 31.95L94.5 30.4L93.95 31.95M97.8 30.4L97.3 31.95L97.8 30.4M100.6 31.95L101.15 30.4L100.6 31.95M87.3 31.95L87.8 30.4L87.3 31.95M91.15 30.4L90.6 31.95L91.15 30.4M104.5 30.4L103.95 31.95L104.5 30.4" />
<path fill="none" stroke="#000000" stroke-width="0.7" stroke-opacity="0.4" d="M129.6 12.1L131.15 12.1L131.15 20.55L145.25 20.55L149.5 35.7L143.5 61.75L121.3 61.75L112.4 61.75L111.75 59.55L109.55 59.55L106.2 59.55L102.85 59.55L99.55 59.55L96.2 59.55L92.85 59.55L89.55 59.55L86.95 50.6L86.55 51L84.2 53.2L82.5 57.05L78.9 61.25L74.7 61.25Q73.4 65.85 68.35 66.25L66.05 66.25L63.8 66.25L61.6 66.25L59.35 66.25L57.15 66.25L54.9 66.25L47.8 66.25L44.8 70.7L39 70.7L16.8 70.7L12.9 66.05L12.9 63.5L11.35 63.5L9.1 63.5L3.95 58.6L3.45 57.25L0 48L0 40.55L3.4 40.55L4.9 37.7L3.2 37.7Q1.8 36 3.2 34.55L13.2 34.55L13.2 32.4L12.65 32.4L10.45 32.4L8.25 32.4L6 32.4L3.85 32.4L3.5 32.4Q2.45 32.25 1.7 31.35Q0.8 30.25 0.8 28.7Q0.8 27.2 1.7 26.1Q2.6 25.05 3.85 25L6.05 25L8.3 25L9.95 25L9.95 23.9L4.7 23.9L4.7 22.3L5.95 21.25L18.15 21.25L14 13.7L3.55 13.7L2.25 10.55L6.1 10.55L9.2 0L12.55 0L14 0L13.65 10.55L15.35 10.55L18.1 1.1L21.45 1.1L22.9 1.1L22.6 10.55L24.55 10.55L27 2.2L30.35 2.2L31.8 2.2L31.55 10.55L33.75 10.55L35.9 3.35L39.25 3.35L40.7 3.35L40.45 10.55L43 10.55L44.8 4.45L48.1 4.45L49.55 4.45L49.4 10.55L54.9 10.55L65.25 10.55L68.7 10.55L86.95 19L87.7 20.55L95.4 20.55L98.7 12.1L102.95 12.1L104.5 12.1L104.5 20L107.6 12.1L111.85 12.1L113.4 12.1L113.4 20L116.5 12.1L120.7 12.1L122.25 12.1L122.25 20L125.4 12.1L129.6 12.1L128.55 20.55L131.15 20.55M122.25 20L122.05 20.55L128.55 20.55M137.8 26.75L139.3 27.9L139.8 28.45Q140.7 29.6 141.1 31Q141.5 32.35 141.5 33.85Q141.5 37 139.8 39.25Q138.9 40.4 137.8 40.95Q138.8 41.45 139.95 41.45Q142.4 41.45 144.1 39.25Q145.85 37 145.85 33.85Q145.85 32.35 145.45 31Q145 29.6 144.1 28.45L143.65 27.9Q142.1 26.25 139.95 26.25Q138.8 26.25 137.8 26.75Q136.95 27.15 136.25 27.9L135.8 28.45Q134.9 29.6 134.45 31Q134.05 32.35 134.05 33.85Q134.05 37 135.8 39.25Q136.7 40.4 137.8 40.95M122.65 26.75Q123.65 26.25 124.85 26.25Q126.95 26.25 128.55 27.9L129 28.45Q129.9 29.6 130.35 31Q130.75 32.35 130.75 33.85Q130.75 37 129 39.25Q127.3 41.45 124.85 41.45Q123.65 41.45 122.65 40.95Q121.55 40.4 120.65 39.25Q118.95 37 118.95 33.85Q118.95 32.35 119.35 31Q119.75 29.6 120.65 28.45L121.15 27.9Q121.85 27.15 122.65 26.75Q123.5 27.15 124.2 27.9L124.65 28.45Q125.55 29.6 126 31Q126.4 32.35 126.4 33.85Q126.4 37 124.65 39.25Q123.75 40.4 122.65 40.95M129.8 41.85Q128.7 42.4 127.75 43.55Q126.05 45.8 126.05 48.95Q126.05 52.1 127.75 54.35Q128.7 55.5 129.8 56.1Q130.9 55.5 131.8 54.35Q133.5 52.1 133.5 48.95Q133.5 45.8 131.8 43.55Q130.9 42.4 129.8 41.85Q130.8 41.35 131.95 41.35Q134.4 41.35 136.1 43.55Q137.85 45.8 137.85 48.95Q137.85 52.1 136.1 54.35Q134.4 56.6 131.95 56.6Q130.8 56.6 129.8 56.1M104.5 20L104.25 20.55L110.75 20.55L111.85 12.1M104.25 20.55L101.9 20.55L95.4 20.55M119.05 20.55L119.65 20.55L120.7 12.1M113.15 20.55L113.4 20M119.05 20.55L113.15 20.55L110.75 20.55M101.9 20.55L102.95 12.1M82.8 19L86.95 19M87.7 20.55L85.75 20.55L83.95 25.6L83.9 25.7L82.25 30.4L84.5 30.4L87.8 30.4L91.15 30.4L94.5 30.4L97.8 30.4L101.15 30.4L104.5 30.4L106.6 30.4L104.85 35.7L113.75 35.7L119.05 20.55M92.6 35.7L93.75 32.45M95.95 35.7L92.6 35.7L98.3 55.2M99.3 35.7L100.45 32.45M94.5 30.4L93.95 31.95M97.3 31.95L97.8 30.4M97.1 32.45L95.95 35.7L99.3 35.7L102.6 35.7L103.75 32.45M101.15 30.4L100.6 31.95M82.6 35.7L85.95 35.7L87.1 32.45M89.3 35.7L90.45 32.45M87.8 30.4L87.3 31.95M84.5 30.4L82.6 35.7L83.75 39.7L84.1 40.8L85.55 45.8L86.45 49L86.95 50.6M85.95 35.7L89.3 35.7L92.6 35.7M90.6 31.95L91.15 30.4M103.95 31.95L104.5 30.4M102.6 35.7L104.85 35.7L111.75 59.55M102.85 59.55L101.75 55.7M105.1 55.7L106.2 59.55M108.45 55.7L109.55 59.55M98.45 55.7L99.55 59.55M95.1 55.7L96.2 59.55M91.75 55.7L92.85 59.55M74.5 54.05L83.25 54.05L84.2 53.2M122.05 20.55L119.65 20.55M108.3 55.2L102.6 35.7M85.95 35.7L91.6 55.2M89.3 35.7L94.95 55.2M101.6 55.2L95.95 35.7M99.3 35.7L104.95 55.2M121.3 61.75L113.75 35.7M63.6 19L69.15 19L58.1 12.45L54.9 10.55M58.1 12.45L65.85 12.45L79.5 19L82.8 19L65.25 10.55M69.15 19L79.5 19M49.35 10.55L47.3 10.55L43 10.55M49.35 10.55L49.4 10.55L49.4 10.6L63.6 19L58.5 31.9L63.15 37.25L66.5 37.25Q65.05 35.3 65.05 32.65Q65.05 29.75 66.85 27.65Q68.55 25.65 71.05 25.6L74.25 25.6L77.6 25.6L83.95 25.6M49.4 10.6L49.35 10.55M47.3 10.55L48.1 4.45M46.8 22.95L47.3 21.55L42.9 21.55L43.65 22.95L46.8 22.95L44.15 29.55L41.05 29.55L39.7 29.55L42.9 21.55M40.65 22.95L41.2 21.55L36.75 21.55L37.55 22.95L40.65 22.95L38.05 29.55L34.9 29.55L33.6 29.55L36.75 21.55M19.7 33.6L35.55 33.6L38.9 33.6L42.25 33.6L45.6 33.6L48.9 33.6L52.25 33.6L54.45 33.6L57.35 36.9M55.15 36.9L52.25 33.6M45.15 36.9L44.3 35.95L42.25 33.6M45.6 33.6L48.5 36.9M51.8 36.9L48.9 33.6M77.6 39.7Q75.2 39.6 73.5 37.65L73.2 37.25Q71.7 35.3 71.7 32.65Q71.7 31.15 72.2 29.9M77.6 25.6Q75.2 25.7 73.5 27.65L72.4 29.35M74.25 39.7Q71.85 39.6 70.15 37.65L69.85 37.25Q68.4 35.3 68.4 32.65Q68.4 31.15 68.85 29.9M69.05 29.35L70.15 27.65Q71.85 25.7 74.25 25.6M66.05 42.6L64.6 44.25L72.65 44.25L74.8 42.6L66.05 42.6L66.05 40.8L70.6 39.65Q68.4 39.45 66.85 37.65L66.5 37.25M72.65 44.25L73.95 47.35L79.8 51L86.55 51M75.8 45.8L74.8 42.6M83.75 39.7L77.6 39.7L74.25 39.7L71.05 39.7L70.6 39.65M75.8 45.8L80.8 49L86.45 49M43.65 22.95L41.05 29.55M41.6 19L63.6 19M63.15 37.25L60.5 45.25L67.15 57.05L82.5 57.05M39.25 3.35L38.25 10.55L40.45 10.55M38.25 10.55L33.75 10.55M29.2 10.55L24.55 10.55M30.35 2.2L29.2 10.55L31.55 10.55M14 13.7L16.25 13.7L18.45 13.7L20.7 13.7L22.9 13.7L25.15 13.7L27.35 13.7L29.55 13.7L31.8 13.7L34 13.7L34.9 13.7L37.25 15.55L41.6 19L39.15 19L36.9 19L34.7 19L32.45 19L30.25 19L28.05 19L25.8 19L23.6 19L22.45 19L22 20.2L21.6 21.25L20.55 23.9L18.95 27.9L17.35 31.9L58.5 31.9M29.35 17.35L27.35 13.7M22.9 13.7L24.9 17.35M20.7 13.7L22.7 17.35M21.6 21.25L20.35 21.25L18.15 21.25M25.35 22.95L28.45 22.95L29 21.55L24.55 21.55L25.35 22.95L22.7 29.55L25.8 29.55L28.45 22.95M23.6 19L23 17.9M22 20.2L20.75 17.9M30.25 19L29.65 17.9M28.05 19L27.45 17.9M25.8 19L25.2 17.9M25.15 13.7L27.15 17.35M37.25 15.55L38.25 17.35M33.8 17.35L31.8 13.7M31.45 22.95L34.55 22.95L35.1 21.55L30.65 21.55L31.45 22.95L28.8 29.55L31.9 29.55L34.55 22.95M32.45 19L31.85 17.9M34.7 19L34.1 17.9M34 13.7L36 17.35M36.9 19L36.3 17.9M39.15 19L38.55 17.9M29.55 13.7L31.55 17.35M12.55 0L11.1 10.55L13.65 10.55M20.15 10.55L15.35 10.55M18.25 17.35L16.25 13.7M11.1 10.55L6.1 10.55M18.95 27.9L16.65 27.9L14.15 30.25L13.2 31.1L13.2 31.75L13.2 32.4M12.55 26.4L10.85 25.8L10.6 26.1Q9.65 27.2 9.65 28.7Q9.65 29.85 10.2 30.75M12.55 26.4Q11.9 27.4 11.9 28.7Q11.9 29.85 12.4 30.75M14.15 30.25L14.15 26.95L12.55 26.4M13.2 31.75L12.8 31.35L12.55 31M12.65 32.4Q11.45 32.35 10.6 31.35L10.35 31M13.2 34.55L14.95 34.55L14.95 33.85L18 32.65L17.35 31.9M15.35 36L18.55 36L22.9 38.5L28.6 38.5M9.95 25.1Q9.05 25.3 8.35 26.1Q7.45 27.2 7.45 28.7Q7.45 29.85 7.95 30.75M9.95 25.1L9.95 25M10.85 25.8L9.95 25.45L9.95 25.1M5.75 30.75Q5.2 29.85 5.2 28.7Q5.2 27.2 6.15 26.1Q7 25.05 8.3 25M3.5 30.75Q3 29.85 3 28.7Q3 27.2 3.9 26.1Q4.8 25.05 6.05 25M6 32.4Q4.8 32.35 3.9 31.35L3.7 31M8.1 31L8.35 31.35Q9.25 32.35 10.45 32.4M8.25 32.4Q7 32.35 6.15 31.35L5.9 31M5.65 42.9Q7.55 42.9 9.3 44.55Q11.1 46.25 11.75 48.6Q12.4 50.95 11.5 52.65Q10.65 54.3 8.75 54.3Q6.85 54.3 5.05 52.65Q3.3 50.95 2.65 48.6Q2 46.25 2.85 44.55Q3.75 42.9 5.65 42.9zM7.75 46Q8.85 47.1 9.3 48.6Q9.7 50.1 9.15 51.15Q8.6 52.25 7.35 52.25Q6.15 52.25 5 51.15Q3.9 50.1 3.5 48.6Q3.05 47.1 3.6 46Q4.2 44.95 5.4 44.95Q6.6 44.95 7.75 46zM29.05 39.6L17.85 39.55L14.95 37.7L4.9 37.7M17.75 46Q18.9 47.1 19.3 48.6Q19.7 50.1 19.15 51.15Q18.6 52.25 17.4 52.25Q16.2 52.25 15.05 51.15Q13.9 50.1 13.5 48.6Q13.1 47.1 13.65 46Q14.2 44.95 15.4 44.95Q16.6 44.95 17.75 46zM21.55 52.65Q20.65 54.3 18.8 54.3Q16.9 54.3 15.1 52.65Q13.3 50.95 12.65 48.6Q12 46.2 12.9 44.55Q13.75 42.85 15.65 42.85Q17.55 42.85 19.35 44.55Q21.15 46.2 21.8 48.6Q22.45 50.95 21.55 52.65zM14.95 37.7L14.95 34.55M35.55 33.6L38.45 36.9M24.55 21.55L21.35 29.55L22.7 29.55M28.8 29.55L27.45 29.55L30.65 21.55M18 32.65L22.05 37.25L29.8 37.25L63.15 37.25M29.8 37.25L29.05 39.6L27.15 45.25L60.5 45.25M28.85 53.9L28.4 52.7L23.9 40.55L21.35 40.55L26.3 53.9L28.85 53.9L29.8 56.45L31.7 56.45M37.55 22.95L34.9 29.55M20.55 23.9L9.95 23.9M4.7 22.3L20.55 22.3M18.45 13.7L20.45 17.35M20.35 21.25L18.55 17.9M20.15 10.55L22.6 10.55M21.45 1.1L20.15 10.55M21.35 40.55L3.4 40.55M27.15 45.25L31.35 52.7L33.45 56.45L36.15 61.25L38.7 61.25L39.9 61.25L51 61.25L53.25 61.25L55.45 61.25L57.7 61.25L59.9 61.25L62.15 61.25L67.15 57.05M32.2 56.45L33.45 56.45M28.4 52.7L29.35 52.7M3.45 57.25L5.65 57.25L7.9 57.25L10.1 57.25L12.35 57.25L14.55 57.25L20 57.25L24 53.9L26.3 53.9L28.2 59L30.75 59L29.8 56.45M22.25 63.5L20.25 63.5L18 63.5L16.9 63.5L18.35 64.8L28.9 64.8L31.45 62.5L35.1 62.5L37.35 62.5L38.7 61.25M30.75 59L24.8 63.5L22.25 63.5L28.2 59M35.1 66.05L39 70.7M35.1 62.5L35.1 66.05L12.9 66.05M31.35 52.7L29.9 52.7M16.7 62.25L12.8 58.6L12.35 57.25M18.95 62.25L15.05 58.6L14.55 57.25M5.65 57.25L6.15 58.6L10.05 62.25M12.25 62.25L8.4 58.6L7.9 57.25M18 63.5L17 62.5M16.9 63.5L15.8 63.5L13.55 63.5L12.9 63.5M11.35 63.5L10.3 62.5M13.55 63.5L12.55 62.5M14.75 62.5L15.8 63.5M10.1 57.25L10.6 58.6L14.5 62.25M20.25 63.5L19.2 62.5M74.5 54.05L79.8 51M66.05 66.25Q64.5 66.05 63.55 65.1M63.8 66.25Q62.3 66.05 61.35 65.1M67.05 49.9L74.5 54.05M62.15 61.25Q62.3 63.55 63.35 64.8M62.15 61.25L74.7 61.25M39.9 61.25Q40.25 65.75 43.8 66.25L47.8 66.25M57.15 66.25Q55.6 66.05 54.7 65.1M59.35 66.25Q57.85 66.05 56.9 65.1M54.9 66.25Q53.4 66.05 52.45 65.1M57.7 61.25Q57.85 63.55 58.9 64.8M52.2 64.8Q51.2 63.55 51 61.25M56.65 64.8Q55.65 63.55 55.45 61.25M53.25 61.25Q53.4 63.55 54.45 64.8M61.6 66.25Q60.05 66.05 59.1 65.1M59.9 61.25Q60.1 63.55 61.1 64.8M73.95 47.35L67.05 49.9L64.6 44.25M62.7 59.8L56.7 49.2L30 49.2M41.8 36.9L38.9 33.6M85.55 45.8L75.8 45.8M66.05 40.8L84.1 40.8" />
</g>
</svg>
