<?xml version="1.0" encoding="UTF-8" standalone="no"?>
<svg xmlns:xlink="http://www.w3.org/1999/xlink" height="205.1px" width="238.1px" xmlns="http://www.w3.org/2000/svg">
  <g transform="matrix(1.0, 0.0, 0.0, 1.0, 0.05, 0.05)">
    <path d="M177.0 40.0 L177.0 34.0 207.0 58.0 206.0 70.0 199.0 70.0 200.0 58.0 177.0 40.0 M166.0 50.0 L163.9 64.0 163.0 70.0 150.0 70.0 144.0 70.0 145.0 77.0 166.0 88.0 165.9 88.0 166.15 92.0 166.4 100.0 166.4 102.3 166.4 105.0 166.4 107.0 166.35 108.0 166.1 116.0 165.65 122.0 165.55 123.0 165.45 124.0 164.6 131.6 164.55 132.0 163.35 140.0 162.0 147.0 161.8 147.95 160.85 152.0 159.9 155.9 147.5 143.5 147.5 124.5 134.0 70.0 144.0 70.0 134.0 70.0 124.0 70.0 124.0 64.0 124.0 58.0 113.0 43.0 121.0 26.0 113.0 43.0 90.35 38.0 81.0 35.95 72.0 34.0 63.0 32.0 44.0 32.0 17.3 44.7 8.0 28.0 8.0 15.0 26.9 0.0 41.65 0.0 58.0 6.0 67.9 11.95 68.0 12.0 74.7 11.25 85.0 10.0 96.0 10.0 121.0 26.0 166.0 50.0 M163.0 140.0 L147.5 124.5 163.0 140.0 M163.9 64.0 L124.0 64.0 163.9 64.0 M222.0 162.0 L209.8 162.0 210.05 161.45 213.85 152.0 215.25 148.1 215.6 147.0 217.8 140.0 220.05 132.0 221.55 126.0 231.0 132.0 231.0 147.0 222.0 162.0 M53.0 180.0 L48.0 180.0 43.25 164.0 40.0 153.0 32.0 145.0 32.0 126.0 32.0 120.0 39.0 120.0 39.0 145.0 56.0 162.0 49.0 162.0 40.0 153.0 49.0 162.0 56.0 162.0 39.0 145.0 39.0 120.0 32.0 120.0 32.0 116.0 33.15 115.15 35.9 112.9 47.3 103.7 37.0 99.0 28.0 65.0 37.0 65.0 28.0 65.0 37.0 99.0 Q32.5 96.9 28.0 94.75 L18.0 90.0 13.0 81.1 4.0 65.0 0.0 58.0 27.0 58.0 36.0 58.0 37.0 65.0 48.0 65.0 47.0 58.0 48.0 65.0 37.0 65.0 36.0 58.0 47.0 58.0 60.0 58.0 61.0 65.0 48.0 65.0 61.0 65.0 60.0 58.0 94.0 58.0 95.0 65.0 104.0 97.0 88.0 110.0 85.0 110.0 73.0 69.0 45.0 69.0 43.85 80.0 43.0 88.0 47.65 103.85 47.3 103.7 47.65 103.85 43.0 88.0 63.0 88.0 69.8 111.0 73.0 122.0 53.0 122.0 52.4 120.0 47.65 103.85 52.4 120.0 53.0 122.0 57.0 126.0 57.0 145.0 74.0 162.0 68.0 162.0 51.0 145.0 51.0 120.0 52.4 120.0 51.0 120.0 51.0 145.0 68.0 162.0 74.0 162.0 57.0 145.0 57.0 126.0 61.0 130.0 78.0 147.0 98.0 147.0 111.0 147.0 111.0 140.0 95.0 124.0 95.0 118.0 95.0 112.0 105.0 122.0 112.0 122.0 123.0 122.0 137.0 132.0 137.0 147.0 127.0 162.0 123.9 162.0 118.0 162.0 112.65 170.0 105.65 170.0 92.0 170.0 86.0 164.0 58.0 164.0 59.5 170.0 75.0 170.0 80.0 175.0 102.35 175.0 105.65 170.0 112.65 170.0 106.0 180.0 53.0 180.0 M231.0 147.0 L215.6 147.0 231.0 147.0 M85.0 10.0 L91.0 20.0 89.9 23.0 68.0 23.0 67.0 22.0 68.0 23.0 89.9 23.0 91.0 20.0 85.0 10.0 M89.9 23.0 L88.0 28.0 26.95 28.05 26.9 28.0 8.0 28.0 26.9 28.0 26.95 28.05 88.0 28.0 89.9 23.0 M156.25 92.0 L147.95 87.6 145.0 86.0 152.0 117.0 159.0 124.0 159.25 122.05 159.3 121.6 159.6 118.75 159.75 117.0 159.95 114.0 160.05 112.0 160.15 110.0 160.25 107.0 160.3 102.2 160.2 98.0 160.15 97.0 160.0 94.0 156.25 92.0 M67.0 22.0 L60.0 15.0 35.0 15.0 35.0 22.0 67.0 22.0 M35.0 15.0 L8.0 15.0 35.0 15.0 M27.0 58.0 L28.0 65.0 4.0 65.0 28.0 65.0 27.0 58.0 M50.0 90.0 L47.0 90.0 48.5 95.0 48.55 95.15 50.0 100.0 51.5 105.0 51.55 105.15 53.0 110.0 54.5 115.0 54.55 115.15 56.0 120.0 69.0 120.0 67.5 115.0 66.0 110.0 64.5 105.0 63.0 100.0 61.5 95.0 60.0 90.0 50.0 90.0 M68.0 162.0 L62.0 162.0 45.0 145.0 45.0 120.0 51.0 120.0 45.0 120.0 45.0 145.0 62.0 162.0 68.0 162.0 M39.0 120.0 L45.0 120.0 39.0 120.0 M62.0 162.0 L56.0 162.0 62.0 162.0 M43.25 164.0 L58.0 164.0 43.25 164.0 M111.0 147.0 L137.0 147.0 111.0 147.0 M118.0 162.0 L74.0 162.0 118.0 162.0 M61.0 65.0 L95.0 65.0 61.0 65.0" fill="#666666" fill-rule="evenodd" stroke="none"/>
    <path d="M177.0 34.0 L177.0 40.0 167.5 40.0 160.0 34.0 158.0 20.0 175.0 20.0 177.0 34.0 160.0 34.0 177.0 34.0 M199.0 70.0 L206.0 70.0 207.0 58.0 224.0 50.0 229.2 70.05 227.8 70.8 218.0 76.0 213.0 76.0 209.0 80.0 201.0 80.0 197.0 76.0 189.0 76.0 186.05 75.35 163.0 70.0 163.9 64.0 166.0 50.0 190.0 58.0 197.0 70.0 199.0 70.0" fill="#7c7c7c" fill-rule="evenodd" stroke="none"/>
    <path d="M177.0 40.0 L200.0 58.0 199.0 70.0 197.0 70.0 190.0 58.0 167.5 40.0 177.0 40.0" fill="url(#gradient0)" fill-rule="evenodd" stroke="none"/>
    <path d="M177.0 34.0 L175.0 20.0 158.0 20.0 120.0 12.0 160.0 34.0 121.0 26.0 96.0 10.0 120.0 12.0 126.0 12.0 134.0 12.0 137.0 12.0 168.0 10.0 199.0 26.0 177.0 34.0 M175.0 20.0 L137.0 12.0 175.0 20.0" fill="#b8b8b8" fill-rule="evenodd" stroke="none"/>
    <path d="M207.0 58.0 L177.0 34.0 199.0 26.0 224.0 50.0 207.0 58.0 M167.5 40.0 L190.0 58.0 166.0 50.0 121.0 26.0 160.0 34.0 167.5 40.0 M113.0 43.0 L124.0 58.0 118.0 58.0 110.0 47.0 100.0 47.0 100.0 58.0 94.0 58.0 94.0 43.0 94.0 58.0 60.0 58.0 47.0 58.0 36.0 58.0 51.95 33.95 53.1 34.0 61.05 35.75 60.95 35.95 62.2 36.0 71.95 38.15 72.0 38.15 94.0 43.0 113.0 43.0 M0.0 58.0 L4.0 51.0 17.3 44.7 44.0 32.0 52.05 33.8 51.95 33.95 36.0 58.0 27.0 58.0 0.0 58.0 M43.0 88.0 L43.85 80.0 45.0 69.0 73.0 69.0 67.15 80.1 67.1 80.25 63.0 88.0 43.0 88.0 M60.95 35.95 L47.0 58.0 60.95 35.95 M71.95 38.15 L60.0 58.0 71.95 38.15 M27.0 58.0 L44.0 32.0 27.0 58.0 M43.85 80.0 L67.15 80.1 43.85 80.0" fill="#999999" fill-rule="evenodd" stroke="none"/>
    <path d="M164.6 131.6 L165.45 124.0 165.55 123.0 165.65 122.0 166.1 116.0 166.35 108.0 166.4 107.0 166.4 105.0 166.4 102.3 166.4 100.0 166.15 92.0 165.9 88.0 166.0 88.0 190.0 88.0 190.25 92.0 190.35 95.0 190.4 97.0 190.5 100.0 190.5 105.0 214.75 105.0 215.5 100.0 215.9 97.0 216.15 95.05 216.5 92.0 216.95 88.0 217.0 88.0 227.9 88.0 227.45 92.0 226.4 100.0 225.65 105.0 225.3 107.0 225.15 108.0 223.7 116.0 222.45 122.0 222.25 123.05 222.0 124.0 221.65 125.5 221.55 126.0 220.05 132.0 217.8 140.0 215.6 147.0 215.25 148.1 213.85 152.0 210.05 161.45 209.8 162.0 209.15 163.45 208.65 164.65 208.0 166.0 157.0 166.0 158.25 162.0 159.9 156.0 160.0 156.0 159.9 155.9 160.85 152.0 161.8 147.95 162.0 147.0 163.35 140.0 164.55 132.0 165.0 132.0 164.6 131.6 M190.25 92.0 L166.15 92.0 190.25 92.0 M227.45 92.0 L216.5 92.0 227.45 92.0 M226.4 100.0 L215.5 100.0 226.4 100.0 M217.8 140.0 L163.35 140.0 217.8 140.0 M190.5 100.0 L166.4 100.0 190.5 100.0 M220.05 132.0 L165.0 132.0 220.05 132.0 M223.7 116.0 L166.1 116.0 223.7 116.0 M225.15 108.0 L166.35 108.0 225.15 108.0 M222.0 124.0 L165.45 124.0 222.0 124.0 M212.0 156.0 L160.0 156.0 212.0 156.0 M215.25 148.1 L161.8 147.95 215.25 148.1" fill="url(#gradient1)" fill-rule="evenodd" stroke="none"/>
    <path d="M189.0 76.0 L197.0 76.0 201.0 80.0 209.0 80.0 213.0 76.0 218.0 76.0 217.45 82.9 212.0 83.0 208.0 87.0 203.0 87.0 199.0 83.0 189.6 83.0 189.0 76.0" fill="url(#gradient2)" fill-rule="evenodd" stroke="none"/>
    <path d="M189.75 85.05 L189.6 83.0 199.0 83.0 203.0 87.0 208.0 87.0 212.0 83.0 217.45 82.9 217.25 85.0 217.25 85.05 213.0 85.0 209.0 89.0 202.0 89.0 198.0 85.0 189.75 85.05" fill="url(#gradient3)" fill-rule="evenodd" stroke="none"/>
    <path d="M186.05 75.35 L189.0 76.0 189.6 83.0 189.75 85.05 190.0 88.0 187.0 85.0 186.05 75.35 M145.0 77.0 L144.0 70.0 150.0 70.0 151.0 77.0 145.0 77.0" fill="#662800" fill-rule="evenodd" stroke="none"/>
    <path d="M163.0 70.0 L186.05 75.35 187.0 85.0 167.0 85.0 151.0 77.0 150.0 70.0 163.0 70.0" fill="url(#gradient4)" fill-rule="evenodd" stroke="none"/>
    <path d="M189.75 85.05 L198.0 85.0 202.0 89.0 209.0 89.0 213.0 85.0 217.25 85.05 217.0 88.0 216.95 88.0 216.5 92.0 216.15 95.05 210.0 95.0 207.0 98.0 203.0 98.0 200.0 95.0 190.35 95.0 190.25 92.0 190.0 88.0 189.75 85.05 M190.4 97.0 L199.0 97.0 202.0 100.0 208.0 100.0 211.0 97.0 215.9 97.0 215.5 100.0 214.75 105.0 190.5 105.0 190.5 100.0 190.4 97.0" fill="url(#gradient5)" fill-rule="evenodd" stroke="none"/>
    <path d="M190.35 95.0 L200.0 95.0 203.0 98.0 207.0 98.0 210.0 95.0 216.15 95.05 215.9 97.0 211.0 97.0 208.0 100.0 202.0 100.0 199.0 97.0 190.4 97.0 190.35 95.0" fill="url(#gradient6)" fill-rule="evenodd" stroke="none"/>
    <path d="M166.0 88.0 L145.0 77.0 151.0 77.0 167.0 85.0 187.0 85.0 190.0 88.0 166.0 88.0 M217.25 85.05 L217.25 85.0 224.0 85.0 225.0 85.0 227.9 87.95 227.9 88.0 217.0 88.0 217.25 85.05" fill="#7f3500" fill-rule="evenodd" stroke="none"/>
    <path d="M218.0 76.0 L227.8 70.8 224.0 85.0 217.25 85.0 217.45 82.9 218.0 76.0" fill="url(#gradient7)" fill-rule="evenodd" stroke="none"/>
    <path d="M222.45 122.0 L223.0 122.0 238.0 132.0 231.0 132.0 221.55 126.0 221.65 125.5 222.0 124.0 222.25 123.05 222.45 122.0 M66.0 6.0 L71.35 9.25 74.7 11.25 68.0 12.0 67.9 11.95 58.0 6.0 66.0 6.0 M124.0 6.0 L134.0 12.0 126.0 12.0 116.0 6.0 124.0 6.0 M95.0 112.0 L95.0 110.0 100.0 110.0 106.0 116.0 112.0 122.0 105.0 122.0 95.0 112.0 M123.0 122.0 L130.0 122.0 134.9 125.5 144.0 132.0 137.0 132.0 123.0 122.0" fill="#c7c7c7" fill-rule="evenodd" stroke="none"/>
    <path d="M238.0 132.0 L238.0 147.0 231.0 147.0 231.0 132.0 238.0 132.0 M137.0 132.0 L144.0 132.0 144.0 147.0 137.0 147.0 137.0 132.0" fill="#939393" fill-rule="evenodd" stroke="none"/>
    <path d="M238.0 147.0 L229.0 162.0 222.0 162.0 231.0 147.0 238.0 147.0 M141.6 150.6 L140.0 153.0 134.0 162.0 127.0 162.0 137.0 147.0 144.0 147.0 141.6 150.6 M112.65 170.0 L118.0 162.0 123.9 162.0 121.15 166.15 118.6 170.0 112.0 180.0 106.0 180.0 112.65 170.0 118.6 170.0 112.65 170.0" fill="#777777" fill-rule="evenodd" stroke="none"/>
    <path d="M212.0 168.0 L198.0 186.0 189.0 195.0 184.95 195.0 181.0 200.0 151.0 200.0 160.0 186.0 192.0 186.0 184.95 195.0 192.0 186.0 160.0 186.0 156.0 186.0 147.0 195.0 134.0 195.0 132.0 195.0 141.0 186.0 156.0 186.0 141.0 186.0 155.0 168.0 212.0 168.0 M198.0 186.0 L192.0 186.0 198.0 186.0" fill="#474747" fill-rule="evenodd" stroke="none"/>
    <path d="M124.0 58.0 L124.0 64.0 124.0 70.0 124.0 80.0 124.0 97.0 104.0 97.0 95.0 65.0 94.0 58.0 100.0 58.0 101.0 65.0 109.0 93.0 118.0 93.0 118.0 58.0 124.0 58.0 M208.65 164.65 L212.0 168.0 155.0 168.0 140.0 153.0 141.6 150.6 157.0 166.0 208.0 166.0 208.65 164.65 M147.95 87.6 L148.9 92.05 150.0 97.0 151.1 102.0 152.2 107.0 153.25 111.95 153.25 112.0 154.35 117.0 154.4 117.15 159.3 121.6 159.25 122.05 159.0 124.0 152.0 117.0 145.0 86.0 147.95 87.6 M154.0 117.0 L152.0 117.0 154.0 117.0" fill="#828282" fill-rule="evenodd" stroke="none"/>
    <path d="M158.0 20.0 L160.0 34.0 120.0 12.0 158.0 20.0" fill="#686868" fill-rule="evenodd" stroke="none"/>
    <path d="M71.35 9.25 L82.75 0.2 82.9 0.1 83.0 0.0 98.55 0.0 116.0 6.0 126.0 12.0 120.0 12.0 96.0 10.0 85.0 10.0 74.7 11.25 71.35 9.25" fill="#676767" fill-rule="evenodd" stroke="none"/>
    <path d="M41.65 0.0 L49.65 0.0 66.0 6.0 58.0 6.0 41.65 0.0 M98.55 0.0 L106.55 0.0 124.0 6.0 116.0 6.0 98.55 0.0 M81.0 35.95 L90.35 38.0 72.0 38.15 90.35 38.0 113.0 43.0 94.0 43.0 72.0 38.15 71.95 38.15 62.2 36.0 81.0 35.95 62.2 36.0 61.05 35.75 53.1 34.0 52.05 33.8 44.0 32.0 63.0 32.0 72.0 34.0 81.0 35.95 M72.0 34.0 L53.1 34.0 72.0 34.0" fill="#cbcbcb" fill-rule="evenodd" stroke="none"/>
    <path d="M140.0 205.0 L138.15 201.9 134.0 195.0 147.0 195.0 156.0 186.0 160.0 186.0 151.0 200.0 140.0 205.0 M135.0 205.0 L124.0 205.0 122.15 201.9 118.0 195.0 113.0 195.0 119.0 205.0 108.0 205.0 106.15 201.9 102.0 195.0 97.0 195.0 103.0 205.0 90.0 205.0 84.0 195.0 66.0 195.0 53.0 180.0 106.0 180.0 112.0 180.0 118.6 170.0 121.15 166.15 123.9 162.0 127.0 162.0 134.0 162.0 140.0 153.0 155.0 168.0 141.0 186.0 132.0 195.0 129.0 195.0 135.0 205.0 M32.0 126.0 L13.0 107.0 13.0 81.1 18.0 90.0 28.0 94.75 28.0 105.0 35.9 112.9 28.0 105.0 28.0 94.75 Q32.5 96.9 37.0 99.0 L47.3 103.7 35.9 112.9 33.15 115.15 18.0 100.0 18.0 90.0 18.0 100.0 33.15 115.15 32.0 116.0 32.0 120.0 32.0 126.0 M100.0 58.0 L100.0 47.0 110.0 47.0 118.0 58.0 100.0 58.0 118.0 58.0 118.0 93.0 109.0 93.0 101.0 65.0 100.0 58.0 M124.0 97.0 L124.0 80.0 128.05 97.0 124.0 97.0 128.05 97.0 131.2 110.0 132.6 116.0 134.9 125.5 130.0 122.0 123.0 122.0 112.0 122.0 106.0 116.0 132.6 116.0 106.0 116.0 100.0 110.0 108.0 110.0 116.65 103.0 129.0 103.0 116.65 103.0 124.0 97.0 M67.0 22.0 L35.0 22.0 35.0 15.0 60.0 15.0 67.0 22.0 M48.55 95.0 L50.0 90.0 60.0 90.0 61.5 95.0 51.7 95.0 61.5 95.0 63.0 100.0 64.5 105.0 66.0 110.0 67.5 115.0 69.0 120.0 56.0 120.0 57.6 115.3 57.7 115.0 57.5 115.0 54.6 115.0 56.0 110.0 53.0 110.0 54.6 105.3 54.7 105.0 54.5 105.0 51.6 105.0 53.0 100.0 50.0 100.0 51.6 95.3 51.7 95.0 51.5 95.0 48.55 95.0 M64.5 105.0 L54.7 105.0 64.5 105.0 M66.0 110.0 L56.0 110.0 66.0 110.0 M67.5 115.0 L57.7 115.0 67.5 115.0 M63.0 100.0 L53.0 100.0 63.0 100.0 M58.0 164.0 L86.0 164.0 92.0 170.0 105.65 170.0 102.35 175.0 80.0 175.0 75.0 170.0 59.5 170.0 58.0 164.0 M131.2 110.0 L108.0 110.0 131.2 110.0 M84.0 195.0 L97.0 195.0 84.0 195.0 M102.0 195.0 L113.0 195.0 102.0 195.0 M121.15 166.15 L141.0 186.0 121.15 166.15 M118.0 195.0 L129.0 195.0 118.0 195.0" fill="#333333" fill-rule="evenodd" stroke="none"/>
    <path d="M134.0 70.0 L147.5 124.5 147.5 143.5 159.9 155.9 159.9 156.0 158.25 162.0 157.0 166.0 141.6 150.6 144.0 147.0 144.0 132.0 134.9 125.5 132.6 116.0 131.2 110.0 128.05 97.0 124.0 80.0 124.0 70.0 134.0 70.0" fill="#3f3f3f" fill-rule="evenodd" stroke="none"/>
    <path d="M148.9 92.05 L147.95 87.6 156.25 92.0 148.9 92.05" fill="url(#gradient8)" fill-rule="evenodd" stroke="none"/>
    <path d="M148.9 92.05 L156.25 92.0 160.0 94.0 160.15 97.0 150.0 97.0 148.9 92.05" fill="url(#gradient9)" fill-rule="evenodd" stroke="none"/>
    <path d="M150.0 97.0 L160.15 97.0 160.2 98.0 160.3 102.2 151.1 102.0 150.0 97.0" fill="url(#gradient10)" fill-rule="evenodd" stroke="none"/>
    <path d="M104.0 97.0 L124.0 97.0 116.65 103.0 108.0 110.0 100.0 110.0 95.0 110.0 88.0 110.0 104.0 97.0" fill="#797979" fill-rule="evenodd" stroke="none"/>
    <path d="M73.0 69.0 L85.0 110.0 88.0 110.0 95.0 110.0 95.0 112.0 95.0 118.0 78.2 118.0 76.15 111.0 67.1 80.25 76.15 111.0 78.2 118.0 95.0 118.0 95.0 124.0 111.0 140.0 111.0 147.0 98.0 147.0 82.0 131.0 81.0 130.0 73.0 122.0 69.8 111.0 63.0 88.0 67.1 80.25 67.15 80.1 73.0 69.0 M48.55 95.0 L48.5 95.0 47.0 90.0 50.0 90.0 48.55 95.0 51.5 95.0 51.6 95.3 50.0 100.0 53.0 100.0 51.6 105.0 51.5 105.0 50.0 100.0 48.55 95.15 48.55 95.0 M76.15 111.0 L69.8 111.0 76.15 111.0 M56.0 120.0 L54.55 115.15 54.6 115.0 54.5 115.0 53.0 110.0 51.55 105.15 51.6 105.0 54.5 105.0 54.6 105.3 53.0 110.0 56.0 110.0 54.6 115.0 57.5 115.0 57.6 115.3 56.0 120.0 M78.2 118.0 L82.0 131.0 78.2 118.0" fill="#acacac" fill-rule="evenodd" stroke="none"/>
    <path d="M53.0 122.0 L73.0 122.0 81.0 130.0 82.0 131.0 98.0 147.0 78.0 147.0 61.0 130.0 57.0 126.0 53.0 122.0 M61.0 130.0 L81.0 130.0 61.0 130.0" fill="#404040" fill-rule="evenodd" stroke="none"/>
    <path d="M160.3 102.2 L160.25 107.0 152.2 107.0 151.1 102.0 160.3 102.2" fill="url(#gradient11)" fill-rule="evenodd" stroke="none"/>
    <path d="M160.25 107.0 L160.15 110.0 160.05 112.0 153.25 112.0 153.25 111.95 152.2 107.0 160.25 107.0" fill="url(#gradient12)" fill-rule="evenodd" stroke="none"/>
    <path d="M160.05 112.0 L159.95 114.0 159.75 117.0 154.35 117.0 153.25 112.0 160.05 112.0" fill="url(#gradient13)" fill-rule="evenodd" stroke="none"/>
    <path d="M159.75 117.0 L159.6 118.75 159.3 121.6 154.4 117.15 154.35 117.0 159.75 117.0" fill="url(#gradient14)" fill-rule="evenodd" stroke="none"/>
    <path d="M181.0 200.0 L170.0 205.0 140.0 205.0 151.0 200.0 181.0 200.0 M138.15 201.9 L135.0 205.0 129.0 195.0 132.0 195.0 134.0 195.0 138.15 201.9 M122.15 201.9 L119.0 205.0 113.0 195.0 118.0 195.0 122.15 201.9 M106.15 201.9 L103.0 205.0 97.0 195.0 102.0 195.0 106.15 201.9" fill="#2b2b2b" fill-rule="evenodd" stroke="none"/>
    <path d="M177.0 34.0 L177.0 40.0 200.0 58.0 199.0 70.0 206.0 70.0 207.0 58.0 177.0 34.0 175.0 20.0 158.0 20.0 160.0 34.0 177.0 34.0 199.0 26.0 168.0 10.0 137.0 12.0 175.0 20.0 M177.0 40.0 L167.5 40.0 190.0 58.0 197.0 70.0 199.0 70.0 M166.0 50.0 L163.9 64.0 163.0 70.0 186.05 75.35 189.0 76.0 197.0 76.0 201.0 80.0 209.0 80.0 213.0 76.0 218.0 76.0 227.8 70.8 229.2 70.05 224.0 50.0 207.0 58.0 M164.6 131.6 L165.45 124.0 165.55 123.0 165.65 122.0 166.1 116.0 166.35 108.0 166.4 107.0 166.4 105.0 166.4 102.3 166.4 100.0 166.15 92.0 165.9 88.0 166.0 88.0 145.0 77.0 144.0 70.0 134.0 70.0 147.5 124.5 163.0 140.0 M189.6 83.0 L189.75 85.05 198.0 85.0 202.0 89.0 209.0 89.0 213.0 85.0 217.25 85.05 217.25 85.0 217.45 82.9 212.0 83.0 208.0 87.0 203.0 87.0 199.0 83.0 189.6 83.0 189.0 76.0 M187.0 85.0 L186.05 75.35 M190.0 88.0 L190.25 92.0 190.35 95.0 200.0 95.0 203.0 98.0 207.0 98.0 210.0 95.0 216.15 95.05 216.5 92.0 216.95 88.0 217.0 88.0 217.25 85.05 M190.35 95.0 L190.4 97.0 199.0 97.0 202.0 100.0 208.0 100.0 211.0 97.0 215.9 97.0 216.15 95.05 M189.75 85.05 L190.0 88.0 187.0 85.0 167.0 85.0 151.0 77.0 145.0 77.0 M190.0 58.0 L166.0 50.0 121.0 26.0 113.0 43.0 124.0 58.0 124.0 64.0 163.9 64.0 M166.0 88.0 L190.0 88.0 M166.15 92.0 L190.25 92.0 M217.45 82.9 L218.0 76.0 M224.0 85.0 L225.0 85.0 227.9 87.95 227.9 88.0 227.45 92.0 226.4 100.0 225.65 105.0 225.3 107.0 225.15 108.0 223.7 116.0 222.45 122.0 223.0 122.0 238.0 132.0 238.0 147.0 229.0 162.0 222.0 162.0 209.8 162.0 209.15 163.45 208.65 164.65 212.0 168.0 198.0 186.0 189.0 195.0 184.95 195.0 181.0 200.0 170.0 205.0 140.0 205.0 138.15 201.9 135.0 205.0 124.0 205.0 122.15 201.9 119.0 205.0 108.0 205.0 106.15 201.9 103.0 205.0 90.0 205.0 84.0 195.0 66.0 195.0 53.0 180.0 48.0 180.0 43.25 164.0 40.0 153.0 32.0 145.0 32.0 126.0 13.0 107.0 13.0 81.1 4.0 65.0 0.0 58.0 4.0 51.0 17.3 44.7 8.0 28.0 8.0 15.0 26.9 0.0 41.65 0.0 49.65 0.0 66.0 6.0 71.35 9.25 82.75 0.2 82.9 0.05 82.9 0.1 83.0 0.0 98.55 0.0 106.55 0.0 124.0 6.0 134.0 12.0 137.0 12.0 M227.8 70.8 L224.0 85.0 217.25 85.0 M216.5 92.0 L227.45 92.0 M217.0 88.0 L227.9 88.0 M199.0 26.0 L224.0 50.0 M190.4 97.0 L190.5 100.0 190.5 105.0 214.75 105.0 215.5 100.0 215.9 97.0 M222.45 122.0 L222.25 123.05 222.0 124.0 221.65 125.5 221.55 126.0 231.0 132.0 238.0 132.0 M221.55 126.0 L220.05 132.0 217.8 140.0 215.6 147.0 231.0 147.0 231.0 132.0 M215.6 147.0 L215.25 148.1 213.85 152.0 210.05 161.45 209.8 162.0 M238.0 147.0 L231.0 147.0 222.0 162.0 M215.5 100.0 L226.4 100.0 M164.55 132.0 L165.0 132.0 164.6 131.6 164.55 132.0 163.35 140.0 217.8 140.0 M159.9 155.9 L160.85 152.0 161.8 147.95 162.0 147.0 163.35 140.0 M166.4 100.0 L190.5 100.0 M184.95 195.0 L192.0 186.0 160.0 186.0 151.0 200.0 181.0 200.0 M192.0 186.0 L198.0 186.0 M208.65 164.65 L208.0 166.0 157.0 166.0 141.6 150.6 140.0 153.0 155.0 168.0 212.0 168.0 M165.45 124.0 L222.0 124.0 M166.35 108.0 L225.15 108.0 M166.1 116.0 L223.7 116.0 M165.0 132.0 L220.05 132.0 M126.0 12.0 L134.0 12.0 M82.9 0.1 L82.75 0.2 M67.0 22.0 L68.0 23.0 89.9 23.0 91.0 20.0 85.0 10.0 74.7 11.25 68.0 12.0 67.9 11.95 58.0 6.0 41.65 0.0 M85.0 10.0 L96.0 10.0 120.0 12.0 126.0 12.0 116.0 6.0 98.55 0.0 M90.35 38.0 L81.0 35.95 62.2 36.0 71.95 38.15 72.0 38.15 90.35 38.0 113.0 43.0 94.0 43.0 94.0 58.0 100.0 58.0 100.0 47.0 110.0 47.0 118.0 58.0 124.0 58.0 M8.0 28.0 L26.9 28.0 26.95 28.05 88.0 28.0 89.9 23.0 M121.0 26.0 L96.0 10.0 M94.0 58.0 L95.0 65.0 104.0 97.0 124.0 97.0 124.0 80.0 124.0 70.0 124.0 64.0 M118.0 58.0 L100.0 58.0 101.0 65.0 109.0 93.0 118.0 93.0 118.0 58.0 M144.0 70.0 L150.0 70.0 163.0 70.0 M124.0 70.0 L134.0 70.0 M124.0 97.0 L128.05 97.0 124.0 80.0 M147.95 87.6 L148.9 92.05 156.25 92.0 147.95 87.6 145.0 86.0 152.0 117.0 154.0 117.0 M148.9 92.05 L150.0 97.0 160.15 97.0 160.0 94.0 156.25 92.0 M160.15 97.0 L160.2 98.0 160.3 102.2 160.25 107.0 160.15 110.0 160.05 112.0 159.95 114.0 159.75 117.0 159.6 118.75 159.3 121.6 159.25 122.05 159.0 124.0 152.0 117.0 M151.0 77.0 L150.0 70.0 M158.0 20.0 L120.0 12.0 160.0 34.0 121.0 26.0 M116.0 6.0 L124.0 6.0 M71.35 9.25 L74.7 11.25 M53.1 34.0 L52.05 33.8 51.95 33.95 53.1 34.0 72.0 34.0 63.0 32.0 44.0 32.0 52.05 33.8 M61.05 35.75 L60.95 35.95 62.2 36.0 61.05 35.75 53.1 34.0 M58.0 6.0 L66.0 6.0 M67.0 22.0 L60.0 15.0 35.0 15.0 35.0 22.0 67.0 22.0 M8.0 15.0 L35.0 15.0 M36.0 58.0 L37.0 65.0 48.0 65.0 47.0 58.0 36.0 58.0 51.95 33.95 M4.0 65.0 L28.0 65.0 27.0 58.0 0.0 58.0 M27.0 58.0 L36.0 58.0 M37.0 65.0 L28.0 65.0 37.0 99.0 47.3 103.7 47.65 103.85 43.0 88.0 43.85 80.0 45.0 69.0 73.0 69.0 85.0 110.0 88.0 110.0 104.0 97.0 M18.0 90.0 L13.0 81.1 M28.0 94.75 L18.0 90.0 18.0 100.0 33.15 115.15 35.9 112.9 28.0 105.0 28.0 94.75 Q32.5 96.9 37.0 99.0 M60.0 58.0 L47.0 58.0 60.95 35.95 M48.5 95.0 L48.55 95.0 50.0 90.0 47.0 90.0 48.5 95.0 48.55 95.15 48.55 95.0 51.5 95.0 51.7 95.0 61.5 95.0 60.0 90.0 50.0 90.0 M51.6 95.3 L51.7 95.0 M51.6 95.3 L51.5 95.0 M73.0 69.0 L67.15 80.1 67.1 80.25 76.15 111.0 78.2 118.0 95.0 118.0 95.0 112.0 95.0 110.0 88.0 110.0 M67.1 80.25 L63.0 88.0 69.8 111.0 76.15 111.0 M48.0 65.0 L61.0 65.0 60.0 58.0 71.95 38.15 M63.0 88.0 L43.0 88.0 M67.15 80.1 L43.85 80.0 M44.0 32.0 L27.0 58.0 M44.0 32.0 L17.3 44.7 M73.0 122.0 L69.8 111.0 M61.5 95.0 L63.0 100.0 64.5 105.0 66.0 110.0 67.5 115.0 69.0 120.0 56.0 120.0 54.55 115.15 54.5 115.0 53.0 110.0 51.55 105.15 51.5 105.0 50.0 100.0 48.55 95.15 M51.5 105.0 L51.6 105.0 53.0 100.0 50.0 100.0 51.6 95.3 M51.6 105.0 L51.55 105.15 M51.6 105.0 L54.5 105.0 54.7 105.0 64.5 105.0 M53.0 110.0 L54.6 105.3 54.5 105.0 M53.0 110.0 L56.0 110.0 66.0 110.0 M54.6 105.3 L54.7 105.0 M57.6 115.3 L57.7 115.0 57.5 115.0 57.6 115.3 56.0 120.0 M54.6 115.0 L54.55 115.15 M54.5 115.0 L54.6 115.0 56.0 110.0 M47.65 103.85 L52.4 120.0 53.0 122.0 73.0 122.0 81.0 130.0 82.0 131.0 78.2 118.0 M52.4 120.0 L51.0 120.0 51.0 145.0 68.0 162.0 74.0 162.0 57.0 145.0 57.0 126.0 53.0 122.0 M54.6 115.0 L57.5 115.0 M51.0 120.0 L45.0 120.0 45.0 145.0 62.0 162.0 68.0 162.0 M98.0 147.0 L78.0 147.0 61.0 130.0 57.0 126.0 M53.0 100.0 L63.0 100.0 M57.7 115.0 L67.5 115.0 M40.0 153.0 L49.0 162.0 56.0 162.0 39.0 145.0 39.0 120.0 32.0 120.0 32.0 126.0 M33.15 115.15 L32.0 116.0 32.0 120.0 M58.0 164.0 L59.5 170.0 75.0 170.0 80.0 175.0 102.35 175.0 105.65 170.0 92.0 170.0 86.0 164.0 58.0 164.0 43.25 164.0 M56.0 162.0 L62.0 162.0 M45.0 120.0 L39.0 120.0 M47.3 103.7 L35.9 112.9 M152.2 107.0 L160.25 107.0 M152.2 107.0 L153.25 111.95 153.25 112.0 160.05 112.0 M153.25 112.0 L154.35 117.0 159.75 117.0 M154.35 117.0 L154.4 117.15 159.3 121.6 M151.1 102.0 L152.2 107.0 M151.1 102.0 L160.3 102.2 M123.0 122.0 L130.0 122.0 134.9 125.5 132.6 116.0 106.0 116.0 112.0 122.0 123.0 122.0 137.0 132.0 144.0 132.0 134.9 125.5 M128.05 97.0 L131.2 110.0 132.6 116.0 M137.0 147.0 L137.0 132.0 M147.5 124.5 L147.5 143.5 159.9 155.9 160.0 156.0 212.0 156.0 M144.0 132.0 L144.0 147.0 141.6 150.6 M137.0 147.0 L144.0 147.0 M95.0 112.0 L105.0 122.0 112.0 122.0 M116.65 103.0 L108.0 110.0 131.2 110.0 M100.0 110.0 L95.0 110.0 M82.0 131.0 L98.0 147.0 111.0 147.0 111.0 140.0 95.0 124.0 95.0 118.0 M108.0 110.0 L100.0 110.0 106.0 116.0 M112.65 170.0 L105.65 170.0 M123.9 162.0 L118.0 162.0 112.65 170.0 118.6 170.0 121.15 166.15 123.9 162.0 127.0 162.0 137.0 147.0 111.0 147.0 M97.0 195.0 L84.0 195.0 M122.15 201.9 L118.0 195.0 113.0 195.0 119.0 205.0 M106.0 180.0 L112.0 180.0 118.6 170.0 M113.0 195.0 L102.0 195.0 106.15 201.9 M106.0 180.0 L112.65 170.0 M102.0 195.0 L97.0 195.0 103.0 205.0 M159.9 156.0 L159.9 155.9 M159.9 156.0 L160.0 156.0 M157.0 166.0 L158.25 162.0 159.9 156.0 M127.0 162.0 L134.0 162.0 140.0 153.0 M132.0 195.0 L129.0 195.0 135.0 205.0 M141.0 186.0 L132.0 195.0 134.0 195.0 147.0 195.0 156.0 186.0 141.0 186.0 121.15 166.15 M156.0 186.0 L160.0 186.0 M141.0 186.0 L155.0 168.0 M129.0 103.0 L116.65 103.0 124.0 97.0 M129.0 195.0 L118.0 195.0 M150.0 97.0 L151.1 102.0 M53.0 180.0 L106.0 180.0 M74.0 162.0 L118.0 162.0 M81.0 130.0 L61.0 130.0 M60.0 58.0 L94.0 58.0 M95.0 65.0 L61.0 65.0 M94.0 43.0 L72.0 38.15 M72.0 34.0 L81.0 35.95 M151.0 200.0 L140.0 205.0 M161.8 147.95 L215.25 148.1 M134.0 195.0 L138.15 201.9 M167.5 40.0 L160.0 34.0" fill="none" stroke="#000000" stroke-width="0.7" stroke-opacity="0.4"/>
  </g>
  <defs>
    <radialGradient cx="0" cy="0" gradientTransform="matrix(0.0485, 0.0, 0.0, 0.0485, 197.3, 66.25)" gradientUnits="userSpaceOnUse" id="gradient0" r="819.2" spreadMethod="pad">
      <stop offset="0.0" stop-color="#ffcc00"/>
      <stop offset="1.0" stop-color="#ff6600"/>
    </radialGradient>
    <radialGradient cx="0" cy="0" gradientTransform="matrix(0.0705, 0.0, 0.0, 0.0705, 168.75, 103.5)" gradientUnits="userSpaceOnUse" id="gradient1" r="819.2" spreadMethod="pad">
      <stop offset="0.0" stop-color="#b6b6b6"/>
      <stop offset="1.0" stop-color="#777777"/>
    </radialGradient>
    <radialGradient cx="0" cy="0" gradientTransform="matrix(0.0298, 0.0, 0.0, 0.0298, 194.0, 80.5)" gradientUnits="userSpaceOnUse" id="gradient2" r="819.2" spreadMethod="pad">
      <stop offset="0.0" stop-color="#b6b6b6"/>
      <stop offset="1.0" stop-color="#6d6d6d"/>
    </radialGradient>
    <radialGradient cx="0" cy="0" gradientTransform="matrix(0.0198, 0.0, 0.0, 0.0198, 205.3, 87.25)" gradientUnits="userSpaceOnUse" id="gradient3" r="819.2" spreadMethod="pad">
      <stop offset="0.0" stop-color="#ffcc00"/>
      <stop offset="1.0" stop-color="#ff6600"/>
    </radialGradient>
    <radialGradient cx="0" cy="0" gradientTransform="matrix(0.0273, 0.0, 0.0, 0.0273, 171.15, 77.4)" gradientUnits="userSpaceOnUse" id="gradient4" r="819.2" spreadMethod="pad">
      <stop offset="0.0" stop-color="#ffcc00"/>
      <stop offset="1.0" stop-color="#ff6600"/>
    </radialGradient>
    <radialGradient cx="0" cy="0" gradientTransform="matrix(0.0316, 0.0, 0.0, 0.0316, 192.6, 80.95)" gradientUnits="userSpaceOnUse" id="gradient5" r="819.2" spreadMethod="pad">
      <stop offset="0.0" stop-color="#b6b6b6"/>
      <stop offset="1.0" stop-color="#6d6d6d"/>
    </radialGradient>
    <radialGradient cx="0" cy="0" gradientTransform="matrix(0.0184, 0.0, 0.0, 0.0184, 204.8, 99.25)" gradientUnits="userSpaceOnUse" id="gradient6" r="819.2" spreadMethod="pad">
      <stop offset="0.0" stop-color="#ffcc00"/>
      <stop offset="1.0" stop-color="#ff6600"/>
    </radialGradient>
    <radialGradient cx="0" cy="0" gradientTransform="matrix(0.0138, 0.0, 0.0, 0.0138, 219.8, 78.75)" gradientUnits="userSpaceOnUse" id="gradient7" r="819.2" spreadMethod="pad">
      <stop offset="0.0" stop-color="#ffcc00"/>
      <stop offset="1.0" stop-color="#ff6600"/>
    </radialGradient>
    <linearGradient gradientTransform="matrix(-0.0051, 0.0, 0.0, -0.0027, 152.1, 89.85)" gradientUnits="userSpaceOnUse" id="gradient8" spreadMethod="pad" x1="-819.2" x2="819.2">
      <stop offset="0.0" stop-color="#ffcc00"/>
      <stop offset="1.0" stop-color="#ff6600"/>
    </linearGradient>
    <linearGradient gradientTransform="matrix(-0.0069, 0.0, 0.0, -0.0031, 154.55, 94.5)" gradientUnits="userSpaceOnUse" id="gradient9" spreadMethod="pad" x1="-819.2" x2="819.2">
      <stop offset="0.0" stop-color="#ffcc00"/>
      <stop offset="1.0" stop-color="#ff6600"/>
    </linearGradient>
    <linearGradient gradientTransform="matrix(-0.0063, 0.0, 0.0, -0.0032, 155.15, 99.6)" gradientUnits="userSpaceOnUse" id="gradient10" spreadMethod="pad" x1="-819.2" x2="819.2">
      <stop offset="0.0" stop-color="#ffcc00"/>
      <stop offset="1.0" stop-color="#ff6600"/>
    </linearGradient>
    <linearGradient gradientTransform="matrix(-0.0056, 0.0, 0.0, -0.0031, 155.7, 104.5)" gradientUnits="userSpaceOnUse" id="gradient11" spreadMethod="pad" x1="-819.2" x2="819.2">
      <stop offset="0.0" stop-color="#ffcc00"/>
      <stop offset="1.0" stop-color="#ff6600"/>
    </linearGradient>
    <linearGradient gradientTransform="matrix(-0.0049, 0.0, 0.0, -0.0031, 156.25, 109.5)" gradientUnits="userSpaceOnUse" id="gradient12" spreadMethod="pad" x1="-819.2" x2="819.2">
      <stop offset="0.0" stop-color="#ffcc00"/>
      <stop offset="1.0" stop-color="#ff6600"/>
    </linearGradient>
    <linearGradient gradientTransform="matrix(-0.0042, 0.0, 0.0, -0.0031, 156.65, 114.5)" gradientUnits="userSpaceOnUse" id="gradient13" spreadMethod="pad" x1="-819.2" x2="819.2">
      <stop offset="0.0" stop-color="#ffcc00"/>
      <stop offset="1.0" stop-color="#ff6600"/>
    </linearGradient>
    <linearGradient gradientTransform="matrix(-0.0033, 0.0, 0.0, -0.0028, 157.05, 119.3)" gradientUnits="userSpaceOnUse" id="gradient14" spreadMethod="pad" x1="-819.2" x2="819.2">
      <stop offset="0.0" stop-color="#ffcc00"/>
      <stop offset="1.0" stop-color="#ff6600"/>
    </linearGradient>
  </defs>
</svg>
