<?xml version="1.0" encoding="utf-8"?>
<svg version="1.1" id="Layer_1"
xmlns="http://www.w3.org/2000/svg"
xmlns:xlink="http://www.w3.org/1999/xlink"
width="176px" height="87px"
xml:space="preserve">
<g id="PathID_7" transform="matrix(1, 0, 0, 1, 0.05, 0.05)">
<path style="fill:#8C8C8C;fill-opacity:1" d="M137.9 18L128.05 10.9L163.15 10.9L170.85 18L137.9 18M15.65 13.4L20.45 13.4L12.9 14.95L8.05 14.95L12.7 13.95L15.65 13.4M40.7 13.8L42.85 13.4L54.45 13.4L46.85 14.95L35.25 14.95L40.7 13.8M26.5 14.95L21.7 14.95L27.1 13.8L29.2 13.4L34.1 13.4L26.5 14.95M28.4 14.95L33.85 13.8L36 13.4L40.8 13.4L33.3 14.95L28.4 14.95M14.85 14.95L20.25 13.85L22.4 13.4L27.3 13.4L19.7 14.95L14.85 14.95" />
<path style="fill:#666666;fill-opacity:1" d="M137.9 60.45L131.35 53.9L131.35 24.55L137.9 18L170.85 18L175.65 24.55L175.65 53.9L170.85 60.45L137.9 60.45M22.15 25.95L26.95 25.95L27.5 24.6L28.9 25.95L33.75 25.95L34.25 24.6L35.7 25.95L47.4 25.95L47.4 37.35L44.5 37.35L41.5 37.35L20.55 37.35L17.6 33.45L2.4 33.45L1.2 32.25L0 31.05L0 24.25L6.75 18.65L5.1 22.95L8.5 25.95L13.4 25.95L13.85 24.6L15.35 25.95L20.25 25.95L20.7 24.6L22.15 25.95M87.85 12.55Q81.25 13 76.45 18.95Q72.5 23.9 71.6 30.45L71.35 31.8L68.9 31.8L68.95 30.45Q69.75 23.15 74 17.75Q79.05 11.45 86.2 11.2L87.8 11.2L93.6 11.2Q90.5 11.35 87.85 12.55M98 14.65Q94.25 15 91.2 17.55Q90 18.5 88.9 19.9Q87.15 22 86.2 24.5Q84.6 28.35 84.6 32.9L84.6 33.1L84.85 37.9L84.95 39.55L81.25 37.55Q80.9 35.65 80.9 33.6Q80.9 24.3 86.2 17.75Q90.85 11.95 97.25 11.35L98.3 11.2L99.9 11.2Q102.65 11.35 104.5 12.4L102.3 14.6L98 14.65M164.1 26.8Q162.6 28.5 162.6 31Q162.6 33.45 164.1 35.2Q164.95 36.1 166 36.5Q166.8 36.9 167.8 36.9Q169.95 36.9 171.45 35.2Q172.95 33.45 172.95 31Q172.95 28.5 171.45 26.8Q169.95 25.15 167.8 25.15L166 25.45Q164.95 25.85 164.1 26.8M164.1 43.8Q162.6 45.55 162.6 47.95Q162.6 50.45 164.1 52.15Q164.95 53.15 166 53.55L167.8 53.9Q169.95 53.9 171.45 52.15Q172.95 50.45 172.95 47.95Q172.95 45.55 171.45 43.8Q169.95 42.1 167.8 42.1Q166.8 42.1 166 42.45Q164.95 42.9 164.1 43.8M142.3 36.9Q144.5 36.9 146 35.2Q147.5 33.45 147.5 31Q147.5 28.5 146 26.8Q144.5 25.15 142.3 25.15L140.45 25.45Q139.5 25.85 138.65 26.8Q137.15 28.5 137.15 31Q137.15 33.45 138.65 35.2L140.45 36.5L142.3 36.9M127.75 46.75L125.4 44.45L116.65 46.4L125.4 34.15L127.8 31.8L127.75 46.75M116.65 46.4L116.65 31.95L125.4 34.15L125.4 44.45M142.3 53.9Q144.5 53.9 146 52.15Q147.5 50.45 147.5 47.95Q147.5 45.55 146 43.8Q144.5 42.1 142.3 42.1L140.45 42.45Q139.5 42.9 138.65 43.8Q137.15 45.55 137.15 47.95Q137.15 50.45 138.65 52.15Q139.5 53.15 140.45 53.55L142.3 53.9M153.35 36.5Q154.2 36.9 155.2 36.9Q157.3 36.9 158.8 35.2Q160.3 33.45 160.3 31Q160.3 28.5 158.8 26.8Q157.3 25.15 155.2 25.15L153.35 25.45Q152.3 25.85 151.5 26.8Q149.95 28.5 149.95 31Q149.95 33.45 151.5 35.2Q152.3 36.1 153.35 36.5M155.2 53.9Q157.3 53.9 158.8 52.15Q160.3 50.45 160.3 47.95Q160.3 45.55 158.8 43.8Q157.3 42.1 155.2 42.1L153.35 42.45Q152.3 42.9 151.5 43.8Q149.95 45.55 149.95 47.95Q149.95 50.45 151.5 52.15Q152.3 53.15 153.35 53.55L155.2 53.9M119.3 29.4L113.5 29.4L113.5 19.65L119.3 19.65L119.3 29.4M111.6 29.4L105.75 29.4L105.75 19.65L111.6 19.65L111.6 29.4M103.8 58.75L97.25 58.75L97.25 56.5L97.25 55.2L97.25 40.8L97.25 37.9L97.25 33.1L97.25 24.5L97.25 19.65L103.8 19.65L103.8 29.4L101.15 29.4L98.5 31.95L98.5 46.4L101.15 49.05L103.8 49.05L103.8 58.75M111.6 58.75L105.75 58.75L105.75 49.05L111.6 49.05L111.6 58.75M119.3 58.75L113.5 58.75L113.5 49.05L119.3 49.05L119.3 58.75M82.55 11.2Q79.6 11.35 76.95 12.55Q70.3 13 65.55 18.95Q61.6 23.9 60.65 30.45L60.45 31.8L57.95 31.8L58.05 30.45Q58.8 23.15 63.1 17.75Q68.2 11.45 75.25 11.2L82.55 11.2" />
<linearGradient
id="LinearGradID_198" gradientUnits="userSpaceOnUse" gradientTransform="matrix(0, 0.00717163, -0.00424194, 0, 169.5, 31)" spreadMethod ="reflect" x1="-819.2" y1="0" x2="819.2" y2="0" >
<stop  offset="0" style="stop-color:#333333;stop-opacity:1" />
<stop  offset="1" style="stop-color:#999999;stop-opacity:1" />
</linearGradient>
<path style="fill:url(#LinearGradID_198) " d="M167.8 35.2Q169.35 33.45 169.35 31Q169.35 28.5 167.8 26.8Q167 25.85 166 25.45L167.8 25.15Q169.95 25.15 171.45 26.8Q172.95 28.5 172.95 31Q172.95 33.45 171.45 35.2Q169.95 36.9 167.8 36.9Q166.8 36.9 166 36.5L167.8 35.2" />
<linearGradient
id="LinearGradID_199" gradientUnits="userSpaceOnUse" gradientTransform="matrix(0, 0.00720215, -0.00424194, 0, 169.5, 48)" spreadMethod ="pad" x1="-819.2" y1="0" x2="819.2" y2="0" >
<stop  offset="0" style="stop-color:#333333;stop-opacity:1" />
<stop  offset="1" style="stop-color:#999999;stop-opacity:1" />
</linearGradient>
<path style="fill:url(#LinearGradID_199) " d="M167.8 52.15Q169.35 50.45 169.35 47.95Q169.35 45.55 167.8 43.8Q167 42.9 166 42.45Q166.8 42.1 167.8 42.1Q169.95 42.1 171.45 43.8Q172.95 45.55 172.95 47.95Q172.95 50.45 171.45 52.15Q169.95 53.9 167.8 53.9L166 53.55Q167 53.15 167.8 52.15" />
<path style="fill:#4C4C4C;fill-opacity:1" d="M137.9 60.45L170.85 60.45L163.15 67.5L132.7 67.5L128.05 67.5L137.9 60.45M30.2 44.9Q26.75 44.9 24.15 48.05Q21.7 45 18.35 44.9L16.4 44.9L15.3 43.55L4.15 43.55L15.3 43.55L16.4 44.9L13.45 44.9L13.15 44.9Q9.5 44.9 6.85 48.4Q6.1 49.5 5.5 50.7L4.15 49.4L4.15 43.55L0.25 43.55L4.15 43.55L4.15 49.4L5.5 50.7Q4.6 52.8 4.3 55.25L0.25 51.05L0.25 43.55L0.25 41.65L1.95 39.85L2.6 39.85L2.6 38L3.6 39.1L14.9 39.1L15.45 39.85L17.8 42.95L41.5 42.95L44.5 42.95L47.4 42.95L50.3 42.95L53.25 42.95L56.1 42.95L56.6 42.95Q56.35 44.5 56.65 46.3Q54.85 44.95 52.65 44.9L47.85 44.9L47.2 44.9Q43.7 44.9 41.15 48.05Q38.65 45 35.3 44.9L30.45 44.9L30.2 44.9M26.75 2.35L25.15 2.35L23 7.35L24.1 8.5L23.7 9.55L15.25 11.6L18.25 3.1L20.3 1.15L27.2 1.15L26.75 2.35M57.05 39.55L56.1 39.1L53.3 37.55L81.25 37.55L84.95 39.55L57.05 39.55M116.65 46.4L119.3 49.05L113.5 49.05L111.6 49.05L105.75 49.05L103.8 49.05L101.15 49.05L98.5 46.4L116.65 46.4M128.05 67.5L126.9 67.5L122.25 67.5L113.5 58.75L119.3 58.75L128.05 67.5M97.25 58.75L103.8 58.75L112.55 67.5L107.4 67.5L105.95 67.5L105.15 66.75L97.25 58.75M105.75 58.75L111.6 58.75L120.25 67.5L114.4 67.5L105.75 58.75M75.9 70.55L65.9 67.15L68.35 67.15L78.3 70.55L75.9 70.55M15.45 39.85L2.6 39.85L15.45 39.85M72.5 70.55L69.45 69.45L67.8 68.95L62.5 67.15L64.95 67.15L74.9 70.55L72.5 70.55" />
<path style="fill:#727272;fill-opacity:1" d="M12.9 14.95L10 22.95L5.1 22.95L6.75 18.65L8.05 14.95L12.9 14.95M22.4 13.4L20.25 13.85L20.45 13.4L15.65 13.4L12.7 13.95L13.65 12L15.25 11.6L23.7 9.55L24.1 8.5L26.4 10.85L30.3 10.85L30.9 9.45L32.2 10.85L36.1 10.85L36.7 9.45L38.05 10.85L41.9 10.85L42.5 9.45L43.85 10.85L53.6 10.85L57.15 2.35L52.3 2.35L50.2 7.35L40.5 7.35L42.6 2.35L40.7 2.35L38.6 7.35L34.65 7.35L36.8 2.35L40.7 2.35L36.8 2.35L34.85 2.35L31 2.35L29.05 2.35L26.75 2.35L27.2 1.15L27.65 0L60.1 0L55.1 12L54.45 13.4L42.85 13.4L40.7 13.8L40.8 13.4L36 13.4L33.85 13.8L34.1 13.4L29.2 13.4L27.1 13.8L27.3 13.4L22.4 13.4M97.25 19.65L99.35 17.55L102.3 14.6L104.5 12.4L105.95 10.9L112.55 10.9L103.8 19.65L97.25 19.65M111.6 19.65L105.75 19.65L114.4 10.9L120.25 10.9L111.6 19.65M119.3 58.75L119.3 49.05L127.75 46.75L127.8 31.8L119.3 29.4L116.65 31.95L98.5 31.95L101.15 29.4L103.8 29.4L105.75 29.4L111.6 29.4L113.5 29.4L119.3 29.4L119.3 19.65L113.5 19.65L122.25 10.9L128.05 10.9L119.3 19.65L131.35 24.55L131.35 53.9L119.3 58.75M66.65 56.5L67.85 56.5L71.4 56.5L69.8 59.3L71.4 56.5L72.7 56.5L73.9 56.5L78.75 56.5L80 56.5L84.85 56.5L86.1 56.5L90.9 56.5L92.1 56.5L90.45 59.35L90.45 59.3L69.8 59.3L64.45 59.3L66.1 56.5L66.65 56.5M65.15 56.5L63.5 59.3L61.05 59.3L62.65 56.5L65.15 56.5M32.3 22.95L35.25 14.95L46.85 14.95L44 22.95L32.3 22.95M13.65 12L55.1 12L13.65 12M42.6 2.35L52.3 2.35L42.6 2.35M32.7 7.35L28.85 7.35L31 2.35L34.85 2.35L32.7 7.35M26.85 7.35L23 7.35L25.15 2.35L26.75 2.35L29.05 2.35L26.85 7.35M25.55 22.95L28.4 14.95L33.3 14.95L30.4 22.95L25.55 22.95M11.95 22.95L14.85 14.95L19.7 14.95L16.8 22.95L11.95 22.95M18.75 22.95L21.7 14.95L26.5 14.95L23.55 22.95L18.75 22.95M61.75 56.45L60.1 59.3L57.65 59.3L60.35 54.55L61.75 56.45" />
<path style="fill:#7F7F7F;fill-opacity:1" d="M119.3 19.65L128.05 10.9L137.9 18L131.35 24.55L119.3 19.65M116.65 31.95L119.3 29.4L127.8 31.8L125.4 34.15L116.65 31.95" />
<path style="fill:#595959;fill-opacity:1" d="M119.3 49.05L116.65 46.4L98.5 46.4L98.5 31.95L116.65 31.95L116.65 46.4L125.4 44.45L127.75 46.75L119.3 49.05M128.05 67.5L119.3 58.75L131.35 53.9L137.9 60.45L128.05 67.5M86.35 73.9L84.6 70.55L103.5 69.55L105.35 72.45L86.35 73.9M94.45 66.25L75.65 67.15L69.35 67.15L69.8 59.3L90.45 59.3L90.45 59.35L94.45 66.25M69.35 67.15L64.45 59.3L69.8 59.3L75.65 67.15M84.6 70.55L86.35 73.9L82.3 73.9L81 73.9L79.3 70.55L84.6 70.55M65.9 67.15L61.05 59.3L63.5 59.3L68.35 67.15L65.9 67.15M79.25 73.9L79 73.9L77.6 73.9L75.9 70.55L78.3 70.55L80.1 73.9L79.25 73.9M50.2 7.35L53.6 10.85L43.85 10.85L42.5 9.45L40.5 7.35L50.2 7.35M34.65 7.35L38.6 7.35L41.9 10.85L38.05 10.85L36.7 9.45L34.65 7.35M28.85 7.35L32.7 7.35L36.1 10.85L32.2 10.85L30.9 9.45L28.85 7.35M30.3 10.85L26.4 10.85L24.1 8.5L23 7.35L26.85 7.35L30.3 10.85M34.25 24.6L32.3 22.95L44 22.95L47.4 25.95L35.7 25.95L34.25 24.6M27.5 24.6L25.55 22.95L30.4 22.95L33.75 25.95L28.9 25.95L27.5 24.6M13.85 24.6L11.95 22.95L16.8 22.95L20.25 25.95L15.35 25.95L13.85 24.6M23.55 22.95L26.95 25.95L22.15 25.95L20.7 24.6L18.75 22.95L23.55 22.95M13.4 25.95L8.5 25.95L5.1 22.95L10 22.95L13.4 25.95M62.5 67.15L61.7 65.8L59.8 62.85L57.65 59.3L60.1 59.3L64.95 67.15L62.5 67.15M75.85 73.9L74.3 73.9L73.55 72.5L72.5 70.55L74.9 70.55L76.65 73.9L75.85 73.9" />
<linearGradient
id="LinearGradID_200" gradientUnits="userSpaceOnUse" gradientTransform="matrix(0, 0.00717163, -0.00424194, 0, 156.85, 31)" spreadMethod ="pad" x1="-819.2" y1="0" x2="819.2" y2="0" >
<stop  offset="0" style="stop-color:#333333;stop-opacity:1" />
<stop  offset="1" style="stop-color:#999999;stop-opacity:1" />
</linearGradient>
<path style="fill:url(#LinearGradID_200) " d="M155.2 25.15Q157.3 25.15 158.8 26.8Q160.3 28.5 160.3 31Q160.3 33.45 158.8 35.2Q157.3 36.9 155.2 36.9Q154.2 36.9 153.35 36.5Q154.35 36.1 155.2 35.2Q156.7 33.45 156.7 31Q156.7 28.5 155.2 26.8Q154.35 25.85 153.35 25.45L155.2 25.15" />
<linearGradient
id="LinearGradID_201" gradientUnits="userSpaceOnUse" gradientTransform="matrix(0, 0.00717163, -0.00430298, 0, 144, 31)" spreadMethod ="pad" x1="-819.2" y1="0" x2="819.2" y2="0" >
<stop  offset="0" style="stop-color:#333333;stop-opacity:1" />
<stop  offset="1" style="stop-color:#999999;stop-opacity:1" />
</linearGradient>
<path style="fill:url(#LinearGradID_201) " d="M140.45 25.45L142.3 25.15Q144.5 25.15 146 26.8Q147.5 28.5 147.5 31Q147.5 33.45 146 35.2Q144.5 36.9 142.3 36.9L140.45 36.5L142.3 35.2Q143.85 33.45 143.85 31Q143.85 28.5 142.3 26.8Q141.5 25.85 140.45 25.45" />
<linearGradient
id="LinearGradID_202" gradientUnits="userSpaceOnUse" gradientTransform="matrix(0, 0.00720215, -0.00430298, 0, 144, 48)" spreadMethod ="pad" x1="-819.2" y1="0" x2="819.2" y2="0" >
<stop  offset="0" style="stop-color:#333333;stop-opacity:1" />
<stop  offset="1" style="stop-color:#999999;stop-opacity:1" />
</linearGradient>
<path style="fill:url(#LinearGradID_202) " d="M140.45 42.45L142.3 42.1Q144.5 42.1 146 43.8Q147.5 45.55 147.5 47.95Q147.5 50.45 146 52.15Q144.5 53.9 142.3 53.9L140.45 53.55L142.3 52.15Q143.85 50.45 143.85 47.95Q143.85 45.55 142.3 43.8L140.45 42.45" />
<linearGradient
id="LinearGradID_203" gradientUnits="userSpaceOnUse" gradientTransform="matrix(0, 0.00720215, -0.00424194, 0, 156.85, 48)" spreadMethod ="pad" x1="-819.2" y1="0" x2="819.2" y2="0" >
<stop  offset="0" style="stop-color:#333333;stop-opacity:1" />
<stop  offset="1" style="stop-color:#999999;stop-opacity:1" />
</linearGradient>
<path style="fill:url(#LinearGradID_203) " d="M153.35 42.45L155.2 42.1Q157.3 42.1 158.8 43.8Q160.3 45.55 160.3 47.95Q160.3 50.45 158.8 52.15Q157.3 53.9 155.2 53.9L153.35 53.55Q154.35 53.15 155.2 52.15Q156.7 50.45 156.7 47.95Q156.7 45.55 155.2 43.8L153.35 42.45" />
<path style="fill:#333333;fill-opacity:1" d="M59.85 70.4L57.4 69.9L55.65 69.1L54.85 68.5L55.65 69.1L57.4 69.9L59.85 70.4L58.95 72L59.75 72.7Q60.95 73.35 62.65 73.75L64.7 72.1L66.6 70.15L67.8 68.95L69.45 69.45L69.8 69.9L71.55 71.35L73.55 72.5L74.3 73.9L75.85 73.9L74.3 75.85L72.9 75.4Q70.25 74.5 68.55 72.8L67.8 72L68.55 72.8Q70.25 74.5 72.9 75.4L74.3 75.85L72.95 77.35L74.3 76.75L76.3 75.75L76.7 75.45L79 73.9L79.25 73.9L79.75 75.15Q81.05 77.55 83.5 79L84.05 79.3L86.4 80.25L84.05 79.3L83.5 79Q81.05 77.55 79.75 75.15L79.25 73.9L80.1 73.9L81 73.9L80.1 73.9L78.3 70.55L68.35 67.15L63.5 59.3L65.15 56.5L66.1 56.5L64.45 59.3L69.35 67.15L79.3 70.55L81 73.9L82.3 73.9L86.35 73.9L92.35 73.9L86.35 73.9Q87.7 74.85 89.4 75.4L90.8 75.85L89.4 75.4Q87.7 74.85 86.35 73.9L105.35 72.45L127.6 72.45L114.15 73.9L92.35 73.9L90.8 75.85L88.55 78.25L86.4 80.25L83.5 82.35L83.05 82.5Q81.25 83.55 79.1 84.4L78.95 84.45L78.9 84.45L74.9 85.65L70.7 86.35Q68.5 86.55 66.35 86.3Q63.55 86 60.8 85L58.4 85.65L57.4 85.9L57 85.95L56.35 86.1L54.2 86.35Q52.05 86.55 49.85 86.3Q47.1 86 44.25 85.05L43.45 84.7L40.25 85.65L36 86.35L31.6 86.3Q28.85 86 26.1 85.05Q24.2 84.35 22.35 83.35L21.85 83.1Q19.8 81.9 18.4 80.25Q16.95 78.65 16.15 76.55L15.5 74L26.45 74L27 75.65L27.6 76.55L28.65 77.45L30.35 78.1L32.45 78.3L34.95 78.2L36 86.35L34.95 78.2L35.15 78.2Q35.75 79.3 36.65 80.25Q35.75 79.3 35.15 78.2L34.35 76.55Q37.15 76.8 40.1 76.55L42.5 76.25L40.1 76.55Q37.15 76.8 34.35 76.55Q33.9 75.4 33.75 74L44.6 74L45.5 72.95L46.45 72.1L48.35 70.15L49.55 68.9L50.7 68.9L52.65 68.9Q53.8 68.9 54.85 68.5Q56.2 68 57.4 67L57.95 66.45L59 66.95L61.25 67.35M56.1 39.1L56.1 42.95L53.25 42.95L50.3 42.95L50.3 39.05L50.3 42.95L47.4 42.95L47.4 39.05L47.4 42.95L44.5 42.95L41.5 42.95L41.5 40.8L33.75 40.8L41.5 40.8L41.5 42.95L17.8 42.95L15.45 39.85L14.9 39.1L3.6 39.1L2.6 38L1.2 36.65L1.2 35.4L1.2 32.25L2.4 33.45L17.6 33.45L20.55 37.35L41.5 37.35L41.5 38.7L41.5 37.35L44.5 37.35L44.5 38.7L44.5 37.35L47.4 37.35L47.4 38.7L47.4 37.35L50.3 37.35L50.3 38.7L50.3 37.35L53.25 37.35L53.25 37.45L53.3 37.55L56.1 39.1L57.05 39.55L84.95 39.55L84.85 37.9L91.1 37.9L97.25 37.9L97.25 40.8L93.7 40.8L92.45 40.8L87.65 40.8L86.4 40.8L81.55 40.8L80.35 40.8L75.45 40.8L74.3 40.8L69.45 40.8L68.2 40.8L63.35 40.8L62.15 40.8L57.25 40.8L56.6 42.95L56.1 42.95L56.1 39.1M105.75 29.4L103.8 29.4L103.8 19.65L112.55 10.9L114.4 10.9L105.75 19.65L105.75 29.4M113.5 19.65L113.5 29.4L111.6 29.4L111.6 19.65L120.25 10.9L122.25 10.9L113.5 19.65M91.2 17.55Q94.25 15 98 14.65L102.3 14.6L99.35 17.55L91.2 17.55M103.8 58.75L103.8 49.05L105.75 49.05L105.75 58.75L114.4 67.5L112.55 67.5M122.25 67.5L120.25 67.5L111.6 58.75L111.6 49.05L113.5 49.05L113.5 58.75L122.25 67.5M97 56.5L97.25 56.5L97.25 58.75L105.15 66.75L97 64L93.9 58.7L95.2 56.5L97 56.5M112.55 67.5L103.8 58.75L114.4 67.5L120.25 67.5L122.25 67.5L126.9 67.5L126.1 70L108.95 70L107.4 67.5L112.55 67.5M88.55 78.25Q86 77.2 84.05 75.75L83.5 75.25L83.45 75.15L82.3 73.9L83.45 75.15L83.5 75.25L84.05 75.75Q86 77.2 88.55 78.25M44.5 39.05L44.5 42.95L44.5 39.05M41.5 39.05L41.5 40.8L41.5 39.05M51.5 55.8Q51.05 56.4 51.05 57.2Q51.05 58 51.5 58.55L52.1 59.05Q51.7 61.55 50.3 63.5Q49 65.4 47.25 65.95Q45.45 65.4 44.1 63.5Q42.25 60.9 42.25 57.2Q42.25 53.5 44.1 50.85Q45.45 49 47.25 48.5Q49 49 50.3 50.85Q51.7 52.8 52.1 55.4Q51.75 55.5 51.5 55.8M53.25 39.05L53.25 42.95L53.25 39.05M53.25 37.45L53.25 38.7L53.25 37.45M17 55.55Q16.6 56.1 16.6 57Q16.6 57.75 17 58.3Q17.55 58.9 18.1 58.9L17.7 60.55L17.15 61.95L16.4 63.1L16.15 63.4L14.55 64.85L13.2 65.45L11.9 64.85Q10.9 64.25 10 63.1L9.45 62.1L9.25 61.8L8.75 60.55L8.7 60.35L8.7 60.3Q8.45 59.7 8.35 58.95L8.15 57.15L8.15 56.65L8.35 54.9L8.95 52.6L9.45 51.7Q9.65 51.15 10 50.7Q10.85 49.6 11.85 49L14.65 49L11.85 49Q12.55 48.6 13.2 48.35Q13.95 48.6 14.65 49L16.15 50.5L16.4 50.7L17.15 51.9L17.5 52.6L17.75 53.35L18.1 54.95Q17.55 54.95 17 55.55M33.45 40.8L20 40.8L15.95 35.4L1.2 35.4L15.95 35.4L20 40.8L33.45 40.8M35.05 54.95Q34.5 54.95 34.05 55.55Q33.65 56.1 33.65 57Q33.65 57.75 34.05 58.3Q34.5 58.9 35.05 58.9L35.15 58.9L34.8 60.55L34.15 61.95L33.35 63.1L33.2 63.4L27.65 63.4L33.2 63.4L31.55 64.85L28.9 64.85L31.55 64.85L30.2 65.45L28.9 64.85Q27.9 64.25 27 63.1L26.2 61.8L25.7 60.55L25.65 60.3Q25.4 59.7 25.3 58.95L25.15 56.9Q25.15 55.9 25.3 54.9L25.7 53.3L26.4 51.7L27 50.7Q27.85 49.6 28.85 49Q29.45 48.6 30.2 48.35Q30.95 48.6 31.6 49L33.2 50.5L34.15 51.9L34.8 53.35L35.15 54.95L35.05 54.95M31.6 49L30.8 49L31.6 49M30.55 49L28.85 49L30.55 49M31.15 54.95Q30.6 54.95 30.15 55.55Q29.75 56.1 29.75 57Q29.75 57.75 30.15 58.3Q30.6 58.9 31.15 58.9Q31.8 58.9 32.2 58.3Q32.7 57.75 32.7 57Q32.7 56.1 32.2 55.55Q31.8 54.95 31.15 54.95M34.15 51.9L30.8 51.9L34.15 51.9M33.2 50.5L30.8 50.5L33.2 50.5M26.3 55.55Q25.8 56.1 25.8 57Q25.8 57.75 26.3 58.3L26.8 58.75L27.3 58.9Q27.9 58.9 28.35 58.3Q28.8 57.75 28.8 57Q28.8 56.1 28.35 55.55Q27.9 54.95 27.3 54.95Q27 54.95 26.8 55.1L26.3 55.55M30 53.35L26.8 53.35L30 53.35M34.8 53.35L30.35 53.35L34.8 53.35M34.8 60.55L26.8 60.5L34.8 60.55M34.15 61.95L27.1 61.95L34.15 61.95M30.55 50.5L27.6 50.5L30.55 50.5M30.55 51.9L27 51.9L30.55 51.9M10.3 54.95Q10 54.95 9.85 55.1Q9.55 55.25 9.3 55.55Q8.85 56.1 8.85 57Q8.85 57.75 9.3 58.3L9.85 58.75L10.3 58.9Q10.9 58.9 11.4 58.3Q11.8 57.75 11.8 57Q11.8 56.1 11.4 55.55Q10.9 54.95 10.3 54.95M13.2 55.55Q12.7 56.1 12.7 57Q12.7 57.75 13.2 58.3Q13.65 58.9 14.2 58.9Q14.85 58.9 15.25 58.3Q15.7 57.75 15.7 57Q15.7 56.1 15.25 55.55Q14.85 54.95 14.2 54.95Q13.65 54.95 13.2 55.55M17.75 53.35L13.35 53.35L17.75 53.35M16.15 50.5L10.6 50.5L16.15 50.5M14.55 64.85L11.9 64.85L14.55 64.85M16.15 63.4L10.65 63.4L16.15 63.4M13.05 53.35L9.85 53.35L13.05 53.35M17.15 51.9L10 51.9L17.15 51.9M17.7 60.55L9.85 60.5L17.7 60.55M17.15 61.95L10.05 61.95L17.15 61.95M42.5 81.95L40.1 83.1L38.4 81.95L36.65 80.25L37.85 80.15Q40.4 79.7 42.5 78.65Q40.4 79.7 37.85 80.15L36.65 80.25L38.4 81.95L40.1 83.1L42.5 81.95M40.25 85.65L38.4 81.95L40.25 85.65M31.6 86.3L32.45 78.3L31.6 86.3M21.85 83.1L23.75 82.3L21.85 83.1M26.1 85.05L27.95 83.6L26.1 85.05M24.05 78.75Q26.1 77.9 27.6 76.55Q26.1 77.9 24.05 78.75M24.05 76.25L27 75.65L24.05 76.25M24.05 82.05Q27.35 80.25 28.65 77.45Q27.35 80.25 24.05 82.05M28.15 83.45Q29.85 81.4 30.35 78.1Q29.85 81.4 28.15 83.45M16.15 76.55L23.75 76.3L16.15 76.55M18.4 80.25Q21.4 79.9 23.75 78.95Q21.4 79.9 18.4 80.25M65.9 67.15L75.9 70.55L77.6 73.9L76.65 73.9L74.9 70.55L64.95 67.15L60.1 59.3L61.75 56.45L61.8 56.5L62.65 56.5L61.05 59.3L65.9 67.15M59 66.95L57.95 66.45Q59.45 64.9 59.8 62.85L61.7 65.8L61.25 67.35L59.85 70.4L59 66.95M67.8 75.9L71.35 77.95L72.05 78.25L70 80.2L69.9 80.25L67 79Q64.55 77.55 63.3 75.15L62.65 73.75L62.6 73.75L60.25 75.45Q59.95 75.55 59.8 75.75L57.8 76.75L57.4 77L56.25 77.45Q57.8 76.2 58.95 74.35L59.75 72.7L58.95 74.35Q57.8 76.2 56.25 77.45L57.4 77L57.8 76.75L59.8 75.75Q59.95 75.55 60.25 75.45L62.6 73.75L62.65 73.75L63.3 75.15Q64.55 77.55 67 79L69.9 80.25L70 80.2L72.05 78.25L71.35 77.95L67.8 75.9M67.55 75.75L67 75.25L66.85 75.15Q65.8 74.05 65.1 72.8L64.7 72.1L65.1 72.8Q65.8 74.05 66.85 75.15L67 75.25L67.55 75.75M67.55 71.7L66.6 70.15L67.55 71.7M72.5 70.55L73.55 72.5L71.55 71.35L69.8 69.9L69.45 69.45L72.5 70.55M48.7 55.25Q48.1 55.25 47.6 55.8Q47.15 56.4 47.15 57.2Q47.15 58 47.6 58.55Q48.1 59.15 48.7 59.15L48.8 59.15Q49.4 59.1 49.8 58.55Q50.3 58 50.3 57.2Q50.3 56.4 49.8 55.8Q49.4 55.3 48.8 55.25L48.7 55.25M48.35 49.55L45.9 49.55L48.35 49.55M44.55 59.15Q45.2 59.15 45.65 58.55Q46.15 58 46.15 57.2Q46.15 56.4 45.65 55.8Q45.2 55.25 44.55 55.25Q43.95 55.25 43.45 55.8Q43 56.4 43 57.2Q43 58 43.45 58.55Q43.95 59.15 44.55 59.15M49.6 50.9L44.6 50.9L49.6 50.9M50.55 52.25L43.75 52.25L50.55 52.25M48.2 64.8L46 64.8L48.2 64.8M49.85 72.35Q48.95 71.35 48.35 70.15Q48.95 71.35 49.85 72.35M49.8 63.5L44.65 63.5L49.8 63.5M50.6 62L43.8 62L50.6 62M58.95 72L58 73.35L55.5 72.6Q53.25 71.6 51.65 69.9L50.7 68.9L51.65 69.9Q53.25 71.6 55.5 72.6L58 73.35L58.95 72M51.25 53.7L43.1 53.7L51.25 53.7M51.15 60.65L43.1 60.65L51.15 60.65M50.1 76.3Q51.65 77.35 53.65 78.15L53.25 78.2L50.65 78.3L48.55 78.1L46.8 77.45L46.7 77.35L45.85 76.55L42.85 78.55L45.85 76.55L46.7 77.35L46.8 77.5L46.8 77.45L48.55 78.1L50.65 78.3L53.25 78.2L53.65 78.15Q51.65 77.35 50.1 76.3M50.1 72.6Q52.25 74.85 56.05 75.85L54 78.1L53.75 78.1L53.65 78.15L53.75 78.1L54 78.1L56.05 75.85Q52.25 74.85 50.1 72.6M56.25 77.45L55.55 77.6L54.15 78.1L54 78.1L54.15 78.1L55.55 77.6L56.25 77.45M58.4 85.65L57.4 83.85Q56.65 82.4 56.2 80.6Q55.75 79.2 55.55 77.6Q55.75 79.2 56.2 80.6Q56.65 82.4 57.4 83.85L58.4 85.65M60.25 75.45Q61 78.1 62.6 79.8L63.6 80.8Q64.9 81.9 66.6 82.5Q64.7 83.55 62.6 84.4L62.45 84.45Q60.85 83.15 59.8 81.65L59.15 80.6Q58.15 78.85 57.8 76.75Q58.15 78.85 59.15 80.6L59.8 81.65Q60.85 83.15 62.45 84.45L62.6 84.4Q64.7 83.55 66.6 82.5Q64.9 81.9 63.6 80.8L62.6 79.8Q61 78.1 60.25 75.45M54.2 86.35L53.25 78.2L54.2 86.35M42.85 81.8Q45.65 80.1 46.8 77.5Q45.65 80.1 42.85 81.8M45.85 76.55L45.2 75.65L44.6 74L45.2 75.65L45.85 76.55M42.85 76.2L45.2 75.65L42.85 76.2M44.25 85.05L46.15 83.65Q47.25 82.5 47.85 80.8L48.55 78.1L47.85 80.8Q47.25 82.5 46.15 83.65L44.25 85.05M49.85 86.3L50.65 78.3L49.85 86.3M79.85 80.6L79.1 79.8Q77.5 78.1 76.7 75.45Q77.5 78.1 79.1 79.8L79.85 80.6M72.95 77.35L72.15 78.15L72.05 78.25L72.15 78.15L72.95 77.35M74.9 85.65L73.9 83.85L72.7 80.8L72.15 78.15L72.7 80.8L73.9 83.85L74.9 85.65M78.95 84.45Q77.4 83.15 76.3 81.65L75.8 80.8Q74.65 78.85 74.3 76.75Q74.65 78.85 75.8 80.8L76.3 81.65Q77.4 83.15 78.95 84.45M62.45 84.45L60.8 85L62.45 84.45M69.9 80.25L67 82.35L66.75 82.4L66.6 82.5L66.75 82.4L67 82.35L69.9 80.25M66.35 86.3L66.75 82.4L66.35 86.3M70.7 86.35L70 80.2L70.7 86.35M58 73.35L56.05 75.85L58 73.35M49.85 76.05Q47.5 74.4 46.45 72.1Q47.5 74.4 49.85 76.05M43.45 84.7L40.1 83.1L43.45 84.7M83.05 82.5Q81.35 81.9 80.15 80.8Q81.35 81.9 83.05 82.5" />
<linearGradient
id="LinearGradID_204" gradientUnits="userSpaceOnUse" gradientTransform="matrix(0, 0.0160675, -0.0276337, 0, 75.65, 24.45)" spreadMethod ="pad" x1="-819.2" y1="0" x2="819.2" y2="0" >
<stop  offset="0" style="stop-color:#AFAFAF;stop-opacity:1" />
<stop  offset="1" style="stop-color:#4C4C4C;stop-opacity:1" />
</linearGradient>
<path style="fill:url(#LinearGradID_204) " d="M65.2 31.8L65.3 30.45Q66.1 23.15 70.4 17.75Q73.3 14.1 76.95 12.55Q79.6 11.35 82.55 11.2L86.2 11.2Q79.05 11.45 74 17.75Q69.75 23.15 68.95 30.45L68.9 31.8L71.35 31.8L76.15 31.8L76.25 30.45Q77 23.15 81.3 17.75Q84.25 14.1 87.85 12.55Q90.5 11.35 93.6 11.2L98.3 11.2L97.25 11.35Q90.85 11.95 86.2 17.75Q80.9 24.3 80.9 33.6Q80.9 35.65 81.25 37.55L53.3 37.55L53.25 37.45L53.25 37.35L53.25 36.8L53.2 36.65L53 33.6Q53 24.3 58.25 17.75Q63.5 11.25 70.8 11.2L75.25 11.2Q68.2 11.45 63.1 17.75Q58.8 23.15 58.05 30.45L57.95 31.8L60.45 31.8L65.2 31.8" />
<path style="fill:#999999;fill-opacity:1" d="M95.2 56.5L93.9 58.7L97 64L105.15 66.75L105.95 67.5L107.4 67.5L108.95 70L126.1 70L126.9 67.5L128.05 67.5L132.7 67.5L128.55 69.45L127.6 72.45L105.35 72.45L103.5 69.55L94.45 66.25L90.45 59.35L92.1 56.5L92.15 56.5L95.2 56.5M50.3 37.35L47.4 37.35L47.4 25.95L44 22.95L46.85 14.95L54.45 13.4L55.1 12L60.1 0L83.5 0L87.8 11.2L86.2 11.2L82.55 11.2L75.25 11.2L70.8 11.2Q63.5 11.25 58.25 17.75Q53 24.3 53 33.6L53.2 36.65L53.25 36.8L53.25 37.35L50.3 37.35M82.1 3.35L63.5 3.35L61.05 9.3L84.3 9.3L82.1 3.35M50.2 7.35L52.3 2.35L57.15 2.35L53.6 10.85L50.2 7.35M38.6 7.35L40.7 2.35L42.6 2.35L40.5 7.35L42.5 9.45L41.9 10.85L38.6 7.35M32.7 7.35L34.85 2.35L36.8 2.35L34.65 7.35L36.7 9.45L36.1 10.85L32.7 7.35M26.85 7.35L29.05 2.35L31 2.35L28.85 7.35L30.9 9.45L30.3 10.85L26.85 7.35M34.25 24.6L33.75 25.95L30.4 22.95L33.3 14.95L40.8 13.4L40.7 13.8L35.25 14.95L32.3 22.95L34.25 24.6M21.7 14.95L18.75 22.95L20.7 24.6L20.25 25.95L16.8 22.95L19.7 14.95L27.3 13.4L27.1 13.8L21.7 14.95M23.55 22.95L26.5 14.95L34.1 13.4L33.85 13.8L28.4 14.95L25.55 22.95L27.5 24.6L26.95 25.95L23.55 22.95M14.85 14.95L11.95 22.95L13.85 24.6L13.4 25.95L10 22.95L12.9 14.95L20.45 13.4L20.25 13.85L14.85 14.95" />
<linearGradient
id="LinearGradID_205" gradientUnits="userSpaceOnUse" gradientTransform="matrix(0, 0.0042572, -0.0080719, 0, 92.75, 21)" spreadMethod ="pad" x1="-819.2" y1="0" x2="819.2" y2="0" >
<stop  offset="0" style="stop-color:#666666;stop-opacity:1" />
<stop  offset="0.258824" style="stop-color:#999999;stop-opacity:1" />
<stop  offset="1" style="stop-color:#333333;stop-opacity:1" />
</linearGradient>
<path style="fill:url(#LinearGradID_205) " d="M99.35 17.55L97.25 19.65L97.25 24.5L92.4 24.5L87.55 24.5L86.2 24.5Q87.15 22 88.9 19.9Q90 18.5 91.2 17.55L99.35 17.55" />
<linearGradient
id="LinearGradID_206" gradientUnits="userSpaceOnUse" gradientTransform="matrix(0, 0.00526428, -0.00773621, 0, 90.9, 28.8)" spreadMethod ="pad" x1="-819.2" y1="0" x2="819.2" y2="0" >
<stop  offset="0" style="stop-color:#666666;stop-opacity:1" />
<stop  offset="0.258824" style="stop-color:#999999;stop-opacity:1" />
<stop  offset="1" style="stop-color:#333333;stop-opacity:1" />
</linearGradient>
<path style="fill:url(#LinearGradID_206) " d="M89.05 33.1L87.55 33.1Q86.7 32.05 86.25 31Q86.7 32.05 87.55 33.1L84.6 33.1L84.6 32.9Q84.6 28.35 86.2 24.5L87.55 24.5L92.4 24.5L97.25 24.5L97.25 33.1L92.4 33.1L89.05 33.1M91.1 31L92.4 33.1L91.1 31M92.4 24.5Q90.1 27.55 90.95 30.55Q90.1 27.55 92.4 24.5M87.55 24.5Q85.25 27.55 86.15 30.55Q85.25 27.55 87.55 24.5" />
<linearGradient
id="LinearGradID_207" gradientUnits="userSpaceOnUse" gradientTransform="matrix(0, 0.00289917, -0.00773621, 0, 90.9, 35.5)" spreadMethod ="pad" x1="-819.2" y1="0" x2="819.2" y2="0" >
<stop  offset="0" style="stop-color:#666666;stop-opacity:1" />
<stop  offset="0.258824" style="stop-color:#999999;stop-opacity:1" />
<stop  offset="1" style="stop-color:#333333;stop-opacity:1" />
</linearGradient>
<path style="fill:url(#LinearGradID_207) " d="M97.25 37.9L91.1 37.9Q89.8 36.85 89.3 35.8Q89.8 36.85 91.1 37.9L84.85 37.9L84.6 33.1L87.55 33.1L89.05 33.1L92.4 33.1L97.25 33.1L97.25 37.9M89.05 33.1Q88.65 34.35 89.1 35.55Q88.65 34.35 89.05 33.1" />
<linearGradient
id="LinearGradID_208" gradientUnits="userSpaceOnUse" gradientTransform="matrix(0, 0.009552, -0.00619507, 0, 85.85, 48.7)" spreadMethod ="pad" x1="-819.2" y1="0" x2="819.2" y2="0" >
<stop  offset="0" style="stop-color:#666666;stop-opacity:1" />
<stop  offset="0.254902" style="stop-color:#8C8C8C;stop-opacity:1" />
<stop  offset="1" style="stop-color:#4C4C4C;stop-opacity:1" />
</linearGradient>
<path style="fill:url(#LinearGradID_208) " d="M81.55 40.8L86.4 40.8Q83.5 46.55 90.9 56.5L86.1 56.5Q78.65 46.55 81.55 40.8" />
<linearGradient
id="LinearGradID_209" gradientUnits="userSpaceOnUse" gradientTransform="matrix(0, 0.009552, -0.00619507, 0, 91.95, 48.7)" spreadMethod ="pad" x1="-819.2" y1="0" x2="819.2" y2="0" >
<stop  offset="0" style="stop-color:#666666;stop-opacity:1" />
<stop  offset="0.254902" style="stop-color:#8C8C8C;stop-opacity:1" />
<stop  offset="1" style="stop-color:#4C4C4C;stop-opacity:1" />
</linearGradient>
<path style="fill:url(#LinearGradID_209) " d="M97 56.5L95.2 56.5L92.15 56.5Q84.75 46.55 87.65 40.8L92.45 40.8Q90.05 45.65 94.8 53.3L97 56.5M97.25 55.2L94.8 51.1Q91.6 44.9 93.7 40.8L97.25 40.8L97.25 55.2" />
<linearGradient
id="LinearGradID_210" gradientUnits="userSpaceOnUse" gradientTransform="matrix(0, 0.0146637, -0.00767517, 0, 54.1, 56.9)" spreadMethod ="pad" x1="-819.2" y1="0" x2="819.2" y2="0" >
<stop  offset="0" style="stop-color:#666666;stop-opacity:1" />
<stop  offset="0.258824" style="stop-color:#999999;stop-opacity:1" />
<stop  offset="1" style="stop-color:#333333;stop-opacity:1" />
</linearGradient>
<path style="fill:url(#LinearGradID_210) " d="M36.5 48.4Q34.05 45 30.45 44.9L35.3 44.9Q38.65 45 41.15 48.05L40.8 48.4Q39.35 50.45 38.7 52.9Q38.05 50.45 36.5 48.4M39.95 67Q37.9 68.85 35.3 68.9L31.5 68.9L31.5 68.85Q33.45 68.4 35.15 67L36.5 65.45Q38.05 63.4 38.7 60.9Q39.35 63.4 40.8 65.45L41.15 65.8L39.95 67M60.35 54.55L57.65 59.3L59.8 62.85Q59.45 64.9 57.95 66.45L57.4 67Q56.2 68 54.85 68.5Q53.8 68.9 52.65 68.9L50.7 68.9L49.55 68.9L47.85 68.9Q49.1 68.85 50.25 68.25Q51.7 67.55 52.95 66.2L53.55 65.45L54.6 63.65Q56.2 60.7 56.2 56.9Q56.2 52.55 54.1 49.3L53.2 47.9Q50.9 45.2 47.85 44.9L52.65 44.9Q54.85 44.95 56.65 46.3Q57.35 49.9 60.35 54.55M18.35 44.9Q21.7 45 24.15 48.05L23.85 48.4Q22.35 50.45 21.75 52.9Q21.05 50.45 19.55 48.4Q18.65 47.1 17.5 46.3Q15.65 44.95 13.45 44.9L16.4 44.9L18.35 44.9M22.95 67Q20.95 68.85 18.35 68.9L13.45 68.9Q16.05 68.85 18.1 67L19.55 65.45Q21.05 63.4 21.75 60.9Q22.35 63.4 23.85 65.45L24.15 65.8L22.95 67" />
<linearGradient
id="LinearGradID_211" gradientUnits="userSpaceOnUse" gradientTransform="matrix(0, 0.009552, -0.00619507, 0, 61.6, 48.7)" spreadMethod ="pad" x1="-819.2" y1="0" x2="819.2" y2="0" >
<stop  offset="0" style="stop-color:#666666;stop-opacity:1" />
<stop  offset="0.254902" style="stop-color:#8C8C8C;stop-opacity:1" />
<stop  offset="1" style="stop-color:#4C4C4C;stop-opacity:1" />
</linearGradient>
<path style="fill:url(#LinearGradID_211) " d="M62.65 56.5L61.8 56.5L61.75 56.45L60.35 54.55Q57.35 49.9 56.65 46.3Q56.35 44.5 56.6 42.95L57.25 40.8L62.15 40.8Q59.2 46.55 66.65 56.5L66.1 56.5L65.15 56.5L62.65 56.5" />
<linearGradient
id="LinearGradID_212" gradientUnits="userSpaceOnUse" gradientTransform="matrix(0, 0.009552, -0.00619507, 0, 67.7, 48.7)" spreadMethod ="pad" x1="-819.2" y1="0" x2="819.2" y2="0" >
<stop  offset="0" style="stop-color:#666666;stop-opacity:1" />
<stop  offset="0.254902" style="stop-color:#8C8C8C;stop-opacity:1" />
<stop  offset="1" style="stop-color:#4C4C4C;stop-opacity:1" />
</linearGradient>
<path style="fill:url(#LinearGradID_212) " d="M67.85 56.5Q60.5 46.55 63.35 40.8L68.2 40.8Q65.3 46.55 72.7 56.5L71.4 56.5L67.85 56.5" />
<linearGradient
id="LinearGradID_213" gradientUnits="userSpaceOnUse" gradientTransform="matrix(0, 0.009552, -0.00619507, 0, 79.75, 48.7)" spreadMethod ="pad" x1="-819.2" y1="0" x2="819.2" y2="0" >
<stop  offset="0" style="stop-color:#666666;stop-opacity:1" />
<stop  offset="0.254902" style="stop-color:#8C8C8C;stop-opacity:1" />
<stop  offset="1" style="stop-color:#4C4C4C;stop-opacity:1" />
</linearGradient>
<path style="fill:url(#LinearGradID_213) " d="M75.45 40.8L80.35 40.8Q77.5 46.55 84.85 56.5L80 56.5Q72.6 46.55 75.45 40.8" />
<linearGradient
id="LinearGradID_214" gradientUnits="userSpaceOnUse" gradientTransform="matrix(0, 0.009552, -0.00619507, 0, 73.7, 48.7)" spreadMethod ="pad" x1="-819.2" y1="0" x2="819.2" y2="0" >
<stop  offset="0" style="stop-color:#666666;stop-opacity:1" />
<stop  offset="0.254902" style="stop-color:#8C8C8C;stop-opacity:1" />
<stop  offset="1" style="stop-color:#4C4C4C;stop-opacity:1" />
</linearGradient>
<path style="fill:url(#LinearGradID_214) " d="M69.45 40.8L74.3 40.8Q71.4 46.55 78.75 56.5L73.9 56.5Q66.6 46.55 69.45 40.8" />
<radialGradient
id="RadialGradID_215" gradientUnits="userSpaceOnUse" gradientTransform="matrix(0.0268097, 0, 0, 0.0268097, 7.75, 48.05)" spreadMethod ="pad" cx="0" cy="0" r="819.2" fx="819" fy="0" >
<stop  offset="0"  style="stop-color:#999999;stop-opacity:1" />
<stop  offset="1"  style="stop-color:#333333;stop-opacity:1" />
</radialGradient>
<path style="fill:url(#RadialGradID_215) " d="M21.25 56.9Q21.25 59.05 21.75 60.9Q21.05 63.4 19.55 65.45L18.1 67Q16.05 68.85 13.45 68.9L13.3 68.9L13.2 68.9Q9.5 68.9 6.85 65.45Q4.25 61.85 4.25 56.9L4.3 55.25Q4.6 52.8 5.5 50.7Q6.1 49.5 6.85 48.4Q9.5 44.9 13.15 44.9L13.45 44.9Q15.65 44.95 17.5 46.3Q18.65 47.1 19.55 48.4Q21.05 50.45 21.75 52.9Q21.25 54.8 21.25 56.9M14.55 64.85L16.15 63.4L16.4 63.1L17.15 61.95L17.7 60.55L18.1 58.9L18.3 56.9L18.1 54.95L17.75 53.35L17.5 52.6L17.15 51.9L16.4 50.7L16.15 50.5L14.65 49Q13.95 48.6 13.2 48.35L11.75 48.2Q9.1 48.2 7.15 50.7Q5.25 53.3 5.25 56.9Q5.25 60.55 7.15 63.1Q9.1 65.65 11.75 65.65L13.2 65.45L14.55 64.85" />
<linearGradient
id="LinearGradID_216" gradientUnits="userSpaceOnUse" gradientTransform="matrix(0, -0.0106506, 0.00787354, 0, 11.65, 56.9)" spreadMethod ="pad" x1="-819.2" y1="0" x2="819.2" y2="0" >
<stop  offset="0" style="stop-color:#666666;stop-opacity:1" />
<stop  offset="0.258824" style="stop-color:#999999;stop-opacity:1" />
<stop  offset="1" style="stop-color:#333333;stop-opacity:1" />
</linearGradient>
<path style="fill:url(#LinearGradID_216) " d="M11.85 49Q10.85 49.6 10 50.7Q9.65 51.15 9.45 51.7L8.95 52.6L8.35 54.9L8.15 56.65L8.15 57.15L8.35 58.95Q8.45 59.7 8.7 60.3L8.7 60.35L8.75 60.55L9.25 61.8L9.45 62.1L10 63.1Q10.9 64.25 11.9 64.85L13.2 65.45L11.75 65.65Q9.1 65.65 7.15 63.1Q5.25 60.55 5.25 56.9Q5.25 53.3 7.15 50.7Q9.1 48.2 11.75 48.2L13.2 48.35Q12.55 48.6 11.85 49" />
<radialGradient
id="RadialGradID_217" gradientUnits="userSpaceOnUse" gradientTransform="matrix(0.0265503, 0, 0, 0.0265503, 24.25, 48.8)" spreadMethod ="pad" cx="0" cy="0" r="819.2" fx="0" fy="0" >
<stop  offset="0"  style="stop-color:#999999;stop-opacity:1" />
<stop  offset="1"  style="stop-color:#333333;stop-opacity:1" />
</radialGradient>
<path style="fill:url(#RadialGradID_217) " d="M36.5 65.45L35.15 67Q33.45 68.4 31.5 68.85L31.15 68.9L30.2 68.9L28.35 68.7Q26.75 68.25 25.3 67L24.15 65.8L23.85 65.45Q22.35 63.4 21.75 60.9Q21.25 59.05 21.25 56.9Q21.25 54.8 21.75 52.9Q22.35 50.45 23.85 48.4L24.15 48.05Q26.75 44.9 30.2 44.9L30.45 44.9Q34.05 45 36.5 48.4Q38.05 50.45 38.7 52.9Q38.25 54.8 38.25 56.9Q38.25 59.05 38.7 60.9Q38.05 63.4 36.5 65.45M33.2 63.4L33.35 63.1L34.15 61.95L34.8 60.55L35.15 58.9L35.3 56.9L35.15 54.95L34.8 53.35L34.15 51.9L33.2 50.5L31.6 49Q30.95 48.6 30.2 48.35L28.75 48.2Q26.1 48.2 24.1 50.7Q22.25 53.3 22.25 56.9Q22.25 60.55 24.1 63.1Q26.1 65.65 28.75 65.65L30.2 65.45L31.55 64.85L33.2 63.4" />
<linearGradient
id="LinearGradID_218" gradientUnits="userSpaceOnUse" gradientTransform="matrix(0, -0.0106506, 0.00486755, 0, 26.2, 56.9)" spreadMethod ="pad" x1="-819.2" y1="0" x2="819.2" y2="0" >
<stop  offset="0" style="stop-color:#666666;stop-opacity:1" />
<stop  offset="0.258824" style="stop-color:#999999;stop-opacity:1" />
<stop  offset="1" style="stop-color:#333333;stop-opacity:1" />
</linearGradient>
<path style="fill:url(#LinearGradID_218) " d="M28.75 65.65Q26.1 65.65 24.1 63.1Q22.25 60.55 22.25 56.9Q22.25 53.3 24.1 50.7Q26.1 48.2 28.75 48.2L30.2 48.35Q29.45 48.6 28.85 49Q27.85 49.6 27 50.7L26.4 51.7L25.7 53.3L25.3 54.9Q25.15 55.9 25.15 56.9L25.3 58.95Q25.4 59.7 25.65 60.3L25.7 60.55L26.2 61.8L27 63.1Q27.9 64.25 28.9 64.85L30.2 65.45L28.75 65.65" />
<linearGradient
id="LinearGradID_219" gradientUnits="userSpaceOnUse" gradientTransform="matrix(0.00917053, 0, 0, 0.003479, 20.8, 68.6)" spreadMethod ="pad" x1="-819.2" y1="0" x2="819.2" y2="0" >
<stop  offset="0" style="stop-color:#666666;stop-opacity:1" />
<stop  offset="0.258824" style="stop-color:#999999;stop-opacity:1" />
<stop  offset="1" style="stop-color:#333333;stop-opacity:1" />
</linearGradient>
<path style="fill:url(#LinearGradID_219) " d="M13.45 68.9L18.35 68.9Q20.95 68.85 22.95 67L24.15 65.8L25.3 67Q26.75 68.25 28.35 68.7L28.35 71.45L13.3 71.45L13.3 68.9L13.45 68.9M25.3 67L22.95 67L25.3 67" />
<linearGradient
id="LinearGradID_220" gradientUnits="userSpaceOnUse" gradientTransform="matrix(0.00917053, 0, 0, 0.0015564, 20.8, 72.75)" spreadMethod ="pad" x1="-819.2" y1="0" x2="819.2" y2="0" >
<stop  offset="0" style="stop-color:#666666;stop-opacity:1" />
<stop  offset="0.258824" style="stop-color:#999999;stop-opacity:1" />
<stop  offset="1" style="stop-color:#333333;stop-opacity:1" />
</linearGradient>
<path style="fill:url(#LinearGradID_220) " d="M28.35 71.45L26.45 74L15.5 74L13.3 71.45L28.35 71.45" />
<linearGradient
id="LinearGradID_221" gradientUnits="userSpaceOnUse" gradientTransform="matrix(0.00917053, 0, 0, 0.003479, 39.05, 68.6)" spreadMethod ="pad" x1="-819.2" y1="0" x2="819.2" y2="0" >
<stop  offset="0" style="stop-color:#666666;stop-opacity:1" />
<stop  offset="0.258824" style="stop-color:#999999;stop-opacity:1" />
<stop  offset="1" style="stop-color:#333333;stop-opacity:1" />
</linearGradient>
<path style="fill:url(#LinearGradID_221) " d="M46.55 71.45L31.5 71.45L31.5 68.9L35.3 68.9Q37.9 68.85 39.95 67L42.3 67L39.95 67L41.15 65.8L42.3 67Q43.05 67.7 43.95 68.15Q45.15 68.75 46.55 68.9L46.55 71.45" />
<linearGradient
id="LinearGradID_222" gradientUnits="userSpaceOnUse" gradientTransform="matrix(0.00917053, 0, 0, 0.0015564, 39.05, 72.75)" spreadMethod ="pad" x1="-819.2" y1="0" x2="819.2" y2="0" >
<stop  offset="0" style="stop-color:#666666;stop-opacity:1" />
<stop  offset="0.258824" style="stop-color:#999999;stop-opacity:1" />
<stop  offset="1" style="stop-color:#333333;stop-opacity:1" />
</linearGradient>
<path style="fill:url(#LinearGradID_222) " d="M45.5 72.95L44.6 74L33.75 74L31.5 71.45L46.55 71.45L45.5 72.95" />
<path style="fill:#00CCFF;fill-opacity:1" d="M75.6 7.75L64.3 7.75L65.5 4.85L74.6 4.85L75.6 7.75" />
<path style="fill:#33CCFF;fill-opacity:1" d="M52.1 55.4L52.2 57.2L52.1 59.05L51.5 58.55Q51.05 58 51.05 57.2Q51.05 56.4 51.5 55.8Q51.75 55.5 52.1 55.4M18.1 54.95L18.3 56.9L18.1 58.9Q17.55 58.9 17 58.3Q16.6 57.75 16.6 57Q16.6 56.1 17 55.55Q17.55 54.95 18.1 54.95M35.15 54.95L35.3 56.9L35.15 58.9L35.05 58.9Q34.5 58.9 34.05 58.3Q33.65 57.75 33.65 57Q33.65 56.1 34.05 55.55Q34.5 54.95 35.05 54.95L35.15 54.95M32.2 55.55Q32.7 56.1 32.7 57Q32.7 57.75 32.2 58.3Q31.8 58.9 31.15 58.9Q30.6 58.9 30.15 58.3Q29.75 57.75 29.75 57Q29.75 56.1 30.15 55.55Q30.6 54.95 31.15 54.95Q31.8 54.95 32.2 55.55M26.8 55.1Q27 54.95 27.3 54.95Q27.9 54.95 28.35 55.55Q28.8 56.1 28.8 57Q28.8 57.75 28.35 58.3Q27.9 58.9 27.3 58.9L26.8 58.75L26.3 58.3Q25.8 57.75 25.8 57Q25.8 56.1 26.3 55.55L26.8 55.1M11.4 55.55Q11.8 56.1 11.8 57Q11.8 57.75 11.4 58.3Q10.9 58.9 10.3 58.9L9.85 58.75L9.3 58.3Q8.85 57.75 8.85 57Q8.85 56.1 9.3 55.55Q9.55 55.25 9.85 55.1Q10 54.95 10.3 54.95Q10.9 54.95 11.4 55.55M14.2 54.95Q14.85 54.95 15.25 55.55Q15.7 56.1 15.7 57Q15.7 57.75 15.25 58.3Q14.85 58.9 14.2 58.9Q13.65 58.9 13.2 58.3Q12.7 57.75 12.7 57Q12.7 56.1 13.2 55.55Q13.65 54.95 14.2 54.95M48.8 55.25Q49.4 55.3 49.8 55.8Q50.3 56.4 50.3 57.2Q50.3 58 49.8 58.55Q49.4 59.1 48.8 59.15L48.7 59.15Q48.1 59.15 47.6 58.55Q47.15 58 47.15 57.2Q47.15 56.4 47.6 55.8Q48.1 55.25 48.7 55.25L48.8 55.25M43.45 58.55Q43 58 43 57.2Q43 56.4 43.45 55.8Q43.95 55.25 44.55 55.25Q45.2 55.25 45.65 55.8Q46.15 56.4 46.15 57.2Q46.15 58 45.65 58.55Q45.2 59.15 44.55 59.15Q43.95 59.15 43.45 58.55" />
<linearGradient
id="LinearGradID_223" gradientUnits="userSpaceOnUse" gradientTransform="matrix(0, 0.009552, -0.00398254, 0, 88.9, 48.7)" spreadMethod ="pad" x1="-819.2" y1="0" x2="819.2" y2="0" >
<stop  offset="0" style="stop-color:#00CCFF;stop-opacity:1" />
<stop  offset="0.627451" style="stop-color:#0066FF;stop-opacity:1" />
<stop  offset="1" style="stop-color:#003854;stop-opacity:1" />
</linearGradient>
<path style="fill:url(#LinearGradID_223) " d="M92.15 56.5L92.1 56.5L90.9 56.5Q83.5 46.55 86.4 40.8L87.65 40.8Q84.75 46.55 92.15 56.5" />
<linearGradient
id="LinearGradID_224" gradientUnits="userSpaceOnUse" gradientTransform="matrix(0, 0.009552, -0.00340271, 0, 94.45, 48.7)" spreadMethod ="pad" x1="-819.2" y1="0" x2="819.2" y2="0" >
<stop  offset="0" style="stop-color:#00CCFF;stop-opacity:1" />
<stop  offset="0.627451" style="stop-color:#0066FF;stop-opacity:1" />
<stop  offset="1" style="stop-color:#003854;stop-opacity:1" />
</linearGradient>
<path style="fill:url(#LinearGradID_224) " d="M94.8 51.1L97.25 55.2L97.25 56.5L97 56.5L94.8 53.3Q90.05 45.65 92.45 40.8L93.7 40.8Q91.6 44.9 94.8 51.1" />
<linearGradient
id="LinearGradID_225" gradientUnits="userSpaceOnUse" gradientTransform="matrix(0, 0.009552, -0.00398254, 0, 82.8, 48.7)" spreadMethod ="pad" x1="-819.2" y1="0" x2="819.2" y2="0" >
<stop  offset="0" style="stop-color:#00CCFF;stop-opacity:1" />
<stop  offset="0.627451" style="stop-color:#0066FF;stop-opacity:1" />
<stop  offset="1" style="stop-color:#003854;stop-opacity:1" />
</linearGradient>
<path style="fill:url(#LinearGradID_225) " d="M80.35 40.8L81.55 40.8Q78.65 46.55 86.1 56.5L84.85 56.5Q77.5 46.55 80.35 40.8" />
<linearGradient
id="LinearGradID_226" gradientUnits="userSpaceOnUse" gradientTransform="matrix(0, 0.009552, -0.00398254, 0, 64.55, 48.7)" spreadMethod ="pad" x1="-819.2" y1="0" x2="819.2" y2="0" >
<stop  offset="0" style="stop-color:#00CCFF;stop-opacity:1" />
<stop  offset="0.627451" style="stop-color:#0066FF;stop-opacity:1" />
<stop  offset="1" style="stop-color:#003854;stop-opacity:1" />
</linearGradient>
<path style="fill:url(#LinearGradID_226) " d="M67.85 56.5L66.65 56.5Q59.2 46.55 62.15 40.8L63.35 40.8Q60.5 46.55 67.85 56.5" />
<linearGradient
id="LinearGradID_227" gradientUnits="userSpaceOnUse" gradientTransform="matrix(0, 0.009552, -0.00398254, 0, 76.75, 48.7)" spreadMethod ="pad" x1="-819.2" y1="0" x2="819.2" y2="0" >
<stop  offset="0" style="stop-color:#00CCFF;stop-opacity:1" />
<stop  offset="0.627451" style="stop-color:#0066FF;stop-opacity:1" />
<stop  offset="1" style="stop-color:#003854;stop-opacity:1" />
</linearGradient>
<path style="fill:url(#LinearGradID_227) " d="M74.3 40.8L75.45 40.8Q72.6 46.55 80 56.5L78.75 56.5Q71.4 46.55 74.3 40.8" />
<linearGradient
id="LinearGradID_228" gradientUnits="userSpaceOnUse" gradientTransform="matrix(0, 0.009552, -0.00398254, 0, 70.65, 48.7)" spreadMethod ="pad" x1="-819.2" y1="0" x2="819.2" y2="0" >
<stop  offset="0" style="stop-color:#00CCFF;stop-opacity:1" />
<stop  offset="0.627451" style="stop-color:#0066FF;stop-opacity:1" />
<stop  offset="1" style="stop-color:#003854;stop-opacity:1" />
</linearGradient>
<path style="fill:url(#LinearGradID_228) " d="M68.2 40.8L69.45 40.8Q66.6 46.55 73.9 56.5L72.7 56.5Q65.3 46.55 68.2 40.8" />
<linearGradient
id="LinearGradID_229" gradientUnits="userSpaceOnUse" gradientTransform="matrix(-0.000732422, -0.011261, 0.0108032, -0.000717163, 79.65, 22.3)" spreadMethod ="pad" x1="-819.2" y1="0" x2="819.2" y2="0" >
<stop  offset="0" style="stop-color:#00CCFF;stop-opacity:1" />
<stop  offset="0.627451" style="stop-color:#0066FF;stop-opacity:1" />
<stop  offset="1" style="stop-color:#003854;stop-opacity:1" />
</linearGradient>
<path style="fill:url(#LinearGradID_229) " d="M81.3 17.75Q77 23.15 76.25 30.45L76.15 31.8L71.35 31.8L71.6 30.45Q72.5 23.9 76.45 18.95Q81.25 13 87.85 12.55Q84.25 14.1 81.3 17.75" />
<linearGradient
id="LinearGradID_230" gradientUnits="userSpaceOnUse" gradientTransform="matrix(-0.000732422, -0.011261, 0.010788, -0.000717163, 68.7, 22.3)" spreadMethod ="pad" x1="-819.2" y1="0" x2="819.2" y2="0" >
<stop  offset="0" style="stop-color:#00CCFF;stop-opacity:1" />
<stop  offset="0.627451" style="stop-color:#0066FF;stop-opacity:1" />
<stop  offset="1" style="stop-color:#003854;stop-opacity:1" />
</linearGradient>
<path style="fill:url(#LinearGradID_230) " d="M76.95 12.55Q73.3 14.1 70.4 17.75Q66.1 23.15 65.3 30.45L65.2 31.8L60.45 31.8L60.65 30.45Q61.6 23.9 65.55 18.95Q70.3 13 76.95 12.55" />
<radialGradient
id="RadialGradID_231" gradientUnits="userSpaceOnUse" gradientTransform="matrix(0.0170746, 0, 0, 0.0170746, 70.6, 6.25)" spreadMethod ="pad" cx="0" cy="0" r="819.2" fx="0" fy="0" >
<stop  offset="0"  style="stop-color:#00C2FF;stop-opacity:1" />
<stop  offset="0.290196"  style="stop-color:#005DE6;stop-opacity:1" />
<stop  offset="1"  style="stop-color:#002A58;stop-opacity:1" />
</radialGradient>
<path style="fill:url(#RadialGradID_231) " d="M84.3 9.3L61.05 9.3L63.5 3.35L82.1 3.35L84.3 9.3M74.6 4.85L65.5 4.85L64.3 7.75L75.6 7.75L74.6 4.85" />
<radialGradient
id="RadialGradID_232" gradientUnits="userSpaceOnUse" gradientTransform="matrix(0.00927734, 0, 0, 0.00927734, 163.8, 32.25)" spreadMethod ="pad" cx="0" cy="0" r="819.2" fx="0" fy="0" >
<stop  offset="0.294118"  style="stop-color:#0099FF;stop-opacity:1" />
<stop  offset="1"  style="stop-color:#003366;stop-opacity:1" />
</radialGradient>
<path style="fill:url(#RadialGradID_232) " d="M166 36.5Q164.95 36.1 164.1 35.2Q162.6 33.45 162.6 31Q162.6 28.5 164.1 26.8Q164.95 25.85 166 25.45Q167 25.85 167.8 26.8Q169.35 28.5 169.35 31Q169.35 33.45 167.8 35.2L166 36.5" />
<radialGradient
id="RadialGradID_233" gradientUnits="userSpaceOnUse" gradientTransform="matrix(0.00787354, 0, 0, 0.00787354, 164.3, 48.25)" spreadMethod ="pad" cx="0" cy="0" r="819.2" fx="0" fy="0" >
<stop  offset="0.294118"  style="stop-color:#0099FF;stop-opacity:1" />
<stop  offset="1"  style="stop-color:#003366;stop-opacity:1" />
</radialGradient>
<path style="fill:url(#RadialGradID_233) " d="M166 53.55Q164.95 53.15 164.1 52.15Q162.6 50.45 162.6 47.95Q162.6 45.55 164.1 43.8Q164.95 42.9 166 42.45Q167 42.9 167.8 43.8Q169.35 45.55 169.35 47.95Q169.35 50.45 167.8 52.15Q167 53.15 166 53.55" />
<radialGradient
id="RadialGradID_234" gradientUnits="userSpaceOnUse" gradientTransform="matrix(0.00836182, 0, 0, 0.00836182, 138.55, 31.5)" spreadMethod ="pad" cx="0" cy="0" r="819.2" fx="0" fy="0" >
<stop  offset="0.294118"  style="stop-color:#0099FF;stop-opacity:1" />
<stop  offset="1"  style="stop-color:#003366;stop-opacity:1" />
</radialGradient>
<path style="fill:url(#RadialGradID_234) " d="M142.3 26.8Q143.85 28.5 143.85 31Q143.85 33.45 142.3 35.2L140.45 36.5L138.65 35.2Q137.15 33.45 137.15 31Q137.15 28.5 138.65 26.8Q139.5 25.85 140.45 25.45Q141.5 25.85 142.3 26.8" />
<radialGradient
id="RadialGradID_235" gradientUnits="userSpaceOnUse" gradientTransform="matrix(0.0078125, 0, 0, 0.0078125, 139.05, 48.25)" spreadMethod ="pad" cx="0" cy="0" r="819.2" fx="0" fy="0" >
<stop  offset="0.294118"  style="stop-color:#0099FF;stop-opacity:1" />
<stop  offset="1"  style="stop-color:#003366;stop-opacity:1" />
</radialGradient>
<path style="fill:url(#RadialGradID_235) " d="M142.3 43.8Q143.85 45.55 143.85 47.95Q143.85 50.45 142.3 52.15L140.45 53.55Q139.5 53.15 138.65 52.15Q137.15 50.45 137.15 47.95Q137.15 45.55 138.65 43.8Q139.5 42.9 140.45 42.45L142.3 43.8" />
<radialGradient
id="RadialGradID_236" gradientUnits="userSpaceOnUse" gradientTransform="matrix(0.00836182, 0, 0, 0.00836182, 151.3, 31.5)" spreadMethod ="pad" cx="0" cy="0" r="819.2" fx="0" fy="0" >
<stop  offset="0.294118"  style="stop-color:#0099FF;stop-opacity:1" />
<stop  offset="1"  style="stop-color:#003366;stop-opacity:1" />
</radialGradient>
<path style="fill:url(#RadialGradID_236) " d="M151.5 35.2Q149.95 33.45 149.95 31Q149.95 28.5 151.5 26.8Q152.3 25.85 153.35 25.45Q154.35 25.85 155.2 26.8Q156.7 28.5 156.7 31Q156.7 33.45 155.2 35.2Q154.35 36.1 153.35 36.5Q152.3 36.1 151.5 35.2" />
<radialGradient
id="RadialGradID_237" gradientUnits="userSpaceOnUse" gradientTransform="matrix(0.00805664, 0, 0, 0.00805664, 152.05, 48.5)" spreadMethod ="pad" cx="0" cy="0" r="819.2" fx="0" fy="0" >
<stop  offset="0.294118"  style="stop-color:#0099FF;stop-opacity:1" />
<stop  offset="1"  style="stop-color:#003366;stop-opacity:1" />
</radialGradient>
<path style="fill:url(#RadialGradID_237) " d="M155.2 43.8Q156.7 45.55 156.7 47.95Q156.7 50.45 155.2 52.15Q154.35 53.15 153.35 53.55Q152.3 53.15 151.5 52.15Q149.95 50.45 149.95 47.95Q149.95 45.55 151.5 43.8Q152.3 42.9 153.35 42.45L155.2 43.8" />
<linearGradient
id="LinearGradID_238" gradientUnits="userSpaceOnUse" gradientTransform="matrix(0, -0.0109863, 0.0109253, 0, 43.25, 57.2)" spreadMethod ="pad" x1="-819.2" y1="0" x2="819.2" y2="0" >
<stop  offset="0" style="stop-color:#666666;stop-opacity:1" />
<stop  offset="0.258824" style="stop-color:#999999;stop-opacity:1" />
<stop  offset="1" style="stop-color:#333333;stop-opacity:1" />
</linearGradient>
<path style="fill:url(#LinearGradID_238) " d="M44.1 50.85Q42.25 53.5 42.25 57.2Q42.25 60.9 44.1 63.5Q45.45 65.4 47.25 65.95L45.75 66.15Q43 66.15 41.1 63.5Q39.25 60.9 39.25 57.2Q39.25 53.5 41.1 50.85Q43 48.25 45.75 48.25L47.25 48.5Q45.45 49 44.1 50.85" />
<radialGradient
id="RadialGradID_239" gradientUnits="userSpaceOnUse" gradientTransform="matrix(0.0263062, 0, 0, 0.0263062, 41.15, 49.05)" spreadMethod ="pad" cx="0" cy="0" r="819.2" fx="0" fy="0" >
<stop  offset="0"  style="stop-color:#999999;stop-opacity:1" />
<stop  offset="1"  style="stop-color:#333333;stop-opacity:1" />
</radialGradient>
<path style="fill:url(#RadialGradID_239) " d="M47.2 44.9L47.85 44.9Q50.9 45.2 53.2 47.9L54.1 49.3Q56.2 52.55 56.2 56.9Q56.2 60.7 54.6 63.65L53.55 65.45L52.95 66.2Q51.7 67.55 50.25 68.25Q49.1 68.85 47.85 68.9L46.55 68.9Q45.15 68.75 43.95 68.15Q43.05 67.7 42.3 67L41.15 65.8L40.8 65.45Q39.35 63.4 38.7 60.9Q38.25 59.05 38.25 56.9Q38.25 54.8 38.7 52.9Q39.35 50.45 40.8 48.4L41.15 48.05Q43.7 44.9 47.2 44.9M50.3 63.5Q51.7 61.55 52.1 59.05L52.2 57.2L52.1 55.4Q51.7 52.8 50.3 50.85Q49 49 47.25 48.5L45.75 48.25Q43 48.25 41.1 50.85Q39.25 53.5 39.25 57.2Q39.25 60.9 41.1 63.5Q43 66.15 45.75 66.15L47.25 65.95Q49 65.4 50.3 63.5" />
<path style="fill:#484848;fill-opacity:1" d="M84.6 70.55L79.3 70.55L69.35 67.15L75.65 67.15L94.45 66.25L103.5 69.55L84.6 70.55" />
<path fill="none" stroke-width="0.7" stroke="#000000" stroke-opacity="0.4" d="M128.05 10.9L163.15 10.9L170.85 18L175.65 24.55L175.65 53.9L170.85 60.45L163.15 67.5L132.7 67.5L128.55 69.45L127.6 72.45L114.15 73.9L92.35 73.9L90.8 75.85L88.55 78.25L86.4 80.25L83.5 82.35L83.05 82.5Q81.25 83.55 79.1 84.4L78.95 84.45L78.9 84.45L74.9 85.65L70.7 86.35Q68.5 86.55 66.35 86.3Q63.55 86 60.8 85L58.4 85.65L57.4 85.9L57 85.95L56.35 86.1L54.2 86.35Q52.05 86.55 49.85 86.3Q47.1 86 44.25 85.05L43.45 84.7L40.25 85.65L36 86.35L31.6 86.3Q28.85 86 26.1 85.05Q24.2 84.35 22.35 83.35L21.85 83.1Q19.8 81.9 18.4 80.25Q16.95 78.65 16.15 76.55L15.5 74L13.3 71.45L13.3 68.9L13.2 68.9Q9.5 68.9 6.85 65.45Q4.25 61.85 4.25 56.9L4.3 55.25L0.25 51.05L0.25 43.55L0.25 41.65L1.95 39.85L2.6 39.85L2.6 38L1.2 36.65L1.2 35.4L1.2 32.25L0 31.05L0 24.25L6.75 18.65L8.05 14.95L12.7 13.95L13.65 12L15.25 11.6L18.25 3.1L20.3 1.15L27.2 1.15L27.65 0L60.1 0L83.5 0L87.8 11.2L93.6 11.2L98.3 11.2L99.9 11.2Q102.65 11.35 104.5 12.4L105.95 10.9L112.55 10.9L114.4 10.9L120.25 10.9L122.25 10.9L128.05 10.9L137.9 18L170.85 18M166 25.45L167.8 25.15Q169.95 25.15 171.45 26.8Q172.95 28.5 172.95 31Q172.95 33.45 171.45 35.2Q169.95 36.9 167.8 36.9Q166.8 36.9 166 36.5Q164.95 36.1 164.1 35.2Q162.6 33.45 162.6 31Q162.6 28.5 164.1 26.8Q164.95 25.85 166 25.45Q167 25.85 167.8 26.8Q169.35 28.5 169.35 31Q169.35 33.45 167.8 35.2L166 36.5M166 42.45Q166.8 42.1 167.8 42.1Q169.95 42.1 171.45 43.8Q172.95 45.55 172.95 47.95Q172.95 50.45 171.45 52.15Q169.95 53.9 167.8 53.9L166 53.55Q164.95 53.15 164.1 52.15Q162.6 50.45 162.6 47.95Q162.6 45.55 164.1 43.8Q164.95 42.9 166 42.45Q167 42.9 167.8 43.8Q169.35 45.55 169.35 47.95Q169.35 50.45 167.8 52.15Q167 53.15 166 53.55M131.35 24.55L137.9 18M140.45 36.5L138.65 35.2Q137.15 33.45 137.15 31Q137.15 28.5 138.65 26.8Q139.5 25.85 140.45 25.45L142.3 25.15Q144.5 25.15 146 26.8Q147.5 28.5 147.5 31Q147.5 33.45 146 35.2Q144.5 36.9 142.3 36.9L140.45 36.5L142.3 35.2Q143.85 33.45 143.85 31Q143.85 28.5 142.3 26.8Q141.5 25.85 140.45 25.45M127.8 31.8L125.4 34.15L125.4 44.45L127.75 46.75L127.8 31.8L119.3 29.4L116.65 31.95L125.4 34.15M140.45 53.55Q139.5 53.15 138.65 52.15Q137.15 50.45 137.15 47.95Q137.15 45.55 138.65 43.8Q139.5 42.9 140.45 42.45L142.3 42.1Q144.5 42.1 146 43.8Q147.5 45.55 147.5 47.95Q147.5 50.45 146 52.15Q144.5 53.9 142.3 53.9L140.45 53.55L142.3 52.15Q143.85 50.45 143.85 47.95Q143.85 45.55 142.3 43.8L140.45 42.45M153.35 25.45Q154.35 25.85 155.2 26.8Q156.7 28.5 156.7 31Q156.7 33.45 155.2 35.2Q154.35 36.1 153.35 36.5Q154.2 36.9 155.2 36.9Q157.3 36.9 158.8 35.2Q160.3 33.45 160.3 31Q160.3 28.5 158.8 26.8Q157.3 25.15 155.2 25.15L153.35 25.45Q152.3 25.85 151.5 26.8Q149.95 28.5 149.95 31Q149.95 33.45 151.5 35.2Q152.3 36.1 153.35 36.5M153.35 53.55Q152.3 53.15 151.5 52.15Q149.95 50.45 149.95 47.95Q149.95 45.55 151.5 43.8Q152.3 42.9 153.35 42.45L155.2 42.1Q157.3 42.1 158.8 43.8Q160.3 45.55 160.3 47.95Q160.3 50.45 158.8 52.15Q157.3 53.9 155.2 53.9L153.35 53.55Q154.35 53.15 155.2 52.15Q156.7 50.45 156.7 47.95Q156.7 45.55 155.2 43.8L153.35 42.45M102.3 14.6L104.5 12.4M113.5 19.65L119.3 19.65L128.05 10.9M105.75 19.65L114.4 10.9M105.75 19.65L111.6 19.65L120.25 10.9M103.8 19.65L112.55 10.9M98.3 11.2L97.25 11.35Q90.85 11.95 86.2 17.75Q80.9 24.3 80.9 33.6Q80.9 35.65 81.25 37.55L84.95 39.55L84.85 37.9L84.6 33.1L84.6 32.9Q84.6 28.35 86.2 24.5Q87.15 22 88.9 19.9Q90 18.5 91.2 17.55Q94.25 15 98 14.65L102.3 14.6L99.35 17.55L97.25 19.65L103.8 19.65L103.8 29.4L105.75 29.4L105.75 19.65M84.3 9.3L61.05 9.3L63.5 3.35L82.1 3.35L84.3 9.3zM86.2 11.2L87.8 11.2M82.55 11.2L86.2 11.2Q79.05 11.45 74 17.75Q69.75 23.15 68.95 30.45L68.9 31.8L71.35 31.8L71.6 30.45Q72.5 23.9 76.45 18.95Q81.25 13 87.85 12.55Q90.5 11.35 93.6 11.2M86.2 24.5L87.55 24.5L92.4 24.5L97.25 24.5L97.25 19.65M71.35 31.8L76.15 31.8L76.25 30.45Q77 23.15 81.3 17.75Q84.25 14.1 87.85 12.55M91.2 17.55L99.35 17.55M92.4 33.1L97.25 33.1L97.25 24.5M98.5 31.95L101.15 29.4L103.8 29.4M84.6 33.1L87.55 33.1Q86.7 32.05 86.25 31M89.1 35.55Q88.65 34.35 89.05 33.1L87.55 33.1M84.85 37.9L91.1 37.9Q89.8 36.85 89.3 35.8M86.4 40.8L87.65 40.8L92.45 40.8L93.7 40.8L97.25 40.8L97.25 37.9L91.1 37.9M81.55 40.8L86.4 40.8Q83.5 46.55 90.9 56.5L92.1 56.5L92.15 56.5Q84.75 46.55 87.65 40.8M98.5 46.4L101.15 49.05L103.8 49.05L105.75 49.05L111.6 49.05L113.5 49.05L119.3 49.05L116.65 46.4L98.5 46.4L98.5 31.95L116.65 31.95L116.65 46.4L125.4 44.45M89.05 33.1L92.4 33.1L91.1 31M97.25 37.9L97.25 33.1M113.5 29.4L119.3 29.4L119.3 19.65L131.35 24.55L131.35 53.9L137.9 60.45L170.85 60.45M111.6 29.4L113.5 29.4L113.5 19.65L122.25 10.9M105.75 29.4L111.6 29.4L111.6 19.65M90.95 30.55Q90.1 27.55 92.4 24.5M86.15 30.55Q85.25 27.55 87.55 24.5M113.5 58.75L119.3 58.75L119.3 49.05L127.75 46.75M103.5 69.55L105.35 72.45L127.6 72.45M107.4 67.5L105.95 67.5L105.15 66.75L97 64L93.9 58.7L95.2 56.5L92.15 56.5M107.4 67.5L108.95 70L126.1 70L126.9 67.5L122.25 67.5L120.25 67.5L114.4 67.5L112.55 67.5L107.4 67.5zM105.75 58.75L111.6 58.75L111.6 49.05M114.4 67.5L105.75 58.75L105.75 49.05M112.55 67.5L103.8 58.75L97.25 58.75L105.15 66.75M120.25 67.5L111.6 58.75M97.25 58.75L97.25 56.5L97 56.5L95.2 56.5M92.45 40.8Q90.05 45.65 94.8 53.3L97 56.5M97.25 56.5L97.25 55.2L94.8 51.1Q91.6 44.9 93.7 40.8M86.1 56.5L90.9 56.5M69.8 59.3L90.45 59.3L90.45 59.35L92.1 56.5M84.85 56.5L86.1 56.5Q78.65 46.55 81.55 40.8L80.35 40.8Q77.5 46.55 84.85 56.5L80 56.5L78.75 56.5L73.9 56.5L72.7 56.5L71.4 56.5L69.8 59.3L75.65 67.15L94.45 66.25L90.45 59.35M79.3 70.55L81 73.9L82.3 73.9L86.35 73.9L84.6 70.55L79.3 70.55L69.35 67.15L64.45 59.3L66.1 56.5L65.15 56.5L63.5 59.3L68.35 67.15L78.3 70.55L80.1 73.9L81 73.9M86.35 73.9L92.35 73.9M86.35 73.9Q87.7 74.85 89.4 75.4L90.8 75.85M82.3 73.9L83.45 75.15L83.5 75.25L84.05 75.75Q86 77.2 88.55 78.25M79.25 73.9L79.75 75.15Q81.05 77.55 83.5 79L84.05 79.3L86.4 80.25M94.45 66.25L103.5 69.55L84.6 70.55M105.35 72.45L86.35 73.9M126.9 67.5L128.05 67.5L119.3 58.75L131.35 53.9M128.05 67.5L132.7 67.5M128.05 67.5L137.9 60.45M97.25 55.2L97.25 40.8M103.8 58.75L103.8 49.05M113.5 58.75L113.5 49.05M122.25 67.5L113.5 58.75M75.6 7.75L64.3 7.75L65.5 4.85L74.6 4.85L75.6 7.75zM60.45 31.8L57.95 31.8L58.05 30.45Q58.8 23.15 63.1 17.75Q68.2 11.45 75.25 11.2L70.8 11.2Q63.5 11.25 58.25 17.75Q53 24.3 53 33.6L53.2 36.65L53.25 36.8L53.25 37.35L53.25 37.45L53.3 37.55L81.25 37.55M76.95 12.55Q73.3 14.1 70.4 17.75Q66.1 23.15 65.3 30.45L65.2 31.8L60.45 31.8L60.65 30.45Q61.6 23.9 65.55 18.95Q70.3 13 76.95 12.55Q79.6 11.35 82.55 11.2L75.25 11.2M53.6 10.85L57.15 2.35L52.3 2.35L50.2 7.35L53.6 10.85L43.85 10.85L42.5 9.45L41.9 10.85L38.05 10.85L36.7 9.45L36.1 10.85L32.2 10.85L30.9 9.45L30.3 10.85L26.4 10.85L24.1 8.5L23.7 9.55L15.25 11.6M55.1 12L60.1 0M40.5 7.35L42.5 9.45M50.2 7.35L40.5 7.35L42.6 2.35L40.7 2.35L38.6 7.35L41.9 10.85M44 22.95L46.85 14.95L35.25 14.95L32.3 22.95L44 22.95L47.4 25.95L47.4 37.35L50.3 37.35L53.25 37.35M40.8 13.4L40.7 13.8L42.85 13.4L54.45 13.4L55.1 12L13.65 12M46.85 14.95L54.45 13.4M52.3 2.35L42.6 2.35M47.4 42.95L50.3 42.95L50.3 39.05M47.4 38.7L47.4 37.35L44.5 37.35L44.5 38.7M50.3 38.7L50.3 37.35M47.4 42.95L47.4 39.05M41.5 42.95L41.5 40.8L33.75 40.8M44.5 42.95L44.5 39.05M41.5 42.95L44.5 42.95L47.4 42.95M44.5 37.35L41.5 37.35L41.5 38.7M41.5 40.8L41.5 39.05M38.7 52.9Q39.35 50.45 40.8 48.4L41.15 48.05Q38.65 45 35.3 44.9L30.45 44.9Q34.05 45 36.5 48.4Q38.05 50.45 38.7 52.9Q38.25 54.8 38.25 56.9Q38.25 59.05 38.7 60.9Q39.35 63.4 40.8 65.45L41.15 65.8L42.3 67Q43.05 67.7 43.95 68.15Q45.15 68.75 46.55 68.9L47.85 68.9Q49.1 68.85 50.25 68.25Q51.7 67.55 52.95 66.2L53.55 65.45L54.6 63.65Q56.2 60.7 56.2 56.9Q56.2 52.55 54.1 49.3L53.2 47.9Q50.9 45.2 47.85 44.9L47.2 44.9Q43.7 44.9 41.15 48.05M47.25 65.95L45.75 66.15Q43 66.15 41.1 63.5Q39.25 60.9 39.25 57.2Q39.25 53.5 41.1 50.85Q43 48.25 45.75 48.25L47.25 48.5Q49 49 50.3 50.85Q51.7 52.8 52.1 55.4L52.2 57.2L52.1 59.05Q51.7 61.55 50.3 63.5Q49 65.4 47.25 65.95Q45.45 65.4 44.1 63.5Q42.25 60.9 42.25 57.2Q42.25 53.5 44.1 50.85Q45.45 49 47.25 48.5M56.1 42.95L56.1 39.1L53.3 37.55M56.1 39.1L57.05 39.55L84.95 39.55M56.1 42.95L56.6 42.95L57.25 40.8L62.15 40.8L63.35 40.8L68.2 40.8L69.45 40.8L74.3 40.8L75.45 40.8L80.35 40.8M53.25 42.95L53.25 39.05M53.25 38.7L53.25 37.45M47.85 44.9L52.65 44.9Q54.85 44.95 56.65 46.3Q56.35 44.5 56.6 42.95M53.25 42.95L56.1 42.95M50.3 42.95L53.25 42.95M34.85 2.35L31 2.35L28.85 7.35L32.7 7.35L34.85 2.35L36.8 2.35L40.7 2.35M38.6 7.35L34.65 7.35L36.7 9.45M36.1 10.85L32.7 7.35M34.65 7.35L36.8 2.35M23 7.35L25.15 2.35L26.75 2.35L27.2 1.15M29.05 2.35L26.75 2.35M24.1 8.5L23 7.35L26.85 7.35L29.05 2.35L31 2.35M30.3 10.85L26.85 7.35M27.3 13.4L27.1 13.8L29.2 13.4L34.1 13.4L33.85 13.8L36 13.4L40.8 13.4L33.3 14.95L30.4 22.95L33.75 25.95L34.25 24.6L32.3 22.95M20.45 13.4L20.25 13.85L22.4 13.4L27.3 13.4L19.7 14.95L16.8 22.95L20.25 25.95L20.7 24.6L18.75 22.95L21.7 14.95L27.1 13.8M27.5 24.6L25.55 22.95L28.4 14.95L33.85 13.8M26.5 14.95L21.7 14.95M23.55 22.95L26.5 14.95L34.1 13.4M30.9 9.45L28.85 7.35M33.3 14.95L28.4 14.95M25.55 22.95L30.4 22.95M5.1 22.95L6.75 18.65M5.1 22.95L10 22.95L12.9 14.95L8.05 14.95M11.95 22.95L14.85 14.95L20.25 13.85M13.85 24.6L11.95 22.95L16.8 22.95M20.45 13.4L15.65 13.4L12.7 13.95M19.7 14.95L14.85 14.95M41.5 37.35L20.55 37.35L17.6 33.45L2.4 33.45L1.2 32.25M2.6 38L3.6 39.1L14.9 39.1L15.45 39.85L17.8 42.95L41.5 42.95M5.5 50.7L4.15 49.4L4.15 43.55L0.25 43.55M5.5 50.7Q6.1 49.5 6.85 48.4Q9.5 44.9 13.15 44.9L13.45 44.9L16.4 44.9L15.3 43.55L4.15 43.55M13.2 65.45L11.75 65.65Q9.1 65.65 7.15 63.1Q5.25 60.55 5.25 56.9Q5.25 53.3 7.15 50.7Q9.1 48.2 11.75 48.2L13.2 48.35Q13.95 48.6 14.65 49L16.15 50.5L16.4 50.7L17.15 51.9L17.5 52.6L17.75 53.35L18.1 54.95L18.3 56.9L18.1 58.9L17.7 60.55L17.15 61.95L16.4 63.1L16.15 63.4L14.55 64.85L13.2 65.45L11.9 64.85Q10.9 64.25 10 63.1L9.45 62.1L9.25 61.8L8.75 60.55L8.7 60.35L8.7 60.3Q8.45 59.7 8.35 58.95L8.15 57.15L8.15 56.65L8.35 54.9L8.95 52.6L9.45 51.7Q9.65 51.15 10 50.7Q10.85 49.6 11.85 49Q12.55 48.6 13.2 48.35M11.85 49L14.65 49M13.45 44.9Q15.65 44.95 17.5 46.3Q18.65 47.1 19.55 48.4Q21.05 50.45 21.75 52.9Q22.35 50.45 23.85 48.4L24.15 48.05Q21.7 45 18.35 44.9L16.4 44.9M1.2 35.4L15.95 35.4L20 40.8L33.45 40.8M2.6 39.85L15.45 39.85M13.4 25.95L8.5 25.95L5.1 22.95M26.95 25.95L22.15 25.95L20.7 24.6M30.2 65.45L28.9 64.85Q27.9 64.25 27 63.1L26.2 61.8L25.7 60.55L25.65 60.3Q25.4 59.7 25.3 58.95L25.15 56.9Q25.15 55.9 25.3 54.9L25.7 53.3L26.4 51.7L27 50.7Q27.85 49.6 28.85 49Q29.45 48.6 30.2 48.35L28.75 48.2Q26.1 48.2 24.1 50.7Q22.25 53.3 22.25 56.9Q22.25 60.55 24.1 63.1Q26.1 65.65 28.75 65.65L30.2 65.45L31.55 64.85L28.9 64.85M24.15 48.05Q26.75 44.9 30.2 44.9L30.45 44.9M30.8 49L31.6 49Q30.95 48.6 30.2 48.35M28.85 49L30.55 49M33.75 25.95L28.9 25.95L27.5 24.6L26.95 25.95L23.55 22.95L18.75 22.95M20.25 25.95L15.35 25.95L13.85 24.6L13.4 25.95L10 22.95M12.9 14.95L20.45 13.4M47.4 25.95L35.7 25.95L34.25 24.6M31.6 49L33.2 50.5L34.15 51.9L34.8 53.35L35.15 54.95L35.3 56.9L35.15 58.9L34.8 60.55L34.15 61.95L33.35 63.1L33.2 63.4L31.55 64.85M32.2 55.55Q32.7 56.1 32.7 57Q32.7 57.75 32.2 58.3Q31.8 58.9 31.15 58.9Q30.6 58.9 30.15 58.3Q29.75 57.75 29.75 57Q29.75 56.1 30.15 55.55Q30.6 54.95 31.15 54.95Q31.8 54.95 32.2 55.55zM35.15 58.9L35.05 58.9Q34.5 58.9 34.05 58.3Q33.65 57.75 33.65 57Q33.65 56.1 34.05 55.55Q34.5 54.95 35.05 54.95L35.15 54.95M30.8 51.9L34.15 51.9M30.8 50.5L33.2 50.5M26.8 55.1Q27 54.95 27.3 54.95Q27.9 54.95 28.35 55.55Q28.8 56.1 28.8 57Q28.8 57.75 28.35 58.3Q27.9 58.9 27.3 58.9L26.8 58.75L26.3 58.3Q25.8 57.75 25.8 57Q25.8 56.1 26.3 55.55L26.8 55.1zM26.8 53.35L30 53.35M21.75 60.9Q21.25 59.05 21.25 56.9Q21.25 54.8 21.75 52.9M24.15 65.8L23.85 65.45Q22.35 63.4 21.75 60.9Q21.05 63.4 19.55 65.45L18.1 67Q16.05 68.85 13.45 68.9L18.35 68.9Q20.95 68.85 22.95 67L24.15 65.8L25.3 67Q26.75 68.25 28.35 68.7L30.2 68.9L31.15 68.9L31.5 68.85Q33.45 68.4 35.15 67L36.5 65.45Q38.05 63.4 38.7 60.9M22.95 67L25.3 67M26.45 74L28.35 71.45L13.3 71.45M28.35 71.45L28.35 68.7M31.5 68.9L35.3 68.9Q37.9 68.85 39.95 67L41.15 65.8M31.5 68.85L31.5 68.9L31.5 71.45L46.55 71.45L46.55 68.9M31.5 71.45L33.75 74L44.6 74L45.5 72.95L46.55 71.45M31.5 68.9L31.15 68.9M30.35 53.35L34.8 53.35M26.8 60.5L34.8 60.55M27.1 61.95L34.15 61.95M27.65 63.4L33.2 63.4M27.6 50.5L30.55 50.5M27 51.9L30.55 51.9M18.1 58.9Q17.55 58.9 17 58.3Q16.6 57.75 16.6 57Q16.6 56.1 17 55.55Q17.55 54.95 18.1 54.95M11.4 55.55Q11.8 56.1 11.8 57Q11.8 57.75 11.4 58.3Q10.9 58.9 10.3 58.9L9.85 58.75L9.3 58.3Q8.85 57.75 8.85 57Q8.85 56.1 9.3 55.55Q9.55 55.25 9.85 55.1Q10 54.95 10.3 54.95Q10.9 54.95 11.4 55.55zM14.2 54.95Q14.85 54.95 15.25 55.55Q15.7 56.1 15.7 57Q15.7 57.75 15.25 58.3Q14.85 58.9 14.2 58.9Q13.65 58.9 13.2 58.3Q12.7 57.75 12.7 57Q12.7 56.1 13.2 55.55Q13.65 54.95 14.2 54.95zM13.35 53.35L17.75 53.35M10.6 50.5L16.15 50.5M4.3 55.25Q4.6 52.8 5.5 50.7M11.9 64.85L14.55 64.85M13.3 68.9L13.45 68.9M10.65 63.4L16.15 63.4M9.85 53.35L13.05 53.35M10 51.9L17.15 51.9M9.85 60.5L17.7 60.55M10.05 61.95L17.15 61.95M42.5 78.65Q40.4 79.7 37.85 80.15L36.65 80.25L38.4 81.95L40.1 83.1L42.5 81.95M34.35 76.55L35.15 78.2Q35.75 79.3 36.65 80.25M26.45 74L27 75.65L27.6 76.55L28.65 77.45L30.35 78.1L32.45 78.3L34.95 78.2L35.15 78.2M38.4 81.95L40.25 85.65M32.45 78.3L31.6 86.3M34.95 78.2L36 86.35M42.5 76.25L40.1 76.55Q37.15 76.8 34.35 76.55Q33.9 75.4 33.75 74M23.75 82.3L21.85 83.1M27.95 83.6L26.1 85.05M27.6 76.55Q26.1 77.9 24.05 78.75M27 75.65L24.05 76.25M28.65 77.45Q27.35 80.25 24.05 82.05M30.35 78.1Q29.85 81.4 28.15 83.45M15.5 74L26.45 74M23.75 76.3L16.15 76.55M23.75 78.95Q21.4 79.9 18.4 80.25M61.05 59.3L63.5 59.3M61.05 59.3L62.65 56.5L61.8 56.5L61.75 56.45L60.1 59.3L64.95 67.15L74.9 70.55L76.65 73.9L77.6 73.9L75.9 70.55L65.9 67.15L61.05 59.3zM62.65 56.5L65.15 56.5M66.65 56.5L67.85 56.5Q60.5 46.55 63.35 40.8M66.1 56.5L66.65 56.5Q59.2 46.55 62.15 40.8M64.45 59.3L69.8 59.3M65.9 67.15L68.35 67.15M61.25 67.35L61.7 65.8L59.8 62.85Q59.45 64.9 57.95 66.45L59 66.95L61.25 67.35L59.85 70.4L58.95 72L59.75 72.7Q60.95 73.35 62.65 73.75L64.7 72.1L66.6 70.15L67.8 68.95L62.5 67.15L61.7 65.8M62.5 67.15L64.95 67.15M59.75 72.7L58.95 74.35Q57.8 76.2 56.25 77.45L57.4 77L57.8 76.75L59.8 75.75Q59.95 75.55 60.25 75.45L62.6 73.75L62.65 73.75L63.3 75.15Q64.55 77.55 67 79L69.9 80.25L70 80.2L72.05 78.25L71.35 77.95L67.8 75.9M64.7 72.1L65.1 72.8Q65.8 74.05 66.85 75.15L67 75.25L67.55 75.75M66.6 70.15L67.55 71.7M69.45 69.45L69.8 69.9L71.55 71.35L73.55 72.5L72.5 70.55L69.45 69.45L67.8 68.95M67.8 72L68.55 72.8Q70.25 74.5 72.9 75.4L74.3 75.85L75.85 73.9L74.3 73.9L73.55 72.5M72.5 70.55L74.9 70.55M77.6 73.9L79 73.9L79.25 73.9L80.1 73.9M75.9 70.55L78.3 70.55M75.85 73.9L76.65 73.9M69.35 67.15L75.65 67.15M67.85 56.5L71.4 56.5M52.1 59.05L51.5 58.55Q51.05 58 51.05 57.2Q51.05 56.4 51.5 55.8Q51.75 55.5 52.1 55.4M57.65 59.3L60.1 59.3M57.65 59.3L60.35 54.55Q57.35 49.9 56.65 46.3M48.8 55.25Q49.4 55.3 49.8 55.8Q50.3 56.4 50.3 57.2Q50.3 58 49.8 58.55Q49.4 59.1 48.8 59.15L48.7 59.15Q48.1 59.15 47.6 58.55Q47.15 58 47.15 57.2Q47.15 56.4 47.6 55.8Q48.1 55.25 48.7 55.25L48.8 55.25zM45.9 49.55L48.35 49.55M43.45 58.55Q43 58 43 57.2Q43 56.4 43.45 55.8Q43.95 55.25 44.55 55.25Q45.2 55.25 45.65 55.8Q46.15 56.4 46.15 57.2Q46.15 58 45.65 58.55Q45.2 59.15 44.55 59.15Q43.95 59.15 43.45 58.55zM44.6 50.9L49.6 50.9M43.75 52.25L50.55 52.25M46 64.8L48.2 64.8M47.85 68.9L49.55 68.9L50.7 68.9L52.65 68.9Q53.8 68.9 54.85 68.5Q56.2 68 57.4 67L57.95 66.45M45.5 72.95L46.45 72.1L48.35 70.15L49.55 68.9M48.35 70.15Q48.95 71.35 49.85 72.35M44.65 63.5L49.8 63.5M43.8 62L50.6 62M50.7 68.9L51.65 69.9Q53.25 71.6 55.5 72.6L58 73.35L58.95 72M54.85 68.5L55.65 69.1L57.4 69.9L59.85 70.4M43.1 53.7L51.25 53.7M43.1 60.65L51.15 60.65M57.65 59.3L59.8 62.85M46.8 77.45L48.55 78.1L50.65 78.3L53.25 78.2L53.65 78.15Q51.65 77.35 50.1 76.3M53.65 78.15L53.75 78.1L54 78.1L56.05 75.85Q52.25 74.85 50.1 72.6M54 78.1L54.15 78.1L55.55 77.6L56.25 77.45M55.55 77.6Q55.75 79.2 56.2 80.6Q56.65 82.4 57.4 83.85L58.4 85.65M57.8 76.75Q58.15 78.85 59.15 80.6L59.8 81.65Q60.85 83.15 62.45 84.45L62.6 84.4Q64.7 83.55 66.6 82.5Q64.9 81.9 63.6 80.8L62.6 79.8Q61 78.1 60.25 75.45M53.25 78.2L54.2 86.35M46.8 77.5L46.8 77.45L46.7 77.35L46.8 77.5Q45.65 80.1 42.85 81.8M44.6 74L45.2 75.65L45.85 76.55L46.7 77.35M45.2 75.65L42.85 76.2M48.55 78.1L47.85 80.8Q47.25 82.5 46.15 83.65L44.25 85.05M45.85 76.55L42.85 78.55M50.65 78.3L49.85 86.3M76.7 75.45Q77.5 78.1 79.1 79.8L79.85 80.6M74.3 75.85L72.95 77.35L74.3 76.75L76.3 75.75L76.7 75.45L79 73.9M72.05 78.25L72.15 78.15L72.95 77.35M72.15 78.15L72.7 80.8L73.9 83.85L74.9 85.65M74.3 76.75Q74.65 78.85 75.8 80.8L76.3 81.65Q77.4 83.15 78.95 84.45M60.8 85L62.45 84.45M66.6 82.5L66.75 82.4L67 82.35L69.9 80.25M66.75 82.4L66.35 86.3M70 80.2L70.7 86.35M60.35 54.55L61.75 56.45M56.05 75.85L58 73.35M46.45 72.1Q47.5 74.4 49.85 76.05M69.45 40.8Q66.6 46.55 73.9 56.5M35.25 14.95L40.7 13.8M74.3 40.8Q71.4 46.55 78.75 56.5M75.45 40.8Q72.6 46.55 80 56.5M68.2 40.8Q65.3 46.55 72.7 56.5M39.95 67L42.3 67M40.1 83.1L43.45 84.7M80.15 80.8Q81.35 81.9 83.05 82.5"/>
</g>
</svg>
