<?xml version="1.0" encoding="UTF-8" standalone="no"?>
<svg xmlns:xlink="http://www.w3.org/1999/xlink" height="88.45px" width="108.65px" xmlns="http://www.w3.org/2000/svg">
  <g transform="matrix(1.0, 0.0, 0.0, 1.0, 0.05, 0.05)">
    <path d="M92.15 30.05 L89.55 29.9 89.1 29.9 87.0 30.05 86.95 30.05 86.8 29.9 89.1 29.9 86.8 29.9 84.0 26.75 64.7 26.75 52.0 39.2 52.0 61.0 64.45 73.4 62.8 73.4 Q61.45 73.25 60.65 72.5 L48.2 60.05 Q47.15 59.1 45.6 58.7 L45.65 58.05 45.65 48.5 45.65 39.2 52.6 32.1 60.85 23.65 74.05 23.65 87.45 23.65 92.15 30.05 M86.95 70.15 L87.0 70.15 88.3 70.3 89.1 70.3 89.25 70.3 90.15 70.3 90.65 70.3 92.2 70.15 89.75 73.4 84.6 73.4 86.85 70.3 86.95 70.15 M88.3 70.3 L86.85 70.3 88.3 70.3 M88.15 75.6 L87.45 76.5 83.35 82.9 79.85 88.35 76.05 88.35 76.75 84.3 71.85 84.3 67.95 88.35 65.1 88.35 66.2 84.3 61.6 84.3 60.25 85.65 57.35 88.35 53.25 88.35 53.2 88.3 56.8 82.75 56.9 82.7 60.85 76.5 64.75 76.5 60.85 76.5 59.0 74.75 Q59.95 75.6 61.35 75.6 L88.15 75.6 M83.55 76.5 L87.45 76.5 83.55 76.5 79.0 76.5 64.75 76.5 63.85 78.15 62.35 80.6 80.7 80.6 83.55 76.5 M83.35 82.9 L56.8 82.75 83.35 82.9 M34.2 44.5 L38.8 44.5 38.8 48.5 38.8 51.6 34.2 51.6 34.2 44.5" fill="#666666" fill-rule="evenodd" stroke="none"/>
    <path d="M80.3 44.8 Q80.8 43.1 81.55 41.55 L82.15 40.5 Q82.4 39.95 82.8 39.5 L83.0 39.3 83.0 39.2 Q86.1 35.15 90.35 35.15 92.45 35.15 94.2 36.15 96.2 37.25 97.85 39.5 L99.4 42.3 100.25 44.65 100.3 44.75 Q98.65 51.1 80.3 44.8 M56.45 43.6 Q55.75 46.0 55.55 48.55 L55.5 50.1 55.75 53.05 55.75 53.25 Q56.0 55.55 56.85 57.75 L57.5 59.2 Q58.75 61.8 60.85 64.1 L61.05 64.4 Q63.45 66.9 66.2 68.35 68.4 69.5 70.85 70.0 L72.8 70.3 73.4 70.3 74.0 70.3 82.25 70.3 86.85 70.3 84.6 73.4 64.45 73.4 52.0 61.0 52.0 39.2 64.7 26.75 84.0 26.75 86.8 29.9 82.25 29.9 74.2 29.9 70.9 30.2 69.75 30.5 Q66.3 31.4 63.45 33.6 L61.05 35.8 60.85 36.05 Q59.5 37.55 58.45 39.2 57.2 41.25 56.45 43.6 M100.4 54.8 L99.4 57.7 97.85 60.4 Q96.4 62.45 94.65 63.55 92.65 64.7 90.35 64.7 85.95 64.7 82.8 60.4 81.8 59.1 81.2 57.55 L80.25 54.8 Q99.65 48.65 100.4 54.8 M50.65 85.85 Q47.15 88.35 42.3 88.35 38.05 88.35 34.8 86.4 L33.4 85.4 Q29.75 82.55 29.75 78.4 29.75 77.55 29.9 76.7 L31.95 77.1 31.85 78.25 31.85 78.55 31.85 78.65 31.85 79.05 Q32.05 82.15 34.85 84.4 L35.25 84.65 Q38.15 86.8 42.1 86.8 44.95 86.8 47.3 85.7 L49.4 84.4 49.65 84.15 Q51.3 82.75 52.0 80.9 L52.15 80.5 52.25 79.95 52.35 79.15 52.35 78.7 52.75 78.35 53.65 78.15 54.5 78.35 54.85 78.9 54.8 79.3 54.65 80.05 54.55 80.75 54.3 81.45 Q53.45 83.65 51.15 85.4 L50.85 85.65 50.65 85.85 M63.85 78.15 L64.75 76.5 79.0 76.5 77.85 78.15 63.85 78.15 M57.2 10.9 L55.2 7.8 61.9 7.8 66.0 10.9 70.0 14.0 74.45 17.45 78.5 20.55 63.35 20.55 61.3 17.45 59.15 14.0 57.2 10.9 66.0 10.9 57.2 10.9 M74.45 17.45 L61.3 17.45 74.45 17.45 M70.0 14.0 L59.15 14.0 70.0 14.0" fill="#333333" fill-rule="evenodd" stroke="none"/>
    <path d="M60.85 23.65 L52.6 32.1 45.65 39.2 22.85 36.1 26.9 30.85 41.85 36.1 47.45 29.95 52.6 32.1 47.45 29.95 41.85 36.1 26.9 30.85 15.2 26.75 15.1 26.55 7.6 14.35 7.6 8.1 15.2 8.1 26.6 12.75 26.7 12.8 30.4 20.55 49.4 27.7 49.5 27.75 47.45 29.95 49.5 27.75 49.4 27.7 35.0 20.55 39.9 14.4 40.05 14.4 60.85 23.65 M40.8 10.95 L24.35 4.1 23.95 0.0 46.75 5.0 61.95 22.35 43.55 14.35 43.7 14.35 41.4 11.2 40.8 10.95 M28.0 23.65 L24.95 17.45 15.55 14.35 18.65 23.65 38.6 31.1 40.75 28.9 28.0 23.65" fill="#707070" fill-rule="evenodd" stroke="none"/>
    <path d="M15.2 8.1 L19.8 8.1 24.2 10.0 30.8 12.75 26.9 12.75 26.6 12.75 15.2 8.1 M23.95 0.0 L41.05 0.0 64.65 5.0 59.7 5.0 39.55 0.9 34.2 0.9 51.0 5.0 46.75 5.0 23.95 0.0 M26.7 12.8 L26.6 12.75 26.9 12.75 26.7 12.8" fill="#959595" fill-rule="evenodd" stroke="none"/>
    <path d="M15.2 74.7 L15.9 74.05 18.0 74.05 18.8 74.7 15.2 74.7 M9.65 26.85 L9.9 26.75 12.05 26.75 14.65 27.4 14.3 28.0 9.65 26.85 M64.65 5.0 L74.5 14.35 83.65 22.35 71.55 22.35 61.95 22.35 46.75 5.0 51.0 5.0 59.7 5.0 64.65 5.0 M80.7 80.6 L62.35 80.6 63.85 78.15 77.85 78.15 80.7 80.6 M57.2 10.9 L59.15 14.0 61.3 17.45 63.35 20.55 78.5 20.55 74.45 17.45 70.0 14.0 66.0 10.9 61.9 7.8 55.2 7.8 57.2 10.9 M49.4 27.7 L30.4 20.55 26.7 12.8 26.9 12.75 30.8 12.75 31.95 14.9 34.95 20.55 35.0 20.55 49.4 27.7 M34.95 20.55 L30.4 20.55 34.95 20.55 M11.4 33.6 L12.65 33.6 15.6 33.6 21.25 42.3 21.25 42.35 24.9 42.75 38.8 44.5 34.2 44.5 29.65 43.9 19.1 42.6 17.1 42.3 11.4 33.6 M21.25 42.3 L17.1 42.3 21.25 42.3" fill="#8d8d8d" fill-rule="evenodd" stroke="none"/>
    <path d="M87.45 23.65 L74.05 23.65 60.85 23.65 40.05 14.4 39.95 14.35 43.55 14.35 61.95 22.35 71.55 22.35 83.65 22.35 74.5 14.35 76.05 14.35 87.45 23.65 M74.05 23.65 L71.55 22.35 74.05 23.65" fill="#838383" fill-rule="evenodd" stroke="none"/>
    <path d="M76.05 88.35 L71.85 84.3 76.75 84.3 76.05 88.35 M65.1 88.35 L62.55 85.4 61.6 84.3 66.2 84.3 65.1 88.35 M53.2 88.3 L51.0 85.85 50.85 85.65 51.15 85.4 Q53.45 83.65 54.3 81.45 L54.55 80.75 55.25 80.35 Q55.9 79.8 55.9 79.0 55.9 78.25 55.25 77.7 54.55 77.15 53.65 77.15 52.65 77.15 52.0 77.7 51.3 78.25 51.3 79.0 51.3 79.8 52.0 80.35 L52.15 80.5 52.0 80.9 Q51.3 82.75 49.65 84.15 L48.35 82.65 47.45 81.5 46.15 80.0 43.35 76.55 46.15 80.0 45.25 79.8 43.2 79.35 41.1 79.0 38.95 78.55 36.45 78.0 33.95 77.55 31.95 77.1 29.9 76.7 29.35 76.55 29.35 76.5 26.2 72.5 27.2 72.05 27.35 72.05 30.1 70.55 30.5 71.05 30.85 71.55 31.95 72.7 32.5 73.15 32.75 73.35 33.65 73.95 Q36.0 75.45 38.85 76.2 L39.45 76.3 39.55 76.3 41.05 76.5 43.35 76.55 43.5 76.5 45.25 76.15 45.65 75.95 45.8 75.85 45.95 75.8 50.45 73.75 Q51.65 73.1 52.05 72.1 52.4 71.35 52.3 70.45 L51.8 68.85 50.65 67.25 49.1 65.9 Q47.45 64.6 45.4 63.85 L44.95 63.7 42.3 62.95 Q39.55 62.45 37.45 62.95 L36.65 63.1 36.1 63.35 33.45 64.55 31.85 65.3 31.6 65.4 Q31.2 65.55 30.9 65.8 L29.5 64.25 Q27.55 62.5 25.0 61.9 23.1 61.55 21.7 61.9 L21.5 61.9 21.25 62.05 20.9 62.2 20.8 62.25 19.25 63.1 17.7 61.0 18.25 61.0 30.4 61.0 30.5 61.1 33.45 64.55 30.5 61.1 30.4 61.0 42.6 61.0 Q44.2 61.0 45.5 61.55 46.3 61.9 47.0 62.5 L59.0 74.75 60.85 76.5 56.9 82.7 56.8 82.75 53.2 88.3 M14.9 61.6 L12.4 61.6 11.65 60.95 15.15 61.0 14.9 61.6 M32.95 12.35 L32.95 11.35 38.95 14.35 38.05 14.35 37.25 14.35 36.4 14.4 32.95 12.45 32.95 12.35 Q35.2 13.2 37.25 14.35 35.2 13.2 32.95 12.35 M83.55 76.5 L80.7 80.6 77.85 78.15 79.0 76.5 83.55 76.5" fill="#4b4b4b" fill-rule="evenodd" stroke="none"/>
    <path d="M29.35 76.5 L27.5 76.5 24.35 76.5 Q21.4 76.4 19.05 74.85 L18.8 74.7 18.0 74.05 17.25 73.35 16.5 72.5 16.25 72.15 15.5 70.95 Q14.2 68.7 14.15 65.95 L14.15 65.6 Q14.15 64.7 14.3 63.8 14.45 62.6 14.9 61.6 L15.15 61.0 15.55 60.15 Q16.5 60.8 17.7 60.95 L17.7 61.0 19.25 63.1 19.45 63.35 19.3 63.35 18.0 63.75 17.95 63.8 17.85 63.8 Q16.25 64.7 16.4 66.55 16.65 68.35 18.6 70.0 19.95 71.25 21.55 71.9 L22.85 72.35 23.05 72.4 25.65 72.6 26.2 72.5 29.35 76.5 M14.65 27.4 L15.1 26.55 15.2 26.75 26.9 30.85 22.85 36.1 24.75 42.6 24.9 42.75 21.25 42.35 21.25 42.3 15.6 33.6 12.65 33.6 Q13.05 30.65 14.3 28.0 L14.65 27.4 M37.25 14.35 L38.05 14.35 38.95 14.35 39.9 14.4 35.0 20.55 34.95 20.55 31.95 14.9 36.4 14.4 37.25 14.35 M27.55 51.6 L29.65 58.5 19.3 58.5 Q16.85 58.5 16.2 56.95 L15.4 54.95 15.05 54.1 14.15 51.6 27.55 51.6 M27.5 76.5 Q25.35 75.7 23.6 74.15 L22.3 72.8 21.95 72.4 21.55 71.9 21.95 72.4 22.3 72.8 23.6 74.15 Q25.35 75.7 27.5 76.5 M14.3 63.8 L17.85 63.8 14.3 63.8 M21.95 72.4 L16.5 72.5 21.95 72.4" fill="#3e3e3e" fill-rule="evenodd" stroke="none"/>
    <path d="M45.65 39.2 L45.65 48.5 45.65 58.05 45.55 58.7 44.2 58.5 29.65 58.5 27.55 51.6 34.2 51.6 27.55 51.6 14.15 51.6 11.9 51.6 10.25 51.6 0.0 33.6 7.4 33.6 11.4 33.6 17.1 42.3 19.1 42.6 29.65 43.9 34.2 44.5 34.2 51.6 38.8 51.6 38.8 48.5 38.8 44.5 24.9 42.75 24.75 42.6 22.85 36.1 45.65 39.2 M24.95 48.5 L24.95 47.35 15.2 43.9 10.3 36.1 4.4 36.1 11.5 48.5 24.95 48.5 M45.65 48.5 L38.8 48.5 45.65 48.5 M46.15 80.0 L47.45 81.5 48.35 82.65 47.45 82.6 45.25 82.35 43.95 82.25 43.2 82.1 42.0 81.95 39.65 84.6 38.6 84.6 41.05 81.75 38.95 81.35 36.7 80.75 36.4 80.75 35.55 80.5 35.0 80.35 33.95 79.9 31.85 79.05 31.85 78.65 31.85 78.55 31.85 78.25 31.95 77.1 33.95 77.55 36.45 78.0 38.95 78.55 41.1 79.0 43.2 79.35 45.25 79.8 46.15 80.0 M33.95 77.55 L33.95 79.9 33.95 77.55 M41.1 79.0 L41.05 81.75 41.1 81.75 42.0 81.95 41.1 81.75 41.05 81.75 41.1 79.0 M36.45 78.0 L36.4 80.75 36.45 78.0 M38.95 78.55 L38.95 81.35 38.95 78.55 M45.25 79.8 L45.25 82.35 45.25 79.8 M43.2 79.35 L43.2 82.1 43.2 79.35 M47.45 81.5 L47.45 82.6 47.45 81.5" fill="#5b5b5b" fill-rule="evenodd" stroke="none"/>
    <path d="M24.2 10.0 Q28.8 10.8 32.95 12.35 L32.95 12.45 36.4 14.4 31.95 14.9 30.8 12.75 24.2 10.0" fill="url(#gradient0)" fill-rule="evenodd" stroke="none"/>
    <path d="M30.9 65.8 Q31.2 65.55 31.6 65.4 L31.85 65.3 33.65 64.85 34.1 64.8 34.2 64.75 35.4 64.75 37.55 65.0 37.8 65.05 Q41.3 65.75 44.1 67.7 L44.5 68.0 45.4 68.7 45.4 68.75 46.9 70.4 47.2 71.0 47.45 71.45 47.75 72.5 Q47.9 73.75 47.3 74.6 L45.95 75.8 45.8 75.85 45.65 75.95 45.25 76.15 43.5 76.5 43.35 76.5 43.35 76.55 41.05 76.5 39.55 76.3 39.45 76.3 38.85 76.2 Q36.0 75.45 33.65 73.95 L32.75 73.35 32.5 73.15 31.95 72.7 30.85 71.55 30.5 71.05 30.1 70.55 Q29.65 69.7 29.5 68.85 29.15 66.9 30.9 65.8 M34.3 66.5 Q33.0 66.7 32.45 67.55 31.6 68.75 32.85 70.5 L33.5 71.25 35.05 72.6 36.7 73.55 Q38.85 74.6 40.8 74.85 L41.65 74.85 Q44.05 74.95 44.8 73.8 L45.0 73.4 Q45.25 72.6 44.8 71.55 L44.35 70.85 44.05 70.45 41.65 68.45 40.5 67.75 Q37.9 66.5 35.5 66.5 L34.3 66.5" fill="url(#gradient1)" fill-rule="evenodd" stroke="none"/>
    <path d="M31.85 65.3 L33.45 64.55 36.1 63.35 36.65 63.1 37.45 62.95 Q39.55 62.45 42.3 62.95 L44.95 63.7 45.4 63.85 Q47.45 64.6 49.1 65.9 L50.65 67.25 51.8 68.85 52.3 70.45 Q52.4 71.35 52.05 72.1 51.65 73.1 50.45 73.75 L45.95 75.8 47.3 74.6 Q47.9 73.75 47.75 72.5 L47.45 71.45 47.2 71.0 46.9 70.4 45.4 68.75 45.4 68.7 44.5 68.0 44.1 67.7 Q41.3 65.75 37.8 65.05 L37.55 65.0 35.4 64.75 34.2 64.75 34.1 64.8 33.65 64.85 31.85 65.3" fill="url(#gradient2)" fill-rule="evenodd" stroke="none"/>
    <path d="M52.15 80.5 L52.0 80.35 Q51.3 79.8 51.3 79.0 51.3 78.25 52.0 77.7 52.65 77.15 53.65 77.15 54.55 77.15 55.25 77.7 55.9 78.25 55.9 79.0 55.9 79.8 55.25 80.35 L54.55 80.75 54.65 80.05 54.8 79.3 54.85 79.0 54.85 78.9 54.5 78.35 53.65 78.15 52.75 78.35 52.35 78.7 52.35 79.15 52.25 79.95 52.15 80.5" fill="url(#gradient3)" fill-rule="evenodd" stroke="none"/>
    <path d="M105.25 39.2 L104.35 38.0 Q102.05 35.3 99.3 34.05 97.0 33.0 94.3 33.0 L94.1 33.0 93.85 33.0 90.85 33.35 Q86.95 34.4 83.85 38.0 L83.35 38.65 83.0 39.2 83.35 38.65 83.85 38.0 Q86.95 34.4 90.85 33.35 L93.85 33.0 94.1 33.0 94.3 33.0 Q97.0 33.0 99.3 34.05 102.05 35.3 104.35 38.0 L105.25 39.2 106.25 40.65 Q107.35 42.7 107.95 44.95 108.55 47.25 108.55 49.85 L108.55 50.1 108.55 50.2 108.55 50.4 Q108.5 52.7 108.1 54.75 L107.95 55.25 107.9 55.35 107.85 55.7 107.9 55.7 Q106.55 60.6 103.0 64.4 L100.9 66.3 Q97.35 69.2 93.05 70.0 L92.2 70.15 90.65 70.3 90.15 70.3 89.25 70.3 89.1 70.3 88.3 70.3 87.0 70.15 86.95 70.15 86.65 70.15 85.05 69.75 Q82.1 69.05 79.55 67.35 L76.05 64.4 Q71.55 59.55 70.75 53.05 L70.6 51.65 70.55 50.1 Q70.55 41.7 76.05 35.8 L76.6 35.3 Q77.95 33.9 79.55 32.9 82.1 31.1 85.05 30.4 L86.55 30.1 86.95 30.05 87.0 30.05 89.1 29.9 89.55 29.9 92.15 30.05 93.05 30.2 Q97.35 30.95 100.9 33.9 L103.0 35.8 Q104.5 37.45 105.6 39.2 L105.25 39.2 M79.85 47.55 L79.65 50.1 79.75 52.75 80.4 55.7 Q81.35 58.9 83.35 61.55 L83.85 62.2 Q86.9 65.8 90.85 66.8 L93.9 67.2 94.1 67.2 94.35 67.2 98.25 66.55 Q101.6 65.35 104.35 62.2 L105.25 61.05 Q107.0 58.6 107.85 55.7 107.0 58.6 105.25 61.05 L104.35 62.2 Q101.6 65.35 98.25 66.55 L94.35 67.2 94.1 67.2 93.9 67.2 90.85 66.8 Q86.9 65.8 83.85 62.2 L83.35 61.55 Q81.35 58.9 80.4 55.7 L79.75 52.75 79.65 50.1 79.85 47.55 Q79.7 48.7 79.7 49.95 79.7 52.5 80.25 54.8 L81.2 57.55 Q81.8 59.1 82.8 60.4 85.95 64.7 90.35 64.7 92.65 64.7 94.65 63.55 96.4 62.45 97.85 60.4 L99.4 57.7 100.4 54.8 Q100.9 52.7 100.95 50.4 L100.95 49.95 Q100.95 47.15 100.3 44.75 L100.25 44.65 99.4 42.3 97.85 39.5 Q96.2 37.25 94.2 36.15 92.45 35.15 90.35 35.15 86.1 35.15 83.0 39.2 L83.0 39.3 82.8 39.5 Q82.4 39.95 82.15 40.5 L81.55 41.55 Q80.8 43.1 80.3 44.8 L80.2 45.3 79.85 47.55 M99.3 34.05 L94.2 36.15 99.3 34.05 M106.25 40.65 L99.4 42.3 106.25 40.65 M98.25 66.55 L94.65 63.55 98.25 66.55 M108.55 50.4 L100.95 50.4 108.55 50.4 M105.25 61.05 L99.4 57.7 105.25 61.05" fill="url(#gradient4)" fill-rule="evenodd" stroke="none"/>
    <path d="M86.95 30.05 L86.55 30.1 85.05 30.4 Q82.1 31.1 79.55 32.9 77.95 33.9 76.6 35.3 L76.05 35.8 Q70.55 41.7 70.55 50.1 L70.6 51.65 70.75 53.05 Q71.55 59.55 76.05 64.4 L79.55 67.35 Q82.1 69.05 85.05 69.75 L86.65 70.15 86.95 70.15 86.85 70.3 82.25 70.3 81.9 70.15 80.3 69.75 Q77.35 69.05 74.85 67.35 72.95 66.1 71.35 64.4 68.55 61.4 67.2 57.75 66.3 55.55 66.05 53.05 L55.75 53.05 66.05 53.05 Q66.3 55.55 67.2 57.75 68.55 61.4 71.35 64.4 72.95 66.1 74.85 67.35 77.35 69.05 80.3 69.75 L81.9 70.15 82.25 70.3 74.0 70.3 73.4 70.3 72.8 70.3 70.85 70.0 Q68.4 69.5 66.2 68.35 63.45 66.9 61.05 64.4 L60.85 64.1 Q58.75 61.8 57.5 59.2 L56.85 57.75 Q56.0 55.55 55.75 53.25 L55.75 53.05 55.5 50.1 55.55 48.55 Q55.75 46.0 56.45 43.6 57.2 41.25 58.45 39.2 59.5 37.55 60.85 36.05 L61.05 35.8 63.45 33.6 Q66.3 31.4 69.75 30.5 L70.9 30.2 74.2 29.9 82.25 29.9 86.8 29.9 86.95 30.05 M56.45 43.6 L66.8 43.6 Q67.3 41.8 68.25 40.1 69.45 37.85 71.35 35.8 L71.9 35.3 Q73.3 33.9 74.85 32.9 77.35 31.1 80.3 30.4 L81.8 30.1 82.25 29.9 81.8 30.1 80.3 30.4 Q77.35 31.1 74.85 32.9 73.3 33.9 71.9 35.3 L71.35 35.8 Q69.45 37.85 68.25 40.1 67.3 41.8 66.8 43.6 L56.45 43.6" fill="url(#gradient5)" fill-rule="evenodd" stroke="none"/>
    <path d="M79.85 47.55 L80.2 45.3 80.3 44.8 Q98.65 51.1 100.3 44.75 100.95 47.15 100.95 49.95 L100.95 50.4 Q100.9 52.7 100.4 54.8 99.65 48.65 80.25 54.8 79.7 52.5 79.7 49.95 79.7 48.7 79.85 47.55" fill="url(#gradient6)" fill-rule="evenodd" stroke="none"/>
    <path d="M45.6 58.7 Q47.15 59.1 48.2 60.05 L60.65 72.5 Q61.45 73.25 62.8 73.4 L64.45 73.4 84.6 73.4 89.75 73.4 89.8 73.4 89.85 73.45 89.85 73.5 Q90.2 73.85 90.2 74.35 L89.85 75.25 89.0 75.6 88.7 75.6 88.15 75.6 61.35 75.6 Q59.95 75.6 59.0 74.75 L47.0 62.5 Q46.3 61.9 45.5 61.55 44.2 61.0 42.6 61.0 L30.4 61.0 18.25 61.0 17.7 60.95 Q16.5 60.8 15.55 60.15 L15.05 59.85 14.4 59.1 13.85 57.85 Q13.7 57.4 13.7 56.95 13.7 55.8 14.3 54.95 L14.5 54.6 15.05 54.1 15.4 54.95 16.2 56.95 Q16.85 58.5 19.3 58.5 L29.65 58.5 44.2 58.5 45.55 58.7 45.6 58.7 M14.3 54.95 L14.45 54.95 15.4 54.95 14.45 54.95 14.3 54.95" fill="url(#gradient7)" fill-rule="evenodd" stroke="none"/>
    <path d="M51.0 5.0 L34.2 0.9 39.55 0.9 59.7 5.0 51.0 5.0" fill="url(#gradient8)" fill-rule="evenodd" stroke="none"/>
    <path d="M14.5 54.6 Q13.05 53.25 11.9 51.6 L14.15 51.6 15.05 54.1 14.5 54.6 M7.4 33.6 Q8.0 30.2 9.5 27.1 L9.65 26.85 14.3 28.0 Q13.05 30.65 12.65 33.6 L11.4 33.6 7.4 33.6 M32.95 11.35 L32.95 11.3 38.95 10.9 40.8 10.95 41.4 11.2 43.7 14.35 43.55 14.35 39.95 14.35 39.9 14.4 38.95 14.35 32.95 11.35" fill="url(#gradient9)" fill-rule="evenodd" stroke="none"/>
    <path d="M28.0 23.65 L40.75 28.9 38.6 31.1 18.65 23.65 15.55 14.35 24.95 17.45 28.0 23.65" fill="url(#gradient10)" fill-rule="evenodd" stroke="none"/>
    <path d="M24.95 48.5 L11.5 48.5 4.4 36.1 10.3 36.1 15.2 43.9 24.95 47.35 24.95 48.5" fill="url(#gradient11)" fill-rule="evenodd" stroke="none"/>
    <path d="M19.25 63.1 L20.8 62.25 20.9 62.2 21.25 62.05 21.5 61.9 21.7 61.9 Q23.1 61.55 25.0 61.9 27.55 62.5 29.5 64.25 L30.9 65.8 Q29.15 66.9 29.5 68.85 29.65 69.7 30.1 70.55 L27.35 72.05 28.3 71.05 Q28.7 70.35 28.6 69.45 28.35 67.55 26.4 65.9 25.25 64.85 23.9 64.3 L22.0 63.55 20.2 63.3 19.6 63.35 19.45 63.35 19.25 63.1" fill="url(#gradient12)" fill-rule="evenodd" stroke="none"/>
    <path d="M26.55 69.65 L26.1 68.45 25.05 67.2 23.75 66.25 Q22.2 65.3 20.75 65.15 L19.8 65.15 Q19.05 65.2 18.7 65.6 18.15 66.35 18.9 67.55 L20.0 68.85 20.2 69.0 21.25 69.7 Q22.7 70.65 24.05 70.9 L24.25 70.9 Q25.75 71.1 26.25 70.35 L26.55 69.65 M19.45 63.35 L19.6 63.35 20.2 63.3 22.0 63.55 23.9 64.3 Q25.25 64.85 26.4 65.9 28.35 67.55 28.6 69.45 28.7 70.35 28.3 71.05 L27.35 72.05 27.2 72.05 26.2 72.5 25.65 72.6 23.05 72.4 22.85 72.35 21.55 71.9 Q19.95 71.25 18.6 70.0 16.65 68.35 16.4 66.55 16.25 64.7 17.85 63.8 L17.95 63.8 18.0 63.75 19.3 63.35 19.45 63.35" fill="url(#gradient13)" fill-rule="evenodd" stroke="none"/>
    <path d="M19.8 65.15 L20.75 65.15 Q22.2 65.3 23.75 66.25 L25.05 67.2 26.1 68.45 26.55 69.65 25.5 69.65 24.75 69.5 Q23.65 69.2 22.5 68.45 L21.5 67.75 21.3 67.55 20.2 66.3 19.8 65.15" fill="url(#gradient14)" fill-rule="evenodd" stroke="none"/>
    <path d="M26.55 69.65 L26.25 70.35 Q25.75 71.1 24.25 70.9 L24.05 70.9 Q22.7 70.65 21.25 69.7 L20.2 69.0 20.0 68.85 18.9 67.55 Q18.15 66.35 18.7 65.6 19.05 65.2 19.8 65.15 L20.2 66.3 21.3 67.55 21.5 67.75 22.5 68.45 Q23.65 69.2 24.75 69.5 L25.5 69.65 26.55 69.65" fill="url(#gradient15)" fill-rule="evenodd" stroke="none"/>
    <path d="M45.0 73.4 L44.8 73.8 Q44.05 74.95 41.65 74.85 L40.8 74.85 Q38.85 74.6 36.7 73.55 L35.05 72.6 33.5 71.25 32.85 70.5 Q31.6 68.75 32.45 67.55 33.0 66.7 34.3 66.5 33.95 67.6 35.0 69.05 L35.65 69.85 37.35 71.2 Q38.05 71.7 38.9 72.05 40.7 72.95 42.45 73.3 L43.75 73.4 45.0 73.4" fill="url(#gradient16)" fill-rule="evenodd" stroke="none"/>
    <path d="M34.3 66.5 L35.5 66.5 Q37.9 66.5 40.5 67.75 L41.65 68.45 44.05 70.45 44.35 70.85 44.8 71.55 Q45.25 72.6 45.0 73.4 L43.75 73.4 42.45 73.3 Q40.7 72.95 38.9 72.05 38.05 71.7 37.35 71.2 L35.65 69.85 35.0 69.05 Q33.95 67.6 34.3 66.5" fill="url(#gradient17)" fill-rule="evenodd" stroke="none"/>
    <path d="M24.35 76.5 L21.0 76.5 Q18.8 76.5 16.95 75.6 L15.2 74.7 18.8 74.7 19.05 74.85 Q21.4 76.4 24.35 76.5 M15.5 70.95 L11.95 70.95 Q11.0 69.2 10.7 67.2 L10.6 65.95 14.15 65.95 Q14.2 68.7 15.5 70.95 M11.65 60.95 Q12.1 59.85 12.95 58.85 L13.7 57.95 Q13.7 57.9 13.85 57.85 L14.4 59.1 15.05 59.85 15.55 60.15 15.15 61.0 11.65 60.95" fill="url(#gradient18)" fill-rule="evenodd" stroke="none"/>
    <path d="M31.85 79.05 L33.95 79.9 35.0 80.35 35.55 80.5 36.4 80.75 36.7 80.75 38.95 81.35 41.05 81.75 38.6 84.6 38.05 84.5 35.45 83.85 33.9 83.3 31.85 79.05" fill="url(#gradient19)" fill-rule="evenodd" stroke="none"/>
    <path d="M62.55 85.4 L60.25 85.65 61.6 84.3 62.55 85.4 M48.35 82.65 L49.65 84.15 49.4 84.4 47.3 85.7 44.2 85.5 43.95 82.25 45.25 82.35 47.45 82.6 48.35 82.65" fill="url(#gradient20)" fill-rule="evenodd" stroke="none"/>
    <path d="M83.0 39.2 L83.35 38.65 83.85 38.0 Q86.95 34.4 90.85 33.35 L93.85 33.0 94.1 33.0 94.3 33.0 Q97.0 33.0 99.3 34.05 102.05 35.3 104.35 38.0 L105.25 39.2 105.6 39.2 Q104.5 37.45 103.0 35.8 L100.9 33.9 Q97.35 30.95 93.05 30.2 L92.15 30.05 89.55 29.9 89.1 29.9 87.0 30.05 86.95 30.05 86.55 30.1 85.05 30.4 Q82.1 31.1 79.55 32.9 77.95 33.9 76.6 35.3 L76.05 35.8 Q70.55 41.7 70.55 50.1 L70.6 51.65 70.75 53.05 Q71.55 59.55 76.05 64.4 L79.55 67.35 Q82.1 69.05 85.05 69.75 L86.65 70.15 86.95 70.15 87.0 70.15 88.3 70.3 89.1 70.3 89.25 70.3 90.15 70.3 90.65 70.3 92.2 70.15 93.05 70.0 Q97.35 69.2 100.9 66.3 L103.0 64.4 Q106.55 60.6 107.9 55.7 L107.85 55.7 Q107.0 58.6 105.25 61.05 L104.35 62.2 Q101.6 65.35 98.25 66.55 L94.35 67.2 94.1 67.2 93.9 67.2 90.85 66.8 Q86.9 65.8 83.85 62.2 L83.35 61.55 Q81.35 58.9 80.4 55.7 L79.75 52.75 79.65 50.1 79.85 47.55 80.2 45.3 80.3 44.8 Q80.8 43.1 81.55 41.55 L82.15 40.5 Q82.4 39.95 82.8 39.5 L83.0 39.3 83.0 39.2 Q86.1 35.15 90.35 35.15 92.45 35.15 94.2 36.15 L99.3 34.05 M86.8 29.9 L89.1 29.9 M82.25 29.9 L81.8 30.1 80.3 30.4 Q77.35 31.1 74.85 32.9 73.3 33.9 71.9 35.3 L71.35 35.8 Q69.45 37.85 68.25 40.1 67.3 41.8 66.8 43.6 L56.45 43.6 Q55.75 46.0 55.55 48.55 L55.5 50.1 55.75 53.05 66.05 53.05 Q66.3 55.55 67.2 57.75 68.55 61.4 71.35 64.4 72.95 66.1 74.85 67.35 77.35 69.05 80.3 69.75 L81.9 70.15 82.25 70.3 86.85 70.3 88.3 70.3 M64.45 73.4 L52.0 61.0 52.0 39.2 64.7 26.75 84.0 26.75 86.8 29.9 82.25 29.9 74.2 29.9 70.9 30.2 69.75 30.5 Q66.3 31.4 63.45 33.6 L61.05 35.8 60.85 36.05 Q59.5 37.55 58.45 39.2 57.2 41.25 56.45 43.6 M100.3 44.75 L100.25 44.65 99.4 42.3 97.85 39.5 Q96.2 37.25 94.2 36.15 M105.25 39.2 L106.25 40.65 Q107.35 42.7 107.95 44.95 108.55 47.25 108.55 49.85 L108.55 50.1 108.55 50.2 108.55 50.4 Q108.5 52.7 108.1 54.75 L107.95 55.25 107.9 55.35 107.85 55.7 M99.4 42.3 L106.25 40.65 M92.15 30.05 L87.45 23.65 74.05 23.65 60.85 23.65 52.6 32.1 45.65 39.2 45.65 48.5 45.65 58.05 45.6 58.7 Q47.15 59.1 48.2 60.05 L60.65 72.5 Q61.45 73.25 62.8 73.4 L64.45 73.4 84.6 73.4 86.85 70.3 M100.4 54.8 Q100.9 52.7 100.95 50.4 L100.95 49.95 Q100.95 47.15 100.3 44.75 M80.25 54.8 L81.2 57.55 Q81.8 59.1 82.8 60.4 85.95 64.7 90.35 64.7 92.65 64.7 94.65 63.55 96.4 62.45 97.85 60.4 L99.4 57.7 100.4 54.8 M80.25 54.8 Q79.7 52.5 79.7 49.95 79.7 48.7 79.85 47.55 M89.75 73.4 L89.8 73.4 89.85 73.45 89.85 73.5 Q90.2 73.85 90.2 74.35 L89.85 75.25 89.0 75.6 88.7 75.6 88.15 75.6 87.45 76.5 83.35 82.9 79.85 88.35 76.05 88.35 71.85 84.3 67.95 88.35 65.1 88.35 62.55 85.4 60.25 85.65 57.35 88.35 53.25 88.35 53.2 88.35 53.2 88.3 51.0 85.85 50.65 85.85 Q47.15 88.35 42.3 88.35 38.05 88.35 34.8 86.4 L33.4 85.4 Q29.75 82.55 29.75 78.4 29.75 77.55 29.9 76.7 L29.35 76.55 29.35 76.5 27.5 76.5 24.35 76.5 21.0 76.5 Q18.8 76.5 16.95 75.6 L15.2 74.7 15.9 74.05 18.0 74.05 17.25 73.35 16.5 72.5 16.25 72.15 15.5 70.95 11.95 70.95 Q11.0 69.2 10.7 67.2 L10.6 65.95 14.15 65.95 14.15 65.6 Q14.15 64.7 14.3 63.8 14.45 62.6 14.9 61.6 L12.4 61.6 11.65 60.95 Q12.1 59.85 12.95 58.85 L13.7 57.95 Q13.7 57.9 13.85 57.85 13.7 57.4 13.7 56.95 13.7 55.8 14.3 54.95 L14.5 54.6 Q13.05 53.25 11.9 51.6 L10.25 51.6 0.0 33.6 7.4 33.6 Q8.0 30.2 9.5 27.1 L9.65 26.85 9.9 26.75 12.05 26.75 14.65 27.4 15.1 26.55 7.6 14.35 7.6 8.1 15.2 8.1 19.8 8.1 24.2 10.0 M32.95 12.35 L32.95 11.35 32.95 11.3 38.95 10.9 40.8 10.95 24.35 4.1 23.95 0.0 41.05 0.0 64.65 5.0 74.5 14.35 76.05 14.35 87.45 23.65 M84.6 73.4 L89.75 73.4 92.2 70.15 M94.65 63.55 L98.25 66.55 M87.45 76.5 L83.55 76.5 80.7 80.6 62.35 80.6 63.85 78.15 64.75 76.5 60.85 76.5 56.9 82.7 56.8 82.75 83.35 82.9 M99.4 57.7 L105.25 61.05 M100.95 50.4 L108.55 50.4 M57.2 10.9 L55.2 7.8 61.9 7.8 66.0 10.9 70.0 14.0 74.45 17.45 78.5 20.55 63.35 20.55 61.3 17.45 59.15 14.0 57.2 10.9 66.0 10.9 M71.55 22.35 L74.05 23.65 M61.3 17.45 L74.45 17.45 M71.55 22.35 L61.95 22.35 43.55 14.35 39.95 14.35 40.05 14.4 60.85 23.65 M43.55 14.35 L43.7 14.35 41.4 11.2 40.8 10.95 M46.75 5.0 L51.0 5.0 34.2 0.9 39.55 0.9 59.7 5.0 64.65 5.0 M51.0 5.0 L59.7 5.0 M52.6 32.1 L47.45 29.95 41.85 36.1 26.9 30.85 22.85 36.1 45.65 39.2 M47.45 29.95 L49.5 27.75 49.4 27.7 30.4 20.55 26.7 12.8 26.6 12.75 15.2 8.1 M61.95 22.35 L46.75 5.0 23.95 0.0 M59.15 14.0 L70.0 14.0 M26.9 12.75 L26.6 12.75 M26.9 12.75 L30.8 12.75 24.2 10.0 M28.0 23.65 L40.75 28.9 38.6 31.1 18.65 23.65 15.55 14.35 24.95 17.45 28.0 23.65 M37.25 14.35 L38.05 14.35 38.95 14.35 32.95 11.35 M36.4 14.4 L37.25 14.35 Q35.2 13.2 32.95 12.35 L32.95 12.45 36.4 14.4 31.95 14.9 34.95 20.55 35.0 20.55 39.9 14.4 38.95 14.35 M39.9 14.4 L40.05 14.4 M39.9 14.4 L39.95 14.35 M31.95 14.9 L30.8 12.75 M30.4 20.55 L34.95 20.55 M11.4 33.6 L12.65 33.6 Q13.05 30.65 14.3 28.0 L9.65 26.85 M14.3 28.0 L14.65 27.4 M12.65 33.6 L15.6 33.6 21.25 42.3 21.25 42.35 24.9 42.75 24.75 42.6 22.85 36.1 M26.9 30.85 L15.2 26.75 15.1 26.55 M17.1 42.3 L19.1 42.6 29.65 43.9 34.2 44.5 38.8 44.5 24.9 42.75 M7.4 33.6 L11.4 33.6 17.1 42.3 21.25 42.3 M24.95 48.5 L11.5 48.5 4.4 36.1 10.3 36.1 15.2 43.9 24.95 47.35 24.95 48.5 M38.8 44.5 L38.8 48.5 45.65 48.5 M38.8 48.5 L38.8 51.6 34.2 51.6 27.55 51.6 29.65 58.5 44.2 58.5 45.55 58.7 45.65 58.05 M33.45 64.55 L30.5 61.1 30.4 61.0 18.25 61.0 17.7 61.0 19.25 63.1 20.8 62.25 20.9 62.2 21.25 62.05 21.5 61.9 21.7 61.9 Q23.1 61.55 25.0 61.9 27.55 62.5 29.5 64.25 L30.9 65.8 Q31.2 65.55 31.6 65.4 L31.85 65.3 33.45 64.55 36.1 63.35 36.65 63.1 37.45 62.95 Q39.55 62.45 42.3 62.95 L44.95 63.7 45.4 63.85 Q47.45 64.6 49.1 65.9 L50.65 67.25 51.8 68.85 52.3 70.45 Q52.4 71.35 52.05 72.1 51.65 73.1 50.45 73.75 L45.95 75.8 45.8 75.85 45.65 75.95 45.25 76.15 43.5 76.5 43.35 76.55 46.15 80.0 47.45 81.5 48.35 82.65 49.65 84.15 Q51.3 82.75 52.0 80.9 L52.15 80.5 52.0 80.35 Q51.3 79.8 51.3 79.0 51.3 78.25 52.0 77.7 52.65 77.15 53.65 77.15 54.55 77.15 55.25 77.7 55.9 78.25 55.9 79.0 55.9 79.8 55.25 80.35 L54.55 80.75 54.3 81.45 Q53.45 83.65 51.15 85.4 L50.85 85.65 51.0 85.85 M19.8 65.15 L20.75 65.15 Q22.2 65.3 23.75 66.25 L25.05 67.2 26.1 68.45 26.55 69.65 26.25 70.35 Q25.75 71.1 24.25 70.9 L24.05 70.9 Q22.7 70.65 21.25 69.7 L20.2 69.0 20.0 68.85 18.9 67.55 Q18.15 66.35 18.7 65.6 19.05 65.2 19.8 65.15 L20.2 66.3 21.3 67.55 21.5 67.75 22.5 68.45 Q23.65 69.2 24.75 69.5 L25.5 69.65 26.55 69.65 M19.45 63.35 L19.6 63.35 20.2 63.3 22.0 63.55 23.9 64.3 Q25.25 64.85 26.4 65.9 28.35 67.55 28.6 69.45 28.7 70.35 28.3 71.05 L27.35 72.05 30.1 70.55 Q29.65 69.7 29.5 68.85 29.15 66.9 30.9 65.8 M21.55 71.9 L21.95 72.4 22.3 72.8 23.6 74.15 Q25.35 75.7 27.5 76.5 M26.2 72.5 L25.65 72.6 23.05 72.4 22.85 72.35 21.55 71.9 Q19.95 71.25 18.6 70.0 16.65 68.35 16.4 66.55 16.25 64.7 17.85 63.8 L14.3 63.8 M27.35 72.05 L27.2 72.05 26.2 72.5 29.35 76.5 M31.85 65.3 L33.65 64.85 34.1 64.8 34.2 64.75 35.4 64.75 37.55 65.0 37.8 65.05 Q41.3 65.75 44.1 67.7 L44.5 68.0 45.4 68.7 45.4 68.75 46.9 70.4 47.2 71.0 47.45 71.45 47.75 72.5 Q47.9 73.75 47.3 74.6 L45.95 75.8 M45.0 73.4 L44.8 73.8 Q44.05 74.95 41.65 74.85 L40.8 74.85 Q38.85 74.6 36.7 73.55 L35.05 72.6 33.5 71.25 32.85 70.5 Q31.6 68.75 32.45 67.55 33.0 66.7 34.3 66.5 L35.5 66.5 Q37.9 66.5 40.5 67.75 L41.65 68.45 44.05 70.45 44.35 70.85 44.8 71.55 Q45.25 72.6 45.0 73.4 L43.75 73.4 42.45 73.3 Q40.7 72.95 38.9 72.05 38.05 71.7 37.35 71.2 L35.65 69.85 35.0 69.05 Q33.95 67.6 34.3 66.5 M43.35 76.55 L41.05 76.5 39.55 76.3 39.45 76.3 38.85 76.2 Q36.0 75.45 33.65 73.95 L32.75 73.35 32.5 73.15 31.95 72.7 30.85 71.55 30.5 71.05 30.1 70.55 M15.05 54.1 L14.5 54.6 M15.4 54.95 L14.45 54.95 14.3 54.95 M15.05 54.1 L14.15 51.6 11.9 51.6 M14.9 61.6 L15.15 61.0 11.65 60.95 M15.55 60.15 L15.05 59.85 14.4 59.1 13.85 57.85 M18.25 61.0 L17.7 60.95 17.7 61.0 M17.7 60.95 Q16.5 60.8 15.55 60.15 L15.15 61.0 M29.65 58.5 L19.3 58.5 Q16.85 58.5 16.2 56.95 L15.4 54.95 15.05 54.1 M19.45 63.35 L19.25 63.1 M17.85 63.8 L17.95 63.8 18.0 63.75 19.3 63.35 19.45 63.35 M15.5 70.95 Q14.2 68.7 14.15 65.95 M18.8 74.7 L15.2 74.7 M24.35 76.5 Q21.4 76.4 19.05 74.85 L18.8 74.7 18.0 74.05 M31.95 77.1 L33.95 77.55 36.45 78.0 38.95 78.55 41.1 79.0 43.2 79.35 45.25 79.8 46.15 80.0 M33.95 79.9 L33.95 77.55 M31.85 79.05 L31.85 78.65 31.85 78.55 31.85 78.25 31.95 77.1 29.9 76.7 M38.6 84.6 L41.05 81.75 38.95 81.35 36.7 80.75 36.4 80.75 35.55 80.5 35.0 80.35 33.95 79.9 31.85 79.05 33.9 83.3 35.45 83.85 38.05 84.5 38.6 84.6 39.65 84.6 42.0 81.95 41.1 81.75 41.05 81.75 41.1 79.0 M47.3 85.7 Q44.95 86.8 42.1 86.8 38.15 86.8 35.25 84.65 L34.85 84.4 Q32.05 82.15 31.85 79.05 M38.95 81.35 L38.95 78.55 M36.4 80.75 L36.45 78.0 M35.45 83.85 L35.25 84.65 M14.15 51.6 L27.55 51.6 M16.5 72.5 L21.95 72.4 M55.75 53.05 L55.75 53.25 Q56.0 55.55 56.85 57.75 L57.5 59.2 Q58.75 61.8 60.85 64.1 L61.05 64.4 Q63.45 66.9 66.2 68.35 68.4 69.5 70.85 70.0 L72.8 70.3 73.4 70.3 74.0 70.3 82.25 70.3 M30.4 61.0 L42.6 61.0 Q44.2 61.0 45.5 61.55 46.3 61.9 47.0 62.5 L59.0 74.75 Q59.95 75.6 61.35 75.6 L88.15 75.6 M45.55 58.7 L45.6 58.7 M52.15 80.5 L52.25 79.95 52.35 79.15 52.35 78.7 52.75 78.35 53.65 78.15 54.5 78.35 54.85 78.9 54.85 79.0 54.8 79.3 54.65 80.05 54.55 80.75 M54.85 78.9 L54.8 79.3 M50.85 85.65 L50.65 85.85 M43.35 76.55 L43.35 76.5 43.5 76.5 M43.95 82.25 L44.2 85.5 47.3 85.7 49.4 84.4 49.65 84.15 M43.95 82.25 L43.2 82.1 42.0 81.95 M48.35 82.65 L47.45 82.6 45.25 82.35 43.95 82.25 M47.45 82.6 L47.45 81.5 M43.2 82.1 L43.2 79.35 M45.25 82.35 L45.25 79.8 M53.25 88.35 L53.2 88.3 56.8 82.75 M80.7 80.6 L77.85 78.15 63.85 78.15 M71.85 84.3 L76.75 84.3 76.05 88.35 M77.85 78.15 L79.0 76.5 64.75 76.5 M62.55 85.4 L61.6 84.3 60.25 85.65 M61.6 84.3 L66.2 84.3 65.1 88.35 M60.85 76.5 L59.0 74.75 M49.4 27.7 L35.0 20.55 M34.2 51.6 L34.2 44.5 M83.55 76.5 L79.0 76.5 M74.5 14.35 L83.65 22.35 71.55 22.35" fill="none" stroke="#000000" stroke-width="0.7" stroke-opacity="0.4"/>
  </g>
  <defs>
    <radialGradient cx="0" cy="0" gradientTransform="matrix(0.0347, 0.0, 0.0, 0.0347, 6.35, 30.9)" gradientUnits="userSpaceOnUse" id="gradient0" r="819.2" spreadMethod="pad">
      <stop offset="0.0" stop-color="#c900ff"/>
      <stop offset="1.0" stop-color="#f1f9fa" stop-opacity="0.29803923"/>
    </radialGradient>
    <radialGradient cx="0" cy="0" gradientTransform="matrix(0.0211, 0.0, 0.0, 0.0211, 44.9, 75.15)" gradientUnits="userSpaceOnUse" id="gradient1" r="819.2" spreadMethod="reflect">
      <stop offset="0.0" stop-color="#aaaaaa"/>
      <stop offset="1.0" stop-color="#515151"/>
    </radialGradient>
    <linearGradient gradientTransform="matrix(-0.005, -0.0088, 0.0082, -0.0047, 42.65, 68.55)" gradientUnits="userSpaceOnUse" id="gradient2" spreadMethod="reflect" x1="-819.2" x2="819.2">
      <stop offset="0.0" stop-color="#3c3c3c"/>
      <stop offset="0.65" stop-color="#ffffff"/>
      <stop offset="1.0" stop-color="#6d6d6d"/>
    </linearGradient>
    <radialGradient cx="0" cy="0" gradientTransform="matrix(0.0053, 0.0, 0.0, 0.0053, 51.75, 79.6)" gradientUnits="userSpaceOnUse" id="gradient3" r="819.2" spreadMethod="reflect">
      <stop offset="0.0" stop-color="#dedede"/>
      <stop offset="1.0" stop-color="#464646"/>
    </radialGradient>
    <linearGradient gradientTransform="matrix(0.0, -0.0247, 0.0228, 0.0, 89.2, 50.0)" gradientUnits="userSpaceOnUse" id="gradient4" spreadMethod="reflect" x1="-819.2" x2="819.2">
      <stop offset="0.0" stop-color="#3c3c3c"/>
      <stop offset="0.65" stop-color="#ffffff"/>
      <stop offset="1.0" stop-color="#6d6d6d"/>
    </linearGradient>
    <linearGradient gradientTransform="matrix(0.0, -0.0247, 0.0169, 0.0, 69.35, 50.0)" gradientUnits="userSpaceOnUse" id="gradient5" spreadMethod="reflect" x1="-819.2" x2="819.2">
      <stop offset="0.0" stop-color="#2c2c2c"/>
      <stop offset="0.65" stop-color="#d4d4d4"/>
      <stop offset="1.0" stop-color="#545454"/>
    </linearGradient>
    <radialGradient cx="0" cy="0" gradientTransform="matrix(0.0171, 0.0, 0.0, 0.0171, 93.3, 49.7)" gradientUnits="userSpaceOnUse" id="gradient6" r="819.2" spreadMethod="reflect">
      <stop offset="0.0" stop-color="#ffc6c6"/>
      <stop offset="0.43" stop-color="#f30202"/>
      <stop offset="1.0" stop-color="#4d0101"/>
    </radialGradient>
    <radialGradient cx="0" cy="0" gradientTransform="matrix(0.0941, 0.0, 0.0, 0.0941, 88.6, 74.45)" gradientUnits="userSpaceOnUse" id="gradient7" r="819.2" spreadMethod="reflect">
      <stop offset="0.0" stop-color="#c9c9c9"/>
      <stop offset="1.0" stop-color="#959595"/>
    </radialGradient>
    <radialGradient cx="0" cy="0" gradientTransform="matrix(0.0229, 0.0, 0.0, 0.0229, 52.65, 4.35)" gradientUnits="userSpaceOnUse" id="gradient8" r="819.2" spreadMethod="reflect">
      <stop offset="0.0" stop-color="#ff3300"/>
      <stop offset="0.24" stop-color="#ff0000"/>
      <stop offset="1.0" stop-color="#a10404"/>
    </radialGradient>
    <radialGradient cx="0" cy="0" gradientTransform="matrix(0.0088, 0.0, 0.0, 0.0088, 36.7, 12.7)" gradientUnits="userSpaceOnUse" id="gradient9" r="819.2" spreadMethod="reflect">
      <stop offset="0.0" stop-color="#aaaaaa"/>
      <stop offset="1.0" stop-color="#515151"/>
    </radialGradient>
    <radialGradient cx="0" cy="0" gradientTransform="matrix(0.0338, 0.0, 0.0, 0.0338, 38.65, 29.55)" gradientUnits="userSpaceOnUse" id="gradient10" r="819.2" spreadMethod="reflect">
      <stop offset="0.0" stop-color="#ff3300"/>
      <stop offset="0.24" stop-color="#ff0000"/>
      <stop offset="1.0" stop-color="#a10404"/>
    </radialGradient>
    <radialGradient cx="0" cy="0" gradientTransform="matrix(0.0271, 0.0, 0.0, 0.0271, 23.25, 47.6)" gradientUnits="userSpaceOnUse" id="gradient11" r="819.2" spreadMethod="reflect">
      <stop offset="0.0" stop-color="#ff3300"/>
      <stop offset="0.24" stop-color="#ff0000"/>
      <stop offset="1.0" stop-color="#a10404"/>
    </radialGradient>
    <linearGradient gradientTransform="matrix(-0.0036, -0.0062, 0.0046, -0.0026, 26.0, 66.05)" gradientUnits="userSpaceOnUse" id="gradient12" spreadMethod="reflect" x1="-819.2" x2="819.2">
      <stop offset="0.0" stop-color="#3c3c3c"/>
      <stop offset="0.65" stop-color="#ffffff"/>
      <stop offset="1.0" stop-color="#6d6d6d"/>
    </linearGradient>
    <radialGradient cx="0" cy="0" gradientTransform="matrix(0.015, 0.0, 0.0, 0.015, 26.7, 72.05)" gradientUnits="userSpaceOnUse" id="gradient13" r="819.2" spreadMethod="reflect">
      <stop offset="0.0" stop-color="#aaaaaa"/>
      <stop offset="1.0" stop-color="#515151"/>
    </radialGradient>
    <radialGradient cx="0" cy="0" gradientTransform="matrix(0.0056, 0.0, 0.0, 0.0056, 23.45, 66.65)" gradientUnits="userSpaceOnUse" id="gradient14" r="819.2" spreadMethod="reflect">
      <stop offset="0.0" stop-color="#ff3300"/>
      <stop offset="0.24" stop-color="#ff0000"/>
      <stop offset="1.0" stop-color="#5e0202"/>
    </radialGradient>
    <radialGradient cx="0" cy="0" gradientTransform="matrix(0.0102, 0.0, 0.0, 0.0102, 25.5, 70.35)" gradientUnits="userSpaceOnUse" id="gradient15" r="819.2" spreadMethod="reflect">
      <stop offset="0.0" stop-color="#dedede"/>
      <stop offset="1.0" stop-color="#464646"/>
    </radialGradient>
    <radialGradient cx="0" cy="0" gradientTransform="matrix(0.0156, 0.0, 0.0, 0.0156, 43.2, 73.95)" gradientUnits="userSpaceOnUse" id="gradient16" r="819.2" spreadMethod="reflect">
      <stop offset="0.0" stop-color="#dedede"/>
      <stop offset="1.0" stop-color="#464646"/>
    </radialGradient>
    <radialGradient cx="0" cy="0" gradientTransform="matrix(0.0091, 0.0, 0.0, 0.0091, 41.1, 68.5)" gradientUnits="userSpaceOnUse" id="gradient17" r="819.2" spreadMethod="reflect">
      <stop offset="0.0" stop-color="#ff3300"/>
      <stop offset="0.24" stop-color="#ff0000"/>
      <stop offset="1.0" stop-color="#5e0202"/>
    </radialGradient>
    <radialGradient cx="0" cy="0" gradientTransform="matrix(0.0071, 0.0, 0.0, 0.0071, 11.5, 66.5)" gradientUnits="userSpaceOnUse" id="gradient18" r="819.2" spreadMethod="reflect">
      <stop offset="0.0" stop-color="#aaaaaa"/>
      <stop offset="1.0" stop-color="#515151"/>
    </radialGradient>
    <radialGradient cx="0" cy="0" gradientTransform="matrix(0.0102, 0.0, 0.0, 0.0102, 39.45, 82.15)" gradientUnits="userSpaceOnUse" id="gradient19" r="819.2" spreadMethod="reflect">
      <stop offset="0.0" stop-color="#aaaaaa"/>
      <stop offset="1.0" stop-color="#515151"/>
    </radialGradient>
    <radialGradient cx="0" cy="0" gradientTransform="matrix(0.0066, 0.0, 0.0, 0.0066, 44.3, 83.0)" gradientUnits="userSpaceOnUse" id="gradient20" r="819.2" spreadMethod="reflect">
      <stop offset="0.0" stop-color="#aaaaaa"/>
      <stop offset="1.0" stop-color="#515151"/>
    </radialGradient>
  </defs>
</svg>
