<?xml version="1.0" encoding="UTF-8" standalone="no"?>
<svg xmlns:xlink="http://www.w3.org/1999/xlink" height="83.0px" width="109.1px" xmlns="http://www.w3.org/2000/svg">
  <g transform="matrix(1.0, 0.0, 0.0, 1.0, 0.05, 0.05)">
    <path d="M66.25 35.4 L68.8 35.4 68.8 35.9 74.45 35.9 78.25 39.65 72.6 39.65 71.75 38.8 69.65 38.8 66.25 38.8 62.75 35.4 66.25 38.8 64.45 38.8 61.5 35.4 62.75 35.4 66.25 35.4 69.65 38.8 66.25 35.4 M71.75 38.8 L68.8 35.9 71.75 38.8" fill="#3f3f3f" fill-rule="evenodd" stroke="none"/>
    <path d="M57.55 82.9 L49.9 77.5 35.3 67.15 35.0 64.75 34.7 62.35 34.1 57.55 27.9 53.15 27.8 52.45 27.35 49.15 27.3 48.7 27.1 47.0 28.4 46.0 52.45 58.6 53.95 70.75 54.0 70.75 61.25 74.6 57.55 82.9 M72.05 50.1 L63.55 69.35 62.15 68.6 59.4 67.15 59.2 66.0 58.75 62.35 58.4 59.2 57.8 54.7 48.05 49.6 45.3 48.1 42.5 46.7 39.7 45.25 37.55 44.1 36.5 35.45 35.6 28.6 38.15 26.35 43.75 21.3 51.0 14.8 54.7 14.8 67.4 14.8 69.0 18.05 56.1 30.3 35.6 28.6 56.1 30.3 56.6 33.65 64.3 42.7 67.75 42.7 72.05 42.7 72.05 50.1 M68.8 24.05 L66.2 24.05 66.2 24.0 69.8 20.6 71.75 20.6 72.6 19.8 78.25 19.8 74.45 23.6 68.8 23.6 68.8 24.05 M71.75 20.6 L68.8 23.6 71.75 20.6 M40.9 9.9 L43.75 9.9 46.8 12.7 47.45 13.25 43.0 15.65 38.8 11.15 39.0 11.05 Q40.1 10.75 40.9 9.9 M49.9 77.5 L47.45 60.1 27.35 49.15 47.45 60.1 49.9 77.5" fill="#666666" fill-rule="evenodd" stroke="none"/>
    <path d="M80.2 70.75 L85.45 74.6 81.95 74.6 80.25 74.6 75.0 74.6 73.25 74.6 68.15 74.6 66.4 74.6 61.25 74.6 54.0 70.75 57.4 70.75 59.75 72.0 62.15 73.25 81.15 73.25 77.75 70.75 80.2 70.75 M90.25 14.8 L97.9 14.8 100.0 18.05 97.3 18.05 72.5 18.05 69.0 18.05 67.4 14.8 67.85 14.8 79.1 14.8 90.25 14.8 M28.4 46.0 L31.8 46.0 32.45 46.3 34.85 47.6 37.6 49.0 40.4 50.5 Q41.8 51.25 43.2 51.95 L45.95 53.4 48.7 54.9 55.85 58.6 52.45 58.6 28.4 46.0" fill="#b2b2b2" fill-rule="evenodd" stroke="none"/>
    <path d="M97.05 39.65 L98.1 41.1 100.1 41.1 104.5 42.7 104.5 50.1 97.7 50.1 90.4 46.25 81.6 50.1 72.05 50.1 72.05 42.7 78.65 41.1 95.25 41.1 94.2 39.65 97.05 39.65 M80.45 69.35 L80.2 70.75 77.75 70.75 78.0 69.35 78.65 69.35 80.45 69.35 M98.1 41.1 L95.25 41.1 98.1 41.1 M56.1 30.3 L59.5 30.3 60.0 33.65 56.6 33.65 60.0 33.65 61.5 35.4 64.45 38.8 67.75 42.7 64.3 42.7 56.6 33.65 56.1 30.3 M55.85 58.6 L56.0 59.2 56.35 62.35 57.25 69.4 57.4 70.75 54.0 70.75 53.95 70.75 52.45 58.6 55.85 58.6" fill="#999999" fill-rule="evenodd" stroke="none"/>
    <path d="M35.0 64.75 L33.7 63.9 28.0 80.2 27.1 80.2 30.3 61.55 27.7 59.9 25.4 58.25 25.25 56.0 24.6 55.55 1.9 80.2 0.8 80.2 19.0 54.5 23.05 54.5 24.9 54.5 27.8 52.45 27.9 53.15 34.1 57.55 34.7 62.35 35.0 64.75 M10.5 50.15 L7.75 47.75 9.8 46.9 7.1 44.6 9.1 43.75 6.4 41.35 8.45 40.55 5.75 38.15 7.8 37.4 5.1 35.0 7.15 34.2 4.4 31.8 6.5 30.95 3.7 28.55 12.55 25.15 12.55 25.3 Q12.0 27.0 11.8 28.9 L11.7 31.15 11.75 32.4 Q11.8 34.1 12.2 35.65 L13.15 38.75 Q13.8 40.25 14.7 41.6 L14.95 42.0 15.7 42.95 15.8 44.65 15.95 48.0 10.5 50.15 M6.3 23.9 L5.75 21.7 5.3 19.55 8.4 16.75 Q8.95 17.7 9.85 18.5 L9.9 18.55 Q11.65 20.0 13.6 20.15 L10.45 21.2 6.3 23.9 M38.7 0.85 L41.0 0.4 42.5 0.2 44.35 0.0 46.85 0.05 51.4 0.65 52.2 0.4 54.0 0.1 Q56.05 -0.05 58.25 0.05 L62.65 0.65 63.35 0.4 65.15 0.1 Q67.2 -0.05 69.4 0.05 L73.95 0.65 74.2 0.7 77.4 1.7 77.65 1.75 81.05 3.6 Q83.25 5.15 84.95 7.5 86.2 9.25 87.15 11.45 L79.8 11.45 79.0 10.1 78.6 9.55 77.7 8.5 76.65 7.55 75.55 7.0 72.9 6.2 72.8 6.2 73.8 7.5 Q75.05 9.25 76.0 11.45 L68.65 11.45 67.85 10.1 67.45 9.55 66.55 8.5 65.5 7.55 64.4 7.0 61.75 6.2 Q59.9 3.7 61.85 1.5 59.9 3.7 61.75 6.2 L61.5 6.1 62.6 7.5 Q63.85 9.25 64.8 11.45 L57.35 11.45 56.6 9.95 Q57.95 9.1 59.45 8.5 L62.6 7.5 59.45 8.5 Q57.95 9.1 56.6 9.95 L56.2 9.55 55.2 8.4 54.3 7.55 53.5 7.2 53.1 7.8 52.45 8.4 50.6 8.9 Q48.95 8.9 47.65 7.8 46.7 6.95 46.3 5.9 L47.4 5.8 50.35 6.1 53.0 6.95 53.5 7.2 53.0 6.95 50.35 6.1 47.4 5.8 46.3 5.9 45.65 6.0 45.55 6.0 44.4 6.2 44.35 6.25 44.1 6.25 43.2 6.4 42.25 6.7 41.5 6.95 41.05 7.8 40.4 8.4 Q39.6 8.9 38.45 8.9 36.9 8.9 35.6 7.8 34.25 6.65 33.95 5.05 L33.95 4.7 Q33.85 3.3 34.7 2.35 35.2 1.6 36.0 1.4 L36.85 1.2 36.95 1.2 38.7 0.85 Q38.0 2.2 37.9 3.3 38.0 2.2 38.7 0.85 M97.3 18.05 L95.7 19.8 78.25 19.8 72.6 19.8 71.75 20.6 69.8 20.6 72.5 18.05 97.3 18.05 M84.95 7.5 L81.95 8.5 84.95 7.5 M73.95 0.65 L73.3 1.25 73.95 0.65 M65.15 0.1 L64.95 0.5 65.15 0.1 M62.8 0.65 L63.05 0.7 64.6 1.15 64.8 0.7 64.6 1.15 66.25 1.7 66.5 1.75 68.35 2.6 68.5 1.5 69.4 0.05 68.5 1.5 68.35 2.6 66.5 1.75 66.25 1.7 64.6 1.15 63.05 0.7 62.8 0.65 62.15 1.25 62.8 0.65 62.65 0.65 62.8 0.65 M68.35 2.6 L69.9 3.6 68.7 4.6 69.9 3.6 68.35 2.6 M72.9 6.2 Q71.05 3.7 73.0 1.5 71.05 3.7 72.9 6.2 M75.35 5.0 Q75.25 5.9 75.55 7.0 75.25 5.9 75.35 5.0 M79.5 5.0 Q78.15 6.4 77.7 8.5 78.15 6.4 79.5 5.0 M77.4 1.7 Q75.7 2.8 75.4 4.6 75.7 2.8 77.4 1.7 M68.35 5.0 Q67.0 6.4 66.55 8.5 67.0 6.4 68.35 5.0 M64.2 5.0 Q64.1 5.9 64.4 7.0 64.1 5.9 64.2 5.0 M70.45 8.7 Q69.2 9.25 67.85 10.1 69.2 9.25 70.45 8.7 M66.25 1.7 Q64.55 2.8 64.25 4.6 64.55 2.8 66.25 1.7 M57.65 4.25 L58.6 3.55 61.5 6.1 58.6 3.55 57.65 4.25 M73.8 7.5 L70.8 8.5 73.8 7.5 M53.65 0.7 L53.45 1.15 54.9 1.6 55.2 1.75 57.2 2.65 58.6 3.55 57.2 2.65 55.2 1.75 54.9 1.6 Q53.8 2.35 53.3 3.3 53.8 2.35 54.9 1.6 L53.45 1.15 51.85 0.7 51.4 0.65 Q49.75 1.9 49.5 3.3 49.75 1.9 51.4 0.65 L51.85 0.7 53.45 1.15 53.65 0.7 M54.0 0.1 L53.8 0.5 54.0 0.1 M58.25 0.05 L57.35 1.5 Q57.2 2.1 57.2 2.65 57.2 2.1 57.35 1.5 L58.25 0.05 M69.9 3.6 Q71.45 4.7 72.8 6.2 71.45 4.7 69.9 3.6 M57.3 4.6 Q55.7 6.2 55.2 8.4 55.7 6.2 57.3 4.6 M42.5 0.2 Q41.35 1.85 41.7 3.3 41.35 1.85 42.5 0.2 M49.45 3.6 Q49.3 4.8 50.35 6.1 49.3 4.8 49.45 3.6 M45.9 3.6 Q46.25 4.7 47.4 5.8 46.25 4.7 45.9 3.6 M46.85 0.05 Q45.5 1.6 45.85 3.3 45.5 1.6 46.85 0.05 M53.15 3.6 Q52.5 5.05 53.0 6.95 52.5 5.05 53.15 3.6 M41.75 3.6 Q42.2 5.05 44.1 6.25 42.2 5.05 41.75 3.6 M43.0 15.65 L41.0 16.7 35.3 16.7 33.2 14.75 29.4 14.75 33.25 13.25 38.8 11.15 43.0 15.65 M8.3 19.75 L5.75 21.7 8.3 19.75 M8.65 19.45 L9.85 18.5 8.65 19.45 M6.5 30.95 L11.8 28.9 6.5 30.95 M7.15 34.2 L11.75 32.4 7.15 34.2 M8.45 40.55 L13.15 38.75 8.45 40.55 M9.1 43.75 L14.7 41.6 9.1 43.75 M9.8 46.9 L15.8 44.65 9.8 46.9 M7.8 37.4 L12.2 35.65 7.8 37.4 M23.05 54.5 L24.6 55.55 23.05 54.5 M30.3 61.55 L33.7 63.9 30.3 61.55 M30.05 59.2 L34.7 62.35 30.05 59.2 M25.25 56.0 L29.4 58.75 25.25 56.0 M37.9 3.6 Q37.9 6.0 41.5 6.95 37.9 6.0 37.9 3.6 M81.6 8.7 L79.0 10.1 81.6 8.7 M81.05 3.6 L79.85 4.6 81.05 3.6" fill="#333333" fill-rule="evenodd" stroke="none"/>
    <path d="M85.75 69.35 L84.0 69.35 88.3 63.9 90.0 63.9 85.75 69.35 M27.1 80.2 L26.15 79.55 27.7 59.9 30.3 61.55 27.1 80.2 M0.8 80.2 L0.0 79.55 15.05 54.5 13.15 53.05 8.7 52.4 8.4 50.95 10.5 50.15 15.95 48.0 15.8 44.65 15.7 42.95 Q17.95 45.55 20.7 46.25 L21.25 46.4 22.8 46.5 24.85 46.25 27.1 45.35 Q29.1 44.2 30.65 42.0 33.9 37.5 33.9 31.15 33.9 24.8 30.65 20.3 L30.55 20.1 32.45 20.1 35.0 22.85 32.45 20.1 30.55 20.1 Q28.4 17.15 25.55 16.2 L29.4 14.75 33.2 14.75 35.3 16.7 41.0 16.7 43.0 15.65 47.45 13.25 47.75 13.15 55.2 13.15 54.7 14.8 51.0 14.8 43.75 21.3 38.15 26.35 35.6 28.6 36.5 35.45 36.0 36.7 34.15 41.8 32.45 46.3 31.8 46.0 28.4 46.0 27.1 47.0 27.3 48.7 27.35 49.15 27.8 52.45 24.9 54.5 23.05 54.5 19.0 54.5 0.8 80.2 M3.7 28.55 L3.2 26.0 6.3 23.9 10.45 21.2 13.6 20.15 14.15 20.15 15.05 20.1 14.95 20.3 Q13.4 22.5 12.55 25.15 L3.7 28.55 M68.75 69.35 L71.15 63.9 72.85 63.9 70.45 69.35 68.75 69.35 M76.9 69.35 L80.15 63.9 81.85 63.9 78.65 69.35 78.0 69.35 76.9 69.35 M81.95 74.6 L78.6 78.95 76.85 78.95 80.25 74.6 81.95 74.6 M75.0 74.6 L72.5 78.95 70.75 78.95 73.25 74.6 75.0 74.6 M68.15 74.6 L66.25 78.95 64.5 78.95 66.4 74.6 68.15 74.6 M66.2 24.05 L68.8 24.05 68.8 35.4 68.8 24.05 68.8 23.6 74.45 23.6 74.45 35.9 68.8 35.9 68.8 35.4 66.25 35.4 66.2 24.05 66.25 35.4 62.75 35.4 61.5 35.4 60.0 33.65 59.5 30.3 62.75 27.3 66.2 24.0 66.2 24.05 M37.45 18.7 L35.3 16.7 37.45 18.7 M62.75 27.3 L62.75 35.4 62.75 27.3 M24.9 50.2 L23.05 51.4 17.15 51.4 20.3 50.2 21.25 46.4 20.3 50.2 17.15 51.4 23.05 51.4 24.9 50.2 M43.75 21.3 L40.2 21.3 37.8 19.0 40.2 21.3 43.75 21.3 M35.4 23.3 L38.15 26.35 35.4 23.3 M17.15 51.4 L13.15 53.05 17.15 51.4 M19.0 54.5 L15.05 54.5 19.0 54.5 M27.3 48.7 L25.25 50.0 27.3 48.7" fill="#4c4c4c" fill-rule="evenodd" stroke="none"/>
    <path d="M100.0 18.05 L98.4 19.8 105.3 19.8 109.0 23.5 109.0 35.95 105.3 39.65 97.05 39.65 94.2 39.65 78.25 39.65 74.45 35.9 74.45 23.6 78.25 19.8 95.7 19.8 97.3 18.05 100.0 18.05 M104.5 50.1 L89.55 69.35 85.75 69.35 90.0 63.9 88.3 63.9 84.0 69.35 80.45 69.35 78.65 69.35 81.85 63.9 80.15 63.9 76.9 69.35 70.45 69.35 72.85 63.9 71.15 63.9 68.75 69.35 67.85 69.35 63.55 69.35 72.05 50.1 81.6 50.1 80.2 52.5 95.95 52.5 97.7 50.1 104.5 50.1 M85.45 74.6 L78.95 82.9 57.55 82.9 61.25 74.6 66.4 74.6 64.5 78.95 66.25 78.95 68.15 74.6 73.25 74.6 70.75 78.95 72.5 78.95 75.0 74.6 80.25 74.6 76.85 78.95 78.6 78.95 81.95 74.6 85.45 74.6 M98.4 19.8 L95.7 19.8 98.4 19.8 M83.05 36.95 L84.8 37.2 Q87.55 37.2 89.45 34.9 91.45 32.7 91.45 29.5 91.45 26.4 89.45 24.1 87.55 21.9 84.8 21.9 L83.05 22.15 Q81.4 22.7 80.1 24.1 78.2 26.4 78.2 29.5 78.2 32.7 80.1 34.9 81.4 36.4 83.05 36.95 M98.8 22.15 Q97.3 22.7 96.05 24.1 94.3 26.4 94.3 29.5 94.3 32.7 96.05 34.9 97.3 36.4 98.8 36.95 L100.4 37.2 Q102.95 37.2 104.7 34.9 106.6 32.7 106.6 29.5 106.6 26.4 104.7 24.1 102.95 21.9 100.4 21.9 L98.8 22.15 M56.1 30.3 L69.0 18.05 72.5 18.05 69.8 20.6 66.2 24.0 62.75 27.3 59.5 30.3 56.1 30.3" fill="#7f7f7f" fill-rule="evenodd" stroke="none"/>
    <path d="M83.05 36.95 Q81.4 36.4 80.1 34.9 78.2 32.7 78.2 29.5 78.2 26.4 80.1 24.1 81.4 22.7 83.05 22.15 84.7 22.7 86.05 24.1 87.95 26.4 87.95 29.5 87.95 32.7 86.05 34.9 84.7 36.4 83.05 36.95 M98.8 36.95 Q97.3 36.4 96.05 34.9 94.3 32.7 94.3 29.5 94.3 26.4 96.05 24.1 97.3 22.7 98.8 22.15 100.35 22.7 101.6 24.1 103.35 26.4 103.35 29.5 103.35 32.7 101.6 34.9 100.35 36.4 98.8 36.95" fill="#000000" fill-rule="evenodd" stroke="none"/>
    <path d="M83.05 22.15 L84.8 21.9 Q87.55 21.9 89.45 24.1 91.45 26.4 91.45 29.5 91.45 32.7 89.45 34.9 87.55 37.2 84.8 37.2 L83.05 36.95 Q84.7 36.4 86.05 34.9 87.95 32.7 87.95 29.5 87.95 26.4 86.05 24.1 84.7 22.7 83.05 22.15" fill="url(#gradient0)" fill-rule="evenodd" stroke="none"/>
    <path d="M57.35 11.45 L64.8 11.45 66.55 11.45 66.8 11.95 67.85 14.8 67.4 14.8 54.7 14.8 55.2 13.15 55.7 11.45 57.35 11.45" fill="url(#gradient1)" fill-rule="evenodd" stroke="none"/>
    <path d="M46.3 5.9 Q46.7 6.95 47.65 7.8 48.95 8.9 50.6 8.9 L52.45 8.4 53.1 7.8 53.5 7.2 54.3 7.55 54.25 7.7 Q54.0 8.75 53.3 9.6 52.4 10.7 51.1 11.05 L49.55 11.3 Q47.2 11.3 45.3 9.6 43.75 8.3 43.2 6.4 L44.1 6.25 44.35 6.25 44.4 6.2 45.55 6.0 45.65 6.0 46.3 5.9" fill="url(#gradient2)" fill-rule="evenodd" stroke="none"/>
    <path d="M43.2 6.4 Q43.75 8.3 45.3 9.6 47.2 11.3 49.55 11.3 L51.1 11.05 46.8 12.7 43.75 9.9 40.9 9.9 41.15 9.6 Q41.9 8.75 42.1 7.7 L42.25 6.7 43.2 6.4" fill="url(#gradient3)" fill-rule="evenodd" stroke="none"/>
    <path d="M33.4 0.55 L34.15 0.25 35.65 0.05 Q37.25 0.05 38.7 0.85 L36.95 1.2 36.85 1.2 36.0 1.4 Q35.2 1.6 34.7 2.35 33.85 3.3 33.95 4.7 L33.95 5.05 Q34.25 6.65 35.6 7.8 36.9 8.9 38.45 8.9 39.6 8.9 40.4 8.4 L41.05 7.8 41.5 6.95 42.25 6.7 42.1 7.7 Q41.9 8.75 41.15 9.6 L40.9 9.9 Q40.1 10.75 39.0 11.05 L38.75 11.1 37.45 11.3 Q35.1 11.3 33.25 9.6 31.3 8.0 30.95 5.65 L30.85 4.7 Q30.85 3.0 31.9 1.7 32.6 0.9 33.4 0.55" fill="url(#gradient4)" fill-rule="evenodd" stroke="none"/>
    <path d="M8.4 16.75 Q7.8 15.7 7.6 14.6 7.25 12.25 8.6 10.6 9.25 9.85 10.1 9.4 L14.2 7.85 28.2 2.5 33.4 0.55 Q32.6 0.9 31.9 1.7 30.85 3.0 30.85 4.7 L30.95 5.65 Q31.3 8.0 33.25 9.6 35.1 11.3 37.45 11.3 L38.75 11.1 38.8 11.15 33.25 13.25 29.4 14.75 25.55 16.2 22.8 15.8 Q19.25 15.8 16.5 18.4 L15.05 20.1 14.15 20.15 13.6 20.15 Q11.65 20.0 9.9 18.55 L9.85 18.5 Q8.95 17.7 8.4 16.75 M28.2 2.5 L26.75 3.7 Q25.7 5.05 25.7 6.8 L25.7 7.3 25.7 6.8 Q25.7 5.05 26.75 3.7 L28.2 2.5 M25.75 7.75 Q26.1 10.1 28.0 11.7 29.95 13.3 32.3 13.3 L33.25 13.25 32.3 13.3 Q29.95 13.3 28.0 11.7 26.1 10.1 25.75 7.75 M14.2 7.85 Q13.4 8.35 12.7 9.1 11.65 10.4 11.65 12.1 L11.75 13.1 11.65 12.1 Q11.65 10.4 12.7 9.1 13.4 8.35 14.2 7.85 M11.9 13.7 Q12.35 15.65 14.05 17.05 15.2 18.05 16.5 18.4 15.2 18.05 14.05 17.05 12.35 15.65 11.9 13.7" fill="url(#gradient5)" fill-rule="evenodd" stroke="none"/>
    <path d="M16.5 18.4 Q19.25 15.8 22.8 15.8 L25.55 16.2 Q28.4 17.15 30.55 20.1 L30.65 20.3 Q33.9 24.8 33.9 31.15 33.9 37.5 30.65 42.0 29.1 44.2 27.1 45.35 L24.85 46.25 22.8 46.5 21.25 46.4 20.7 46.25 Q17.95 45.55 15.7 42.95 L14.95 42.0 14.7 41.6 Q13.8 40.25 13.15 38.75 L12.2 35.65 Q11.8 34.1 11.75 32.4 L11.7 31.15 11.8 28.9 Q12.0 27.0 12.55 25.3 L12.55 25.15 Q13.4 22.5 14.95 20.3 L15.05 20.1 16.5 18.4 M25.8 21.5 Q23.7 19.45 21.0 19.45 17.5 19.45 15.05 22.85 L14.0 24.6 Q13.1 26.4 12.8 28.5 12.55 29.75 12.55 31.15 L12.6 32.05 Q12.65 33.8 13.1 35.3 13.5 36.9 14.3 38.3 L15.05 39.4 15.55 40.1 Q17.9 42.85 21.0 42.85 23.7 42.85 25.85 40.8 L27.0 39.4 Q29.45 36.0 29.45 31.15 29.45 26.3 27.0 22.85 L25.8 21.5" fill="url(#gradient6)" fill-rule="evenodd" stroke="none"/>
    <path d="M25.8 21.5 L23.7 21.05 Q20.65 21.05 18.55 24.0 16.4 26.95 16.4 31.15 16.4 35.3 18.55 38.3 20.65 41.2 23.7 41.2 L25.85 40.8 Q23.7 42.85 21.0 42.85 17.9 42.85 15.55 40.1 L15.05 39.4 14.3 38.3 Q13.5 36.9 13.1 35.3 12.65 33.8 12.6 32.05 L12.55 31.15 Q12.55 29.75 12.8 28.5 13.1 26.4 14.0 24.6 L15.05 22.85 Q17.5 19.45 21.0 19.45 23.7 19.45 25.8 21.5" fill="url(#gradient7)" fill-rule="evenodd" stroke="none"/>
    <path d="M87.15 11.45 L88.9 11.45 90.25 14.8 79.1 14.8 77.95 11.95 78.05 11.45 79.8 11.45 87.15 11.45" fill="url(#gradient8)" fill-rule="evenodd" stroke="none"/>
    <path d="M98.8 22.15 L100.4 21.9 Q102.95 21.9 104.7 24.1 106.6 26.4 106.6 29.5 106.6 32.7 104.7 34.9 102.95 37.2 100.4 37.2 L98.8 36.95 Q100.35 36.4 101.6 34.9 103.35 32.7 103.35 29.5 103.35 26.4 101.6 24.1 100.35 22.7 98.8 22.15" fill="url(#gradient9)" fill-rule="evenodd" stroke="none"/>
    <path d="M76.0 11.45 L77.75 11.45 77.95 11.95 79.1 14.8 67.85 14.8 66.8 11.95 66.9 11.45 68.65 11.45 76.0 11.45" fill="url(#gradient10)" fill-rule="evenodd" stroke="none"/>
    <path d="M25.85 40.8 L23.7 41.2 Q20.65 41.2 18.55 38.3 16.4 35.3 16.4 31.15 16.4 26.95 18.55 24.0 20.65 21.05 23.7 21.05 L25.8 21.5 27.0 22.85 Q29.45 26.3 29.45 31.15 29.45 36.0 27.0 39.4 L25.85 40.8" fill="url(#gradient11)" fill-rule="evenodd" stroke="none"/>
    <path d="M63.55 69.35 L67.85 69.35 68.75 69.35 70.45 69.35 76.9 69.35 78.0 69.35 77.75 70.75 81.15 73.25 62.15 73.25 59.75 72.0 57.4 70.75 57.25 69.4 56.35 62.35 56.0 59.2 55.85 58.6 48.7 54.9 45.95 53.4 43.2 51.95 Q41.8 51.25 40.4 50.5 L37.6 49.0 34.85 47.6 32.45 46.3 34.15 41.8 36.0 36.7 36.5 35.45 37.55 44.1 39.7 45.25 42.5 46.7 45.3 48.1 45.65 51.25 45.3 48.1 48.05 49.6 57.8 54.7 58.4 59.2 57.4 59.2 58.4 59.2 58.75 62.35 59.2 66.0 59.4 67.15 62.15 68.6 63.55 69.35 M42.7 48.55 L42.5 46.7 42.7 48.55 M40.15 48.55 L39.7 45.25 40.15 48.55 M37.2 45.7 L37.6 49.0 37.2 45.7 M34.6 45.7 L34.85 47.6 34.6 45.7 M36.0 36.7 L37.15 45.4 36.0 36.7 M34.55 45.4 L34.15 41.8 34.55 45.4 M67.85 69.35 L66.6 70.6 67.85 69.35 M66.3 70.9 L65.2 72.0 59.75 72.0 65.2 72.0 66.3 70.9 M59.75 69.4 L61.3 69.4 62.15 68.6 61.3 69.4 59.75 69.4 M57.05 59.2 L56.0 59.2 57.05 59.2 M48.3 51.25 L48.05 49.6 48.3 51.25 M58.75 62.35 L57.4 62.35 58.75 62.35 M57.05 62.35 L56.35 62.35 57.05 62.35 M48.7 54.9 L48.3 51.6 48.7 54.9 M45.95 53.4 L45.7 51.6 45.95 53.4 M59.45 69.4 L57.25 69.4 59.45 69.4 M59.2 66.0 L57.4 66.0 59.2 66.0 M43.2 51.95 L42.8 48.85 43.2 51.95 M40.4 50.5 L40.2 48.85 40.4 50.5" fill="url(#gradient12)" fill-rule="evenodd" stroke="none"/>
    <path d="M94.2 39.65 L95.25 41.1 78.65 41.1 72.05 42.7 67.75 42.7 64.45 38.8 66.25 38.8 69.65 38.8 71.75 38.8 72.6 39.65 78.25 39.65 94.2 39.65" fill="url(#gradient13)" fill-rule="evenodd" stroke="none"/>
    <path d="M97.7 50.1 L95.95 52.5 80.2 52.5 81.6 50.1 90.4 46.25 97.7 50.1" fill="url(#gradient14)" fill-rule="evenodd" stroke="none"/>
    <path d="M100.0 18.05 L98.4 19.8 105.3 19.8 109.0 23.5 109.0 35.95 105.3 39.65 97.05 39.65 98.1 41.1 100.1 41.1 104.5 42.7 104.5 50.1 89.55 69.35 85.75 69.35 84.0 69.35 80.45 69.35 80.2 70.75 85.45 74.6 78.95 82.9 57.55 82.9 49.9 77.5 35.3 67.15 35.0 64.75 33.7 63.9 28.0 80.2 27.1 80.2 26.15 79.55 27.7 59.9 25.4 58.25 25.25 56.0 24.6 55.55 1.9 80.2 0.8 80.2 0.0 79.55 15.05 54.5 13.15 53.05 8.7 52.4 8.4 50.95 10.5 50.15 7.75 47.75 9.8 46.9 7.1 44.6 9.1 43.75 6.4 41.35 8.45 40.55 5.75 38.15 7.8 37.4 5.1 35.0 7.15 34.2 4.4 31.8 6.5 30.95 3.7 28.55 3.2 26.0 6.3 23.9 5.75 21.7 5.3 19.55 8.4 16.75 Q7.8 15.7 7.6 14.6 7.25 12.25 8.6 10.6 9.25 9.85 10.1 9.4 L14.2 7.85 28.2 2.5 33.4 0.55 34.15 0.25 35.65 0.05 Q37.25 0.05 38.7 0.85 L41.0 0.4 42.5 0.2 44.35 0.0 46.85 0.05 51.4 0.65 52.2 0.4 54.0 0.1 Q56.05 -0.05 58.25 0.05 L62.65 0.65 63.35 0.4 65.15 0.1 Q67.2 -0.05 69.4 0.05 L73.95 0.65 74.2 0.7 77.4 1.7 77.65 1.75 81.05 3.6 Q83.25 5.15 84.95 7.5 86.2 9.25 87.15 11.45 L88.9 11.45 90.25 14.8 97.9 14.8 100.0 18.05 97.3 18.05 95.7 19.8 98.4 19.8 M81.95 8.5 L84.95 7.5 M83.05 22.15 L84.8 21.9 Q87.55 21.9 89.45 24.1 91.45 26.4 91.45 29.5 91.45 32.7 89.45 34.9 87.55 37.2 84.8 37.2 L83.05 36.95 Q81.4 36.4 80.1 34.9 78.2 32.7 78.2 29.5 78.2 26.4 80.1 24.1 81.4 22.7 83.05 22.15 84.7 22.7 86.05 24.1 87.95 26.4 87.95 29.5 87.95 32.7 86.05 34.9 84.7 36.4 83.05 36.95 M98.8 36.95 Q97.3 36.4 96.05 34.9 94.3 32.7 94.3 29.5 94.3 26.4 96.05 24.1 97.3 22.7 98.8 22.15 L100.4 21.9 Q102.95 21.9 104.7 24.1 106.6 26.4 106.6 29.5 106.6 32.7 104.7 34.9 102.95 37.2 100.4 37.2 L98.8 36.95 Q100.35 36.4 101.6 34.9 103.35 32.7 103.35 29.5 103.35 26.4 101.6 24.1 100.35 22.7 98.8 22.15 M97.05 39.65 L94.2 39.65 95.25 41.1 98.1 41.1 M81.6 50.1 L80.2 52.5 95.95 52.5 97.7 50.1 90.4 46.25 81.6 50.1 72.05 50.1 63.55 69.35 67.85 69.35 68.75 69.35 71.15 63.9 72.85 63.9 70.45 69.35 76.9 69.35 80.15 63.9 81.85 63.9 78.65 69.35 80.45 69.35 M85.75 69.35 L90.0 63.9 88.3 63.9 84.0 69.35 M85.45 74.6 L81.95 74.6 78.6 78.95 76.85 78.95 80.25 74.6 75.0 74.6 72.5 78.95 70.75 78.95 73.25 74.6 68.15 74.6 66.25 78.95 64.5 78.95 66.4 74.6 61.25 74.6 57.55 82.9 M104.5 50.1 L97.7 50.1 M73.3 1.25 L73.95 0.65 M79.8 11.45 L79.0 10.1 78.6 9.55 77.7 8.5 76.65 7.55 75.55 7.0 72.9 6.2 72.8 6.2 73.8 7.5 Q75.05 9.25 76.0 11.45 L77.75 11.45 77.95 11.95 78.05 11.45 79.8 11.45 87.15 11.45 M75.4 4.6 Q75.7 2.8 77.4 1.7 M77.7 8.5 Q78.15 6.4 79.5 5.0 M75.55 7.0 Q75.25 5.9 75.35 5.0 M73.0 1.5 Q71.05 3.7 72.9 6.2 M64.8 0.7 L64.6 1.15 66.25 1.7 66.5 1.75 68.35 2.6 68.5 1.5 69.4 0.05 M68.7 4.6 L69.9 3.6 68.35 2.6 M62.15 1.25 L62.8 0.65 62.65 0.65 M64.6 1.15 L63.05 0.7 62.8 0.65 M64.95 0.5 L65.15 0.1 M64.4 7.0 L65.5 7.55 66.55 8.5 Q67.0 6.4 68.35 5.0 M61.75 6.2 L64.4 7.0 Q64.1 5.9 64.2 5.0 M64.8 11.45 Q63.85 9.25 62.6 7.5 L59.45 8.5 Q57.95 9.1 56.6 9.95 L57.35 11.45 64.8 11.45 66.55 11.45 66.8 11.95 66.9 11.45 68.65 11.45 67.85 10.1 67.45 9.55 66.55 8.5 M67.85 10.1 Q69.2 9.25 70.45 8.7 M61.75 6.2 Q59.9 3.7 61.85 1.5 M61.5 6.1 L61.75 6.2 M64.25 4.6 Q64.55 2.8 66.25 1.7 M62.6 7.5 L61.5 6.1 58.6 3.55 57.65 4.25 M69.0 18.05 L67.4 14.8 54.7 14.8 51.0 14.8 43.75 21.3 38.15 26.35 35.6 28.6 56.1 30.3 69.0 18.05 72.5 18.05 97.3 18.05 M67.4 14.8 L67.85 14.8 66.8 11.95 M68.8 24.05 L66.2 24.05 66.25 35.4 68.8 35.4 68.8 24.05 68.8 23.6 71.75 20.6 69.8 20.6 66.2 24.0 66.2 24.05 M78.25 19.8 L72.6 19.8 71.75 20.6 M74.45 23.6 L78.25 19.8 95.7 19.8 M74.45 23.6 L68.8 23.6 M69.8 20.6 L72.5 18.05 M67.85 14.8 L79.1 14.8 77.95 11.95 M70.8 8.5 L73.8 7.5 M68.65 11.45 L76.0 11.45 M72.8 6.2 Q71.45 4.7 69.9 3.6 M58.6 3.55 L57.2 2.65 55.2 1.75 54.9 1.6 Q53.8 2.35 53.3 3.3 M57.2 2.65 Q57.2 2.1 57.35 1.5 L58.25 0.05 M53.8 0.5 L54.0 0.1 M54.9 1.6 L53.45 1.15 51.85 0.7 51.4 0.65 Q49.75 1.9 49.5 3.3 M53.45 1.15 L53.65 0.7 M46.3 5.9 Q46.7 6.95 47.65 7.8 48.95 8.9 50.6 8.9 L52.45 8.4 53.1 7.8 53.5 7.2 53.0 6.95 50.35 6.1 47.4 5.8 46.3 5.9 45.65 6.0 45.55 6.0 44.4 6.2 44.35 6.25 44.1 6.25 43.2 6.4 Q43.75 8.3 45.3 9.6 47.2 11.3 49.55 11.3 L51.1 11.05 Q52.4 10.7 53.3 9.6 54.0 8.75 54.25 7.7 L54.3 7.55 53.5 7.2 M54.3 7.55 L55.2 8.4 Q55.7 6.2 57.3 4.6 M57.35 11.45 L55.7 11.45 55.2 13.15 54.7 14.8 M55.2 8.4 L56.2 9.55 56.6 9.95 M53.0 6.95 Q52.5 5.05 53.15 3.6 M45.85 3.3 Q45.5 1.6 46.85 0.05 M47.4 5.8 Q46.25 4.7 45.9 3.6 M50.35 6.1 Q49.3 4.8 49.45 3.6 M41.7 3.3 Q41.35 1.85 42.5 0.2 M42.25 6.7 L42.1 7.7 Q41.9 8.75 41.15 9.6 L40.9 9.9 43.75 9.9 46.8 12.7 51.1 11.05 M41.5 6.95 L42.25 6.7 43.2 6.4 M41.5 6.95 L41.05 7.8 40.4 8.4 Q39.6 8.9 38.45 8.9 36.9 8.9 35.6 7.8 34.25 6.65 33.95 5.05 L33.95 4.7 Q33.85 3.3 34.7 2.35 35.2 1.6 36.0 1.4 L36.85 1.2 36.95 1.2 38.7 0.85 Q38.0 2.2 37.9 3.3 M44.1 6.25 Q42.2 5.05 41.75 3.6 M43.0 15.65 L41.0 16.7 35.3 16.7 37.45 18.7 M55.2 13.15 L47.75 13.15 47.45 13.25 43.0 15.65 38.8 11.15 33.25 13.25 29.4 14.75 33.2 14.75 35.3 16.7 M46.8 12.7 L47.45 13.25 M56.1 30.3 L59.5 30.3 62.75 27.3 66.2 24.0 M56.6 33.65 L60.0 33.65 59.5 30.3 M56.1 30.3 L56.6 33.65 64.3 42.7 67.75 42.7 64.45 38.8 61.5 35.4 60.0 33.65 M42.5 46.7 L42.7 48.55 M45.3 48.1 L42.5 46.7 39.7 45.25 40.15 48.55 M62.75 35.4 L61.5 35.4 M68.8 35.9 L68.8 35.4 M66.25 35.4 L62.75 35.4 66.25 38.8 69.65 38.8 66.25 35.4 M62.75 35.4 L62.75 27.3 M66.25 38.8 L64.45 38.8 M78.25 39.65 L72.6 39.65 71.75 38.8 69.65 38.8 M72.05 42.7 L78.65 41.1 95.25 41.1 M78.25 39.65 L74.45 35.9 68.8 35.9 71.75 38.8 M67.75 42.7 L72.05 42.7 72.05 50.1 M74.45 35.9 L74.45 23.6 M38.75 11.1 L37.45 11.3 Q35.1 11.3 33.25 9.6 31.3 8.0 30.95 5.65 L30.85 4.7 Q30.85 3.0 31.9 1.7 32.6 0.9 33.4 0.55 M39.0 11.05 L38.75 11.1 38.8 11.15 39.0 11.05 Q40.1 10.75 40.9 9.9 M33.25 13.25 L32.3 13.3 Q29.95 13.3 28.0 11.7 26.1 10.1 25.75 7.75 M25.7 7.3 L25.7 6.8 Q25.7 5.05 26.75 3.7 L28.2 2.5 M16.5 18.4 Q19.25 15.8 22.8 15.8 L25.55 16.2 29.4 14.75 M25.85 40.8 L23.7 41.2 Q20.65 41.2 18.55 38.3 16.4 35.3 16.4 31.15 16.4 26.95 18.55 24.0 20.65 21.05 23.7 21.05 L25.8 21.5 Q23.7 19.45 21.0 19.45 17.5 19.45 15.05 22.85 L14.0 24.6 Q13.1 26.4 12.8 28.5 12.55 29.75 12.55 31.15 L12.6 32.05 Q12.65 33.8 13.1 35.3 13.5 36.9 14.3 38.3 L15.05 39.4 15.55 40.1 Q17.9 42.85 21.0 42.85 23.7 42.85 25.85 40.8 L27.0 39.4 Q29.45 36.0 29.45 31.15 29.45 26.3 27.0 22.85 L25.8 21.5 M30.55 20.1 L30.65 20.3 Q33.9 24.8 33.9 31.15 33.9 37.5 30.65 42.0 29.1 44.2 27.1 45.35 L24.85 46.25 22.8 46.5 21.25 46.4 20.3 50.2 17.15 51.4 23.05 51.4 24.9 50.2 M35.0 22.85 L32.45 20.1 30.55 20.1 Q28.4 17.15 25.55 16.2 M37.8 19.0 L40.2 21.3 43.75 21.3 M11.75 13.1 L11.65 12.1 Q11.65 10.4 12.7 9.1 13.4 8.35 14.2 7.85 M5.75 21.7 L8.3 19.75 M9.85 18.5 Q8.95 17.7 8.4 16.75 M13.6 20.15 Q11.65 20.0 9.9 18.55 L9.85 18.5 8.65 19.45 M6.3 23.9 L10.45 21.2 13.6 20.15 14.15 20.15 15.05 20.1 16.5 18.4 Q15.2 18.05 14.05 17.05 12.35 15.65 11.9 13.7 M12.55 25.15 Q13.4 22.5 14.95 20.3 L15.05 20.1 M11.75 32.4 L11.7 31.15 11.8 28.9 6.5 30.95 M12.2 35.65 Q11.8 34.1 11.75 32.4 L7.15 34.2 M11.8 28.9 Q12.0 27.0 12.55 25.3 L12.55 25.15 3.7 28.55 M14.7 41.6 Q13.8 40.25 13.15 38.75 L8.45 40.55 M15.7 42.95 L14.95 42.0 14.7 41.6 9.1 43.75 M10.5 50.15 L15.95 48.0 15.8 44.65 9.8 46.9 M15.8 44.65 L15.7 42.95 Q17.95 45.55 20.7 46.25 L21.25 46.4 M13.15 38.75 L12.2 35.65 7.8 37.4 M35.6 28.6 L36.5 35.45 37.55 44.1 39.7 45.25 M32.45 46.3 L34.15 41.8 36.0 36.7 36.5 35.45 M28.4 46.0 L27.1 47.0 27.3 48.7 27.35 49.15 47.45 60.1 49.9 77.5 M28.4 46.0 L31.8 46.0 32.45 46.3 34.85 47.6 34.6 45.7 M37.6 49.0 L37.2 45.7 M55.85 58.6 L48.7 54.9 45.95 53.4 43.2 51.95 Q41.8 51.25 40.4 50.5 L37.6 49.0 34.85 47.6 M34.15 41.8 L34.55 45.4 M37.15 45.4 L36.0 36.7 M38.15 26.35 L35.4 23.3 M27.8 52.45 L27.9 53.15 34.1 57.55 34.7 62.35 35.0 64.75 M24.6 55.55 L23.05 54.5 19.0 54.5 0.8 80.2 M23.05 54.5 L24.9 54.5 27.8 52.45 27.35 49.15 M27.1 80.2 L30.3 61.55 27.7 59.9 M29.4 58.75 L25.25 56.0 M34.7 62.35 L30.05 59.2 M33.7 63.9 L30.3 61.55 M15.05 54.5 L19.0 54.5 M13.15 53.05 L17.15 51.4 M59.75 72.0 L65.2 72.0 66.3 70.9 M66.6 70.6 L67.85 69.35 M68.75 69.35 L70.45 69.35 M63.55 69.35 L62.15 68.6 61.3 69.4 59.75 69.4 M77.75 70.75 L80.2 70.75 M77.75 70.75 L78.0 69.35 76.9 69.35 M78.65 69.35 L78.0 69.35 M57.4 59.2 L58.4 59.2 57.8 54.7 48.05 49.6 48.3 51.25 M56.0 59.2 L57.05 59.2 M57.4 70.75 L57.25 69.4 56.35 62.35 56.0 59.2 55.85 58.6 52.45 58.6 53.95 70.75 54.0 70.75 57.4 70.75 59.75 72.0 62.15 73.25 81.15 73.25 77.75 70.75 M45.7 51.6 L45.95 53.4 M48.3 51.6 L48.7 54.9 M56.35 62.35 L57.05 62.35 M57.4 62.35 L58.75 62.35 58.4 59.2 M58.75 62.35 L59.2 66.0 59.4 67.15 62.15 68.6 M57.4 66.0 L59.2 66.0 M57.25 69.4 L59.45 69.4 M75.0 74.6 L73.25 74.6 M68.15 74.6 L66.4 74.6 M61.25 74.6 L54.0 70.75 M45.3 48.1 L45.65 51.25 M42.8 48.85 L43.2 51.95 M48.05 49.6 L45.3 48.1 M25.25 50.0 L27.3 48.7 M40.2 48.85 L40.4 50.5 M52.45 58.6 L28.4 46.0 M41.5 6.95 Q37.9 6.0 37.9 3.6 M81.95 74.6 L80.25 74.6 M78.25 39.65 L94.2 39.65 M79.1 14.8 L90.25 14.8 M79.85 4.6 L81.05 3.6 M79.0 10.1 L81.6 8.7" fill="none" stroke="#000000" stroke-width="0.7" stroke-opacity="0.4"/>
  </g>
  <defs>
    <linearGradient gradientTransform="matrix(0.0, -0.0093, 0.0051, 0.0, 87.25, 29.5)" gradientUnits="userSpaceOnUse" id="gradient0" spreadMethod="pad" x1="-819.2" x2="819.2">
      <stop offset="0.0" stop-color="#666666"/>
      <stop offset="0.29411764705882354" stop-color="#b2b2b2"/>
      <stop offset="1.0" stop-color="#333333"/>
    </linearGradient>
    <linearGradient gradientTransform="matrix(0.008, 0.0, 0.0, 0.002, 61.25, 13.15)" gradientUnits="userSpaceOnUse" id="gradient1" spreadMethod="pad" x1="-819.2" x2="819.2">
      <stop offset="0.0" stop-color="#666666"/>
      <stop offset="0.29411764705882354" stop-color="#b2b2b2"/>
      <stop offset="1.0" stop-color="#333333"/>
    </linearGradient>
    <radialGradient cx="0" cy="0" gradientTransform="matrix(0.0104, 0.0, 0.0, 0.0104, 45.8, 7.25)" gradientUnits="userSpaceOnUse" id="gradient2" r="819.2" spreadMethod="pad">
      <stop offset="0.0" stop-color="#b2b2b2"/>
      <stop offset="1.0" stop-color="#333333"/>
    </radialGradient>
    <linearGradient gradientTransform="matrix(0.0062, 0.0, 0.0, 0.0038, 46.0, 9.6)" gradientUnits="userSpaceOnUse" id="gradient3" spreadMethod="pad" x1="-819.2" x2="819.2">
      <stop offset="0.0" stop-color="#666666"/>
      <stop offset="0.29411764705882354" stop-color="#b2b2b2"/>
      <stop offset="1.0" stop-color="#333333"/>
    </linearGradient>
    <radialGradient cx="0" cy="0" gradientTransform="matrix(0.0121, 0.0, 0.0, 0.0121, 32.8, 4.5)" gradientUnits="userSpaceOnUse" id="gradient4" r="819.2" spreadMethod="pad">
      <stop offset="0.0" stop-color="#b2b2b2"/>
      <stop offset="1.0" stop-color="#333333"/>
    </radialGradient>
    <linearGradient gradientTransform="matrix(0.0029, 0.0071, -0.0171, 0.0071, 22.4, 11.1)" gradientUnits="userSpaceOnUse" id="gradient5" spreadMethod="pad" x1="-819.2" x2="819.2">
      <stop offset="0.0" stop-color="#666666"/>
      <stop offset="0.29411764705882354" stop-color="#b2b2b2"/>
      <stop offset="1.0" stop-color="#333333"/>
    </linearGradient>
    <radialGradient cx="0" cy="0" gradientTransform="matrix(0.0332, 0.0, 0.0, 0.0332, 14.9, 21.1)" gradientUnits="userSpaceOnUse" id="gradient6" r="819.2" spreadMethod="pad">
      <stop offset="0.0" stop-color="#b2b2b2"/>
      <stop offset="1.0" stop-color="#333333"/>
    </radialGradient>
    <radialGradient cx="0" cy="0" gradientTransform="matrix(0.0274, 0.0, 0.0, 0.0274, 23.5, 41.45)" gradientUnits="userSpaceOnUse" id="gradient7" r="819.2" spreadMethod="pad">
      <stop offset="0.0" stop-color="#b2b2b2"/>
      <stop offset="1.0" stop-color="#333333"/>
    </radialGradient>
    <linearGradient gradientTransform="matrix(0.0075, 0.0, 0.0, 0.002, 84.1, 13.1)" gradientUnits="userSpaceOnUse" id="gradient8" spreadMethod="pad" x1="-819.2" x2="819.2">
      <stop offset="0.0" stop-color="#666666"/>
      <stop offset="0.29411764705882354" stop-color="#b2b2b2"/>
      <stop offset="1.0" stop-color="#333333"/>
    </linearGradient>
    <linearGradient gradientTransform="matrix(0.0, -0.0093, 0.0047, 0.0, 102.7, 29.5)" gradientUnits="userSpaceOnUse" id="gradient9" spreadMethod="pad" x1="-819.2" x2="819.2">
      <stop offset="0.0" stop-color="#666666"/>
      <stop offset="0.29411764705882354" stop-color="#b2b2b2"/>
      <stop offset="1.0" stop-color="#333333"/>
    </linearGradient>
    <linearGradient gradientTransform="matrix(0.0075, 0.0, 0.0, 0.002, 72.95, 13.1)" gradientUnits="userSpaceOnUse" id="gradient10" spreadMethod="pad" x1="-819.2" x2="819.2">
      <stop offset="0.0" stop-color="#666666"/>
      <stop offset="0.29411764705882354" stop-color="#b2b2b2"/>
      <stop offset="1.0" stop-color="#333333"/>
    </linearGradient>
    <radialGradient cx="0" cy="0" gradientTransform="matrix(0.0151, 0.0, 0.0, 0.0151, 28.0, 30.25)" gradientUnits="userSpaceOnUse" id="gradient11" r="819.2" spreadMethod="pad">
      <stop offset="0.0" stop-color="#ff1919"/>
      <stop offset="0.47843137254901963" stop-color="#790303"/>
      <stop offset="1.0" stop-color="#380000"/>
    </radialGradient>
    <radialGradient cx="0" cy="0" gradientTransform="matrix(0.0372, 0.0, 0.0, 0.0372, 56.25, 55.75)" gradientUnits="userSpaceOnUse" id="gradient12" r="819.2" spreadMethod="pad">
      <stop offset="0.0" stop-color="#ff1919"/>
      <stop offset="0.47843137254901963" stop-color="#790303"/>
      <stop offset="1.0" stop-color="#380000"/>
    </radialGradient>
    <radialGradient cx="0" cy="0" gradientTransform="matrix(0.0314, 0.0, 0.0, 0.0314, 69.5, 40.25)" gradientUnits="userSpaceOnUse" id="gradient13" r="819.2" spreadMethod="pad">
      <stop offset="0.0" stop-color="#ff1919"/>
      <stop offset="0.47843137254901963" stop-color="#790303"/>
      <stop offset="1.0" stop-color="#380000"/>
    </radialGradient>
    <radialGradient cx="0" cy="0" gradientTransform="matrix(0.0353, 0.0, 0.0, 0.0353, 70.5, 40.25)" gradientUnits="userSpaceOnUse" id="gradient14" r="819.2" spreadMethod="pad">
      <stop offset="0.0" stop-color="#ff1919"/>
      <stop offset="0.47843137254901963" stop-color="#790303"/>
      <stop offset="1.0" stop-color="#380000"/>
    </radialGradient>
  </defs>
</svg>
