<svg xmlns="http://www.w3.org/2000/svg" xmlns:xlink="http://www.w3.org/1999/xlink" width="210" height="197">
<path fill="#CCC" d="M118.9 37.55L106.8 27.15L110.3 27.15L118.25 34.65L129.35 34.65L128.8 32.3L133.5 32.3L136.25 34.65L147.35 34.65L146.75 32.3L151.55 32.3L154.2 34.65L165.35 34.65L164.15 30.05L172.85 37.55L118.9 37.55M171.1 63.7L175.2 63L179.25 63L175.25 63.7Q162.25 65.7 149.8 65.55Q160.3 65.45 171.1 63.7M146.45 111.55L139.05 111.55L142.75 110.9Q154.55 108.9 164.8 108.25Q171.4 107.85 177.4 108Q163.35 108.4 146.45 111.55M64.25 38.95L69.4 38.95L64.25 38.95L55.8 30.5L60.95 30.5L69.4 38.95L73.05 42.65L77.8 47.4L72.65 47.4L64.25 38.95" />
<path fill="#555" d="M105.55 61.7L101.5 62.15L124.05 53.55L126.55 53.95Q137.45 55.9 148.75 56.05Q136.9 56.15 125.5 54.3L120.3 55.8L125.5 54.3Q136.9 56.15 148.75 56.05Q161.05 56.25 173.95 54.25L174.45 57.35Q150.95 61.35 120.55 57.35L120.55 57.3L120.3 55.8L105.55 61.7M121.3 63.75L121.3 63.65L121.25 63L121.25 62.85L121.15 61.7Q153.45 65.85 174.95 61.05L175.2 63L171.1 63.7Q160.3 65.45 149.8 65.55Q137.35 65.35 125.35 63L121.3 63.75M150.05 19L161.2 19L164.15 30.05L165.35 34.65L154.2 34.65L150.05 19M132.05 19L143.2 19L144.25 23L145.1 26L146.75 32.3L145.1 26L149.85 26L151.55 32.3L146.75 32.3L147.35 34.65L136.25 34.65L132.05 19M114.1 19L125.2 19L126.3 23L127.1 26L131.85 26L133.5 32.3L128.8 32.3L129.35 34.65L118.25 34.65L114.1 19M128.8 32.3L127.1 26L128.8 32.3M135.75 93.95Q131.2 95.3 126.2 97.5Q124.25 98.35 122.25 99.35L117.25 99.35Q119.25 98.35 121.25 97.5Q126.2 95.3 130.75 93.95L134.65 92.95L135.5 92.85L137.8 92.75L139.45 92.7L139.45 92.75L139.5 92.95L135.75 93.95M63.55 118.75L66.65 118.75L66.65 121.65L61.55 121.65L63.55 118.75M66.65 125.7L66.65 129.5L58.75 125.7L59.5 124.65L61.55 121.65L66.65 121.65L66.65 125.7M66.65 129.5L56.1 129.5L58.75 125.7L66.65 125.7M66.65 152.9L57.6 152.9L54.95 152.9L50.45 148.4L59.1 139.7L66.65 139.7L66.65 152.9" />
<linearGradient
id="LinearGradID_95" gradientUnits="userSpaceOnUse" gradientTransform="matrix(1, 0.04, -0.01, 0, 139.3, 37.45)" x1="-819.2" x2="819.2">
<stop stop-color="#CCC" />
<stop offset="1" stop-color="#AAA" />
</linearGradient>
<path fill="url(#LinearGradID_95)" d="M148.75 56.05Q137.45 55.9 126.55 53.95L124.05 53.55Q123.05 48.75 118.9 37.55L172.85 37.55Q177.1 49.35 177.9 53.55L173.95 54.25Q161.05 56.25 148.75 56.05M125.55 74.9L125.65 70.6L125.4 63.75L125.35 63Q137.35 65.35 149.8 65.55Q162.25 65.7 175.25 63.7L179.25 63L179.55 70.6L179.45 74.9Q155.4 67 125.55 74.9M97.45 10.15Q95.65 8.85 93.85 7.7Q82.45 0.55 68.7 0.1L68.3 0L122.05 0L122.45 0Q138.5 0.55 151.35 10.15L97.45 10.15" />
<radialGradient
id="RadialGradID_96" gradientUnits="userSpaceOnUse" gradientTransform="matrix(0.1, 0, 0, 0.1, 159.5, 78)" r="819.2">
<stop stop-color="#BBB"/>
<stop offset="1" stop-color="#666"/>
</radialGradient>
<path fill="url(#RadialGradID_96)" d="M91.9 97.65L89.75 97.85L87.75 97.65L84.7 98.05L82.6 98.75Q85.95 94.4 88.55 92.6L89.25 92.1Q98.35 86.15 106.35 82.15Q116.85 76.85 125.55 74.9Q155.4 67 179.45 74.9Q181.6 77.65 183.4 80.5Q186.4 85.35 188.5 90.8L188.95 92.3L186.55 92.35L183.1 92.5L185 99.25L189 100L191.25 100.6L191.6 102.35L192.1 105.75L192.4 108.4Q185.35 107.75 177.4 108Q171.4 107.85 164.8 108.25Q154.55 108.9 142.75 110.9L139.05 111.55L113 111.55Q110.65 115.1 107.6 118.15Q107.3 111.5 104.45 106.4L102.95 104.05Q98.85 98.4 93.35 97.75Q114.3 84 129.6 80.5Q135.5 78.95 141.25 78.05L146.3 86.3L160.05 84.8L175.15 85.55L173.75 78.05Q178.7 78.95 183.4 80.5Q178.7 78.95 173.75 78.05L175.15 85.55L160.05 84.8L146.3 86.3L141.25 78.05Q135.5 78.95 129.6 80.5Q114.3 84 93.35 97.75L91.9 97.65M119.4 103.35L123.6 101.95Q133.15 99.05 140.8 99.5L139.5 92.95L139.45 92.75L139.45 92.7L137.8 92.75L135.5 92.85L134.65 92.95L130.75 93.95Q126.2 95.3 121.25 97.5Q119.25 98.35 117.25 99.35L119.4 103.35M160.05 84.8L164.8 108.25L160.05 84.8" />
<linearGradient
id="LinearGradID_97" gradientUnits="userSpaceOnUse" gradientTransform="matrix(1, 0.04, -0.01, 0, 242.65, 140.85)" x1="-819.2" x2="819.2" >
<stop stop-color="#AAA" />
<stop offset="1" stop-color="#444" />
</linearGradient>
<path style="fill:url(#LinearGradID_97) " d="M145.5 149L143.25 151.9L140.75 154.75L145.85 154.75L150.65 149L152.2 146.8L159.9 146.8L158.35 149L156.1 151.9L153.55 154.75L158.7 154.75Q161.35 151.95 163.5 149L165.05 146.8L172.75 146.8L165.05 146.8Q168.4 141.95 170.65 136.6L171.7 134Q174.05 127.6 174.95 120.6L169.75 120.85L169.4 123.35Q168.45 128.9 166.55 134L165.5 136.6Q164 140.1 162 143.5L159.9 146.8L152.2 146.8Q155.55 141.95 157.8 136.6L158.85 134Q161 128.1 162 121.75L162 121.65L156.75 122.35L156.35 124.5Q155.4 129.4 153.7 134L152.7 136.6Q151.2 140.1 149.15 143.5L147.1 146.8L137.5 146.8Q140.65 141.85 142.75 136.45L143.6 133.8Q145.9 126.75 146.4 118.9L157.3 117.15L162.5 116.5L170.3 115.75L175.45 115.5L177.4 115.4L183.1 115.35L188.25 115.55L192.4 115.8L195.95 116.2L201 117Q205.1 117.75 208.9 118.9Q205.1 117.75 201 117L195.95 116.2L192.4 115.8L188.25 115.55L183.1 115.35L177.4 115.4L175.45 115.5L170.3 115.75L162.5 116.5L157.3 117.15L146.4 118.9L146.4 118.55L146.45 115.05L146.45 112.35L146.45 111.55Q163.35 108.4 177.4 108Q185.35 107.75 192.4 108.4Q201.45 109.25 208.9 111.55L209 115.05L208.9 118.9L208.4 123.85Q206.7 136.4 200.1 146.8L198.75 148.8Q195.85 152.85 192.3 156.55Q179.55 169.85 162.65 172.9L165.2 167.85Q168.2 166.3 171.05 164.25L171.55 163.85L167.15 163.85L133 163.85L132.5 164.25L129.65 166.15L126.9 167.7L121.95 169.95L117.85 171.45Q111.3 173.4 103.9 173.75L92.35 173.75Q99.7 173.4 106.3 171.45L110.4 169.95Q115.95 167.7 120.95 164.25L122.65 163.05Q126.35 160.15 129.75 156.55L131.65 154.55Q134.15 151.75 136.15 148.8L137.5 146.8L147.1 146.8L145.5 149M171.55 154.75L176.35 149L177.9 146.8L185.6 146.8L177.9 146.8Q181.25 141.95 183.5 136.6L184.55 134Q186.85 127.6 187.8 120.6L182.7 120.45L182.25 123.35Q181.25 128.9 179.4 134L178.35 136.6L174.85 143.5L172.75 146.8L171.2 149L168.95 151.9L166.4 154.75L171.55 154.75M184.4 154.75Q187.05 151.95 189.2 149L190.75 146.8L200.1 146.8L190.75 146.8Q194.1 141.95 196.35 136.6L197.35 134Q199.45 128.25 200.45 122L195.4 121.2L194.8 124.85Q193.85 129.6 192.25 134L191.2 136.6L187.7 143.5L185.6 146.8L184.05 149L181.8 151.9L179.25 154.75L184.4 154.75" />
<path fill="#333" d="M126 190.5L128.6 190.5L145.65 179.9L153.8 179.9L152.85 181.7L129.95 196L117.15 196L126 190.5M103.7 190.5L109.8 190.5L129.75 178L134.15 169.25L137.95 173.8L134 181.7L111.1 196L94.5 196L92.25 190.5L103.7 190.5M63.65 177.4L52.9 177.4L63.65 177.4L62 185.75L54.3 185.75L53.35 180.05L52.9 177.4L50.8 164.85L34.85 164.85L27.9 164.85L25.35 153.9L22.35 141.05L18.55 141.05L16.9 133.95L46.15 133.95L46.15 141.05L46.15 144.1L48.05 146L50.45 148.4L54.95 152.9L57.6 152.9L57.6 158.15L62.35 162.85L66.5 162.85M36.55 27.1L36.55 34.95L25.9 34.95L29.1 29L36.55 27.1M141.15 17.9L138.05 12.35L150.05 19L154.2 34.65L151.55 32.3L149.85 26L144.25 23L143.2 19L141.15 17.9M131.85 26L126.3 23L125.2 19L123.2 17.9L120.1 12.35L132.05 19L136.25 34.65L133.5 32.3L131.85 26M102.1 12.35L114.1 19L118.25 34.65L110.3 27.15L102.1 12.35M165.2 167.85L167.15 163.85L171.55 163.85L171.05 164.25Q168.2 166.3 165.2 167.85M110.65 61.45L111.6 64.7L121.15 61.7L121.25 62.85L121.25 63L121.3 63.65L121.3 63.75L120.25 63.95L108.3 67.4L105.55 61.7L120.3 55.8L120.55 57.3L110.65 61.45M73.05 42.65L69.4 38.95L60.95 30.5L55.8 30.5L43.65 30.5L42.85 34.95L36.55 34.95L36.55 27.1L45.45 24.8Q59.1 26.7 66.1 29.65L69.35 31.25L76.3 42.65L73.05 42.65M58.6 19.5Q58.75 17.5 60.8 14.85L61.15 14.45L62.2 13.25Q63.95 11.4 66.2 10Q69.4 7.9 71.7 7.9L71.8 7.9Q71.75 9.85 69.65 12.55L68.95 13.45L68.5 14L67.55 14.9L64.25 17.45Q61.05 19.5 58.75 19.5L58.6 19.5M50.15 14.2L49.5 15.05L49.2 15.35Q47.75 16.95 45.85 18.15Q43.3 19.75 41.4 19.75L41.35 19.75Q41.45 18.35 42.7 16.6L43.1 16.05L44.15 14.8Q45.6 13.3 47.35 12.2Q49.95 10.55 51.8 10.55L51.85 10.55Q51.8 12.05 50.15 14.2M63.6 56.25L65.15 58.55L61.65 58.55Q61.05 56.4 59.6 54.65L57.55 52.85Q55.9 51.85 53.95 51.8L49.45 51.8Q51.7 50.2 54.25 49.45L55.1 49.75Q57.75 50.75 60.1 52.65L60.35 52.85L62.55 55L63.6 56.25M69.25 74.2L69.25 75.6L62 75.6L62 69.9L62 64.25L62 64.2L62 61.2L61.65 58.55L65.15 58.55Q66.75 61.2 67.75 64.2Q68.65 66.9 69.05 69.9L69.25 74.2M67.75 64.2L62 64.2L67.75 64.2M69.05 69.9L62 69.9L69.05 69.9M68.55 81.3L62 81.3L62 75.6L69.25 75.6Q69.15 78.55 68.55 81.3M57.55 52.85L60.35 52.85L57.55 52.85M62 86.95L66.7 86.95L62 86.95L62 81.3L68.55 81.3L68 83.4L66.7 86.95Q65.45 89.7 63.6 92.1L63.2 92.65Q60.7 95.75 57.75 97.4L55.05 98.7L54.25 98.95Q52.35 98.4 50.65 97.4L48.7 96.1L54 96.1Q57.25 96.05 59.6 93.3L60.1 92.65L60.9 91.3Q61.9 89.35 62 86.95M57.75 97.4L50.65 97.4L57.75 97.4M60.1 92.65L63.2 92.65L60.1 92.65M84.05 126.4L81 129.45L86.25 129.45L83.4 132.3L87.75 132.3L86.05 134.05Q84.6 133.45 83.4 132.3L82.6 131.55L81.5 130.2L81 129.45Q80.1 128 79.45 126.4L78.7 123.55Q78.4 122 78.35 120.3L78.3 119.55Q78.3 118.35 78.45 117.25Q78.6 115.7 79 114.2Q79.4 112.65 80.15 111.2Q80.7 110 81.5 108.9L82.25 108L83.4 108L80.15 111.2L82 111.2L79 114.2L81.45 114.2L78.45 117.25L81.4 117.25L78.35 120.3L81.95 120.3L78.7 123.55L82.3 123.55L79.5 126.4L79.45 126.4L79.5 126.4L84.05 126.4M77.3 143.1Q76.45 144.75 76 146.65Q75.75 147.85 75.65 148.95L75.45 148.95L75.45 139.7L75.45 133.15L76.6 134.85L77.3 135.8L77.3 143.1M93.05 153.25L98.5 147.75L101.65 156.35L100.55 157.05L95.45 160.2L93.05 153.25L91.95 150.05L97.35 144.6L91.95 150.05L88.9 141.15L89.75 141.1L91.9 141.2L93.05 141.15L95.85 140.55L97.35 144.6L98.5 147.75L93.05 153.25M22.35 141.05L26.05 141.05Q26.05 142.8 27.05 144.1Q28.05 145.35 29.4 145.35Q30.8 145.35 31.8 144.1Q32.8 142.8 32.8 141.05L46.15 141.05L32.8 141.05Q32.8 139.3 31.8 138Q30.8 136.75 29.4 136.75Q28.05 136.75 27.05 138Q26.05 139.3 26.05 141.05L22.35 141.05M30.4 156.95Q31.4 158.2 32.8 158.2Q34.2 158.2 35.2 156.95Q36.2 155.7 36.2 153.9L40.1 153.9L48.05 146L40.1 153.9L36.2 153.9Q36.2 152.15 35.2 150.9Q34.2 149.6 32.8 149.6Q31.4 149.6 30.4 150.9Q29.4 152.15 29.4 153.9Q29.4 155.7 30.4 156.95M25.35 153.9L29.4 153.9L25.35 153.9M66.5 162.85L63.65 177.4L62.35 162.85L57.6 158.15L57.6 152.9L66.65 152.9L68.45 152.9L66.5 162.85" />
<path fill="#666" d="M137.95 173.8L134.15 169.25L159.05 169.25L162.5 173.3L162.9 173.8L137.95 173.8M16.65 117.5L17.65 121.15L18.7 124.65L25.1 124.65L54.35 124.65L47.9 133.95L46.15 133.95L16.9 133.95L11.15 133.95L8.55 125.15L0 96.1L2.75 89.25L8.7 74.2L12.65 74.2L18.95 74.2L13.95 86.85L11.85 92.2L10.4 95.8L10.3 96.1L11.3 99.4L12.35 103.05L13.4 106.65L14.5 110.25L15.55 113.85L16.5 117.2L16.65 117.5M138.05 12.35L149.2 12.35L154.05 15.05L161.2 19L150.05 19L138.05 12.35M145.1 26L144.25 23L149.85 26L145.1 26M114.1 19L102.1 12.35L113.25 12.35L123.2 17.9L125.2 19L114.1 19M126.3 23L131.85 26L127.1 26L126.3 23M120.1 12.35L131.2 12.35L141.15 17.9L143.2 19L132.05 19L120.1 12.35M64.25 38.95L72.65 47.4L42.2 38.95L42.85 34.95L43.65 30.5L55.8 30.5L64.25 38.95M72.65 47.4L72.5 47.35Q67.05 42.9 60.3 42.65L54.05 42.65L53.05 42.65L49.8 43Q44.9 43.95 40.75 47.35L41.5 43L42.2 38.95L64.25 38.95M8.55 125.15L12.25 121.5L16.5 117.2L12.25 121.5L8.55 125.15M2.75 89.25L12.25 121.5L2.75 89.25" />
<path fill="#BBB" d="M123.2 17.9L113.25 12.35L102.1 12.35L110.3 27.15L106.8 27.15L97.45 10.15L151.35 10.15L154.05 15.05L149.2 12.35L138.05 12.35L141.15 17.9L131.2 12.35L120.1 12.35L123.2 17.9M105.55 61.7L108.3 67.4L104.5 68.5L101.5 62.15L105.55 61.7M123.6 101.95L119.4 103.35L117.25 99.35L122.25 99.35L123.6 101.95" />
<linearGradient
id="LinearGradID_98" gradientUnits="userSpaceOnUse" gradientTransform="matrix(-0.003, 0.03, -0.01, 0, 56.75, 11.75)" x1="-819.2" x2="819.2">
<stop stop-color="#DDD" />
<stop offset="1" stop-color="#999" />
</linearGradient>
<path style="fill:url(#LinearGradID_98) " d="M72.45 15.8Q79.15 17.35 83.4 20.7L69.35 31.25L66.1 29.65Q59.1 26.7 45.45 24.8L36.55 27.1L29.1 29L22.15 30.75L19.3 29L16.4 27.15Q36.3 11.05 52.35 3.25Q58.45 0.35 65.35 0.1L66.1 0L66.2 0L68.3 0L68.7 0.1Q82.45 0.55 93.85 7.7Q95.65 8.85 97.45 10.15L83.4 20.7Q79.15 17.35 72.45 15.8M54.1 14.5L55.45 14.45Q54.65 15.7 54.3 16.85Q53.9 18 53.9 19Q53.95 19.85 54.3 20.45L54.35 20.55L54.95 21.15L56.2 22.4L56.75 23.05Q57.55 23.65 59 23.65Q61.5 23.65 64.75 21.9L66.3 21Q69.45 19 71.9 16.35L72.45 15.8L73.45 14.5Q76.35 10.7 76.3 8.05Q76.25 7 75.8 6.35L75.35 5.9L74 4.55L73.35 3.85L73.15 3.75L71.2 3.3Q69.85 3.3 68.25 3.85Q66.25 4.55 63.9 6.05Q60.9 7.9 58.6 10.4L56.75 12.5L55.45 14.45L54.1 14.5M52.95 7.2Q52.3 6.85 51.4 6.85Q48.95 6.85 45.5 9.05Q43.15 10.55 41.3 12.5L39.85 14.2Q38.1 16.5 37.7 18.3Q28.35 21.95 19.3 29Q28.35 21.95 37.7 18.3Q37.55 18.85 37.55 19.35Q37.6 20.15 37.9 20.65L38.35 21.1L39.4 22.1L39.85 22.65L41.65 23.1Q44.1 23.1 47.5 20.95Q49.95 19.35 51.95 17.3L53.15 15.75L54.1 14.5L54.3 14.2Q55.5 12.2 55.45 10.6Q55.45 9.8 55.05 9.25L54.7 8.9L53.6 7.8L52.95 7.2" />
<path style="fill:#999999" d="M76.3 42.65L69.35 31.25L83.4 20.7L97.45 10.15L106.8 27.15L77.6 44.9L76.3 42.65M72 118.75L66.65 118.75L66.65 105.8L68.85 105.8Q72.85 105.8 76.4 104.3Q72.2 110.4 72 118.75M66.65 139.7L66.65 129.5L73.7 129.5L75.45 133.15L75.45 139.7L66.65 139.7" />
<path style="fill:#888888" d="M85.9 58.55L80.35 49.4L77.6 44.9L106.8 27.15L118.9 37.55L85.9 58.55M54.35 124.65L60.75 115.35L65.9 115.35L63.55 118.75L61.55 121.65L59.5 124.65L54.35 124.65M66.65 121.65L72.05 121.65Q72.2 123.75 72.65 125.7L73.3 128.25L73.7 129.5L66.65 129.5L66.65 125.7L66.65 121.65L66.65 118.75L72 118.75L72 119.5L72.05 121.65L66.65 121.65M72.65 125.7L66.65 125.7L72.65 125.7M75.45 152.9L68.45 152.9L66.65 152.9L66.65 139.7L75.45 139.7L75.45 148.95L75.45 152.9" />
<path style="fill:#777777" d="M89.25 92.1L88.6 85.95L88 79.85L102.7 74.05L106.35 82.15L102.7 74.05L88 79.85L85.9 58.55L118.9 37.55Q123.05 48.75 124.05 53.55L101.5 62.15L104.5 68.5L108.3 67.4L120.25 63.95L121.3 63.75L125.35 63L125.4 63.75L125.65 70.6L125.55 74.9Q116.85 76.85 106.35 82.15Q98.35 86.15 89.25 92.1M107.6 118.15Q110.65 115.1 113 111.55L139.05 111.55L146.45 111.55L146.45 112.35L146.45 115.05L146.4 118.55L146.4 118.9Q145.9 126.75 143.6 133.8L142.75 136.45Q140.65 141.85 137.5 146.8L127.45 140.35L122.6 144.75L104.35 132.8L105.5 130.5L106.15 128.95L106.25 128.55Q107.3 125.2 107.55 121.45L107.6 119.5L107.6 118.15M25.1 124.65L24.05 121.1L23 117.5L21.95 113.85L20.85 110.25L19.8 106.65L19.3 105.05L18.7 103.05L17.65 99.4L16.6 95.8L15.5 92.2L13.95 86.85L18.95 74.2L22.65 74.2L22.65 74.75Q22.65 87.4 27.8 97.25L19.3 105.05L27.8 97.25Q29.5 100.5 31.75 103.45Q40.65 115.05 53.15 115.35L58.3 115.35L60.75 115.35L54.35 124.65M54.35 124.65L25.1 124.65L59.5 124.65L58.75 125.7L56.1 129.5L53.05 133.95L47.9 133.95L54.35 124.65M136.15 148.8Q134.15 151.75 131.65 154.55L129.75 156.55Q126.35 160.15 122.65 163.05L120.95 164.25Q115.95 167.7 110.4 169.95L106.3 171.45Q99.7 173.4 92.35 173.75L90.1 173.75L90.1 162.7L95.45 160.2L100.55 157.05L101.65 156.35L105.2 153.45L109.45 149.4L109.65 149.1Q107.4 139.4 103.8 133.7L104.35 132.8L122.6 144.75L127.45 140.35L137.5 146.8L136.15 148.8M146.4 118.9L119.6 118.9Q116.15 124.2 112 128.55L106.25 128.55L112 128.55Q116.15 124.2 119.6 118.9L146.4 118.9" />
<linearGradient
id="LinearGradID_99" gradientUnits="userSpaceOnUse" gradientTransform="matrix(0, 0.04, -0.02, 0, 85, 74.2)" x1="-819.2" x2="819.2">
<stop stop-color="#888" />
<stop offset="0.2" stop-color="#BBB"/>
<stop offset="1" stop-color="#444"/>
</linearGradient>
<path style="fill:url(#LinearGradID_99)" d="M77.55 74.25Q77.55 61.15 70.5 51.9L68.35 49.4L80.35 49.4L68.35 49.4L66.15 47.35Q63.2 44.9 59.9 43.75Q57.05 42.75 54.05 42.65L60.3 42.65Q67.05 42.9 72.5 47.35L72.65 47.4L77.8 47.4L73.05 42.65L76.3 42.65L77.6 44.9L80.35 49.4L85.9 58.55L88 79.85L88.6 85.95L89.25 92.1L88.55 92.6Q85.95 94.4 82.6 98.75Q79.3 100.3 76.6 104.05L76.4 104.3Q72.85 105.8 68.85 105.8L66.65 105.8L54.25 105.8Q57.15 105.7 59.85 104.75Q65.8 102.65 70.5 96.55Q74.15 91.75 75.9 85.95L88.6 85.95L75.9 85.95Q77.55 80.55 77.55 74.25" />
<radialGradient
id="RadialGradID_100" gradientUnits="userSpaceOnUse" gradientTransform="matrix(0.04, 0, 0, 0.04, 97, 107.2)"  r="819.2">
<stop stop-color="#BBB"/>
<stop offset="1" stop-color="#444"/>
</radialGradient>
<path style="fill:url(#RadialGradID_100) " d="M98.8 104.05Q100.25 106.05 101.25 108.4Q103.45 113.3 103.45 119.5L103.4 121.45Q103.15 125.2 102.1 128.55L102 128.95L101.35 130.5L101.3 130.8Q100.25 132.95 98.8 134.85Q97.1 137.25 95.15 138.75Q92.65 140.55 89.75 141.1L88.9 141.15L87.75 141.2Q83.75 141.2 80.45 138.85Q79.05 137.8 77.8 136.4L77.3 135.8L76.6 134.85L75.45 133.15L73.7 129.5L73.3 128.25L72.65 125.7Q72.2 123.75 72.05 121.65L72 119.5L72 118.75Q72.2 110.4 76.4 104.3L76.6 104.05Q79.3 100.3 82.6 98.75L84.7 98.05L87.75 97.65L89.75 97.85Q94.95 98.75 98.8 104.05M91.25 132.3L92.35 131.2L93.1 130.2L93.65 129.45L95.2 126.35L95.25 126.1L95.3 125.95L95.9 123.55L96.25 120.3L96.25 119.55L96.15 117.25L95.6 114.2L94.5 111.2L93.1 108.9L92.4 108Q90.1 105.3 87.3 104.65L85.4 104.4Q81.55 104.4 78.65 107.7L77.65 108.9Q74.5 113.3 74.5 119.55Q74.5 125.8 77.65 130.2L78.8 131.55Q81.6 134.65 85.4 134.65L86.6 134.65L87.4 134.45Q89.45 133.95 91.25 132.3" />
<linearGradient
id="LinearGradID_101" gradientUnits="userSpaceOnUse" gradientTransform="matrix(0, 0.0265503, -0.0265656, 0, 98.7, 119.4)" spreadMethod ="pad" x1="-819.2" y1="0" x2="819.2" y2="0" >
<stop  offset="0" style="stop-color:#888888;stop-opacity:1" />
<stop  offset="0.203922" style="stop-color:#CCCCCC;stop-opacity:1" />
<stop  offset="1" style="stop-color:#444444;stop-opacity:1" />
</linearGradient>
<path style="fill:url(#LinearGradID_101) " d="M102.95 134.85L99.95 138.25L99.35 138.75Q97.65 139.95 95.85 140.55L93.05 141.15L91.9 141.2L89.75 141.1Q92.65 140.55 95.15 138.75Q97.1 137.25 98.8 134.85Q100.25 132.95 101.3 130.8L101.35 130.5L102 128.95L102.1 128.55Q103.15 125.2 103.4 121.45L103.45 119.5Q103.45 113.3 101.25 108.4Q100.25 106.05 98.8 104.05Q94.95 98.75 89.75 97.85L91.9 97.65L93.35 97.75Q98.85 98.4 102.95 104.05L104.45 106.4Q107.3 111.5 107.6 118.15L107.6 119.5L107.55 121.45Q107.3 125.2 106.25 128.55L106.15 128.95L105.5 130.5L104.35 132.8L103.8 133.7L102.95 134.85" />
<path style="fill:#AAAAAA" d="M54.35 20.55L54.3 20.45Q53.95 19.85 53.9 19Q53.9 18 54.3 16.85Q54.65 15.7 55.45 14.45L56.75 12.5L58.6 10.4Q60.9 7.9 63.9 6.05Q66.25 4.55 68.25 3.85Q69.85 3.3 71.2 3.3L73.15 3.75L73.35 3.85L74 4.55L74.3 5.4L74.35 6.05Q74.4 7.3 73.8 8.8Q73.05 10.5 71.5 12.5L70.45 13.85L70 14.35L69.2 15.15Q67.05 17.3 64.4 19Q61.6 20.75 59.35 21.35L57.1 21.7L55.9 21.55L54.95 21.15L54.35 20.55M58.75 19.5Q61.05 19.5 64.25 17.45L67.55 14.9L68.5 14L68.95 13.45L69.65 12.55Q71.75 9.85 71.8 7.9L71.8 7.7L71.75 7.25Q71.45 5.6 69.4 5.6Q67.1 5.6 63.9 7.7Q61.65 9.1 59.9 10.95L58.5 12.55L57.25 14.4Q56.3 16.1 56.3 17.45Q56.4 19.05 57.85 19.4L58.6 19.5L58.75 19.5M37.7 18.3Q38.1 16.5 39.85 14.2L41.3 12.5Q43.15 10.55 45.5 9.05Q48.95 6.85 51.4 6.85Q52.3 6.85 52.95 7.2L53.6 7.8L53.85 8.55L53.95 9.05Q53.95 10.05 53.45 11.2L51.65 14.2L51.15 14.8L50.4 15.7L45.95 19.35Q43.7 20.8 41.9 21.25L40.1 21.5L39.15 21.4L38.35 21.1L37.9 20.65Q37.6 20.15 37.55 19.35Q37.55 18.85 37.7 18.3M51.85 10.55L51.85 10.35L51.8 9.95Q51.6 8.7 49.95 8.7Q48.15 8.7 45.5 10.35Q43.75 11.5 42.35 12.95L41.25 14.2Q39.75 16.15 39.55 17.6L39.5 18.15Q39.55 19.4 40.7 19.7L41.35 19.75L41.4 19.75Q43.3 19.75 45.85 18.15Q47.75 16.95 49.2 15.35L49.5 15.05L50.15 14.2Q51.8 12.05 51.85 10.55" />
<radialGradient
id="RadialGradID_102" gradientUnits="userSpaceOnUse" gradientTransform="matrix(0.0163116, 0, 0, 0.0163269, 65.6, 14.1)" spreadMethod ="pad" cx="0" cy="0" r="819.2" fx="0" fy="0" >
<stop  offset="0"  style="stop-color:#BBBBBB;stop-opacity:1" />
<stop  offset="0.988235"  style="stop-color:#666666;stop-opacity:1" />
</radialGradient>
<path style="fill:url(#RadialGradID_102) " d="M71.9 16.35Q69.45 19 66.3 21L64.75 21.9Q61.5 23.65 59 23.65Q57.55 23.65 56.75 23.05L56.2 22.4L54.95 21.15L55.9 21.55L57.1 21.7L59.35 21.35Q61.6 20.75 64.4 19Q67.05 17.3 69.2 15.15L70 14.35L70.45 13.85L71.5 12.5Q73.05 10.5 73.8 8.8Q74.4 7.3 74.35 6.05L74.3 5.4L74 4.55L75.35 5.9L75.8 6.35Q76.25 7 76.3 8.05Q76.35 10.7 73.45 14.5L72.45 15.8L71.9 16.35" />
<radialGradient
id="RadialGradID_103" gradientUnits="userSpaceOnUse" gradientTransform="matrix(0.0166321, 0, 0, 0.0166473, 59.9, 13.3)" spreadMethod ="pad" cx="0" cy="0" r="819.2" fx="0" fy="0" >
<stop  offset="0"  style="stop-color:#BBBBBB;stop-opacity:1" />
<stop  offset="0.988235"  style="stop-color:#666666;stop-opacity:1" />
</radialGradient>
<path style="fill:url(#RadialGradID_103) " d="M71.7 7.9Q69.4 7.9 66.2 10Q63.95 11.4 62.2 13.25L61.15 14.45L60.8 14.85Q58.75 17.5 58.6 19.5L57.85 19.4Q56.4 19.05 56.3 17.45Q56.3 16.1 57.25 14.4L58.5 12.55L59.9 10.95Q61.65 9.1 63.9 7.7Q67.1 5.6 69.4 5.6Q71.45 5.6 71.75 7.25L71.8 7.7L71.8 7.9L71.7 7.9" />
<radialGradient
id="RadialGradID_104" gradientUnits="userSpaceOnUse" gradientTransform="matrix(0.0131683, 0, 0, 0.0131836, 46.95, 15.45)" spreadMethod ="pad" cx="0" cy="0" r="819.2" fx="0" fy="0" >
<stop  offset="0"  style="stop-color:#BBBBBB;stop-opacity:1" />
<stop  offset="0.988235"  style="stop-color:#666666;stop-opacity:1" />
</radialGradient>
<path style="fill:url(#RadialGradID_104) " d="M53.15 15.75L51.95 17.3Q49.95 19.35 47.5 20.95Q44.1 23.1 41.65 23.1L39.85 22.65L39.4 22.1L38.35 21.1L39.15 21.4L40.1 21.5L41.9 21.25Q43.7 20.8 45.95 19.35L50.4 15.7L51.15 14.8L51.65 14.2L53.45 11.2Q53.95 10.05 53.95 9.05L53.85 8.55L53.6 7.8L54.7 8.9L55.05 9.25Q55.45 9.8 55.45 10.6Q55.5 12.2 54.3 14.2L54.1 14.5L53.15 15.75" />
<radialGradient
id="RadialGradID_105" gradientUnits="userSpaceOnUse" gradientTransform="matrix(0.011673, 0, 0, 0.0116882, 43, 14.7)" spreadMethod ="pad" cx="0" cy="0" r="819.2" fx="0" fy="0" >
<stop  offset="0"  style="stop-color:#BBBBBB;stop-opacity:1" />
<stop  offset="0.988235"  style="stop-color:#666666;stop-opacity:1" />
</radialGradient>
<path style="fill:url(#RadialGradID_105) " d="M40.7 19.7Q39.55 19.4 39.5 18.15L39.55 17.6Q39.75 16.15 41.25 14.2L42.35 12.95Q43.75 11.5 45.5 10.35Q48.15 8.7 49.95 8.7Q51.6 8.7 51.8 9.95L51.85 10.35L51.85 10.55L51.8 10.55Q49.95 10.55 47.35 12.2Q45.6 13.3 44.15 14.8L43.1 16.05L42.7 16.6Q41.45 18.35 41.35 19.75L40.7 19.7" />
<radialGradient
id="RadialGradID_106" gradientUnits="userSpaceOnUse" gradientTransform="matrix(0.065033, 0, 0, 0.0650635, 70.85, 57.65)" spreadMethod ="pad" cx="0" cy="0" r="819.2" fx="0" fy="0" >
<stop  offset="0"  style="stop-color:#BBBBBB;stop-opacity:1" />
<stop  offset="1"  style="stop-color:#444444;stop-opacity:1" />
</radialGradient>
<path style="fill:url(#RadialGradID_106) " d="M75.9 85.95Q71.55 85.2 68 83.4L68.55 81.3Q69.15 78.55 69.25 75.6L69.25 74.2L69.05 69.9Q68.65 66.9 67.75 64.2Q66.75 61.2 65.15 58.55L63.6 56.25L62.55 55Q63 53.85 63.8 52.85Q65.45 50.8 68.35 49.4L70.5 51.9Q77.55 61.15 77.55 74.25Q77.55 80.55 75.9 85.95Q74.15 91.75 70.5 96.55Q65.8 102.65 59.85 104.75Q57.15 105.7 54.25 105.8L52.8 105.8Q49.6 105.75 46.65 104.65Q40.9 102.5 36.4 96.55Q29.3 87.3 29.3 74.25Q29.3 70.65 29.85 67.3Q30.55 63 32.15 59.2Q33.75 55.3 36.4 51.9L37.05 51.1Q38.75 48.9 40.75 47.35Q44.9 43.95 49.8 43L53.05 42.65L54.05 42.65Q57.05 42.75 59.9 43.75Q63.2 44.9 66.15 47.35L68.35 49.4Q65.45 50.8 63.8 52.85Q63 53.85 62.55 55L60.35 52.85L60.1 52.65Q57.75 50.75 55.1 49.75L54.25 49.45L53.3 49.25L51.45 49L50.85 48.95L50.25 48.9L49.6 48.9Q44.15 49.05 39.75 52.65Q37.85 54.2 36.25 56.25Q30.6 63.75 30.6 74.2Q30.6 84.65 36.25 92.1Q41.7 99.25 49.45 99.55L50.25 99.55L50.85 99.55L51.3 99.5L53.3 99.2L54.25 98.95L55.05 98.7L57.75 97.4Q60.7 95.75 63.2 92.65L63.6 92.1Q65.45 89.7 66.7 86.95L68 83.4Q71.55 85.2 75.9 85.95" />
<linearGradient
id="LinearGradID_107" gradientUnits="userSpaceOnUse" gradientTransform="matrix(0, -0.0308685, 0.0145416, 0, 38.25, 74.25)" spreadMethod ="pad" x1="-819.2" y1="0" x2="819.2" y2="0" >
<stop  offset="0" style="stop-color:#888888;stop-opacity:1" />
<stop  offset="0.219608" style="stop-color:#BBBBBB;stop-opacity:1" />
<stop  offset="1" style="stop-color:#444444;stop-opacity:1" />
</linearGradient>
<path style="fill:url(#LinearGradID_107) " d="M41.6 52.65Q39.7 54.2 38.1 56.25Q32.4 63.75 32.4 74.2Q32.4 84.65 38.1 92.1Q43.4 99.1 50.85 99.55L50.25 99.55L49.45 99.55Q41.7 99.25 36.25 92.1Q30.6 84.65 30.6 74.2Q30.6 63.75 36.25 56.25Q37.85 54.2 39.75 52.65Q44.15 49.05 49.6 48.9L50.25 48.9L50.85 48.95Q45.75 49.25 41.6 52.65M49.45 51.8L48.2 51.8L47.8 51.8L47.65 51.8L47.5 51.8Q50.2 49.9 53.3 49.25L54.25 49.45Q51.7 50.2 49.45 51.8M39.4 63.3L39.4 63.5L39.4 84.5L39.4 84.75L39.4 85.55L39.4 86.15Q37.2 80.75 37.2 74.2Q37.2 67.7 39.4 62.3L39.4 62.55L39.4 63.3M50.65 97.4Q52.35 98.4 54.25 98.95L53.3 99.2Q49.7 98.45 46.7 96.1L47.45 96.1L48.65 96.1L48.7 96.1L50.65 97.4" />
<path style="fill:#2F2F2F" d="M46.65 112.2Q41.35 109.25 36.9 103.45Q34.6 100.5 32.9 97.25Q27.8 87.4 27.8 74.75L27.8 74.2L22.65 74.2L18.95 74.2L12.65 74.2L12.65 67.3L8.65 67.3L13.65 59.2L10.5 59.2L15.5 51.1L12.3 51.1L17.3 43L14.15 43L19.15 34.95L25.9 34.95L36.55 34.95L42.85 34.95L42.2 38.95L41.5 43L17.3 43L41.5 43L40.75 47.35Q38.75 48.9 37.05 51.1L36.4 51.9Q33.75 55.3 32.15 59.2Q30.55 63 29.85 67.3Q29.3 70.65 29.3 74.25Q29.3 87.3 36.4 96.55Q40.9 102.5 46.65 104.65L46.65 112.2M13.65 59.2L32.15 59.2L13.65 59.2M15.5 51.1L37.05 51.1L15.5 51.1M12.65 67.3L29.85 67.3L12.65 67.3" />
<linearGradient
id="LinearGradID_108" gradientUnits="userSpaceOnUse" gradientTransform="matrix(0, -0.0309143, 0.0308533, 0, 42.85, 74.25)" spreadMethod ="pad" x1="-819.2" y1="0" x2="819.2" y2="0" >
<stop  offset="0" style="stop-color:#585858;stop-opacity:1" />
<stop  offset="0.219608" style="stop-color:#666666;stop-opacity:1" />
<stop  offset="1" style="stop-color:#111111;stop-opacity:1" />
</linearGradient>
<path style="fill:url(#LinearGradID_108) " d="M53.3 99.2L51.3 99.5L50.85 99.55Q43.4 99.1 38.1 92.1Q32.4 84.65 32.4 74.2Q32.4 63.75 38.1 56.25Q39.7 54.2 41.6 52.65Q45.75 49.25 50.85 48.95L51.45 49L53.3 49.25Q50.2 49.9 47.5 51.8Q44.15 51.9 41.85 54.65Q39.4 57.45 39.4 61.4L39.55 61.7L39.45 62.2L39.4 62.3Q37.2 67.7 37.2 74.2Q37.2 80.75 39.4 86.15L39.4 86.3L39.4 86.55Q39.4 90.55 41.85 93.3Q43.6 95.45 46 95.95L46.7 96.1Q49.7 98.45 53.3 99.2" />
<radialGradient
id="RadialGradID_109" gradientUnits="userSpaceOnUse" gradientTransform="matrix(0.022934, 0, 0, 0.0229492, 52.45, 56.55)" spreadMethod ="pad" cx="0" cy="0" r="819.2" fx="0" fy="0" >
<stop  offset="0"  style="stop-color:#BBBBBB;stop-opacity:1" />
<stop  offset="1"  style="stop-color:#444444;stop-opacity:1" />
</radialGradient>
<path style="fill:url(#RadialGradID_109) " d="M47.65 51.8L47.8 51.8L48.2 51.8L49.2 52L50.7 52.55Q52.2 53.25 53.45 54.65Q55.75 57.4 55.85 61.2L55.85 64.25L52.3 64.25L52.3 63.05Q52.3 61.65 51.9 60.4Q51.45 58.85 50.5 57.6L50.45 57.55Q48.95 55.7 47.1 55.25L45.85 55.1L45.8 55.1Q44.4 55.15 43.25 55.8Q42.2 56.4 41.3 57.55Q39.85 59.3 39.55 61.7L39.4 61.4Q39.4 57.45 41.85 54.65Q44.15 51.9 47.5 51.8L47.65 51.8" />
<linearGradient
id="LinearGradID_110" gradientUnits="userSpaceOnUse" gradientTransform="matrix(0, 0.0252838, -0.0140381, 0, 62.25, 94.75)" spreadMethod ="pad" x1="-819.2" y1="0" x2="819.2" y2="0" >
<stop  offset="0" style="stop-color:#AAAAAA;stop-opacity:1" />
<stop  offset="1" style="stop-color:#CCCCCC;stop-opacity:1" />
</linearGradient>
<path style="fill:url(#LinearGradID_110) " d="M27.8 97.25Q22.65 87.4 22.65 74.75L22.65 74.2L27.8 74.2L27.8 74.75Q27.8 87.4 32.9 97.25Q34.6 100.5 36.9 103.45L27.8 97.25M36.9 103.45Q41.35 109.25 46.65 112.2Q52.05 115.2 58.3 115.35L53.15 115.35Q40.65 115.05 31.75 103.45Q29.5 100.5 27.8 97.25L32.9 97.25" />
<linearGradient
id="LinearGradID_111" gradientUnits="userSpaceOnUse" gradientTransform="matrix(0, -0.0230408, 0.0230408, 0, 43.2, 74)" spreadMethod ="pad" x1="-819.2" y1="0" x2="819.2" y2="0" >
<stop  offset="0" style="stop-color:#AAAAAA;stop-opacity:1" />
<stop  offset="0.141176" style="stop-color:#CCCCCC;stop-opacity:1" />
<stop  offset="0.27451" style="stop-color:#ACACAC;stop-opacity:1" />
<stop  offset="0.737255" style="stop-color:#AAAAAA;stop-opacity:1" />
<stop  offset="1" style="stop-color:#444444;stop-opacity:1" />
</linearGradient>
<path style="fill:url(#LinearGradID_111) " d="M44.5 56.7L43.75 57.55L43.7 57.6Q42.85 58.75 42.35 60.15L42.3 60.4Q41.85 61.65 41.85 63.05L41.85 65.85L41.85 68.6L41.85 71.3L41.85 74.05L41.85 76.8L41.85 79.5L41.85 82.3L41.85 85Q41.9 86.45 42.35 87.75Q42.8 89.3 43.75 90.5Q45.2 92.3 47.1 92.75L45.85 92.9L45.45 92.9Q43.9 92.75 42.7 91.85L41.3 90.5Q39.85 88.75 39.55 86.4L39.4 85.55L39.4 84.75L39.4 84.5L39.4 63.5L39.4 63.3L39.4 62.55L39.45 62.2L39.55 61.7Q39.85 59.3 41.3 57.55Q42.2 56.4 43.25 55.8Q44.4 55.15 45.8 55.1L45.85 55.1L47.1 55.25Q45.65 55.55 44.5 56.7" />
<radialGradient
id="RadialGradID_112" gradientUnits="userSpaceOnUse" gradientTransform="matrix(0.016983, 0, 0, 0.0169983, 47.1, 82.3)" spreadMethod ="pad" cx="0" cy="0" r="819.2" fx="0" fy="0" >
<stop  offset="0"  style="stop-color:#BBBBBB;stop-opacity:1" />
<stop  offset="1"  style="stop-color:#444444;stop-opacity:1" />
</radialGradient>
<path style="fill:url(#RadialGradID_112) " d="M39.55 86.4Q39.85 88.75 41.3 90.5L42.7 91.85Q43.9 92.75 45.45 92.9L45.85 92.9L47.1 92.75Q48.95 92.3 50.45 90.5L51.3 89.25Q52.45 90.75 54.8 91.3L53.45 93.3Q52.2 94.75 50.7 95.45L48.65 96.1L47.45 96.1L46.7 96.1L46 95.95Q43.6 95.45 41.85 93.3Q39.4 90.55 39.4 86.55L39.4 86.3L39.4 86.15L39.4 85.55L39.55 86.4" />
<linearGradient
id="LinearGradID_113" gradientUnits="userSpaceOnUse" gradientTransform="matrix(4.57764e-005, 0.0270691, -0.0164642, 3.05176e-005, 55.2, 74.1)" spreadMethod ="pad" x1="-819.2" y1="0" x2="819.2" y2="0" >
<stop  offset="0" style="stop-color:#AAAAAA;stop-opacity:1" />
<stop  offset="0.141176" style="stop-color:#CCCCCC;stop-opacity:1" />
<stop  offset="0.27451" style="stop-color:#ACACAC;stop-opacity:1" />
<stop  offset="0.737255" style="stop-color:#AAAAAA;stop-opacity:1" />
<stop  offset="1" style="stop-color:#444444;stop-opacity:1" />
</linearGradient>
<path style="fill:url(#LinearGradID_113) " d="M55.85 86.95L55.85 64.25L55.85 61.2Q55.75 57.4 53.45 54.65Q52.2 53.25 50.7 52.55L49.2 52L48.2 51.8L49.45 51.8L53.95 51.8Q55.9 51.85 57.55 52.85L59.6 54.65Q61.05 56.4 61.65 58.55L62 61.2L62 64.2L62 64.25L62 69.9L62 75.6L62 81.3L62 86.95Q61.9 89.35 60.9 91.3L54.8 91.3M60.9 91.3L60.1 92.65L59.6 93.3Q57.25 96.05 54 96.1L48.7 96.1L48.65 96.1L50.7 95.45Q52.2 94.75 53.45 93.3L54.8 91.3Q55.75 89.35 55.85 86.95L60.9 91.3M62 64.25L55.85 64.25L62 64.25" />
<linearGradient
id="LinearGradID_114" gradientUnits="userSpaceOnUse" gradientTransform="matrix(0, 0.0166473, -0.01651, 0, 53.55, 77.8)" spreadMethod ="pad" x1="-819.2" y1="0" x2="819.2" y2="0" >
<stop  offset="0" style="stop-color:#888888;stop-opacity:1" />
<stop  offset="0.815686" style="stop-color:#6A6A6A;stop-opacity:1" />
<stop  offset="1" style="stop-color:#565656;stop-opacity:1" />
</linearGradient>
<path style="fill:url(#LinearGradID_114) " d="M55.85 86.95Q55.75 89.35 54.8 91.3Q52.45 90.75 51.3 89.25L51.9 87.75Q52.3 86.45 52.3 85L52.3 82.3L52.3 79.5L52.3 76.8L52.3 74.05L52.3 71.3L52.3 68.6L52.3 65.85L52.3 64.25L55.85 64.25L55.85 86.95" />
<linearGradient
id="LinearGradID_115" gradientUnits="userSpaceOnUse" gradientTransform="matrix(0, -0.0186768, 0.0184479, 0, 80.9, 119.55)" spreadMethod ="pad" x1="-819.2" y1="0" x2="819.2" y2="0" >
<stop  offset="0" style="stop-color:#888888;stop-opacity:1" />
<stop  offset="0.219608" style="stop-color:#BBBBBB;stop-opacity:1" />
<stop  offset="1" style="stop-color:#444444;stop-opacity:1" />
</linearGradient>
<path style="fill:url(#LinearGradID_115) " d="M82.45 107.7L82.25 108L81.5 108.9Q80.7 110 80.15 111.2Q79.4 112.65 79 114.2Q78.6 115.7 78.45 117.25Q78.3 118.35 78.3 119.55L78.35 120.3Q78.4 122 78.7 123.55L79.45 126.4Q80.1 128 81 129.45L81.5 130.2L82.6 131.55L83.4 132.3Q84.6 133.45 86.05 134.05L87.4 134.45L86.6 134.65L85.4 134.65Q81.6 134.65 78.8 131.55L77.65 130.2Q74.5 125.8 74.5 119.55Q74.5 113.3 77.65 108.9L78.65 107.7Q81.55 104.4 85.4 104.4L87.3 104.65Q84.6 105.25 82.45 107.7" />
<path style="fill:#606060" d="M66.65 118.75L63.55 118.75L65.9 115.35L60.75 115.35L58.3 115.35Q52.05 115.2 46.65 112.2L46.65 104.65Q49.6 105.75 52.8 105.8L54.25 105.8L66.65 105.8L66.65 118.75M66.65 139.7L59.1 139.7L50.45 148.4L48.05 146L46.15 144.1L46.15 141.05L46.15 133.95L47.9 133.95L53.05 133.95L56.1 129.5L66.65 129.5L66.65 139.7" />
<linearGradient
id="LinearGradID_116" gradientUnits="userSpaceOnUse" gradientTransform="matrix(0, 0.00811768, -0.00817871, 0, 77.35, 149.85)" spreadMethod ="pad" x1="-819.2" y1="0" x2="819.2" y2="0" >
<stop  offset="0" style="stop-color:#585858;stop-opacity:1" />
<stop  offset="0.219608" style="stop-color:#666666;stop-opacity:1" />
<stop  offset="1" style="stop-color:#111111;stop-opacity:1" />
</linearGradient>
<path style="fill:url(#LinearGradID_116) " d="M77.3 150.55L79.05 156.55Q77.65 155.75 76.75 154.1Q75.5 151.9 75.65 148.95Q75.75 147.85 76 146.65Q76.45 144.75 77.3 143.1L77.3 150.55" />
<path style="fill:#222222" d="M152.85 181.7L158.9 181.7L136 196L129.95 196L152.85 181.7M134 181.7L140.1 181.7L126 190.5L117.15 196L111.1 196L134 181.7M52.9 177.4L53.35 180.05L41.35 180.05L34.85 164.85L50.8 164.85L52.9 177.4M123.7 178L129.75 178L109.8 190.5L103.7 190.5L123.7 178M51.85 175L39.9 175L51.85 175M51.4 171.85L38.65 171.85L51.4 171.85M50.7 168.35L37.05 168.35L50.7 168.35M145.65 179.9L128.6 190.5L126 190.5L140.1 181.7L141 179.9L145.65 179.9" />
<path style="fill:#505050" d="M152.85 181.7L153.8 179.9L145.65 179.9L141 179.9L140.1 181.7L134 181.7L137.95 173.8L162.9 173.8L158.9 181.7L152.85 181.7M77.55 180.2L77.8 180.2L86.15 180.2L87.85 185.75L62 185.75L63.65 177.4L73 177.4M76.25 162.2L75.65 162.85L66.5 162.85L68.45 152.9L75.45 152.9L75.45 148.95L75.65 148.95Q75.5 151.9 76.75 154.1Q77.65 155.75 79.05 156.55L80 159.7Q78.1 160.4 76.25 162.2M63.65 177.4L66.5 162.85L75.65 162.85Q73 165.75 72.15 169.7Q71.1 174.05 72.85 177.15L73 177.4Q74.55 180.05 77.55 180.2L63.65 177.4M98.5 147.75L103.25 147.75L105.2 153.45L101.65 156.35L98.5 147.75M102.2 144.6L97.35 144.6L95.85 140.55Q97.65 139.95 99.35 138.75L99.95 138.25L102.2 144.6M102.2 144.6L103.25 147.75L98.5 147.75L97.35 144.6L102.2 144.6" />
<linearGradient
id="LinearGradID_117" gradientUnits="userSpaceOnUse" gradientTransform="matrix(0, 0.0124817, -0.0125122, 0, 78.95, 169.95)" spreadMethod ="pad" x1="-819.2" y1="0" x2="819.2" y2="0" >
<stop  offset="0" style="stop-color:#585858;stop-opacity:1" />
<stop  offset="0.219608" style="stop-color:#666666;stop-opacity:1" />
<stop  offset="1" style="stop-color:#111111;stop-opacity:1" />
</linearGradient>
<path style="fill:url(#LinearGradID_117) " d="M77.8 180.2L77.55 180.2Q74.55 180.05 73 177.4L72.85 177.15Q71.1 174.05 72.15 169.7Q73 165.75 75.65 162.85L76.25 162.2Q78.1 160.4 80 159.7L86.15 180.2L77.8 180.2" />
<linearGradient
id="LinearGradID_118" gradientUnits="userSpaceOnUse" gradientTransform="matrix(0.0124664, 0, 0, 0.00550842, 130.55, 97.4)" spreadMethod ="pad" x1="-819.2" y1="0" x2="819.2" y2="0" >
<stop  offset="0" style="stop-color:#C90000;stop-opacity:1" />
<stop  offset="1" style="stop-color:#333333;stop-opacity:1" />
</linearGradient>
<path style="fill:url(#LinearGradID_118) " d="M122.25 99.35Q124.25 98.35 126.2 97.5Q131.2 95.3 135.75 93.95L139.5 92.95L140.8 99.5Q133.15 99.05 123.6 101.95L122.25 99.35" />
<linearGradient
id="LinearGradID_119" gradientUnits="userSpaceOnUse" gradientTransform="matrix(0, 0.00210571, -0.00196838, 0, 87.3, 109.6)" spreadMethod ="pad" x1="-819.2" y1="0" x2="819.2" y2="0" >
<stop  offset="0" style="stop-color:#8A0000;stop-opacity:1" />
<stop  offset="1" style="stop-color:#333333;stop-opacity:1" />
</linearGradient>
<path style="fill:url(#LinearGradID_119) " d="M82 111.2L80.15 111.2L83.4 108L92.4 108L93.1 108.9L94.5 111.2L82 111.2" />
<linearGradient
id="LinearGradID_120" gradientUnits="userSpaceOnUse" gradientTransform="matrix(0, 0.00205994, -0.00204468, 0, 87.35, 106.35)" spreadMethod ="pad" x1="-819.2" y1="0" x2="819.2" y2="0" >
<stop  offset="0" style="stop-color:#8A0000;stop-opacity:1" />
<stop  offset="1" style="stop-color:#333333;stop-opacity:1" />
</linearGradient>
<path style="fill:url(#LinearGradID_120) " d="M83.4 108L82.25 108L82.45 107.7Q84.6 105.25 87.3 104.65Q90.1 105.3 92.4 108L83.4 108" />
<linearGradient
id="LinearGradID_121" gradientUnits="userSpaceOnUse" gradientTransform="matrix(0, 0.00192261, -0.00184631, 0, 87.25, 115.7)" spreadMethod ="pad" x1="-819.2" y1="0" x2="819.2" y2="0" >
<stop  offset="0" style="stop-color:#8A0000;stop-opacity:1" />
<stop  offset="1" style="stop-color:#333333;stop-opacity:1" />
</linearGradient>
<path style="fill:url(#LinearGradID_121) " d="M81.4 117.25L78.45 117.25L81.45 114.2L95.6 114.2L96.15 117.25L81.4 117.25" />
<linearGradient
id="LinearGradID_122" gradientUnits="userSpaceOnUse" gradientTransform="matrix(0, 0.00169373, -0.0019989, 0, 87.45, 121.9)" spreadMethod ="pad" x1="-819.2" y1="0" x2="819.2" y2="0" >
<stop  offset="0" style="stop-color:#8A0000;stop-opacity:1" />
<stop  offset="1" style="stop-color:#333333;stop-opacity:1" />
</linearGradient>
<path style="fill:url(#LinearGradID_122) " d="M82.3 123.55L78.7 123.55L81.95 120.3L96.25 120.3L95.9 123.55L82.3 123.55" />
<linearGradient
id="LinearGradID_123" gradientUnits="userSpaceOnUse" gradientTransform="matrix(0, 0.00178528, -0.00184631, 0, 87.3, 118.75)" spreadMethod ="pad" x1="-819.2" y1="0" x2="819.2" y2="0" >
<stop  offset="0" style="stop-color:#8A0000;stop-opacity:1" />
<stop  offset="1" style="stop-color:#333333;stop-opacity:1" />
</linearGradient>
<path style="fill:url(#LinearGradID_123) " d="M81.95 120.3L78.35 120.3L81.4 117.25L96.15 117.25L96.25 119.55L96.25 120.3L81.95 120.3" />
<linearGradient
id="LinearGradID_124" gradientUnits="userSpaceOnUse" gradientTransform="matrix(0, 0.00196838, -0.00183105, 0, 87.3, 112.7)" spreadMethod ="pad" x1="-819.2" y1="0" x2="819.2" y2="0" >
<stop  offset="0" style="stop-color:#8A0000;stop-opacity:1" />
<stop  offset="1" style="stop-color:#333333;stop-opacity:1" />
</linearGradient>
<path style="fill:url(#LinearGradID_124) " d="M81.45 114.2L79 114.2L82 111.2L94.5 111.2L95.6 114.2L81.45 114.2" />
<linearGradient
id="LinearGradID_125" gradientUnits="userSpaceOnUse" gradientTransform="matrix(0, 0.00178528, -0.0017395, 0, 87.7, 125)" spreadMethod ="pad" x1="-819.2" y1="0" x2="819.2" y2="0" >
<stop  offset="0" style="stop-color:#8A0000;stop-opacity:1" />
<stop  offset="1" style="stop-color:#333333;stop-opacity:1" />
</linearGradient>
<path style="fill:url(#LinearGradID_125) " d="M84.05 126.4L79.5 126.4L82.3 123.55L95.9 123.55L95.3 125.95L95.25 126.1L95.2 126.35L84.05 126.4" />
<linearGradient
id="LinearGradID_126" gradientUnits="userSpaceOnUse" gradientTransform="matrix(-1.52588e-005, 0.00201416, -0.00187683, -1.52588e-005, 88.1, 127.9)" spreadMethod ="pad" x1="-819.2" y1="0" x2="819.2" y2="0" >
<stop  offset="0" style="stop-color:#8A0000;stop-opacity:1" />
<stop  offset="1" style="stop-color:#333333;stop-opacity:1" />
</linearGradient>
<path style="fill:url(#LinearGradID_126) " d="M86.25 129.45L81 129.45L84.05 126.4L95.2 126.35L93.65 129.45L86.25 129.45" />
<linearGradient
id="LinearGradID_127" gradientUnits="userSpaceOnUse" gradientTransform="matrix(0, 0.00169373, -0.00175476, 0, 88.55, 130.9)" spreadMethod ="pad" x1="-819.2" y1="0" x2="819.2" y2="0" >
<stop  offset="0" style="stop-color:#8A0000;stop-opacity:1" />
<stop  offset="1" style="stop-color:#333333;stop-opacity:1" />
</linearGradient>
<path style="fill:url(#LinearGradID_127) " d="M87.75 132.3L83.4 132.3L86.25 129.45L93.65 129.45L93.1 130.2L92.35 131.2L91.25 132.3L87.75 132.3" />
<linearGradient
id="LinearGradID_128" gradientUnits="userSpaceOnUse" gradientTransform="matrix(0, 0.00140381, -0.00131226, 0, 88.65, 133.4)" spreadMethod ="pad" x1="-819.2" y1="0" x2="819.2" y2="0" >
<stop  offset="0" style="stop-color:#8A0000;stop-opacity:1" />
<stop  offset="1" style="stop-color:#333333;stop-opacity:1" />
</linearGradient>
<path style="fill:url(#LinearGradID_128) " d="M91.25 132.3Q89.45 133.95 87.4 134.45L86.05 134.05L87.75 132.3L91.25 132.3" />
<linearGradient
id="LinearGradID_129" gradientUnits="userSpaceOnUse" gradientTransform="matrix(0.00361633, 0, 0, 0.00466919, 186.05, 96.15)" spreadMethod ="pad" x1="-819.2" y1="0" x2="819.2" y2="0" >
<stop  offset="0" style="stop-color:#8A0000;stop-opacity:1" />
<stop  offset="1" style="stop-color:#333333;stop-opacity:1" />
</linearGradient>
<path style="fill:url(#LinearGradID_129) " d="M185 99.25L183.1 92.5L186.55 92.35L189 100L185 99.25" />
<linearGradient
id="LinearGradID_130" gradientUnits="userSpaceOnUse" gradientTransform="matrix(0.00463867, 0.00212097, -0.00663757, 0.0145264, 181.8, 133.65)" spreadMethod ="pad" x1="-819.2" y1="0" x2="819.2" y2="0" >
<stop  offset="0" style="stop-color:#8A0000;stop-opacity:1" />
<stop  offset="1" style="stop-color:#333333;stop-opacity:1" />
</linearGradient>
<path style="fill:url(#LinearGradID_130) " d="M184.55 134L183.5 136.6Q181.25 141.95 177.9 146.8L176.35 149L174.85 143.5L178.35 136.6L179.4 134Q181.25 128.9 182.25 123.35L187.8 120.6Q186.85 127.6 184.55 134M176.35 149L171.55 154.75L168.95 151.9L171.2 149L172.75 146.8L174.85 143.5L177.9 146.8" />
<linearGradient
id="LinearGradID_131" gradientUnits="userSpaceOnUse" gradientTransform="matrix(0.00437927, 0.00218201, -0.00715637, 0.0142822, 169.15, 132.95)" spreadMethod ="pad" x1="-819.2" y1="0" x2="819.2" y2="0" >
<stop  offset="0" style="stop-color:#8A0000;stop-opacity:1" />
<stop  offset="1" style="stop-color:#333333;stop-opacity:1" />
</linearGradient>
<path style="fill:url(#LinearGradID_131) " d="M163.5 149Q161.35 151.95 158.7 154.75L156.1 151.9L158.35 149L159.9 146.8L162 143.5Q164 140.1 165.5 136.6L166.55 134Q168.45 128.9 169.4 123.35L174.95 120.6Q174.05 127.6 171.7 134L170.65 136.6Q168.4 141.95 165.05 146.8L162 143.5L165.05 146.8L163.5 149" />
<linearGradient
id="LinearGradID_132" gradientUnits="userSpaceOnUse" gradientTransform="matrix(0.00675964, 0.00390625, -0.00756836, 0.0131073, 194.1, 134.4)" spreadMethod ="pad" x1="-819.2" y1="0" x2="819.2" y2="0" >
<stop  offset="0" style="stop-color:#8A0000;stop-opacity:1" />
<stop  offset="1" style="stop-color:#333333;stop-opacity:1" />
</linearGradient>
<path style="fill:url(#LinearGradID_132) " d="M187.7 143.5L190.75 146.8L189.2 149Q187.05 151.95 184.4 154.75L181.8 151.9L184.05 149L185.6 146.8L187.7 143.5L191.2 136.6L192.25 134Q193.85 129.6 194.8 124.85L200.45 122Q199.45 128.25 197.35 134L196.35 136.6Q194.1 141.95 190.75 146.8L187.7 143.5" />
<linearGradient
id="LinearGradID_133" gradientUnits="userSpaceOnUse" gradientTransform="matrix(0.0043335, 0.00210571, -0.00665283, 0.0137482, 155.8, 134.45)" spreadMethod ="pad" x1="-819.2" y1="0" x2="819.2" y2="0" >
<stop  offset="0" style="stop-color:#8A0000;stop-opacity:1" />
<stop  offset="1" style="stop-color:#333333;stop-opacity:1" />
</linearGradient>
<path style="fill:url(#LinearGradID_133) " d="M150.65 149L145.85 154.75L143.25 151.9L145.5 149L147.1 146.8L149.15 143.5Q151.2 140.1 152.7 136.6L153.7 134Q155.4 129.4 156.35 124.5L162 121.75Q161 128.1 158.85 134L157.8 136.6Q155.55 141.95 152.2 146.8L149.15 143.5L152.2 146.8L150.65 149" />
<radialGradient
id="RadialGradID_134" gradientUnits="userSpaceOnUse" gradientTransform="matrix(0.0674744, 0, 0, 0.0675049, 113.45, 138.8)" spreadMethod ="pad" cx="0" cy="0" r="819.2" fx="0" fy="0" >
<stop  offset="0"  style="stop-color:#950000;stop-opacity:1" />
<stop  offset="1"  style="stop-color:#333333;stop-opacity:1" />
</radialGradient>
<path style="fill:url(#RadialGradID_134) " d="M91.95 150.05L93.05 153.25L95.45 160.2L90.1 162.7L90.1 173.75L92.35 173.75L103.9 173.75Q111.3 173.4 117.85 171.45L121.95 169.95L126.9 167.7L129.65 166.15L123.7 178L103.7 190.5L92.25 190.5L89.25 190.5L87.85 185.75L86.15 180.2L80 159.7L79.05 156.55L77.3 150.55L77.3 143.1L77.3 135.8L77.8 136.4Q79.05 137.8 80.45 138.85Q83.75 141.2 87.75 141.2L88.9 141.15L91.95 150.05M103.25 147.75L102.2 144.6L99.95 138.25L102.95 134.85L103.8 133.7Q107.4 139.4 109.65 149.1L109.45 149.4L105.2 153.45L103.25 147.75" />
<linearGradient
id="LinearGradID_135" gradientUnits="userSpaceOnUse" gradientTransform="matrix(0, 0.0194244, -0.00862122, 0, 146.3, 164)" spreadMethod ="pad" x1="-819.2" y1="0" x2="819.2" y2="0" >
<stop  offset="0" style="stop-color:#9F0000;stop-opacity:1" />
<stop  offset="1" style="stop-color:#444444;stop-opacity:1" />
</linearGradient>
<path style="fill:url(#LinearGradID_135) " d="M159.05 169.25L134.15 169.25L129.75 178L123.7 178L129.65 166.15L132.5 164.25L133 163.85L167.15 163.85L165.2 167.85L162.65 172.9L162.5 173.3L159.05 169.25" />
<radialGradient
id="RadialGradID_136" gradientUnits="userSpaceOnUse" gradientTransform="matrix(0.005, 0, 0, 0, 33, 154)" spreadMethod ="pad" cx="0" cy="0" r="819.2" fx="0" fy="0" >
<stop stop-color="#F40" />
<stop offset="1" stop-color="#A00" />
</radialGradient>
<path style="fill:url(#RadialGradID_136) " d="M29.4 153.9Q29.4 152.15 30.4 150.9Q31.4 149.6 32.8 149.6Q34.2 149.6 35.2 150.9Q36.2 152.15 36.2 153.9Q36.2 155.7 35.2 156.95Q34.2 158.2 32.8 158.2Q31.4 158.2 30.4 156.95Q29.4 155.7 29.4 153.9" />
<radialGradient
id="RadialGradID_137" gradientUnits="userSpaceOnUse" gradientTransform="matrix(0, 0, 0, 0, 29.5, 141)" r="819.2">
<stop stop-color="#F40" />
<stop offset="1" stop-color="#A00" />
</radialGradient>
  <path style="fill:url(#RadialGradID_137)" d="M26.05 141.05Q26.05 139.3 27.05 138Q28.05 136.75 29.4 136.75Q30.8 136.75 31.8 138Q32.8 139.3 32.8 141.05Q32.8 142.8 31.8 144.1Q30.8 145.35 29.4 145.35Q28.05 145.35 27.05 144.1Q26.05 142.8 26.05 141.05" />
  <linearGradient
id="LinearGradID_138" gradientUnits="userSpaceOnUse" gradientTransform="matrix(0.00637817, 0, 0, 0.00169373, 47.1, 75.45)" x1="-819.2" x2="819.2">
  <stop stop-color="#F40" />
  <stop offset="1" stop-color="#A00"/>
  </linearGradient>
  <path style="fill:url(#LinearGradID_138) " d="M51.3 89.25L50.45 90.5Q48.95 92.3 47.1 92.75Q45.2 92.3 43.75 90.5Q42.8 89.3 42.35 87.75Q41.9 86.45 41.85 85L41.85 82.3L41.85 79.5L41.85 76.8L41.85 74.05L41.85 71.3L41.85 68.6L41.85 65.85L41.85 63.05Q41.85 61.65 42.3 60.4L42.35 60.15Q42.85 58.75 43.7 57.6L43.75 57.55L44.5 56.7Q45.65 55.55 47.1 55.25Q48.95 55.7 50.45 57.55L50.5 57.6Q51.45 58.85 51.9 60.4Q52.3 61.65 52.3 63.05L52.3 64.25L52.3 65.85L52.3 68.6L52.3 71.3L52.3 74.05L52.3 76.8L52.3 79.5L52.3 82.3L52.3 85Q52.3 86.45 51.9 87.75L51.3 89.25M50.5 57.6L43.7 57.6L50.5 57.6M42.3 60.4L51.9 60.4L42.3 60.4M52.3 65.85L41.85 65.85L52.3 65.85M41.85 63.05L52.3 63.05L41.85 63.05M41.85 68.6L52.3 68.6L41.85 68.6M41.85 71.3L52.3 71.3L41.85 71.3M52.3 74.05L41.85 74.05L52.3 74.05M50.45 90.5L43.75 90.5L50.45 90.5M41.85 79.5L52.3 79.5L41.85 79.5M41.85 76.8L52.3 76.8L41.85 76.8M52.3 82.3L41.85 82.3L52.3 82.3M41.85 85L52.3 85L41.85 85M42.35 87.75L51.9 87.75L42.35 87.75" />
  <linearGradient
id="LinearGradID_139" gradientUnits="userSpaceOnUse" gradientTransform="matrix(0, 0.022934, -0.00219727, 0, 14.45, 105.75)" x1="-819.2" x2="819.2" >
    <stop stop-color="#F40" />
    <stop offset="1" stop-color="#A00" />
  </linearGradient>
  <path style="fill:url(#LinearGradID_139) " d="M10.4 95.8L11.85 92.2L13.95 86.85L15.5 92.2L16.6 95.8L17.65 99.4L10.4 95.8M13.95 86.85L15.5 92.2L11.85 92.2M17.65 99.4L11.3 99.4L17.65 99.4L18.7 103.05L19.3 105.05L19.8 106.65L13.4 106.65L19.8 106.65L20.85 110.25L14.5 110.25L20.85 110.25L21.95 113.85L15.55 113.85L21.95 113.85L23 117.5L16.65 117.5L16.5 117.2L15.55 113.85L14.5 110.25L13.4 106.65L12.35 103.05L11.3 99.4L10.3 96.1L10.4 95.8L16.6 95.8M17.65 121.15L24.05 121.1L25.1 124.65L18.7 124.65L17.65 121.15L16.65 117.5L23 117.5L24.05 121.1L17.65 121.15M12.35 103.05L18.7 103.05L12.35 103.05" />
  <linearGradient id="LinearGradID_140" gradientUnits="userSpaceOnUse" gradientTransform="matrix(0, 0, 0, 0, 115.85, 60.65)" x1="-819.2" x2="819.2" >
    <stop stop-color="#F40" />
    <stop offset="1" stop-color="#A00" />
  </linearGradient>
  <path style="fill:url(#LinearGradID_140)" d="M120.9 59.55L121.05 60.9L121.15 61.7L111.6 64.7L110.65 61.45L120.55 57.3L120.55 57.35L120.9 59.55" />
  <radialGradient id="RadialGradID_141" gradientUnits="userSpaceOnUse" gradientTransform="matrix(0.03, 0, 0, 0.03, 147.75, 60.5)" spreadMethod ="pad" cx="0" cy="0" r="819.2" fx="0" fy="0" >
    <stop offset="0"  style="stop-color:#FF6200;stop-opacity:1" />
    <stop offset="0.517647"  style="stop-color:#FF3800;stop-opacity:1" />
    <stop offset="1"  style="stop-color:#9F0000;stop-opacity:1" />
  </radialGradient>
  <path fill="url(#RadialGradID_141)" d="M121.15 61.7L121.05 60.9L120.9 59.55L120.55 57.35Q150.95 61.35 174.45 57.35L174.95 61.05Q153.45 65.85 121.15 61.7" />
  <path fill="#DBB" d="M179.25 154.75L181.8 151.9L184.4 154.75L179.25 154.75M166.4 154.75L168.95 151.9L171.55 154.75L166.4 154.75M156.1 151.9L158.7 154.75L153.55 154.75L156.1 151.9M143.25 151.9L145.85 154.75L140.75 154.75L143.25 151.9" />
  <path fill="#644" d="M182.7 120.45L187.8 120.6L182.25 123.35L182.7 120.45M156.35 124.5L156.75 122.35L162 121.65L162 121.75L156.35 124.5M169.4 123.35L169.75 120.85L174.95 120.6L169.4 123.35M194.8 124.85L195.4 121.2L200.45 122L194.8 124.85" />
  <path fill="none" stroke-width="0.7" stroke="#000000" stroke-opacity="0.4" d="M164.15 30.05L172.85 37.55Q177.1 49.35 177.9 53.55L173.95 54.25L174.45 57.35L174.95 61.05L175.2 63L179.25 63L179.55 70.6L179.45 74.9Q181.6 77.65 183.4 80.5Q186.4 85.35 188.5 90.8L188.95 92.3L186.55 92.35L189 100L191.25 100.6L191.6 102.35L192.1 105.75L192.4 108.4Q201.45 109.25 208.9 111.55L209 115.05L208.9 118.9L208.4 123.85Q206.7 136.4 200.1 146.8L198.75 148.8Q195.85 152.85 192.3 156.55Q179.55 169.85 162.65 172.9L162.5 173.3L162.9 173.8L158.9 181.7L136 196L129.95 196L117.15 196L111.1 196L94.5 196L92.25 190.5L89.25 190.5L87.85 185.75L62 185.75L54.3 185.75L53.35 180.05L41.35 180.05L34.85 164.85L27.9 164.85L25.35 153.9L22.35 141.05L18.55 141.05L16.9 133.95L11.15 133.95L8.55 125.15L0 96.1L2.75 89.25L8.7 74.2L12.65 74.2L12.65 67.3L8.65 67.3L13.65 59.2L10.5 59.2L15.5 51.1L12.3 51.1L17.3 43L14.15 43L19.15 34.95L25.9 34.95L29.1 29L22.15 30.75L19.3 29L16.4 27.15Q36.3 11.05 52.35 3.25Q58.45 0.35 65.35 0.1L66.1 0L66.2 0L68.3 0L122.05 0L122.45 0Q138.5 0.55 151.35 10.15L154.05 15.05L161.2 19L164.15 30.05L165.35 34.65L154.2 34.65L151.55 32.3L146.75 32.3L147.35 34.65L136.25 34.65L133.5 32.3L128.8 32.3L129.35 34.65L118.25 34.65L110.3 27.15L106.8 27.15L118.9 37.55L172.85 37.55M179.25 63L175.25 63.7Q162.25 65.7 149.8 65.55Q137.35 65.35 125.35 63L125.4 63.75L125.65 70.6L125.55 74.9Q155.4 67 179.45 74.9M187.8 120.6L182.25 123.35Q181.25 128.9 179.4 134L178.35 136.6L174.85 143.5L177.9 146.8Q181.25 141.95 183.5 136.6L184.55 134Q186.85 127.6 187.8 120.6L182.7 120.45L182.25 123.35M186.55 92.35L183.1 92.5L185 99.25L189 100M93.35 97.75Q114.3 84 129.6 80.5Q135.5 78.95 141.25 78.05L146.3 86.3L160.05 84.8L175.15 85.55L173.75 78.05Q178.7 78.95 183.4 80.5M175.2 63L171.1 63.7Q160.3 65.45 149.8 65.55M208.9 118.9Q205.1 117.75 201 117L195.95 116.2L192.4 115.8L188.25 115.55L183.1 115.35L177.4 115.4L175.45 115.5L170.3 115.75L162.5 116.5L157.3 117.15L146.4 118.9Q145.9 126.75 143.6 133.8L142.75 136.45Q140.65 141.85 137.5 146.8L147.1 146.8L149.15 143.5Q151.2 140.1 152.7 136.6L153.7 134Q155.4 129.4 156.35 124.5L156.75 122.35L162 121.65L162 121.75Q161 128.1 158.85 134L157.8 136.6Q155.55 141.95 152.2 146.8L159.9 146.8L162 143.5Q164 140.1 165.5 136.6L166.55 134Q168.45 128.9 169.4 123.35L169.75 120.85L174.95 120.6Q174.05 127.6 171.7 134L170.65 136.6Q168.4 141.95 165.05 146.8L172.75 146.8L174.85 143.5M194.8 124.85L195.4 121.2L200.45 122Q199.45 128.25 197.35 134L196.35 136.6Q194.1 141.95 190.75 146.8L200.1 146.8M174.95 120.6L169.4 123.35M177.4 108Q171.4 107.85 164.8 108.25Q154.55 108.9 142.75 110.9L139.05 111.55L146.45 111.55Q163.35 108.4 177.4 108Q185.35 107.75 192.4 108.4M165.05 146.8L162 143.5M185.6 146.8L187.7 143.5L191.2 136.6L192.25 134Q193.85 129.6 194.8 124.85L200.45 122M190.75 146.8L187.7 143.5M177.9 146.8L185.6 146.8L184.05 149L181.8 151.9L184.4 154.75Q187.05 151.95 189.2 149L190.75 146.8M181.8 151.9L179.25 154.75L184.4 154.75M168.95 151.9L171.55 154.75L176.35 149L177.9 146.8M172.75 146.8L171.2 149L168.95 151.9L166.4 154.75L171.55 154.75M165.2 167.85L167.15 163.85L133 163.85L132.5 164.25L129.65 166.15L123.7 178L129.75 178L134.15 169.25L159.05 169.25L162.5 173.3M167.15 163.85L171.55 163.85L171.05 164.25Q168.2 166.3 165.2 167.85L162.65 172.9M158.7 154.75Q161.35 151.95 163.5 149L165.05 146.8M150.05 19L161.2 19M143.2 19L144.25 23L149.85 26L151.55 32.3M138.05 12.35L149.2 12.35L154.05 15.05M123.2 17.9L125.2 19L126.3 23L131.85 26L133.5 32.3M138.05 12.35L141.15 17.9L143.2 19L132.05 19L136.25 34.65M120.1 12.35L131.2 12.35L141.15 17.9M127.1 26L128.8 32.3M131.85 26L127.1 26L126.3 23M144.25 23L145.1 26L149.85 26M146.75 32.3L145.1 26M150.05 19L138.05 12.35M154.2 34.65L150.05 19M102.1 12.35L114.1 19L125.2 19M123.2 17.9L113.25 12.35L102.1 12.35L110.3 27.15M97.45 10.15Q95.65 8.85 93.85 7.7Q82.45 0.55 68.7 0.1L68.3 0M114.1 19L118.25 34.65M83.4 20.7L97.45 10.15L151.35 10.15M97.45 10.15L106.8 27.15L77.6 44.9L80.35 49.4L85.9 58.55L118.9 37.55Q123.05 48.75 124.05 53.55L126.55 53.95Q137.45 55.9 148.75 56.05Q161.05 56.25 173.95 54.25M120.55 57.35Q150.95 61.35 174.45 57.35M121.15 61.7L121.05 60.9L120.9 59.55L120.55 57.35M101.5 62.15L104.5 68.5L108.3 67.4L105.55 61.7L101.5 62.15L124.05 53.55M121.15 61.7L111.6 64.7L110.65 61.45L120.55 57.3M108.3 67.4L120.25 63.95L121.3 63.75L121.3 63.65M120.3 55.8L105.55 61.7M88.6 85.95L88 79.85L85.9 58.55M82.6 98.75Q85.95 94.4 88.55 92.6L89.25 92.1L88.6 85.95L75.9 85.95Q74.15 91.75 70.5 96.55Q65.8 102.65 59.85 104.75Q57.15 105.7 54.25 105.8L66.65 105.8L68.85 105.8Q72.85 105.8 76.4 104.3L76.6 104.05Q79.3 100.3 82.6 98.75L84.7 98.05L87.75 97.65L89.75 97.85L91.9 97.65L93.35 97.75Q98.85 98.4 102.95 104.05L104.45 106.4Q107.3 111.5 107.6 118.15Q110.65 115.1 113 111.55L139.05 111.55M88 79.85L102.7 74.05L106.35 82.15Q116.85 76.85 125.55 74.9M106.35 82.15Q98.35 86.15 89.25 92.1M139.5 92.95L139.45 92.75L139.45 92.7L137.8 92.75L135.5 92.85L134.65 92.95L130.75 93.95Q126.2 95.3 121.25 97.5Q119.25 98.35 117.25 99.35L122.25 99.35Q124.25 98.35 126.2 97.5Q131.2 95.3 135.75 93.95L139.5 92.95L140.8 99.5Q133.15 99.05 123.6 101.95L119.4 103.35L117.25 99.35M148.75 56.05Q136.9 56.15 125.5 54.3L120.3 55.8M121.3 63.75L125.35 63M132.05 19L120.1 12.35L123.2 17.9M55.45 14.45L56.75 12.5L58.6 10.4Q60.9 7.9 63.9 6.05Q66.25 4.55 68.25 3.85Q69.85 3.3 71.2 3.3L73.15 3.75L73.35 3.85L74 4.55L75.35 5.9L75.8 6.35Q76.25 7 76.3 8.05Q76.35 10.7 73.45 14.5L72.45 15.8Q79.15 17.35 83.4 20.7L69.35 31.25L76.3 42.65L77.6 44.9M74 4.55L74.3 5.4L74.35 6.05Q74.4 7.3 73.8 8.8Q73.05 10.5 71.5 12.5L70.45 13.85L70 14.35L69.2 15.15Q67.05 17.3 64.4 19Q61.6 20.75 59.35 21.35L57.1 21.7L55.9 21.55L54.95 21.15L56.2 22.4L56.75 23.05Q57.55 23.65 59 23.65Q61.5 23.65 64.75 21.9L66.3 21Q69.45 19 71.9 16.35L72.45 15.8M71.8 7.9L71.8 7.7L71.75 7.25Q71.45 5.6 69.4 5.6Q67.1 5.6 63.9 7.7Q61.65 9.1 59.9 10.95L58.5 12.55L57.25 14.4Q56.3 16.1 56.3 17.45Q56.4 19.05 57.85 19.4L58.6 19.5Q58.75 17.5 60.8 14.85L61.15 14.45L62.2 13.25Q63.95 11.4 66.2 10Q69.4 7.9 71.7 7.9L71.8 7.9Q71.75 9.85 69.65 12.55L68.95 13.45L68.5 14L67.55 14.9L64.25 17.45Q61.05 19.5 58.75 19.5L58.6 19.5M53.6 7.8L54.7 8.9L55.05 9.25Q55.45 9.8 55.45 10.6Q55.5 12.2 54.3 14.2L54.1 14.5L55.45 14.45Q54.65 15.7 54.3 16.85Q53.9 18 53.9 19Q53.95 19.85 54.3 20.45L54.35 20.55L54.95 21.15M53.6 7.8L53.85 8.55L53.95 9.05Q53.95 10.05 53.45 11.2L51.65 14.2L51.15 14.8L50.4 15.7L45.95 19.35Q43.7 20.8 41.9 21.25L40.1 21.5L39.15 21.4L38.35 21.1L39.4 22.1L39.85 22.65L41.65 23.1Q44.1 23.1 47.5 20.95Q49.95 19.35 51.95 17.3L53.15 15.75L54.1 14.5M37.7 18.3Q38.1 16.5 39.85 14.2L41.3 12.5Q43.15 10.55 45.5 9.05Q48.95 6.85 51.4 6.85Q52.3 6.85 52.95 7.2L53.6 7.8M41.35 19.75Q41.45 18.35 42.7 16.6L43.1 16.05L44.15 14.8Q45.6 13.3 47.35 12.2Q49.95 10.55 51.8 10.55L51.85 10.55L51.85 10.35L51.8 9.95Q51.6 8.7 49.95 8.7Q48.15 8.7 45.5 10.35Q43.75 11.5 42.35 12.95L41.25 14.2Q39.75 16.15 39.55 17.6L39.5 18.15Q39.55 19.4 40.7 19.7L41.35 19.75L41.4 19.75Q43.3 19.75 45.85 18.15Q47.75 16.95 49.2 15.35L49.5 15.05L50.15 14.2Q51.8 12.05 51.85 10.55M42.85 34.95L43.65 30.5L55.8 30.5L60.95 30.5L69.4 38.95L73.05 42.65L76.3 42.65M50.85 99.55L50.25 99.55L49.45 99.55Q41.7 99.25 36.25 92.1Q30.6 84.65 30.6 74.2Q30.6 63.75 36.25 56.25Q37.85 54.2 39.75 52.65Q44.15 49.05 49.6 48.9L50.25 48.9L50.85 48.95L51.45 49L53.3 49.25L54.25 49.45L55.1 49.75Q57.75 50.75 60.1 52.65L60.35 52.85L62.55 55Q63 53.85 63.8 52.85Q65.45 50.8 68.35 49.4L66.15 47.35Q63.2 44.9 59.9 43.75Q57.05 42.75 54.05 42.65L53.05 42.65L49.8 43Q44.9 43.95 40.75 47.35Q38.75 48.9 37.05 51.1L36.4 51.9Q33.75 55.3 32.15 59.2Q30.55 63 29.85 67.3Q29.3 70.65 29.3 74.25Q29.3 87.3 36.4 96.55Q40.9 102.5 46.65 104.65Q49.6 105.75 52.8 105.8L54.25 105.8M42.2 38.95L41.5 43L40.75 47.35M72.65 47.4L72.5 47.35Q67.05 42.9 60.3 42.65L54.05 42.65M42.85 34.95L42.2 38.95L64.25 38.95L55.8 30.5M69.35 31.25L66.1 29.65Q59.1 26.7 45.45 24.8L36.55 27.1L36.55 34.95L42.85 34.95M64.25 38.95L69.4 38.95M73.05 42.65L77.8 47.4L72.65 47.4L64.25 38.95M68.35 49.4L80.35 49.4M38.35 21.1L37.9 20.65Q37.6 20.15 37.55 19.35Q37.55 18.85 37.7 18.3Q28.35 21.95 19.3 29M36.55 27.1L29.1 29M25.9 34.95L36.55 34.95M39.55 61.7L39.4 61.4Q39.4 57.45 41.85 54.65Q44.15 51.9 47.5 51.8Q50.2 49.9 53.3 49.25M32.9 97.25Q27.8 87.4 27.8 74.75L27.8 74.2L22.65 74.2L22.65 74.75Q22.65 87.4 27.8 97.25L32.9 97.25Q34.6 100.5 36.9 103.45Q41.35 109.25 46.65 112.2L46.65 104.65M39.45 62.2L39.4 62.3L39.4 62.55L39.45 62.2L39.55 61.7Q39.85 59.3 41.3 57.55Q42.2 56.4 43.25 55.8Q44.4 55.15 45.8 55.1L45.85 55.1L47.1 55.25Q48.95 55.7 50.45 57.55L50.5 57.6Q51.45 58.85 51.9 60.4Q52.3 61.65 52.3 63.05L52.3 64.25L55.85 64.25L55.85 61.2Q55.75 57.4 53.45 54.65Q52.2 53.25 50.7 52.55L49.2 52L48.2 51.8L47.8 51.8L47.65 51.8L47.5 51.8M39.4 62.3Q37.2 67.7 37.2 74.2Q37.2 80.75 39.4 86.15L39.4 85.55L39.4 84.75L39.4 84.5L39.4 63.5L39.4 63.3L39.4 62.55M50.85 99.55Q43.4 99.1 38.1 92.1Q32.4 84.65 32.4 74.2Q32.4 63.75 38.1 56.25Q39.7 54.2 41.6 52.65Q45.75 49.25 50.85 48.95M12.65 74.2L18.95 74.2L22.65 74.2M16.6 95.8L15.5 92.2L11.85 92.2L10.4 95.8L16.6 95.8L17.65 99.4L18.7 103.05L19.3 105.05L27.8 97.25Q29.5 100.5 31.75 103.45Q40.65 115.05 53.15 115.35L58.3 115.35Q52.05 115.2 46.65 112.2M16.5 117.2L15.55 113.85L14.5 110.25L13.4 106.65L12.35 103.05L11.3 99.4L10.3 96.1L10.4 95.8M13.95 86.85L11.85 92.2M15.5 92.2L13.95 86.85L18.95 74.2M47.1 92.75L45.85 92.9L45.45 92.9Q43.9 92.75 42.7 91.85L41.3 90.5Q39.85 88.75 39.55 86.4L39.4 85.55M39.4 86.15L39.4 86.3L39.4 86.55Q39.4 90.55 41.85 93.3Q43.6 95.45 46 95.95L46.7 96.1L47.45 96.1L48.65 96.1L50.7 95.45Q52.2 94.75 53.45 93.3L54.8 91.3Q52.45 90.75 51.3 89.25L50.45 90.5Q48.95 92.3 47.1 92.75Q45.2 92.3 43.75 90.5Q42.8 89.3 42.35 87.75Q41.9 86.45 41.85 85L41.85 82.3L41.85 79.5L41.85 76.8L41.85 74.05L41.85 71.3L41.85 68.6L41.85 65.85L41.85 63.05Q41.85 61.65 42.3 60.4L42.35 60.15Q42.85 58.75 43.7 57.6L43.75 57.55L44.5 56.7Q45.65 55.55 47.1 55.25M32.15 59.2L13.65 59.2M37.05 51.1L15.5 51.1M29.85 67.3L12.65 67.3M61.65 58.55L65.15 58.55L63.6 56.25L62.55 55M62 64.25L62 64.2L62 61.2L61.65 58.55Q61.05 56.4 59.6 54.65L57.55 52.85Q55.9 51.85 53.95 51.8L49.45 51.8L48.2 51.8M62 64.2L67.75 64.2Q66.75 61.2 65.15 58.55M62 69.9L69.05 69.9Q68.65 66.9 67.75 64.2M62 64.25L62 69.9L62 75.6L69.25 75.6L69.25 74.2L69.05 69.9M43.7 57.6L50.5 57.6M60.35 52.85L57.55 52.85M52.3 64.25L52.3 65.85L52.3 68.6L52.3 71.3L52.3 74.05L52.3 76.8L52.3 79.5L52.3 82.3L52.3 85Q52.3 86.45 51.9 87.75L51.3 89.25M51.9 60.4L42.3 60.4M41.85 65.85L52.3 65.85M52.3 68.6L41.85 68.6M52.3 63.05L41.85 63.05M41.85 74.05L52.3 74.05M52.3 71.3L41.85 71.3M43.75 90.5L50.45 90.5M48.7 96.1L48.65 96.1M68 83.4L66.7 86.95Q65.45 89.7 63.6 92.1L63.2 92.65Q60.7 95.75 57.75 97.4L55.05 98.7L54.25 98.95L53.3 99.2L51.3 99.5L50.85 99.55M54.25 98.95Q52.35 98.4 50.65 97.4L48.7 96.1L54 96.1Q57.25 96.05 59.6 93.3L60.1 92.65L60.9 91.3L54.8 91.3Q55.75 89.35 55.85 86.95L55.85 64.25L62 64.25M50.65 97.4L57.75 97.4M52.3 79.5L41.85 79.5M52.3 76.8L41.85 76.8M41.85 82.3L52.3 82.3M52.3 85L41.85 85M51.9 87.75L42.35 87.75M68.35 49.4L70.5 51.9Q77.55 61.15 77.55 74.25Q77.55 80.55 75.9 85.95Q71.55 85.2 68 83.4L68.55 81.3L62 81.3L62 86.95L66.7 86.95M69.25 75.6Q69.15 78.55 68.55 81.3M62 81.3L62 75.6M60.9 91.3Q61.9 89.35 62 86.95M63.2 92.65L60.1 92.65M17.3 43L41.5 43M49.45 51.8Q51.7 50.2 54.25 49.45M87.3 104.65L85.4 104.4Q81.55 104.4 78.65 107.7L77.65 108.9Q74.5 113.3 74.5 119.55Q74.5 125.8 77.65 130.2L78.8 131.55Q81.6 134.65 85.4 134.65L86.6 134.65L87.4 134.45L86.05 134.05Q84.6 133.45 83.4 132.3L82.6 131.55L81.5 130.2L81 129.45Q80.1 128 79.45 126.4L78.7 123.55Q78.4 122 78.35 120.3L78.3 119.55Q78.3 118.35 78.45 117.25Q78.6 115.7 79 114.2Q79.4 112.65 80.15 111.2Q80.7 110 81.5 108.9L82.25 108L82.45 107.7Q84.6 105.25 87.3 104.65Q90.1 105.3 92.4 108L93.1 108.9L94.5 111.2L95.6 114.2L96.15 117.25L96.25 119.55L96.25 120.3L95.9 123.55L95.3 125.95L95.25 126.1L95.2 126.35L93.65 129.45L93.1 130.2L92.35 131.2L91.25 132.3Q89.45 133.95 87.4 134.45M66.65 121.65L61.55 121.65L59.5 124.65L58.75 125.7L66.65 125.7L66.65 121.65L66.65 118.75L63.55 118.75L61.55 121.65M72.05 121.65L72 119.5L72 118.75L66.65 118.75L66.65 105.8M63.55 118.75L65.9 115.35L60.75 115.35L54.35 124.65L59.5 124.65M72 118.75Q72.2 110.4 76.4 104.3M66.65 121.65L72.05 121.65Q72.2 123.75 72.65 125.7L73.3 128.25L73.7 129.5L75.45 133.15L76.6 134.85L77.3 135.8L77.8 136.4Q79.05 137.8 80.45 138.85Q83.75 141.2 87.75 141.2L88.9 141.15L89.75 141.1Q92.65 140.55 95.15 138.75Q97.1 137.25 98.8 134.85Q100.25 132.95 101.3 130.8L101.35 130.5L102 128.95L102.1 128.55Q103.15 125.2 103.4 121.45L103.45 119.5Q103.45 113.3 101.25 108.4Q100.25 106.05 98.8 104.05Q94.95 98.75 89.75 97.85M58.75 125.7L56.1 129.5L66.65 129.5L66.65 125.7L72.65 125.7M56.1 129.5L53.05 133.95L47.9 133.95L46.15 133.95L46.15 141.05L46.15 144.1L48.05 146L50.45 148.4L59.1 139.7L66.65 139.7L66.65 129.5L73.7 129.5M47.9 133.95L54.35 124.65L25.1 124.65L18.7 124.65L17.65 121.15L16.65 117.5L16.5 117.2L12.25 121.5L8.55 125.15M79.45 126.4L79.5 126.4L82.3 123.55L78.7 123.55L81.95 120.3L78.35 120.3L81.4 117.25L78.45 117.25L81.45 114.2L79 114.2L82 111.2L80.15 111.2L83.4 108L82.25 108M75.65 148.95Q75.75 147.85 76 146.65Q76.45 144.75 77.3 143.1L77.3 135.8M75.45 139.7L75.45 133.15M66.65 139.7L75.45 139.7L75.45 148.95L75.65 148.95Q75.5 151.9 76.75 154.1Q77.65 155.75 79.05 156.55L77.3 150.55L77.3 143.1M58.3 115.35L60.75 115.35M21.95 113.85L20.85 110.25L14.5 110.25M24.05 121.1L23 117.5L16.65 117.5M23 117.5L21.95 113.85L15.55 113.85M19.8 106.65L19.3 105.05M19.8 106.65L13.4 106.65M17.65 99.4L11.3 99.4M18.7 103.05L12.35 103.05M26.05 141.05Q26.05 139.3 27.05 138Q28.05 136.75 29.4 136.75Q30.8 136.75 31.8 138Q32.8 139.3 32.8 141.05L46.15 141.05M26.05 141.05L22.35 141.05M32.8 141.05Q32.8 142.8 31.8 144.1Q30.8 145.35 29.4 145.35Q28.05 145.35 27.05 144.1Q26.05 142.8 26.05 141.05M24.05 121.1L17.65 121.15M20.85 110.25L19.8 106.65M25.1 124.65L24.05 121.1M29.4 153.9Q29.4 152.15 30.4 150.9Q31.4 149.6 32.8 149.6Q34.2 149.6 35.2 150.9Q36.2 152.15 36.2 153.9L40.1 153.9L48.05 146M36.2 153.9Q36.2 155.7 35.2 156.95Q34.2 158.2 32.8 158.2Q31.4 158.2 30.4 156.95Q29.4 155.7 29.4 153.9L25.35 153.9M68.45 152.9L75.45 152.9L75.45 148.95M79.05 156.55L80 159.7L86.15 180.2L87.85 185.75M68.45 152.9L66.65 152.9L57.6 152.9L57.6 158.15L62.35 162.85L66.5 162.85L68.45 152.9zM73 177.4L72.85 177.15Q71.1 174.05 72.15 169.7Q73 165.75 75.65 162.85L66.5 162.85L63.65 177.4L73 177.4Q74.55 180.05 77.55 180.2L77.8 180.2L86.15 180.2M75.65 162.85L76.25 162.2Q78.1 160.4 80 159.7M57.6 152.9L54.95 152.9L50.45 148.4M63.65 177.4L62 185.75M34.85 164.85L50.8 164.85L52.9 177.4L63.65 177.4M39.9 175L51.85 175M37.05 168.35L50.7 168.35M38.65 171.85L51.4 171.85M66.65 152.9L66.65 139.7M46.15 133.95L16.9 133.95M146.4 118.9L146.4 118.55L146.45 115.05L146.45 112.35L146.45 111.55M122.25 99.35L123.6 101.95M137.5 146.8L127.45 140.35L122.6 144.75L104.35 132.8L103.8 133.7Q107.4 139.4 109.65 149.1L109.45 149.4L105.2 153.45L101.65 156.35L100.55 157.05L95.45 160.2L90.1 162.7L90.1 173.75L92.35 173.75Q99.7 173.4 106.3 171.45L110.4 169.95Q115.95 167.7 120.95 164.25L122.65 163.05Q126.35 160.15 129.75 156.55L131.65 154.55Q134.15 151.75 136.15 148.8L137.5 146.8zM152.2 146.8L149.15 143.5M104.35 132.8L105.5 130.5L106.15 128.95L106.25 128.55Q107.3 125.2 107.55 121.45L107.6 119.5L107.6 118.15M81.45 114.2L95.6 114.2M82.3 123.55L95.9 123.55M96.25 120.3L81.95 120.3M81.4 117.25L96.15 117.25M82 111.2L94.5 111.2M81 129.45L84.05 126.4L79.5 126.4M83.4 108L92.4 108M86.05 134.05L87.75 132.3L83.4 132.3L86.25 129.45L81 129.45M95.85 140.55Q97.65 139.95 99.35 138.75L99.95 138.25L102.95 134.85L103.8 133.7M97.35 144.6L98.5 147.75L103.25 147.75L102.2 144.6L97.35 144.6L95.85 140.55L93.05 141.15L91.9 141.2L89.75 141.1M87.75 132.3L91.25 132.3M86.25 129.45L93.65 129.45M95.2 126.35L84.05 126.4M106.25 128.55L112 128.55Q116.15 124.2 119.6 118.9L146.4 118.9M102.2 144.6L99.95 138.25M95.45 160.2L93.05 153.25L91.95 150.05L88.9 141.15M129.75 178L109.8 190.5L103.7 190.5L92.25 190.5M164.8 108.25L160.05 84.8M137.95 173.8L162.9 173.8M121.15 61.7Q153.45 65.85 174.95 61.05M162 121.75L156.35 124.5M12.25 121.5L2.75 89.25M53.3 99.2Q49.7 98.45 46.7 96.1M91.95 150.05L97.35 144.6M103.7 190.5L123.7 178M93.05 153.25L98.5 147.75L101.65 156.35M105.2 153.45L103.25 147.75M129.95 196L152.85 181.7M134 181.7L137.95 173.8L134.15 169.25M140.1 181.7L141 179.9L145.65 179.9L153.8 179.9L152.85 181.7L158.9 181.7M145.65 179.9L128.6 190.5L126 190.5L117.15 196M126 190.5L140.1 181.7L134 181.7L111.1 196M143.25 151.9L145.85 154.75L140.75 154.75L143.25 151.9L145.5 149L147.1 146.8M145.85 154.75L150.65 149L152.2 146.8M156.1 151.9L158.7 154.75L153.55 154.75L156.1 151.9L158.35 149L159.9 146.8M92.35 173.75L103.9 173.75Q111.3 173.4 117.85 171.45L121.95 169.95L126.9 167.7L129.65 166.15"/>
</svg>
