<?xml version="1.0" encoding="UTF-8" standalone="no"?>
<svg xmlns:xlink="http://www.w3.org/1999/xlink" height="72.3px" width="139.8px" xmlns="http://www.w3.org/2000/svg">
  <g transform="matrix(1.0, 0.0, 0.0, 1.0, 0.05, 0.05)">
    <use height="72.3" transform="matrix(1.0, 0.0, 0.0, 1.0, -0.05, -0.05)" width="139.8" xlink:href="#shape0"/>
  </g>
  <defs>
    <g id="shape0" transform="matrix(1.0, 0.0, 0.0, 1.0, 0.05, 0.05)">
      <path d="M39.9 72.2 L29.2 68.25 24.6 66.55 22.65 63.05 21.6 61.1 21.15 60.3 17.55 53.7 18.0 53.55 21.05 52.35 22.95 51.6 24.1 51.15 23.0 49.45 22.65 48.9 19.55 44.05 18.5 42.4 17.25 40.5 16.05 38.55 14.8 36.65 13.6 34.75 12.4 32.85 11.15 30.9 11.1 30.8 14.8 29.35 15.55 29.05 18.2 28.0 22.75 26.25 23.15 26.05 39.55 43.05 43.2 43.05 53.75 43.05 61.2 51.4 64.85 51.4 72.65 51.4 76.3 51.4 79.95 51.4 83.6 51.4 87.25 51.4 89.55 51.4 91.6 55.05 93.7 58.7 49.4 69.85 46.65 68.8 49.4 69.85 39.9 72.2 M26.7 2.85 L31.35 0.0 67.25 5.45 86.3 13.75 81.15 19.75 53.8 17.95 81.15 19.75 86.3 13.75 104.1 21.5 101.95 28.25 98.55 27.95 89.25 27.15 86.2 26.9 83.2 26.65 80.25 26.4 57.6 24.45 53.8 17.95 52.5 15.75 45.55 15.3 38.8 14.9 35.25 14.65 28.55 14.2 26.2 14.05 22.95 13.85 15.45 17.7 13.9 12.45 13.45 11.1 21.3 6.25 26.7 2.85 M58.5 62.05 L91.6 55.05 58.5 62.05 M39.3 4.8 Q38.9 5.65 38.85 6.9 38.8 8.2 39.1 9.15 39.4 10.1 39.9 10.15 40.4 10.2 40.75 9.3 L41.15 7.15 Q41.2 5.9 40.9 5.0 40.6 4.05 40.15 4.0 39.65 3.95 39.3 4.8 M42.7 5.25 Q42.35 6.05 42.35 7.3 42.3 8.5 42.6 9.45 42.9 10.35 43.35 10.4 43.8 10.4 44.1 9.55 L44.45 7.5 44.2 5.45 Q43.9 4.55 43.5 4.5 43.05 4.45 42.7 5.25 M47.45 7.85 L47.2 5.85 Q46.95 5.15 46.7 5.0 L46.55 4.95 Q46.15 4.9 45.85 5.65 45.55 6.45 45.55 7.65 45.5 8.8 45.8 9.7 46.1 10.55 46.5 10.6 L46.65 10.55 47.2 9.8 47.45 7.85 M27.0 41.0 L18.2 28.0 27.0 41.0 M33.0 8.7 Q33.5 7.75 33.6 6.35 33.7 5.0 33.35 4.0 33.05 3.0 32.5 2.9 31.9 2.8 31.45 3.75 30.9 4.65 30.8 6.05 L30.75 6.8 Q30.75 7.75 31.0 8.55 31.35 9.6 31.95 9.65 32.55 9.7 33.0 8.7 M36.5 3.5 Q35.95 3.4 35.55 4.3 35.1 5.15 35.0 6.5 34.95 7.85 35.25 8.85 35.6 9.9 36.1 9.9 36.65 9.95 37.05 9.0 37.5 8.1 37.55 6.8 37.6 5.45 37.3 4.5 37.0 3.55 36.5 3.5 M27.5 41.75 L31.85 48.15 24.1 51.15 31.85 48.15 27.5 41.75 M61.2 51.4 L61.05 51.4 59.0 54.9 36.4 54.9 34.4 51.95 36.4 54.9 59.0 54.9 61.05 51.4 61.2 51.4 M29.2 68.25 L39.6 66.05 45.85 68.5 39.6 66.05 29.2 68.25 M59.0 54.9 L55.4 61.0 59.0 54.9 M58.15 62.15 L54.2 62.95 55.15 61.35 54.2 62.95 58.15 62.15 M34.2 51.6 L31.85 48.15 34.2 51.6 M39.6 66.05 L54.2 62.95 39.6 66.05" fill="#666666" fill-rule="evenodd" stroke="none"/>
      <path d="M128.45 58.7 L101.5 69.85 95.75 72.2 39.9 72.2 49.4 69.85 93.7 58.7 128.45 58.7 M14.8 44.15 L14.2 43.0 8.9 41.95 8.8 41.7 10.65 41.85 18.5 42.4 19.55 44.05 22.65 48.9 20.95 48.45 18.1 47.7 16.35 47.2 16.15 46.8 15.6 45.7 14.8 44.15 M1.8 17.5 L0.15 17.3 0.15 14.75 2.45 12.3 7.25 7.1 11.15 6.85 13.45 4.2 26.7 2.85 21.3 6.25 13.45 11.1 13.9 12.45 15.45 17.7 19.1 17.7 19.65 17.4 21.35 22.25 22.3 24.95 22.75 26.25 18.2 28.0 15.55 29.05 15.05 27.55 14.45 25.7 13.85 23.8 13.2 21.95 12.6 20.1 12.0 18.25 1.8 17.5 M80.25 26.4 L79.45 27.6 79.45 30.15 79.45 33.45 79.45 36.25 Q79.75 37.0 80.35 37.6 L81.0 38.15 81.6 38.55 68.15 38.55 66.95 41.05 63.0 49.3 57.4 43.05 53.75 43.05 43.2 43.05 40.35 40.1 36.75 36.35 39.0 36.35 41.9 33.45 41.8 33.15 40.85 30.45 39.85 27.7 38.9 24.95 37.95 22.25 35.25 14.65 38.8 14.9 41.4 22.25 42.35 24.95 43.35 27.7 44.3 30.45 45.25 33.15 46.4 36.35 49.05 36.35 51.9 33.45 51.85 33.15 50.85 30.45 49.9 27.7 48.95 24.95 47.95 22.25 45.55 15.3 52.5 15.75 53.8 17.95 57.6 24.45 80.25 26.4 M67.55 30.15 L59.7 30.15 57.9 33.45 54.2 40.1 40.35 40.1 54.2 40.1 57.9 33.45 59.7 30.15 67.55 30.15 M67.9 33.45 L79.45 33.45 67.9 33.45 M67.9 30.15 L79.45 30.15 67.9 30.15 M57.9 33.45 L67.55 33.45 57.9 33.45 M26.2 14.05 L28.55 14.2 31.35 22.25 32.35 24.95 33.3 27.7 34.25 30.45 35.25 33.15 36.15 35.75 30.7 30.1 29.85 27.7 28.85 24.95 27.9 22.25 25.2 14.55 26.2 14.05 M13.9 12.45 L2.45 12.3 13.9 12.45 M19.55 44.05 L14.2 43.0 19.55 44.05 M11.15 6.85 L21.3 6.25 11.15 6.85 M59.9 69.85 L49.4 69.85 59.9 69.85 M101.5 69.85 L60.25 69.85 101.5 69.85" fill="#4c4c4c" fill-rule="evenodd" stroke="none"/>
      <path d="M136.05 28.25 L136.05 27.7 Q135.7 26.6 134.75 25.7 133.8 24.85 132.6 24.5 L123.55 24.5 113.75 24.5 105.85 24.5 106.2 23.6 137.05 23.6 137.7 28.25 136.05 28.25 M22.65 63.05 Q19.0 62.5 16.15 60.6 L14.9 59.65 14.6 59.45 Q13.05 58.05 11.8 56.2 11.05 55.1 10.6 54.0 9.6 51.5 9.95 48.95 L10.1 47.85 10.6 46.85 Q11.75 45.25 14.8 44.15 L15.6 45.7 Q14.3 46.2 13.5 46.85 12.45 47.65 12.15 48.6 L12.05 49.55 Q11.7 51.8 12.7 54.0 L13.55 55.55 14.6 56.95 16.15 58.5 Q18.5 60.4 21.6 61.1 L22.65 63.05 M10.65 41.85 L7.85 39.8 9.75 39.95 6.9 37.9 8.8 38.05 5.95 36.0 7.85 36.15 5.05 34.15 6.95 34.25 4.1 32.25 6.0 32.35 3.15 30.35 5.05 30.5 2.2 28.45 4.1 28.6 1.3 26.55 3.2 26.7 0.35 24.65 2.25 24.8 0.0 22.8 1.8 22.95 0.6 21.05 2.4 21.15 1.2 19.25 3.0 19.4 1.8 17.5 12.0 18.25 12.6 20.1 13.2 21.95 13.85 23.8 1.8 22.95 13.85 23.8 14.45 25.7 15.05 27.55 15.55 29.05 14.8 29.35 11.1 30.8 11.15 30.9 12.4 32.85 13.6 34.75 14.8 36.65 16.05 38.55 17.25 40.5 18.5 42.4 10.65 41.85 M89.85 39.4 L92.8 39.4 92.5 40.0 91.45 40.0 87.8 40.0 84.15 40.0 80.5 40.0 76.85 40.0 Q75.55 40.3 74.45 41.05 L74.2 41.2 Q73.05 42.1 72.65 43.2 L72.65 51.4 64.85 51.4 63.0 49.3 66.95 41.05 68.15 38.55 81.6 38.55 Q82.45 39.1 83.45 39.4 L86.65 39.4 89.85 39.4 M101.45 54.9 L112.2 54.85 121.25 54.9 128.0 54.85 127.45 55.85 95.15 55.85 94.6 54.9 101.45 54.9 M47.45 7.85 L47.2 9.8 46.65 10.55 46.5 10.6 Q46.1 10.55 45.8 9.7 45.5 8.8 45.55 7.65 45.55 6.45 45.85 5.65 46.15 4.9 46.55 4.95 L46.7 5.0 Q46.95 5.15 47.2 5.85 L47.45 7.85 M42.7 5.25 Q43.05 4.45 43.5 4.5 43.9 4.55 44.2 5.45 L44.45 7.5 44.1 9.55 Q43.8 10.4 43.35 10.4 42.9 10.35 42.6 9.45 42.3 8.5 42.35 7.3 42.35 6.05 42.7 5.25 M39.3 4.8 Q39.65 3.95 40.15 4.0 40.6 4.05 40.9 5.0 41.2 5.9 41.15 7.15 L40.75 9.3 Q40.4 10.2 39.9 10.15 39.4 10.1 39.1 9.15 38.8 8.2 38.85 6.9 38.9 5.65 39.3 4.8 M74.45 41.05 L66.95 41.05 74.45 41.05 M36.5 3.5 Q37.0 3.55 37.3 4.5 37.6 5.45 37.55 6.8 37.5 8.1 37.05 9.0 36.65 9.95 36.1 9.9 35.6 9.9 35.25 8.85 34.95 7.85 35.0 6.5 35.1 5.15 35.55 4.3 35.95 3.4 36.5 3.5 M33.0 8.7 Q32.55 9.7 31.95 9.65 31.35 9.6 31.0 8.55 30.75 7.75 30.75 6.8 L30.8 6.05 Q30.9 4.65 31.45 3.75 31.9 2.8 32.5 2.9 33.05 3.0 33.35 4.0 33.7 5.0 33.6 6.35 33.5 7.75 33.0 8.7 M15.45 17.7 L22.95 13.85 26.2 14.05 25.2 14.55 19.65 17.4 19.1 17.7 15.45 17.7 M3.0 19.4 L12.6 20.1 3.0 19.4 M2.4 21.15 L13.2 21.95 2.4 21.15 M22.65 48.9 L23.0 49.45 23.0 49.55 Q22.85 50.6 22.95 51.6 L21.05 52.35 Q20.65 50.7 20.9 48.95 L20.95 48.45 22.65 48.9 M2.25 24.8 L14.45 25.7 2.25 24.8 M3.2 26.7 L15.05 27.55 3.2 26.7 M21.15 60.3 L20.35 59.65 20.1 59.45 Q18.5 58.05 17.25 56.2 16.5 55.1 16.05 54.0 15.05 51.5 15.45 48.95 L15.6 47.85 16.1 46.85 16.15 46.8 16.35 47.2 18.1 47.7 17.65 48.6 Q17.5 49.05 17.5 49.55 17.2 51.55 18.0 53.55 L17.55 53.7 21.15 60.3 M14.8 36.65 L7.85 36.15 14.8 36.65 M8.8 38.05 L16.05 38.55 8.8 38.05 M17.25 40.5 L9.75 39.95 17.25 40.5 M14.8 29.35 L4.1 28.6 14.8 29.35 M5.05 30.5 L11.15 30.9 5.05 30.5 M6.0 32.35 L12.4 32.85 6.0 32.35 M6.95 34.25 L13.6 34.75 6.95 34.25" fill="#333333" fill-rule="evenodd" stroke="none"/>
      <path d="M137.7 28.25 L137.05 23.6 106.2 23.6 105.85 24.5 105.2 26.55 104.65 28.25 102.25 28.25 101.95 28.25 104.1 21.5 138.75 21.5 139.7 28.25 137.7 28.25 M130.9 54.45 L128.45 58.7 93.7 58.7 91.6 55.05 89.55 51.4 92.65 51.4 94.6 54.9 95.15 55.85 127.45 55.85 128.0 54.85 130.0 54.85 130.9 54.45" fill="#7f7f7f" fill-rule="evenodd" stroke="none"/>
      <path d="M109.95 5.45 L124.85 13.75 138.75 21.5 104.1 21.5 86.3 13.75 67.25 5.45 109.95 5.45 M110.3 13.75 L86.3 13.75 110.3 13.75 M110.8 13.75 L124.85 13.75 110.8 13.75 M36.75 36.35 L40.35 40.1 43.2 43.05 39.55 43.05 23.15 26.05 26.8 26.05 28.35 27.7 30.7 30.1 36.15 35.75 36.75 36.35 M53.75 43.05 L57.4 43.05 63.0 49.3 64.85 51.4 61.2 51.4 53.75 43.05" fill="#999999" fill-rule="evenodd" stroke="none"/>
      <path d="M31.35 0.0 L81.3 0.0 109.95 5.45 67.25 5.45 31.35 0.0" fill="#b2b2b2" fill-rule="evenodd" stroke="none"/>
      <path d="M92.8 39.4 L92.85 39.35 93.0 39.4 92.8 39.4" fill="url(#gradient0)" fill-rule="evenodd" stroke="none"/>
      <path d="M98.55 27.95 L98.6 36.25 99.5 37.6 100.15 38.15 Q101.25 39.0 102.6 39.4 L93.0 39.4 92.85 39.35 92.8 39.4 89.85 39.4 Q88.45 39.0 87.35 38.15 L86.75 37.6 Q86.1 37.0 85.8 36.25 L85.8 27.6 86.2 26.9 85.8 27.6 85.8 36.25 Q86.1 37.0 86.75 37.6 L87.35 38.15 Q88.45 39.0 89.85 39.4 L86.65 39.4 Q85.3 39.0 84.2 38.15 L83.55 37.6 Q82.95 37.0 82.65 36.25 L82.65 27.6 83.2 26.65 82.65 27.6 82.65 36.25 Q82.95 37.0 83.55 37.6 L84.2 38.15 Q85.3 39.0 86.65 39.4 L83.45 39.4 Q82.45 39.1 81.6 38.55 L81.0 38.15 80.35 37.6 Q79.75 37.0 79.45 36.25 L79.45 33.45 79.45 30.15 79.45 27.6 80.25 26.4 83.2 26.65 86.2 26.9 89.25 27.15 98.55 27.95 M89.25 27.15 L89.0 27.6 89.0 36.25 Q89.3 37.0 89.95 37.6 L90.55 38.15 Q91.6 38.95 92.85 39.35 91.6 38.95 90.55 38.15 L89.95 37.6 Q89.3 37.0 89.0 36.25 L89.0 27.6 89.25 27.15" fill="url(#gradient1)" fill-rule="evenodd" stroke="none"/>
      <path d="M83.6 46.95 L83.55 43.2 Q84.0 42.1 85.15 41.2 86.3 40.35 87.8 40.0 86.3 40.35 85.15 41.2 84.0 42.1 83.55 43.2 L83.6 46.95 M87.25 46.95 L87.2 43.2 Q87.65 42.1 88.8 41.2 89.95 40.35 91.45 40.0 89.95 40.35 88.8 41.2 87.65 42.1 87.2 43.2 L87.25 46.95 M79.95 46.95 L79.95 43.2 Q80.35 42.1 81.5 41.2 82.65 40.35 84.15 40.0 82.65 40.35 81.5 41.2 80.35 42.1 79.95 43.2 L79.95 46.95 M74.45 41.05 Q75.55 40.3 76.85 40.0 L80.5 40.0 84.15 40.0 87.8 40.0 91.45 40.0 92.5 40.0 101.45 40.0 Q100.0 40.35 98.85 41.2 97.7 42.1 97.25 43.2 L97.25 51.75 Q97.7 52.8 98.85 53.65 99.9 54.5 101.25 54.85 L101.45 54.9 94.6 54.9 92.65 51.4 89.55 51.4 87.25 51.4 83.6 51.4 83.6 47.3 83.6 51.4 79.95 51.4 76.3 51.4 72.65 51.4 72.65 43.2 Q73.05 42.1 74.2 41.2 L74.45 41.05 M87.25 47.3 L87.25 51.4 87.25 47.3 M76.3 46.95 L76.3 43.2 Q76.7 42.1 77.85 41.2 79.0 40.35 80.5 40.0 79.0 40.35 77.85 41.2 76.7 42.1 76.3 43.2 L76.3 46.95 M76.3 47.3 L76.3 51.4 76.3 47.3 M79.95 47.3 L79.95 51.4 79.95 47.3" fill="url(#gradient2)" fill-rule="evenodd" stroke="none"/>
      <path d="M113.75 24.5 L123.55 24.5 Q122.35 24.85 121.4 25.7 120.45 26.6 120.1 27.7 L120.1 36.25 Q120.5 37.3 121.4 38.15 L123.5 39.4 113.8 39.4 Q115.25 39.05 116.4 38.15 117.5 37.3 117.95 36.25 L118.0 27.7 Q117.55 26.6 116.4 25.7 115.25 24.85 113.75 24.5" fill="url(#gradient3)" fill-rule="evenodd" stroke="none"/>
      <path d="M112.2 54.85 L113.35 54.45 114.55 53.7 114.6 53.65 Q115.7 52.8 116.15 51.75 L116.15 43.2 Q115.7 42.1 114.6 41.2 113.4 40.35 111.95 40.0 L121.25 40.0 Q120.05 40.35 119.1 41.2 L118.35 42.15 117.85 43.2 117.85 51.75 Q118.2 52.8 119.1 53.65 L121.1 54.85 121.25 54.9 112.2 54.85" fill="url(#gradient4)" fill-rule="evenodd" stroke="none"/>
      <path d="M123.55 24.5 L132.6 24.5 Q133.8 24.85 134.75 25.7 135.7 26.6 136.05 27.7 L136.05 28.25 136.05 36.25 Q135.65 37.3 134.75 38.15 L132.6 39.4 123.5 39.4 121.4 38.15 Q120.5 37.3 120.1 36.25 L120.1 27.7 Q120.45 26.6 121.4 25.7 122.35 24.85 123.55 24.5 M125.6 26.6 Q124.55 26.9 123.65 27.7 L123.15 28.25 122.45 29.5 122.5 34.7 Q122.85 35.65 123.65 36.4 L123.9 36.65 Q124.65 37.25 125.55 37.5 L125.65 37.55 132.0 37.55 Q132.95 37.3 133.75 36.65 L133.95 36.4 Q134.8 35.6 135.15 34.6 L135.15 29.55 134.5 28.25 133.95 27.7 Q133.1 26.85 131.95 26.55 L125.65 26.55 125.6 26.6" fill="url(#gradient5)" fill-rule="evenodd" stroke="none"/>
      <path d="M131.7 43.75 L131.2 43.2 Q130.4 42.45 129.45 42.15 L129.2 42.05 123.6 42.05 123.4 42.15 122.95 42.3 Q122.2 42.65 121.6 43.2 L121.1 43.75 120.4 45.05 120.45 50.1 Q120.75 51.1 121.6 51.9 L121.85 52.15 122.6 52.65 123.6 53.05 129.25 53.05 Q130.2 52.8 131.0 52.15 L131.2 51.9 Q132.05 51.1 132.4 50.1 L132.4 45.05 131.7 43.75 M121.25 40.0 L129.85 40.0 Q131.05 40.35 132.0 41.2 L132.75 42.15 133.25 43.2 133.25 51.75 Q132.9 52.8 132.0 53.65 L131.95 53.7 130.95 54.45 130.9 54.45 130.0 54.85 128.0 54.85 121.25 54.9 121.1 54.85 119.1 53.65 Q118.2 52.8 117.85 51.75 L117.85 43.2 118.35 42.15 119.1 41.2 Q120.05 40.35 121.25 40.0" fill="url(#gradient6)" fill-rule="evenodd" stroke="none"/>
      <path d="M105.85 24.5 L113.75 24.5 Q115.25 24.85 116.4 25.7 117.55 26.6 118.0 27.7 L117.95 36.25 Q117.5 37.3 116.4 38.15 115.25 39.05 113.8 39.4 L102.6 39.4 Q101.25 39.0 100.15 38.15 L99.5 37.6 98.6 36.25 98.55 27.95 101.95 28.25 102.25 28.25 Q101.65 28.85 101.4 29.55 L101.4 34.6 Q101.8 35.6 102.85 36.4 103.9 37.2 105.15 37.55 L113.0 37.55 Q114.2 37.3 115.15 36.65 L115.45 36.4 Q116.5 35.6 116.9 34.6 L116.9 29.55 116.1 28.25 115.45 27.7 Q114.35 26.85 113.0 26.55 L105.2 26.55 105.85 24.5" fill="url(#gradient7)" fill-rule="evenodd" stroke="none"/>
      <path d="M101.45 54.9 L101.25 54.85 Q99.9 54.5 98.85 53.65 97.7 52.8 97.25 51.75 L97.25 43.2 Q97.7 42.1 98.85 41.2 100.0 40.35 101.45 40.0 L111.95 40.0 Q113.4 40.35 114.6 41.2 115.7 42.1 116.15 43.2 L116.15 51.75 Q115.7 52.8 114.6 53.65 L114.55 53.7 113.35 54.45 112.2 54.85 101.45 54.9 M114.25 43.75 L113.6 43.2 Q112.55 42.35 111.15 42.05 L104.35 42.05 Q103.5 42.25 102.75 42.65 102.3 42.85 101.9 43.2 L101.25 43.75 100.4 45.05 100.45 50.1 Q100.85 51.1 101.9 51.9 L102.15 52.15 Q103.15 52.8 104.3 53.05 L111.2 53.05 Q112.4 52.8 113.35 52.15 L113.6 51.9 Q114.65 51.1 115.05 50.1 L115.1 45.05 114.25 43.75" fill="url(#gradient8)" fill-rule="evenodd" stroke="none"/>
      <path d="M125.6 26.6 L125.65 26.55 131.95 26.55 Q133.1 26.85 133.95 27.7 L134.5 28.25 135.15 29.55 135.15 34.6 Q134.8 35.6 133.95 36.4 L133.75 36.65 Q132.95 37.3 132.0 37.55 L125.65 37.55 125.55 37.5 Q124.65 37.25 123.9 36.65 L123.65 36.4 Q122.85 35.65 122.5 34.7 L122.45 29.5 123.15 28.25 123.65 27.7 Q124.55 26.9 125.6 26.6" fill="url(#gradient9)" fill-rule="evenodd" stroke="none"/>
      <path d="M105.2 26.55 L113.0 26.55 Q114.35 26.85 115.45 27.7 L116.1 28.25 116.9 29.55 116.9 34.6 Q116.5 35.6 115.45 36.4 L115.15 36.65 Q114.2 37.3 113.0 37.55 L105.15 37.55 Q103.9 37.2 102.85 36.4 101.8 35.6 101.4 34.6 L101.4 29.55 Q101.65 28.85 102.25 28.25 L104.65 28.25 105.2 26.55" fill="url(#gradient10)" fill-rule="evenodd" stroke="none"/>
      <path d="M114.25 43.75 L115.1 45.05 115.05 50.1 Q114.65 51.1 113.6 51.9 L113.35 52.15 Q112.4 52.8 111.2 53.05 L104.3 53.05 Q103.15 52.8 102.15 52.15 L101.9 51.9 Q100.85 51.1 100.45 50.1 L100.4 45.05 101.25 43.75 101.9 43.2 Q102.3 42.85 102.75 42.65 103.5 42.25 104.35 42.05 L111.15 42.05 Q112.55 42.35 113.6 43.2 L114.25 43.75" fill="url(#gradient11)" fill-rule="evenodd" stroke="none"/>
      <path d="M131.7 43.75 L132.4 45.05 132.4 50.1 Q132.05 51.1 131.2 51.9 L131.0 52.15 Q130.2 52.8 129.25 53.05 L123.6 53.05 122.6 52.65 121.85 52.15 121.6 51.9 Q120.75 51.1 120.45 50.1 L120.4 45.05 121.1 43.75 121.6 43.2 Q122.2 42.65 122.95 42.3 L123.4 42.15 123.6 42.05 129.2 42.05 129.45 42.15 Q130.4 42.45 131.2 43.2 L131.7 43.75" fill="url(#gradient12)" fill-rule="evenodd" stroke="none"/>
      <path d="M45.55 15.3 L47.95 22.25 48.95 24.95 49.9 27.7 50.85 30.45 51.85 33.15 51.9 33.45 49.05 36.35 46.4 36.35 45.25 33.15 44.3 30.45 43.35 27.7 42.35 24.95 41.4 22.25 38.8 14.9 45.55 15.3 M41.4 22.25 L47.95 22.25 41.4 22.25 M48.95 24.95 L42.35 24.95 48.95 24.95 M49.9 27.7 L43.35 27.7 49.9 27.7 M51.85 33.15 L45.25 33.15 51.85 33.15 M50.85 30.45 L44.3 30.45 50.85 30.45" fill="url(#gradient13)" fill-rule="evenodd" stroke="none"/>
      <path d="M35.25 14.65 L37.95 22.25 38.9 24.95 39.85 27.7 40.85 30.45 41.8 33.15 41.9 33.45 39.0 36.35 36.75 36.35 36.15 35.75 35.25 33.15 34.25 30.45 33.3 27.7 32.35 24.95 31.35 22.25 37.95 22.25 31.35 22.25 28.55 14.2 35.25 14.65 M38.9 24.95 L32.35 24.95 38.9 24.95 M39.85 27.7 L33.3 27.7 39.85 27.7 M40.85 30.45 L34.25 30.45 40.85 30.45 M41.8 33.15 L35.25 33.15 41.8 33.15" fill="url(#gradient14)" fill-rule="evenodd" stroke="none"/>
      <path d="M23.15 26.05 L22.75 26.25 22.3 24.95 21.35 22.25 27.9 22.25 21.35 22.25 19.65 17.4 25.2 14.55 27.9 22.25 28.85 24.95 22.3 24.95 28.85 24.95 29.85 27.7 28.35 27.7 29.85 27.7 30.7 30.1 28.35 27.7 26.8 26.05 23.15 26.05" fill="url(#gradient15)" fill-rule="evenodd" stroke="none"/>
      <path d="M123.55 24.5 L132.6 24.5 Q133.8 24.85 134.75 25.7 135.7 26.6 136.05 27.7 L136.05 28.25 137.7 28.25 137.05 23.6 106.2 23.6 105.85 24.5 113.75 24.5 123.55 24.5 Q122.35 24.85 121.4 25.7 120.45 26.6 120.1 27.7 L120.1 36.25 Q120.5 37.3 121.4 38.15 L123.5 39.4 132.6 39.4 134.75 38.15 Q135.65 37.3 136.05 36.25 L136.05 28.25 M109.95 5.45 L124.85 13.75 138.75 21.5 139.7 28.25 137.7 28.25 M125.6 26.6 Q124.55 26.9 123.65 27.7 L123.15 28.25 122.45 29.5 122.5 34.7 Q122.85 35.65 123.65 36.4 L123.9 36.65 Q124.65 37.25 125.55 37.5 L125.65 37.55 132.0 37.55 Q132.95 37.3 133.75 36.65 L133.95 36.4 Q134.8 35.6 135.15 34.6 L135.15 29.55 134.5 28.25 133.95 27.7 Q133.1 26.85 131.95 26.55 L125.65 26.55 125.6 26.6 M131.7 43.75 L131.2 43.2 Q130.4 42.45 129.45 42.15 L129.2 42.05 123.6 42.05 123.4 42.15 122.95 42.3 Q122.2 42.65 121.6 43.2 L121.1 43.75 120.4 45.05 120.45 50.1 Q120.75 51.1 121.6 51.9 L121.85 52.15 122.6 52.65 123.6 53.05 129.25 53.05 Q130.2 52.8 131.0 52.15 L131.2 51.9 Q132.05 51.1 132.4 50.1 L132.4 45.05 131.7 43.75 M121.25 40.0 L129.85 40.0 Q131.05 40.35 132.0 41.2 L132.75 42.15 133.25 43.2 133.25 51.75 Q132.9 52.8 132.0 53.65 L131.95 53.7 130.95 54.45 130.9 54.45 128.45 58.7 101.5 69.85 95.75 72.2 39.9 72.2 29.2 68.25 24.6 66.55 22.65 63.05 Q19.0 62.5 16.15 60.6 L14.9 59.65 14.6 59.45 Q13.05 58.05 11.8 56.2 11.05 55.1 10.6 54.0 9.6 51.5 9.95 48.95 L10.1 47.85 10.6 46.85 Q11.75 45.25 14.8 44.15 L14.2 43.0 8.9 41.95 8.8 41.7 10.65 41.85 7.85 39.8 9.75 39.95 6.9 37.9 8.8 38.05 5.95 36.0 7.85 36.15 5.05 34.15 6.95 34.25 4.1 32.25 6.0 32.35 3.15 30.35 5.05 30.5 2.2 28.45 4.1 28.6 1.3 26.55 3.2 26.7 0.35 24.65 2.25 24.8 0.0 22.8 1.8 22.95 0.6 21.05 2.4 21.15 1.2 19.25 3.0 19.4 1.8 17.5 0.15 17.3 0.15 14.75 2.45 12.3 7.25 7.1 11.15 6.85 13.45 4.2 26.7 2.85 31.35 0.0 81.3 0.0 109.95 5.45 67.25 5.45 86.3 13.75 110.3 13.75 M53.8 17.95 L81.15 19.75 86.3 13.75 104.1 21.5 138.75 21.5 M98.55 27.95 L98.6 36.25 99.5 37.6 100.15 38.15 Q101.25 39.0 102.6 39.4 L113.8 39.4 Q115.25 39.05 116.4 38.15 117.5 37.3 117.95 36.25 L118.0 27.7 Q117.55 26.6 116.4 25.7 115.25 24.85 113.75 24.5 M92.85 39.35 Q91.6 38.95 90.55 38.15 L89.95 37.6 Q89.3 37.0 89.0 36.25 L89.0 27.6 89.25 27.15 86.2 26.9 85.8 27.6 85.8 36.25 Q86.1 37.0 86.75 37.6 L87.35 38.15 Q88.45 39.0 89.85 39.4 L92.8 39.4 92.85 39.35 93.0 39.4 102.6 39.4 M86.2 26.9 L83.2 26.65 82.65 27.6 82.65 36.25 Q82.95 37.0 83.55 37.6 L84.2 38.15 Q85.3 39.0 86.65 39.4 L89.85 39.4 M91.45 40.0 Q89.95 40.35 88.8 41.2 87.65 42.1 87.2 43.2 L87.25 46.95 M87.8 40.0 Q86.3 40.35 85.15 41.2 84.0 42.1 83.55 43.2 L83.6 46.95 M80.25 26.4 L79.45 27.6 79.45 30.15 79.45 33.45 79.45 36.25 Q79.75 37.0 80.35 37.6 L81.0 38.15 81.6 38.55 Q82.45 39.1 83.45 39.4 L86.65 39.4 M84.15 40.0 Q82.65 40.35 81.5 41.2 80.35 42.1 79.95 43.2 L79.95 46.95 M74.45 41.05 Q75.55 40.3 76.85 40.0 L80.5 40.0 84.15 40.0 87.8 40.0 91.45 40.0 92.5 40.0 92.8 39.4 93.0 39.4 M101.45 40.0 Q100.0 40.35 98.85 41.2 97.7 42.1 97.25 43.2 L97.25 51.75 Q97.7 52.8 98.85 53.65 99.9 54.5 101.25 54.85 L101.45 54.9 112.2 54.85 113.35 54.45 114.55 53.7 114.6 53.65 Q115.7 52.8 116.15 51.75 L116.15 43.2 Q115.7 42.1 114.6 41.2 113.4 40.35 111.95 40.0 L101.45 40.0 92.5 40.0 M98.55 27.95 L89.25 27.15 M105.2 26.55 L113.0 26.55 Q114.35 26.85 115.45 27.7 L116.1 28.25 116.9 29.55 116.9 34.6 Q116.5 35.6 115.45 36.4 L115.15 36.65 Q114.2 37.3 113.0 37.55 L105.15 37.55 Q103.9 37.2 102.85 36.4 101.8 35.6 101.4 34.6 L101.4 29.55 Q101.65 28.85 102.25 28.25 L101.95 28.25 98.55 27.95 M105.2 26.55 L104.65 28.25 102.25 28.25 M114.25 43.75 L113.6 43.2 Q112.55 42.35 111.15 42.05 L104.35 42.05 Q103.5 42.25 102.75 42.65 102.3 42.85 101.9 43.2 L101.25 43.75 100.4 45.05 100.45 50.1 Q100.85 51.1 101.9 51.9 L102.15 52.15 Q103.15 52.8 104.3 53.05 L111.2 53.05 Q112.4 52.8 113.35 52.15 L113.6 51.9 Q114.65 51.1 115.05 50.1 L115.1 45.05 114.25 43.75 M121.25 40.0 Q120.05 40.35 119.1 41.2 L118.35 42.15 117.85 43.2 117.85 51.75 Q118.2 52.8 119.1 53.65 L121.1 54.85 121.25 54.9 128.0 54.85 130.0 54.85 130.9 54.45 M111.95 40.0 L121.25 40.0 M105.85 24.5 L105.2 26.55 M104.1 21.5 L101.95 28.25 M121.25 54.9 L112.2 54.85 M87.25 51.4 L89.55 51.4 92.65 51.4 94.6 54.9 101.45 54.9 M83.6 51.4 L87.25 51.4 87.25 47.3 M91.6 55.05 L89.55 51.4 M93.7 58.7 L91.6 55.05 58.5 62.05 M94.6 54.9 L95.15 55.85 127.45 55.85 128.0 54.85 M124.85 13.75 L110.8 13.75 M83.6 51.4 L83.6 47.3 M93.7 58.7 L128.45 58.7 M123.5 39.4 L113.8 39.4 M47.45 7.85 L47.2 9.8 46.65 10.55 46.5 10.6 Q46.1 10.55 45.8 9.7 45.5 8.8 45.55 7.65 45.55 6.45 45.85 5.65 46.15 4.9 46.55 4.95 L46.7 5.0 Q46.95 5.15 47.2 5.85 L47.45 7.85 M42.7 5.25 Q43.05 4.45 43.5 4.5 43.9 4.55 44.2 5.45 L44.45 7.5 44.1 9.55 Q43.8 10.4 43.35 10.4 42.9 10.35 42.6 9.45 42.3 8.5 42.35 7.3 42.35 6.05 42.7 5.25 M39.3 4.8 Q39.65 3.95 40.15 4.0 40.6 4.05 40.9 5.0 41.2 5.9 41.15 7.15 L40.75 9.3 Q40.4 10.2 39.9 10.15 39.4 10.1 39.1 9.15 38.8 8.2 38.85 6.9 38.9 5.65 39.3 4.8 M45.55 15.3 L47.95 22.25 48.95 24.95 49.9 27.7 50.85 30.45 51.85 33.15 51.9 33.45 49.05 36.35 46.4 36.35 45.25 33.15 44.3 30.45 43.35 27.7 42.35 24.95 41.4 22.25 38.8 14.9 35.25 14.65 37.95 22.25 38.9 24.95 39.85 27.7 40.85 30.45 41.8 33.15 41.9 33.45 39.0 36.35 36.75 36.35 40.35 40.1 54.2 40.1 57.9 33.45 59.7 30.15 67.55 30.15 M47.95 22.25 L41.4 22.25 M80.25 26.4 L57.6 24.45 53.8 17.95 52.5 15.75 45.55 15.3 38.8 14.9 M43.35 27.7 L49.9 27.7 M42.35 24.95 L48.95 24.95 M63.0 49.3 L57.4 43.05 53.75 43.05 61.2 51.4 64.85 51.4 63.0 49.3 66.95 41.05 68.15 38.55 81.6 38.55 M53.75 43.05 L43.2 43.05 39.55 43.05 23.15 26.05 22.75 26.25 18.2 28.0 27.0 41.0 M44.3 30.45 L50.85 30.45 M45.25 33.15 L51.85 33.15 M74.45 41.05 L74.2 41.2 Q73.05 42.1 72.65 43.2 L72.65 51.4 76.3 51.4 76.3 47.3 M80.5 40.0 Q79.0 40.35 77.85 41.2 76.7 42.1 76.3 43.2 L76.3 46.95 M79.45 30.15 L67.9 30.15 M79.45 33.45 L67.9 33.45 M66.95 41.05 L74.45 41.05 M67.55 33.45 L57.9 33.45 M36.5 3.5 Q37.0 3.55 37.3 4.5 37.6 5.45 37.55 6.8 37.5 8.1 37.05 9.0 36.65 9.95 36.1 9.9 35.6 9.9 35.25 8.85 34.95 7.85 35.0 6.5 35.1 5.15 35.55 4.3 35.95 3.4 36.5 3.5 M33.0 8.7 Q32.55 9.7 31.95 9.65 31.35 9.6 31.0 8.55 30.75 7.75 30.75 6.8 L30.8 6.05 Q30.9 4.65 31.45 3.75 31.9 2.8 32.5 2.9 33.05 3.0 33.35 4.0 33.7 5.0 33.6 6.35 33.5 7.75 33.0 8.7 M26.7 2.85 L21.3 6.25 13.45 11.1 13.9 12.45 15.45 17.7 22.95 13.85 26.2 14.05 28.55 14.2 35.25 14.65 M27.9 22.25 L21.35 22.25 22.3 24.95 28.85 24.95 27.9 22.25 25.2 14.55 19.65 17.4 21.35 22.25 M25.2 14.55 L26.2 14.05 M37.95 22.25 L31.35 22.25 32.35 24.95 38.9 24.95 M28.55 14.2 L31.35 22.25 M15.45 17.7 L19.1 17.7 19.65 17.4 M13.2 21.95 L12.6 20.1 3.0 19.4 M13.85 23.8 L13.2 21.95 2.4 21.15 M12.6 20.1 L12.0 18.25 1.8 17.5 M13.85 23.8 L1.8 22.95 M2.45 12.3 L13.9 12.45 M15.55 29.05 L18.2 28.0 M15.55 29.05 L14.8 29.35 11.1 30.8 11.15 30.9 12.4 32.85 13.6 34.75 14.8 36.65 16.05 38.55 17.25 40.5 18.5 42.4 19.55 44.05 22.65 48.9 23.0 49.45 24.1 51.15 31.85 48.15 27.5 41.75 M15.05 27.55 L14.45 25.7 2.25 24.8 M15.55 29.05 L15.05 27.55 3.2 26.7 M15.6 45.7 Q14.3 46.2 13.5 46.85 12.45 47.65 12.15 48.6 L12.05 49.55 Q11.7 51.8 12.7 54.0 L13.55 55.55 14.6 56.95 16.15 58.5 Q18.5 60.4 21.6 61.1 L21.15 60.3 20.35 59.65 20.1 59.45 Q18.5 58.05 17.25 56.2 16.5 55.1 16.05 54.0 15.05 51.5 15.45 48.95 L15.6 47.85 16.1 46.85 16.15 46.8 15.6 45.7 14.8 44.15 M18.1 47.7 L16.35 47.2 16.15 46.8 M18.0 53.55 Q17.2 51.55 17.5 49.55 17.5 49.05 17.65 48.6 L18.1 47.7 20.95 48.45 22.65 48.9 M14.2 43.0 L19.55 44.05 M18.5 42.4 L10.65 41.85 M13.6 34.75 L6.95 34.25 M12.4 32.85 L6.0 32.35 M11.15 30.9 L5.05 30.5 M4.1 28.6 L14.8 29.35 M9.75 39.95 L17.25 40.5 M16.05 38.55 L8.8 38.05 M7.85 36.15 L14.8 36.65 M36.15 35.75 L35.25 33.15 34.25 30.45 33.3 27.7 32.35 24.95 M36.15 35.75 L36.75 36.35 M33.3 27.7 L39.85 27.7 M30.7 30.1 L36.15 35.75 M28.35 27.7 L29.85 27.7 28.85 24.95 M23.15 26.05 L26.8 26.05 28.35 27.7 30.7 30.1 29.85 27.7 M22.3 24.95 L22.75 26.25 M20.95 48.45 L20.9 48.95 Q20.65 50.7 21.05 52.35 L22.95 51.6 Q22.85 50.6 23.0 49.55 L23.0 49.45 M14.45 25.7 L13.85 23.8 M21.3 6.25 L11.15 6.85 M34.4 51.95 L36.4 54.9 59.0 54.9 61.05 51.4 61.2 51.4 M22.95 51.6 L24.1 51.15 M22.65 63.05 L21.6 61.1 M45.85 68.5 L39.6 66.05 29.2 68.25 M21.15 60.3 L17.55 53.7 18.0 53.55 21.05 52.35 M64.85 51.4 L72.65 51.4 M76.3 51.4 L79.95 51.4 79.95 47.3 M46.65 68.8 L49.4 69.85 93.7 58.7 M55.15 61.35 L54.2 62.95 58.15 62.15 M55.4 61.0 L59.0 54.9 M49.4 69.85 L59.9 69.85 M35.25 33.15 L41.8 33.15 M34.25 30.45 L40.85 30.45 M67.25 5.45 L31.35 0.0 M31.85 48.15 L34.2 51.6 M40.35 40.1 L43.2 43.05 M39.9 72.2 L49.4 69.85 M54.2 62.95 L39.6 66.05 M83.2 26.65 L80.25 26.4 M60.25 69.85 L101.5 69.85 M79.95 51.4 L83.6 51.4" fill="none" stroke-width="0.7" stroke="#000000" stroke-opacity="0.4"/>
    </g>
    <linearGradient gradientTransform="matrix(0.0, -0.0079, 0.0141, 0.0, 91.0, 32.9)" gradientUnits="userSpaceOnUse" id="gradient0" spreadMethod="pad" x1="-819.2" x2="819.2">
      <stop offset="0.0" stop-color="#160b00"/>
      <stop offset="0.13725490196078433" stop-color="#442200"/>
      <stop offset="0.8392156862745098" stop-color="#663300"/>
      <stop offset="1.0" stop-color="#9b7947"/>
    </linearGradient>
    <linearGradient gradientTransform="matrix(0.0, -0.0079, 0.0141, 0.0, 91.0, 32.9)" gradientUnits="userSpaceOnUse" id="gradient1" spreadMethod="pad" x1="-819.2" x2="819.2">
      <stop offset="0.0" stop-color="#262626"/>
      <stop offset="0.13725490196078433" stop-color="#3f3f3f"/>
      <stop offset="0.8392156862745098" stop-color="#3f3f3f"/>
      <stop offset="1.0" stop-color="#666666"/>
    </linearGradient>
    <linearGradient gradientTransform="matrix(0.0, -0.0091, 0.0176, 0.0, 87.05, 47.45)" gradientUnits="userSpaceOnUse" id="gradient2" spreadMethod="pad" x1="-819.2" x2="819.2">
      <stop offset="0.0" stop-color="#262626"/>
      <stop offset="0.13725490196078433" stop-color="#3f3f3f"/>
      <stop offset="0.8392156862745098" stop-color="#3f3f3f"/>
      <stop offset="1.0" stop-color="#666666"/>
    </linearGradient>
    <linearGradient gradientTransform="matrix(0.0, -0.0091, 0.006, 0.0, 118.65, 31.95)" gradientUnits="userSpaceOnUse" id="gradient3" spreadMethod="pad" x1="-819.2" x2="819.2">
      <stop offset="0.0" stop-color="#262626"/>
      <stop offset="0.13725490196078433" stop-color="#3f3f3f"/>
      <stop offset="0.8392156862745098" stop-color="#3f3f3f"/>
      <stop offset="1.0" stop-color="#666666"/>
    </linearGradient>
    <linearGradient gradientTransform="matrix(0.0, -0.0091, 0.0059, 0.0, 116.45, 47.45)" gradientUnits="userSpaceOnUse" id="gradient4" spreadMethod="pad" x1="-819.2" x2="819.2">
      <stop offset="0.0" stop-color="#262626"/>
      <stop offset="0.13725490196078433" stop-color="#3f3f3f"/>
      <stop offset="0.8392156862745098" stop-color="#3f3f3f"/>
      <stop offset="1.0" stop-color="#666666"/>
    </linearGradient>
    <radialGradient cx="0" cy="0" gradientTransform="matrix(0.021, 0.0, 0.0, 0.021, 133.6, 26.05)" gradientUnits="userSpaceOnUse" id="gradient5" r="819.2" spreadMethod="pad">
      <stop offset="0.0" stop-color="#7f7f7f"/>
      <stop offset="1.0" stop-color="#4c4c4c"/>
    </radialGradient>
    <radialGradient cx="0" cy="0" gradientTransform="matrix(0.0207, 0.0, 0.0, 0.0207, 131.0, 41.6)" gradientUnits="userSpaceOnUse" id="gradient6" r="819.2" spreadMethod="pad">
      <stop offset="0.0" stop-color="#7f7f7f"/>
      <stop offset="1.0" stop-color="#4c4c4c"/>
    </radialGradient>
    <radialGradient cx="0" cy="0" gradientTransform="matrix(0.0241, 0.0, 0.0, 0.0241, 115.5, 26.25)" gradientUnits="userSpaceOnUse" id="gradient7" r="819.2" spreadMethod="pad">
      <stop offset="0.0" stop-color="#7f7f7f"/>
      <stop offset="1.0" stop-color="#4c4c4c"/>
    </radialGradient>
    <radialGradient cx="0" cy="0" gradientTransform="matrix(0.024, 0.0, 0.0, 0.024, 114.25, 41.95)" gradientUnits="userSpaceOnUse" id="gradient8" r="819.2" spreadMethod="pad">
      <stop offset="0.0" stop-color="#7f7f7f"/>
      <stop offset="1.0" stop-color="#4c4c4c"/>
    </radialGradient>
    <radialGradient cx="0" cy="0" gradientTransform="matrix(0.0156, 0.0, 0.0, 0.0156, 123.25, 31.85)" gradientUnits="userSpaceOnUse" id="gradient9" r="819.2" spreadMethod="pad">
      <stop offset="0.0" stop-color="#930000"/>
      <stop offset="1.0" stop-color="#3f3f3f"/>
    </radialGradient>
    <radialGradient cx="0" cy="0" gradientTransform="matrix(0.0186, 0.0, 0.0, 0.0186, 102.25, 32.1)" gradientUnits="userSpaceOnUse" id="gradient10" r="819.2" spreadMethod="pad">
      <stop offset="0.0" stop-color="#930000"/>
      <stop offset="1.0" stop-color="#3f3f3f"/>
    </radialGradient>
    <radialGradient cx="0" cy="0" gradientTransform="matrix(0.0181, 0.0, 0.0, 0.0181, 101.15, 47.35)" gradientUnits="userSpaceOnUse" id="gradient11" r="819.2" spreadMethod="pad">
      <stop offset="0.0" stop-color="#930000"/>
      <stop offset="1.0" stop-color="#3f3f3f"/>
    </radialGradient>
    <radialGradient cx="0" cy="0" gradientTransform="matrix(0.0143, 0.0, 0.0, 0.0143, 121.5, 47.5)" gradientUnits="userSpaceOnUse" id="gradient12" r="819.2" spreadMethod="pad">
      <stop offset="0.0" stop-color="#930000"/>
      <stop offset="1.0" stop-color="#3f3f3f"/>
    </radialGradient>
    <linearGradient gradientTransform="matrix(0.0, 0.0131, -0.008, 0.0, 45.35, 25.6)" gradientUnits="userSpaceOnUse" id="gradient13" spreadMethod="pad" x1="-819.2" x2="819.2">
      <stop offset="0.0" stop-color="#660000"/>
      <stop offset="1.0" stop-color="#ff3300"/>
    </linearGradient>
    <linearGradient gradientTransform="matrix(0.0, 0.0135, -0.0081, 0.0, 35.2, 25.3)" gradientUnits="userSpaceOnUse" id="gradient14" spreadMethod="pad" x1="-819.2" x2="819.2">
      <stop offset="0.0" stop-color="#660000"/>
      <stop offset="1.0" stop-color="#ff3300"/>
    </linearGradient>
    <linearGradient gradientTransform="matrix(0.0, 0.0095, -0.0067, 0.0, 25.15, 22.35)" gradientUnits="userSpaceOnUse" id="gradient15" spreadMethod="pad" x1="-819.2" x2="819.2">
      <stop offset="0.0" stop-color="#660000"/>
      <stop offset="1.0" stop-color="#ff3300"/>
    </linearGradient>
  </defs>
</svg>
