<?xml version="1.0" encoding="UTF-8" standalone="no"?>
<svg xmlns:xlink="http://www.w3.org/1999/xlink" height="204.55px" width="158.2px" xmlns="http://www.w3.org/2000/svg">
  <g transform="matrix(1.0, 0.0, 0.0, 1.0, 0.05, 0.05)">
    <path d="M12.1 25.8 L15.3 23.55 Q15.3 24.8 15.55 25.85 L15.75 26.7 12.1 25.8 M14.55 13.45 L20.4 9.0 21.75 9.95 20.25 12.15 22.25 14.3 Q19.7 14.55 17.8 16.7 L14.55 13.45 M32.25 30.95 L32.95 30.15 33.1 29.95 34.5 27.6 39.2 32.7 32.25 30.95 M42.15 90.8 L42.2 91.1 40.0 91.6 41.8 87.65 43.85 87.05 42.15 90.8" fill="#444444" fill-rule="evenodd" stroke="none"/>
    <path d="M89.35 54.7 L89.35 58.25 85.7 56.75 47.2 56.75 42.4 61.5 45.6 53.65 45.65 53.65 49.3 54.7 53.55 54.7 89.35 54.7 M29.95 135.2 L30.8 133.15 32.35 133.15 33.65 130.4 34.7 132.2 35.0 132.75 35.15 133.15 36.45 135.55 37.1 136.9 37.8 138.4 39.65 142.9 Q44.25 155.15 45.35 170.0 L46.9 170.0 46.9 172.15 72.9 172.15 82.55 162.5 82.55 168.2 82.55 162.5 118.1 162.5 118.1 164.95 85.8 164.95 82.55 168.2 70.6 180.15 44.95 180.15 37.8 173.0 37.55 168.1 Q37.0 160.3 35.7 153.6 L35.35 152.3 34.1 147.25 33.65 146.05 32.45 142.45 28.6 138.6 29.3 136.9 29.95 135.2 M22.9 91.7 L18.05 87.9 17.8 85.35 19.55 85.25 17.9 79.1 20.75 76.15 20.9 76.75 Q21.5 78.3 22.45 79.6 23.95 81.7 25.95 82.3 L27.5 82.6 27.7 82.6 28.0 82.6 30.8 82.7 28.1 84.6 25.4 86.6 25.05 88.9 24.75 91.2 22.9 91.7 M20.3 72.75 L16.8 69.8 16.8 63.65 16.8 63.45 18.2 60.75 20.6 61.6 Q20.8 62.5 24.45 63.45 23.4 64.15 22.45 65.35 L22.15 65.95 Q20.3 68.7 20.3 72.5 L20.3 72.75 M20.85 61.0 L19.2 54.55 21.25 48.05 22.15 45.25 18.25 42.25 16.95 37.5 13.35 35.9 12.1 25.8 15.75 26.7 Q16.1 28.05 16.8 29.2 L17.55 30.15 17.7 30.35 Q19.35 32.25 21.5 32.7 L22.95 32.9 23.15 32.9 25.3 32.9 27.5 32.9 27.6 32.9 28.7 32.75 Q30.7 32.45 32.25 30.95 L39.2 32.7 39.2 46.2 39.6 47.6 40.55 51.1 40.8 52.25 44.6 53.35 38.0 53.35 37.05 55.7 35.4 59.7 30.05 59.7 35.4 59.7 34.3 62.4 28.95 62.4 30.05 59.7 31.6 55.7 37.05 55.7 31.6 55.7 32.55 53.35 38.0 53.35 32.55 53.35 26.0 48.3 24.8 51.2 20.85 61.0 M16.15 19.25 L14.55 17.4 14.55 13.45 17.8 16.7 17.55 16.95 Q16.7 18.05 16.15 19.25 M86.55 79.8 L64.95 79.8 63.4 69.35 84.85 69.35 86.55 79.8 M18.45 38.2 L17.7 30.35 18.45 38.2 19.4 38.6 19.95 41.4 33.45 51.1 40.55 51.1 33.45 51.1 19.95 41.4 19.4 38.6 18.45 38.2 16.95 37.5 18.45 38.2 M22.25 39.85 L19.4 38.6 22.25 39.85 21.5 32.7 22.25 39.85 26.25 41.65 25.3 32.9 26.25 41.65 22.25 39.85 M30.0 43.3 L28.7 32.75 30.0 43.3 39.6 47.6 30.0 43.3 26.25 41.65 30.0 43.3 M22.15 45.25 L26.0 48.3 22.15 45.25 M21.25 48.05 L24.8 51.2 21.25 48.05 M16.8 63.65 L22.15 65.95 16.8 63.65 M28.1 84.6 L21.55 85.1 19.4 78.0 21.55 85.1 28.1 84.6 M24.55 104.3 L24.15 101.75 23.7 99.15 36.2 95.65 36.65 98.2 37.0 100.75 37.4 103.25 37.7 105.8 25.4 109.35 24.95 106.85 24.55 104.3 37.0 100.75 24.55 104.3 M21.55 85.1 L19.55 85.25 21.55 85.1 M40.0 91.6 L42.2 91.1 43.35 98.9 44.05 103.9 44.5 107.0 42.35 107.6 42.05 105.4 41.35 100.55 40.0 91.6 M54.5 116.0 L54.65 116.95 55.55 120.85 56.85 125.75 57.0 126.15 57.25 127.0 57.8 128.8 58.05 129.35 58.35 130.3 Q61.45 139.05 66.35 147.85 L67.35 149.65 Q69.6 153.5 72.15 157.25 L63.9 165.85 62.15 165.85 56.15 165.85 55.85 163.15 55.95 163.15 56.15 163.15 56.5 163.1 61.3 163.15 Q63.25 162.85 64.6 160.85 66.25 158.7 66.25 155.5 66.25 153.1 65.35 151.3 L64.6 150.1 Q63.05 147.95 60.9 147.9 L56.1 147.9 55.95 147.9 55.85 147.9 Q54.65 147.95 53.6 148.65 L53.35 148.8 Q51.95 143.1 49.7 137.4 45.85 128.4 39.9 120.05 L54.5 116.0 M37.4 103.25 L24.95 106.85 37.4 103.25 M35.15 133.15 L32.35 133.15 35.15 133.15 M29.3 136.9 L37.1 136.9 29.3 136.9 M36.65 98.2 L24.15 101.75 36.65 98.2" fill="#333333" fill-rule="evenodd" stroke="none"/>
    <path d="M113.15 204.45 L66.9 204.45 61.3 204.45 22.45 204.45 0.1 204.45 0.1 198.35 0.1 194.1 22.45 194.15 61.3 194.2 66.9 194.2 113.15 194.25 113.15 198.35 66.9 198.35 66.9 194.2 66.9 198.35 113.15 198.35 113.15 204.45 M3.35 190.9 L3.35 188.7 3.35 179.7 0.0 177.4 0.0 173.55 12.8 143.4 19.75 150.35 20.35 151.05 Q21.55 152.55 22.1 154.4 L22.5 156.4 22.55 157.8 Q22.55 161.8 20.35 164.6 18.75 166.65 16.6 167.15 L15.2 167.4 14.95 167.4 14.85 167.4 13.35 167.4 13.15 167.4 12.4 167.4 6.3 181.55 10.45 181.55 16.5 167.4 18.95 167.4 19.05 167.4 Q22.25 167.4 24.45 164.6 26.7 161.8 26.7 157.8 L26.55 156.4 Q26.25 153.35 24.45 151.05 L23.8 150.35 18.15 144.7 18.65 143.4 20.85 138.15 22.15 135.2 28.0 142.45 28.65 144.35 29.0 145.6 30.65 152.3 30.95 153.6 Q32.05 159.5 32.55 166.4 L32.8 173.0 39.95 180.15 35.4 180.15 30.0 174.75 Q29.2 154.4 25.15 143.55 L20.85 138.15 25.15 143.55 Q29.2 154.4 30.0 174.75 L35.4 180.15 39.95 180.15 44.95 180.15 70.6 180.15 82.55 168.2 85.8 164.95 94.7 173.55 111.1 189.3 111.1 190.9 70.2 190.9 64.55 190.9 25.7 190.9 21.05 186.15 64.55 186.15 64.55 190.9 64.55 186.15 21.05 186.15 25.7 190.9 3.35 190.9 M33.65 130.4 L32.55 128.7 Q28.95 123.15 24.85 119.6 L26.8 115.75 45.3 110.4 45.35 110.4 48.2 109.55 45.35 110.4 45.15 109.35 47.05 108.9 48.2 109.55 48.4 109.65 54.1 107.85 59.85 106.2 60.3 109.6 53.8 111.45 53.9 112.6 53.8 111.45 60.3 109.6 Q61.3 117.05 63.05 123.95 L63.25 124.4 57.0 126.15 63.25 124.4 64.0 127.1 64.15 127.75 58.05 129.35 64.15 127.75 Q69.35 144.5 79.45 156.75 L66.15 170.0 57.95 170.0 46.9 170.0 45.35 170.0 Q44.25 155.15 39.65 142.9 L37.8 138.4 37.1 136.9 36.45 135.55 41.4 133.8 36.45 135.55 35.15 133.15 35.0 132.75 34.7 132.2 33.65 130.4 M22.8 113.5 L22.35 110.2 21.6 105.15 20.35 96.9 39.05 91.55 40.3 99.85 37.0 100.75 40.3 99.85 41.0 104.8 41.5 108.15 22.8 113.5 M21.75 9.95 L25.05 5.25 42.2 0.0 54.1 35.8 45.25 34.0 45.25 28.65 25.05 5.25 45.25 28.65 45.25 34.0 54.1 35.8 53.15 48.35 51.8 50.6 49.3 54.7 45.65 53.65 45.6 53.65 44.6 53.35 40.8 52.25 40.55 51.1 39.6 47.6 39.2 46.2 39.2 32.7 45.25 34.0 49.5 38.3 49.2 47.8 39.2 46.2 49.2 47.8 49.5 38.3 45.25 34.0 39.2 32.7 34.5 27.6 32.85 25.85 30.55 23.35 28.1 20.7 22.25 14.3 20.25 12.15 21.75 9.95 M79.45 14.3 L83.55 14.3 84.9 18.2 80.75 18.2 79.45 14.3 M81.4 20.05 L85.6 20.05 87.0 24.05 82.7 24.05 81.35 20.05 81.4 20.05 M84.6 29.85 L83.3 25.9 87.65 25.9 89.0 29.85 84.6 29.85 M84.85 69.35 L86.85 69.35 88.5 79.8 86.55 79.8 84.85 69.35 M63.5 14.3 L65.1 14.3 66.35 18.2 61.85 18.2 60.5 14.3 63.5 14.3 M63.7 24.05 L62.4 20.05 67.0 20.05 68.3 24.05 63.7 24.05 M64.35 25.9 L68.9 25.9 70.2 29.9 65.6 29.9 64.35 25.9 M53.15 48.35 L49.2 47.8 45.65 53.65 49.2 47.8 53.15 48.35 M30.8 82.7 L34.15 80.25 38.75 65.2 40.0 63.9 42.4 61.5 47.2 56.75 53.4 59.7 54.45 67.25 34.15 80.25 33.9 84.85 25.05 88.9 33.9 84.85 34.15 80.25 54.45 67.25 55.55 74.8 33.9 84.85 33.65 88.6 33.9 84.85 55.55 74.8 56.55 82.0 44.6 85.4 41.6 86.3 44.6 85.4 43.85 87.05 41.8 87.65 41.6 86.3 33.65 88.6 24.75 91.2 25.05 88.9 25.4 86.6 28.1 84.6 30.8 82.7 M37.0 100.75 L36.65 98.2 36.2 95.65 23.7 99.15 24.15 101.75 24.55 104.3 24.95 106.85 25.4 109.35 37.7 105.8 41.0 104.8 37.7 105.8 37.4 103.25 37.0 100.75 M42.15 90.8 L48.3 89.1 48.35 89.05 52.25 87.9 53.35 95.9 43.35 98.9 53.35 95.9 54.1 101.0 54.6 104.45 44.6 107.4 44.5 107.0 44.05 103.9 54.1 101.0 44.05 103.9 43.35 98.9 42.2 91.1 42.15 90.8 M89.7 115.75 L92.3 115.75 93.95 121.4 91.25 121.4 89.7 115.75 M22.35 110.2 L25.4 109.35 22.35 110.2 M54.2 114.4 L54.15 113.8 54.05 113.15 53.9 112.6 30.85 119.2 Q35.9 124.05 39.75 130.65 L34.7 132.2 39.75 130.65 41.4 133.8 Q47.8 146.8 49.75 165.85 L54.4 165.85 56.15 165.85 62.15 165.85 63.9 165.85 72.15 157.25 Q69.6 153.5 67.35 149.65 L66.35 147.85 Q61.45 139.05 58.35 130.3 L58.05 129.35 57.8 128.8 57.25 127.0 57.0 126.15 56.85 125.75 55.55 120.85 54.65 116.95 54.5 116.0 54.2 114.4 M62.15 165.85 L57.95 170.0 62.15 165.85 M94.95 132.0 L98.05 132.0 100.6 137.3 97.3 137.3 94.95 132.0 M21.6 105.15 L24.55 104.3 21.6 105.15 M3.35 179.7 L6.3 181.55 3.35 179.7 M17.85 153.25 L17.55 152.9 16.65 152.05 17.55 152.9 17.85 153.25 12.8 164.55 13.5 164.6 Q15.5 164.6 17.0 163.15 L17.55 162.55 Q19.3 160.55 19.3 157.7 19.3 155.15 17.85 153.25 M11.4 164.1 L12.8 164.55 11.4 164.1 16.65 152.05 Q16.0 151.45 15.2 151.2 L9.9 163.15 11.4 164.1 M35.4 180.15 L23.15 180.15 18.95 184.05 13.9 188.7 3.35 188.7 13.9 188.7 18.95 184.05 23.15 180.15 35.4 180.15 M64.55 186.15 L70.6 180.15 75.75 180.15 82.4 173.55 87.55 173.55 70.2 190.9 87.55 173.55 82.4 173.55 75.75 180.15 70.6 180.15 64.55 186.15 M21.05 186.15 L18.95 184.05 21.05 186.15 M99.6 173.55 L97.2 171.15 99.6 168.75 101.95 171.15 117.8 187.05 117.8 194.25 115.5 190.9 115.5 189.3 117.8 187.05 115.5 189.3 99.6 173.55 101.95 171.15 99.6 173.55 M87.55 173.55 L94.7 173.55 87.55 173.55 M96.25 127.75 L97.0 129.55 93.95 129.6 93.3 127.75 93.05 127.1 92.15 124.4 95.0 124.4 96.0 127.1 96.25 127.75 93.3 127.75 96.25 127.75 M98.55 139.8 L101.85 139.8 101.85 139.85 104.8 145.0 101.55 145.0 98.55 139.8 M102.85 147.3 L106.25 147.3 107.05 148.5 110.15 153.05 106.75 153.05 103.6 148.5 102.85 147.3 M22.45 204.45 L22.45 198.35 61.3 198.35 61.3 194.2 61.3 198.35 61.3 204.45 61.3 198.35 22.45 198.35 22.45 204.45 M22.45 194.15 L22.45 198.35 0.1 198.35 22.45 198.35 22.45 194.15 M66.9 204.45 L66.9 198.35 66.9 204.45" fill="#666666" fill-rule="evenodd" stroke="none"/>
    <path d="M77.25 0.0 L86.15 0.0 89.7 0.0 101.2 35.8 54.1 35.8 42.2 0.0 47.95 0.0 75.25 0.0 77.25 0.0 M93.0 59.7 L94.3 67.25 95.55 74.8 95.55 74.85 96.8 81.95 96.8 82.0 91.15 82.0 89.9 74.8 91.15 82.0 62.8 82.0 56.55 82.0 60.8 86.25 101.2 86.25 102.65 94.4 103.55 99.5 104.2 102.85 63.15 102.85 63.15 102.8 62.7 99.5 61.95 94.4 60.8 86.3 60.8 86.25 52.25 87.9 56.55 82.0 55.55 74.8 54.45 67.25 53.4 59.7 93.0 59.7 M100.85 106.2 L101.65 109.6 102.55 113.45 Q103.95 119.1 105.85 124.4 L106.3 125.45 106.95 127.1 107.2 127.75 Q109.85 134.25 113.25 140.05 118.65 149.25 126.0 156.75 L79.45 156.75 Q69.35 144.5 64.15 127.75 L64.0 127.1 63.25 124.4 63.05 123.95 Q61.3 117.05 60.3 109.6 L59.85 106.2 100.85 106.2 M86.15 0.0 L90.1 12.25 52.05 12.25 47.95 0.0 52.05 12.25 90.1 12.25 86.15 0.0 M80.75 18.2 L84.9 18.2 83.55 14.3 79.45 14.3 75.15 14.3 65.1 14.3 63.5 14.3 60.5 14.3 61.85 18.2 66.35 18.2 67.0 20.05 66.35 18.2 75.15 18.2 80.75 18.2 81.4 20.05 80.75 18.2 M85.6 20.05 L81.4 20.05 81.35 20.05 75.15 20.05 67.0 20.05 62.4 20.05 63.7 24.05 68.3 24.05 75.15 24.05 82.7 24.05 87.0 24.05 85.6 20.05 84.9 18.2 85.6 20.05 M84.6 29.85 L89.0 29.85 87.65 25.9 83.3 25.9 82.7 24.05 83.3 25.9 75.15 25.9 68.9 25.9 68.3 24.05 68.9 25.9 64.35 25.9 63.7 24.05 64.35 25.9 65.6 29.9 70.2 29.9 75.15 29.9 84.6 29.85 M87.0 24.05 L87.65 25.9 87.0 24.05 M86.55 79.8 L88.5 79.8 86.85 69.35 84.85 69.35 63.4 69.35 64.95 79.8 86.55 79.8 M95.55 74.8 L89.9 74.8 88.65 67.25 94.3 67.25 88.65 67.25 89.9 74.8 95.55 74.8 M61.85 18.2 L62.4 20.05 61.85 18.2 M88.65 67.25 L60.6 67.25 54.45 67.25 60.6 67.25 88.65 67.25 M102.65 94.4 L61.95 94.4 102.65 94.4 M103.55 99.5 L62.7 99.5 103.55 99.5 M60.6 67.25 L61.75 74.8 62.8 82.0 61.75 74.8 55.55 74.8 61.75 74.8 60.6 67.25 M84.45 115.75 L74.85 115.75 76.05 121.4 84.45 121.4 85.8 121.4 91.25 121.4 93.95 121.4 92.3 115.75 89.7 115.75 85.8 115.75 84.45 115.75 M101.65 109.6 L60.3 109.6 101.65 109.6 M94.95 132.0 L79.3 132.0 80.25 134.4 81.5 137.3 88.7 137.3 90.05 137.3 97.3 137.3 100.6 137.3 98.05 132.0 94.95 132.0 M76.8 124.4 L77.6 127.1 77.8 127.75 64.15 127.75 77.8 127.75 78.4 129.6 84.45 129.6 85.8 129.6 93.95 129.6 97.0 129.55 96.25 127.75 96.0 127.1 95.0 124.4 92.15 124.4 85.8 124.4 84.45 124.4 76.8 124.4 63.25 124.4 76.8 124.4 M88.7 139.8 L82.7 139.8 84.0 142.3 84.45 143.1 85.55 145.0 93.95 145.0 101.55 145.0 104.8 145.0 101.85 139.85 101.85 139.8 98.55 139.8 88.7 139.8 M95.3 147.3 L93.95 147.3 86.95 147.3 87.7 148.5 88.7 150.05 90.8 153.05 93.95 153.05 95.3 153.05 106.75 153.05 110.15 153.05 107.05 148.5 106.25 147.3 102.85 147.3 95.3 147.3 M107.2 127.75 L96.25 127.75 107.2 127.75 M105.85 124.4 L95.0 124.4 105.85 124.4" fill="#999999" fill-rule="evenodd" stroke="none"/>
    <path d="M89.35 58.25 L93.0 59.7 53.4 59.7 47.2 56.75 85.7 56.75 89.35 58.25 M96.8 81.95 L101.2 86.25 60.8 86.25 56.55 82.0 62.8 82.0 91.15 82.0 96.8 82.0 96.8 81.95 M118.1 164.95 L127.05 164.95 131.65 168.75 132.5 168.75 135.65 168.75 138.0 171.15 153.9 187.0 153.9 187.05 150.75 187.05 121.05 187.05 117.8 187.05 101.95 171.15 105.15 171.15 102.75 168.75 99.6 168.75 102.75 168.75 131.65 168.75 102.75 168.75 105.15 171.15 101.95 171.15 99.6 168.75 97.2 171.15 99.6 173.55 94.7 173.55 99.6 173.55 115.5 189.3 111.1 189.3 94.7 173.55 85.8 164.95 118.1 164.95 M153.9 190.9 L154.75 190.9 158.1 194.25 153.9 194.25 153.9 190.9 M22.15 135.2 L29.95 135.2 29.3 136.9 28.6 138.6 32.45 142.45 28.0 142.45 22.15 135.2 M39.95 180.15 L32.8 173.0 37.8 173.0 44.95 180.15 39.95 180.15 M113.15 194.25 L111.1 190.9 115.5 190.9 117.8 194.25 113.15 194.25 M121.05 187.05 L105.15 171.15 134.9 171.15 150.75 187.05 134.9 171.15 105.15 171.15 121.05 187.05 M138.0 171.15 L134.9 171.15 132.5 168.75 134.9 171.15 138.0 171.15" fill="#aaaaaa" fill-rule="evenodd" stroke="none"/>
    <path d="M15.3 23.55 Q15.3 22.05 15.7 20.7 L16.15 19.25 Q16.7 18.05 17.55 16.95 L17.8 16.7 Q19.7 14.55 22.25 14.3 L28.1 20.7 27.15 20.7 28.1 20.7 30.55 23.35 30.55 23.55 30.35 25.85 27.3 25.85 30.35 25.85 30.3 26.0 Q29.8 28.25 28.5 29.95 L28.3 30.15 Q27.0 31.85 25.3 32.45 L23.15 32.9 22.95 32.9 21.5 32.7 Q19.35 32.25 17.7 30.35 L17.55 30.15 16.8 29.2 Q16.1 28.05 15.75 26.7 L15.55 25.85 18.65 25.85 15.55 25.85 Q15.3 24.8 15.3 23.55 M27.3 25.85 Q27.7 24.8 27.7 23.6 27.7 22.0 27.15 20.7 L26.3 19.35 Q24.95 17.6 23.0 17.6 21.05 17.6 19.65 19.35 L18.9 20.7 Q18.3 22.0 18.3 23.6 18.3 24.8 18.65 25.85 19.0 26.95 19.65 27.85 20.55 29.0 21.6 29.4 L23.0 29.65 Q24.95 29.65 26.3 27.85 27.0 26.95 27.3 25.85 M15.7 20.7 L18.9 20.7 15.7 20.7 M44.5 107.0 L44.6 107.4 47.05 108.9 45.15 109.35 42.35 107.6 44.5 107.0 M37.1 119.2 L54.2 114.4 54.5 116.0 39.9 120.05 Q45.85 128.4 49.7 137.4 51.95 143.1 53.35 148.8 L53.6 148.65 Q54.65 147.95 55.85 147.9 L55.95 147.9 56.1 147.9 Q58.2 147.95 59.8 150.1 L60.55 151.3 58.15 153.15 60.55 151.3 Q61.4 153.1 61.4 155.5 61.4 158.7 59.8 160.85 58.4 162.85 56.5 163.1 L56.15 163.15 55.95 163.15 55.85 163.15 56.15 165.85 54.4 165.85 54.15 162.7 Q53.05 162.15 52.15 160.85 51.4 159.9 51.0 158.7 L53.25 156.95 51.0 158.7 Q50.5 157.25 50.5 155.5 50.5 152.45 52.05 150.3 50.65 144.3 48.5 138.9 L46.2 133.75 44.6 130.65 40.8 124.4 38.65 121.25 37.1 119.2 M53.35 148.8 Q52.7 149.3 52.15 150.1 L52.05 150.3 52.15 150.1 Q52.7 149.3 53.35 148.8 M46.9 170.0 L57.95 170.0 66.15 170.0 72.6 170.0 82.55 160.05 118.1 160.05 118.1 162.5 82.55 162.5 72.9 172.15 46.9 172.15 46.9 170.0 M53.25 156.95 Q53.4 158.15 54.0 159.0 54.85 160.4 55.8 160.4 56.7 160.4 57.65 159.1 L58.45 156.95 58.55 155.75 Q58.55 154.35 58.15 153.15 L57.65 152.3 Q56.7 150.8 55.8 150.8 54.85 150.8 53.95 152.25 53.05 153.6 53.05 155.65 L53.25 156.95 M55.85 163.15 Q54.95 163.1 54.15 162.7 54.95 163.1 55.85 163.15 M82.55 162.5 L82.55 160.05 82.55 162.5" fill="#222222" fill-rule="evenodd" stroke="none"/>
    <path d="M100.3 48.35 L98.95 50.6 96.5 54.7 91.85 54.7 89.35 54.7 53.55 54.7 55.85 50.6 53.55 54.7 49.3 54.7 51.8 50.6 53.15 48.35 57.15 48.35 55.85 50.6 51.8 50.6 55.85 50.6 57.15 48.35 96.1 48.35 100.3 48.35 M104.2 102.85 L100.85 106.2 59.85 106.2 54.1 107.85 48.4 109.65 48.2 109.55 47.05 108.9 44.6 107.4 54.6 104.45 63.15 102.8 63.15 102.85 104.2 102.85 M126.0 156.75 L118.1 164.95 118.1 162.5 118.1 160.05 82.55 160.05 72.6 170.0 66.15 170.0 79.45 156.75 126.0 156.75 M26.8 115.75 L22.8 113.5 41.5 108.15 45.3 110.4 26.8 115.75 M91.85 54.7 L94.6 50.6 98.95 50.6 94.6 50.6 91.85 54.7 M94.6 50.6 L96.1 48.35 94.6 50.6 M54.6 104.45 L59.85 106.2 54.6 104.45 M30.85 119.2 L53.9 112.6 54.05 113.15 54.15 113.8 54.2 114.4 37.1 119.2 30.85 119.2 M48.2 109.55 L54.1 107.85 48.2 109.55 M63.15 102.85 L59.85 106.2 63.15 102.85 M16.5 167.4 L10.45 181.55 6.3 181.55 12.4 167.4 13.15 167.4 13.35 167.4 14.85 167.4 14.95 167.4 15.2 167.4 16.5 167.4" fill="#555555" fill-rule="evenodd" stroke="none"/>
    <path d="M101.2 35.8 L100.3 48.35 96.1 48.35 96.35 45.85 57.3 45.85 57.6 38.85 96.9 38.85 96.35 45.85 96.9 38.85 57.6 38.85 57.3 45.85 96.35 45.85 96.1 48.35 57.15 48.35 53.15 48.35 54.1 35.8 101.2 35.8 M153.9 187.05 L153.9 190.9 153.9 194.25 158.1 194.25 158.1 198.35 158.1 204.45 150.75 204.45 121.05 204.45 113.15 204.45 113.15 198.35 113.15 194.25 117.8 194.25 117.8 187.05 121.05 187.05 121.05 194.25 117.8 194.25 121.05 194.25 121.05 187.05 150.75 187.05 153.9 187.05 M0.1 194.1 L3.35 190.9 25.7 190.9 64.55 190.9 70.2 190.9 66.9 194.2 70.2 190.9 111.1 190.9 113.15 194.25 66.9 194.2 61.3 194.2 22.45 194.15 25.7 190.9 22.45 194.15 0.1 194.1 M20.35 96.9 L22.9 91.75 22.9 91.7 24.75 91.2 33.65 88.6 41.6 86.3 39.05 91.55 20.35 96.9 M57.15 48.35 L57.3 45.85 57.15 48.35 M56.55 82.0 L52.25 87.9 48.35 89.05 48.3 89.1 42.15 90.8 43.85 87.05 44.6 85.4 56.55 82.0 M32.8 173.0 L32.55 166.4 Q32.05 159.5 30.95 153.6 L30.65 152.3 29.0 145.6 28.65 144.35 28.0 142.45 32.45 142.45 33.65 146.05 34.1 147.25 35.35 152.3 35.7 153.6 Q37.0 160.3 37.55 168.1 L37.8 173.0 32.8 173.0 M64.55 190.9 L61.3 194.2 64.55 190.9 M115.5 190.9 L111.1 190.9 111.1 189.3 115.5 189.3 115.5 190.9 M150.75 187.05 L150.75 194.25 150.75 198.35 150.75 204.45 150.75 198.35 150.75 194.25 150.75 187.05 M150.75 194.25 L153.9 194.25 150.75 194.25 M121.05 198.35 L121.05 204.45 121.05 198.35 113.15 198.35 121.05 198.35 121.05 194.25 121.05 198.35 M158.1 198.35 L150.75 198.35 158.1 198.35" fill="#888888" fill-rule="evenodd" stroke="none"/>
    <path d="M81.35 20.05 L82.7 24.05 75.15 24.05 75.15 20.05 81.35 20.05" fill="url(#gradient0)" fill-rule="evenodd" stroke="none"/>
    <path d="M83.3 25.9 L84.6 29.85 75.15 29.9 75.15 25.9 83.3 25.9" fill="url(#gradient1)" fill-rule="evenodd" stroke="none"/>
    <path d="M75.15 24.05 L68.3 24.05 67.0 20.05 75.15 20.05 75.15 24.05" fill="url(#gradient2)" fill-rule="evenodd" stroke="none"/>
    <path d="M66.35 18.2 L65.1 14.3 75.15 14.3 75.15 18.2 66.35 18.2" fill="url(#gradient3)" fill-rule="evenodd" stroke="none"/>
    <path d="M79.45 14.3 L80.75 18.2 75.15 18.2 75.15 14.3 79.45 14.3" fill="url(#gradient4)" fill-rule="evenodd" stroke="none"/>
    <path d="M68.9 25.9 L75.15 25.9 75.15 29.9 70.2 29.9 68.9 25.9" fill="url(#gradient5)" fill-rule="evenodd" stroke="none"/>
    <path d="M27.15 20.7 Q27.7 22.0 27.7 23.6 27.7 24.8 27.3 25.85 L18.65 25.85 27.3 25.85 Q27.0 26.95 26.3 27.85 24.95 29.65 23.0 29.65 L21.6 29.4 Q20.55 29.0 19.65 27.85 19.0 26.95 18.65 25.85 18.3 24.8 18.3 23.6 18.3 22.0 18.9 20.7 L19.65 19.35 Q21.05 17.6 23.0 17.6 24.95 17.6 26.3 19.35 L27.15 20.7 18.9 20.7 27.15 20.7" fill="url(#gradient6)" fill-rule="evenodd" stroke="none"/>
    <path d="M30.35 25.85 L30.55 23.55 30.55 23.35 32.85 25.85 30.35 25.85 32.85 25.85 34.5 27.6 33.1 29.95 32.95 30.15 32.25 30.95 Q30.7 32.45 28.7 32.75 L27.6 32.9 27.5 32.9 25.3 32.9 23.15 32.9 25.3 32.45 Q27.0 31.85 28.3 30.15 L28.5 29.95 Q29.8 28.25 30.3 26.0 L30.35 25.85" fill="url(#gradient7)" fill-rule="evenodd" stroke="none"/>
    <path d="M44.6 53.35 L45.6 53.65 42.4 61.5 40.0 63.9 Q36.85 64.0 34.3 62.4 L35.4 59.7 37.05 55.7 38.0 53.35 44.6 53.35" fill="url(#gradient8)" fill-rule="evenodd" stroke="none"/>
    <path d="M20.6 61.6 L20.85 61.0 24.8 51.2 26.0 48.3 32.55 53.35 31.6 55.7 30.05 59.7 28.95 62.4 28.0 62.4 27.65 62.4 27.45 62.45 Q25.8 62.55 24.45 63.45 20.8 62.5 20.6 61.6" fill="url(#gradient9)" fill-rule="evenodd" stroke="none"/>
    <path d="M28.0 62.4 L28.95 62.4 34.3 62.4 Q36.85 64.0 40.0 63.9 L38.75 65.2 34.15 80.25 30.8 82.7 28.0 82.6 Q31.05 82.55 33.2 79.6 L34.3 77.8 34.4 77.7 35.05 75.85 35.4 72.5 Q35.4 68.35 33.2 65.35 31.05 62.5 28.0 62.4" fill="url(#gradient10)" fill-rule="evenodd" stroke="none"/>
    <path d="M20.75 76.15 Q20.3 74.55 20.3 72.75 L20.3 72.5 Q20.3 68.7 22.15 65.95 L22.45 65.35 Q23.4 64.15 24.45 63.45 25.8 62.55 27.45 62.45 L27.65 62.4 28.0 62.4 Q31.05 62.5 33.2 65.35 35.4 68.35 35.4 72.5 L35.05 75.85 34.4 77.7 34.3 77.8 33.2 79.6 Q31.05 82.55 28.0 82.6 L27.7 82.6 27.5 82.6 25.95 82.3 Q23.95 81.7 22.45 79.6 21.5 78.3 20.9 76.75 L20.75 76.15 M30.0 68.5 Q28.75 66.7 26.95 66.7 25.15 66.7 23.9 68.5 22.6 70.15 22.6 72.6 22.6 74.95 23.9 76.7 25.15 78.45 26.95 78.45 28.75 78.45 30.0 76.7 31.25 74.95 31.25 72.6 31.25 70.15 30.0 68.5" fill="url(#gradient11)" fill-rule="evenodd" stroke="none"/>
    <path d="M30.0 68.5 Q31.25 70.15 31.25 72.6 31.25 74.95 30.0 76.7 28.75 78.45 26.95 78.45 25.15 78.45 23.9 76.7 22.6 74.95 22.6 72.6 22.6 70.15 23.9 68.5 25.15 66.7 26.95 66.7 28.75 66.7 30.0 68.5" fill="url(#gradient12)" fill-rule="evenodd" stroke="none"/>
    <path d="M40.3 99.85 L39.05 91.55 41.6 86.3 41.8 87.65 40.0 91.6 41.35 100.55 42.05 105.4 42.35 107.6 45.15 109.35 45.35 110.4 45.3 110.4 41.5 108.15 41.0 104.8 42.05 105.4 41.0 104.8 40.3 99.85 41.35 100.55 40.3 99.85 M52.25 87.9 L60.8 86.25 60.8 86.3 61.95 94.4 53.35 95.9 61.95 94.4 62.7 99.5 54.1 101.0 62.7 99.5 63.15 102.8 54.6 104.45 54.1 101.0 53.35 95.9 52.25 87.9" fill="#777777" fill-rule="evenodd" stroke="none"/>
    <path d="M84.45 121.4 L76.05 121.4 74.85 115.75 84.45 115.75 84.45 121.4" fill="url(#gradient13)" fill-rule="evenodd" stroke="none"/>
    <path d="M30.85 119.2 L37.1 119.2 38.65 121.25 40.8 124.4 44.6 130.65 46.2 133.75 48.5 138.9 Q50.65 144.3 52.05 150.3 50.5 152.45 50.5 155.5 50.5 157.25 51.0 158.7 51.4 159.9 52.15 160.85 53.05 162.15 54.15 162.7 L54.4 165.85 49.75 165.85 Q47.8 146.8 41.4 133.8 L46.2 133.75 41.4 133.8 39.75 130.65 Q35.9 124.05 30.85 119.2 M44.6 130.65 L39.75 130.65 44.6 130.65" fill="url(#gradient14)" fill-rule="evenodd" stroke="none"/>
    <path d="M88.7 137.3 L81.5 137.3 80.25 134.4 79.3 132.0 94.95 132.0 97.3 137.3 90.05 137.3 90.05 134.4 88.7 134.4 88.7 137.3" fill="url(#gradient15)" fill-rule="evenodd" stroke="none"/>
    <path d="M77.8 127.75 L77.6 127.1 76.8 124.4 84.45 124.4 84.45 129.6 78.4 129.6 77.8 127.75" fill="url(#gradient16)" fill-rule="evenodd" stroke="none"/>
    <path d="M56.1 147.9 L60.9 147.9 Q63.05 147.95 64.6 150.1 L65.35 151.3 Q66.25 153.1 66.25 155.5 66.25 158.7 64.6 160.85 63.25 162.85 61.3 163.15 L56.5 163.1 Q58.4 162.85 59.8 160.85 61.4 158.7 61.4 155.5 61.4 153.1 60.55 151.3 L59.8 150.1 Q58.2 147.95 56.1 147.9 M65.35 151.3 L60.55 151.3 65.35 151.3" fill="url(#gradient17)" fill-rule="evenodd" stroke="none"/>
    <path d="M12.8 143.4 L18.65 143.4 18.15 144.7 23.8 150.35 24.45 151.05 Q26.25 153.35 26.55 156.4 L22.5 156.4 26.55 156.4 26.7 157.8 Q26.7 161.8 24.45 164.6 22.25 167.4 19.05 167.4 L18.95 167.4 16.5 167.4 15.2 167.4 16.6 167.15 Q18.75 166.65 20.35 164.6 22.55 161.8 22.55 157.8 L22.5 156.4 22.1 154.4 Q21.55 152.55 20.35 151.05 L19.75 150.35 12.8 143.4 M26.7 157.8 L22.55 157.8 26.7 157.8" fill="url(#gradient18)" fill-rule="evenodd" stroke="none"/>
    <path d="M17.85 153.25 Q19.3 155.15 19.3 157.7 19.3 160.55 17.55 162.55 L17.0 163.15 Q15.5 164.6 13.5 164.6 L12.8 164.55 17.85 153.25 M11.4 164.1 L9.9 163.15 15.2 151.2 Q16.0 151.45 16.65 152.05 L11.4 164.1" fill="url(#gradient19)" fill-rule="evenodd" stroke="none"/>
    <path d="M53.25 156.95 L53.05 155.65 Q53.05 153.6 53.95 152.25 54.85 150.8 55.8 150.8 56.7 150.8 57.65 152.3 L58.15 153.15 Q58.55 154.35 58.55 155.75 L58.45 156.95 57.65 159.1 Q56.7 160.4 55.8 160.4 54.85 160.4 54.0 159.0 53.4 158.15 53.25 156.95 L58.45 156.95 53.25 156.95" fill="url(#gradient20)" fill-rule="evenodd" stroke="none"/>
    <path d="M84.45 115.75 L85.8 115.75 85.8 121.4 84.45 121.4 84.45 115.75" fill="url(#gradient21)" fill-rule="evenodd" stroke="none"/>
    <path d="M85.8 115.75 L89.7 115.75 91.25 121.4 85.8 121.4 85.8 115.75" fill="url(#gradient22)" fill-rule="evenodd" stroke="none"/>
    <path d="M93.3 127.75 L93.95 129.6 85.8 129.6 85.8 124.4 92.15 124.4 93.05 127.1 93.3 127.75" fill="url(#gradient23)" fill-rule="evenodd" stroke="none"/>
    <path d="M84.45 129.6 L84.45 124.4 85.8 124.4 85.8 129.6 84.45 129.6" fill="url(#gradient24)" fill-rule="evenodd" stroke="none"/>
    <path d="M90.05 137.3 L88.7 137.3 88.7 134.4 90.05 134.4 90.05 137.3" fill="url(#gradient25)" fill-rule="evenodd" stroke="none"/>
    <path d="M88.7 139.8 L98.55 139.8 101.55 145.0 93.95 145.0 93.95 142.3 88.7 142.3 88.7 139.8" fill="url(#gradient26)" fill-rule="evenodd" stroke="none"/>
    <path d="M93.95 145.0 L85.55 145.0 84.45 143.1 84.0 142.3 82.7 139.8 88.7 139.8 88.7 142.3 93.95 142.3 93.95 145.0" fill="url(#gradient27)" fill-rule="evenodd" stroke="none"/>
    <path d="M93.95 147.3 L95.3 147.3 95.3 153.05 93.95 153.05 93.95 147.3" fill="url(#gradient28)" fill-rule="evenodd" stroke="none"/>
    <path d="M93.95 153.05 L90.8 153.05 88.7 150.05 87.7 148.5 86.95 147.3 93.95 147.3 93.95 153.05" fill="url(#gradient29)" fill-rule="evenodd" stroke="none"/>
    <path d="M95.3 147.3 L102.85 147.3 103.6 148.5 106.75 153.05 95.3 153.05 95.3 147.3" fill="url(#gradient30)" fill-rule="evenodd" stroke="none"/>
    <path d="M77.25 0.0 L86.15 0.0 89.7 0.0 101.2 35.8 100.3 48.35 98.95 50.6 96.5 54.7 91.85 54.7 89.35 54.7 89.35 58.25 93.0 59.7 94.3 67.25 95.55 74.8 95.55 74.85 96.8 81.95 101.2 86.25 102.65 94.4 103.55 99.5 104.2 102.85 100.85 106.2 101.65 109.6 102.55 113.45 Q103.95 119.1 105.85 124.4 L106.3 125.45 106.95 127.1 107.2 127.75 Q109.85 134.25 113.25 140.05 118.65 149.25 126.0 156.75 L118.1 164.95 127.05 164.95 131.65 168.75 132.5 168.75 135.65 168.75 138.0 171.15 153.9 187.0 153.9 187.05 153.9 190.9 154.75 190.9 158.1 194.25 158.1 198.35 158.1 204.45 150.75 204.45 121.05 204.45 113.15 204.45 66.9 204.45 61.3 204.45 22.45 204.45 0.1 204.45 0.1 198.35 0.1 194.1 3.35 190.9 3.35 188.7 3.35 179.7 0.0 177.4 0.0 173.55 12.8 143.4 18.65 143.4 20.85 138.15 22.15 135.2 29.95 135.2 30.8 133.15 32.35 133.15 33.65 130.4 32.55 128.7 Q28.95 123.15 24.85 119.6 L26.8 115.75 22.8 113.5 22.35 110.2 21.6 105.15 20.35 96.9 22.9 91.75 22.9 91.7 18.05 87.9 17.8 85.35 19.55 85.25 17.9 79.1 20.75 76.15 Q20.3 74.55 20.3 72.75 L16.8 69.8 16.8 63.65 16.8 63.45 18.2 60.75 20.6 61.6 20.85 61.0 19.2 54.55 21.25 48.05 22.15 45.25 18.25 42.25 16.95 37.5 13.35 35.9 12.1 25.8 15.3 23.55 Q15.3 22.05 15.7 20.7 L16.15 19.25 14.55 17.4 14.55 13.45 20.4 9.0 21.75 9.95 25.05 5.25 42.2 0.0 47.95 0.0 75.25 0.0 M47.95 0.0 L52.05 12.25 90.1 12.25 86.15 0.0 M80.75 18.2 L84.9 18.2 83.55 14.3 79.45 14.3 80.75 18.2 81.4 20.05 85.6 20.05 84.9 18.2 M81.35 20.05 L81.4 20.05 M81.35 20.05 L82.7 24.05 87.0 24.05 85.6 20.05 M96.35 45.85 L96.9 38.85 57.6 38.85 57.3 45.85 96.35 45.85 96.1 48.35 100.3 48.35 M83.3 25.9 L84.6 29.85 89.0 29.85 87.65 25.9 83.3 25.9 82.7 24.05 75.15 24.05 68.3 24.05 68.9 25.9 75.15 25.9 83.3 25.9 M87.65 25.9 L87.0 24.05 M98.95 50.6 L94.6 50.6 91.85 54.7 M47.2 56.75 L85.7 56.75 89.35 58.25 M84.85 69.35 L86.85 69.35 88.5 79.8 86.55 79.8 64.95 79.8 63.4 69.35 84.85 69.35 86.55 79.8 M94.3 67.25 L88.65 67.25 89.9 74.8 95.55 74.8 M91.15 82.0 L96.8 82.0 96.8 81.95 M89.9 74.8 L91.15 82.0 62.8 82.0 56.55 82.0 60.8 86.25 101.2 86.25 M96.1 48.35 L94.6 50.6 M63.5 14.3 L60.5 14.3 61.85 18.2 66.35 18.2 65.1 14.3 75.15 14.3 79.45 14.3 M63.7 24.05 L62.4 20.05 61.85 18.2 M67.0 20.05 L68.3 24.05 63.7 24.05 64.35 25.9 68.9 25.9 70.2 29.9 75.15 29.9 84.6 29.85 M62.4 20.05 L67.0 20.05 66.35 18.2 75.15 18.2 M80.75 18.2 L75.15 18.2 M67.0 20.05 L75.15 20.05 81.35 20.05 M25.05 5.25 L45.25 28.65 45.25 34.0 54.1 35.8 42.2 0.0 M39.2 46.2 L49.2 47.8 49.5 38.3 45.25 34.0 39.2 32.7 39.2 46.2 39.6 47.6 40.55 51.1 40.8 52.25 44.6 53.35 45.6 53.65 45.65 53.65 49.2 47.8 53.15 48.35 54.1 35.8 101.2 35.8 M57.3 45.85 L57.15 48.35 96.1 48.35 M57.15 48.35 L53.15 48.35 51.8 50.6 55.85 50.6 57.15 48.35 M70.2 29.9 L65.6 29.9 64.35 25.9 M22.25 14.3 L20.25 12.15 21.75 9.95 M27.15 20.7 L28.1 20.7 22.25 14.3 Q19.7 14.55 17.8 16.7 L17.55 16.95 Q16.7 18.05 16.15 19.25 M27.15 20.7 Q27.7 22.0 27.7 23.6 27.7 24.8 27.3 25.85 L30.35 25.85 30.55 23.55 30.55 23.35 28.1 20.7 M18.9 20.7 L19.65 19.35 Q21.05 17.6 23.0 17.6 24.95 17.6 26.3 19.35 L27.15 20.7 18.9 20.7 Q18.3 22.0 18.3 23.6 18.3 24.8 18.65 25.85 L27.3 25.85 Q27.0 26.95 26.3 27.85 24.95 29.65 23.0 29.65 L21.6 29.4 Q20.55 29.0 19.65 27.85 19.0 26.95 18.65 25.85 L15.55 25.85 15.75 26.7 Q16.1 28.05 16.8 29.2 L17.55 30.15 17.7 30.35 Q19.35 32.25 21.5 32.7 L22.95 32.9 23.15 32.9 25.3 32.45 Q27.0 31.85 28.3 30.15 L28.5 29.95 Q29.8 28.25 30.3 26.0 L30.35 25.85 32.85 25.85 30.55 23.35 M18.9 20.7 L15.7 20.7 M17.8 16.7 L14.55 13.45 M15.75 26.7 L12.1 25.8 M40.55 51.1 L33.45 51.1 19.95 41.4 19.4 38.6 18.45 38.2 16.95 37.5 M17.7 30.35 L18.45 38.2 M34.5 27.6 L33.1 29.95 32.95 30.15 32.25 30.95 39.2 32.7 34.5 27.6 32.85 25.85 M23.15 32.9 L25.3 32.9 27.5 32.9 27.6 32.9 28.7 32.75 Q30.7 32.45 32.25 30.95 M26.0 48.3 L22.15 45.25 M21.5 32.7 L22.25 39.85 26.25 41.65 25.3 32.9 M39.6 47.6 L30.0 43.3 26.25 41.65 M28.7 32.75 L30.0 43.3 M19.4 38.6 L22.25 39.85 M15.55 25.85 Q15.3 24.8 15.3 23.55 M37.05 55.7 L31.6 55.7 30.05 59.7 35.4 59.7 37.05 55.7 38.0 53.35 32.55 53.35 31.6 55.7 M20.85 61.0 L24.8 51.2 21.25 48.05 M28.95 62.4 L28.0 62.4 Q31.05 62.5 33.2 65.35 35.4 68.35 35.4 72.5 L35.05 75.85 34.4 77.7 34.3 77.8 33.2 79.6 Q31.05 82.55 28.0 82.6 L30.8 82.7 34.15 80.25 38.75 65.2 40.0 63.9 Q36.85 64.0 34.3 62.4 L28.95 62.4 30.05 59.7 M24.45 63.45 Q25.8 62.55 27.45 62.45 L27.65 62.4 28.0 62.4 M22.15 65.95 L22.45 65.35 Q23.4 64.15 24.45 63.45 20.8 62.5 20.6 61.6 M20.3 72.75 L20.3 72.5 Q20.3 68.7 22.15 65.95 L16.8 63.65 M30.0 68.5 Q31.25 70.15 31.25 72.6 31.25 74.95 30.0 76.7 28.75 78.45 26.95 78.45 25.15 78.45 23.9 76.7 22.6 74.95 22.6 72.6 22.6 70.15 23.9 68.5 25.15 66.7 26.95 66.7 28.75 66.7 30.0 68.5 M34.3 62.4 L35.4 59.7 M25.05 88.9 L33.9 84.85 34.15 80.25 54.45 67.25 53.4 59.7 47.2 56.75 42.4 61.5 40.0 63.9 M28.0 82.6 L27.7 82.6 27.5 82.6 25.95 82.3 Q23.95 81.7 22.45 79.6 21.5 78.3 20.9 76.75 L20.75 76.15 M30.8 82.7 L28.1 84.6 25.4 86.6 25.05 88.9 24.75 91.2 33.65 88.6 33.9 84.85 55.55 74.8 54.45 67.25 60.6 67.25 88.65 67.25 M19.4 78.0 L21.55 85.1 28.1 84.6 M24.75 91.2 L22.9 91.7 M24.55 104.3 L24.15 101.75 23.7 99.15 36.2 95.65 36.65 98.2 37.0 100.75 40.3 99.85 39.05 91.55 20.35 96.9 M19.55 85.25 L21.55 85.1 M55.85 50.6 L53.55 54.7 89.35 54.7 M45.6 53.65 L42.4 61.5 M45.65 53.65 L49.3 54.7 51.8 50.6 M49.3 54.7 L53.55 54.7 M55.55 74.8 L56.55 82.0 52.25 87.9 60.8 86.25 60.8 86.3 61.95 94.4 102.65 94.4 M41.6 86.3 L44.6 85.4 56.55 82.0 M42.15 90.8 L48.3 89.1 48.35 89.05 52.25 87.9 53.35 95.9 61.95 94.4 62.7 99.5 103.55 99.5 M42.2 91.1 L42.15 90.8 43.85 87.05 41.8 87.65 40.0 91.6 42.2 91.1 43.35 98.9 53.35 95.9 54.1 101.0 62.7 99.5 63.15 102.8 63.15 102.85 104.2 102.85 M41.6 86.3 L41.8 87.65 M44.6 85.4 L43.85 87.05 M62.8 82.0 L61.75 74.8 55.55 74.8 M61.75 74.8 L60.6 67.25 M41.6 86.3 L33.65 88.6 M39.05 91.55 L41.6 86.3 M32.55 53.35 L26.0 48.3 24.8 51.2 M44.6 53.35 L38.0 53.35 M84.45 121.4 L76.05 121.4 74.85 115.75 84.45 115.75 85.8 115.75 89.7 115.75 92.3 115.75 93.95 121.4 91.25 121.4 85.8 121.4 84.45 121.4 M60.3 109.6 L59.85 106.2 54.1 107.85 48.2 109.55 45.35 110.4 45.3 110.4 26.8 115.75 M54.6 104.45 L54.1 101.0 44.05 103.9 44.5 107.0 44.6 107.4 54.6 104.45 63.15 102.8 M59.85 106.2 L54.6 104.45 M45.15 109.35 L45.35 110.4 M45.3 110.4 L41.5 108.15 22.8 113.5 M42.35 107.6 L45.15 109.35 47.05 108.9 44.6 107.4 M40.0 91.6 L41.35 100.55 42.05 105.4 42.35 107.6 44.5 107.0 M48.2 109.55 L47.05 108.9 M41.5 108.15 L41.0 104.8 37.7 105.8 25.4 109.35 22.35 110.2 M41.0 104.8 L42.05 105.4 M53.9 112.6 L53.8 111.45 60.3 109.6 101.65 109.6 M54.2 114.4 L54.15 113.8 54.05 113.15 53.9 112.6 30.85 119.2 37.1 119.2 54.2 114.4 54.5 116.0 54.65 116.95 55.55 120.85 56.85 125.75 57.0 126.15 63.25 124.4 63.05 123.95 Q61.3 117.05 60.3 109.6 M56.15 165.85 L62.15 165.85 63.9 165.85 72.15 157.25 Q69.6 153.5 67.35 149.65 L66.35 147.85 Q61.45 139.05 58.35 130.3 L58.05 129.35 57.8 128.8 57.25 127.0 57.0 126.15 M37.1 119.2 L38.65 121.25 40.8 124.4 44.6 130.65 46.2 133.75 48.5 138.9 Q50.65 144.3 52.05 150.3 L52.15 150.1 Q52.7 149.3 53.35 148.8 51.95 143.1 49.7 137.4 45.85 128.4 39.9 120.05 L54.5 116.0 M41.4 133.8 L46.2 133.75 M53.35 148.8 L53.6 148.65 Q54.65 147.95 55.85 147.9 L55.95 147.9 56.1 147.9 60.9 147.9 Q63.05 147.95 64.6 150.1 L65.35 151.3 Q66.25 153.1 66.25 155.5 66.25 158.7 64.6 160.85 63.25 162.85 61.3 163.15 L56.5 163.1 56.15 163.15 55.95 163.15 55.85 163.15 56.15 165.85 54.4 165.85 49.75 165.85 Q47.8 146.8 41.4 133.8 L36.45 135.55 37.1 136.9 37.8 138.4 39.65 142.9 Q44.25 155.15 45.35 170.0 L46.9 170.0 57.95 170.0 62.15 165.85 M88.7 137.3 L81.5 137.3 80.25 134.4 79.3 132.0 94.95 132.0 98.05 132.0 100.6 137.3 97.3 137.3 90.05 137.3 88.7 137.3 M77.8 127.75 L77.6 127.1 76.8 124.4 63.25 124.4 64.0 127.1 64.15 127.75 77.8 127.75 78.4 129.6 84.45 129.6 M84.45 124.4 L76.8 124.4 M58.05 129.35 L64.15 127.75 Q69.35 144.5 79.45 156.75 L126.0 156.75 M59.85 106.2 L63.15 102.85 M37.0 100.75 L37.4 103.25 37.7 105.8 M25.4 109.35 L24.95 106.85 24.55 104.3 21.6 105.15 M24.55 104.3 L37.0 100.75 M24.95 106.85 L37.4 103.25 M26.55 156.4 Q26.25 153.35 24.45 151.05 L23.8 150.35 18.15 144.7 18.65 143.4 M34.7 132.2 L35.0 132.75 35.15 133.15 36.45 135.55 M33.65 130.4 L34.7 132.2 39.75 130.65 Q35.9 124.05 30.85 119.2 M32.35 133.15 L35.15 133.15 M20.85 138.15 L25.15 143.55 Q29.2 154.4 30.0 174.75 L35.4 180.15 39.95 180.15 32.8 173.0 32.55 166.4 Q32.05 159.5 30.95 153.6 L30.65 152.3 29.0 145.6 28.65 144.35 28.0 142.45 22.15 135.2 M32.45 142.45 L28.6 138.6 29.3 136.9 29.95 135.2 M32.45 142.45 L33.65 146.05 34.1 147.25 35.35 152.3 35.7 153.6 Q37.0 160.3 37.55 168.1 L37.8 173.0 44.95 180.15 70.6 180.15 82.55 168.2 82.55 162.5 72.9 172.15 46.9 172.15 46.9 170.0 M37.1 136.9 L29.3 136.9 M28.0 142.45 L32.45 142.45 M12.8 143.4 L19.75 150.35 20.35 151.05 Q21.55 152.55 22.1 154.4 L22.5 156.4 26.55 156.4 26.7 157.8 Q26.7 161.8 24.45 164.6 22.25 167.4 19.05 167.4 L18.95 167.4 16.5 167.4 10.45 181.55 6.3 181.55 3.35 179.7 M22.55 157.8 L26.7 157.8 M22.5 156.4 L22.55 157.8 Q22.55 161.8 20.35 164.6 18.75 166.65 16.6 167.15 L15.2 167.4 16.5 167.4 M32.8 173.0 L37.8 173.0 M16.65 152.05 L17.55 152.9 17.85 153.25 Q19.3 155.15 19.3 157.7 19.3 160.55 17.55 162.55 L17.0 163.15 Q15.5 164.6 13.5 164.6 L12.8 164.55 11.4 164.1 9.9 163.15 15.2 151.2 Q16.0 151.45 16.65 152.05 L11.4 164.1 M15.2 167.4 L14.95 167.4 14.85 167.4 13.35 167.4 13.15 167.4 12.4 167.4 6.3 181.55 M12.8 164.55 L17.85 153.25 M3.35 188.7 L13.9 188.7 18.95 184.05 23.15 180.15 35.4 180.15 M64.55 190.9 L64.55 186.15 21.05 186.15 25.7 190.9 64.55 190.9 70.2 190.9 87.55 173.55 82.4 173.55 75.75 180.15 70.6 180.15 64.55 186.15 M25.7 190.9 L22.45 194.15 61.3 194.2 64.55 190.9 M3.35 190.9 L25.7 190.9 M22.45 194.15 L0.1 194.1 M18.95 184.05 L21.05 186.15 M66.15 170.0 L72.6 170.0 82.55 160.05 118.1 160.05 118.1 162.5 118.1 164.95 85.8 164.95 94.7 173.55 99.6 173.55 97.2 171.15 99.6 168.75 102.75 168.75 131.65 168.75 M66.15 170.0 L79.45 156.75 M58.15 153.15 L60.55 151.3 59.8 150.1 Q58.2 147.95 56.1 147.9 M53.25 156.95 L53.05 155.65 Q53.05 153.6 53.95 152.25 54.85 150.8 55.8 150.8
     56.7 150.8 57.65 152.3 L58.15 153.15 Q58.55 154.35 58.55 155.75 L58.45 156.95 57.65 159.1 Q56.7 160.4 55.8 160.4 54.85 160.4 54.0 159.0 53.4 158.15 53.25 156.95 L51.0 158.7 Q51.4 159.9 52.15 160.85 53.05 162.15 54.15 162.7 54.95 163.1 55.85 163.15 M53.25 156.95 L58.45 156.95 M54.4 165.85 L54.15 162.7 M51.0 158.7 Q50.5 157.25 50.5 155.5 50.5 152.45 52.05 150.3 M56.5 163.1 Q58.4 162.85 59.8 160.85 61.4 158.7 61.4 155.5 61.4 153.1 60.55 151.3 L65.35 151.3 M70.2 190.9 L66.9 194.2 113.15 194.25 111.1 190.9 70.2 190.9 M61.3 194.2 L66.9 194.2 66.9 198.35 113.15 198.35 113.15 194.25 117.8 194.25 115.5 190.9 111.1 190.9 111.1 189.3 94.7 173.55 87.55 173.55 M57.95 170.0 L66.15 170.0 M41.4 133.8 L39.75 130.65 44.6 130.65 M39.95 180.15 L44.95 180.15 M41.0 104.8 L40.3 99.85 41.35 100.55 M89.7 115.75 L91.25 121.4 M93.95 129.6 L97.0 129.55 96.25 127.75 93.3 127.75 93.95 129.6 85.8 129.6 84.45 129.6 M92.15 124.4 L93.05 127.1 93.3 127.75 M96.25 127.75 L96.0 127.1 95.0 124.4 92.15 124.4 85.8 124.4 M84.45 124.4 L85.8 124.4 M93.95 145.0 L85.55 145.0 84.45 143.1 84.0 142.3 82.7 139.8 88.7 139.8 98.55 139.8 101.85 139.8 101.85 139.85 104.8 145.0 101.55 145.0 93.95 145.0 M93.95 147.3 L95.3 147.3 102.85 147.3 106.25 147.3 107.05 148.5 110.15 153.05 106.75 153.05 95.3 153.05 93.95 153.05 90.8 153.05 88.7 150.05 87.7 148.5 86.95 147.3 93.95 147.3 M94.95 132.0 L97.3 137.3 M98.55 139.8 L101.55 145.0 M95.0 124.4 L105.85 124.4 M96.25 127.75 L107.2 127.75 M102.85 147.3 L103.6 148.5 106.75 153.05 M101.95 171.15 L105.15 171.15 102.75 168.75 M82.55 160.05 L82.55 162.5 118.1 162.5 M85.8 164.95 L82.55 168.2 M117.8 194.25 L117.8 187.05 115.5 189.3 115.5 190.9 M117.8 194.25 L121.05 194.25 121.05 187.05 117.8 187.05 101.95 171.15 99.6 173.55 115.5 189.3 111.1 189.3 M150.75 187.05 L134.9 171.15 105.15 171.15 121.05 187.05 150.75 187.05 153.9 187.05 M99.6 168.75 L101.95 171.15 M132.5 168.75 L134.9 171.15 138.0 171.15 M150.75 204.45 L150.75 198.35 150.75 194.25 150.75 187.05 M153.9 190.9 L153.9 194.25 158.1 194.25 M153.9 194.25 L150.75 194.25 M24.15 101.75 L36.65 98.2 M59.85 106.2 L100.85 106.2 M44.05 103.9 L43.35 98.9 M53.4 59.7 L93.0 59.7 M150.75 198.35 L158.1 198.35 M113.15 198.35 L121.05 198.35 121.05 194.25 M121.05 204.45 L121.05 198.35 M113.15 198.35 L113.15 204.45 M66.9 198.35 L66.9 204.45 M61.3 194.2 L61.3 198.35 61.3 204.45 M0.1 198.35 L22.45 198.35 22.45 194.15 M61.3 198.35 L22.45 198.35 22.45 204.45" fill="none" stroke="#000000" stroke-width="0.7" stroke-opacity="0.4"/>
  </g>
  <defs>
    <linearGradient gradientTransform="matrix(0.0, 0.0022, -0.0024, 0.0, 76.3, 22.0)" gradientUnits="userSpaceOnUse" id="gradient0" spreadMethod="reflect" x1="-819.2" x2="819.2">
      <stop offset="0.0" stop-color="#ff5500"/>
      <stop offset="1.0" stop-color="#ffbb00"/>
    </linearGradient>
    <linearGradient gradientTransform="matrix(0.0, 0.0029, -0.0024, 0.0, 78.3, 27.9)" gradientUnits="userSpaceOnUse" id="gradient1" spreadMethod="reflect" x1="-819.2" x2="819.2">
      <stop offset="0.0" stop-color="#ff5500"/>
      <stop offset="1.0" stop-color="#ffbb00"/>
    </linearGradient>
    <linearGradient gradientTransform="matrix(0.0, 0.0022, -0.0024, 0.0, 73.3, 22.0)" gradientUnits="userSpaceOnUse" id="gradient2" spreadMethod="reflect" x1="-819.2" x2="819.2">
      <stop offset="0.0" stop-color="#ff5500"/>
      <stop offset="1.0" stop-color="#ffbb00"/>
    </linearGradient>
    <linearGradient gradientTransform="matrix(0.0, 0.0022, -0.0024, 0.0, 71.4, 16.2)" gradientUnits="userSpaceOnUse" id="gradient3" spreadMethod="reflect" x1="-819.2" x2="819.2">
      <stop offset="0.0" stop-color="#ff5500"/>
      <stop offset="1.0" stop-color="#ffbb00"/>
    </linearGradient>
    <linearGradient gradientTransform="matrix(0.0, 0.0022, -0.0024, 0.0, 74.4, 16.2)" gradientUnits="userSpaceOnUse" id="gradient4" spreadMethod="reflect" x1="-819.2" x2="819.2">
      <stop offset="0.0" stop-color="#ff5500"/>
      <stop offset="1.0" stop-color="#ffbb00"/>
    </linearGradient>
    <linearGradient gradientTransform="matrix(0.0, 0.0029, -0.0024, 0.0, 75.3, 27.9)" gradientUnits="userSpaceOnUse" id="gradient5" spreadMethod="reflect" x1="-819.2" x2="819.2">
      <stop offset="0.0" stop-color="#ff5500"/>
      <stop offset="1.0" stop-color="#ffbb00"/>
    </linearGradient>
    <linearGradient gradientTransform="matrix(0.0, -0.0073, 0.0073, 0.0, 23.0, 23.6)" gradientUnits="userSpaceOnUse" id="gradient6" spreadMethod="pad" x1="-819.2" x2="819.2">
      <stop offset="0.0" stop-color="#444444"/>
      <stop offset="1.0" stop-color="#222222"/>
      <stop offset="1.0" stop-color="#000000"/>
      <stop offset="1.0" stop-color="#222222"/>
    </linearGradient>
    <linearGradient gradientTransform="matrix(0.0, 0.0067, -0.0058, 0.0, 29.75, 31.25)" gradientUnits="userSpaceOnUse" id="gradient7" spreadMethod="pad" x1="-819.2" x2="819.2">
      <stop offset="0.0" stop-color="#333333"/>
      <stop offset="1.0" stop-color="#000000"/>
    </linearGradient>
    <linearGradient gradientTransform="matrix(0.0049, 0.0019, -0.0023, 0.006, 38.9, 57.9)" gradientUnits="userSpaceOnUse" id="gradient8" spreadMethod="pad" x1="-819.2" x2="819.2">
      <stop offset="0.0" stop-color="#222222"/>
      <stop offset="0.49411764705882355" stop-color="#737373"/>
      <stop offset="1.0" stop-color="#333333"/>
    </linearGradient>
    <linearGradient gradientTransform="matrix(0.006, 0.0022, -0.0033, 0.0087, 26.3, 54.9)" gradientUnits="userSpaceOnUse" id="gradient9" spreadMethod="pad" x1="-819.2" x2="819.2">
      <stop offset="0.0" stop-color="#222222"/>
      <stop offset="0.49411764705882355" stop-color="#737373"/>
      <stop offset="1.0" stop-color="#333333"/>
    </linearGradient>
    <linearGradient gradientTransform="matrix(0.0, -0.013, 0.0123, 0.0, 34.0, 72.5)" gradientUnits="userSpaceOnUse" id="gradient10" spreadMethod="pad" x1="-819.2" x2="819.2">
      <stop offset="0.0" stop-color="#222222"/>
      <stop offset="0.44313725490196076" stop-color="#555555"/>
      <stop offset="0.7490196078431373" stop-color="#737373"/>
      <stop offset="1.0" stop-color="#333333"/>
    </linearGradient>
    <radialGradient color-interpolation="linearRGB" cx="0" cy="0" fx="-1264.0" fy="0" gradientTransform="matrix(0.0117, 0.0022, -0.0029, 0.0157, 26.85, 70.75)" gradientUnits="userSpaceOnUse" id="gradient11" r="819.2" spreadMethod="pad">
      <stop offset="0.0" stop-color="#999999"/>
      <stop offset="1.0" stop-color="#222222"/>
    </radialGradient>
    <radialGradient cx="0" cy="0" gradientTransform="matrix(0.0078, 0.0, 0.0, 0.0078, 25.05, 72.5)" gradientUnits="userSpaceOnUse" id="gradient12" r="819.2" spreadMethod="reflect">
      <stop offset="0.0" stop-color="#ffbb00"/>
      <stop offset="1.0" stop-color="#ff5500"/>
    </radialGradient>
    <linearGradient gradientTransform="matrix(0.0, 0.0031, -0.0035, 0.0, 81.05, 118.55)" gradientUnits="userSpaceOnUse" id="gradient13" spreadMethod="pad" x1="-819.2" x2="819.2">
      <stop offset="0.0" stop-color="#ff5500"/>
      <stop offset="0.49019607843137253" stop-color="#ffbb00"/>
      <stop offset="1.0" stop-color="#ff5500"/>
    </linearGradient>
    <linearGradient gradientTransform="matrix(0.0, 0.0287, -0.0291, 0.0, 42.15, 141.95)" gradientUnits="userSpaceOnUse" id="gradient14" spreadMethod="pad" x1="-819.2" x2="819.2">
      <stop offset="0.0" stop-color="#aaaaaa"/>
      <stop offset="1.0" stop-color="#888888"/>
    </linearGradient>
    <linearGradient gradientTransform="matrix(0.0, 0.003, -0.0032, 0.0, 90.2, 134.6)" gradientUnits="userSpaceOnUse" id="gradient15" spreadMethod="pad" x1="-819.2" x2="819.2">
      <stop offset="0.0" stop-color="#ff5500"/>
      <stop offset="0.49019607843137253" stop-color="#ffbb00"/>
      <stop offset="1.0" stop-color="#ff5500"/>
    </linearGradient>
    <linearGradient gradientTransform="matrix(0.0, 0.0033, -0.0032, 0.0, 83.4, 126.95)" gradientUnits="userSpaceOnUse" id="gradient16" spreadMethod="pad" x1="-819.2" x2="819.2">
      <stop offset="0.0" stop-color="#ff5500"/>
      <stop offset="0.49019607843137253" stop-color="#ffbb00"/>
      <stop offset="1.0" stop-color="#ff5500"/>
    </linearGradient>
    <linearGradient gradientTransform="matrix(0.0, 0.0137, -0.0093, 0.0, 61.15, 155.5)" gradientUnits="userSpaceOnUse" id="gradient17" spreadMethod="pad" x1="-819.2" x2="819.2">
      <stop offset="0.0" stop-color="#222222"/>
      <stop offset="0.49411764705882355" stop-color="#444444"/>
      <stop offset="1.0" stop-color="#111111"/>
      <stop offset="1.0" stop-color="#000000"/>
      <stop offset="1.0" stop-color="#222222"/>
    </linearGradient>
    <linearGradient gradientTransform="matrix(0.0, -0.0116, 0.0146, 0.0, 19.3, 157.9)" gradientUnits="userSpaceOnUse" id="gradient18" spreadMethod="pad" x1="-819.2" x2="819.2">
      <stop offset="0.00392156862745098" stop-color="#555555"/>
      <stop offset="1.0" stop-color="#aaaaaa"/>
    </linearGradient>
    <radialGradient cx="0" cy="0" gradientTransform="matrix(0.0085, 0.0, 0.0, 0.0085, 14.55, 157.85)" gradientUnits="userSpaceOnUse" id="gradient19" r="819.2" spreadMethod="reflect">
      <stop offset="0.0" stop-color="#ffbb00"/>
      <stop offset="1.0" stop-color="#ff5500"/>
    </radialGradient>
    <linearGradient gradientTransform="matrix(0.0, -0.0057, 0.0058, 0.0, 55.75, 155.6)" gradientUnits="userSpaceOnUse" id="gradient20" spreadMethod="pad" x1="-819.2" x2="819.2">
      <stop offset="0.0" stop-color="#444444"/>
      <stop offset="1.0" stop-color="#222222"/>
      <stop offset="1.0" stop-color="#000000"/>
      <stop offset="1.0" stop-color="#222222"/>
    </linearGradient>
    <linearGradient gradientTransform="matrix(0.0, 0.0031, -0.0035, 0.0, 82.4, 118.55)" gradientUnits="userSpaceOnUse" id="gradient21" spreadMethod="pad" x1="-819.2" x2="819.2">
      <stop offset="0.0" stop-color="#ff5500"/>
      <stop offset="0.49019607843137253" stop-color="#ffbb00"/>
      <stop offset="1.0" stop-color="#ff5500"/>
    </linearGradient>
    <linearGradient gradientTransform="matrix(0.0, 0.0031, -0.0035, 0.0, 84.95, 118.55)" gradientUnits="userSpaceOnUse" id="gradient22" spreadMethod="pad" x1="-819.2" x2="819.2">
      <stop offset="0.0" stop-color="#ff5500"/>
      <stop offset="0.49019607843137253" stop-color="#ffbb00"/>
      <stop offset="1.0" stop-color="#ff5500"/>
    </linearGradient>
    <linearGradient gradientTransform="matrix(0.0, 0.0033, -0.0032, 0.0, 87.3, 126.95)" gradientUnits="userSpaceOnUse" id="gradient23" spreadMethod="pad" x1="-819.2" x2="819.2">
      <stop offset="0.0" stop-color="#ff5500"/>
      <stop offset="0.49019607843137253" stop-color="#ffbb00"/>
      <stop offset="1.0" stop-color="#ff5500"/>
    </linearGradient>
    <linearGradient gradientTransform="matrix(0.0, 0.0033, -0.0032, 0.0, 84.75, 126.95)" gradientUnits="userSpaceOnUse" id="gradient24" spreadMethod="pad" x1="-819.2" x2="819.2">
      <stop offset="0.0" stop-color="#ff5500"/>
      <stop offset="0.49019607843137253" stop-color="#ffbb00"/>
      <stop offset="1.0" stop-color="#ff5500"/>
    </linearGradient>
    <linearGradient gradientTransform="matrix(0.0, 0.003, -0.0032, 0.0, 87.65, 134.6)" gradientUnits="userSpaceOnUse" id="gradient25" spreadMethod="pad" x1="-819.2" x2="819.2">
      <stop offset="0.0" stop-color="#ff5500"/>
      <stop offset="0.49019607843137253" stop-color="#ffbb00"/>
      <stop offset="1.0" stop-color="#ff5500"/>
    </linearGradient>
    <linearGradient gradientTransform="matrix(0.0, 0.003, -0.0032, 0.0, 94.05, 142.35)" gradientUnits="userSpaceOnUse" id="gradient26" spreadMethod="pad" x1="-819.2" x2="819.2">
      <stop offset="0.0" stop-color="#ff5500"/>
      <stop offset="0.49019607843137253" stop-color="#ffbb00"/>
      <stop offset="1.0" stop-color="#ff5500"/>
    </linearGradient>
    <linearGradient gradientTransform="matrix(0.0, 0.003, -0.0032, 0.0, 90.15, 142.35)" gradientUnits="userSpaceOnUse" id="gradient27" spreadMethod="pad" x1="-819.2" x2="819.2">
      <stop offset="0.0" stop-color="#ff5500"/>
      <stop offset="0.49019607843137253" stop-color="#ffbb00"/>
      <stop offset="1.0" stop-color="#ff5500"/>
    </linearGradient>
    <linearGradient gradientTransform="matrix(0.0, 0.0037, -0.0035, 0.0, 96.25, 150.15)" gradientUnits="userSpaceOnUse" id="gradient28" spreadMethod="pad" x1="-819.2" x2="819.2">
      <stop offset="0.0" stop-color="#ff5500"/>
      <stop offset="0.49019607843137253" stop-color="#ffbb00"/>
      <stop offset="1.0" stop-color="#ff5500"/>
    </linearGradient>
    <linearGradient gradientTransform="matrix(0.0, 0.0037, -0.0035, 0.0, 94.9, 150.15)" gradientUnits="userSpaceOnUse" id="gradient29" spreadMethod="pad" x1="-819.2" x2="819.2">
      <stop offset="0.0" stop-color="#ff5500"/>
      <stop offset="0.49019607843137253" stop-color="#ffbb00"/>
      <stop offset="1.0" stop-color="#ff5500"/>
    </linearGradient>
    <linearGradient gradientTransform="matrix(0.0, 0.0037, -0.0035, 0.0, 98.8, 150.15)" gradientUnits="userSpaceOnUse" id="gradient30" spreadMethod="pad" x1="-819.2" x2="819.2">
      <stop offset="0.0" stop-color="#ff5500"/>
      <stop offset="0.49019607843137253" stop-color="#ffbb00"/>
      <stop offset="1.0" stop-color="#ff5500"/>
    </linearGradient>
  </defs>
</svg>
