<?xml version="1.0" encoding="UTF-8" standalone="no"?>
<svg xmlns:xlink="http://www.w3.org/1999/xlink" height="221.0px" width="199.6px" xmlns="http://www.w3.org/2000/svg">
  <g transform="matrix(1.0, 0.0, 0.0, 1.0, 0.05, 0.05)">
    <path d="M199.5 101.35 L199.5 102.1 197.5 124.9 192.95 124.9 192.95 124.8 194.55 106.75 190.75 106.75 176.5 106.75 176.2 110.4 175.9 114.0 175.5 117.6 175.2 121.2 174.9 124.8 174.85 124.9 168.5 124.9 170.6 101.35 199.5 101.35 M186.5 133.05 L184.5 141.2 181.65 153.1 175.85 153.1 154.05 153.1 156.1 141.2 178.15 141.2 181.0 141.2 178.15 141.2 156.1 141.2 157.5 133.05 163.9 133.05 181.0 133.05 181.9 133.05 186.5 133.05 M145.25 181.5 L142.75 189.8 136.75 195.4 99.9 195.4 94.3 189.8 96.05 181.5 98.05 181.5 105.35 181.5 123.75 181.5 135.65 181.5 145.25 181.5 M33.1 62.35 L35.6 60.4 41.85 60.8 39.2 62.8 33.1 62.35 M35.6 49.6 L38.15 47.6 44.35 48.0 41.7 50.0 35.6 49.6 M38.45 36.6 L40.95 34.6 47.15 35.0 44.5 37.0 38.45 36.6 M59.95 0.0 L65.7 0.0 72.65 3.9 66.65 3.9 59.95 0.0 M184.5 141.2 L181.4 141.2 184.5 141.2 M178.15 141.2 L176.7 148.35 178.15 141.2 M176.65 148.65 L175.85 153.1 176.65 148.65 M37.9 162.9 L39.05 162.9 40.15 164.75 41.35 166.55 28.75 166.55 26.45 162.9 26.95 162.9 30.65 162.9 34.25 162.9 37.9 162.9 M108.7 153.1 L107.35 141.2 114.65 141.2 118.5 141.2 114.65 141.2 107.35 141.2 106.45 133.05 112.8 133.05 133.8 133.05 134.75 133.05 138.4 133.05 138.15 141.2 138.1 147.1 138.0 153.1 115.95 153.1 108.7 153.1 M145.75 124.9 L145.75 124.8 147.35 106.75 143.45 106.75 125.45 106.75 125.2 110.4 124.85 114.0 124.45 117.6 124.2 121.2 123.85 124.8 123.8 124.9 117.45 124.9 119.55 101.35 152.35 101.35 150.25 124.9 145.75 124.9 M114.65 141.2 L115.25 146.75 114.65 141.2 M122.55 188.05 Q122.85 186.25 122.25 185.0 121.65 183.8 120.45 183.8 119.3 183.8 118.2 185.0 117.15 186.25 116.8 188.05 116.4 189.8 117.0 191.0 117.6 192.3 118.8 192.3 120.0 192.3 121.1 191.0 122.2 189.8 122.55 188.05 M115.1 188.05 Q115.35 186.25 114.8 185.0 114.15 183.8 113.0 183.8 111.85 183.8 110.65 185.0 109.6 186.25 109.3 188.05 108.95 189.8 109.55 191.0 110.15 192.3 111.35 192.3 112.55 192.3 113.65 191.0 114.7 189.8 115.1 188.05 M107.65 188.05 Q107.9 186.25 107.3 185.0 106.75 183.8 105.55 183.8 104.3 183.8 103.2 185.0 102.15 186.25 101.85 188.05 101.5 189.8 102.05 191.0 102.65 192.3 103.85 192.3 105.1 192.3 106.15 191.0 107.25 189.8 107.65 188.05 M115.3 147.45 L115.95 153.1 115.3 147.45 M137.45 188.05 Q137.8 186.25 137.25 185.0 136.55 183.8 135.4 183.8 134.25 183.8 133.15 185.0 132.05 186.25 131.7 188.05 131.3 189.8 132.0 191.0 132.6 192.3 133.75 192.3 134.95 192.3 136.05 191.0 137.1 189.8 137.45 188.05 M130.0 188.05 Q130.3 186.25 129.75 185.0 129.1 183.8 127.9 183.8 126.75 183.8 125.65 185.0 124.55 186.25 124.25 188.05 123.85 189.8 124.45 191.0 125.15 192.3 126.25 192.3 127.5 192.3 128.55 191.0 129.65 189.8 130.0 188.05 M138.15 141.2 L119.45 141.2 138.15 141.2" fill="#7f7f7f" fill-rule="evenodd" stroke="none"/>
    <path d="M197.5 124.9 L186.5 133.05 181.9 133.05 192.95 124.9 197.5 124.9 M181.65 153.1 L169.0 163.15 163.2 163.15 143.85 163.15 154.05 153.1 175.85 153.1 168.95 158.55 175.85 153.1 181.65 153.1 M131.45 203.0 L126.3 203.0 96.4 203.0 90.45 211.8 87.3 211.8 57.75 211.8 44.65 205.2 41.8 199.9 44.65 205.2 57.75 211.8 87.3 211.8 79.15 220.9 59.95 220.9 37.5 209.0 28.65 192.3 25.9 192.3 18.45 182.55 16.55 167.1 20.4 162.9 23.35 162.9 26.45 162.9 28.75 166.55 32.8 188.8 45.4 188.8 44.0 192.3 37.7 192.3 31.5 192.3 32.8 188.8 31.5 192.3 37.7 192.3 44.0 192.3 45.4 188.8 45.15 187.7 49.6 202.7 57.2 207.6 Q60.95 207.65 58.7 204.65 L52.55 201.0 48.3 186.6 53.85 186.05 58.7 202.7 66.3 207.6 Q70.1 207.65 67.8 204.65 L61.7 201.0 57.1 185.4 Q59.7 184.65 62.2 183.55 L67.8 202.7 75.45 207.65 Q79.2 207.65 76.9 204.65 L70.8 201.0 65.85 184.0 69.8 180.35 69.8 179.1 70.9 178.15 74.0 179.15 70.95 182.25 76.9 202.7 84.55 207.6 Q88.3 207.65 86.05 204.65 L79.9 201.0 74.9 184.0 78.45 180.75 80.75 181.5 84.5 181.5 82.05 193.0 91.7 203.0 99.9 195.4 136.75 195.4 131.45 203.0 M18.05 143.6 L16.25 143.6 26.1 137.1 29.9 137.1 26.1 137.1 36.05 130.65 45.15 130.65 35.25 137.1 31.55 139.55 28.45 141.6 25.35 143.6 21.7 143.6 18.05 143.6 M39.05 68.95 L33.1 62.35 39.2 62.8 43.15 66.05 44.05 62.4 44.75 59.75 35.6 49.6 41.7 50.0 46.3 53.75 47.2 50.1 47.95 47.2 38.45 36.6 44.5 37.0 49.55 41.1 50.45 37.4 59.95 0.0 66.65 3.9 68.35 38.6 Q67.05 39.4 65.7 40.15 L60.65 41.3 60.65 41.45 58.5 41.75 58.0 41.85 52.85 57.95 59.7 71.35 53.95 73.95 44.65 68.95 42.35 68.95 43.15 66.05 42.35 68.95 39.05 68.95 M168.5 124.9 L174.85 124.9 172.75 126.45 170.55 128.1 168.25 129.7 166.1 131.35 163.9 133.05 157.5 133.05 168.5 124.9 M168.0 159.3 L163.2 163.15 168.0 159.3 M95.6 65.05 L104.25 65.05 100.05 71.75 95.8 70.3 94.75 70.3 95.6 65.05 M49.55 41.1 L47.95 47.2 49.55 41.1 M58.5 41.75 L60.65 41.3 58.5 41.75 M46.3 53.75 L44.75 59.75 46.3 53.75 M50.1 152.15 L53.8 152.15 57.95 158.55 53.8 152.15 57.4 152.15 70.45 152.15 70.55 152.35 77.85 164.25 72.35 164.25 65.25 164.25 62.0 164.25 61.55 164.25 58.0 164.25 57.55 163.55 55.6 160.6 50.1 152.15 M40.15 164.75 L42.1 164.75 45.0 164.75 45.65 164.25 49.9 160.65 52.75 160.6 55.05 166.45 53.05 167.9 Q48.1 171.2 42.25 171.35 L41.35 166.55 40.15 164.75 M30.75 137.1 L35.25 137.1 30.75 137.1 M42.95 175.4 Q48.45 175.2 53.25 172.75 L55.75 171.3 56.75 170.65 58.0 173.65 63.6 175.65 Q61.7 176.9 59.65 177.8 L57.45 177.45 55.5 179.45 51.6 180.3 Q52.05 177.45 48.35 177.45 L45.1 180.75 43.9 180.65 42.95 175.4 M28.65 192.3 L31.5 192.3 28.65 192.3 M61.9 159.1 L65.25 164.25 61.9 159.1 M101.15 163.15 L108.7 153.1 115.95 153.1 113.1 156.9 115.95 153.1 138.0 153.1 129.3 163.15 108.45 163.15 101.15 163.15 M61.55 158.55 L57.4 152.15 61.55 158.55 M61.55 164.25 L58.25 159.1 61.55 164.25 M145.75 124.9 L150.25 124.9 141.2 131.55 139.2 133.05 138.4 133.05 134.75 133.05 145.75 124.9 M117.45 124.9 L123.8 124.9 121.7 126.45 119.5 128.1 117.25 129.7 115.1 131.35 112.8 133.05 106.45 133.05 117.45 124.9 M112.65 157.45 L108.45 163.15 112.65 157.45 M91.7 203.0 L96.4 203.0 91.7 203.0 M37.7 192.3 L41.4 199.2 37.7 192.3" fill="#4c4c4c" fill-rule="evenodd" stroke="none"/>
    <path d="M144.75 81.3 L143.45 83.05 137.45 91.25 129.55 85.95 126.7 84.0 120.55 79.9 120.5 79.85 120.45 79.8 116.65 77.25 100.05 71.75 104.25 65.05 103.15 60.85 101.1 59.65 100.0 55.05 101.85 55.05 101.1 52.35 99.35 52.35 98.2 47.75 99.2 47.75 102.45 47.95 Q111.7 54.0 115.3 60.45 L118.3 64.4 120.05 69.45 122.15 76.35 122.5 77.0 120.5 79.85 122.5 77.0 Q130.25 83.85 144.85 81.1 L144.75 81.3 M16.25 143.6 L0.0 128.45 5.45 95.7 8.95 74.7 35.55 68.95 46.85 75.05 41.9 100.6 30.8 99.1 41.9 100.6 36.05 130.65 26.1 137.1 10.9 123.3 12.55 114.05 10.9 123.3 26.1 137.1 16.25 143.6 M41.85 60.8 L44.05 62.4 43.15 66.05 39.2 62.8 41.85 60.8 M44.35 48.0 L47.2 50.1 46.3 53.75 41.7 50.0 44.35 48.0 M47.15 35.0 L50.45 37.4 49.55 41.1 44.5 37.0 47.15 35.0 M72.65 3.9 L77.1 33.4 71.95 36.45 68.35 38.6 71.95 36.45 82.4 38.95 79.3 38.95 89.8 44.8 90.3 47.75 90.35 47.9 90.3 47.75 89.35 47.75 90.3 47.75 92.05 47.75 90.35 47.9 89.7 47.95 90.45 52.35 92.15 52.35 92.45 55.05 91.9 55.15 92.6 59.75 94.65 59.65 95.6 65.05 94.75 70.3 87.1 70.3 85.2 62.75 87.1 70.3 61.95 70.3 83.85 77.25 96.7 85.95 90.45 93.45 96.7 85.95 119.55 101.35 117.45 124.9 106.45 133.05 107.35 141.2 108.7 153.1 101.15 163.15 98.05 181.5 96.05 181.5 84.5 181.5 96.05 181.5 94.3 189.8 82.05 193.0 84.5 181.5 80.75 181.5 78.45 180.75 74.0 179.15 70.9 178.15 Q73.55 175.75 75.4 172.75 77.75 168.7 78.75 163.4 L93.1 150.9 94.85 141.2 95.55 137.6 96.6 132.0 82.6 130.55 81.4 137.6 80.2 143.95 70.55 152.35 70.45 152.15 57.4 152.15 53.8 152.15 50.1 152.15 50.1 139.55 50.1 137.6 50.1 128.3 56.45 125.3 49.3 109.45 46.35 102.75 46.85 100.6 53.05 75.05 53.2 74.35 53.95 73.95 59.7 71.35 61.95 70.3 59.7 71.35 52.85 57.95 58.0 41.85 58.5 41.75 60.65 41.45 60.65 41.3 65.7 40.15 Q67.05 39.4 68.35 38.6 L66.65 3.9 72.65 3.9 M82.1 50.05 L81.55 47.75 88.9 47.75 81.55 47.75 82.1 50.05 M89.35 59.65 L92.6 59.75 89.35 59.65 M85.15 62.45 L84.45 59.65 88.9 59.65 84.45 59.65 85.15 62.45 M89.35 52.35 L90.45 52.35 89.35 52.35 M83.95 57.45 L83.35 55.05 82.65 52.35 88.9 52.35 82.65 52.35 83.35 55.05 88.9 55.05 83.35 55.05 83.95 57.45 M82.65 52.35 L82.15 50.3 82.65 52.35 M89.35 55.05 L92.45 55.05 89.35 55.05 M89.8 94.15 L79.15 106.95 46.35 102.75 79.15 106.95 89.8 94.15 M79.3 38.95 L71.85 40.0 58.1 41.85 58.5 41.75 58.1 41.85 71.85 40.0 79.3 38.95 M78.05 55.7 Q78.05 50.55 75.2 46.85 L73.15 44.8 Q71.05 43.25 68.6 43.15 L68.3 43.15 Q64.2 43.15 61.35 46.85 58.55 50.55 58.55 55.7 58.55 59.95 60.35 63.15 L61.35 64.6 Q64.2 68.3 68.3 68.3 72.3 68.3 75.2 64.6 78.05 60.95 78.05 55.7 M81.55 47.75 L80.55 43.8 71.85 40.0 80.55 43.8 81.55 47.75 M29.9 99.0 L15.55 97.15 5.45 95.7 15.55 97.15 29.9 99.0 M79.15 106.95 L79.15 113.3 79.15 106.95 M57.4 137.6 L53.8 137.6 50.1 137.6 53.8 137.6 57.4 137.6 64.15 137.6 57.4 137.6 57.4 145.25 57.4 137.6 M79.15 114.05 L79.15 130.15 57.6 127.95 56.45 125.3 57.6 127.95 79.15 130.15 79.15 114.05 M53.8 145.25 L53.8 137.6 53.8 145.25 M53.8 145.6 L53.8 152.15 53.8 145.6 M28.75 166.55 L41.35 166.55 42.25 171.35 39.2 171.25 38.45 170.3 Q37.2 169.2 35.85 169.2 34.45 169.2 33.65 170.3 32.9 171.35 33.0 172.75 L33.1 173.05 Q33.35 174.6 34.45 175.75 35.65 176.9 37.1 176.9 38.5 176.9 39.3 175.75 L39.6 175.3 42.95 175.4 43.9 180.65 41.7 180.35 41.05 179.65 Q39.6 178.3 37.95 178.3 36.3 178.3 35.3 179.65 34.35 181.0 34.6 182.9 34.95 184.75 36.4 186.1 37.75 187.5 39.45 187.5 41.05 187.5 41.95 186.2 L44.85 186.5 45.0 186.55 45.15 187.7 45.4 188.8 32.8 188.8 28.75 166.55 M56.75 170.65 Q60.25 168.15 62.0 164.25 L65.25 164.25 72.35 164.25 Q70.75 169.3 67.25 172.75 65.65 174.35 63.6 175.6 L63.6 175.65 58.0 173.65 56.75 170.65 M57.55 163.55 Q56.5 165.1 55.05 166.45 L52.75 160.6 55.6 160.6 57.55 163.55 M65.05 137.6 L81.4 137.6 65.05 137.6 M57.4 145.6 L57.4 152.15 57.4 145.6 M97.35 141.2 L107.35 141.2 97.35 141.2 M79.15 130.15 L82.6 130.55 79.15 130.15 M96.4 141.2 L94.85 141.2 96.4 141.2 M96.6 132.0 L106.45 133.05 96.6 132.0 M15.55 97.15 L12.7 113.55 15.55 97.15" fill="#666666" fill-rule="evenodd" stroke="none"/>
    <path d="M163.85 77.25 L147.7 77.25 Q149.2 75.65 149.0 72.65 L149.0 72.5 163.85 77.25 M100.05 71.75 L116.65 77.25 83.85 77.25 61.95 70.3 87.1 70.3 94.75 70.3 95.8 70.3 100.05 71.75" fill="#b2b2b2" fill-rule="evenodd" stroke="none"/>
    <path d="M176.7 85.95 L170.45 85.95 176.7 85.95 199.5 101.3 199.5 101.35 170.6 101.35 147.75 85.95 143.45 83.05 144.75 81.3 144.95 81.05 144.95 81.0 147.7 77.25 163.85 77.25 176.7 85.95 M169.3 85.95 L147.75 85.95 169.3 85.95 M35.55 68.95 L39.05 68.95 42.35 68.95 44.65 68.95 53.95 73.95 53.2 74.35 53.05 75.05 46.85 75.05 35.55 68.95 M82.4 38.95 L85.5 38.95 99.35 45.0 89.8 44.8 79.3 38.95 82.4 38.95 M116.65 77.25 L120.45 79.8 120.5 79.85 120.55 79.9 126.7 84.0 129.55 85.95 137.45 91.25 141.15 93.7 152.35 101.35 119.55 101.35 96.7 85.95 83.85 77.25 116.65 77.25 M129.55 85.95 L123.25 85.95 129.55 85.95 M122.15 85.95 L96.7 85.95 122.15 85.95" fill="#a5a5a5" fill-rule="evenodd" stroke="none"/>
    <path d="M143.45 83.05 L147.75 85.95 144.8 89.45 147.75 85.95 170.6 101.35 168.5 124.9 157.5 133.05 156.1 141.2 151.65 141.2 156.1 141.2 154.05 153.1 143.85 163.15 163.2 163.15 169.0 163.15 156.4 181.5 150.6 181.5 145.25 181.5 135.65 181.5 123.75 181.5 105.35 181.5 98.05 181.5 101.15 163.15 108.45 163.15 107.35 169.5 108.45 163.15 129.3 163.15 138.0 153.1 138.1 147.1 138.15 141.2 138.4 133.05 139.2 133.05 141.2 131.55 157.5 133.05 141.2 131.55 150.25 124.9 152.35 101.35 141.15 93.7 137.45 91.25 143.45 83.05 M190.75 106.75 L194.55 106.75 192.95 124.8 192.95 124.9 181.9 133.05 181.0 133.05 180.3 131.35 183.15 131.35 182.5 129.7 185.45 129.7 184.65 128.1 187.65 128.1 186.85 126.45 189.8 126.45 189.15 124.8 192.0 124.8 189.4 121.2 192.35 121.2 189.75 117.6 192.65 117.6 190.1 114.0 193.0 114.0 190.35 110.4 193.35 110.4 190.75 106.75 M144.35 90.0 L141.15 93.7 144.35 90.0 M78.75 163.4 L77.85 164.25 70.55 152.35 80.2 143.95 93.1 150.9 78.75 163.4 M143.45 106.75 L147.35 106.75 145.75 124.8 145.75 124.9 134.75 133.05 133.8 133.05 133.1 131.35 136.0 131.35 135.3 129.7 138.15 129.7 137.5 128.1 140.45 128.1 139.7 126.45 142.65 126.45 141.9 124.8 144.8 124.8 142.25 121.2 145.1 121.2 142.55 117.6 145.45 117.6 142.85 114.0 145.75 114.0 143.2 110.4 146.1 110.4 143.45 106.75 M150.9 141.2 L148.95 141.2 143.65 147.1 138.1 147.1 143.65 147.1 148.95 141.2 150.9 141.2 M82.05 193.0 L94.3 189.8 99.9 195.4 91.7 203.0 82.05 193.0 M107.3 170.05 L105.35 181.5 107.3 170.05 M158.8 169.5 L150.6 181.5 158.8 169.5 M143.85 163.15 L135.65 181.5 143.85 163.15 M129.3 163.15 L123.75 181.5 129.3 163.15 M163.2 163.15 L159.05 169.15 163.2 163.15" fill="#595959" fill-rule="evenodd" stroke="none"/>
    <path d="M126.3 203.0 L118.1 211.8 110.15 211.8 101.35 220.9 79.15 220.9 87.3 211.8 90.45 211.8 96.4 203.0 126.3 203.0 M174.9 124.8 L175.2 121.2 175.5 117.6 175.9 114.0 176.2 110.4 176.5 106.75 190.75 106.75 193.35 110.4 190.35 110.4 182.45 110.4 190.35 110.4 193.0 114.0 190.1 114.0 182.45 114.0 190.1 114.0 192.65 117.6 189.75 117.6 192.35 121.2 189.4 121.2 182.45 121.2 189.4 121.2 192.0 124.8 189.15 124.8 174.9 124.8 M182.45 117.6 L189.75 117.6 182.45 117.6 M182.0 110.4 L176.2 110.4 182.0 110.4 M182.0 114.0 L175.9 114.0 182.0 114.0 M182.0 117.6 L175.5 117.6 182.0 117.6 M182.0 121.2 L175.2 121.2 182.0 121.2 M39.2 171.25 L42.25 171.35 Q48.1 171.2 53.05 167.9 L55.05 166.45 Q56.5 165.1 57.55 163.55 L58.0 164.25 61.55 164.25 62.0 164.25 Q60.25 168.15 56.75 170.65 L55.75 171.3 53.25 172.75 Q48.45 175.2 42.95 175.4 L39.6 175.3 36.3 174.8 Q35.0 173.6 34.85 172.75 34.7 171.6 36.45 170.85 L39.2 171.25 M41.7 180.35 L43.9 180.65 45.1 180.75 51.6 180.3 55.5 179.45 Q57.65 178.8 59.65 177.8 61.7 176.9 63.6 175.65 L63.6 175.6 Q65.65 174.35 67.25 172.75 70.75 169.3 72.35 164.25 L77.85 164.25 78.75 163.4 Q77.75 168.7 75.4 172.75 73.55 175.75 70.9 178.15 L69.8 179.1 67.6 180.65 Q64.95 182.3 62.2 183.55 59.7 184.65 57.1 185.4 L53.85 186.05 48.3 186.6 45.0 186.55 44.85 186.5 41.95 186.2 39.0 185.65 Q34.7 181.8 39.25 179.9 L41.7 180.35 M123.85 124.8 L124.2 121.2 124.45 117.6 124.85 114.0 125.2 110.4 125.45 106.75 143.45 106.75 146.1 110.4 143.2 110.4 145.75 114.0 142.85 114.0 145.45 117.6 142.55 117.6 145.1 121.2 142.25 121.2 144.8 124.8 141.9 124.8 123.85 124.8 M130.45 110.4 L125.2 110.4 130.45 110.4 M130.45 114.0 L124.85 114.0 130.45 114.0 M130.45 121.2 L124.2 121.2 130.45 121.2 M130.45 117.6 L124.45 117.6 130.45 117.6 M142.55 117.6 L131.05 117.6 142.55 117.6 M142.85 114.0 L131.05 114.0 142.85 114.0 M143.2 110.4 L131.05 110.4 143.2 110.4 M142.25 121.2 L131.05 121.2 142.25 121.2 M110.15 211.8 L90.45 211.8 110.15 211.8" fill="#3f3f3f" fill-rule="evenodd" stroke="none"/>
    <path d="M23.35 162.9 L18.05 143.6 21.7 143.6 25.35 143.6 28.45 141.6 31.55 139.55 35.25 137.1 45.15 130.65 49.3 109.45 56.45 125.3 50.1 128.3 50.1 137.6 50.1 139.55 50.1 152.15 55.6 160.6 52.75 160.6 49.9 160.65 45.65 164.25 45.0 164.75 42.1 164.75 40.15 164.75 39.05 162.9 37.9 162.9 31.55 139.55 37.9 162.9 34.25 162.9 30.65 162.9 26.95 162.9 26.45 162.9 23.35 162.9 M174.85 124.9 L174.9 124.8 189.15 124.8 189.8 126.45 186.85 126.45 187.65 128.1 184.65 128.1 185.45 129.7 182.5 129.7 183.15 131.35 180.3 131.35 181.0 133.05 163.9 133.05 166.1 131.35 168.25 129.7 170.55 128.1 172.75 126.45 174.85 124.9 M177.45 126.45 L172.75 126.45 177.45 126.45 M180.3 131.35 L177.75 131.35 180.3 131.35 M177.45 128.1 L170.55 128.1 177.45 128.1 M177.45 131.35 L166.1 131.35 177.45 131.35 M177.45 129.7 L168.25 129.7 177.45 129.7 M186.85 126.45 L177.75 126.45 186.85 126.45 M184.65 128.1 L177.75 128.1 184.65 128.1 M182.5 129.7 L177.75 129.7 182.5 129.7 M50.1 139.55 L38.8 139.55 35.2 139.55 31.55 139.55 35.2 139.55 38.8 139.55 50.1 139.55 M35.2 139.55 L42.1 164.75 35.2 139.55 M21.7 143.6 L26.95 162.9 21.7 143.6 M28.45 141.6 L34.25 162.9 28.45 141.6 M25.35 143.6 L30.65 162.9 25.35 143.6 M45.0 186.55 L48.3 186.6 52.55 201.0 58.7 204.65 Q60.95 207.65 57.2 207.6 L49.6 202.7 45.15 187.7 45.0 186.55 M53.85 186.05 L57.1 185.4 61.7 201.0 67.8 204.65 Q70.1 207.65 66.3 207.6 L58.7 202.7 53.85 186.05 M62.2 183.55 Q64.95 182.3 67.6 180.65 L69.8 179.1 69.8 180.35 65.85 184.0 70.8 201.0 76.9 204.65 Q79.2 207.65 75.45 207.65 L67.8 202.7 62.2 183.55 M59.65 177.8 Q57.65 178.8 55.5 179.45 L57.45 177.45 59.65 177.8 M51.6 180.3 L45.1 180.75 48.35 177.45 Q52.05 177.45 51.6 180.3 M38.8 139.55 L45.65 164.25 38.8 139.55 M74.0 179.15 L78.45 180.75 74.9 184.0 79.9 201.0 86.05 204.65 Q88.3 207.65 84.55 207.6 L76.9 202.7 70.95 182.25 74.0 179.15 M123.8 124.9 L123.85 124.8 141.9 124.8 142.65 126.45 139.7 126.45 140.45 128.1 137.5 128.1 138.15 129.7 135.3 129.7 136.0 131.35 133.1 131.35 133.8 133.05 112.8 133.05 115.1 131.35 117.25 129.7 119.5 128.1 121.7 126.45 123.8 124.9 M129.35 126.45 L121.7 126.45 129.35 126.45 M135.3 129.7 L129.7 129.7 135.3 129.7 M139.7 126.45 L129.7 126.45 139.7 126.45 M137.5 128.1 L129.7 128.1 137.5 128.1 M133.1 131.35 L129.7 131.35 133.1 131.35 M129.35 128.1 L119.5 128.1 129.35 128.1 M129.35 131.35 L115.1 131.35 129.35 131.35 M129.35 129.7 L117.25 129.7 129.35 129.7" fill="#333333" fill-rule="evenodd" stroke="none"/>
    <path d="M89.8 44.8 L99.35 45.0 100.0 47.75 99.2 47.75 98.2 47.75 90.85 47.9 90.35 47.95 89.7 47.95 90.35 47.9 90.35 47.95 90.35 47.9 92.05 47.75 90.85 47.9 92.05 47.75 90.3 47.75 89.8 44.8 M101.1 59.65 L103.15 60.85 104.25 65.05 95.6 65.05 94.65 59.65 101.1 59.65 M99.35 52.35 L101.1 52.35 101.85 55.05 100.0 55.05 91.9 55.15 92.45 55.05 92.15 52.35 99.35 52.35" fill="#8c8c8c" fill-rule="evenodd" stroke="none"/>
    <path d="M53.05 75.05 L46.85 100.6 46.35 102.75 49.3 109.45 45.15 130.65 36.05 130.65 41.9 100.6 46.85 75.05 53.05 75.05 M43.35 100.6 L41.9 100.6 43.35 100.6 M46.85 100.6 L44.0 100.6 46.85 100.6 M80.2 143.95 L81.4 137.6 88.2 137.6 81.4 137.6 82.6 130.55 96.6 132.0 95.55 137.6 94.85 141.2 93.1 150.9 80.2 143.95 M89.15 137.6 L95.55 137.6 89.15 137.6" fill="#727272" fill-rule="evenodd" stroke="none"/>
    <path d="M119.45 36.55 L124.15 38.75 Q134.95 42.7 140.85 48.65 129.9 46.75 115.3 60.45 111.7 54.0 102.45 47.95 103.7 35.75 119.45 36.55" fill="url(#gradient0)" fill-rule="evenodd" stroke="none"/>
    <path d="M77.1 33.4 L78.2 32.75 Q84.25 30.5 94.45 32.75 L119.45 36.55 Q103.7 35.75 102.45 47.95 L99.2 47.75 100.0 47.75 99.35 45.0 85.5 38.95 82.4 38.95 71.95 36.45 77.1 33.4" fill="url(#gradient1)" fill-rule="evenodd" stroke="none"/>
    <path d="M89.7 47.95 L90.35 47.95 90.85 47.9 98.2 47.75 99.35 52.35 92.15 52.35 90.45 52.35 89.7 47.95" fill="url(#gradient2)" fill-rule="evenodd" stroke="none"/>
    <path d="M140.85 48.65 L143.7 51.85 Q133.1 50.3 118.3 64.4 L115.3 60.45 Q129.9 46.75 140.85 48.65 M115.3 60.45 L115.8 60.6 115.3 60.45" fill="url(#gradient3)" fill-rule="evenodd" stroke="none"/>
    <path d="M143.7 51.85 L143.85 52.05 145.05 54.0 Q146.5 56.55 147.35 59.35 L149.0 72.4 149.0 72.5 149.0 72.65 145.05 73.85 Q131.35 77.15 120.05 69.45 L118.3 64.4 Q133.1 50.3 143.7 51.85" fill="url(#gradient4)" fill-rule="evenodd" stroke="none"/>
    <path d="M101.1 59.65 L94.65 59.65 92.6 59.75 91.9 55.15 100.0 55.05 101.1 59.65" fill="url(#gradient5)" fill-rule="evenodd" stroke="none"/>
    <path d="M147.7 77.25 L144.95 81.0 144.95 81.05 144.85 81.1 Q130.25 83.85 122.5 77.0 L122.15 76.35 120.05 69.45 Q131.35 77.15 145.05 73.85 L149.0 72.65 Q149.2 75.65 147.7 77.25" fill="url(#gradient6)" fill-rule="evenodd" stroke="none"/>
    <path d="M71.7 55.7 Q71.7 52.55 69.9 50.3 68.2 48.05 65.7 48.05 L65.15 48.1 Q63.05 48.3 61.55 50.3 59.75 52.55 59.75 55.7 59.75 58.6 61.2 60.65 L61.55 61.15 Q63.3 63.4 65.7 63.4 68.2 63.4 69.9 61.15 71.7 58.9 71.7 55.7 M78.05 55.7 Q78.05 60.95 75.2 64.6 72.3 68.3 68.3 68.3 64.2 68.3 61.35 64.6 L60.35 63.15 Q58.55 59.95 58.55 55.7 58.55 50.55 61.35 46.85 64.2 43.15 68.3 43.15 L68.6 43.15 Q71.05 43.25 73.15 44.8 L75.2 46.85 Q78.05 50.55 78.05 55.7" fill="url(#gradient7)" fill-rule="evenodd" stroke="none"/>
    <path d="M71.7 55.7 Q71.7 58.9 69.9 61.15 68.2 63.4 65.7 63.4 63.3 63.4 61.55 61.15 L61.2 60.65 Q59.75 58.6 59.75 55.7 59.75 52.55 61.55 50.3 63.05 48.3 65.15 48.1 L65.7 48.05 Q68.2 48.05 69.9 50.3 71.7 52.55 71.7 55.7" fill="url(#gradient8)" fill-rule="evenodd" stroke="none"/>
    <path d="M39.6 175.3 L39.3 175.75 Q38.5 176.9 37.1 176.9 35.65 176.9 34.45 175.75 33.35 174.6 33.1 173.05 L33.0 172.75 Q32.9 171.35 33.65 170.3 34.45 169.2 35.85 169.2 37.2 169.2 38.45 170.3 L39.2 171.25 36.45 170.85 Q34.7 171.6 34.85 172.75 35.0 173.6 36.3 174.8 L39.6 175.3" fill="url(#gradient9)" fill-rule="evenodd" stroke="none"/>
    <path d="M41.95 186.2 Q41.05 187.5 39.45 187.5 37.75 187.5 36.4 186.1 34.95 184.75 34.6 182.9 34.35 181.0 35.3 179.65 36.3 178.3 37.95 178.3 39.6 178.3 41.05 179.65 L41.7 180.35 39.25 179.9 Q34.7 181.8 39.0 185.65 L41.95 186.2" fill="url(#gradient10)" fill-rule="evenodd" stroke="none"/>
    <path d="M122.55 188.05 Q122.2 189.8 121.1 191.0 120.0 192.3 118.8 192.3 117.6 192.3 117.0 191.0 116.4 189.8 116.8 188.05 117.15 186.25 118.2 185.0 119.3 183.8 120.45 183.8 121.65 183.8 122.25 185.0 122.85 186.25 122.55 188.05" fill="url(#gradient11)" fill-rule="evenodd" stroke="none"/>
    <path d="M115.1 188.05 Q114.7 189.8 113.65 191.0 112.55 192.3 111.35 192.3 110.15 192.3 109.55 191.0 108.95 189.8 109.3 188.05 109.6 186.25 110.65 185.0 111.85 183.8 113.0 183.8 114.15 183.8 114.8 185.0 115.35 186.25 115.1 188.05" fill="url(#gradient12)" fill-rule="evenodd" stroke="none"/>
    <path d="M107.65 188.05 Q107.25 189.8 106.15 191.0 105.1 192.3 103.85 192.3 102.65 192.3 102.05 191.0 101.5 189.8 101.85 188.05 102.15 186.25 103.2 185.0 104.3 183.8 105.55 183.8 106.75 183.8 107.3 185.0 107.9 186.25 107.65 188.05" fill="url(#gradient13)" fill-rule="evenodd" stroke="none"/>
    <path d="M137.45 188.05 Q137.1 189.8 136.05 191.0 134.95 192.3 133.75 192.3 132.6 192.3 132.0 191.0 131.3 189.8 131.7 188.05 132.05 186.25 133.15 185.0 134.25 183.8 135.4 183.8 136.55 183.8 137.25 185.0 137.8 186.25 137.45 188.05" fill="url(#gradient14)" fill-rule="evenodd" stroke="none"/>
    <path d="M130.0 188.05 Q129.65 189.8 128.55 191.0 127.5 192.3 126.25 192.3 125.15 192.3 124.45 191.0 123.85 189.8 124.25 188.05 124.55 186.25 125.65 185.0 126.75 183.8 127.9 183.8 129.1 183.8 129.75 185.0 130.3 186.25 130.0 188.05" fill="url(#gradient15)" fill-rule="evenodd" stroke="none"/>
    <path d="M170.45 85.95 L176.7 85.95 163.85 77.25 147.7 77.25 144.95 81.0 144.95 81.05 M144.75 81.3 L143.45 83.05 147.75 85.95 169.3 85.95 M199.5 102.1 L197.5 124.9 186.5 133.05 184.5 141.2 181.65 153.1 169.0 163.15 156.4 181.5 150.6 181.5 145.25 181.5 142.75 189.8 131.45 203.0 126.3 203.0 118.1 211.8 110.15 211.8 101.35 220.9 79.15 220.9 59.95 220.9 37.5 209.0 28.65 192.3 25.9 192.3 18.45 182.55 16.55 167.1 20.4 162.9 23.35 162.9 18.05 143.6 16.25 143.6 0.0 128.45 5.45 95.7 8.95 74.7 35.55 68.95 39.05 68.95 33.1 62.35 35.6 60.4 41.85 60.8 44.05 62.4 44.75 59.75 35.6 49.6 38.15 47.6 44.35 48.0 47.2 50.1 47.95 47.2 38.45 36.6 40.95 34.6 47.15 35.0 50.45 37.4 59.95 0.0 65.7 0.0 72.65 3.9 77.1 33.4 78.2 32.75 Q84.25 30.5 94.45 32.75 L119.45 36.55 124.15 38.75 Q134.95 42.7 140.85 48.65 L143.7 51.85 143.85 52.05 145.05 54.0 Q146.5 56.55 147.35 59.35 L149.0 72.4 149.0 72.5 163.85 77.25 M199.5 101.35 L170.6 101.35 168.5 124.9 174.85 124.9 174.9 124.8 175.2 121.2 175.5 117.6 175.9 114.0 176.2 110.4 176.5 106.75 190.75 106.75 194.55 106.75 192.95 124.8 192.95 124.9 197.5 124.9 M182.45 110.4 L190.35 110.4 193.35 110.4 190.75 106.75 M189.4 121.2 L192.35 121.2 189.75 117.6 182.45 117.6 M182.45 121.2 L189.4 121.2 192.0 124.8 189.15 124.8 189.8 126.45 186.85 126.45 187.65 128.1 184.65 128.1 185.45 129.7 182.5 129.7 183.15 131.35 180.3 131.35 181.0 133.05 181.9 133.05 192.95 124.9 M182.45 114.0 L190.1 114.0 193.0 114.0 190.35 110.4 M189.75 117.6 L192.65 117.6 190.1 114.0 M175.2 121.2 L182.0 121.2 M175.5 117.6 L182.0 117.6 M175.9 114.0 L182.0 114.0 M176.2 110.4 L182.0 110.4 M172.75 126.45 L177.45 126.45 M174.85 124.9 L172.75 126.45 170.55 128.1 177.45 128.1 M177.75 131.35 L180.3 131.35 M166.1 131.35 L163.9 133.05 181.0 133.05 M168.25 129.7 L166.1 131.35 177.45 131.35 M170.55 128.1 L168.25 129.7 177.45 129.7 M156.1 141.2 L178.15 141.2 181.0 141.2 M176.7 148.35 L178.15 141.2 M181.4 141.2 L184.5 141.2 M177.75 126.45 L186.85 126.45 M174.9 124.8 L189.15 124.8 M177.75 129.7 L182.5 129.7 M177.75 128.1 L184.65 128.1 M186.5 133.05 L181.9 133.05 M168.95 158.55 L175.85 153.1 154.05 153.1 143.85 163.15 163.2 163.15 168.0 159.3 M163.2 163.15 L169.0 163.15 M175.85 153.1 L176.65 148.65 M175.85 153.1 L181.65 153.1 M176.7 85.95 L199.5 101.3 M99.35 45.0 L85.5 38.95 82.4 38.95 79.3 38.95 89.8 44.8 99.35 45.0 100.0 47.75 99.2 47.75 M102.45 47.95 Q103.7 35.75 119.45 36.55 M90.35 47.9 L90.3 47.75 89.35 47.75 M90.35 47.95 L90.35 47.9 89.7 47.95 90.35 47.95 90.85 47.9 92.05 47.75 90.35 47.9 M90.3 47.75 L89.8 44.8 M88.9 47.75 L81.55 47.75 82.1 50.05 M98.2 47.75 L99.2 47.75 M92.05 47.75 L90.3 47.75 M98.2 47.75 L90.85 47.9 M115.8 60.6 L115.3 60.45 118.3 64.4 Q133.1 50.3 143.7 51.85 M118.3 64.4 L120.05 69.45 Q131.35 77.15 145.05 73.85 L149.0 72.65 149.0 72.5 M104.25 65.05 L103.15 60.85 101.1 59.65 94.65 59.65 95.6 65.05 104.25 65.05 100.05 71.75 116.65 77.25 120.45 79.8 M120.5 79.85 L122.5 77.0 122.15 76.35 120.05 69.45 M100.0 55.05 L101.85 55.05 101.1 52.35 99.35 52.35 92.15 52.35 92.45 55.05 91.9 55.15 100.0 55.05 101.1 59.65 M94.65 59.65 L92.6 59.75 89.35 59.65 M92.6 59.75 L91.9 55.15 M88.9 52.35 L82.65 52.35 83.35 55.05 88.9 55.05 M82.15 50.3 L82.65 52.35 M83.35 55.05 L83.95 57.45 M90.45 52.35 L89.35 52.35 M88.9 59.65 L84.45 59.65 85.15 62.45 M85.2 62.75 L87.1 70.3 94.75 70.3 95.6 65.05 M94.75 70.3 L95.8 70.3 100.05 71.75 M92.15 52.35 L90.45 52.35 89.7 47.95 M92.45 55.05 L89.35 55.05 M90.45 93.45 L96.7 85.95 83.85 77.25 61.95 70.3 59.7 71.35 53.95 73.95 53.2 74.35 53.05 75.05 46.85 100.6 46.35 102.75 79.15 106.95 89.8 94.15 M126.7 84.0 L129.55 85.95 137.45 91.25 143.45 83.05 M83.85 77.25 L116.65 77.25 M123.25 85.95 L129.55 85.95 M137.45 91.25 L141.15 93.7 144.35 90.0 M144.8 89.45 L147.75 85.95 170.6 101.35 M144.75 81.3 L144.85 81.1 Q130.25 83.85 122.5 77.0 M144.85 81.1 L144.95 81.05 M147.7 77.25 Q149.2 75.65 149.0 72.65 M99.35 52.35 L98.2 47.75 M96.7 85.95 L122.15 85.95 M115.3 60.45 Q129.9 46.75 140.85 48.65 M115.3 60.45 Q111.7 54.0 102.45 47.95 M72.65 3.9 L66.65 3.9 68.35 38.6 71.95 36.45 77.1 33.4 M47.15 35.0 L44.5 37.0 49.55 41.1 50.45 37.4 M47.95 47.2 L49.55 41.1 M58.5 41.75 L58.1 41.85 71.85 40.0 79.3 38.95 M58.0 41.85 L52.85 57.95 59.7 71.35 M60.65 41.3 L58.5 41.75 M68.35 38.6 Q67.05 39.4 65.7 40.15 L60.65 41.3 M71.7 55.7 Q71.7 58.9 69.9 61.15 68.2 63.4 65.7 63.4 63.3 63.4 61.55 61.15 L61.2 60.65 Q59.75 58.6 59.75 55.7 59.75 52.55 61.55 50.3 63.05 48.3 65.15 48.1 L65.7 48.05 Q68.2 48.05 69.9 50.3 71.7 52.55 71.7 55.7 M78.05 55.7 Q78.05 60.95 75.2 64.6 72.3 68.3 68.3 68.3 64.2 68.3 61.35 64.6 L60.35 63.15 Q58.55 59.95 58.55 55.7 58.55 50.55 61.35 46.85 64.2 43.15 68.3 43.15 L68.6 43.15 Q71.05 43.25 73.15 44.8 L75.2 46.85 Q78.05 50.55 78.05 55.7 M71.85 40.0 L80.55 43.8 81.55 47.75 M59.95 0.0 L66.65 3.9 M33.1 62.35 L39.2 62.8 41.85 60.8 M5.45 95.7 L15.55 97.15 29.9 99.0 M41.7 50.0 L46.3 53.75 47.2 50.1 M44.75 59.75 L46.3 53.75 M39.2 62.8 L43.15 66.05 44.05 62.4 M42.35 68.95 L44.65 68.95 53.95 73.95 M42.35 68.95 L43.15 66.05 M46.85 75.05 L53.05 75.05 M38.45 36.6 L44.5 37.0 M44.35 48.0 L41.7 50.0 35.6 49.6 M39.05 68.95 L42.35 68.95 M35.55 68.95 L46.85 75.05 41.9 100.6 43.35 100.6 M79.15 113.3 L79.15 106.95 M44.0 100.6 L46.85 100.6 M46.35 102.75 L49.3 109.45 56.45 125.3 57.6 127.95 79.15 130.15 79.15 114.05 M64.15 137.6 L57.4 137.6 57.4 145.25 M50.1 137.6 L53.8 137.6 57.4 137.6 M56.45 125.3 L50.1 128.3 50.1 137.6 50.1 139.55 50.1 152.15 53.8 152.15 53.8 145.6 M53.8 137.6 L53.8 145.25 M49.3 109.45 L45.15 130.65 35.25 137.1 31.55 139.55 35.2 139.55 38.8 139.55 50.1 139.55 M26.1 137.1 L10.9 123.3 12.55 114.05 M18.05 143.6 L21.7 143.6 25.35 143.6 28.45 141.6 31.55 139.55 37.9 162.9 39.05 162.9 40.15 164.75 42.1 164.75 35.2 139.55 M29.9 137.1 L26.1 137.1 16.25 143.6 M35.25 137.1 L30.75 137.1 M36.05 130.65 L26.1 137.1 M23.35 162.9 L26.45 162.9 26.95 162.9 21.7 143.6 M26.45 162.9 L28.75 166.55 41.35 166.55 40.15 164.75 M30.65 162.9 L34.25 162.9 28.45 141.6 M39.6 175.3 L39.3 175.75 Q38.5 176.9 37.1 176.9 35.65 176.9 34.45 175.75 33.35 174.6 33.1 173.05 L33.0 172.75 Q32.9 171.35 33.65 170.3 34.45 169.2 35.85 169.2 37.2 169.2 38.45 170.3 L39.2 171.25 42.25 171.35 41.35 166.55 M39.2 171.25 L36.45 170.85 Q34.7 171.6 34.85 172.75 35.0 173.6 36.3 174.8 L39.6 175.3 42.95 175.4 Q48.45 175.2 53.25 172.75 L55.75 171.3 56.75 170.65 Q60.25 168.15 62.0 164.25 L61.55 164.25 58.0 164.25 57.55 163.55 Q56.5 165.1 55.05 166.45 L53.05 167.9 Q48.1 171.2 42.25 171.35 M34.25 162.9 L37.9 162.9 M26.95 162.9 L30.65 162.9 25.35 143.6 M41.95 186.2 Q41.05 187.5 39.45 187.5 37.75 187.5 36.4 186.1 34.95 184.75 34.6 182.9 34.35 181.0 35.3 179.65 36.3 178.3 37.95 178.3 39.6 178.3 41.05 179.65 L41.7 180.35 43.9 180.65 42.95 175.4 M32.8 188.8 L31.5 192.3 37.7 192.3 44.0 192.3 45.4 188.8 32.8 188.8 28.75 166.55 M31.5 192.3 L28.65 192.3 M41.7 180.35 L39.25 179.9 Q34.7 181.8 39.0 185.65 L41.95 186.2 44.85 186.5 45.0 186.55 48.3 186.6 53.85 186.05 57.1 185.4 Q59.7 184.65 62.2 183.55 64.95 182.3 67.6 180.65 L69.8 179.1 70.9 178.15 Q73.55 175.75 75.4 172.75 77.75 168.7 78.75 163.4 L77.85 164.25 72.35 164.25 Q70.75 169.3 67.25 172.75 65.65 174.35 63.6 175.6 L63.6 175.65 Q61.7 176.9 59.65 177.8 57.65 178.8 55.5 179.45 L51.6 180.3 45.1 180.75 43.9 180.65 M57.4 152.15 L70.45 152.15 70.55 152.35 80.2 143.95 81.4 137.6 65.05 137.6 M62.0 164.25 L65.25 164.25 61.9 159.1 M70.55 152.35 L77.85 164.25 M65.25 164.25 L72.35 164.25 M52.75 160.6 L55.6 160.6 50.1 152.15 M53.8 152.15 L57.95 158.55 M53.8 152.15 L57.4 152.15 57.4 145.6 M42.1 164.75 L45.0 164.75 45.65 164.25 38.8 139.55 M45.65 164.25 L49.9 160.65 52.75 160.6 55.05 166.45 M55.6 160.6 L57.55 163.55 M59.65 177.8 L57.45 177.45 55.5 179.45 M51.6 180.3 Q52.05 177.45 48.35 177.45 L45.1 180.75 M45.15 187.7 L45.4 188.8 M45.0 186.55 L45.15 187.7 49.6 202.7 57.2 207.6 Q60.95 207.65 58.7 204.65 L52.55 201.0 48.3 186.6 M74.0 179.15 L70.9 178.15 M78.45 180.75 L74.0 179.15 70.95 182.25 76.9 202.7 84.55 207.6 Q88.3 207.65 86.05 204.65 L79.9 201.0 74.9 184.0 78.45 180.75 80.75 181.5 84.5 181.5 96.05 181.5 98.05 181.5 101.15 163.15 108.7 153.1 107.35 141.2 97.35 141.2 M62.2 183.55 L67.8 202.7 75.45 207.65 Q79.2 207.65 76.9 204.65 L70.8 201.0 65.85 184.0 69.8 180.35 69.8 179.1 M57.4 152.15 L61.55 158.55 M63.6 175.65 L58.0 173.65 56.75 170.65 M58.25 159.1 L61.55 164.25 M30.8 99.1 L41.9 100.6 36.05 130.65 45.15 130.65 M143.45 106.75 L147.35 106.75 145.75 124.8 145.75 124.9 150.25 124.9 152.35 101.35 119.55 101.35 117.45 124.9 123.8 124.9 123.85 124.8 124.2 121.2 124.45 117.6 124.85 114.0 125.2 110.4 125.45 106.75 143.45 106.75 146.1 110.4 143.2 110.4 145.75 114.0 142.85 114.0 145.45 117.6 142.55 117.6 145.1 121.2 142.25 121.2 144.8 124.8 141.9 124.8 142.65 126.45 139.7 126.45 140.45 128.1 137.5 128.1 138.15 129.7 135.3 129.7 136.0 131.35 133.1 131.35 133.8 133.05 134.75 133.05 145.75 124.9 M124.45 117.6 L130.45 117.6 M124.2 121.2 L130.45 121.2 M124.85 114.0 L130.45 114.0 M125.2 110.4 L130.45 110.4 M141.2 131.55 L139.2 133.05 138.4 133.05 138.15 141.2 138.1 147.1 143.65 147.1 148.95 141.2 150.9 141.2 M134.75 133.05 L138.4 133.05 M121.7 126.45 L129.35 126.45 M123.8 124.9 L121.7 126.45 119.5 128.1 129.35 128.1 M129.7 131.35 L133.1 131.35 M129.7 128.1 L137.5 128.1 M129.7 126.45 L139.7 126.45 M129.7 129.7 L135.3 129.7 M151.65 141.2 L156.1 141.2 157.5 133.05 141.2 131.55 150.25 124.9 M123.85 124.8 L141.9 124.8 M131.05 121.2 L142.25 121.2 M131.05 110.4 L143.2 110.4 M131.05 114.0 L142.85 114.0 M131.05 117.6 L142.55 117.6 M81.4 137.6 L88.2 137.6 M81.4 137.6 L82.6 130.55 79.15 130.15 M93.1 150.9 L94.85 141.2 95.55 137.6 89.15 137.6 M94.85 141.2 L96.4 141.2 M95.55 137.6 L96.6 132.0 82.6 130.55 M117.25 129.7 L115.1 131.35 129.35 131.35 M119.5 128.1 L117.25 129.7 129.35 129.7 M115.1 131.35 L112.8 133.05 133.8 133.05 M107.35 141.2 L114.65 141.2 118.5 141.2 M115.25 146.75 L114.65 141.2 M106.45 133.05 L112.8 133.05 M107.35 141.2 L106.45 133.05 96.6 132.0 M106.45 133.05 L117.45 124.9 M113.1 156.9 L115.95 153.1 108.7 153.1 M107.35 169.5 L108.45 163.15 101.15 163.15 M108.45 163.15 
    L112.65 157.45 M82.05 193.0 L94.3 189.8 96.05 181.5 M84.5 181.5 L82.05 193.0 91.7 203.0 99.9 195.4 94.3 189.8 M122.55 188.05 Q122.2 189.8 121.1 191.0 120.0 192.3 118.8 192.3 117.6 192.3 117.0 191.0 116.4 189.8 116.8 188.05 117.15 186.25 118.2 185.0 119.3 183.8 120.45 183.8 121.65 183.8 122.25 185.0 122.85 186.25 122.55 188.05 M115.1 188.05 Q114.7 189.8 113.65 191.0 112.55 192.3 111.35 192.3 110.15 192.3 109.55 191.0 108.95 189.8 109.3 188.05 109.6 186.25 110.65 185.0 111.85 183.8 113.0 183.8 114.15 183.8 114.8 185.0 115.35 186.25 115.1 188.05 M107.65 188.05 Q107.25 189.8 106.15 191.0 105.1 192.3 103.85 192.3 102.65 192.3 102.05 191.0 101.5 189.8 101.85 188.05 102.15 186.25 103.2 185.0 104.3 183.8 105.55 183.8 106.75 183.8 107.3 185.0 107.9 186.25 107.65 188.05 M145.25 181.5 L135.65 181.5 123.75 181.5 105.35 181.5 98.05 181.5 M105.35 181.5 L107.3 170.05 M108.45 163.15 L129.3 163.15 138.0 153.1 115.95 153.1 115.3 147.45 M137.45 188.05 Q137.1 189.8 136.05 191.0 134.95 192.3 133.75 192.3 132.6 192.3 132.0 191.0 131.3 189.8 131.7 188.05 132.05 186.25 133.15 185.0 134.25 183.8 135.4 183.8 136.55 183.8 137.25 185.0 137.8 186.25 137.45 188.05 M130.0 188.05 Q129.65 189.8 128.55 191.0 127.5 192.3 126.25 192.3 125.15 192.3 124.45 191.0 123.85 189.8 124.25 188.05 124.55 186.25 125.65 185.0 126.75 183.8 127.9 183.8 129.1 183.8 129.75 185.0 130.3 186.25 130.0 188.05 M150.6 181.5 L158.8 169.5 M136.75 195.4 L142.75 189.8 M123.75 181.5 L129.3 163.15 M135.65 181.5 L143.85 163.15 M138.0 153.1 L138.1 147.1 M154.05 153.1 L156.1 141.2 M99.9 195.4 L136.75 195.4 131.45 203.0 M119.45 141.2 L138.15 141.2 M96.7 85.95 L119.55 101.35 M141.15 93.7 L152.35 101.35 M61.95 70.3 L87.1 70.3 M80.2 143.95 L93.1 150.9 78.75 163.4 M12.7 113.55 L15.55 97.15 M87.3 211.8 L90.45 211.8 96.4 203.0 91.7 203.0 M90.45 211.8 L110.15 211.8 M96.4 203.0 L126.3 203.0 M53.85 186.05 L58.7 202.7 66.3 207.6 Q70.1 207.65 67.8 204.65 L61.7 201.0 57.1 185.4 M41.8 199.9 L44.65 205.2 57.75 211.8 87.3 211.8 79.15 220.9 M41.4 199.2 L37.7 192.3 M157.5 133.05 L163.9 133.05 M157.5 133.05 L168.5 124.9 M159.05 169.15 L163.2 163.15" fill="none" stroke="#000000" stroke-width="0.7" stroke-opacity="0.4"/>
  </g>
  <defs>
    <linearGradient gradientTransform="matrix(-0.0094, 0.0121, -0.0159, -0.0123, 120.2, 48.25)" gradientUnits="userSpaceOnUse" id="gradient0" spreadMethod="pad" x1="-819.2" x2="819.2">
      <stop offset="0.0" stop-color="#0041ff"/>
      <stop offset="0.21176470588235294" stop-color="#5bbbff"/>
      <stop offset="0.3568627450980392" stop-color="#149eff"/>
      <stop offset="0.7333333333333333" stop-color="#1954ff"/>
    </linearGradient>
    <linearGradient gradientTransform="matrix(0.0088, -0.0133, 0.0201, 0.0133, 95.6, 36.4)" gradientUnits="userSpaceOnUse" id="gradient1" spreadMethod="pad" x1="-819.2" x2="819.2">
      <stop offset="0.16470588235294117" stop-color="#666666"/>
      <stop offset="0.7372549019607844" stop-color="#c6c6c6"/>
      <stop offset="1.0" stop-color="#b2b2b2"/>
    </linearGradient>
    <linearGradient gradientTransform="matrix(-0.0051, 0.0013, -0.001, -0.004, 94.35, 50.1)" gradientUnits="userSpaceOnUse" id="gradient2" spreadMethod="pad" x1="-819.2" x2="819.2">
      <stop offset="0.0" stop-color="#0041ff"/>
      <stop offset="0.21176470588235294" stop-color="#5bbbff"/>
      <stop offset="0.3568627450980392" stop-color="#149eff"/>
      <stop offset="0.7333333333333333" stop-color="#1954ff"/>
    </linearGradient>
    <linearGradient gradientTransform="matrix(0.0086, -0.013, 0.0096, 0.0063, 129.3, 56.3)" gradientUnits="userSpaceOnUse" id="gradient3" spreadMethod="pad" x1="-819.2" x2="819.2">
      <stop offset="0.16470588235294117" stop-color="#666666"/>
      <stop offset="0.7372549019607844" stop-color="#c6c6c6"/>
      <stop offset="1.0" stop-color="#b2b2b2"/>
    </linearGradient>
    <linearGradient gradientTransform="matrix(-0.0173, 0.0045, -0.0036, -0.0135, 133.55, 64.95)" gradientUnits="userSpaceOnUse" id="gradient4" spreadMethod="pad" x1="-819.2" x2="819.2">
      <stop offset="0.0" stop-color="#0041ff"/>
      <stop offset="0.21176470588235294" stop-color="#5bbbff"/>
      <stop offset="0.3568627450980392" stop-color="#149eff"/>
      <stop offset="0.7333333333333333" stop-color="#1954ff"/>
    </linearGradient>
    <linearGradient gradientTransform="matrix(-0.0049, 0.0013, -0.001, -0.0039, 96.3, 57.4)" gradientUnits="userSpaceOnUse" id="gradient5" spreadMethod="pad" x1="-819.2" x2="819.2">
      <stop offset="0.0" stop-color="#0041ff"/>
      <stop offset="0.21176470588235294" stop-color="#5bbbff"/>
      <stop offset="0.3568627450980392" stop-color="#149eff"/>
      <stop offset="0.7333333333333333" stop-color="#1954ff"/>
    </linearGradient>
    <linearGradient gradientTransform="matrix(0.0149, -0.0059, 0.0045, 0.0113, 135.3, 74.05)" gradientUnits="userSpaceOnUse" id="gradient6" spreadMethod="pad" x1="-819.2" x2="819.2">
      <stop offset="0.16470588235294117" stop-color="#666666"/>
      <stop offset="0.7372549019607844" stop-color="#b5b5b5"/>
      <stop offset="1.0" stop-color="#b2b2b2"/>
    </linearGradient>
    <radialGradient cx="0" cy="0" gradientTransform="matrix(0.0263, 0.0, 0.0, 0.0263, 61.2, 48.75)" gradientUnits="userSpaceOnUse" id="gradient7" r="819.2" spreadMethod="pad">
      <stop offset="0.0" stop-color="#999999"/>
      <stop offset="1.0" stop-color="#333333"/>
    </radialGradient>
    <radialGradient cx="0" cy="0" gradientTransform="matrix(0.0134, 0.0, 0.0, 0.0134, 68.5, 58.25)" gradientUnits="userSpaceOnUse" id="gradient8" r="819.2" spreadMethod="pad">
      <stop offset="0.0" stop-color="#999999"/>
      <stop offset="1.0" stop-color="#333333"/>
    </radialGradient>
    <radialGradient cx="0" cy="0" gradientTransform="matrix(0.0082, 0.0, 0.0, 0.0082, 34.55, 170.9)" gradientUnits="userSpaceOnUse" id="gradient9" r="819.2" spreadMethod="pad">
      <stop offset="0.0" stop-color="#999999"/>
      <stop offset="1.0" stop-color="#333333"/>
    </radialGradient>
    <radialGradient cx="0" cy="0" gradientTransform="matrix(0.0094, 0.0, 0.0, 0.0094, 37.15, 180.4)" gradientUnits="userSpaceOnUse" id="gradient10" r="819.2" spreadMethod="pad">
      <stop offset="0.0" stop-color="#999999"/>
      <stop offset="1.0" stop-color="#333333"/>
    </radialGradient>
    <linearGradient gradientTransform="matrix(-0.004, 0.001, -0.0012, -0.0047, 119.6, 187.95)" gradientUnits="userSpaceOnUse" id="gradient11" spreadMethod="pad" x1="-819.2" x2="819.2">
      <stop offset="0.0" stop-color="#0041ff"/>
      <stop offset="0.21176470588235294" stop-color="#5bbbff"/>
      <stop offset="0.3568627450980392" stop-color="#149eff"/>
      <stop offset="0.7333333333333333" stop-color="#1954ff"/>
    </linearGradient>
    <linearGradient gradientTransform="matrix(-0.004, 0.001, -0.0012, -0.0047, 112.1, 187.95)" gradientUnits="userSpaceOnUse" id="gradient12" spreadMethod="pad" x1="-819.2" x2="819.2">
      <stop offset="0.0" stop-color="#0041ff"/>
      <stop offset="0.21176470588235294" stop-color="#5bbbff"/>
      <stop offset="0.3568627450980392" stop-color="#149eff"/>
      <stop offset="0.7333333333333333" stop-color="#1954ff"/>
    </linearGradient>
    <linearGradient gradientTransform="matrix(-0.004, 0.001, -0.0012, -0.0047, 104.6, 187.95)" gradientUnits="userSpaceOnUse" id="gradient13" spreadMethod="pad" x1="-819.2" x2="819.2">
      <stop offset="0.0" stop-color="#0041ff"/>
      <stop offset="0.21176470588235294" stop-color="#5bbbff"/>
      <stop offset="0.3568627450980392" stop-color="#149eff"/>
      <stop offset="0.7333333333333333" stop-color="#1954ff"/>
    </linearGradient>
    <linearGradient gradientTransform="matrix(-0.004, 0.001, -0.0012, -0.0047, 134.5, 187.95)" gradientUnits="userSpaceOnUse" id="gradient14" spreadMethod="pad" x1="-819.2" x2="819.2">
      <stop offset="0.0" stop-color="#0041ff"/>
      <stop offset="0.21176470588235294" stop-color="#5bbbff"/>
      <stop offset="0.3568627450980392" stop-color="#149eff"/>
      <stop offset="0.7333333333333333" stop-color="#1954ff"/>
    </linearGradient>
    <linearGradient gradientTransform="matrix(-0.004, 0.001, -0.0012, -0.0047, 127.05, 187.95)" gradientUnits="userSpaceOnUse" id="gradient15" spreadMethod="pad" x1="-819.2" x2="819.2">
      <stop offset="0.0" stop-color="#0041ff"/>
      <stop offset="0.21176470588235294" stop-color="#5bbbff"/>
      <stop offset="0.3568627450980392" stop-color="#149eff"/>
      <stop offset="0.7333333333333333" stop-color="#1954ff"/>
    </linearGradient>
  </defs>
</svg>
