<?xml version="1.0" encoding="UTF-8" standalone="no"?>
<svg xmlns:xlink="http://www.w3.org/1999/xlink" height="81.05px" width="109.95px" xmlns="http://www.w3.org/2000/svg">
  <g transform="matrix(1.0, 0.0, 0.0, 1.0, 0.05, 0.05)">
    <path d="M78.6 19.95 L81.25 21.05 81.3 21.05 85.2 22.75 89.2 24.4 93.15 26.05 87.35 36.15 83.5 38.6 81.05 38.6 76.15 38.6 72.65 38.6 71.25 38.6 67.55 38.6 66.3 38.6 76.95 19.95 66.3 38.6 61.4 38.6 66.25 30.1 72.05 20.0 72.05 19.95 72.05 20.0 66.25 30.1 61.35 30.1 56.4 30.1 56.45 30.05 52.7 25.65 52.7 25.6 52.55 22.65 52.55 22.6 53.1 23.6 52.55 22.55 55.8 22.55 55.95 22.35 55.95 22.6 57.5 19.95 62.2 19.95 64.65 19.95 67.15 19.95 72.05 19.95 75.45 19.95 76.95 19.95 78.35 19.95 78.6 19.95 M74.65 32.6 L71.25 38.6 74.65 32.6 M84.85 32.0 L89.2 24.4 84.85 32.0 M84.5 32.6 L81.05 38.6 84.5 32.6 M62.2 19.95 L56.45 30.05 62.2 19.95 M67.15 19.95 L61.35 30.1 67.15 19.95 M79.6 32.6 L76.15 38.6 79.6 32.6 M79.9 32.0 L85.2 22.75 79.9 32.0 M75.0 32.0 L81.25 21.05 75.0 32.0" fill="#8c8c8c" fill-rule="evenodd" stroke="none"/>
    <path d="M105.55 26.05 L109.6 36.7 106.8 38.6 103.15 29.95 103.1 29.9 96.6 29.9 92.7 36.75 91.95 38.05 91.65 38.6 91.25 38.6 87.35 36.15 93.15 26.05 105.55 26.05" fill="#7b7b7b" fill-rule="evenodd" stroke="none"/>
    <path d="M106.8 38.6 L97.85 38.6 103.15 29.95 106.8 38.6 M97.8 49.45 L106.8 49.45 103.1 58.15 97.8 49.5 97.8 49.45" fill="#690808" fill-rule="evenodd" stroke="none"/>
    <path d="M106.8 49.45 L109.85 51.2 105.55 62.0 93.15 62.0 87.4 51.45 91.1 49.5 91.2 49.45 91.65 49.45 91.7 49.5 92.0 50.05 92.55 51.05 96.6 58.15 103.1 58.15 106.8 49.45 M91.7 49.5 L91.1 49.5 91.7 49.5" fill="#919191" fill-rule="evenodd" stroke="none"/>
    <path d="M105.55 62.0 L103.0 63.65 100.45 65.35 97.9 67.0 96.15 68.1 87.4 68.1 78.6 68.1 81.25 67.0 81.3 67.0 85.2 65.35 89.2 63.65 93.15 62.0 105.55 62.0 M100.45 65.35 L94.8 65.35 100.45 65.35 M97.9 67.0 L94.8 67.0 97.9 67.0 M94.8 63.65 L103.0 63.65 94.8 63.65 M94.2 67.0 L81.3 67.0 94.2 67.0 M85.2 65.35 L94.2 65.35 85.2 65.35 M94.2 63.65 L89.2 63.65 94.2 63.65 M67.15 68.1 L72.05 68.1 75.55 68.1 72.6 72.3 72.35 72.6 72.35 72.65 72.35 72.6 72.4 72.6 72.35 72.65 52.25 72.65 52.45 70.7 46.55 67.9 48.65 64.5 55.25 64.5 57.3 68.1 62.2 68.1 67.15 68.1" fill="#666666" fill-rule="evenodd" stroke="none"/>
    <path d="M78.6 49.45 L81.05 49.45 83.45 49.45 83.55 49.5 87.4 51.45 93.15 62.0 89.2 63.65 85.2 65.35 81.3 67.0 81.25 67.0 78.6 68.1 76.95 68.1 72.6 72.3 75.55 68.1 72.05 68.1 67.15 68.1 56.5 49.45 67.15 68.1 62.2 68.1 57.3 68.1 55.25 64.5 51.5 57.95 49.75 54.95 49.9 54.8 53.1 52.2 62.2 68.1 53.1 52.2 56.5 49.45 61.4 49.45 66.3 49.45 67.5 49.45 71.25 49.45 76.15 49.45 78.6 49.45 M79.9 56.05 L85.2 65.35 79.9 56.05 M84.85 56.05 L89.2 63.65 84.85 56.05 M84.5 55.45 L81.05 49.45 84.5 55.45 M69.75 55.45 L66.3 49.45 69.75 55.45 M64.8 55.45 L61.4 49.45 64.8 55.45 M79.6 55.45 L76.15 49.45 79.6 55.45 M65.15 56.05 L72.05 68.1 65.15 56.05 M70.1 56.05 L76.95 68.1 75.55 68.1 76.95 68.1 70.1 56.05 M74.65 55.45 L71.25 49.45 74.65 55.45 M75.0 56.05 L81.25 67.0 75.0 56.05" fill="#5b5b5b" fill-rule="evenodd" stroke="none"/>
    <path d="M78.35 19.95 L76.95 19.95 75.45 19.95 72.05 19.95 61.25 0.4 64.0 0.8 64.5 1.6 64.6 1.7 78.35 19.95 M73.5 17.1 L75.45 19.95 73.5 17.1 74.65 16.25 65.2 4.7 70.85 16.4 73.5 17.1" fill="#4a4a4a" fill-rule="evenodd" stroke="none"/>
    <path d="M69.15 77.05 L61.35 77.05 53.95 77.05 40.45 77.05 34.8 71.25 35.4 71.25 39.05 71.25 42.75 71.25 39.05 71.25 35.4 71.25 34.8 71.25 40.45 77.05 53.95 77.05 51.25 80.95 37.75 80.95 33.65 76.65 26.75 76.65 23.0 74.25 19.25 71.85 21.8 63.1 20.6 59.2 12.8 59.2 11.85 56.05 11.9 56.0 19.45 55.3 19.4 55.25 23.1 55.25 26.75 55.25 30.45 55.25 34.15 55.25 37.85 55.25 37.9 55.3 42.75 71.25 44.5 71.25 46.55 67.9 52.45 70.7 52.25 72.65 72.35 72.65 71.35 74.0 71.05 74.45 69.15 77.05 M27.8 46.5 L26.45 42.75 14.35 42.75 12.5 40.15 0.0 40.15 0.0 34.3 0.0 33.7 6.0 32.8 9.5 34.1 19.95 30.75 25.1 30.75 22.2 28.55 25.1 30.75 19.95 30.75 9.5 34.1 6.0 32.8 18.55 28.55 22.2 28.55 34.8 28.55 39.35 31.95 39.35 32.0 38.45 32.7 38.3 32.85 37.2 33.65 33.45 36.6 Q30.05 41.55 31.15 46.5 L27.8 46.5 M45.5 24.6 L44.85 22.65 45.1 19.55 43.25 13.5 Q43.35 12.0 43.75 10.95 L43.8 11.0 43.8 11.05 50.05 27.8 53.15 35.7 53.15 35.8 49.95 33.85 49.7 33.55 47.35 30.6 47.25 30.25 45.5 24.6 M55.95 22.35 L55.05 13.75 57.5 19.95 55.95 22.6 55.95 22.35 M64.65 19.95 L58.5 0.0 61.25 0.4 72.05 19.95 67.15 19.95 64.65 19.95 M22.7 36.7 Q22.95 35.05 22.45 33.8 21.9 32.5 20.9 32.3 L20.65 32.3 Q19.85 32.35 19.1 33.25 18.15 34.35 17.9 36.0 17.65 37.65 18.2 38.85 18.7 40.15 19.65 40.3 20.65 40.45 21.55 39.4 L21.75 39.15 Q22.5 38.2 22.7 36.7 M0.0 34.3 L9.05 34.25 9.5 34.1 9.05 34.25 0.0 34.3 M25.1 30.75 L33.55 30.75 37.2 33.65 33.55 30.75 25.1 30.75 M28.6 36.7 Q28.9 35.05 28.35 33.8 27.85 32.5 26.85 32.3 L26.55 32.3 Q25.7 32.35 25.0 33.25 L24.5 34.05 Q24.0 34.9 23.8 36.0 23.7 36.8 23.75 37.55 L24.15 38.85 Q24.6 40.15 25.55 40.3 26.55 40.45 27.5 39.4 L27.7 39.15 Q28.4 38.2 28.6 36.7 M20.6 59.2 L19.45 55.3 20.6 59.2 M43.45 57.85 L44.9 57.95 45.0 57.95 51.5 57.95 55.25 64.5 48.65 64.5 45.75 64.5 43.45 57.85 M26.35 65.85 L28.0 71.25 24.3 71.25 21.8 63.1 24.3 71.25 28.0 71.25 26.35 65.85 M31.7 71.25 L28.0 71.25 31.7 71.25 30.05 65.85 31.7 71.25 34.8 71.25 31.7 71.25 M29.85 65.2 L26.75 55.25 29.85 65.2 M33.55 65.2 L30.45 55.25 33.55 65.2 M26.15 65.2 L23.1 55.25 26.15 65.2 M37.2 65.2 L34.15 55.25 37.2 65.2 M33.7 65.85 L35.4 71.25 33.7 65.85 M37.4 65.85 L39.05 71.25 37.4 65.85 M37.0 74.25 L23.0 74.25 37.0 74.25" fill="#333333" fill-rule="evenodd" stroke="none"/>
    <path d="M11.9 56.0 L14.25 49.6 14.4 49.6 18.2 48.1 22.0 46.55 20.85 50.4 20.85 50.45 19.4 55.25 19.45 55.3 11.9 56.0 M0.0 33.7 L4.5 27.25 4.5 27.2 22.2 21.2 33.25 21.2 44.95 30.25 44.9 30.25 Q42.3 30.25 40.1 31.45 L39.35 31.95 34.8 28.55 22.2 28.55 18.55 28.55 6.0 32.8 4.5 27.25 6.0 32.8 0.0 33.7 M43.8 11.05 L47.2 12.3 47.25 12.35 52.55 22.65 52.7 25.6 52.7 25.65 56.45 30.05 56.4 30.1 61.35 30.1 56.5 38.6 61.35 30.1 66.25 30.1 61.4 38.6 56.5 38.6 53.15 35.9 53.15 35.8 53.15 35.7 50.05 27.8 43.8 11.05 M55.05 13.75 L55.0 13.65 55.05 13.65 57.8 12.35 62.2 19.95 57.5 19.95 55.05 13.75 55.05 13.65 55.05 13.75 M53.15 35.8 L56.4 30.1 53.15 35.8 M53.15 35.7 L52.7 25.65 53.15 35.7 M50.05 27.8 L52.7 25.6 50.05 27.8 M22.7 36.7 Q22.5 38.2 21.75 39.15 L21.55 39.4 Q20.65 40.45 19.65 40.3 18.7 40.15 18.2 38.85 17.65 37.65 17.9 36.0 18.15 34.35 19.1 33.25 19.85 32.35 20.65 32.3 L20.9 32.3 Q21.9 32.5 22.45 33.8 22.95 35.05 22.7 36.7 M22.35 36.75 Q22.55 35.5 22.15 34.6 21.75 33.65 20.95 33.5 20.35 33.4 19.85 33.9 L19.5 34.2 Q18.85 34.95 18.65 36.2 18.45 37.4 18.85 38.4 19.3 39.3 20.05 39.4 20.6 39.45 21.1 39.1 L21.45 38.75 Q22.15 38.0 22.35 36.75 M28.6 36.7 Q28.4 38.2 27.7 39.15 L27.5 39.4 Q26.55 40.45 25.55 40.3 24.6 40.15 24.15 38.85 L23.75 37.55 Q23.7 36.8 23.8 36.0 24.0 34.9 24.5 34.05 L25.0 33.25 Q25.7 32.35 26.55 32.3 L26.85 32.3 Q27.85 32.5 28.35 33.8 28.9 35.05 28.6 36.7 M28.25 36.75 Q28.5 35.5 28.05 34.6 27.65 33.65 26.85 33.5 26.3 33.4 25.75 33.95 L25.45 34.2 Q24.8 34.95 24.55 36.2 24.4 37.4 24.8 38.4 25.2 39.3 25.95 39.4 L27.05 39.1 27.4 38.75 Q28.1 38.0 28.25 36.75 M22.2 28.55 L22.2 21.2 22.2 28.55 M37.85 55.25 L38.1 55.25 38.15 55.3 37.9 55.3 38.15 55.3 Q40.55 57.4 43.45 57.85 L45.75 64.5 48.65 64.5 46.55 67.9 44.5 71.25 42.75 71.25 37.9 55.3 37.85 55.25 M18.2 48.1 L20.85 50.45 18.2 48.1" fill="#4c4c4c" fill-rule="evenodd" stroke="none"/>
    <path d="M87.4 68.1 L83.7 72.65 80.8 72.65 81.55 70.4 78.55 70.4 75.55 72.6 72.4 72.6 72.35 72.6 72.6 72.3 76.95 68.1 78.6 68.1 87.4 68.1 M33.25 21.2 L38.45 21.2 43.0 24.6 45.5 24.6 47.25 30.25 44.95 30.25 33.25 21.2" fill="#7f7f7f" fill-rule="evenodd" stroke="none"/>
    <path d="M22.0 46.55 L22.0 46.5 27.8 46.5 31.15 46.5 33.6 46.5 33.6 46.55 31.15 46.5 33.6 46.55 37.15 46.55 Q37.4 48.55 38.2 50.4 L38.5 51.05 Q39.25 52.55 40.35 53.9 L41.65 55.25 38.15 55.3 38.1 55.25 37.85 55.25 34.15 55.25 30.45 55.25 26.75 55.25 23.1 55.25 19.4 55.25 20.85 50.45 20.85 50.4 22.0 46.55 M20.85 50.4 L38.2 50.4 20.85 50.4" fill="#5d5d5d" fill-rule="evenodd" stroke="none"/>
    <path d="M83.7 72.65 L80.1 77.05 69.15 77.05 71.05 74.45 71.35 74.0 72.35 72.65 72.4 72.6 75.55 72.6 78.55 70.4 81.55 70.4 80.8 72.65 83.7 72.65 M61.35 77.05 L57.9 80.95 51.25 80.95 53.95 77.05 61.35 77.05" fill="#4f4f4f" fill-rule="evenodd" stroke="none"/>
    <path d="M81.3 21.05 L81.25 21.05 78.6 19.95 80.85 19.95 81.3 21.05 80.85 19.95 96.15 19.95 97.9 21.05 100.45 22.75 103.0 24.4 105.55 26.05 93.15 26.05 89.2 24.4 85.2 22.75 81.3 21.05 94.2 21.05 81.3 21.05 M94.2 24.4 L89.2 24.4 94.2 24.4 M94.2 22.75 L85.2 22.75 94.2 22.75 M94.8 22.75 L100.45 22.75 94.8 22.75 M97.9 21.05 L94.8 21.05 97.9 21.05 M94.8 24.4 L103.0 24.4 94.8 24.4" fill="url(#gradient0)" fill-rule="evenodd" stroke="none"/>
    <path d="M92.7 36.75 L96.6 29.9 103.1 29.9 103.15 29.95 97.85 38.6 97.8 38.6 Q96.5 37.45 94.9 37.35 L92.7 36.75 M94.55 50.75 Q96.4 50.7 97.8 49.5 L103.1 58.15 96.6 58.15 92.55 51.05 94.55 50.75" fill="url(#gradient1)" fill-rule="evenodd" stroke="none"/>
    <path d="M97.85 38.65 L98.45 39.3 99.05 40.1 Q100.1 41.8 100.1 44.05 L99.95 45.65 99.15 47.8 98.45 48.8 97.8 49.45 97.8 49.5 Q96.4 50.7 94.55 50.75 L94.5 50.75 Q93.1 50.75 92.0 50.05 L91.7 49.5 91.65 49.45 91.2 49.45 90.55 48.8 Q88.95 46.8 88.95 44.05 88.95 41.8 90.0 40.1 L90.55 39.3 91.2 38.65 91.65 38.6 91.2 38.65 91.25 38.6 91.65 38.6 91.95 38.05 Q93.1 37.35 94.5 37.35 L94.9 37.35 Q96.5 37.45 97.8 38.6 L97.85 38.65 M93.55 40.1 L92.55 40.95 Q91.5 42.2 91.5 43.95 91.5 45.7 92.55 46.9 93.55 48.15 95.0 48.15 L95.55 48.1 Q96.7 47.9 97.5 46.9 L97.95 46.3 98.45 44.95 98.55 43.95 Q98.55 42.2 97.5 40.95 L96.5 40.1 Q96.05 39.85 95.55 39.75 L95.0 39.7 93.55 40.1" fill="url(#gradient2)" fill-rule="evenodd" stroke="none"/>
    <path d="M91.2 38.65 L90.55 39.3 90.0 40.1 Q88.95 41.8 88.95 44.05 88.95 46.8 90.55 48.8 L91.2 49.45 91.1 49.5 87.4 51.45 83.55 49.5 83.45 49.45 81.05 49.45 78.6 49.45 75.35 44.15 71.55 44.15 71.55 43.9 Q71.55 41.85 72.1 40.1 L72.3 39.5 72.65 38.6 76.15 38.6 81.05 38.6 83.5 38.6 83.5 38.65 82.8 39.3 82.25 40.1 Q81.2 41.8 81.2 44.05 81.2 46.8 82.8 48.8 L83.45 49.45 82.8 48.8 Q81.2 46.8 81.2 44.05 81.2 41.8 82.25 40.1 L82.8 39.3 83.5 38.65 83.5 38.6 87.35 36.15 91.25 38.6 91.2 38.65 83.5 38.65 91.2 38.65 M91.1 49.5 L83.55 49.5 91.1 49.5" fill="url(#gradient3)" fill-rule="evenodd" stroke="none"/>
    <path d="M93.55 40.1 L95.0 39.7 95.55 39.75 Q96.05 39.85 96.5 40.1 L97.5 40.95 Q98.55 42.2 98.55 43.95 L98.45 44.95 97.95 46.3 97.5 46.9 Q96.7 47.9 95.55 48.1 L95.0 48.15 Q93.55 48.15 92.55 46.9 91.5 45.7 91.5 43.95 91.5 42.2 92.55 40.95 L93.55 40.1" fill="url(#gradient4)" fill-rule="evenodd" stroke="none"/>
    <path d="M92.7 36.75 L94.9 37.35 94.5 37.35 Q93.1 37.35 91.95 38.05 L92.7 36.75 M92.0 50.05 Q93.1 50.75 94.5 50.75 L94.55 50.75 92.55 51.05 92.0 50.05" fill="url(#gradient5)" fill-rule="evenodd" stroke="none"/>
    <path d="M73.5 17.1 L70.85 16.4 65.2 4.7 74.65 16.25 73.5 17.1" fill="url(#gradient6)" fill-rule="evenodd" stroke="none"/>
    <path d="M66.3 38.6 L67.55 38.6 67.1 40.1 Q66.7 41.8 66.65 43.65 L53.55 43.45 45.75 45.2 53.55 43.45 66.65 43.65 66.65 44.1 66.65 44.2 Q66.65 47.05 67.5 49.45 L66.3 49.45 61.4 49.45 56.5 49.45 53.1 52.2 49.9 54.8 49.1 53.9 47.6 51.7 47.25 51.05 Q45.95 48.4 45.75 45.2 L45.75 45.15 45.75 44.1 Q45.75 42.0 46.2 40.1 46.6 38.4 47.35 36.95 48.05 35.55 49.1 34.3 L49.75 33.65 49.7 33.55 49.95 33.85 53.15 35.8 53.15 35.9 56.5 38.6 61.4 38.6 66.3 38.6 M39.55 45.15 L39.55 44.55 Q39.55 42.45 40.0 40.55 40.4 38.85 41.15 37.4 41.85 36.0 42.9 34.75 L43.8 33.9 44.6 33.9 Q45.25 34.2 45.4 35.05 44.75 35.95 44.25 36.95 43.5 38.4 43.1 40.1 42.65 42.0 42.65 44.1 L42.65 45.15 42.65 45.2 Q42.85 48.4 44.15 51.05 L44.5 51.7 46.1 54.25 Q46.1 55.05 44.6 55.3 L43.7 55.25 42.9 54.35 41.4 52.15 41.05 51.5 Q39.75 48.85 39.55 45.65 L39.55 45.15" fill="url(#gradient7)" fill-rule="evenodd" stroke="none"/>
    <path d="M49.7 33.55 L49.75 33.65 49.1 34.3 Q48.05 35.55 47.35 36.95 46.6 38.4 46.2 40.1 45.75 42.0 45.75 44.1 L45.75 45.15 45.75 45.2 Q45.95 48.4 47.25 51.05 L47.6 51.7 49.1 53.9 49.9 54.8 49.75 54.95 51.5 57.95 45.0 57.95 44.9 57.95 43.45 57.85 Q40.55 57.4 38.15 55.3 L41.65 55.25 40.35 53.9 Q39.25 52.55 38.5 51.05 L38.2 50.4 Q37.4 48.55 37.15 46.55 L33.6 46.55 33.6 46.5 33.45 45.15 33.45 44.1 33.5 42.75 33.9 40.1 Q34.65 36.85 36.8 34.3 L37.35 33.75 38.3 32.85 38.45 32.7 39.35 32.0 39.35 31.95 40.1 31.45 Q42.3 30.25 44.9 30.25 L44.95 30.25 47.25 30.25 47.35 30.6 49.7 33.55 M39.55 45.15 L33.45 45.15 39.55 45.15 39.55 45.65 Q39.75 48.85 41.05 51.5 L41.4 52.15 42.9 54.35 43.7 55.25 44.6 55.3 Q46.1 55.05 46.1 54.25 L44.5 51.7 44.15 51.05 Q42.85 48.4 42.65 45.2 L42.65 45.15 42.65 44.1 Q42.65 42.0 43.1 40.1 43.5 38.4 44.25 36.95 44.75 35.95 45.4 35.05 45.25 34.2 44.6 33.9 L43.8 33.9 42.9 34.75 Q41.85 36.0 41.15 37.4 40.4 38.85 40.0 40.55 39.55 42.45 39.55 44.55 L39.55 45.15" fill="url(#gradient8)" fill-rule="evenodd" stroke="none"/>
    <path d="M67.55 38.6 L71.25 38.6 72.65 38.6 72.3 39.5 72.1 40.1 Q71.55 41.85 71.55 43.9 L71.55 44.15 75.35 44.15 78.6 49.45 76.15 49.45 71.25 49.45 67.5 49.45 Q66.65 47.05 66.65 44.2 L66.65 44.1 66.65 43.65 Q66.7 41.8 67.1 40.1 L67.55 38.6" fill="url(#gradient9)" fill-rule="evenodd" stroke="none"/>
    <path d="M22.35 36.75 Q22.15 38.0 21.45 38.75 L21.1 39.1 Q20.6 39.45 20.05 39.4 19.3 39.3 18.85 38.4 18.45 37.4 18.65 36.2 18.85 34.95 19.5 34.2 L19.85 33.9 Q20.35 33.4 20.95 33.5 21.75 33.65 22.15 34.6 22.55 35.5 22.35 36.75" fill="url(#gradient10)" fill-rule="evenodd" stroke="none"/>
    <path d="M38.3 32.85 L37.35 33.75 36.8 34.3 Q34.65 36.85 33.9 40.1 L33.5 42.75 33.45 44.1 33.45 45.15 33.6 46.5 31.15 46.5 Q30.05 41.55 33.45 36.6 L37.2 33.65 38.3 32.85 M37.2 33.65 L37.35 33.75 37.2 33.65" fill="url(#gradient11)" fill-rule="evenodd" stroke="none"/>
    <path d="M28.25 36.75 Q28.1 38.0 27.4 38.75 L27.05 39.1 25.95 39.4 Q25.2 39.3 24.8 38.4 24.4 37.4 24.55 36.2 24.8 34.95 25.45 34.2 L25.75 33.95 Q26.3 33.4 26.85 33.5 27.65 33.65 28.05 34.6 28.5 35.5 28.25 36.75" fill="url(#gradient12)" fill-rule="evenodd" stroke="none"/>
    <path d="M78.6 19.95 L81.25 21.05 81.3 21.05 80.85 19.95 96.15 19.95 97.9 21.05 100.45 22.75 103.0 24.4 105.55 26.05 109.6 36.7 106.8 38.6 97.85 38.6 97.85 38.65 98.45 39.3 99.05 40.1 Q100.1 41.8 100.1 44.05 L99.95 45.65 99.15 47.8 98.45 48.8 97.8 49.45 106.8 49.45 109.85 51.2 105.55 62.0 103.0 63.65 100.45 65.35 97.9 67.0 96.15 68.1 87.4 68.1 83.7 72.65 80.1 77.05 69.15 77.05 61.35 77.05 57.9 80.95 51.25 80.95 37.75 80.95 33.65 76.65 26.75 76.65 23.0 74.25 19.25 71.85 21.8 63.1 20.6 59.2 12.8 59.2 11.85 56.05 11.9 56.0 14.25 49.6 14.4 49.6 18.2 48.1 22.0 46.55 22.0 46.5 27.8 46.5 M78.35 19.95 L76.95 19.95 66.3 38.6 67.55 38.6 71.25 38.6 74.65 32.6 M85.2 22.75 L89.2 24.4 94.2 24.4 M81.3 21.05 L85.2 22.75 94.2 22.75 M26.45 42.75 L14.35 42.75 12.5 40.15 0.0 40.15 0.0 34.3 0.0 33.7 4.5 27.25 4.5 27.2 22.2 21.2 33.25 21.2 38.45 21.2 43.0 24.6 45.5 24.6 44.85 22.65 45.1 19.55 43.25 13.5 M43.75 10.95 L43.8 11.0 43.8 11.05 47.2 12.3 47.25 12.35 52.55 22.65 52.55 22.6 52.55 22.55 55.8 22.55 55.95 22.35 55.05 13.75 55.0 13.65 55.05 13.65 57.8 12.35 62.2 19.95 64.65 19.95 58.5 0.0 61.25 0.4 64.0 0.8 64.6 1.7 78.35 19.95 M94.8 21.05 L97.9 21.05 M100.45 22.75 L94.8 22.75 M81.3 21.05 L94.2 21.05 M103.15 29.95 L103.1 29.9 96.6 29.9 92.7 36.75 94.9 37.35 Q96.5 37.45 97.8 38.6 L97.85 38.6 103.15 29.95 106.8 38.6 M91.2 38.65 L90.55 39.3 90.0 40.1 Q88.95 41.8 88.95 44.05 88.95 46.8 90.55 48.8 L91.2 49.45 91.65 49.45 91.7 49.5 92.0 50.05 Q93.1 50.75 94.5 50.75 L94.55 50.75 Q96.4 50.7 97.8 49.5 L97.8 49.45 M83.5 38.6 L81.05 38.6 76.15 38.6 72.65 38.6 72.3 39.5 72.1 40.1 Q71.55 41.85 71.55 43.9 L71.55 44.15 75.35 44.15 78.6 49.45 81.05 49.45 83.45 49.45 82.8 48.8 Q81.2 46.8 81.2 44.05 81.2 41.8 82.25 40.1 L82.8 39.3 83.5 38.65 83.5 38.6 87.35 36.15 93.15 26.05 89.2 24.4 84.85 32.0 M93.55 40.1 L95.0 39.7 95.55 39.75 Q96.05 39.85 96.5 40.1 L97.5 40.95 Q98.55 42.2 98.55 43.95 L98.45 44.95 97.95 46.3 97.5 46.9 Q96.7 47.9 95.55 48.1 L95.0 48.15 Q93.55 48.15 92.55 46.9 91.5 45.7 91.5 43.95 91.5 42.2 92.55 40.95 L93.55 40.1 M97.8 38.6 L97.85 38.65 M94.9 37.35 L94.5 37.35 Q93.1 37.35 91.95 38.05 L91.65 38.6 91.2 38.65 91.25 38.6 87.35 36.15 M91.65 38.6 L91.25 38.6 M91.95 38.05 L92.7 36.75 M83.5 38.65 L91.2 38.65 M81.05 38.6 L84.5 32.6 M103.0 24.4 L94.8 24.4 M93.15 26.05 L105.55 26.05 M92.0 50.05 L92.55 51.05 94.55 50.75 M92.55 51.05 L96.6 58.15 103.1 58.15 97.8 49.5 M83.55 49.5 L91.1 49.5 91.2 49.45 M91.1 49.5 L87.4 51.45 93.15 62.0 105.55 62.0 M87.4 51.45 L83.55 49.5 83.45 49.45 M81.25 67.0 L81.3 67.0 85.2 65.35 79.9 56.05 M85.2 65.35 L89.2 63.65 84.85 56.05 M94.8 67.0 L97.9 67.0 M94.8 65.35 L100.45 65.35 M91.1 49.5 L91.7 49.5 M93.15 62.0 L89.2 63.65 94.2 63.65 M94.2 65.35 L85.2 65.35 M81.3 67.0 L94.2 67.0 M103.0 63.65 L94.8 63.65 M103.1 58.15 L106.8 49.45 M81.05 49.45 L84.5 55.45 M64.6 1.7 L64.5 1.6 64.0 0.8 M64.65 19.95 L67.15 19.95 72.05 19.95 61.25 0.4 M72.05 19.95 L72.05 20.0 66.25 30.1 61.4 38.6 66.3 38.6 M72.05 19.95 L75.45 19.95 73.5 17.1 70.85 16.4 65.2 4.7 74.65 16.25 73.5 17.1 M75.45 19.95 L76.95 19.95 M55.05 13.75 L55.05 13.65 M57.5 19.95 L55.95 22.6 55.95 22.35 M57.5 19.95 L55.05 13.75 M52.55 22.65 L52.7 25.6 52.7 25.65 56.45 30.05 62.2 19.95 57.5 19.95 M56.45 30.05 L56.4 30.1 61.35 30.1 67.15 19.95 M53.15 35.8 L53.15 35.9 56.5 38.6 61.35 30.1 66.25 30.1 M53.15 35.8 L53.15 35.7 50.05 27.8 43.8 11.05 M56.4 30.1 L53.15 35.8 49.95 33.85 49.7 33.55 49.75 33.65 49.1 34.3 Q48.05 35.55 47.35 36.95 46.6 38.4 46.2 40.1 45.75 42.0 45.75 44.1 L45.75 45.15 45.75 45.2 53.55 43.45 66.65 43.65 Q66.7 41.8 67.1 40.1 L67.55 38.6 M52.7 25.65 L53.15 35.7 M47.25 30.25 L47.35 30.6 49.7 33.55 M44.95 30.25 L44.9 30.25 Q42.3 30.25 40.1 31.45 L39.35 31.95 39.35 32.0 38.45 32.7 38.3 32.85 37.35 33.75 36.8 34.3 Q34.65 36.85 33.9 40.1 L33.5 42.75 33.45 44.1 33.45 45.15 39.55 45.15 39.55 44.55 Q39.55 42.45 40.0 40.55 40.4 38.85 41.15 37.4 41.85 36.0 42.9 34.75 L43.8 33.9 44.6 33.9 Q45.25 34.2 45.4 35.05 44.75 35.95 44.25 36.95 43.5 38.4 43.1 40.1 42.65 42.0 42.65 44.1 L42.65 45.15 42.65 45.2 Q42.85 48.4 44.15 51.05 L44.5 51.7 46.1 54.25 Q46.1 55.05 44.6 55.3 L43.7 55.25 42.9 54.35 41.4 52.15 41.05 51.5 Q39.75 48.85 39.55 45.65 L39.55 45.15 M47.25 30.25 L44.95 30.25 33.25 21.2 M52.7 25.6 L50.05 27.8 M67.5 49.45 L66.3 49.45 69.75 55.45 M67.5 49.45 Q66.65 47.05 66.65 44.2 L66.65 44.1 66.65 43.65 M66.3 49.45 L61.4 49.45 64.8 55.45 M71.25 38.6 L72.65 38.6 M78.6 49.45 L76.15 49.45 79.6 55.45 M67.5 49.45 L71.25 49.45 76.15 49.45 M76.15 38.6 L79.6 32.6 M45.5 24.6 L47.25 30.25 M61.4 49.45 L56.5 49.45 67.15 68.1 72.05 68.1 65.15 56.05 M56.5 38.6 L61.4 38.6 M22.7 36.7 Q22.5 38.2 21.75 39.15 L21.55 39.4 Q20.65 40.45 19.65 40.3 18.7 40.15 18.2 38.85 17.65 37.65 17.9 36.0 18.15 34.35 19.1 33.25 19.85 32.35 20.65 32.3 L20.9 32.3 Q21.9 32.5 22.45 33.8 22.95 35.05 22.7 36.7 M22.35 36.75 Q22.15 38.0 21.45 38.75 L21.1 39.1 Q20.6 39.45 20.05 39.4 19.3 39.3 18.85 38.4 18.45 37.4 18.65 36.2 18.85 34.95 19.5 34.2 L19.85 33.9 Q20.35 33.4 20.95 33.5 21.75 33.65 22.15 34.6 22.55 35.5 22.35 36.75 M6.0 32.8 L9.5 34.1 19.95 30.75 25.1 30.75 22.2 28.55 18.55 28.55 6.0 32.8 4.5 27.25 M0.0 33.7 L6.0 32.8 M9.5 34.1 L9.05 34.25 0.0 34.3 M37.35 33.75 L37.2 33.65 33.45 36.6 Q30.05 41.55 31.15 46.5 L33.6 46.5 33.45 45.15 M38.3 32.85 L37.2 33.65 33.55 30.75 25.1 30.75 M22.2 28.55 L34.8 28.55 39.35 31.95 M28.6 36.7 Q28.4 38.2 27.7 39.15 L27.5 39.4 Q26.55 40.45 25.55 40.3 24.6 40.15 24.15 38.85 L23.75 37.55 Q23.7 36.8 23.8 36.0 24.0 34.9 24.5 34.05 L25.0 33.25 Q25.7 32.35 26.55 32.3 L26.85 32.3 Q27.85 32.5 28.35 33.8 28.9 35.05 28.6 36.7 M28.25 36.75 Q28.1 38.0 27.4 38.75 L27.05 39.1 25.95 39.4 Q25.2 39.3 24.8 38.4 24.4 37.4 24.55 36.2 24.8 34.95 25.45 34.2 L25.75 33.95 Q26.3 33.4 26.85 33.5 27.65 33.65 28.05 34.6 28.5 35.5 28.25 36.75 M33.6 46.55 L31.15 46.5 27.8 46.5 M33.6 46.55 L33.6 46.5 M38.2 50.4 Q37.4 48.55 37.15 46.55 L33.6 46.55 M22.2 21.2 L22.2 28.55 M19.4 55.25 L23.1 55.25 26.75 55.25 30.45 55.25 34.15 55.25 37.85 55.25 38.1 55.25 38.15 55.3 41.65 55.25 40.35 53.9 Q39.25 52.55 38.5 51.05 L38.2 50.4 20.85 50.4 20.85 50.45 19.4 55.25 19.45 55.3 20.6 59.2 M37.85 55.25 L37.9 55.3 38.15 55.3 Q40.55 57.4 43.45 57.85 L44.9 57.95 45.0 57.95 51.5 57.95 49.75 54.95 49.9 54.8 49.1 53.9 47.6 51.7 47.25 51.05 Q45.95 48.4 45.75 45.2 M21.8 63.1 L24.3 71.25 28.0 71.25 26.35 65.85 M42.75 71.25 L39.05 71.25 35.4 71.25 34.8 71.25 40.45 77.05 53.95 77.05 61.35 77.05 M30.05 65.85 L31.7 71.25 34.8 71.25 M39.05 71.25 L37.4 65.85 M35.4 71.25 L33.7 65.85 M34.15 55.25 L37.2 65.2 M23.1 55.25 L26.15 65.2 M30.45 55.25 L33.55 65.2 M26.75 55.25 L29.85 65.2 M28.0 71.25 L31.7 71.25 M19.45 55.3 L11.9 56.0 M23.0 74.25 L37.0 74.25 M67.15 68.1 L62.2 68.1 57.3 68.1 55.25 64.5 48.65 64.5 46.55 67.9 52.45 70.7 52.25 72.65 72.35 72.65 72.35 72.6 72.6 72.3 75.55 68.1 72.05 68.1 M69.15 77.05 L71.05 74.45 71.35 74.0 72.35 72.65 M72.4 72.6 L72.35 72.6 M72.4 72.6 L75.55 72.6 78.55 70.4 81.55 70.4 80.8 72.65 83.7 72.65 M78.6 68.1 L76.95 68.1 75.55 68.1 M76.95 68.1 L70.1 56.05 M46.55 67.9 L44.5 71.25 42.75 71.25 37.9 55.3 M48.65 64.5 L45.75 64.5 43.45 57.85 M53.1 52.2 L49.9 54.8 M55.25 64.5 L51.5 57.95 M51.25 80.95 L53.95 77.05 M62.2 68.1 L53.1 52.2 56.5 49.45 M71.25 49.45 L74.65 55.45 M22.0 46.55 L20.85 50.4 M20.85 50.45 L18.2 48.1 M81.25 21.05 L75.0 32.0 M85.2 22.75 L79.9 32.0 M87.4 68.1 L78.6 68.1 81.25 67.0 75.0 56.05" fill="none" stroke="#000000" stroke-width="0.7" stroke-opacity="0.4"/>
  </g>
  <defs>
    <linearGradient gradientTransform="matrix(-0.0446, -0.0221, 0.0021, -0.0043, 61.35, 7.15)" gradientUnits="userSpaceOnUse" id="gradient0" spreadMethod="pad" x1="-819.2" x2="819.2">
      <stop offset="0.0" stop-color="#9c9c9c"/>
      <stop offset="0.17" stop-color="#d9d9d9"/>
      <stop offset="0.47" stop-color="#adadad"/>
    </linearGradient>
    <radialGradient cx="0" cy="0" gradientTransform="matrix(0.0137, 0.0, 0.0, 0.0137, 89.95, 41.5)" gradientUnits="userSpaceOnUse" id="gradient1" r="819.2" spreadMethod="pad">
      <stop offset="0" stop-color="#a32323"/>
      <stop offset="0.97" stop-color="#801919"/>
    </radialGradient>
    <radialGradient cx="0" cy="0" gradientTransform="matrix(0.0137, 0.0, 0.0, 0.0137, 89.95, 41.5)" gradientUnits="userSpaceOnUse" id="gradient2" r="819.2" spreadMethod="pad">
      <stop offset="0" stop-color="#5b5b5b"/>
      <stop offset="1.0" stop-color="#333333"/>
    </radialGradient>
    <linearGradient gradientTransform="matrix(0.0, 0.0066, -0.012, 0.0, 81.4, 44.05)" gradientUnits="userSpaceOnUse" id="gradient3" spreadMethod="pad" x1="-819.2" x2="819.2">
      <stop offset="0.0" stop-color="#3c3c3c"/>
      <stop offset="0.27" stop-color="#666666"/>
      <stop offset="1.0" stop-color="#333333"/>
    </linearGradient>
    <radialGradient cx="0" cy="0" gradientTransform="matrix(0.009, 0.0, 0.0, 0.009, 91.25, 44.4)" gradientUnits="userSpaceOnUse" id="gradient4" r="819.2" spreadMethod="pad">
      <stop offset="0.0" stop-color="#ff0000"/>
      <stop offset="1.0" stop-color="#a10000"/>
    </radialGradient>
    <linearGradient gradientTransform="matrix(0.0, 0.0066, -0.012, 0.0, 81.4, 44.05)" gradientUnits="userSpaceOnUse" id="gradient5" spreadMethod="pad" x1="-819.2" x2="819.2">
      <stop offset="0.0" stop-color="#666666"/>
      <stop offset="0.27" stop-color="#999999"/>
      <stop offset="1.0" stop-color="#333333"/>
    </linearGradient>
    <radialGradient cx="0" cy="0" gradientTransform="matrix(0.0149, 0.0, 0.0, 0.0149, 71.35, 15.25)" gradientUnits="userSpaceOnUse" id="gradient6" r="819.2" spreadMethod="pad">
      <stop offset="0.16" stop-color="#ff0000"/>
      <stop offset="1.0" stop-color="#6b0000"/>
    </radialGradient>
    <linearGradient gradientTransform="matrix(0.0, 0.0131, -0.0133, 0.0, 56.65, 44.05)" gradientUnits="userSpaceOnUse" id="gradient7" spreadMethod="pad" x1="-819.2" x2="819.2">
      <stop offset="0.0" stop-color="#4d4d4d"/>
      <stop offset="0.27" stop-color="#808080"/>
      <stop offset="1.0" stop-color="#333333"/>
    </linearGradient>
    <linearGradient gradientTransform="matrix(0.0, 0.0169, -0.011, 0.0, 42.45, 44.1)" gradientUnits="userSpaceOnUse" id="gradient8" spreadMethod="pad" x1="-819.2" x2="819.2">
      <stop offset="0.0" stop-color="#666666"/>
      <stop offset="0.27" stop-color="#999999"/>
      <stop offset="1.0" stop-color="#333333"/>
    </linearGradient>
    <linearGradient gradientTransform="matrix(0.0, 0.0066, -0.0038, 0.0, 69.7, 44.05)" gradientUnits="userSpaceOnUse" id="gradient9" spreadMethod="pad" x1="-819.2" x2="819.2">
      <stop offset="0.0" stop-color="#666666"/>
      <stop offset="0.27" stop-color="#999999"/>
      <stop offset="1.0" stop-color="#333333"/>
    </linearGradient>
    <radialGradient cx="0" cy="0" gradientTransform="matrix(0.006, 0.0, 0.0, 0.006, 22.45, 36.2)" gradientUnits="userSpaceOnUse" id="gradient10" r="819.2" spreadMethod="pad">
      <stop offset="0.16" stop-color="#ff0000"/>
      <stop offset="1.0" stop-color="#6b0000"/>
    </radialGradient>
    <linearGradient gradientTransform="matrix(-0.0047, -0.0111, 0.0068, -0.0029, 32.65, 34.6)" gradientUnits="userSpaceOnUse" id="gradient11" spreadMethod="pad" x1="-819.2" x2="819.2">
      <stop offset="0.0" stop-color="#515151"/>
      <stop offset="0.12" stop-color="#545454"/>
      <stop offset="0.27" stop-color="#727272"/>
      <stop offset="0.47" stop-color="#333333"/>
    </linearGradient>
    <radialGradient cx="0" cy="0" gradientTransform="matrix(0.0067, 0.0, 0.0, 0.0067, 29.2, 37.2)" gradientUnits="userSpaceOnUse" id="gradient12" r="819.2" spreadMethod="pad">
      <stop offset="0.16" stop-color="#ff0000"/>
      <stop offset="1.0" stop-color="#6b0000"/>
    </radialGradient>
  </defs>
</svg>
