<?xml version="1.0" encoding="UTF-8" standalone="no"?>
<svg xmlns:xlink="http://www.w3.org/1999/xlink" height="72.3px" width="157.2px" xmlns="http://www.w3.org/2000/svg">
  <g transform="matrix(1.0, 0.0, 0.0, 1.0, 0.05, 0.05)">
    <path d="M130.95 20.3 L133.6 20.3 129.6 25.35 128.3 25.35 129.6 25.35 129.6 35.7 128.3 35.7 129.6 35.7 129.6 45.4 128.3 45.4 129.6 45.4 133.6 50.45 130.95 50.45 127.65 46.3 128.3 45.4 128.3 35.7 128.3 25.35 127.65 24.45 130.95 20.3 M104.4 49.95 L102.0 50.0 98.35 45.4 98.35 35.7 100.8 35.7 98.35 35.7 98.35 34.2 98.35 31.5 98.35 25.35 102.0 20.8 104.4 20.85 100.8 25.35 98.35 25.35 100.8 25.35 100.8 31.5 100.8 34.2 98.35 34.2 100.8 34.2 100.8 35.7 100.8 45.4 104.4 49.95 M100.8 31.5 L98.35 31.5 100.8 31.5 M100.8 45.4 L98.35 45.4 100.8 45.4" fill="url(#gradient0)" fill-rule="evenodd" stroke="none"/>
    <path d="M130.95 20.3 L127.65 24.45 126.4 22.7 124.7 20.3 128.3 20.3 130.95 20.3 M129.6 25.35 L133.6 20.3 138.9 20.3 134.95 25.35 129.6 25.35 M103.5 70.45 L103.1 70.45 99.1 70.45 Q97.35 70.2 96.1 68.9 94.85 67.55 94.65 65.75 L99.05 65.75 Q99.25 67.55 100.5 68.9 101.75 70.2 103.5 70.45 M102.15 20.3 L102.35 20.3 102.0 20.8 98.35 25.35 83.15 25.35 86.6 21.0 87.15 20.3 102.15 20.3 M104.4 20.85 L104.8 20.3 110.1 20.3 106.1 25.35 100.8 25.35 104.4 20.85 M128.3 20.3 L126.4 22.7 128.3 20.3 M61.45 3.15 L70.65 3.15 Q68.75 3.2 67.35 4.75 L66.65 5.8 66.25 6.8 59.75 6.8 57.15 6.75 57.45 5.8 58.15 4.75 Q59.55 3.2 61.45 3.15 M59.65 25.35 L63.65 20.3 72.55 20.3 81.8 20.3 77.85 25.35 68.55 25.35 72.55 20.3 68.55 25.35 59.65 25.35" fill="#626262" fill-rule="evenodd" stroke="none"/>
    <path d="M127.65 24.45 L128.3 25.35 128.3 35.7 128.3 45.4 127.65 46.3 126.4 48.05 124.7 50.45 110.1 50.45 106.1 45.4 106.1 35.7 106.1 34.2 106.1 31.5 106.1 25.35 110.1 20.3 124.7 20.3 126.4 22.7 127.65 24.45 M138.9 20.3 L153.5 20.3 157.1 25.35 157.1 45.4 153.5 50.45 138.9 50.45 134.95 45.4 134.95 35.7 134.95 25.35 138.9 20.3 M40.6 15.4 L39.35 11.55 36.55 11.55 36.55 9.1 40.55 7.55 40.55 4.9 45.45 0.0 49.4 0.0 44.5 4.9 40.55 4.9 44.5 4.9 44.5 9.55 39.4 11.55 49.8 11.55 52.6 11.55 53.85 15.4 40.6 15.4 M139.3 28.2 L138.9 28.65 138.9 35.7 138.9 42.1 139.3 42.55 141.55 45.4 151.5 45.4 153.5 42.55 153.5 35.7 153.5 28.2 151.5 25.35 141.55 25.35 139.3 28.2 M124.7 35.7 L124.7 28.2 122.7 25.35 112.7 25.35 110.45 28.2 110.1 28.65 110.1 35.7 110.1 42.1 110.45 42.55 112.7 45.4 122.7 45.4 124.7 42.55 124.7 35.7 M81.8 20.3 L84.5 20.3 84.05 20.9 80.5 25.35 77.85 25.35 81.8 20.3 M39.4 11.55 L39.35 11.55 39.4 11.55" fill="#3a3a3a" fill-rule="evenodd" stroke="none"/>
    <path d="M138.9 35.7 L138.9 28.65 139.3 28.2 153.5 28.2 153.5 35.7 138.9 35.7" fill="url(#gradient1)" fill-rule="evenodd" stroke="none"/>
    <path d="M139.3 28.2 L141.55 25.35 151.5 25.35 153.5 28.2 139.3 28.2" fill="url(#gradient2)" fill-rule="evenodd" stroke="none"/>
    <path d="M31.2 50.45 L26.55 50.45 22.0 47.15 22.0 44.05 22.0 42.05 27.55 42.05 34.85 42.05 39.9 45.9 39.9 48.2 28.35 48.2 22.0 44.05 28.35 48.2 39.9 48.2 39.9 50.45 31.2 50.45 M27.1 41.1 L12.35 41.1 6.55 36.9 6.55 33.05 6.55 32.95 6.55 30.4 22.1 30.4 24.0 30.4 Q26.2 30.25 28.45 30.4 L29.9 30.4 36.3 35.3 36.3 38.2 36.3 41.1 27.1 41.1 M21.55 29.3 L10.9 29.3 0.0 23.6 0.0 20.65 0.0 19.4 22.15 19.4 28.0 19.4 33.9 23.9 33.9 26.6 33.9 29.3 21.55 29.3 M134.95 25.35 L134.95 35.7 134.95 45.4 129.6 45.4 129.6 35.7 129.6 25.35 134.95 25.35 M134.95 35.7 L129.6 35.7 134.95 35.7 M83.15 25.35 L98.35 25.35 98.35 31.5 98.35 34.2 98.35 35.7 98.35 45.4 83.15 45.4 83.15 35.7 98.35 35.7 83.15 35.7 83.15 34.2 83.15 31.5 83.15 25.35 M100.8 31.5 L100.8 25.35 106.1 25.35 106.1 31.5 106.1 34.2 100.8 34.2 106.1 34.2 106.1 35.7 100.8 35.7 106.1 35.7 106.1 45.4 100.8 45.4 100.8 35.7 100.8 34.2 100.8 31.5 106.1 31.5 100.8 31.5 M80.5 25.35 L80.5 31.5 77.85 31.5 77.85 34.2 76.0 34.2 72.85 38.9 68.55 38.75 68.55 36.15 68.55 38.75 72.85 38.9 76.0 34.2 77.85 34.2 77.85 31.5 80.5 31.5 80.5 34.2 80.5 35.7 80.5 45.4 77.85 45.4 77.85 35.7 80.5 35.7 77.85 35.7 77.85 45.4 68.55 45.4 68.55 40.35 73.45 40.35 76.5 35.7 77.85 35.7 76.5 35.7 73.45 40.35 68.55 40.35 68.55 45.4 59.65 45.4 59.65 40.35 59.65 38.7 59.65 36.0 59.65 25.35 68.55 25.35 68.55 36.15 72.85 36.2 76.0 31.5 77.85 31.5 77.85 25.35 80.5 25.35 M98.35 31.5 L83.15 31.5 98.35 31.5 M98.35 34.2 L83.15 34.2 98.35 34.2 M77.85 25.35 L77.85 31.5 76.0 31.5 72.85 36.2 68.55 36.15 68.55 25.35 77.85 25.35 M77.85 34.2 L80.5 34.2 77.85 34.2 M59.65 38.7 L68.55 38.75 68.55 40.35 59.65 40.35 68.55 40.35 68.55 38.75 59.65 38.7 M68.55 36.15 L59.65 36.0 68.55 36.15 M6.55 32.95 L14.6 38.2 36.3 38.2 14.6 38.2 6.55 32.95 M0.0 20.65 L11.2 26.6 33.9 26.6 11.2 26.6 0.0 20.65" fill="#333333" fill-rule="evenodd" stroke="none"/>
    <path d="M110.45 28.2 L112.7 25.35 122.7 25.35 124.7 28.2 110.45 28.2" fill="url(#gradient3)" fill-rule="evenodd" stroke="none"/>
    <path d="M124.7 28.2 L124.7 35.7 110.1 35.7 110.1 28.65 110.45 28.2 124.7 28.2" fill="url(#gradient4)" fill-rule="evenodd" stroke="none"/>
    <path d="M124.7 42.55 L122.7 45.4 112.7 45.4 110.45 42.55 124.7 42.55" fill="url(#gradient5)" fill-rule="evenodd" stroke="none"/>
    <path d="M138.9 50.45 L133.6 50.45 129.6 45.4 134.95 45.4 138.9 50.45 M130.95 50.45 L128.3 50.45 124.7 50.45 126.4 48.05 127.65 46.3 130.95 50.45 M110.1 50.45 L104.8 50.45 104.4 49.95 100.8 45.4 106.1 45.4 110.1 50.45 M102.0 50.0 L102.35 50.45 101.9 50.45 87.15 50.45 86.75 49.95 83.15 45.4 98.35 45.4 102.0 50.0 M128.3 50.45 L126.4 48.05 128.3 50.45 M84.15 50.0 L84.5 50.45 81.8 50.45 72.55 50.45 63.65 50.45 59.65 45.4 68.55 45.4 77.85 45.4 80.5 45.4 84.15 50.0 M81.8 50.45 L77.85 45.4 81.8 50.45 M72.55 50.45 L68.55 45.4 72.55 50.45" fill="#212020" fill-rule="evenodd" stroke="none"/>
    <path d="M153.5 35.7 L153.5 42.55 139.3 42.55 138.9 42.1 138.9 35.7 153.5 35.7" fill="url(#gradient6)" fill-rule="evenodd" stroke="none"/>
    <path d="M153.5 42.55 L151.5 45.4 141.55 45.4 139.3 42.55 153.5 42.55" fill="url(#gradient7)" fill-rule="evenodd" stroke="none"/>
    <path d="M124.7 35.7 L124.7 42.55 110.45 42.55 110.1 42.1 110.1 35.7 124.7 35.7" fill="url(#gradient8)" fill-rule="evenodd" stroke="none"/>
    <path d="M60.5 67.25 L46.3 67.25 37.85 58.4 38.85 56.35 46.75 56.35 46.1 55.1 60.1 55.1 74.6 55.1 78.1 57.35 79.85 59.75 75.9 59.75 71.05 59.75 72.0 62.8 71.8 63.15 69.65 56.35 65.85 56.35 68.15 63.7 66.95 65.3 65.5 67.25 60.5 67.25 M27.55 42.05 L27.1 41.1 36.3 41.1 40.95 41.1 40.95 38.2 40.95 35.3 34.45 30.4 29.9 30.4 28.45 30.4 Q26.2 30.25 24.0 30.4 L22.1 30.4 21.55 29.3 33.9 29.3 38.2 29.3 38.2 26.6 38.2 23.9 35.8 22.05 44.5 22.05 44.5 32.2 54.85 42.55 54.85 48.45 54.05 48.45 44.0 38.6 44.0 44.5 47.9 48.45 43.5 48.45 43.5 48.2 43.5 45.9 38.5 42.05 34.85 42.05 27.55 42.05 M36.55 9.1 L36.55 4.9 40.55 4.9 40.55 7.55 36.55 9.1 M94.6 3.15 L94.7 3.15 95.95 3.35 Q97.15 3.7 98.05 4.75 L98.5 5.3 99.0 6.15 Q99.95 8.6 98.95 11.1 L98.35 12.0 98.05 12.35 Q96.7 13.95 94.7 13.95 L94.5 13.95 93.9 13.9 Q92.8 13.65 91.95 12.95 L91.3 12.35 91.05 12.0 92.6 12.0 95.45 12.0 95.8 11.85 Q96.65 11.6 97.25 11.0 98.3 10.05 98.3 8.65 L98.2 7.85 Q98.0 6.95 97.25 6.25 96.65 5.7 95.8 5.45 L94.8 5.3 92.1 5.3 90.9 5.3 91.3 4.75 Q92.25 3.7 93.5 3.35 L93.9 3.25 94.6 3.15 M49.8 4.9 L49.8 11.55 39.4 11.55 44.5 9.55 44.5 4.9 49.8 4.9 M54.85 36.05 L48.8 30.0 48.8 22.05 54.85 22.05 54.85 36.05 M46.75 56.35 L65.85 56.35 46.75 56.35 M43.5 61.1 L47.7 65.3 64.9 65.3 63.7 61.1 43.5 61.1" fill="#515151" fill-rule="evenodd" stroke="none"/>
    <path d="M92.6 12.0 L92.95 11.85 94.2 11.2 94.4 11.0 Q95.45 10.05 95.45 8.65 L95.35 7.85 Q95.15 6.95 94.4 6.25 L94.2 6.1 Q93.65 5.65 92.95 5.45 L92.1 5.3 94.8 5.3 95.8 5.45 Q96.65 5.7 97.25 6.25 98.0 6.95 98.2 7.85 L98.3 8.65 Q98.3 10.05 97.25 11.0 96.65 11.6 95.8 11.85 L95.45 12.0 92.6 12.0 M103.25 62.8 L104.15 62.55 Q105.2 62.55 105.9 63.25 106.7 64.15 106.7 65.2 106.7 66.3 105.9 67.05 105.2 67.75 104.15 67.75 L103.25 67.65 104.05 67.05 Q104.85 66.3 104.85 65.2 104.85 64.15 104.05 63.25 103.75 62.95 103.25 62.8 M72.25 11.9 L73.1 11.95 72.95 11.95 72.25 11.9" fill="#aa5501" fill-rule="evenodd" stroke="none"/>
    <path d="M92.1 5.3 L92.95 5.45 Q93.65 5.65 94.2 6.1 L94.4 6.25 Q95.15 6.95 95.35 7.85 L95.45 8.65 Q95.45 10.05 94.4 11.0 L94.2 11.2 92.95 11.85 92.6 12.0 91.05 12.0 90.9 12.0 90.9 5.3 90.9 12.0 89.25 12.0 87.2 12.0 86.4 12.0 83.85 12.0 83.85 5.3 83.85 12.0 80.5 12.0 79.1 12.0 77.3 12.0 76.85 12.0 76.85 5.3 76.85 12.0 74.45 12.0 74.25 12.0 73.3 11.95 73.1 11.95 72.25 11.9 71.95 11.8 71.35 11.5 70.7 10.95 70.5 10.7 70.5 6.45 70.5 10.7 Q69.8 9.85 69.8 8.7 L69.8 8.55 69.9 7.8 Q70.05 7.05 70.5 6.45 L70.7 6.2 71.35 5.7 71.95 5.4 72.25 5.35 72.9 5.25 72.95 5.25 73.1 5.25 73.1 11.95 73.1 5.25 73.35 5.3 73.55 5.3 74.25 5.3 74.6 5.3 76.85 5.3 77.3 5.3 78.95 5.3 80.5 5.3 83.85 5.3 86.55 5.3 87.2 5.3 89.25 5.3 90.9 5.3 92.1 5.3 M94.2 11.2 L94.2 6.1 94.2 11.2 M87.2 5.3 L87.2 12.0 87.2 5.3 M80.5 5.3 L80.5 12.0 80.5 5.3" fill="url(#gradient9)" fill-rule="evenodd" stroke="none"/>
    <path d="M89.25 3.15 L93.2 3.15 94.6 3.15 93.9 3.25 93.5 3.35 Q92.25 3.7 91.3 4.75 L90.9 5.3 89.25 5.3 89.25 3.15 M94.5 13.95 L93.25 13.95 89.25 13.95 89.25 12.0 90.9 12.0 91.05 12.0 91.3 12.35 91.95 12.95 Q92.8 13.65 93.9 13.9 L94.5 13.95 M93.2 3.15 L93.9 3.25 93.2 3.15 M93.25 13.95 L93.9 13.9 93.25 13.95" fill="url(#gradient10)" fill-rule="evenodd" stroke="none"/>
    <path d="M87.55 3.15 L89.25 3.15 89.25 5.3 87.2 5.3 86.55 5.3 86.1 4.75 Q85.2 3.7 84.0 3.35 L82.9 3.15 87.55 3.15 M89.25 13.95 L85.7 13.95 82.9 13.95 Q84.8 13.9 86.1 12.35 L86.4 12.0 87.2 12.0 89.25 12.0 89.25 13.95 M77.3 3.15 L77.3 5.3 76.85 5.3 74.6 5.3 74.25 4.85 74.15 4.75 Q73.25 3.7 72.05 3.35 L70.9 3.15 77.3 3.15 M77.3 13.95 L70.95 13.95 Q72.8 13.9 74.1 12.45 L74.15 12.35 74.25 12.25 74.45 12.0 76.85 12.0 77.3 12.0 77.3 13.95 M70.7 13.95 L58.85 13.95 58.7 13.95 Q56.85 13.9 55.45 12.35 54.05 10.75 54.05 8.55 L54.1 8.1 54.1 7.8 Q54.3 6.05 55.45 4.75 56.9 3.15 58.85 3.15 L61.45 3.15 Q59.55 3.2 58.15 4.75 L57.45 5.8 57.15 6.75 59.75 6.8 66.25 6.8 66.65 5.8 67.35 4.75 Q68.75 3.2 70.65 3.15 L69.6 3.35 Q68.35 3.7 67.4 4.75 L66.7 5.8 Q66.2 6.7 66.05 7.8 L66.05 7.95 59.7 7.95 59.75 6.8 59.7 7.95 66.05 7.95 66.0 8.55 66.0 8.6 Q66.05 10.1 66.7 11.3 L67.4 12.35 68.05 12.95 Q69.2 13.9 70.7 13.95 M74.1 12.45 L74.25 12.25 74.1 12.45" fill="url(#gradient11)" fill-rule="evenodd" stroke="none"/>
    <path d="M82.9 3.15 L84.0 3.35 Q85.2 3.7 86.1 4.75 L86.55 5.3 83.85 5.3 80.5 5.3 78.95 5.3 79.35 4.75 Q80.3 3.7 81.55 3.35 L82.65 3.15 82.9 3.15" fill="url(#gradient12)" fill-rule="evenodd" stroke="none"/>
    <path d="M82.65 3.15 L81.55 3.35 Q80.3 3.7 79.35 4.75 L78.95 5.3 77.3 5.3 77.3 3.15 82.65 3.15 M82.65 13.95 L77.3 13.95 77.3 12.0 79.1 12.0 79.35 12.35 80.0 12.95 Q81.15 13.9 82.65 13.95" fill="url(#gradient13)" fill-rule="evenodd" stroke="none"/>
    <path d="M101.9 50.45 L98.25 55.1 86.3 55.1 74.6 55.1 60.1 55.1 54.85 48.45 54.85 42.55 54.85 36.05 54.85 22.05 60.1 15.4 53.85 15.4 52.6 11.55 49.8 11.55 49.8 4.9 54.75 0.0 84.35 0.0 87.55 3.15 82.9 3.15 82.65 3.15 77.3 3.15 70.9 3.15 70.65 3.15 61.45 3.15 58.85 3.15 Q56.9 3.15 55.45 4.75 54.3 6.05 54.1 7.8 L54.1 8.1 54.05 8.55 Q54.05 10.75 55.45 12.35 56.85 13.9 58.7 13.95 L58.85 13.95 70.7 13.95 70.95 13.95 77.3 13.95 82.65 13.95 82.9 13.95 85.7 13.95 85.25 15.4 98.25 15.4 102.15 20.3 87.15 20.3 86.6 21.0 84.05 20.9 84.5 20.3 81.8 20.3 72.55 20.3 63.65 20.3 59.65 25.35 59.65 36.0 59.65 38.7 59.65 40.35 59.65 45.4 63.65 50.45 72.55 50.45 81.8 50.45 84.5 50.45 84.15 50.0 86.75 49.95 87.15 50.45 101.9 50.45 M91.55 59.75 L91.65 61.05 87.2 61.05 Q85.5 61.05 84.35 62.25 83.15 63.4 83.15 65.1 83.15 66.75 84.35 67.95 85.5 69.15 87.2 69.15 L90.3 69.15 Q89.0 71.5 86.45 72.2 L85.0 72.2 Q79.1 70.6 79.9 59.75 L91.55 59.75 M85.25 15.4 L60.1 15.4 85.25 15.4" fill="#757575" fill-rule="evenodd" stroke="none"/>
    <path d="M86.4 12.0 L86.1 12.35 Q84.8 13.9 82.9 13.95 L82.65 13.95 Q81.15 13.9 80.0 12.95 L79.35 12.35 79.1 12.0 80.5 12.0 83.85 12.0 86.4 12.0" fill="url(#gradient14)" fill-rule="evenodd" stroke="none"/>
    <path d="M84.05 20.9 L86.6 21.0 83.15 25.35 83.15 31.5 80.5 31.5 83.15 31.5 83.15 34.2 83.15 35.7 83.15 45.4 80.5 45.4 80.5 35.7 80.5 34.2 83.15 34.2 80.5 34.2 80.5 31.5 80.5 25.35 83.15 25.35 80.5 25.35 84.05 20.9 M83.15 35.7 L80.5 35.7 83.15 35.7" fill="#3d3b3b" fill-rule="evenodd" stroke="none"/>
    <path d="M93.8 61.05 Q95.05 59.85 96.9 59.75 L99.1 59.8 Q97.35 60.05 96.1 61.35 L95.55 62.0 99.95 62.0 Q99.0 63.3 99.0 65.1 L99.05 65.75 99.0 65.1 Q99.0 63.3 99.95 62.0 L100.5 61.35 Q101.75 60.05 103.5 59.85 L103.85 59.85 Q105.35 60.15 106.45 61.35 107.95 62.85 107.95 65.1 107.95 67.3 106.45 68.9 105.3 70.15 103.85 70.4 L103.5 70.45 Q101.75 70.2 100.5 68.9 99.25 67.55 99.05 65.75 L94.65 65.75 Q94.85 67.55 96.1 68.9 97.35 70.2 99.1 70.45 L96.9 70.45 Q95.05 70.4 93.75 69.15 L93.5 68.9 Q92.0 67.3 92.0 65.1 92.0 62.85 93.5 61.35 L93.8 61.05 M103.25 67.65 L104.15 67.75 Q105.2 67.75 105.9 67.05 106.7 66.3 106.7 65.2 106.7 64.15 105.9 63.25 105.2 62.55 104.15 62.55 L103.25 62.8 Q102.85 62.95 102.5 63.25 101.75 64.15 101.75 65.2 101.75 66.3 102.5 67.05 L103.25 67.65" fill="url(#gradient15)" fill-rule="evenodd" stroke="none"/>
    <path d="M103.25 67.65 L102.5 67.05 Q101.75 66.3 101.75 65.2 101.75 64.15 102.5 63.25 102.85 62.95 103.25 62.8 103.75 62.95 104.05 63.25 104.85 64.15 104.85 65.2 104.85 66.3 104.05 67.05 L103.25 67.65" fill="url(#gradient16)" fill-rule="evenodd" stroke="none"/>
    <path d="M99.1 59.8 L103.5 59.85 Q101.75 60.05 100.5 61.35 L99.95 62.0 95.55 62.0 96.1 61.35 Q97.35 60.05 99.1 59.8" fill="#676767" fill-rule="evenodd" stroke="none"/>
    <path d="M91.65 61.05 L93.8 61.05 93.5 61.35 Q92.0 62.85 92.0 65.1 92.0 67.3 93.5 68.9 L93.75 69.15 93.15 69.15 92.95 69.15 90.3 69.15 87.2 69.15 Q85.5 69.15 84.35 67.95 83.15 66.75 83.15 65.1 83.15 63.4 84.35 62.25 85.5 61.05 87.2 61.05 L91.65 61.05" fill="url(#gradient17)" fill-rule="evenodd" stroke="none"/>
    <path d="M86.75 49.95 L84.15 50.0 80.5 45.4 83.15 45.4 86.75 49.95" fill="#131313" fill-rule="evenodd" stroke="none"/>
    <path d="M86.3 55.1 L89.8 57.35 91.55 59.75 79.9 59.75 79.85 59.75 78.1 57.35 74.6 55.1 86.3 55.1 M65.85 56.35 L69.65 56.35 71.8 63.15 71.95 63.7 71.35 63.7 68.15 63.7 65.85 56.35 M78.1 57.35 L89.8 57.35 78.1 57.35" fill="#898989" fill-rule="evenodd" stroke="none"/>
    <path d="M85.0 72.2 L81.05 72.2 65.1 72.2 Q61.65 71.25 60.5 67.25 L65.5 67.25 69.3 67.25 71.95 63.7 69.3 67.25 65.5 67.25 66.95 65.3 70.15 65.3 71.35 63.7 71.95 63.7 71.8 63.15 72.0 62.8 71.05 59.75 75.9 59.75 79.85 59.75 79.9 59.75 Q79.1 70.6 85.0 72.2 M75.9 59.75 Q75.1 70.6 81.05 72.2 75.1 70.6 75.9 59.75" fill="url(#gradient18)" fill-rule="evenodd" stroke="none"/>
    <path d="M70.95 13.95 L70.7 13.95 Q69.2 13.9 68.05 12.95 L67.4 12.35 66.7 11.3 Q66.05 10.1 66.0 8.6 L66.0 8.55 66.05 7.95 66.05 7.8 Q66.2 6.7 66.7 5.8 L67.4 4.75 Q68.35 3.7 69.6 3.35 L70.65 3.15 70.9 3.15 72.05 3.35 Q73.25 3.7 74.15 4.75 L74.25 4.85 74.25 5.3 74.25 4.85 74.6 5.3 74.25 5.3 73.55 5.3 73.35 5.3 73.1 5.25 72.95 5.25 72.9 5.25 72.25 5.35 71.95 5.4 71.35 5.7 70.7 6.2 70.5 6.45 Q70.05 7.05 69.9 7.8 L69.8 8.55 69.8 8.7 Q69.8 9.85 70.5 10.7 L70.7 10.95 71.35 11.5 71.95 11.8 72.25 11.9 72.95 11.95 73.1 11.95 73.3 11.95 74.25 12.0 74.45 12.0 74.25 12.25 74.15 12.35 74.1 12.45 Q72.8 13.9 70.95 13.95 M74.25 12.0 L74.25 12.25 74.25 12.0" fill="url(#gradient19)" fill-rule="evenodd" stroke="none"/>
    <path d="M22.15 19.4 L24.25 16.7 33.8 16.7 34.85 15.4 40.6 15.4 53.85 15.4 60.1 15.4 54.85 22.05 48.8 22.05 44.5 22.05 35.8 22.05 32.3 19.4 31.7 19.4 28.45 19.4 28.0 19.4 22.15 19.4 M36.55 4.9 L41.45 0.0 45.45 0.0 40.55 4.9 36.55 4.9 M49.4 0.0 L54.75 0.0 49.8 4.9 44.5 4.9 49.4 0.0 M33.8 16.7 L31.7 19.4 33.8 16.7" fill="#686868" fill-rule="evenodd" stroke="none"/>
    <path d="M44.5 22.05 L48.8 22.05 48.8 30.0 54.85 36.05 54.85 42.55 44.5 32.2 44.5 22.05" fill="url(#gradient20)" fill-rule="evenodd" stroke="none"/>
    <path d="M40.95 35.3 L40.95 38.2 40.95 41.1 36.3 41.1 36.3 38.2 36.3 35.3 40.95 35.3 M43.5 48.45 L43.5 50.45 39.9 50.45 39.9 48.2 39.9 45.9 43.5 45.9 43.5 48.2 43.5 48.45 M33.9 23.9 L38.2 23.9 38.2 26.6 33.9 26.6 38.2 26.6 38.2 29.3 33.9 29.3 33.9 26.6 33.9 23.9 M40.95 38.2 L36.3 38.2 40.95 38.2 M71.35 63.7 L70.15 65.3 66.95 65.3 68.15 63.7 71.35 63.7 M43.5 48.2 L39.9 48.2 43.5 48.2" fill="#444444" fill-rule="evenodd" stroke="none"/>
    <path d="M47.9 48.45 L44.0 44.5 44.0 38.6 54.05 48.45 47.9 48.45" fill="url(#gradient21)" fill-rule="evenodd" stroke="none"/>
    <path d="M46.1 55.1 L34.85 55.1 31.2 50.45 39.9 50.45 43.5 50.45 43.5 48.45 47.9 48.45 54.05 48.45 54.85 48.45 60.1 55.1 46.1 55.1" fill="#3f3f3f" fill-rule="evenodd" stroke="none"/>
    <path d="M28.0 19.4 L28.45 19.4 31.7 19.4 32.3 19.4 35.8 22.05 38.2 23.9 33.9 23.9 28.0 19.4 M29.9 30.4 L34.45 30.4 40.95 35.3 36.3 35.3 29.9 30.4 M39.9 45.9 L34.85 42.05 38.5 42.05 43.5 45.9 39.9 45.9" fill="#5b5b5b" fill-rule="evenodd" stroke="none"/>
    <path d="M43.5 61.1 L63.7 61.1 64.9 65.3 47.7 65.3 43.5 61.1" fill="url(#gradient22)" fill-rule="evenodd" stroke="none"/>
    <path d="M133.6 20.3 L130.95 20.3 127.65 24.45 128.3 25.35 129.6 25.35 133.6 20.3 138.9 20.3 153.5 20.3 157.1 25.35 157.1 45.4 153.5 50.45 138.9 50.45 133.6 50.45 130.95 50.45 128.3 50.45 124.7 50.45 110.1 50.45 104.8 50.45 104.4 49.95 102.0 50.0 102.35 50.45 101.9 50.45 98.25 55.1 86.3 55.1 89.8 57.35 91.55 59.75 91.65 61.05 93.8 61.05 Q95.05 59.85 96.9 59.75 L99.1 59.8 103.5 59.85 103.85 59.85 Q105.35 60.15 106.45 61.35 107.95 62.85 107.95 65.1 107.95 67.3 106.45 68.9 105.3 70.15 103.85 70.4 L103.5 70.45 Q101.75 70.2 100.5 68.9 99.25 67.55 99.05 65.75 L94.65 65.75 Q94.85 67.55 96.1 68.9 97.35 70.2 99.1 70.45 L96.9 70.45 Q95.05 70.4 93.75 69.15 L93.15 69.15 M103.1 70.45 L99.1 70.45 M92.95 69.15 L90.3 69.15 Q89.0 71.5 86.45 72.2 L85.0 72.2 81.05 72.2 65.1 72.2 Q61.65 71.25 60.5 67.25 L46.3 67.25 37.85 58.4 38.85 56.35 46.75 56.35 46.1 55.1 34.85 55.1 31.2 50.45 26.55 50.45 22.0 47.15 22.0 44.05 22.0 42.05 27.55 42.05 27.1 41.1 12.35 41.1 6.55 36.9 6.55 33.05 M6.55 32.95 L6.55 30.4 22.1 30.4 21.55 29.3 10.9 29.3 0.0 23.6 0.0 20.65 0.0 19.4 22.15 19.4 24.25 16.7 33.8 16.7 34.85 15.4 40.6 15.4 39.35 11.55 36.55 11.55 36.55 9.1 36.55 4.9 41.45 0.0 45.45 0.0 49.4 0.0 54.75 0.0 84.35 0.0 87.55 3.15 89.25 3.15 93.2 3.15 94.6 3.15 94.7 3.15 95.95 3.35 Q97.15 3.7 98.05 4.75 L98.5 5.3 99.0 6.15 Q99.95 8.6 98.95 11.1 L98.35 12.0 98.05 12.35 Q96.7 13.95 94.7 13.95 L94.5 13.95 93.25 13.95 89.25 13.95 85.7 13.95 85.25 15.4 98.25 15.4 102.15 20.3 102.35 20.3 102.0 20.8 104.4 20.85 104.8 20.3 110.1 20.3 124.7 20.3 128.3 20.3 130.95 20.3 M127.65 24.45 L126.4 22.7 124.7 20.3 M126.4 22.7 L128.3 20.3 M138.9 35.7 L138.9 28.65 139.3 28.2 141.55 25.35 151.5 25.35 153.5 28.2 153.5 35.7 153.5 42.55 151.5 45.4 141.55 45.4 139.3 42.55 M138.9 42.1 L138.9 35.7 153.5 35.7 M134.95 25.35 L134.95 35.7 134.95 45.4 138.9 50.45 M129.6 25.35 L129.6 35.7 134.95 35.7 M124.7 28.2 L124.7 35.7 124.7 42.55 122.7 45.4 112.7 45.4 110.45 42.55 110.1 42.1 110.1 35.7 110.1 28.65 110.45 28.2 112.7 25.35 122.7 25.35 124.7 28.2 110.45 28.2 M128.3 35.7 L129.6 35.7 129.6 45.4 134.95 45.4 M128.3 25.35 L128.3 35.7 128.3 45.4 129.6 45.4 133.6 50.45 M127.65 46.3 L126.4 48.05 128.3 50.45 M128.3 45.4 L127.65 46.3 130.95 50.45 M129.6 25.35 L134.95 25.35 138.9 20.3 M139.3 28.2 L153.5 28.2 M153.5 42.55 L139.3 42.55 M90.9 5.3 L91.3 4.75 Q92.25 3.7 93.5 3.35 L93.9 3.25 93.2 3.15 M92.1 5.3 L92.95 5.45 Q93.65 5.65 94.2 6.1 L94.4 6.25 Q95.15 6.95 95.35 7.85 L95.45 8.65 Q95.45 10.05 94.4 11.0 L94.2 11.2 92.95 11.85 92.6 12.0 95.45 12.0 95.8 11.85 Q96.65 11.6 97.25 11.0 98.3 10.05 98.3 8.65 L98.2 7.85 Q98.0 6.95 97.25 6.25 96.65 5.7 95.8 5.45 L94.8 5.3 92.1 5.3 90.9 5.3 90.9 12.0 91.05 12.0 92.6 12.0 M93.9 3.25 L94.6 3.15 M94.2 6.1 L94.2 11.2 M82.9 3.15 L84.0 3.35 Q85.2 3.7 86.1 4.75 L86.55 5.3 87.2 5.3 89.25 5.3 90.9 5.3 M82.65 3.15 L82.9 3.15 87.55 3.15 M78.95 5.3 L79.35 4.75 Q80.3 3.7 81.55 3.35 L82.65 3.15 77.3 3.15 M77.3 5.3 L78.95 5.3 80.5 5.3 83.85 5.3 86.55 5.3 M86.4 12.0 L87.2 12.0 87.2 5.3 M86.4 12.0 L86.1 12.35 Q84.8 13.9 82.9 13.95 L85.7 13.95 M89.25 12.0 L90.9 12.0 M87.2 12.0 L89.25 12.0 M83.85 5.3 L83.85 12.0 86.4 12.0 M82.9 13.95 L82.65 13.95 77.3 13.95 70.95 13.95 70.7 13.95 58.85 13.95 58.7 13.95 Q56.85 13.9 55.45 12.35 54.05 10.75 54.05 8.55 L54.1 8.1 54.1 7.8 Q54.3 6.05 55.45 4.75 56.9 3.15 58.85 3.15 L61.45 3.15 M70.65 3.15 L70.9 3.15 77.3 3.15 M86.6 21.0 L87.15 20.3 102.15 20.3 M81.8 20.3 L84.5 20.3 84.05 20.9 86.6 21.0 83.15 25.35 98.35 25.35 102.0 20.8 M94.5 13.95 L93.9 13.9 93.25 13.95 M93.9 13.9 Q92.8 13.65 91.95 12.95 L91.3 12.35 91.05 12.0 M100.8 25.35 L98.35 25.35 98.35 31.5 100.8 31.5 100.8 25.35 104.4 20.85 M100.8 31.5 L100.8 34.2 106.1 34.2 106.1 31.5 100.8 31.5 M98.35 31.5 L98.35 34.2 100.8 34.2 100.8 35.7 106.1 35.7 106.1 34.2 M100.8 35.7 L98.35 35.7 98.35 45.4 100.8 45.4 100.8 35.7 M98.35 34.2 L98.35 35.7 83.15 35.7 83.15 45.4 98.35 45.4 102.0 50.0 M83.15 31.5 L83.15 25.35 80.5 25.35 80.5 31.5 83.15 31.5 98.35 31.5 M83.15 35.7 L83.15 34.2 80.5 34.2 80.5 35.7 83.15 35.7 M83.15 34.2 L83.15 31.5 M83.15 34.2 L98.35 34.2 M106.1 25.35 L106.1 31.5 M106.1 45.4 L106.1 35.7 M106.1 25.35 L100.8 25.35 M110.1 20.3 L106.1 25.35 M100.8 45.4 L106.1 45.4 110.1 50.45 M103.25 62.8 L104.15 62.55 Q105.2 62.55 105.9 63.25 106.7 64.15 106.7 65.2 106.7 66.3 105.9 67.05 105.2 67.75 104.15 67.75 L103.25 67.65 102.5 67.05 Q101.75 66.3 101.75 65.2 101.75 64.15 102.5 63.25 102.85 62.95 103.25 62.8 103.75 62.95 104.05 63.25 104.85 64.15 104.85 65.2 104.85 66.3 104.05 67.05 L103.25 67.65 M99.95 62.0 L95.55 62.0 96.1 61.35 Q97.35 60.05 99.1 59.8 M93.8 61.05 L93.5 61.35 Q92.0 62.85 92.0 65.1 92.0 67.3 93.5 68.9 L93.75 69.15 M86.75 49.95 L87.15 50.45 101.9 50.45 M84.15 50.0 L84.5 50.45 81.8 50.45 72.55 50.45 63.65 50.45 59.65 45.4 59.65 40.35 59.65 38.7 59.65 36.0 59.65 25.35 63.65 20.3 72.55 20.3 81.8 20.3 77.85 25.35 80.5 25.35 84.05 20.9 M86.75 49.95 L84.15 50.0 80.5 45.4 77.85 45.4 81.8 50.45 M91.65 61.05 L87.2 61.05 Q85.5 61.05 84.35 62.25 83.15 63.4 83.15 65.1 83.15 66.75 84.35 67.95 85.5 69.15 87.2 69.15 L90.3 69.15 M99.05 65.75 L99.0 65.1 Q99.0 63.3 99.95 62.0 L100.5 61.35 Q101.75 60.05 103.5 59.85 M126.4 48.05 L124.7 50.45 M100.8 45.4 L104.4 49.95 M86.75 49.95 L83.15 45.4 80.5 45.4 80.5 35.7 77.85 35.7 77.85 45.4 68.55 45.4 72.55 50.45 M124.7 35.7 L110.1 35.7 M124.7 42.55 L110.45 42.55 M77.3 5.3 L76.85 5.3 76.85 12.0 77.3 12.0 79.1 12.0 80.5 12.0 80.5 5.3 M73.1 5.25 L72.95 5.25 72.9 5.25 72.25 5.35 71.95 5.4 71.35 5.7 70.7 6.2 70.5 6.45 70.5 10.7 70.7 10.95 71.35 11.5 71.95 11.8 72.25 11.9 73.1 11.95 73.1 5.25 73.35 5.3 73.55 5.3 74.25 5.3 74.25 4.85 74.15 4.75 Q73.25 3.7 72.05 3.35 L70.9 3.15 M74.6 5.3 L74.25 5.3 M74.25 4.85 L74.6 5.3 76.85 5.3 M72.25 11.9 L72.95 11.95 73.1 11.95 73.3 11.95 74.25 12.0 74.45 12.0 76.85 12.0 M70.95 13.95 Q72.8 13.9 74.1 12.45 L74.15 12.35 74.25 12.25 74.25 12.0 M74.25 12.25 L74.45 12.0 M82.65 13.95 Q81.15 13.9 80.0 12.95 L79.35 12.35 79.1 12.0 M66.05 7.95 L66.05 7.8 Q66.2 6.7 66.7 5.8 L67.4 4.75 Q68.35 3.7 69.6 3.35 L70.65 3.15 M66.25 6.8 L59.75 6.8 59.7 7.95 66.05 7.95 66.0 8.55 66.0 8.6 Q66.05 10.1 66.7 11.3 L67.4 12.35 68.05 12.95 Q69.2 13.9 70.7 13.95 M70.5 6.45 Q70.05 7.05 69.9 7.8 L69.8 8.55 69.8 8.7 Q69.8 9.85 70.5 10.7 M74.25 12.25 L74.1 12.45 M59.75 6.8 L57.15 6.75 57.45 5.8 58.15 4.75 Q59.55 3.2 61.45 3.15 M44.5 4.9 L40.55 4.9 40.55 7.55 36.55 9.1 M40.55 4.9 L45.45 0.0 M49.8 11.55 L49.8 4.9 44.5 4.9 44.5 9.55 39.4 11.55 49.8 11.55 52.6 11.55 53.85 15.4 60.1 15.4 85.25 15.4 M44.5 4.9 L49.4 0.0 M48.8 22.05 L44.5 22.05 44.5 32.2 54.85 42.55 54.85 36.05 48.8 30.0 48.8 22.05 54.85 22.05 60.1 15.4 M54.75 0.0 L49.8 4.9 M53.85 15.4 L40.6 15.4 M40.95 35.3 L40.95 38.2 40.95 41.1 36.3 41.1 27.1 41.1 M54.05 48.45 L44.0 38.6 44.0 44.5 47.9 48.45 54.05 48.45 54.85 48.45 54.85 42.55 M47.9 48.45 L43.5 48.45 43.5 50.45 39.9 50.45 31.2 50.45 M43.5 45.9 L43.5 48.2 43.5 48.45 M68.55 25.35 L68.55 36.15 72.85 36.2 76.0 31.5 77.85 31.5 77.85 25.35 68.55 25.35 72.55 20.3 M68.55 36.15 L68.55 38.75 72.85 38.9 76.0 34.2 77.85 34.2 77.85 31.5 80.5 31.5 80.5 34.2 77.85 34.2 M77.85 35.7 L76.5 35.7 73.45 40.35 68.55 40.35 68.55 45.4 59.65 45.4 M59.65 40.35 L68.55 40.35 68.55 38.75 59.65 38.7 M59.65 25.35 L68.55 25.35 M59.65 36.0 L68.55 36.15 M54.85 22.05 L54.85 36.05 M39.35 11.55 L39.4 11.55 M28.0 19.4 L33.9 23.9 38.2 23.9 35.8 22.05 32.3 19.4 31.7 19.4 28.45 19.4 M28.0 19.4 L22.15 19.4 M31.7 19.4 L33.8 16.7 M36.3 38.2 L14.6 38.2 6.55 32.95 M33.9 26.6 L38.2 26.6 38.2 23.9 M33.9 29.3 L38.2 29.3 38.2 26.6 M33.9 26.6 L33.9 29.3 21.55 29.3 M22.1 30.4 L24.0 30.4 M29.9 30.4 L34.45 30.4 40.95 35.3 36.3 35.3 36.3 38.2 40.95 38.2 M22.0 44.05 L28.35 48.2 39.9 48.2 39.9 45.9 34.85 42.05 27.55 42.05 M34.85 42.05 L38.5 42.05 43.5 45.9 39.9 45.9 M29.9 30.4 L36.3 35.3 M33.9 23.9 L33.9 26.6 11.2 26.6 0.0 20.65 M79.85 59.75 L79.9 59.75 91.55 59.75 M79.85 59.75 L78.1 57.35 74.6 55.1 60.1 55.1 46.1 55.1 M71.05 59.75 L75.9 59.75 79.85 59.75 M65.85 56.35 L69.65 56.35 71.8 63.15 71.95 63.7 69.3 67.25 65.5 67.25 60.5 67.25 M66.95 65.3 L65.5 67.25 M68.15 63.7 L66.95 65.3 M71.95 63.7 L71.35 63.7 68.15 63.7 65.85 56.35 46.75 56.35 M43.5 61.1 L47.7 65.3 64.9 65.3 63.7 61.1 43.5 61.1 M36.55 4.9 L40.55 4.9 M44.5 22.05 L35.8 22.05 M39.9 48.2 L43.5 48.2 M39.9 50.45 L39.9 48.2 M60.1 55.1 L54.85 48.45 M80.5 12.0 L83.85 12.0 M79.9 59.75 Q79.1 70.6 85.0 72.2 M89.8 57.35 L78.1 57.35 M81.05 72.2 Q75.1 70.6 75.9 59.75 M86.3 55.1 L74.6 55.1" fill="none" stroke="#000000" stroke-width="0.7" stroke-opacity="0.4"/>
  </g>
  <defs>
    <radialGradient cx="0" cy="0" gradientTransform="matrix(0.0, 0.0, 0.0, 0.0, -326.0, -164.4)" gradientUnits="userSpaceOnUse" id="gradient0" r="819.2" spreadMethod="pad">
      <stop offset="0.19607843137254902" stop-color="#ffe525"/>
      <stop offset="0.3568627450980392" stop-color="#ffc810"/>
      <stop offset="1.0" stop-color="#f08400"/>
    </radialGradient>
    <linearGradient gradientTransform="matrix(0.0089, 0.0, 0.0, 0.0046, 146.2, 31.95)" gradientUnits="userSpaceOnUse" id="gradient1" spreadMethod="pad" x1="-819.2" x2="819.2">
      <stop offset="0.0" stop-color="#956915"/>
      <stop offset="1.0" stop-color="#000000"/>
    </linearGradient>
    <linearGradient gradientTransform="matrix(0.0087, 0.0, 0.0, 0.0017, 146.4, 26.75)" gradientUnits="userSpaceOnUse" id="gradient2" spreadMethod="pad" x1="-819.2" x2="819.2">
      <stop offset="0.0" stop-color="#956915"/>
      <stop offset="1.0" stop-color="#000000"/>
    </linearGradient>
    <linearGradient gradientTransform="matrix(0.0087, 0.0, 0.0, 0.0017, 117.6, 26.75)" gradientUnits="userSpaceOnUse" id="gradient3" spreadMethod="pad" x1="-819.2" x2="819.2">
      <stop offset="0.0" stop-color="#956915"/>
      <stop offset="1.0" stop-color="#000000"/>
    </linearGradient>
    <linearGradient gradientTransform="matrix(0.0089, 0.0, 0.0, 0.0046, 117.4, 31.95)" gradientUnits="userSpaceOnUse" id="gradient4" spreadMethod="pad" x1="-819.2" x2="819.2">
      <stop offset="0.0" stop-color="#956915"/>
      <stop offset="1.0" stop-color="#000000"/>
    </linearGradient>
    <linearGradient gradientTransform="matrix(0.0087, 0.0, 0.0, 0.0017, 117.6, 43.95)" gradientUnits="userSpaceOnUse" id="gradient5" spreadMethod="pad" x1="-819.2" x2="819.2">
      <stop offset="0.0" stop-color="#956915"/>
      <stop offset="1.0" stop-color="#000000"/>
    </linearGradient>
    <linearGradient gradientTransform="matrix(0.0089, 0.0, 0.0, 0.0042, 146.2, 39.1)" gradientUnits="userSpaceOnUse" id="gradient6" spreadMethod="pad" x1="-819.2" x2="819.2">
      <stop offset="0.0" stop-color="#956915"/>
      <stop offset="1.0" stop-color="#000000"/>
    </linearGradient>
    <linearGradient gradientTransform="matrix(0.0087, 0.0, 0.0, 0.0017, 146.4, 43.95)" gradientUnits="userSpaceOnUse" id="gradient7" spreadMethod="pad" x1="-819.2" x2="819.2">
      <stop offset="0.0" stop-color="#956915"/>
      <stop offset="1.0" stop-color="#000000"/>
    </linearGradient>
    <linearGradient gradientTransform="matrix(0.0089, 0.0, 0.0, 0.0042, 117.4, 39.1)" gradientUnits="userSpaceOnUse" id="gradient8" spreadMethod="pad" x1="-819.2" x2="819.2">
      <stop offset="0.0" stop-color="#956915"/>
      <stop offset="1.0" stop-color="#000000"/>
    </linearGradient>
    <radialGradient cx="0" cy="0" gradientTransform="matrix(0.017, 0.0, 0.0, 0.017, 83.3, 8.3)" gradientUnits="userSpaceOnUse" id="gradient9" r="819.2" spreadMethod="pad">
      <stop offset="0.19607843137254902" stop-color="#ffe525"/>
      <stop offset="0.3568627450980392" stop-color="#ffc810"/>
      <stop offset="1.0" stop-color="#f08400"/>
    </radialGradient>
    <linearGradient gradientTransform="matrix(0.0, 0.0066, -0.0101, 0.0, 86.3, 8.55)" gradientUnits="userSpaceOnUse" id="gradient10" spreadMethod="pad" x1="-819.2" x2="819.2">
      <stop offset="0.0" stop-color="#515151"/>
      <stop offset="0.27450980392156865" stop-color="#969696"/>
      <stop offset="1.0" stop-color="#333333"/>
    </linearGradient>
    <linearGradient gradientTransform="matrix(0.0, 0.0066, -0.0101, 0.0, 62.4, 8.55)" gradientUnits="userSpaceOnUse" id="gradient11" spreadMethod="pad" x1="-819.2" x2="819.2">
      <stop offset="0.0" stop-color="#515151"/>
      <stop offset="0.27450980392156865" stop-color="#969696"/>
      <stop offset="1.0" stop-color="#333333"/>
    </linearGradient>
    <radialGradient cx="0" cy="0" gradientTransform="matrix(0.0083, 0.0, 0.0, 0.0083, 79.8, 4.75)" gradientUnits="userSpaceOnUse" id="gradient12" r="819.2" spreadMethod="pad">
      <stop offset="0.0" stop-color="#969696"/>
      <stop offset="0.6392156862745098" stop-color="#333333"/>
    </radialGradient>
    <linearGradient gradientTransform="matrix(0.0, 0.0066, -0.0101, 0.0, 74.35, 8.55)" gradientUnits="userSpaceOnUse" id="gradient13" spreadMethod="pad" x1="-819.2" x2="819.2">
      <stop offset="0.0" stop-color="#515151"/>
      <stop offset="0.27450980392156865" stop-color="#969696"/>
      <stop offset="1.0" stop-color="#333333"/>
    </linearGradient>
    <radialGradient cx="0" cy="0" gradientTransform="matrix(0.0116, 0.0, 0.0, 0.0116, 78.9, 6.5)" gradientUnits="userSpaceOnUse" id="gradient14" r="819.2" spreadMethod="pad">
      <stop offset="0.0" stop-color="#969696"/>
      <stop offset="0.6392156862745098" stop-color="#333333"/>
    </radialGradient>
    <linearGradient gradientTransform="matrix(0.0, 0.0065, -0.0175, 0.0, 93.45, 65.0)" gradientUnits="userSpaceOnUse" id="gradient15" spreadMethod="pad" x1="-819.2" x2="819.2">
      <stop offset="0.0" stop-color="#515151"/>
      <stop offset="0.27450980392156865" stop-color="#969696"/>
      <stop offset="1.0" stop-color="#333333"/>
    </linearGradient>
    <radialGradient cx="0" cy="0" gradientTransform="matrix(0.0047, 0.0, 0.0, 0.005, 101.8, 65.5)" gradientUnits="userSpaceOnUse" id="gradient16" r="819.2" spreadMethod="pad">
      <stop offset="0.19607843137254902" stop-color="#ffe525"/>
      <stop offset="0.3568627450980392" stop-color="#ffc810"/>
      <stop offset="1.0" stop-color="#f08400"/>
    </radialGradient>
    <linearGradient gradientTransform="matrix(0.0, 0.0049, -0.0141, 0.0, 94.7, 65.05)" gradientUnits="userSpaceOnUse" id="gradient17" spreadMethod="pad" x1="-819.2" x2="819.2">
      <stop offset="0.0" stop-color="#515151"/>
      <stop offset="0.27450980392156865" stop-color="#969696"/>
      <stop offset="1.0" stop-color="#333333"/>
    </linearGradient>
    <linearGradient gradientTransform="matrix(0.0, 0.0069, -0.0152, 0.0, 72.55, 66.2)" gradientUnits="userSpaceOnUse" id="gradient18" spreadMethod="pad" x1="-819.2" x2="819.2">
      <stop offset="0.0" stop-color="#515151"/>
      <stop offset="1.0" stop-color="#333333"/>
    </linearGradient>
    <radialGradient cx="0" cy="0" gradientTransform="matrix(0.0116, 0.0, 0.0, 0.0116, 66.95, 6.5)" gradientUnits="userSpaceOnUse" id="gradient19" r="819.2" spreadMethod="pad">
      <stop offset="0.0" stop-color="#969696"/>
      <stop offset="0.6392156862745098" stop-color="#333333"/>
    </radialGradient>
    <radialGradient cx="0" cy="0" gradientTransform="matrix(0.0156, 0.0, 0.0, 0.0156, 48.9, 34.0)" gradientUnits="userSpaceOnUse" id="gradient20" r="819.2" spreadMethod="pad">
      <stop offset="0.19607843137254902" stop-color="#ffe525"/>
      <stop offset="0.3568627450980392" stop-color="#ffc810"/>
      <stop offset="1.0" stop-color="#f08400"/>
    </radialGradient>
    <radialGradient cx="0" cy="0" gradientTransform="matrix(0.0098, 0.0, 0.0, 0.0098, 46.9, 44.7)" gradientUnits="userSpaceOnUse" id="gradient21" r="819.2" spreadMethod="pad">
      <stop offset="0.19607843137254902" stop-color="#ffe525"/>
      <stop offset="0.3568627450980392" stop-color="#ffc810"/>
      <stop offset="1.0" stop-color="#f08400"/>
    </radialGradient>
    <radialGradient cx="0" cy="0" gradientTransform="matrix(0.0131, 0.0, 0.0, 0.0131, 54.3, 63.4)" gradientUnits="userSpaceOnUse" id="gradient22" r="819.2" spreadMethod="pad">
      <stop offset="0.19607843137254902" stop-color="#ffe525"/>
      <stop offset="0.3568627450980392" stop-color="#ffc810"/>
      <stop offset="1.0" stop-color="#f08400"/>
    </radialGradient>
  </defs>
</svg>
