<?xml version="1.0" encoding="UTF-8" standalone="no"?>
<svg xmlns:xlink="http://www.w3.org/1999/xlink" height="76.35px" width="159.55px" xmlns="http://www.w3.org/2000/svg">
  <g transform="matrix(1.0, 0.0, 0.0, 1.0, 0.05, 0.05)">
    <path d="M148.3 7.05 L148.45 7.05 148.55 7.05 Q152.8 7.05 155.9 11.1 L156.25 11.65 156.6 12.15 Q157.9 14.15 158.55 16.5 159.4 19.25 159.45 22.5 L159.45 28.3 159.45 28.7 Q159.45 35.25 156.25 39.85 153.1 44.5 148.55 44.5 L148.45 44.5 148.3 44.5 Q143.95 44.35 140.85 39.85 137.7 35.25 137.7 28.7 L137.7 28.3 137.7 22.5 Q137.7 19.25 138.55 16.5 139.25 14.15 140.5 12.15 L140.85 11.65 141.25 11.1 Q144.25 7.15 148.3 7.05 M151.75 14.3 Q149.6 14.35 148.0 16.5 L147.8 16.75 Q146.15 19.15 146.1 22.5 L146.1 28.3 146.1 28.55 Q146.1 32.1 147.8 34.5 149.45 36.9 151.75 37.0 L151.85 37.0 151.9 37.0 Q154.3 37.0 156.0 34.5 157.7 32.1 157.7 28.55 L157.7 28.3 157.7 22.5 Q157.7 19.15 156.0 16.75 L155.85 16.5 Q154.2 14.3 151.9 14.3 L151.75 14.3" fill="url(#gradient0)" fill-rule="evenodd" stroke="none"/>
    <path d="M94.45 70.3 L88.9 70.3 80.7 70.3 Q80.05 70.3 79.5 69.95 78.5 69.45 77.7 67.9 76.5 65.55 76.5 62.25 76.5 58.9 77.7 56.55 L88.4 56.55 95.45 56.55 99.05 48.7 96.15 43.3 95.15 41.45 99.65 41.45 104.35 41.45 109.05 41.45 111.55 41.45 112.55 43.3 106.9 43.3 96.15 43.3 106.9 43.3 110.75 51.05 107.7 51.05 103.05 60.7 91.15 60.7 94.45 70.3 M96.95 16.05 L101.25 16.05 101.1 16.35 Q100.3 18.9 100.25 21.9 L100.2 22.25 100.2 22.5 91.8 22.5 100.2 22.5 100.2 28.1 98.35 28.1 93.7 28.1 89.0 28.1 88.05 28.1 86.65 25.5 79.6 25.5 72.7 25.5 71.1 29.9 23.1 29.9 22.3 32.3 21.45 34.7 20.6 37.0 19.75 39.35 19.3 40.7 19.9 41.7 21.3 44.05 22.7 46.3 22.75 46.35 24.2 48.7 25.65 51.05 27.1 53.4 28.5 55.7 28.8 56.1 26.85 58.1 23.7 58.1 20.4 58.1 19.4 56.45 19.3 56.3 18.95 55.7 17.55 53.4 16.1 51.05 14.7 48.7 13.3 46.35 11.9 44.05 10.5 41.7 10.45 41.65 11.3 39.35 12.1 37.0 12.95 34.7 13.75 32.3 15.5 32.3 13.75 32.3 15.8 26.7 16.5 24.75 18.15 20.05 16.5 24.75 8.0 33.25 4.95 33.25 18.15 20.05 18.35 19.5 18.6 19.7 32.1 19.7 34.5 17.3 34.85 17.6 37.3 19.7 50.85 19.7 53.25 17.3 53.55 17.6 56.05 19.7 69.55 19.7 73.0 16.2 73.0 8.45 75.9 8.45 78.0 8.45 82.9 16.05 95.75 16.05 96.95 16.05 M151.75 14.3 L151.9 14.3 Q154.2 14.3 155.85 16.5 L156.0 16.75 Q157.7 19.15 157.7 22.5 L157.7 28.3 157.7 28.55 Q157.7 32.1 156.0 34.5 154.3 37.0 151.9 37.0 L151.85 37.0 151.75 37.0 Q149.45 36.9 147.8 34.5 146.1 32.1 146.1 28.55 L146.1 28.3 146.1 22.5 Q146.15 19.15 147.8 16.75 L148.0 16.5 Q149.6 14.35 151.75 14.3 M35.55 56.55 L38.1 56.55 Q37.45 59.0 37.45 61.85 37.45 65.8 38.8 69.0 L39.4 70.3 38.5 70.3 37.35 69.95 37.05 69.75 Q36.25 69.2 35.55 67.9 L35.35 67.55 Q34.3 65.3 34.3 62.25 34.3 59.2 35.35 56.95 L35.55 56.55 M49.6 56.55 L52.2 56.55 Q51.5 59.0 51.5 61.85 51.5 65.8 52.85 69.0 L53.45 70.3 52.55 70.3 Q51.95 70.3 51.4 69.95 L51.1 69.75 Q50.3 69.2 49.6 67.9 L49.45 67.55 Q48.35 65.3 48.35 62.25 48.35 59.2 49.45 56.95 L49.6 56.55 M63.65 56.55 L66.25 56.55 Q65.55 59.0 65.55 61.85 65.55 65.8 66.9 69.0 L67.5 70.3 66.6 70.3 Q66.0 70.3 65.5 69.95 L65.15 69.75 Q64.3 69.2 63.65 67.9 L63.5 67.55 Q62.4 65.3 62.4 62.25 62.4 59.2 63.5 56.95 L63.65 56.55 M91.3 22.5 L37.25 22.5 35.7 26.7 15.8 26.7 35.7 26.7 37.25 22.5 91.3 22.5 M15.5 34.7 L12.95 34.7 15.5 34.7 M15.5 37.0 L12.1 37.0 15.5 37.0 M15.75 41.7 L19.9 41.7 15.75 41.7 M15.75 39.35 L19.75 39.35 15.75 39.35 M15.5 39.35 L11.3 39.35 15.5 39.35 M15.5 41.7 L10.5 41.7 15.5 41.7 M16.1 51.05 L25.65 51.05 16.1 51.05 M15.75 37.0 L20.6 37.0 15.75 37.0 M14.7 48.7 L24.2 48.7 14.7 48.7 M22.75 46.35 L13.3 46.35 22.75 46.35 M11.9 44.05 L21.3 44.05 11.9 44.05 M22.3 32.3 L15.75 32.3 22.3 32.3 M15.75 34.7 L21.45 34.7 15.75 34.7 M18.95 55.7 L28.5 55.7 18.95 55.7 M17.55 53.4 L27.1 53.4 17.55 53.4" fill="#333333" fill-rule="evenodd" stroke="none"/>
    <path d="M138.9 44.5 L134.25 44.5 Q129.9 44.35 126.8 39.85 123.65 35.25 123.65 28.7 L123.65 28.3 123.65 22.5 Q123.7 16.5 126.5 12.15 L126.8 11.65 Q129.9 7.15 134.25 7.05 L138.9 7.05 136.75 7.4 Q133.8 8.3 131.5 11.65 L131.15 12.15 Q128.4 16.5 128.3 22.5 L128.3 28.3 128.3 28.7 Q128.3 35.25 131.5 39.85 133.8 43.2 136.75 44.1 L138.9 44.5" fill="url(#gradient1)" fill-rule="evenodd" stroke="none"/>
    <path d="M148.3 44.5 L138.9 44.5 136.75 44.1 Q133.8 43.2 131.5 39.85 128.3 35.25 128.3 28.7 L128.3 28.3 128.3 22.5 Q128.4 16.5 131.15 12.15 L131.5 11.65 Q133.8 8.3 136.75 7.4 L138.9 7.05 148.3 7.05 Q144.25 7.15 141.25 11.1 L140.85 11.65 140.5 12.15 Q139.25 14.15 138.55 16.5 137.7 19.25 137.7 22.5 L137.7 28.3 137.7 28.7 Q137.7 35.25 140.85 39.85 143.95 44.35 148.3 44.5" fill="url(#gradient2)" fill-rule="evenodd" stroke="none"/>
    <path d="M134.25 44.5 L129.55 44.5 Q126.1 44.4 123.35 41.45 L122.1 39.85 122.0 39.65 Q119.25 35.55 118.95 30.0 L116.7 30.0 112.05 30.0 107.35 30.0 102.7 30.0 100.25 30.0 100.2 29.3 100.2 28.7 100.2 28.1 100.2 22.5 100.2 22.25 100.25 21.9 Q100.3 18.9 101.1 16.35 L101.25 16.05 Q102.0 13.7 103.4 11.65 105.05 9.3 107.05 8.1 108.8 7.1 110.85 7.05 L134.25 7.05 Q129.9 7.15 126.8 11.65 L126.5 12.15 Q123.7 16.5 123.65 22.5 L123.65 28.3 123.65 28.7 Q123.65 35.25 126.8 39.85 129.9 44.35 134.25 44.5" fill="url(#gradient3)" fill-rule="evenodd" stroke="none"/>
    <path d="M123.35 41.45 L123.1 41.45 118.55 41.45 118.4 41.45 Q115.75 41.35 113.85 38.65 L113.85 38.6 113.75 38.5 Q112.2 36.15 111.95 32.8 L111.9 32.6 111.9 31.85 111.9 31.7 111.9 31.5 Q111.9 30.7 112.05 30.0 111.9 30.7 111.9 31.5 L111.9 31.7 111.9 31.85 111.9 32.6 111.95 32.8 Q112.2 36.15 113.75 38.5 L113.85 38.6 113.85 38.65 Q115.75 41.35 118.4 41.45 L113.7 41.45 111.55 41.45 109.05 41.45 104.35 41.45 99.65 41.45 Q97.0 41.35 95.1 38.65 L95.1 38.6 95.05 38.5 Q93.5 36.15 93.2 32.8 L93.2 32.6 93.2 31.85 93.2 31.7 93.2 31.5 Q93.2 29.7 93.7 28.1 93.2 29.7 93.2 31.5 L93.2 31.7 93.2 31.85 93.2 32.6 93.2 32.8 Q93.5 36.15 95.05 38.5 L95.1 38.6 95.1 38.65 Q97.0 41.35 99.65 41.45 L95.15 41.45 93.6 38.5 88.7 29.4 88.05 28.1 89.0 28.1 88.9 28.5 88.7 29.4 88.9 28.5 89.0 28.1 93.7 28.1 98.35 28.1 98.3 28.3 Q97.9 29.8 97.9 31.5 L97.9 31.7 97.9 31.85 97.9 32.6 97.9 32.8 Q98.15 36.15 99.7 38.5 L99.8 38.6 99.8 38.65 Q101.7 41.35 104.35 41.45 101.7 41.35 99.8 38.65 L99.8 38.6 99.7 38.5 Q98.15 36.15 97.9 32.8 L97.9 32.6 97.9 31.85 97.9 31.7 97.9 31.5 Q97.9 29.8 98.3 28.3 L98.35 28.1 100.2 28.1 100.2 28.7 100.2 29.3 100.25 30.0 102.7 30.0 107.35 30.0 112.05 30.0 116.7 30.0 118.95 30.0 Q119.25 35.55 122.0 39.65 L122.1 39.85 123.35 41.45 M102.6 33.0 Q102.85 36.15 104.4 38.5 L104.5 38.6 104.5 38.65 Q106.35 41.35 109.05 41.45 106.35 41.35 104.5 38.65 L104.5 38.6 104.4 38.5 Q102.85 36.15 102.6 33.0 M113.7 41.45 Q112.3 41.4 111.1 40.6 110.05 39.9 109.15 38.65 L109.15 38.6 109.1 38.5 Q107.5 36.15 107.3 33.0 107.5 36.15 109.1 38.5 L109.15 38.6 109.15 38.65 Q110.05 39.9 111.1 40.6 112.3 41.4 113.7 41.45 M107.35 30.0 L107.25 31.5 107.25 31.7 107.25 31.85 107.25 32.6 107.25 31.85 107.25 31.7 107.25 31.5 107.35 30.0 M102.55 32.6 L102.55 31.85 102.55 31.7 102.55 31.5 Q102.55 30.7 102.7 30.0 102.55 30.7 102.55 31.5 L102.55 31.7 102.55 31.85 102.55 32.6 M116.7 30.0 L116.6 31.5 116.6 31.7 116.6 31.85 116.65 32.6 116.65 32.8 Q116.9 36.15 118.45 38.5 L118.5 38.6 118.5 38.65 Q120.45 41.35 123.1 41.45 120.45 41.35 118.5 38.65 L118.5 38.6 118.45 38.5 Q116.9 36.15 116.65 32.8 L116.65 32.6 116.6 31.85 116.6 31.7 116.6 31.5 116.7 30.0" fill="url(#gradient4)" fill-rule="evenodd" stroke="none"/>
    <path d="M88.9 70.3 L88.05 71.65 Q85.25 75.7 81.3 75.7 L81.15 75.7 81.05 75.7 Q77.25 75.6 74.5 71.65 L74.25 71.3 73.7 70.3 73.05 69.0 Q71.7 65.8 71.7 61.85 71.7 59.0 72.4 56.55 L77.7 56.55 Q76.5 58.9 76.5 62.25 76.5 65.55 77.7 67.9 78.5 69.45 79.5 69.95 80.05 70.3 80.7 70.3 L88.9 70.3 M71.15 74.55 L69.8 75.25 68.65 75.6 67.25 75.7 67.1 75.7 66.45 75.7 Q65.6 75.7 64.75 75.3 L63.5 74.7 63.5 74.65 63.05 74.35 61.9 73.45 60.5 71.65 Q59.6 70.4 59.0 69.0 57.7 65.8 57.7 61.85 57.7 59.0 58.35 56.55 L63.65 56.55 63.5 56.95 Q62.4 59.2 62.4 62.25 62.4 65.3 63.5 67.55 L63.65 67.9 Q64.3 69.2 65.15 69.75 L65.5 69.95 Q66.0 70.3 66.6 70.3 L67.5 70.3 68.35 71.65 Q69.65 73.5 71.15 74.55 M57.1 74.55 L55.75 75.25 54.55 75.6 53.15 75.7 53.1 75.7 52.95 75.7 52.4 75.7 Q51.55 75.7 50.7 75.3 L49.5 74.7 49.45 74.65 49.0 74.35 47.9 73.45 46.4 71.65 44.95 69.0 Q43.6 65.8 43.6 61.85 43.6 59.0 44.3 56.55 L49.6 56.55 49.45 56.95 Q48.35 59.2 48.35 62.25 48.35 65.3 49.45 67.55 L49.6 67.9 Q50.3 69.2 51.1 69.75 L51.4 69.95 Q51.95 70.3 52.55 70.3 L53.45 70.3 54.3 71.65 55.75 73.45 Q56.4 74.1 57.1 74.55 M43.1 74.55 L41.7 75.25 40.5 75.6 39.1 75.7 39.05 75.7 38.9 75.7 38.35 75.7 Q37.45 75.7 36.7 75.3 L35.45 74.7 35.35 74.65 34.95 74.35 33.85 73.45 32.35 71.65 30.9 69.0 Q29.55 65.8 29.55 61.85 29.55 59.0 30.25 56.55 L35.55 56.55 35.35 56.95 Q34.3 59.2 34.3 62.25 34.3 65.3 35.35 67.55 L35.55 67.9 Q36.25 69.2 37.05 69.75 L37.35 69.95 38.5 70.3 39.4 70.3 40.25 71.65 41.7 73.45 43.1 74.55 M31.9 0.0 L34.15 2.9 32.4 4.3 32.4 15.45 34.5 17.3 32.1 19.7 29.15 17.5 26.4 15.45 26.4 4.3 29.15 2.15 29.15 17.5 29.15 2.15 31.9 0.0 M55.3 0.0 L55.9 0.55 53.9 2.1 52.9 2.9 51.1 4.3 51.1 15.45 53.25 17.3 50.85 19.7 47.9 17.5 47.9 2.15 47.9 17.5 45.15 15.45 45.15 4.3 47.9 2.15 50.6 0.0 52.7 2.75 55.3 0.0 M74.0 0.0 L77.15 2.9 75.9 4.3 75.9 8.45 73.0 8.45 73.0 16.2 69.55 19.7 66.6 17.5 66.6 2.15 66.6 17.5 63.9 15.45 63.9 4.3 66.6 2.15 69.3 0.0 71.45 2.75 74.0 0.0 M92.7 0.0 L97.4 4.3 97.4 15.45 96.95 16.05 95.75 16.05 90.9 8.45 88.75 8.45 88.75 4.3 92.7 0.0 M71.45 2.75 L73.0 4.75 73.0 8.45 73.0 4.75 71.45 2.75 M52.9 2.9 L52.7 2.75 52.9 2.9" fill="#7f7f7f" fill-rule="evenodd" stroke="none"/>
    <path d="M20.7 70.3 L17.7 70.3 12.2 66.05 12.2 64.5 6.9 61.35 0.0 33.15 0.0 30.0 14.1 15.9 13.65 15.45 26.4 15.45 29.15 17.5 29.15 17.6 16.1 17.6 18.35 19.5 18.15 20.05 4.95 33.25 11.05 58.1 11.1 58.1 13.25 59.35 12.2 60.65 12.2 64.5 12.2 60.65 13.25 59.35 14.2 58.15 15.7 56.3 19.3 56.3 19.4 56.45 Q18.7 59.1 18.7 61.85 L18.9 64.9 Q19.25 67.1 20.1 69.0 L20.7 70.3 M88.75 8.45 L90.9 8.45 95.75 16.05 82.9 16.05 78.0 8.45 88.75 8.45 M106.9 43.3 L112.55 43.3 115.1 43.3 117.8 48.7 118.95 51.05 110.75 51.05 106.9 43.3 M69.55 19.7 L56.05 19.7 53.55 17.6 53.25 17.3 51.1 15.45 63.9 15.45 66.6 17.5 69.55 19.7 M50.85 19.7 L37.3 19.7 34.85 17.6 34.5 17.3 32.4 15.45 45.15 15.45 47.9 17.5 50.85 19.7 M32.1 19.7 L18.6 19.7 18.35 19.5 16.1 17.6 29.15 17.6 29.15 17.5 32.1 19.7 M61.6 17.6 L66.6 17.6 66.6 17.5 66.6 17.6 61.6 17.6 M42.9 17.6 L47.9 17.6 47.9 17.5 47.9 17.6 42.9 17.6 M53.55 17.6 L61.35 17.6 53.55 17.6 M14.1 15.9 L16.1 17.6 14.1 15.9 M34.85 17.6 L42.65 17.6 34.85 17.6" fill="#4c4c4c" fill-rule="evenodd" stroke="none"/>
    <path d="M121.35 51.05 L128.1 51.05 125.25 58.7 123.9 62.2 122.6 65.7 116.5 65.7 117.75 62.2 123.9 62.2 117.75 62.2 116.5 65.7 122.6 65.7 121.3 69.2 119.95 72.7 114.05 72.7 115.3 69.2 114.05 72.7 119.95 72.7 118.65 76.25 112.75 76.25 96.5 76.25 94.45 70.3 91.15 60.7 103.05 60.7 107.7 51.05 110.75 51.05 118.95 51.05 121.35 51.05 M13.65 15.45 L13.65 4.3 26.4 4.3 26.4 15.45 13.65 15.45 M88.75 4.3 L88.75 8.45 78.0 8.45 75.9 8.45 75.9 4.3 88.75 4.3 M86.55 38.5 L92.0 48.7 88.4 56.55 77.7 56.55 72.4 56.55 66.25 56.55 63.65 56.55 58.35 56.55 52.2 56.55 49.6 56.55 44.3 56.55 38.1 56.55 35.55 56.55 30.25 56.55 29.05 56.55 28.8 56.1 28.5 55.7 27.1 53.4 25.65 51.05 67.1 51.05 69.3 46.3 72.85 46.3 75.65 38.5 86.55 38.5 75.65 38.5 72.85 46.3 69.3 46.3 22.7 46.3 21.3 44.05 19.9 41.7 19.3 40.7 19.75 39.35 20.6 37.0 21.45 34.7 22.3 32.3 23.1 29.9 71.1 29.9 72.7 25.5 79.6 25.5 86.55 38.5 M121.3 69.2 L115.3 69.2 116.5 65.7 115.3 69.2 121.3 69.2 M117.75 62.2 L119.0 58.7 125.25 58.7 119.0 58.7 117.75 62.2 M112.75 76.25 L114.05 72.7 112.75 76.25 M63.9 4.3 L63.9 15.45 51.1 15.45 51.1 4.3 63.9 4.3 M62.1 13.7 L62.1 6.05 52.9 6.05 52.9 13.7 62.1 13.7 M45.15 4.3 L45.15 15.45 32.4 15.45 32.4 4.3 45.15 4.3 M34.15 6.05 L34.15 13.7 43.4 13.7 43.4 6.05 34.15 6.05 M44.5 33.15 L41.85 40.5 44.2 40.5 46.85 33.15 44.5 33.15 M24.7 13.7 L24.7 6.05 15.4 6.05 15.4 13.7 24.7 13.7 M4.95 33.25 L8.0 33.25 14.1 58.1 11.1 58.1 11.05 58.1 4.95 33.25 M35.1 33.15 L32.5 40.5 34.85 40.5 37.5 33.15 35.1 33.15 M30.45 33.15 L27.8 40.5 30.15 40.5 32.8 33.15 30.45 33.15 M25.75 33.15 L23.1 40.5 25.5 40.5 28.1 33.15 25.75 33.15 M39.8 33.15 L37.15 40.5 39.5 40.5 42.15 33.15 39.8 33.15" fill="#666666" fill-rule="evenodd" stroke="none"/>
    <path d="M13.65 4.3 L16.4 2.1 19.1 0.0 31.9 0.0 29.15 2.15 26.4 4.3 13.65 4.3 M34.15 2.9 L35.1 2.1 37.9 0.0 50.6 0.0 55.3 0.0 52.7 2.75 50.6 0.0 47.9 2.15 45.15 4.3 32.4 4.3 34.15 2.9 M55.9 0.55 L56.6 0.0 69.3 0.0 74.0 0.0 71.45 2.75 69.3 0.0 66.6 2.15 63.9 4.3 51.1 4.3 52.9 2.9 53.9 2.1 55.9 0.55 M77.15 2.9 L79.9 0.0 92.7 0.0 88.75 4.3 75.9 4.3 77.15 2.9 M62.9 2.15 L66.6 2.15 62.9 2.15 M44.15 2.15 L47.9 2.15 44.15 2.15 M53.9 2.1 L62.65 2.15 53.9 2.1 M29.15 2.15 L25.45 2.15 29.15 2.15 M25.2 2.15 L16.4 2.1 25.2 2.15 M43.9 2.15 L35.1 2.1 43.9 2.15" fill="#a5a5a5" fill-rule="evenodd" stroke="none"/>
    <path d="M118.55 41.45 L122.45 48.7 117.8 48.7 115.1 43.3 112.55 43.3 111.55 41.45 113.7 41.45 118.4 41.45 118.55 41.45 M88.05 28.1 L88.7 29.4 93.6 38.5 95.15 41.45 96.15 43.3 99.05 48.7 92.0 48.7 86.55 38.5 90.5 38.5 86.55 38.5 79.6 25.5 86.65 25.5 88.05 28.1 M91.0 38.5 L93.6 38.5 91.0 38.5 M11.1 58.1 L14.1 58.1 14.2 58.15 13.25 59.35 11.1 58.1" fill="#999999" fill-rule="evenodd" stroke="none"/>
    <path d="M122.45 48.7 L121.35 51.05 118.95 51.05 117.8 48.7 122.45 48.7 M128.1 51.05 L144.4 51.05 139.85 58.7 137.7 62.2 135.6 65.7 133.5 69.2 131.4 72.7 129.3 76.25 118.65 76.25 119.95 72.7 121.3 69.2 122.6 65.7 123.9 62.2 125.25 58.7 128.1 51.05 M92.0 48.7 L99.05 48.7 95.45 56.55 88.4 56.55 92.0 48.7 M135.6 65.7 L122.6 65.7 135.6 65.7 M133.5 69.2 L121.3 69.2 133.5 69.2 M131.4 72.7 L119.95 72.7 131.4 72.7 M123.9 62.2 L137.7 62.2 123.9 62.2 M139.85 58.7 L125.25 58.7 139.85 58.7" fill="#595959" fill-rule="evenodd" stroke="none"/>
    <path d="M62.1 13.7 L52.9 13.7 52.9 6.05 62.1 6.05 62.1 13.7" fill="url(#gradient5)" fill-rule="evenodd" stroke="none"/>
    <path d="M34.15 6.05 L43.4 6.05 43.4 13.7 34.15 13.7 34.15 6.05" fill="url(#gradient6)" fill-rule="evenodd" stroke="none"/>
    <path d="M44.5 33.15 L46.85 33.15 44.2 40.5 41.85 40.5 44.5 33.15" fill="url(#gradient7)" fill-rule="evenodd" stroke="none"/>
    <path d="M24.7 13.7 L15.4 13.7 15.4 6.05 24.7 6.05 24.7 13.7" fill="url(#gradient8)" fill-rule="evenodd" stroke="none"/>
    <path d="M35.1 33.15 L37.5 33.15 34.85 40.5 32.5 40.5 35.1 33.15" fill="url(#gradient9)" fill-rule="evenodd" stroke="none"/>
    <path d="M30.45 33.15 L32.8 33.15 30.15 40.5 27.8 40.5 30.45 33.15" fill="url(#gradient10)" fill-rule="evenodd" stroke="none"/>
    <path d="M25.75 33.15 L28.1 33.15 25.5 40.5 23.1 40.5 25.75 33.15" fill="url(#gradient11)" fill-rule="evenodd" stroke="none"/>
    <path d="M69.3 46.3 L67.1 51.05 25.65 51.05 24.2 48.7 22.75 46.35 22.7 46.3 69.3 46.3" fill="url(#gradient12)" fill-rule="evenodd" stroke="none"/>
    <path d="M39.8 33.15 L42.15 33.15 39.5 40.5 37.15 40.5 39.8 33.15" fill="url(#gradient13)" fill-rule="evenodd" stroke="none"/>
    <path d="M52.4 75.7 L46.8 75.7 44.9 75.4 43.3 74.7 43.1 74.55 41.7 73.45 40.25 71.65 39.4 70.3 38.8 69.0 Q37.45 65.8 37.45 61.85 37.45 59.0 38.1 56.55 L44.3 56.55 Q43.6 59.0 43.6 61.85 43.6 65.8 44.95 69.0 L46.4 71.65 47.9 73.45 49.0 74.35 49.45 74.65 49.5 74.7 50.7 75.3 Q51.55 75.7 52.4 75.7" fill="url(#gradient14)" fill-rule="evenodd" stroke="none"/>
    <path d="M38.35 75.7 L32.2 75.7 28.05 75.7 26.15 75.4 Q24.45 74.9 23.0 73.45 L21.5 71.65 20.7 70.3 20.1 69.0 Q19.25 67.1 18.9 64.9 L18.7 61.85 Q18.7 59.1 19.4 56.45 L20.4 58.1 23.7 58.1 26.85 58.1 28.8 56.1 29.05 56.55 30.25 56.55 Q29.55 59.0 29.55 61.85 29.55 65.8 30.9 69.0 L32.35 71.65 33.85 73.45 34.95 74.35 35.35 74.65 35.45 74.7 36.7 75.3 Q37.45 75.7 38.35 75.7 M23.55 64.5 L23.4 61.85 Q23.4 59.9 23.7 58.1 23.4 59.9 23.4 61.85 L23.55 64.5 M32.2 75.7 L30.85 75.4 Q30.0 75.15 29.3 74.7 L29.0 74.55 27.7 73.45 26.2 71.65 25.35 70.3 24.75 69.0 Q23.95 67.1 23.65 64.95 23.95 67.1 24.75 69.0 L25.35 70.3 26.2 71.65 27.7 73.45 29.0 74.55 29.3 74.7 Q30.0 75.15 30.85 75.4 L32.2 75.7" fill="url(#gradient15)" fill-rule="evenodd" stroke="none"/>
    <path d="M81.05 75.7 L74.9 75.7 72.95 75.4 71.15 74.55 Q69.65 73.5 68.35 71.65 L67.5 70.3 66.9 69.0 Q65.55 65.8 65.55 61.85 65.55 59.0 66.25 56.55 L72.4 56.55 Q71.7 59.0 71.7 61.85 71.7 65.8 73.05 69.0 L73.7 70.3 74.25 71.3 74.5 71.65 Q77.25 75.6 81.05 75.7" fill="url(#gradient16)" fill-rule="evenodd" stroke="none"/>
    <path d="M66.45 75.7 L60.85 75.7 58.9 75.4 57.35 74.7 57.1 74.55 Q56.4 74.1 55.75 73.45 L54.3 71.65 53.45 70.3 52.85 69.0 Q51.5 65.8 51.5 61.85 51.5 59.0 52.2 56.55 L58.35 56.55 Q57.7 59.0 57.7 61.85 57.7 65.8 59.0 69.0 59.6 70.4 60.5 71.65 L61.9 73.45 63.05 74.35 63.5 74.65 63.5 74.7 64.75 75.3 Q65.6 75.7 66.45 75.7" fill="url(#gradient17)" fill-rule="evenodd" stroke="none"/>
    <path d="M148.3 7.05 L148.45 7.05 148.55 7.05 Q152.8 7.05 155.9 11.1 L156.25 11.65 156.6 12.15 Q157.9 14.15 158.55 16.5 159.4 19.25 159.45 22.5 L159.45 28.3 159.45 28.7 Q159.45 35.25 156.25 39.85 153.1 44.5 148.55 44.5 L148.45 44.5 148.3 44.5 138.9 44.5 134.25 44.5 129.55 44.5 Q126.1 44.4 123.35 41.45 L123.1 41.45 118.55 41.45 122.45 48.7 121.35 51.05 128.1 51.05 144.4 51.05 139.85 58.7 137.7 62.2 135.6 65.7 133.5 69.2 131.4 72.7 129.3 76.25 118.65 76.25 112.75 76.25 96.5 76.25 94.45 70.3 88.9 70.3 88.05 71.65 Q85.25 75.7 81.3 75.7 L81.15 75.7 81.05 75.7 74.9 75.7 72.95 75.4 71.15 74.55 69.8 75.25 68.65 75.6 67.25 75.7 67.1 75.7 66.45 75.7 60.85 75.7 58.9 75.4 57.35 74.7 57.1 74.55 55.75 75.25 54.55 75.6 53.15 75.7 53.1 75.7 52.95 75.7 52.4 75.7 46.8 75.7 44.9 75.4 43.3 74.7 43.1 74.55 41.7 75.25 40.5 75.6 39.1 75.7 39.05 75.7 38.9 75.7 38.35 75.7 32.2 75.7 28.05 75.7 26.15 75.4 Q24.45 74.9 23.0 73.45 L21.5 71.65 20.7 70.3 17.7 70.3 12.2 66.05 12.2 64.5 6.9 61.35 0.0 33.15 0.0 30.0 14.1 15.9 13.65 15.45 13.65 4.3 16.4 2.1 19.1 0.0 31.9 0.0 34.15 2.9 35.1 2.1 37.9 0.0 50.6 0.0 55.3 0.0 55.9 0.55 56.6 0.0 69.3 0.0 74.0 0.0 77.15 2.9 79.9 0.0 92.7 0.0 97.4 4.3 97.4 15.45 96.95 16.05 101.25 16.05 Q102.0 13.7 103.4 11.65 105.05 9.3 107.05 8.1 108.8 7.1 110.85 7.05 L134.25 7.05 138.9 7.05 148.3 7.05 Q144.25 7.15 141.25 11.1 L140.85 11.65 140.5 12.15 Q139.25 14.15 138.55 16.5 137.7 19.25 137.7 22.5 L137.7 28.3 137.7 28.7 Q137.7 35.25 140.85 39.85 143.95 44.35 148.3 44.5 M151.75 14.3 L151.9 14.3 Q154.2 14.3 155.85 16.5 L156.0 16.75 Q157.7 19.15 157.7 22.5 L157.7 28.3 157.7 28.55 Q157.7 32.1 156.0 34.5 154.3 37.0 151.9 37.0 L151.85 37.0 151.75 37.0 Q149.45 36.9 147.8 34.5 146.1 32.1 146.1 28.55 L146.1 28.3 146.1 22.5 Q146.15 19.15 147.8 16.75 L148.0 16.5 Q149.6 14.35 151.75 14.3 M138.9 44.5 L136.75 44.1 Q133.8 43.2 131.5 39.85 128.3 35.25 128.3 28.7 L128.3 28.3 128.3 22.5 Q128.4 16.5 131.15 12.15 L131.5 11.65 Q133.8 8.3 136.75 7.4 L138.9 7.05 M134.25 44.5 Q129.9 44.35 126.8 39.85 123.65 35.25 123.65 28.7 L123.65 28.3 123.65 22.5 Q123.7 16.5 126.5 12.15 L126.8 11.65 Q129.9 7.15 134.25 7.05 M100.2 28.1 L100.2 28.7 100.2 29.3 100.25 30.0 102.7 30.0 107.35 30.0 112.05 30.0 116.7 30.0 118.95 30.0 Q119.25 35.55 122.0 39.65 L122.1 39.85 123.35 41.45 M88.75 8.45 L90.9 8.45 95.75 16.05 96.95 16.05 M88.75 8.45 L88.75 4.3 75.9 4.3 75.9 8.45 78.0 8.45 88.75 8.45 M100.2 22.5 L91.8 22.5 M100.2 22.5 L100.2 22.25 100.25 21.9 Q100.3 18.9 101.1 16.35 L101.25 16.05 M95.75 16.05 L82.9 16.05 78.0 8.45 M88.75 4.3 L92.7 0.0 M104.35 41.45 Q101.7 41.35 99.8 38.65 L99.8 38.6 99.7 38.5 Q98.15 36.15 97.9 32.8 L97.9 32.6 97.9 31.85 97.9 31.7 97.9 31.5 Q97.9 29.8 98.3 28.3 L98.35 28.1 93.7 28.1 Q93.2 29.7 93.2 31.5 L93.2 31.7 93.2 31.85 93.2 32.6 93.2 32.8 Q93.5 36.15 95.05 38.5 L95.1 38.6 95.1 38.65 Q97.0 41.35 99.65 41.45 L104.35 41.45 109.05 41.45 Q106.35 41.35 104.5 38.65 L104.5 38.6 104.4 38.5 Q102.85 36.15 102.6 33.0 M98.35 28.1 L100.2 28.1 100.2 22.5 M89.0 28.1 L88.05 28.1 88.7 29.4 88.9 28.5 89.0 28.1 93.7 28.1 M79.6 25.5 L86.65 25.5 88.05 28.1 M86.55 38.5 L90.5 38.5 M95.15 41.45 L96.15 43.3 106.9 43.3 112.55 43.3 111.55 41.45 109.05 41.45 M88.7 29.4 L93.6 38.5 95.15 41.45 99.65 41.45 M92.0 48.7 L99.05 48.7 96.15 43.3 M92.0 48.7 L86.55 38.5 75.65 38.5 72.85 46.3 69.3 46.3 67.1 51.05 25.65 51.05 27.1 53.4 28.5 55.7 28.8 56.1 29.05 56.55 30.25 56.55 35.55 56.55 38.1 56.55 44.3 56.55 49.6 56.55 52.2 56.55 58.35 56.55 63.65 56.55 66.25 56.55 72.4 56.55 77.7 56.55 88.4 56.55 92.0 48.7 M93.6 38.5 L91.0 38.5 M112.05 30.0 Q111.9 30.7 111.9 31.5 L111.9 31.7 111.9 31.85 111.9 32.6 111.95 32.8 Q112.2 36.15 113.75 38.5 L113.85 38.6 113.85 38.65 Q115.75 41.35 118.4 41.45 L118.55 41.45 M123.1 41.45 Q120.45 41.35 118.5 38.65 L118.5 38.6 118.45 38.5 Q116.9 36.15 116.65 32.8 L116.65 32.6 116.6 31.85 116.6 31.7 116.6 31.5 116.7 30.0 M102.7 30.0 Q102.55 30.7 102.55 31.5 L102.55 31.7 102.55 31.85 102.55 32.6 M107.25 32.6 L107.25 31.85 107.25 31.7 107.25 31.5 107.35 30.0 M107.3 33.0 Q107.5 36.15 109.1 38.5 L109.15 38.6 109.15 38.65 Q110.05 39.9 111.1 40.6 112.3 41.4 113.7 41.45 L118.4 41.45 M113.7 41.45 L111.55 41.45 M112.55 43.3 L115.1 43.3 117.8 48.7 122.45 48.7 M121.35 51.05 L118.95 51.05 110.75 51.05 107.7 51.05 103.05 60.7 91.15 60.7 94.45 70.3 M123.9 62.2 L117.75 62.2 116.5 65.7 122.6 65.7 123.9 62.2 125.25 58.7 119.0 58.7 117.75 62.2 M116.5 65.7 L115.3 69.2 121.3 69.2 122.6 65.7 135.6 65.7 M119.95 72.7 L121.3 69.2 133.5 69.2 M115.3 69.2 L114.05 72.7 119.95 72.7 131.4 72.7 M99.05 48.7 L95.45 56.55 88.4 56.55 M119.95 72.7 L118.65 76.25 M114.05 72.7 L112.75 76.25 M128.1 51.05 L125.25 58.7 139.85 58.7 M137.7 62.2 L123.9 62.2 M118.95 51.05 L117.8 48.7 M106.9 43.3 L110.75 51.05 M69.3 0.0 L71.45 2.75 74.0 0.0 M73.0 8.45 L73.0 4.75 71.45 2.75 M75.9 8.45 L73.0 8.45 73.0 16.2 69.55 19.7 56.05 19.7 53.55 17.6 53.25 17.3 50.85 19.7 37.3 19.7 34.85 17.6 34.5 17.3 32.1 19.7 18.6 19.7 18.35 19.5 18.15 20.05 16.5 24.75 15.8 26.7 35.7 26.7 37.25 22.5 91.3 22.5 M77.15 2.9 L75.9 4.3 M66.6 2.15 L62.9 2.15 M69.3 0.0 L66.6 2.15 66.6 17.5 69.55 19.7 M63.9 4.3 L66.6 2.15 M66.6 17.5 L66.6 17.6 61.6 17.6 M63.9 15.45 L66.6 17.5 M63.9 4.3 L63.9 15.45 51.1 15.45 53.25 17.3 M62.1 13.7 L52.9 13.7 52.9 6.05 62.1 6.05 62.1 13.7 M52.9 2.9 L53.9 2.1 55.9 0.55 M52.9 2.9 L51.1 4.3 63.9 4.3 M52.7 2.75 L52.9 2.9 M55.3 0.0 L52.7 2.75 50.6 0.0 47.9 2.15 47.9 17.5 50.85 19.7 M45.15 4.3 L47.9 2.15 44.15 2.15 M47.9 17.5 L47.9 17.6 42.9 17.6 M45.15 15.45 L47.9 17.5 M45.15 4.3 L45.15 15.45 32.4 15.45 34.5 17.3 M51.1 15.45 L51.1 4.3 M34.15 6.05 L43.4 6.05 43.4 13.7 34.15 13.7 34.15 6.05 M44.5 33.15 L41.85 40.5 44.2 40.5 46.85 33.15 44.5 33.15 M79.6 25.5 L72.7 25.5 71.1 29.9 23.1 29.9 22.3 32.3 21.45 34.7 20.6 37.0 19.75 39.35 19.3 40.7 19.9 41.7 21.3 44.05 22.7 46.3 69.3 46.3 M61.35 17.6 L53.55 17.6 M62.65 2.15 L53.9 2.1 M32.4 4.3 L34.15 2.9 M25.45 2.15 L29.15 2.15 31.9 0.0 M29.15 2.15 L26.4 4.3 26.4 15.45 29.15 17.5 29.15 2.15 M29.15 17.5 L29.15 17.6 16.1 17.6 18.35 19.5 M32.1 19.7 L29.15 17.5 M32.4 15.45 L32.4 4.3 45.15 4.3 M24.7 13.7 L15.4 13.7 15.4 6.05 24.7 6.05 24.7 13.7 M16.1 17.6 L14.1 15.9 M12.95 34.7 L15.5 34.7 M13.75 32.3 L12.95 34.7 12.1 37.0 15.5 37.0 M13.75 32.3 L15.5 32.3 M15.8 26.7 L13.75 32.3 M4.95 33.25 L8.0 33.25 16.5 24.75 M19.75 39.35 L15.75 39.35 M19.9 41.7 L15.75 41.7 M19.3 56.3 L18.95 55.7 17.55 53.4 16.1 51.05 14.7 48.7 13.3 46.35 11.9 44.05 10.5 41.7 10.45 41.65 11.3 39.35 12.1 37.0 M10.5 41.7 L15.5 41.7 M11.3 39.35 L15.5 39.35 M35.1 33.15 L32.5 40.5 34.85 40.5 37.5 33.15 35.1 33.15 M30.45 33.15 L27.8 40.5 30.15 40.5 32.8 33.15 30.45 33.15 M25.75 33.15 L23.1 40.5 25.5 40.5 28.1 33.15 25.75 33.15 M22.7 46.3 L22.75 46.35 24.2 48.7 25.65 51.05 16.1 51.05 M39.8 33.15 L37.15 40.5 39.5 40.5 42.15 33.15 39.8 33.15 M21.3 44.05 L11.9 44.05 M13.3 46.35 L22.75 46.35 M24.2 48.7 L14.7 48.7 M20.6 37.0 L15.75 37.0 M18.15 20.05 L4.95 33.25 11.05 58.1 11.1 58.1 14.1 58.1 8.0 33.25 M13.65 15.45 L26.4 15.45 M21.45 34.7 L15.75 34.7 M15.75 32.3 L22.3 32.3 M13.65 4.3 L26.4 4.3 M16.4 2.1 L25.2 2.15 M38.1 56.55 Q37.45 59.0 37.45 61.85 37.45 65.8 38.8 69.0 L39.4 70.3 40.25 71.65 41.7 73.45 43.1 74.55 M39.4 70.3 L38.5 70.3 37.35 69.95 37.05 69.75 Q36.25 69.2 35.55 67.9 L35.35 67.55 Q34.3 65.3 34.3 62.25 34.3 59.2 35.35 56.95 L35.55 56.55 M23.7 58.1 Q23.4 59.9 23.4 61.85 L23.55 64.5 M19.4 56.45 L20.4 58.1 23.7 58.1 26.85 58.1 28.8 56.1 M38.35 75.7 Q37.45 75.7 36.7 75.3 L35.45 74.7 35.35 74.65 34.95 74.35 33.85 73.45 32.35 71.65 30.9 69.0 Q29.55 65.8 29.55 61.85 29.55 59.0 30.25 56.55 M23.65 64.95 Q23.95 67.1 24.75 69.0 L25.35 70.3 26.2 71.65 27.7 73.45 29.0 74.55 29.3 74.7 Q30.0 75.15 30.85 75.4 L32.2 75.7 M13.25 59.35 L11.1 58.1 M12.2 64.5 L12.2 60.65 13.25 59.35 14.2 58.15 14.1 58.1 M19.3 56.3 L19.4 56.45 Q18.7 59.1 18.7 61.85 L18.9 64.9 Q19.25 67.1 20.1 69.0 L20.7 70.3 M14.2 58.15 L15.7 56.3 19.3 56.3 M27.1 53.4 L17.55 53.4 M28.5 55.7 L18.95 55.7 M81.05 75.7 Q77.25 75.6 74.5 71.65 L74.25 71.3 73.7 70.3 73.05 69.0 Q71.7 65.8 71.7 61.85 71.7 59.0 72.4 56.55 M67.5 70.3 L66.9 69.0 Q65.55 65.8 65.55 61.85 65.55 59.0 66.25 56.55 M63.65 56.55 L63.5 56.95 Q62.4 59.2 62.4 62.25 62.4 65.3 63.5 67.55 L63.65 67.9 Q64.3 69.2 65.15 69.75 L65.5 69.95 Q66.0 70.3 66.6 70.3 L67.5 70.3 68.35 71.65 Q69.65 73.5 71.15 74.55 M77.7 56.55 Q76.5 58.9 76.5 62.25 76.5 65.55 77.7 67.9 78.5 69.45 79.5 69.95 80.05 70.3 80.7 70.3 L88.9 70.3 M53.45 70.3 L52.85 69.0 Q51.5 65.8 51.5 61.85 51.5 59.0 52.2 56.55 M66.45 75.7 Q65.6 75.7 64.75 75.3 L63.5 74.7 63.5 74.65 63.05 74.35 61.9 73.45 60.5 71.65 Q59.6 70.4 59.0 69.0 57.7 65.8 57.7 61.85 57.7 59.0 58.35 56.55 M49.6 56.55 L49.45 56.95 Q48.35 59.2 48.35 62.25 48.35 65.3 49.45 67.55 L49.6 67.9 Q50.3 69.2 51.1 69.75 L51.4 69.95 Q51.95 70.3 52.55 70.3 L53.45 70.3 54.3 71.65 55.75 73.45 Q56.4 74.1 57.1 74.55 M52.4 75.7 Q51.55 75.7 50.7 75.3 L49.5 74.7 49.45 74.65 49.0 74.35 47.9 73.45 46.4 71.65 44.95 69.0 Q43.6 65.8 43.6 61.85 43.6 59.0 44.3 56.55 M42.65 17.6 L34.85 17.6 M35.1 2.1 L43.9 2.15 M79.6 25.5 L86.55 38.5" fill="none" stroke="#000000" stroke-width="0.7" stroke-opacity="0.4"/>
  </g>
  <defs>
    <radialGradient cx="0" cy="0" gradientTransform="matrix(0.0368, 0.0, 0.0, 0.0368, 139.2, 16.55)" gradientUnits="userSpaceOnUse" id="gradient0" r="819.2" spreadMethod="pad">
      <stop offset="0.0" stop-color="#cccccc"/>
      <stop offset="1.0" stop-color="#333333"/>
    </radialGradient>
    <linearGradient gradientTransform="matrix(0.0, -0.0229, 0.0094, 0.0, 131.3, 25.75)" gradientUnits="userSpaceOnUse" id="gradient1" spreadMethod="pad" x1="-819.2" x2="819.2">
      <stop offset="0.0" stop-color="#333333"/>
      <stop offset="0.75" stop-color="#cccccc"/>
      <stop offset="1.0" stop-color="#666666"/>
    </linearGradient>
    <linearGradient gradientTransform="matrix(0.0, -0.0229, 0.0122, 0.0, 138.3, 25.75)" gradientUnits="userSpaceOnUse" id="gradient2" spreadMethod="pad" x1="-819.2" x2="819.2">
      <stop offset="0.0" stop-color="#333333"/>
      <stop offset="0.75" stop-color="#cccccc"/>
      <stop offset="1.0" stop-color="#666666"/>
    </linearGradient>
    <linearGradient gradientTransform="matrix(0.0, -0.0229, 0.0208, 0.0, 117.25, 25.75)" gradientUnits="userSpaceOnUse" id="gradient3" spreadMethod="pad" x1="-819.2" x2="819.2">
      <stop offset="0.0" stop-color="#333333"/>
      <stop offset="0.75" stop-color="#cccccc"/>
      <stop offset="1.0" stop-color="#666666"/>
    </linearGradient>
    <linearGradient gradientTransform="matrix(0.0, -0.0081, 0.0216, 0.0, 105.7, 34.75)" gradientUnits="userSpaceOnUse" id="gradient4" spreadMethod="pad" x1="-819.2" x2="819.2">
      <stop offset="0.0" stop-color="#333333"/>
      <stop offset="1.0" stop-color="#666666"/>
    </linearGradient>
    <linearGradient gradientTransform="matrix(0.0056, 0.0, 0.0, 0.0047, 57.5, 9.85)" gradientUnits="userSpaceOnUse" id="gradient5" spreadMethod="pad" x1="-819.2" x2="819.2">
      <stop offset="0.0" stop-color="#980000"/>
      <stop offset="0.2" stop-color="#ff1919"/>
      <stop offset="0.66" stop-color="#6b0101"/>
    </linearGradient>
    <linearGradient gradientTransform="matrix(0.0056, 0.0, 0.0, 0.0047, 38.75, 9.85)" gradientUnits="userSpaceOnUse" id="gradient6" spreadMethod="pad" x1="-819.2" x2="819.2">
      <stop offset="0.0" stop-color="#980000"/>
      <stop offset="0.2" stop-color="#ff1919"/>
      <stop offset="0.66" stop-color="#6b0101"/>
    </linearGradient>
    <linearGradient gradientTransform="matrix(0.0031, 0.0, 0.0, 0.0045, 44.35, 36.8)" gradientUnits="userSpaceOnUse" id="gradient7" spreadMethod="pad" x1="-819.2" x2="819.2">
      <stop offset="0.0" stop-color="#980000"/>
      <stop offset="0.2" stop-color="#ff1919"/>
      <stop offset="0.66" stop-color="#6b0101"/>
    </linearGradient>
    <linearGradient gradientTransform="matrix(0.0056, 0.0, 0.0, 0.0047, 20.05, 9.85)" gradientUnits="userSpaceOnUse" id="gradient8" spreadMethod="pad" x1="-819.2" x2="819.2">
      <stop offset="0.0" stop-color="#980000"/>
      <stop offset="0.2" stop-color="#ff1919"/>
      <stop offset="0.66" stop-color="#6b0101"/>
    </linearGradient>
    <linearGradient gradientTransform="matrix(0.0031, 0.0, 0.0, 0.0045, 35.0, 36.8)" gradientUnits="userSpaceOnUse" id="gradient9" spreadMethod="pad" x1="-819.2" x2="819.2">
      <stop offset="0.0" stop-color="#980000"/>
      <stop offset="0.2" stop-color="#ff1919"/>
      <stop offset="0.66" stop-color="#6b0101"/>
    </linearGradient>
    <linearGradient gradientTransform="matrix(0.0031, 0.0, 0.0, 0.0045, 30.3, 36.8)" gradientUnits="userSpaceOnUse" id="gradient10" spreadMethod="pad" x1="-819.2" x2="819.2">
      <stop offset="0.0" stop-color="#980000"/>
      <stop offset="0.2" stop-color="#ff1919"/>
      <stop offset="0.66" stop-color="#6b0101"/>
    </linearGradient>
    <linearGradient gradientTransform="matrix(0.0031, 0.0, 0.0, 0.0045, 25.6, 36.8)" gradientUnits="userSpaceOnUse" id="gradient11" spreadMethod="pad" x1="-819.2" x2="819.2">
      <stop offset="0.0" stop-color="#980000"/>
      <stop offset="0.2" stop-color="#ff1919"/>
      <stop offset="0.66" stop-color="#6b0101"/>
    </linearGradient>
    <linearGradient gradientTransform="matrix(0.0284, 0.0, 0.0, 0.0029, 46.0, 48.65)" gradientUnits="userSpaceOnUse" id="gradient12" spreadMethod="pad" x1="-819.2" x2="819.2">
      <stop offset="0.0" stop-color="#980000"/>
      <stop offset="0.2" stop-color="#ff1919"/>
      <stop offset="0.66" stop-color="#6b0101"/>
    </linearGradient>
    <linearGradient gradientTransform="matrix(0.0031, 0.0, 0.0, 0.0045, 39.65, 36.8)" gradientUnits="userSpaceOnUse" id="gradient13" spreadMethod="pad" x1="-819.2" x2="819.2">
      <stop offset="0.0" stop-color="#980000"/>
      <stop offset="0.2" stop-color="#ff1919"/>
      <stop offset="0.66" stop-color="#6b0101"/>
    </linearGradient>
    <linearGradient gradientTransform="matrix(0.0, -0.0117, 0.0095, 0.0, 45.2, 66.15)" gradientUnits="userSpaceOnUse" id="gradient14" spreadMethod="pad" x1="-819.2" x2="819.2">
      <stop offset="0.0" stop-color="#333333"/>
      <stop offset="1.0" stop-color="#666666"/>
    </linearGradient>
    <linearGradient gradientTransform="matrix(0.0, -0.012, 0.0123, 0.0, 28.8, 65.9)" gradientUnits="userSpaceOnUse" id="gradient15" spreadMethod="pad" x1="-819.2" x2="819.2">
      <stop offset="0.0" stop-color="#333333"/>
      <stop offset="1.0" stop-color="#666666"/>
    </linearGradient>
    <linearGradient gradientTransform="matrix(0.0, -0.0117, 0.0095, 0.0, 73.3, 66.15)" gradientUnits="userSpaceOnUse" id="gradient16" spreadMethod="pad" x1="-819.2" x2="819.2">
      <stop offset="0.0" stop-color="#333333"/>
      <stop offset="1.0" stop-color="#666666"/>
    </linearGradient>
    <linearGradient gradientTransform="matrix(0.0, -0.0117, 0.0095, 0.0, 59.25, 66.15)" gradientUnits="userSpaceOnUse" id="gradient17" spreadMethod="pad" x1="-819.2" x2="819.2">
      <stop offset="0.0" stop-color="#333333"/>
      <stop offset="1.0" stop-color="#666666"/>
    </linearGradient>
  </defs>
</svg>
