<?xml version="1.0" encoding="UTF-8" standalone="no"?>
<svg xmlns:xlink="http://www.w3.org/1999/xlink" height="208.75px" width="208.0px" xmlns="http://www.w3.org/2000/svg">
  <g transform="matrix(1.0, 0.0, 0.0, 1.0, 0.05, 0.05)">
    <path d="M197.0 73.9 L193.05 73.9 191.1 69.15 197.0 73.9 M124.3 56.35 Q139.15 65.15 149.55 73.9 L139.5 73.9 Q133.3 68.6 125.4 63.3 120.2 59.85 114.35 56.35 L124.3 56.35 M9.25 98.55 L9.6 96.4 10.15 94.3 12.1 85.05 22.45 80.6 23.8 80.05 27.6 78.4 32.25 76.4 45.0 70.95 60.9 70.95 64.45 80.75 68.0 90.55 94.15 104.25 30.2 100.05 22.05 99.5 14.15 98.95 9.25 98.55 M55.55 9.25 L55.1 3.6 68.8 10.1 58.75 10.1 55.55 9.25 M83.65 3.6 L82.7 0.0 Q87.3 2.45 91.3 4.9 99.25 9.75 105.05 14.6 L105.65 15.05 Q110.3 19.1 113.55 23.1 L108.35 23.1 105.05 19.4 103.25 17.55 100.55 15.05 94.2 10.1 83.65 3.6 M103.25 17.55 L105.65 15.05 103.25 17.55 M10.15 94.3 L18.0 95.5 20.35 86.45 52.4 91.65 68.0 90.55 52.4 91.65 20.35 86.45 18.0 95.5 10.15 94.3 M20.35 86.45 L12.1 85.05 20.35 86.45 M64.45 80.75 L48.85 81.85 27.6 78.4 48.85 81.85 64.45 80.75 M47.25 123.45 L42.0 122.7 39.15 122.2 30.9 120.95 32.85 128.45 67.1 148.6 75.0 148.6 93.8 148.6 93.2 146.15 88.8 129.8 83.0 128.9 77.2 128.0 71.0 127.05 65.2 126.25 59.25 125.3 53.05 124.35 47.25 123.45 M29.15 111.7 L38.25 113.05 96.15 121.85 103.4 149.05 97.6 156.75 82.2 156.75 69.6 156.75 77.15 175.3 52.25 171.25 77.15 175.3 81.15 185.4 72.05 183.8 58.5 181.35 52.25 171.25 49.05 166.05 48.95 166.0 31.65 137.85 19.4 132.65 18.5 129.3 17.55 125.95 16.5 122.05 15.65 118.45 14.7 114.95 14.65 114.9 13.85 111.45 13.7 111.45 12.65 107.4 11.75 104.0 14.3 109.45 20.3 110.35 29.15 111.7" fill="#666666" fill-rule="evenodd" stroke="none"/>
    <path d="M193.05 73.9 L197.0 73.9 198.95 84.7 196.9 84.7 198.95 84.7 199.95 90.3 200.85 95.45 199.3 95.45 197.3 86.1 196.9 84.7 Q195.05 78.9 193.05 73.9 M149.55 73.9 L151.5 84.7 153.4 95.45 153.35 95.45 143.45 95.45 141.5 84.7 139.5 73.9 149.55 73.9 M103.65 205.45 L92.2 205.45 86.75 190.05 86.75 185.4 87.1 185.4 Q89.05 186.9 91.45 186.9 L91.8 186.9 91.8 190.0 95.35 199.9 103.4 199.9 101.45 202.85 103.65 205.45 M151.5 84.7 L141.5 84.7 151.5 84.7" fill="#555555" fill-rule="evenodd" stroke="none"/>
    <path d="M191.1 69.15 L193.05 73.9 Q195.05 78.9 196.9 84.7 L197.3 86.1 199.3 95.45 199.75 98.1 199.75 98.15 Q199.75 99.5 197.8 99.9 L191.6 99.9 176.55 99.9 165.4 99.9 Q161.6 99.65 158.2 98.1 L158.1 98.1 153.4 95.5 153.4 95.45 151.5 84.7 149.55 73.9 Q139.15 65.15 124.3 56.35 L123.65 52.4 Q116.1 46.35 106.95 40.3 97.7 34.3 113.7 31.35 129.75 28.45 146.9 32.0 151.5 32.95 155.7 34.4 167.3 38.5 176.4 46.9 184.55 54.35 191.1 69.15" fill="url(#gradient0)" fill-rule="evenodd" stroke="none"/>
    <path d="M199.3 95.45 L200.85 95.45 199.95 90.3 207.45 102.25 Q208.15 103.4 207.8 104.2 207.15 105.55 203.75 106.0 L197.7 106.0 191.6 99.9 197.8 99.9 Q199.75 99.5 199.75 98.15 L199.75 98.1 199.3 95.45 M153.4 95.5 L158.1 98.1 158.2 98.1 Q161.6 99.65 165.4 99.9 L176.55 99.9 181.3 106.0 170.25 106.0 Q164.35 106.1 159.4 104.85 155.3 103.8 151.75 101.85 L151.6 101.85 115.05 81.6 118.35 81.6 143.45 95.45 153.35 95.45 153.4 95.5 M8.05 79.2 L15.3 79.2 23.8 80.05 22.45 80.6 8.05 79.2 M10.45 55.85 L18.6 55.85 18.35 56.6 33.95 60.65 29.1 60.65 33.95 60.65 74.0 70.95 69.3 70.95 29.1 60.65 10.45 55.85 M18.55 34.25 L43.95 34.25 Q47.25 36.25 46.95 39.65 L65.2 45.5 98.9 56.4 91.75 56.4 36.5 39.65 36.4 39.65 18.55 34.25 M107.9 81.9 L138.3 96.2 131.1 96.2 101.0 81.9 107.9 81.9 M98.55 90.55 L124.0 104.25 94.15 104.25 68.0 90.55 98.55 90.55 M36.5 39.65 L46.95 39.65 36.5 39.65 M75.0 148.6 L67.1 148.6 32.85 128.45 40.75 128.45 75.0 148.6 M120.05 118.05 L110.0 118.05 107.45 115.55 110.0 118.05 100.05 118.05 99.75 115.55 107.45 115.55 115.15 115.55 120.05 118.05" fill="#cccccc" fill-rule="evenodd" stroke="none"/>
    <path d="M197.7 106.0 L203.75 106.0 Q207.15 105.55 207.8 104.2 204.95 121.65 198.35 137.0 L194.3 145.3 Q191.55 150.55 187.8 155.2 L185.9 157.4 Q175.15 169.5 157.15 177.5 L150.8 180.1 132.9 180.1 Q146.1 169.2 152.15 155.2 153.8 151.1 155.0 146.7 160.55 125.3 159.4 104.85 164.35 106.1 170.25 106.0 L181.3 106.0 180.95 114.65 Q180.55 119.0 179.75 123.35 L178.2 130.65 176.4 137.0 174.45 142.5 172.6 147.15 Q175.8 147.75 180.8 147.15 L183.8 142.5 187.0 137.0 190.2 130.65 193.25 123.35 Q194.8 119.0 195.95 114.65 L197.7 106.0 M187.8 155.2 Q171.3 157.85 152.15 155.2 171.3 157.85 187.8 155.2" fill="url(#gradient1)" fill-rule="evenodd" stroke="none"/>
    <path d="M197.7 106.0 L195.95 114.65 Q188.15 115.15 180.95 114.65 188.15 115.15 195.95 114.65 194.8 119.0 193.25 123.35 L190.2 130.65 187.0 137.0 183.8 142.5 180.8 147.15 Q175.8 147.75 172.6 147.15 L174.45 142.5 176.4 137.0 178.2 130.65 179.75 123.35 Q180.55 119.0 180.95 114.65 L181.3 106.0 197.7 106.0 M136.95 202.4 L131.3 208.65 115.6 208.65 120.3 202.25 136.95 202.4 M179.75 123.35 Q186.5 123.8 193.25 123.35 186.5 123.8 179.75 123.35 M178.2 130.65 Q183.7 130.95 190.2 130.65 183.7 130.95 178.2 130.65 M187.0 137.0 Q181.05 137.35 176.4 137.0 181.05 137.35 187.0 137.0 M174.45 142.5 Q178.85 142.95 183.8 142.5 178.85 142.95 174.45 142.5 M114.2 165.1 L128.35 151.8 135.5 151.8 121.5 165.1 118.7 167.75 114.9 171.3 113.25 172.9 109.05 176.8 101.8 176.8 114.2 165.1 121.5 165.1 114.2 165.1" fill="#888888" fill-rule="evenodd" stroke="none"/>
    <path d="M191.6 99.9 L197.7 106.0 181.3 106.0 176.55 99.9 191.6 99.9 M123.65 52.4 L124.3 56.35 114.35 56.35 116.6 70.4 118.35 81.6 115.05 81.6 110.35 52.4 123.65 52.4 M124.0 104.25 L124.0 121.85 123.0 149.05 113.2 149.05 103.4 149.05 96.15 121.85 94.15 104.25 124.0 104.25 M32.85 128.45 L30.9 120.95 39.15 122.2 40.75 128.45 32.85 128.45 M77.15 175.3 L69.6 156.75 82.2 156.75 83.15 160.1 87.3 174.4 87.5 175.3 87.65 175.75 90.25 184.95 90.4 185.1 90.45 185.35 90.45 185.4 87.1 185.4 86.75 185.4 81.15 185.4 77.15 175.3 87.5 175.3 77.15 175.3 M120.05 118.05 L120.05 108.6 115.15 108.6 99.0 108.6 99.75 115.55 100.05 118.05 110.0 118.05 120.05 118.05 M124.0 121.85 L110.25 121.85 110.0 118.05 110.25 121.85 124.0 121.85 M113.2 149.05 L110.25 121.85 96.15 121.85 110.25 121.85 113.2 149.05" fill="#aaaaaa" fill-rule="evenodd" stroke="none"/>
    <path d="M155.7 34.4 Q151.5 32.95 146.9 32.0 129.75 28.45 113.7 31.35 97.7 34.3 106.95 40.3 116.1 46.35 123.65 52.4 L110.35 52.4 110.3 52.25 110.3 52.4 Q99.95 43.65 85.15 34.85 79.1 31.1 72.55 27.65 68.65 25.55 64.55 23.6 54.25 19.0 44.35 15.05 L74.8 15.05 44.35 15.05 Q20.85 5.7 0.0 0.0 L12.6 0.0 Q35.05 4.05 55.55 9.25 L58.75 10.1 74.8 15.05 100.7 23.1 108.35 23.1 113.55 23.1 Q110.3 19.1 105.65 15.05 L105.05 14.6 Q99.25 9.75 91.3 4.9 87.3 2.45 82.7 0.0 L90.45 0.0 Q107.3 5.8 124.6 15.05 139.95 23.35 155.7 34.4 M105.65 15.05 L124.6 15.05 105.65 15.05" fill="url(#gradient2)" fill-rule="evenodd" stroke="none"/>
    <path d="M92.2 205.45 L75.95 205.45 71.35 192.55 67.35 192.55 63.3 192.55 67.35 192.55 71.9 205.45 67.85 205.45 63.3 192.55 59.25 192.55 55.2 192.55 51.45 192.55 47.6 185.9 39.9 183.25 38.4 178.2 46.4 180.85 45.25 176.1 44.0 171.1 42.1 163.2 33.1 159.5 29.95 158.25 29.05 154.6 23.85 152.4 21.25 142.0 19.6 135.45 11.55 131.95 10.4 129.3 11.75 129.3 13.85 125.95 10.0 125.95 12.8 122.05 8.95 122.05 11.75 118.45 7.85 118.45 10.9 114.9 7.2 114.9 10.0 111.45 6.2 111.45 9.45 107.4 6.15 107.4 4.75 104.85 10.45 101.3 11.75 104.0 12.65 107.4 13.7 111.45 13.85 111.45 14.65 114.9 14.7 114.95 15.65 118.45 16.5 122.05 17.55 125.95 18.5 129.3 19.4 132.65 31.65 137.85 48.95 166.0 49.05 166.05 42.1 163.2 49.05 166.05 52.9 182.05 56.65 188.7 67.6 188.7 72.05 183.8 81.15 185.4 86.75 185.4 86.75 190.05 73.55 190.05 71.35 192.55 73.55 190.05 86.75 190.05 92.2 205.45 M63.85 205.45 L59.7 205.45 55.2 192.55 59.25 192.55 63.85 205.45 M37.05 173.35 L35.65 168.3 44.0 171.1 45.25 176.1 37.05 173.35 M84.65 10.1 L89.3 10.1 94.2 10.1 100.55 15.05 103.25 17.55 105.05 19.4 108.35 23.1 100.7 23.1 74.8 15.05 58.75 10.1 68.8 10.1 82.2 13.2 85.5 13.2 88.85 13.2 84.65 10.1 M116.6 70.4 L114.35 56.35 Q120.2 59.85 125.4 63.3 133.3 68.6 139.5 73.9 L141.5 84.7 116.6 70.4 141.5 84.7 143.45 95.45 118.35 81.6 116.6 70.4 M42.0 122.7 L43.2 127.45 49.15 130.95 55.9 134.9 62.6 138.9 69.3 142.85 74.95 146.15 76.15 146.15 82.05 146.15 87.65 146.15 93.2 146.15 93.8 148.6 75.0 148.6 40.75 128.45 39.15 122.2 42.0 122.7 M21.25 142.0 L26.4 143.9 29.05 154.6 26.4 143.9 21.25 142.0 M17.55 125.95 L13.85 125.95 17.55 125.95 M18.5 129.3 L11.75 129.3 18.5 129.3 M12.65 107.4 L9.45 107.4 12.65 107.4 M13.7 111.45 L10.0 111.45 13.7 111.45 M16.5 122.05 L12.8 122.05 16.5 122.05 M11.75 118.45 L15.65 118.45 11.75 118.45 M14.65 114.9 L10.9 114.9 14.65 114.9 M47.6 185.9 L46.4 180.85 47.6 185.9 M107.45 115.55 L99.75 115.55 99.0 108.6 115.15 108.6 115.15 115.55 107.45 115.55 M113.25 172.9 L113.25 184.9 109.95 190.0 107.2 194.05 106.8 194.75 103.4 199.9 95.35 199.9 91.8 190.0 91.8 186.9 Q94.4 186.75 96.3 184.85 98.4 182.85 98.4 179.95 L98.4 179.9 98.4 179.65 Q98.2 176.95 96.3 175.05 94.3 173.0 91.45 173.0 L91.05 173.0 91.05 167.1 91.05 173.0 Q89.1 173.1 87.6 174.2 L87.3 174.4 83.15 160.1 91.05 167.1 101.8 176.8 109.05 176.8 113.25 172.9 M109.05 176.8 L109.05 183.7 107.35 186.35 102.3 179.9 98.4 179.9 102.3 179.9 107.35 186.35 109.05 183.7 109.05 176.8 M109.95 190.0 L105.1 190.0 106.8 194.75 105.1 190.0 109.95 190.0 M107.35 186.35 L105.1 190.0 91.8 190.0 105.1 190.0 107.35 186.35" fill="#333333" fill-rule="evenodd" stroke="none"/>
    <path d="M43.95 34.25 L2.1 8.55 1.05 4.3 Q21.4 10.75 35.95 18.15 L40.4 20.45 Q51.9 26.55 59.25 31.85 67.95 38.1 65.2 45.5 L46.95 39.65 Q47.25 36.25 43.95 34.25 M89.3 10.1 L84.65 7.15 83.65 3.6 94.2 10.1 89.3 10.1" fill="url(#gradient3)" fill-rule="evenodd" stroke="none"/>
    <path d="M55.1 3.6 L62.95 0.5 85.5 13.2 82.2 13.2 68.8 10.1 55.1 3.6" fill="url(#gradient4)" fill-rule="evenodd" stroke="none"/>
    <path d="M62.95 0.5 L72.75 2.3 84.65 10.1 88.85 13.2 85.5 13.2 62.95 0.5" fill="url(#gradient5)" fill-rule="evenodd" stroke="none"/>
    <path d="M1.05 4.3 L0.0 0.0 Q20.85 5.7 44.35 15.05 54.25 19.0 64.55 23.6 68.65 25.55 72.55 27.65 79.1 31.1 85.15 34.85 99.95 43.65 110.3 52.4 L110.35 52.4 115.05 81.6 151.6 101.85 151.75 101.85 Q155.3 103.8 159.4 104.85 160.55 125.3 155.0 146.7 153.8 151.1 152.15 155.2 L136.75 147.8 152.15 155.2 Q146.1 169.2 132.9 180.1 L118.7 167.75 121.5 165.1 135.5 151.8 136.75 147.8 146.55 117.5 138.3 96.2 107.9 81.9 103.4 69.15 98.9 56.4 65.2 45.5 Q67.95 38.1 59.25 31.85 51.9 26.55 40.4 20.45 L35.95 18.15 Q21.4 10.75 1.05 4.3 M40.4 20.45 L44.35 15.05 40.4 20.45" fill="url(#gradient6)" fill-rule="evenodd" stroke="none"/>
    <path d="M157.15 177.5 L151.1 191.25 133.95 191.25 114.9 171.3 118.7 167.75 132.9 180.1 150.8 180.1 157.15 177.5 M98.9 56.4 L103.4 69.15 107.9 81.9 101.0 81.9 96.4 69.15 91.75 56.4 98.9 56.4 M138.3 96.2 L146.55 117.5 139.4 117.5 131.1 96.2 138.3 96.2 M80.9 70.95 L86.2 70.95 91.45 70.95 94.95 80.75 98.55 90.55 68.0 90.55 64.45 80.75 60.9 70.95 69.3 70.95 74.0 70.95 80.9 70.95 M103.4 69.15 L96.4 69.15 103.4 69.15 M94.95 80.75 L64.45 80.75 94.95 80.75" fill="#bbbbbb" fill-rule="evenodd" stroke="none"/>
    <path d="M151.1 191.25 L136.95 202.4 120.3 202.25 133.95 191.25 151.1 191.25 M9.6 96.4 L8.05 95.75 8.05 79.2 22.45 80.6 12.1 85.05 10.15 94.3 9.6 96.4 M15.85 72.8 L8.2 71.1 10.45 55.85 29.1 60.65 69.3 70.95 60.9 70.95 45.0 70.95 32.25 76.4 26.95 75.25 15.85 72.8 M20.0 50.75 L12.8 48.35 18.55 34.25 36.4 39.65 36.5 39.65 91.75 56.4 96.4 69.15 86.2 70.95 96.4 69.15 101.0 81.9 131.1 96.2 139.4 117.5 128.35 151.8 114.2 165.1 104.05 156.75 106.55 156.75 114.65 156.75 123.0 149.05 114.65 156.75 106.55 156.75 104.05 156.75 114.2 165.1 101.8 176.8 91.05 167.1 83.15 160.1 82.2 156.75 97.6 156.75 103.4 149.05 113.2 149.05 123.0 149.05 124.0 121.85 124.0 104.25 98.55 90.55 94.95 80.75 91.45 70.95 86.2 70.95 80.9 70.95 30.7 54.3 20.0 50.75 M30.7 54.3 L36.4 39.65 30.7 54.3 M29.1 60.65 L26.95 75.25 29.1 60.65 M106.55 156.75 L113.2 149.05 106.55 156.75 M104.05 156.75 L97.6 156.75 104.05 156.75" fill="#777777" fill-rule="evenodd" stroke="none"/>
    <path d="M153.4 95.45 L153.4 95.5 153.35 95.45 153.4 95.45" fill="#ffcc00" fill-rule="evenodd" stroke="none"/>
    <path d="M18.6 55.85 L20.0 50.75 30.7 54.3 80.9 70.95 74.0 70.95 33.95 60.65 18.35 56.6 18.6 55.85" fill="url(#gradient7)" fill-rule="evenodd" stroke="none"/>
    <path d="M10.45 101.3 L9.25 98.55 14.15 98.95 22.05 99.5 30.2 100.05 94.15 104.25 96.15 121.85 38.25 113.05 29.15 111.7 22.05 99.5 29.15 111.7 20.3 110.35 14.3 109.45 11.75 104.0 10.45 101.3 M30.2 100.05 L38.25 113.05 30.2 100.05 M115.15 108.6 L120.05 108.6 120.05 118.05 115.15 115.55 115.15 108.6 M14.15 98.95 L20.3 110.35 14.15 98.95" fill="#6f6f6f" fill-rule="evenodd" stroke="none"/>
    <path d="M15.3 79.2 L15.85 72.8 26.95 75.25 32.25 76.4 27.6 78.4 23.8 80.05 15.3 79.2" fill="url(#gradient8)" fill-rule="evenodd" stroke="none"/>
    <path d="M42.0 122.7 L47.25 123.45 49.15 130.95 47.25 123.45 53.05 124.35 59.25 125.3 65.2 126.25 71.0 127.05 77.2 128.0 83.0 128.9 88.8 129.8 93.2 146.15 87.65 146.15 82.05 146.15 76.15 146.15 74.95 146.15 69.3 142.85 62.6 138.9 55.9 134.9 49.15 130.95 43.2 127.45 42.0 122.7 M62.6 138.9 L59.25 125.3 62.6 138.9 M69.3 142.85 L65.2 126.25 69.3 142.85 M76.15 146.15 L71.0 127.05 76.15 146.15 M55.9 134.9 L53.05 124.35 55.9 134.9 M87.65 146.15 L83.0 128.9 87.65 146.15 M82.05 146.15 L77.2 128.0 82.05 146.15" fill="url(#gradient9)" fill-rule="evenodd" stroke="none"/>
    <path d="M75.95 205.45 L71.9 205.45 67.35 192.55 71.35 192.55 75.95 205.45 M67.85 205.45 L63.85 205.45 59.25 192.55 63.3 192.55 67.85 205.45 M38.4 178.2 L37.05 173.35 45.25 176.1 46.4 180.85 38.4 178.2 M35.65 168.3 L33.1 159.5 42.1 163.2 44.0 171.1 35.65 168.3 M49.05 166.05 L52.25 171.25 58.5 181.35 72.05 183.8 67.6 188.7 56.65 188.7 52.9 182.05 49.05 166.05 M91.05 173.0 L91.45 173.0 Q94.3 173.0 96.3 175.05 98.2 176.95 98.4 179.65 L98.4 179.9 98.4 179.95 Q98.4 182.85 96.3 184.85 94.4 186.75 91.8 186.9 L91.45 186.9 Q89.05 186.9 87.1 185.4 L90.45 185.4 90.45 185.35 90.4 185.1 90.25 184.95 90.45 184.95 Q92.05 184.85 93.25 183.85 92.05 184.85 90.45 184.95 L90.25 184.95 87.65 175.75 87.5 175.3 87.3 174.4 87.6 174.2 Q89.1 173.1 91.05 173.0 M93.1 175.95 Q91.8 175.05 90.2 175.05 L89.95 175.05 89.6 175.05 Q88.5 175.2 87.65 175.75 88.5 175.2 89.6 175.05 L89.95 175.05 90.2 175.05 Q91.8 175.05 93.1 175.95 92.0 176.1 91.05 177.05 90.15 178.25 90.15 179.9 90.15 181.5 91.05 182.65 92.05 183.8 93.25 183.85 L93.7 183.45 Q95.2 182.05 95.2 179.95 L95.2 179.9 95.2 179.7 Q95.1 177.85 93.7 176.45 L93.1 175.95" fill="#222222" fill-rule="evenodd" stroke="none"/>
    <path d="M115.6 208.65 L106.3 208.65 103.65 205.45 101.45 202.85 103.4 199.9 106.8 194.75 107.2 194.05 109.95 190.0 113.25 184.9 113.25 172.9 114.9 171.3 133.95 191.25 120.3 202.25 107.2 194.05 120.3 202.25 115.6 208.65 M146.55 117.5 L136.75 147.8 135.5 151.8 128.35 151.8 139.4 117.5 146.55 117.5" fill="#999999" fill-rule="evenodd" stroke="none"/>
    <path d="M93.1 175.95 L93.7 176.45 Q95.1 177.85 95.2 179.7 L95.2 179.9 95.2 179.95 Q95.2 182.05 93.7 183.45 L93.25 183.85 Q92.05 183.8 91.05 182.65 90.15 181.5 90.15 179.9 90.15 178.25 91.05 177.05 92.0 176.1 93.1 175.95" fill="url(#gradient10)" fill-rule="evenodd" stroke="none"/>
    <path d="M193.05 73.9 L197.0 73.9 191.1 69.15 193.05 73.9 Q195.05 78.9 196.9 84.7 L198.95 84.7 197.0 73.9 M199.95 90.3 L200.85 95.45 199.3 95.45 199.75 98.1 199.75 98.15 Q199.75 99.5 197.8 99.9 L191.6 99.9 197.7 106.0 203.75 106.0 Q207.15 105.55 207.8 104.2 208.15 103.4 207.45 102.25 L199.95 90.3 198.95 84.7 M199.3 95.45 L197.3 86.1 196.9 84.7 M191.1 69.15 Q184.55 54.35 176.4 46.9 167.3 38.5 155.7 34.4 151.5 32.95 146.9 32.0 129.75 28.45 113.7 31.35 97.7 34.3 106.95 40.3 116.1 46.35 123.65 52.4 L124.3 56.35 Q139.15 65.15 149.55 73.9 L151.5 84.7 153.4 95.45 153.4 95.5 158.1 98.1 158.2 98.1 Q161.6 99.65 165.4 99.9 L176.55 99.9 191.6 99.9 M195.95 114.65 L197.7 106.0 181.3 106.0 180.95 114.65 Q188.15 115.15 195.95 114.65 194.8 119.0 193.25 123.35 L190.2 130.65 187.0 137.0 183.8 142.5 180.8 147.15 Q175.8 147.75 172.6 147.15 L174.45 142.5 176.4 137.0 178.2 130.65 179.75 123.35 Q180.55 119.0 180.95 114.65 M159.4 104.85 Q164.35 106.1 170.25 106.0 L181.3 106.0 176.55 99.9 M207.8 104.2 Q204.95 121.65 198.35 137.0 L194.3 145.3 Q191.55 150.55 187.8 155.2 L185.9 157.4 Q175.15 169.5 157.15 177.5 L151.1 191.25 136.95 202.4 131.3 208.65 115.6 208.65 106.3 208.65 103.65 205.45 92.2 205.45 75.95 205.45 71.9 205.45 67.85 205.45 63.85 205.45 59.7 205.45 55.2 192.55 51.45 192.55 47.6 185.9 39.9 183.25 38.4 178.2 37.05 173.35 35.65 168.3 33.1 159.5 29.95 158.25 29.05 154.6 23.85 152.4 21.25 142.0 19.6 135.45 11.55 131.95 10.4 129.3 11.75 129.3 13.85 125.95 10.0 125.95 12.8 122.05 8.95 122.05 11.75 118.45 7.85 118.45 10.9 114.9 7.2 114.9 10.0 111.45 6.2 111.45 9.45 107.4 6.15 107.4 4.75 104.85 10.45 101.3 9.25 98.55 9.6 96.4 8.05 95.75 8.05 79.2 15.3 79.2 15.85 72.8 8.2 71.1 10.45 55.85 18.6 55.85 20.0 50.75 12.8 48.35 18.55 34.25 43.95 34.25 2.1 8.55 1.05 4.3 0.0 0.0 12.6 0.0 Q35.05 4.05 55.55 9.25 L55.1 3.6 62.95 0.5 72.75 2.3 84.65 10.1 89.3 10.1 84.65 7.15 83.65 3.6 82.7 0.0 90.45 0.0 Q107.3 5.8 124.6 15.05 139.95 23.35 155.7 34.4 M183.8 142.5 Q178.85 142.95 174.45 142.5 M176.4 137.0 Q181.05 137.35 187.0 137.0 M190.2 130.65 Q183.7 130.95 178.2 130.65 M193.25 123.35 Q186.5 123.8 179.75 123.35 M108.35 23.1 L105.05 19.4 103.25 17.55 100.55 15.05 94.2 10.1 89.3 10.1 M108.35 23.1 L113.55 23.1 Q110.3 19.1 105.65 15.05 L103.25 17.55 M105.65 15.05 L105.05 14.6 Q99.25 9.75 91.3 4.9 87.3 2.45 82.7 0.0 M85.5 13.2 L82.2 13.2 68.8 10.1 58.75 10.1 74.8 15.05 100.7 23.1 108.35 23.1 M85.5 13.2 L88.85 13.2 84.65 10.1 M83.65 3.6 L94.2 10.1 M110.35 52.4 L110.3 52.4 Q99.95 43.65 85.15 34.85 79.1 31.1 72.55 27.65 68.65 25.55 64.55 23.6 54.25 19.0 44.35 15.05 L40.4 20.45 Q51.9 26.55 59.25 31.85 67.95 38.1 65.2 45.5 L98.9 56.4 103.4 69.15 107.9 81.9 138.3 96.2 146.55 117.5 136.75 147.8 152.15 155.2 Q153.8 151.1 155.0 146.7 160.55 125.3 159.4 104.85 155.3 103.8 151.75 101.85 L151.6 101.85 115.05 81.6 110.35 52.4 110.3 52.25 110.3 52.4 M114.35 56.35 L116.6 70.4 141.5 84.7 139.5 73.9 Q133.3 68.6 125.4 63.3 120.2 59.85 114.35 56.35 L124.3 56.35 M91.75 56.4 L98.9 56.4 M86.2 70.95 L96.4 69.15 91.75 56.4 36.5 39.65 36.4 39.65 30.7 54.3 80.9 70.95 86.2 70.95 91.45 70.95 94.95 80.75 98.55 90.55 124.0 104.25 124.0 121.85 123.0 149.05 114.65 156.75 106.55 156.75 104.05 156.75 114.2 165.1 128.35 151.8 139.4 117.5 131.1 96.2 101.0 81.9 96.4 69.15 103.4 69.15 M118.35 81.6 L115.05 81.6 M118.35 81.6 L116.6 70.4 M107.9 81.9 L101.0 81.9 M131.1 96.2 L138.3 96.2 M153.4 95.45 L153.35 95.45 143.45 95.45 118.35 81.6 M141.5 84.7 L143.45 95.45 M139.5 73.9 L149.55 73.9 M141.5 84.7 L151.5 84.7 M124.6 15.05 L105.65 15.05 M110.35 52.4 L123.65 52.4 M58.75 10.1 L55.55 9.25 M46.95 39.65 Q47.25 36.25 43.95 34.25 M65.2 45.5 L46.95 39.65 36.5 39.65 M55.1 3.6 L68.8 10.1 M74.8 15.05 L44.35 15.05 Q20.85 5.7 0.0 0.0 M40.4 20.45 L35.95 18.15 Q21.4 10.75 1.05 4.3 M36.4 39.65 L18.55 34.25 M29.1 60.65 L33.95 60.65 18.35 56.6 18.6 55.85 M9.6 96.4 L10.15 94.3 12.1 85.05 22.45 80.6 8.05 79.2 M9.25 98.55 L14.15 98.95 22.05 99.5 30.2 100.05 94.15 104.25 68.0 90.55 52.4 91.65 20.35 86.45 18.0 95.5 10.15 94.3 M23.8 80.05 L22.45 80.6 M23.8 80.05 L27.6 78.4 32.25 76.4 26.95 75.25 15.85 72.8 M15.3 79.2 L23.8 80.05 M12.1 85.05 L20.35 86.45 M10.45 55.85 L29.1 60.65 69.3 70.95 74.0 70.95 33.95 60.65 M20.0 50.75 L30.7 54.3 M26.95 75.25 L29.1 60.65 M60.9 70.95 L45.0 70.95 32.25 76.4 M27.6 78.4 L48.85 81.85 64.45 80.75 60.9 70.95 69.3 70.95 M74.0 70.95 L80.9 70.95 M68.0 90.55 L64.45 80.75 94.95 80.75 M47.25 123.45 L42.0 122.7 43.2 127.45 49.15 130.95 47.25 123.45 53.05 124.35 59.25 125.3 65.2 126.25 71.0 127.05 77.2 128.0 83.0 128.9 88.8 129.8 93.2 146.15 93.8 148.6 75.0 148.6 67.1 148.6 32.85 128.45 30.9 120.95 39.15 122.2 42.0 122.7 M93.2 146.15 L87.65 146.15 82.05 146.15 76.15 146.15 74.95 146.15 69.3 142.85 62.6 138.9 55.9 134.9 49.15 130.95 M53.05 124.35 L55.9 134.9 M71.0 127.05 L76.15 146.15 M65.2 126.25 L69.3 142.85 M59.25 125.3 L62.6 138.9 M22.05 99.5 L29.15 111.7 38.25 113.05 30.2 100.05 M29.15 111.7 L20.3 110.35 14.3 109.45 11.75 104.0 12.65 107.4 13.7 111.45 13.85 111.45 14.65 114.9 14.7 114.95 15.65 118.45 16.5 122.05 17.55 125.95 18.5 129.3 19.4 132.65 31.65 137.85 48.95 166.0 49.05 166.05 52.25 171.25 77.15 175.3 69.6 156.75 82.2 156.75 97.6 156.75 103.4 149.05 96.15 121.85 38.25 113.05 M11.75 104.0 L10.45 101.3 M10.9 114.9 L14.65 114.9 M15.65 118.45 L11.75 118.45 M12.8 122.05 L16.5 122.05 M10.0 111.45 L13.7 111.45 M9.45 107.4 L12.65 107.4 M11.75 129.3 L18.5 129.3 M13.85 125.95 L17.55 125.95 M29.05 154.6 L26.4 143.9 21.25 142.0 M35.65 168.3 L44.0 171.1 42.1 163.2 33.1 159.5 M49.05 166.05 L42.1 163.2 M55.2 192.55 L59.25 192.55 63.3 192.55 67.35 192.55 71.35 192.55 73.55 190.05 86.75 190.05 86.75 185.4 81.15 185.4 72.05 183.8 67.6 188.7 56.65 188.7 52.9 182.05 49.05 166.05 M45.25 176.1 L46.4 180.85 47.6 185.9 M44.0 171.1 L45.25 176.1 37.05 173.35 M52.25 171.25 L58.5 181.35 72.05 183.8 M32.85 128.45 L40.75 128.45 39.15 122.2 M46.4 180.85 L38.4 178.2 M40.75 128.45 L75.0 148.6 M146.55 117.5 L139.4 117.5 M115.15 108.6 L120.05 108.6 120.05 118.05 110.0 118.05 110.25 121.85 124.0 121.85 M110.0 118.05 L107.45 115.55 99.75 115.55 100.05 118.05 110.0 118.05 M115.15 115.55 L107.45 115.55 M115.15 108.6 L115.15 115.55 120.05 118.05 M99.75 115.55 L99.0 108.6 115.15 108.6 M94.15 104.25 L96.15 121.85 110.25 121.85 113.2 149.05 123.0 149.05 M83.0 128.9 L87.65 146.15 M114.9 171.3 L113.25 172.9 113.25 184.9 109.95 190.0 107.2 194.05 120.3 202.25 133.95 191.25 114.9 171.3 118.7 167.75 121.5 165.1 114.2 165.1 101.8 176.8 109.05 176.8 113.25 172.9 M113.2 149.05 L103.4 149.05 M113.2 149.05 L106.55 156.75 M91.05 173.0 L91.45 173.0 Q94.3 173.0 96.3 175.05 98.2 176.95 98.4 179.65 L98.4 179.9 102.3 179.9 107.35 186.35 109.05 183.7 109.05 176.8 M91.05 167.1 L91.05 173.0 Q89.1 173.1 87.6 174.2 L87.3 174.4 87.5 175.3 87.65 175.75 Q88.5 175.2 89.6 175.05 L89.95 175.05 90.2 175.05 Q91.8 175.05 93.1 175.95 L93.7 176.45 Q95.1 177.85 95.2 179.7 L95.2 179.9 95.2 179.95 Q95.2 182.05 93.7 183.45 L93.25 183.85 Q92.05 184.85 90.45 184.95 L90.25 184.95 90.4 185.1 90.45 185.35 90.45 185.4 87.1 185.4 Q89.05 186.9 91.45 186.9 L91.8 186.9 Q94.4 186.75 96.3 184.85 98.4 182.85 98.4 179.95 L98.4 179.9 M83.15 160.1 L82.2 156.75 M91.05 167.1 L83.15 160.1 87.3 174.4 M86.75 185.4 L87.1 185.4 M93.25 183.85 Q92.05 183.8 91.05 182.65 90.15 181.5 90.15 179.9 90.15 178.25 91.05 177.05 92.0 176.1 93.1 175.95 M90.25 184.95 L87.65 175.75 M91.8 186.9 L91.8 190.0 105.1 190.0 107.35 186.35 M106.8 194.75 L105.1 190.0 109.95 190.0 M107.2 194.05 L106.8 194.75 103.4 199.9 101.45 202.85 103.65 205.45 M97.6 156.75 L104.05 156.75 M101.8 176.8 L91.05 167.1 M128.35 151.8 L135.5 151.8 136.75 147.8 M135.5 151.8 L121.5 165.1 M157.15 177.5 L150.8 180.1 132.9 180.1 118.7 167.75 M133.95 191.25 L151.1 191.25 M132.9 180.1 Q146.1 169.2 152.15 155.2 171.3 157.85 187.8 155.2 M124.0 104.25 L94.15 104.25 M20.3 110.35 L14.15 98.95 M68.0 90.55 L98.55 90.55 M77.2 128.0 L82.05 146.15 M77.15 175.3 L81.15 185.4 M87.5 175.3 L77.15 175.3 M62.95 0.5 L85.5 13.2 M115.6 208.65 L120.3 202.25 136.95 202.4 M103.4 199.9 L95.35 199.9 91.8 190.0 M63.3 192.55 L67.85 205.45 M59.25 192.55 L63.85 205.45 M71.35 192.55 L75.95 205.45 M67.35 192.55 L71.9 205.45 M92.2 205.45 L86.75 190.05" fill="none" stroke="#000000" stroke-width="0.7" stroke-opacity="0.4"/>
    <path d="M190.15 36.25 Q190.15 41.9 176.45 46.0 162.8 50.05 143.5 50.05 124.2 50.05 110.5 46.0 96.85 41.9 96.85 36.25 96.85 30.5 110.5 26.4 124.2 22.35 143.5 22.35 162.8 22.35 176.45 26.4 190.15 30.5 190.15 36.25" fill="url(#gradient11)" fill-rule="evenodd" stroke="none"/>
  </g>
  <defs>
    <radialGradient cx="0" cy="0" gradientTransform="matrix(0.0703, 0.0355, -0.0281, 0.0556, 164.4, 49.95)" gradientUnits="userSpaceOnUse" id="gradient0" r="819.2" spreadMethod="pad">
      <stop offset="0.0" stop-color="#ff6d6d"/>
      <stop offset="0.17254901960784313" stop-color="#ff4141"/>
      <stop offset="1.0" stop-color="#9f0a0a"/>
    </radialGradient>
    <radialGradient cx="0" cy="0" gradientTransform="matrix(0.068, 0.0182, -0.0294, 0.1096, 191.4, 110.8)" gradientUnits="userSpaceOnUse" id="gradient1" r="819.2" spreadMethod="pad">
      <stop offset="0.0" stop-color="#bbbbbb"/>
      <stop offset="1.0" stop-color="#888888"/>
    </radialGradient>
    <linearGradient gradientTransform="matrix(0.0, 0.0313, -0.032, 0.0, 81.7, 25.95)" gradientUnits="userSpaceOnUse" id="gradient2" spreadMethod="pad" x1="-819.2" x2="819.2">
      <stop offset="0.0" stop-color="#cccccc"/>
      <stop offset="0.21568627450980393" stop-color="#dbdbdb"/>
      <stop offset="1.0" stop-color="#c0c0c0"/>
    </linearGradient>
    <radialGradient cx="0" cy="0" gradientTransform="matrix(0.1812, 0.0, 0.0, 0.132, 108.0, 73.4)" gradientUnits="userSpaceOnUse" id="gradient3" r="819.2" spreadMethod="pad">
      <stop offset="0.0" stop-color="#9c9c9c"/>
      <stop offset="1.0" stop-color="#777777"/>
    </radialGradient>
    <linearGradient gradientTransform="matrix(0.0186, 0.0, 0.0, 0.0078, 70.25, 6.8)" gradientUnits="userSpaceOnUse" id="gradient4" spreadMethod="pad" x1="-819.2" x2="819.2">
      <stop offset="0.0" stop-color="#cccccc"/>
      <stop offset="0.21568627450980393" stop-color="#dbdbdb"/>
      <stop offset="1.0" stop-color="#c0c0c0"/>
    </linearGradient>
    <linearGradient gradientTransform="matrix(0.0158, 0.0, 0.0, 0.0078, 75.85, 6.8)" gradientUnits="userSpaceOnUse" id="gradient5" spreadMethod="pad" x1="-819.2" x2="819.2">
      <stop offset="0.0" stop-color="#cccccc"/>
      <stop offset="0.21568627450980393" stop-color="#dbdbdb"/>
      <stop offset="1.0" stop-color="#c0c0c0"/>
    </linearGradient>
    <radialGradient cx="0" cy="0" gradientTransform="matrix(0.1812, 0.0, 0.0, 0.132, 108.0, 73.4)" gradientUnits="userSpaceOnUse" id="gradient6" r="819.2" spreadMethod="pad">
      <stop offset="0.0" stop-color="#888888"/>
      <stop offset="1.0" stop-color="#666666"/>
    </radialGradient>
    <linearGradient gradientTransform="matrix(0.0369, 0.0099, -0.0032, 0.0119, 49.1, 62.75)" gradientUnits="userSpaceOnUse" id="gradient7" spreadMethod="pad" x1="-819.2" x2="819.2">
      <stop offset="0.0" stop-color="#ff3300"/>
      <stop offset="1.0" stop-color="#af0b0b"/>
    </linearGradient>
    <linearGradient gradientTransform="matrix(0.0234, 0.0035, -6.0E-4, 0.0044, 33.75, 81.15)" gradientUnits="userSpaceOnUse" id="gradient8" spreadMethod="pad" x1="-819.2" x2="819.2">
      <stop offset="0.0" stop-color="#ff3300"/>
      <stop offset="1.0" stop-color="#af0b0b"/>
    </linearGradient>
    <linearGradient gradientTransform="matrix(0.0313, 0.0, 0.0, 0.0143, 67.55, 134.4)" gradientUnits="userSpaceOnUse" id="gradient9" spreadMethod="pad" x1="-819.2" x2="819.2">
      <stop offset="0.0" stop-color="#ff3300"/>
      <stop offset="1.0" stop-color="#af0b0b"/>
    </linearGradient>
    <radialGradient cx="0" cy="0" gradientTransform="matrix(0.005, 0.0, 0.0, 0.005, 92.65, 180.05)" gradientUnits="userSpaceOnUse" id="gradient10" r="819.2" spreadMethod="pad">
      <stop offset="0.0" stop-color="#ff6d6d"/>
      <stop offset="0.17254901960784313" stop-color="#ff4141"/>
      <stop offset="1.0" stop-color="#9f0a0a"/>
    </radialGradient>
    <radialGradient cx="0" cy="0" gradientTransform="matrix(0.0285, 0.0046, -0.0012, 0.0076, 143.45, 36.2)" gradientUnits="userSpaceOnUse" id="gradient11" r="819.2" spreadMethod="pad">
      <stop offset="0.0" stop-color="#ffffff" stop-opacity="0.6"/>
      <stop offset="1.0" stop-color="#ffffff" stop-opacity="0.0"/>
    </radialGradient>
  </defs>
</svg>
