<?xml version="1.0" encoding="UTF-8" standalone="no"?>
<svg xmlns:xlink="http://www.w3.org/1999/xlink" height="108.45px" width="120.1px" xmlns="http://www.w3.org/2000/svg">
  <g transform="matrix(1.0, 0.0, 0.0, 1.0, 0.05, 0.05)">
    <path d="M84.1 20.45 L85.35 22.5 85.35 27.75 83.95 29.75 57.55 29.75 55.85 27.75 55.85 22.5 57.55 20.45 55.85 22.5 48.7 19.6 51.4 16.3 57.55 20.45 84.1 20.45 M112.35 38.8 L117.5 56.9 120.0 66.05 105.45 66.05 102.9 56.9 100.35 48.1 100.4 47.85 100.6 45.95 Q100.6 43.25 98.85 41.35 L98.3 40.8 97.7 38.8 112.35 38.8 M29.55 17.05 L32.45 14.1 35.45 14.1 38.4 14.1 41.35 14.1 44.3 14.1 47.3 14.1 43.95 17.45 41.0 17.45 42.6 15.8 41.0 17.45 38.0 17.45 39.65 15.8 38.0 17.45 35.05 17.45 32.1 17.45 33.8 15.8 32.1 17.45 29.1 17.45 29.55 17.05 M58.65 28.35 L83.65 28.35 84.55 26.95 84.55 23.25 83.65 21.75 58.65 21.75 57.45 23.25 57.45 26.95 58.65 28.35 M80.3 38.8 L81.95 44.35 84.05 51.7 85.15 55.7 85.5 56.9 87.45 63.9 87.6 64.4 88.0 66.05 71.05 66.05 68.5 56.9 63.35 38.8 80.3 38.8 M107.15 56.9 L102.9 56.9 107.15 56.9 M112.55 44.2 Q112.2 42.95 111.2 42.1 110.2 41.3 109.1 41.3 107.95 41.3 107.45 42.1 106.8 42.95 107.15 44.2 107.45 45.4 108.5 46.3 109.5 47.1 110.65 47.1 111.75 47.1 112.25 46.3 112.85 45.4 112.55 44.2 M106.5 44.15 Q106.2 42.95 105.15 42.1 104.2 41.3 103.1 41.3 102.0 41.3 101.4 42.1 100.9 42.95 101.25 44.15 101.55 45.35 102.5 46.2 103.5 47.0 104.6 47.0 105.7 47.0 106.3 46.2 106.85 45.35 106.5 44.15 M108.8 51.4 Q108.5 50.15 107.45 49.25 106.45 48.4 105.35 48.4 104.2 48.4 103.65 49.25 103.0 50.15 103.35 51.4 103.65 52.55 104.7 53.5 105.7 54.35 106.9 54.35 108.0 54.35 108.6 53.5 109.2 52.55 108.8 51.4 M114.75 51.4 Q114.4 50.15 113.4 49.25 112.4 48.4 111.3 48.4 110.1 48.4 109.6 49.25 109.0 50.15 109.3 51.4 109.65 52.55 110.65 53.5 111.65 54.35 112.8 54.35 113.9 54.35 114.45 53.5 115.1 52.55 114.75 51.4 M117.5 61.35 Q117.15 60.1 116.15 59.2 115.1 58.35 114.05 58.35 112.9 58.35 112.3 59.2 111.75 60.1 112.05 61.35 112.35 62.6 113.4 63.45 114.4 64.25 115.5 64.25 116.75 64.25 117.25 63.45 117.85 62.6 117.5 61.35 M111.65 61.4 Q111.35 60.2 110.3 59.3 109.35 58.45 108.15 58.45 107.05 58.45 106.45 59.3 105.95 60.2 106.25 61.4 106.6 62.65 107.6 63.5 108.6 64.3 109.7 64.3 110.8 64.3 111.35 63.5 111.85 62.65 111.65 61.4 M117.5 56.9 L107.95 56.9 117.5 56.9 M82.4 51.35 Q82.05 50.1 80.85 49.2 79.75 48.3 78.45 48.3 77.25 48.3 76.55 49.2 76.0 50.1 76.35 51.35 76.65 52.6 77.8 53.55 78.9 54.45 80.25 54.45 81.4 54.45 82.05 53.55 L82.45 52.55 82.45 51.8 82.4 51.35 M85.15 61.4 L84.2 59.75 83.65 59.2 Q82.7 58.5 81.65 58.4 L81.25 58.35 Q80.05 58.35 79.45 59.2 78.75 60.1 79.1 61.4 79.5 62.65 80.6 63.55 L81.65 64.2 82.95 64.4 Q84.3 64.4 84.8 63.55 85.3 63.0 85.3 62.35 L85.15 61.4 M44.3 14.1 L43.05 15.4 44.3 14.1 M73.4 44.25 Q73.05 42.95 71.95 42.05 70.8 41.25 69.6 41.25 68.45 41.25 67.8 42.05 67.1 42.95 67.5 44.25 67.85 45.45 68.95 46.35 70.1 47.15 71.2 47.15 72.55 47.15 73.1 46.35 73.85 45.45 73.4 44.25 M80.1 44.2 Q79.8 42.95 78.6 42.05 77.55 41.25 76.3 41.25 75.1 41.25 74.45 42.05 73.85 42.95 74.2 44.2 74.55 45.45 75.65 46.35 76.7 47.15 77.95 47.15 79.2 47.15 79.8 46.35 80.45 45.45 80.1 44.2 M75.65 51.35 Q75.35 50.05 74.15 49.1 73.0 48.2 71.7 48.2 70.4 48.2 69.75 49.1 69.1 50.05 69.5 51.35 69.8 52.65 71.0 53.6 72.2 54.55 73.45 54.55 74.8 54.55 75.45 53.6 L75.85 52.55 75.85 51.85 75.65 51.35 M38.4 14.1 L37.1 15.4 38.4 14.1 M36.7 15.8 L35.05 17.45 36.7 15.8 M35.45 14.1 L34.15 15.4 35.45 14.1 M78.6 61.4 Q78.25 60.4 77.6 59.7 L76.95 59.15 Q76.05 58.5 75.0 58.35 L74.6 58.25 Q73.3 58.25 72.65 59.15 72.05 60.1 72.35 61.4 72.75 62.7 73.9 63.6 L75.0 64.25 76.25 64.45 Q77.6 64.45 78.2 63.6 78.6 63.05 78.6 62.35 L78.6 61.4 M79.2 56.9 L68.5 56.9 79.2 56.9 M41.35 14.1 L40.1 15.4 41.35 14.1 M85.5 56.9 L79.85 56.9 85.5 56.9" fill="#999999" fill-rule="evenodd" stroke="none"/>
    <path d="M84.1 20.45 L57.55 20.45 51.4 16.3 79.7 16.3 81.7 18.2 81.7 17.45 79.95 16.1 79.4 15.55 48.35 15.55 45.55 18.5 45.55 28.9 46.75 30.15 45.95 31.3 43.95 29.2 43.95 17.45 47.3 14.1 62.05 14.1 67.45 14.1 70.7 14.1 79.75 14.1 83.0 16.75 83.0 19.45 84.1 20.45 M83.0 30.1 L83.0 31.75 81.8 31.75 81.8 30.55 83.0 30.1 M102.15 36.15 L112.35 38.8 97.7 38.8 81.95 34.65 89.1 34.65 96.55 34.65 102.15 36.15 M83.0 19.45 L81.7 18.2 83.0 19.45 M74.45 37.25 L80.3 38.8 63.35 38.8 47.55 34.65 49.55 34.65 64.55 34.65 69.55 35.95 74.45 37.25" fill="#b2b2b2" fill-rule="evenodd" stroke="none"/>
    <path d="M57.55 29.75 L83.95 29.75 83.0 30.1 81.8 30.55 78.7 31.65 50.35 31.65 57.55 29.75 M116.3 73.95 L96.15 77.3 85.35 77.3 85.55 76.7 101.65 73.95 116.3 73.95 M68.25 87.75 L68.05 87.75 65.1 85.4 69.3 85.4 72.2 87.75 68.25 87.75 M65.1 87.75 L61.2 87.75 58.25 85.4 62.2 85.4 65.1 87.75 M58.25 87.75 L54.3 87.75 51.35 85.4 55.3 85.4 58.25 87.75 M51.35 87.75 L46.4 87.75 43.4 85.4 48.35 85.4 51.35 87.75 M10.9 40.05 L5.2 37.85 6.75 32.85 18.35 29.05 19.05 26.55 21.35 25.4 28.25 22.05 29.1 21.65 29.1 29.2 30.85 30.95 29.1 30.9 25.95 31.15 23.15 31.95 Q21.6 32.45 20.25 33.05 15.65 35.05 12.65 38.3 L12.55 38.35 12.05 38.85 11.5 39.45 10.9 40.05 M84.3 73.95 L77.35 75.1 69.95 76.35 65.9 77.05 64.15 77.3 61.9 77.3 58.95 77.3 54.95 77.3 52.05 77.3 48.1 77.3 47.2 77.3 67.3 73.95 84.3 73.95 M18.35 29.05 L17.7 31.4 20.25 33.05 17.7 31.4 18.35 29.05 M4.5 63.6 L3.75 61.75 6.6 59.05 7.25 61.05 8.1 62.85 Q9.0 64.65 10.4 66.25 L12.55 68.4 13.0 68.85 Q16.75 72.45 21.0 74.2 L17.85 76.8 10.95 76.8 9.1 72.9 10.15 71.2 9.0 68.85 6.5 68.85 5.25 65.65 4.5 63.6 M23.4 75.1 L25.95 75.6 27.15 75.85 29.1 75.95 30.2 75.95 31.7 75.75 34.3 75.1 37.3 81.6 38.8 82.1 34.85 85.2 32.0 84.65 25.15 83.25 21.3 82.45 20.4 82.25 19.25 78.65 23.4 75.1 M11.3 67.6 L13.0 68.85 11.3 67.6" fill="#3f3f3f" fill-rule="evenodd" stroke="none"/>
    <path d="M55.85 22.5 L55.85 27.75 48.7 29.7 48.7 19.6 55.85 22.5 M43.35 85.2 L35.6 85.2 34.85 85.2 38.8 82.1 42.7 83.6 43.35 85.2 M41.0 17.45 L43.95 17.45 43.95 29.2 41.0 29.2 38.0 29.2 35.05 29.2 32.1 29.2 29.1 29.2 29.1 21.65 29.1 17.45 32.1 17.45 35.05 17.45 35.05 21.05 35.05 17.45 38.0 17.45 41.0 17.45 41.0 21.05 41.0 17.45 M38.0 21.05 L38.0 17.45 38.0 21.05 M45.1 41.05 L47.55 34.65 63.35 38.8 68.5 56.9 62.5 56.9 68.5 56.9 71.05 66.05 67.3 73.95 47.2 77.3 44.4 75.6 39.1 72.2 37.1 71.0 37.1 66.25 51.15 66.25 58.8 56.9 62.5 56.9 60.85 50.85 56.8 50.85 49.0 61.5 37.1 61.5 38.7 57.5 46.6 57.55 52.6 49.35 47.75 49.35 44.3 53.95 40.05 53.95 45.1 41.05 M41.0 21.3 L41.0 29.2 41.0 21.3 M32.1 17.45 L32.1 21.05 32.1 17.45 M35.05 21.3 L35.05 29.2 35.05 21.3 M38.0 21.3 L38.0 29.2 38.0 21.3 M32.1 21.3 L32.1 29.2 32.1 21.3" fill="#666666" fill-rule="evenodd" stroke="none"/>
    <path d="M55.85 27.75 L57.55 29.75 50.35 31.65 48.7 29.7 55.85 27.75 M80.0 83.25 L78.85 83.25 72.65 83.25 69.95 76.35 77.35 75.1 80.0 83.25 M76.8 87.1 L73.15 105.6 71.4 105.6 73.55 87.75 76.2 87.75 76.8 87.1 M43.4 85.4 L43.35 85.2 42.7 83.6 39.1 74.55 39.1 72.6 39.1 72.2 44.4 75.6 48.35 85.4 43.4 85.4 M35.6 85.2 L35.75 85.4 24.25 108.35 22.1 108.35 32.0 84.65 34.85 85.2 35.6 85.2 M18.0 16.05 L11.25 12.05 9.0 5.4 13.15 2.55 18.0 16.05 M15.9 0.0 L18.05 0.0 29.55 17.05 29.1 17.45 29.1 21.65 28.25 22.05 15.9 0.0 M62.05 11.45 L58.6 8.65 58.6 5.05 62.05 2.25 62.05 11.45 M65.2 0.0 L66.95 0.0 70.7 14.1 67.45 14.1 65.2 0.0 M86.7 38.45 L80.8 37.7 81.95 34.65 97.7 38.8 98.3 40.8 96.9 39.9 96.6 39.8 Q93.65 38.0 89.2 38.05 L89.1 38.05 86.7 38.45 M84.05 51.7 Q86.1 54.0 89.1 54.0 L89.2 54.0 Q93.4 54.05 96.45 52.3 97.75 51.85 98.85 50.75 99.95 49.5 100.35 48.1 L102.9 56.9 105.45 66.05 101.65 73.95 85.55 76.7 86.5 73.5 87.95 73.75 88.0 73.75 Q90.5 73.8 92.3 72.85 L93.7 71.85 Q94.75 70.7 94.75 69.1 94.75 67.45 93.7 66.35 L92.4 65.4 Q90.65 64.35 88.0 64.4 L87.95 64.4 87.6 64.4 87.45 63.9 87.95 63.95 88.0 63.95 Q90.5 63.95 92.3 62.9 93.1 62.65 93.7 62.0 94.75 60.85 94.75 59.25 94.75 57.95 94.05 56.9 L93.7 56.45 Q93.15 55.8 92.4 55.55 90.65 54.55 88.0 54.55 L87.95 54.55 Q86.3 54.55 85.15 55.7 L84.05 51.7 M98.4 56.9 L94.05 56.9 98.4 56.9 M102.9 56.9 L99.05 56.9 102.9 56.9 M43.95 29.2 L45.95 31.3 43.05 31.3 42.8 31.3 40.1 31.3 37.1 31.3 34.15 31.3 32.95 31.3 30.85 30.95 29.1 29.2 32.1 29.2 32.8 29.85 32.1 29.2 35.05 29.2 35.75 29.85 35.05 29.2 38.0 29.2 41.0 29.2 41.7 29.85 41.0 29.2 43.95 29.2 M38.7 29.85 L38.0 29.2 38.7 29.85 M41.8 30.1 L43.05 31.3 41.8 30.1 M33.0 30.1 L34.15 31.3 33.0 30.1 M38.85 30.1 L40.1 31.3 38.85 30.1 M35.95 30.1 L37.1 31.3 35.95 30.1 M52.05 77.3 L55.3 85.4 51.35 85.4 48.1 77.3 52.05 77.3 M54.95 77.3 L58.95 77.3 62.2 85.4 58.25 85.4 54.95 77.3 M61.9 77.3 L64.15 77.3 65.9 77.05 69.3 85.4 65.1 85.4 61.9 77.3" fill="#4c4c4c" fill-rule="evenodd" stroke="none"/>
    <path d="M83.0 31.75 L84.1 31.75 86.2 32.7 88.15 33.9 89.1 34.65 81.95 34.65 80.8 37.7 76.8 37.15 74.45 37.25 69.55 35.95 64.55 34.65 49.55 34.65 48.0 33.5 Q45.55 31.95 42.8 31.3 L43.05 31.3 45.95 31.3 46.75 30.15 45.55 28.9 45.55 18.5 48.35 15.55 79.4 15.55 79.95 16.1 81.7 17.45 81.7 18.2 79.7 16.3 51.4 16.3 48.7 19.6 48.7 29.7 50.35 31.65 78.7 31.65 81.8 30.55 81.8 31.75 83.0 31.75 M71.4 105.6 L68.25 102.55 68.25 87.75 72.2 87.75 73.55 87.75 71.4 105.6 M22.1 108.35 L19.25 105.3 22.75 92.2 23.35 90.05 25.15 83.35 25.15 83.25 32.0 84.65 22.1 108.35 M21.35 25.4 L18.0 16.05 13.15 2.55 13.05 2.25 15.9 0.0 28.25 22.05 21.35 25.4 M62.05 14.1 L62.05 11.45 62.05 2.25 65.2 0.0 67.45 14.1 62.05 14.1 M58.65 28.35 L57.45 26.95 57.45 23.25 58.65 21.75 83.65 21.75 84.55 23.25 84.55 26.95 83.65 28.35 58.65 28.35 M60.55 23.45 L59.95 24.15 59.95 26.0 60.55 26.75 79.1 26.75 79.55 26.0 79.55 24.15 79.1 23.45 60.55 23.45 M85.4 33.5 L48.0 33.5 85.4 33.5 M80.35 35.95 L69.55 35.95 80.35 35.95 M13.6 2.25 L13.15 2.55 13.6 2.25 M23.3 45.05 L23.8 45.6 24.7 46.85 23.3 50.1 22.25 49.85 Q21.6 49.85 21.1 50.15 L17.95 45.6 18.55 45.25 Q19.75 44.75 21.2 44.75 L23.3 45.05 M25.55 48.5 Q26.5 50.75 26.5 53.45 26.5 56.35 25.4 58.7 L24.25 56.6 24.4 56.4 Q25.3 55.3 25.3 53.7 25.3 52.1 24.4 50.95 L25.55 48.5 M24.5 60.25 L23.8 61.15 23.4 61.7 21.2 62.1 Q19.75 62.1 18.5 61.5 L21.5 57.45 22.25 57.55 23.15 57.4 24.5 60.25 M17.2 60.65 L16.05 59.5 Q15.0 58.3 14.45 56.8 L14.0 54.65 13.95 53.95 19.25 54.4 Q19.4 55.55 20.1 56.4 L20.25 56.6 17.2 60.65 M13.95 52.4 Q14.05 51.2 14.4 50.2 L15.05 48.8 16.05 47.25 16.8 46.5 20.1 50.95 Q19.45 51.8 19.3 52.85 L13.95 52.4 M21.0 74.2 L23.4 75.1 19.25 78.65 17.85 76.8 21.0 74.2 M34.3 75.1 L34.45 75.05 35.0 74.85 Q37.15 74.05 39.1 72.6 L39.1 74.55 42.7 83.6 38.8 82.1 37.3 81.6 34.3 75.1" fill="#333333" fill-rule="evenodd" stroke="none"/>
    <path d="M60.55 23.45 L79.1 23.45 79.55 24.15 79.55 26.0 79.1 26.75 60.55 26.75 59.95 26.0 59.95 24.15 60.55 23.45" fill="url(#gradient0)" fill-rule="evenodd" stroke="none"/>
    <path d="M22.75 92.2 L18.15 92.7 Q10.65 92.7 5.35 87.6 0.0 82.4 0.0 75.15 0.0 73.0 0.45 71.05 0.0 69.15 0.0 67.05 0.0 64.45 0.65 62.15 1.9 57.95 5.35 54.6 L5.95 54.05 6.15 56.55 Q3.75 59.1 2.75 62.15 2.0 64.45 2.0 67.0 L2.0 67.05 Q3.0 65.25 4.5 63.6 L5.25 65.65 Q3.55 67.8 2.75 70.25 L2.5 71.1 Q2.0 69.15 2.0 67.05 2.0 69.15 2.5 71.1 3.55 75.05 6.75 78.1 11.5 82.7 18.15 82.7 L21.3 82.45 25.15 83.25 25.15 83.35 Q21.9 84.6 18.15 84.6 10.65 84.6 5.35 79.5 3.25 77.5 2.0 75.15 2.0 81.65 6.75 86.2 11.5 90.8 18.15 90.8 20.9 90.8 23.35 90.05 L22.75 92.2 M0.45 71.05 Q0.95 73.2 2.0 75.15 0.95 73.2 0.45 71.05" fill="#1a1a1a" fill-rule="evenodd" stroke="none"/>
    <path d="M84.1 31.75 L91.1 31.6 Q98.6 32.1 102.15 36.15 L96.55 34.65 89.1 34.65 88.15 33.9 86.2 32.7 84.1 31.75" fill="url(#gradient1)" fill-rule="evenodd" stroke="none"/>
    <path d="M86.7 38.45 Q85.15 39.05 83.9 40.4 82.35 42.1 81.95 44.35 L80.3 38.8 74.45 37.25 76.8 37.15 80.8 37.7 86.7 38.45" fill="url(#gradient2)" fill-rule="evenodd" stroke="none"/>
    <path d="M81.95 44.35 Q82.35 42.1 83.9 40.4 85.15 39.05 86.7 38.45 L89.1 38.05 89.2 38.05 Q93.65 38.0 96.6 39.8 L94.6 39.4 94.55 39.4 Q92.05 39.4 90.2 41.35 88.45 43.25 88.45 45.95 88.45 47.0 88.7 47.85 89.1 49.45 90.2 50.75 92.05 52.65 94.55 52.65 L94.6 52.65 96.45 52.3 Q93.4 54.05 89.2 54.0 L89.1 54.0 Q86.1 54.0 84.05 51.7 L81.95 44.35" fill="url(#gradient3)" fill-rule="evenodd" stroke="none"/>
    <path d="M96.45 52.3 L94.6 52.65 94.55 52.65 Q92.05 52.65 90.2 50.75 89.1 49.45 88.7 47.85 88.45 47.0 88.45 45.95 88.45 43.25 90.2 41.35 92.05 39.4 94.55 39.4 L94.6 39.4 96.6 39.8 96.9 39.9 98.3 40.8 98.85 41.35 Q100.6 43.25 100.6 45.95 L100.4 47.85 100.35 48.1 Q99.95 49.5 98.85 50.75 97.75 51.85 96.45 52.3 M94.7 41.6 L94.6 41.6 Q93.5 41.85 92.65 42.85 91.45 44.15 91.45 45.95 91.45 47.05 91.8 47.85 L92.65 49.2 Q93.5 50.15 94.6 50.45 L95.6 50.5 Q97.3 50.5 98.55 49.2 L99.4 47.85 Q99.75 47.05 99.75 45.95 99.7 44.55 99.1 43.5 L98.55 42.85 Q97.3 41.5 95.6 41.5 L94.7 41.6" fill="url(#gradient4)" fill-rule="evenodd" stroke="none"/>
    <path d="M94.7 41.6 L95.6 41.5 Q97.3 41.5 98.55 42.85 L99.1 43.5 Q99.7 44.55 99.75 45.95 99.75 47.05 99.4 47.85 L98.55 49.2 Q97.3 50.5 95.6 50.5 L94.6 50.45 Q95.85 50.2 96.85 49.2 L97.7 47.85 Q98.05 47.05 98.05 45.95 98.0 44.55 97.4 43.5 L96.85 42.85 Q95.9 41.85 94.7 41.6 M91.1 56.65 L91.25 56.6 91.8 56.55 Q92.55 56.55 93.2 57.0 L93.6 57.35 Q94.25 58.15 94.25 59.25 94.25 60.35 93.6 61.1 92.85 61.9 91.8 61.9 L91.25 61.8 91.2 61.8 92.2 61.1 Q92.85 60.35 92.85 59.25 92.85 58.15 92.2 57.35 L91.8 57.0 Q91.45 56.75 91.1 56.65 M91.15 66.55 L91.25 66.5 91.8 66.45 Q92.85 66.45 93.6 67.2 94.25 68.0 94.25 69.1 94.25 70.2 93.6 71.0 92.85 71.8 91.8 71.8 L91.3 71.7 92.3 71.0 Q92.95 70.2 92.95 69.1 92.95 68.0 92.3 67.2 91.8 66.7 91.15 66.55" fill="url(#gradient5)" fill-rule="evenodd" stroke="none"/>
    <path d="M94.6 50.45 Q93.5 50.15 92.65 49.2 L91.8 47.85 Q91.45 47.05 91.45 45.95 91.45 44.15 92.65 42.85 93.5 41.85 94.6 41.6 L94.7 41.6 Q95.9 41.85 96.85 42.85 L97.4 43.5 Q98.0 44.55 98.05 45.95 98.05 47.05 97.7 47.85 L96.85 49.2 Q95.85 50.2 94.6 50.45" fill="url(#gradient6)" fill-rule="evenodd" stroke="none"/>
    <path d="M112.0 44.15 Q111.7 43.15 110.9 42.45 110.1 41.8 109.2 41.8 108.25 41.8 107.85 42.45 107.35 43.15 107.6 44.15 107.85 45.15 108.7 45.85 109.5 46.5 110.45 46.5 111.35 46.5 111.75 45.85 112.25 45.15 112.0 44.15 M112.55 44.2 Q112.85 45.4 112.25 46.3 111.75 47.1 110.65 47.1 109.5 47.1 108.5 46.3 107.45 45.4 107.15 44.2 106.8 42.95 107.45 42.1 107.95 41.3 109.1 41.3 110.2 41.3 111.2 42.1 112.2 42.95 112.55 44.2" fill="url(#gradient7)" fill-rule="evenodd" stroke="none"/>
    <path d="M112.0 44.15 Q112.25 45.15 111.75 45.85 111.35 46.5 110.45 46.5 109.5 46.5 108.7 45.85 107.85 45.15 107.6 44.15 107.35 43.15 107.85 42.45 108.25 41.8 109.2 41.8 110.1 41.8 110.9 42.45 111.7 43.15 112.0 44.15 M106.05 44.15 Q106.35 45.15 105.9 45.85 105.4 46.5 104.5 46.5 103.6 46.5 102.75 45.85 101.95 45.15 101.7 44.15 101.45 43.15 101.85 42.45 102.35 41.8 103.25 41.8 104.15 41.8 104.95 42.45 105.8 43.15 106.05 44.15 M114.2 51.35 Q114.45 52.3 113.95 53.05 113.5 53.75 112.6 53.75 111.7 53.75 110.9 53.05 110.1 52.3 109.8 51.35 109.55 50.35 110.05 49.65 110.45 48.95 111.4 48.95 112.3 48.95 113.1 49.65 113.9 50.35 114.2 51.35 M116.95 61.35 Q117.25 62.35 116.75 63.05 116.35 63.7 115.35 63.7 114.5 63.7 113.7 63.05 112.85 62.35 112.6 61.35 112.35 60.35 112.8 59.65 113.3 58.95 114.2 58.95 115.05 58.95 115.9 59.65 116.7 60.35 116.95 61.35 M108.25 51.35 Q108.55 52.3 108.1 53.05 107.6 53.75 106.7 53.75 105.75 53.75 104.95 53.05 104.1 52.3 103.85 51.35 103.6 50.35 104.1 49.65 104.55 48.95 105.45 48.95 106.35 48.95 107.15 49.65 108.0 50.35 108.25 51.35 M111.1 61.35 Q111.25 62.35 110.85 63.05 110.4 63.7 109.5 63.7 108.6 63.7 107.8 63.05 107.0 62.35 106.7 61.35 106.45 60.35 106.85 59.65 107.35 58.95 108.25 58.95 109.2 58.95 110.0 59.65 110.85 60.35 111.1 61.35 M81.65 51.35 L81.7 51.7 81.7 52.25 81.4 53.05 Q80.9 53.75 80.0 53.75 78.95 53.75 78.1 53.05 77.2 52.3 76.95 51.35 76.7 50.35 77.1 49.65 77.65 48.95 78.6 48.95 79.6 48.95 80.45 49.65 81.4 50.35 81.65 51.35 M84.45 61.35 L84.6 62.1 Q84.6 62.6 84.2 63.05 83.8 63.7 82.75 63.7 L81.7 63.55 80.9 63.05 Q80.05 62.35 79.7 61.35 79.45 60.35 80.0 59.65 80.45 58.95 81.4 58.95 L81.7 59.0 Q82.55 59.1 83.3 59.65 L83.7 60.05 84.45 61.35 M72.75 44.15 Q73.1 45.15 72.55 45.85 72.1 46.5 71.05 46.5 70.15 46.5 69.25 45.85 68.35 45.15 68.05 44.15 67.75 43.15 68.3 42.45 68.8 41.8 69.75 41.8 70.7 41.8 71.6 42.45 72.5 43.15 72.75 44.15 M79.5 44.15 Q79.75 45.15 79.25 45.85 78.75 46.5 77.8 46.5 76.8 46.5 75.95 45.85 75.1 45.15 74.8 44.15 74.5 43.15 75.0 42.45 75.5 41.8 76.45 41.8 77.45 41.8 78.3 42.45 79.25 43.15 79.5 44.15 M74.9 51.35 L75.05 51.7 75.05 52.25 74.75 53.05 Q74.25 53.75 73.25 53.75 72.3 53.75 71.4 53.05 70.5 52.3 70.25 51.35 69.95 50.35 70.45 49.65 70.95 48.95 71.9 48.95 72.9 48.95 73.75 49.65 74.65 50.35 74.9 51.35 M77.8 61.35 L77.8 62.1 77.5 63.05 Q77.05 63.7 76.0 63.7 L75.05 63.55 74.2 63.05 Q73.3 62.35 73.0 61.35 72.75 60.35 73.25 59.65 73.7 58.95 74.75 58.95 L75.05 59.0 Q75.85 59.1 76.55 59.65 L77.05 60.05 77.8 61.35" fill="#000000" fill-rule="evenodd" stroke="none"/>
    <path d="M106.05 44.15 Q105.8 43.15 104.95 42.45 104.15 41.8 103.25 41.8 102.35 41.8 101.85 42.45 101.45 43.15 101.7 44.15 101.95 45.15 102.75 45.85 103.6 46.5 104.5 46.5 105.4 46.5 105.9 45.85 106.35 45.15 106.05 44.15 M106.5 44.15 Q106.85 45.35 106.3 46.2 105.7 47.0 104.6 47.0 103.5 47.0 102.5 46.2 101.55 45.35 101.25 44.15 100.9 42.95 101.4 42.1 102.0 41.3 103.1 41.3 104.2 41.3 105.15 42.1 106.2 42.95 106.5 44.15" fill="url(#gradient8)" fill-rule="evenodd" stroke="none"/>
    <path d="M108.8 51.4 Q109.2 52.55 108.6 53.5 108.0 54.35 106.9 54.35 105.7 54.35 104.7 53.5 103.65 52.55 103.35 51.4 103.0 50.15 103.65 49.25 104.2 48.4 105.35 48.4 106.45 48.4 107.45 49.25 108.5 50.15 108.8 51.4 M108.25 51.35 Q108.0 50.35 107.15 49.65 106.35 48.95 105.45 48.95 104.55 48.95 104.1 49.65 103.6 50.35 103.85 51.35 104.1 52.3 104.95 53.05 105.75 53.75 106.7 53.75 107.6 53.75 108.1 53.05 108.55 52.3 108.25 51.35" fill="url(#gradient9)" fill-rule="evenodd" stroke="none"/>
    <path d="M114.75 51.4 Q115.1 52.55 114.45 53.5 113.9 54.35 112.8 54.35 111.65 54.35 110.65 53.5 109.65 52.55 109.3 51.4 109.0 50.15 109.6 49.25 110.1 48.4 111.3 48.4 112.4 48.4 113.4 49.25 114.4 50.15 114.75 51.4 M114.2 51.35 Q113.9 50.35 113.1 49.65 112.3 48.95 111.4 48.95 110.45 48.95 110.05 49.65 109.55 50.35 109.8 51.35 110.1 52.3 110.9 53.05 111.7 53.75 112.6 53.75 113.5 53.75 113.95 53.05 114.45 52.3 114.2 51.35" fill="url(#gradient10)" fill-rule="evenodd" stroke="none"/>
    <path d="M116.95 61.35 Q116.7 60.35 115.9 59.65 115.05 58.95 114.2 58.95 113.3 58.95 112.8 59.65 112.35 60.35 112.6 61.35 112.85 62.35 113.7 63.05 114.5 63.7 115.35 63.7 116.35 63.7 116.75 63.05 117.25 62.35 116.95 61.35 M117.5 61.35 Q117.85 62.6 117.25 63.45 116.75 64.25 115.5 64.25 114.4 64.25 113.4 63.45 112.35 62.6 112.05 61.35 111.75 60.1 112.3 59.2 112.9 58.35 114.05 58.35 115.1 58.35 116.15 59.2 117.15 60.1 117.5 61.35" fill="url(#gradient11)" fill-rule="evenodd" stroke="none"/>
    <path d="M111.1 61.35 Q110.85 60.35 110.0 59.65 109.2 58.95 108.25 58.95 107.35 58.95 106.85 59.65 106.45 60.35 106.7 61.35 107.0 62.35 107.8 63.05 108.6 63.7 109.5 63.7 110.4 63.7 110.85 63.05 111.25 62.35 111.1 61.35 M111.65 61.4 Q111.85 62.65 111.35 63.5 110.8 64.3 109.7 64.3 108.6 64.3 107.6 63.5 106.6 62.65 106.25 61.4 105.95 60.2 106.45 59.3 107.05 58.45 108.15 58.45 109.35 58.45 110.3 59.3 111.35 60.2 111.65 61.4" fill="url(#gradient12)" fill-rule="evenodd" stroke="none"/>
    <path d="M120.0 66.05 L116.3 73.95 101.65 73.95 105.45 66.05 120.0 66.05 M85.35 77.3 L83.5 83.25 80.0 83.25 77.35 75.1 84.3 73.95 84.95 72.5 84.3 73.95 67.3 73.95 71.05 66.05 88.0 66.05 84.95 72.5 86.5 73.5 85.55 76.7 85.35 77.3 M78.85 83.25 L78.4 85.4 76.8 87.1 76.2 87.75 73.55 87.75 72.2 87.75 69.3 85.4 65.9 77.05 69.95 76.35 72.65 83.25 78.85 83.25 M68.05 87.75 L65.1 87.75 62.2 85.4 58.95 77.3 61.9 77.3 65.1 85.4 68.05 87.75 M61.2 87.75 L58.25 87.75 55.3 85.4 52.05 77.3 54.95 77.3 58.25 85.4 61.2 87.75 M54.3 87.75 L51.35 87.75 48.35 85.4 44.4 75.6 47.2 77.3 48.1 77.3 51.35 85.4 54.3 87.75" fill="#7f7f7f" fill-rule="evenodd" stroke="none"/>
    <path d="M92.4 55.55 L91.25 55.35 91.2 55.35 Q89.7 55.35 88.7 56.45 87.6 57.6 87.6 59.25 87.6 60.85 88.7 62.0 L88.85 62.2 Q89.85 63.15 91.2 63.15 L91.25 63.15 92.3 62.9 Q90.5 63.95 88.0 63.95 L87.95 63.95 87.45 63.9 85.5 56.9 85.15 55.7 Q86.3 54.55 87.95 54.55 L88.0 54.55 Q90.65 54.55 92.4 55.55" fill="url(#gradient13)" fill-rule="evenodd" stroke="none"/>
    <path d="M92.3 62.9 L91.25 63.15 91.2 63.15 Q89.85 63.15 88.85 62.2 L88.7 62.0 Q87.6 60.85 87.6 59.25 87.6 57.6 88.7 56.45 89.7 55.35 91.2 55.35 L91.25 55.35 92.4 55.55 Q93.15 55.8 93.7 56.45 L94.05 56.9 Q94.75 57.95 94.75 59.25 94.75 60.85 93.7 62.0 93.1 62.65 92.3 62.9 M91.2 61.8 L91.25 61.8 91.8 61.9 Q92.85 61.9 93.6 61.1 94.25 60.35 94.25 59.25 94.25 58.15 93.6 57.35 L93.2 57.0 Q92.55 56.55 91.8 56.55 L91.25 56.6 91.1 56.65 Q90.55 56.85 90.1 57.35 89.4 58.15 89.4 59.25 89.4 60.2 89.9 60.95 L90.1 61.1 Q90.55 61.6 91.2 61.8" fill="url(#gradient14)" fill-rule="evenodd" stroke="none"/>
    <path d="M91.2 61.8 Q90.55 61.6 90.1 61.1 L89.9 60.95 Q89.4 60.2 89.4 59.25 89.4 58.15 90.1 57.35 90.55 56.85 91.1 56.65 91.45 56.75 91.8 57.0 L92.2 57.35 Q92.85 58.15 92.85 59.25 92.85 60.35 92.2 61.1 L91.2 61.8" fill="url(#gradient15)" fill-rule="evenodd" stroke="none"/>
    <path d="M81.65 51.35 Q81.4 50.35 80.45 49.65 79.6 48.95 78.6 48.95 77.65 48.95 77.1 49.65 76.7 50.35 76.95 51.35 77.2 52.3 78.1 53.05 78.95 53.75 80.0 53.75 80.9 53.75 81.4 53.05 L81.7 52.25 81.7 51.7 81.65 51.35 M82.4 51.35 L82.45 51.8 82.45 52.55 82.05 53.55 Q81.4 54.45 80.25 54.45 78.9 54.45 77.8 53.55 76.65 52.6 76.35 51.35 76.0 50.1 76.55 49.2 77.25 48.3 78.45 48.3 79.75 48.3 80.85 49.2 82.05 50.1 82.4 51.35" fill="url(#gradient16)" fill-rule="evenodd" stroke="none"/>
    <path d="M85.15 61.4 L85.3 62.35 Q85.3 63.0 84.8 63.55 84.3 64.4 82.95 64.4 L81.65 64.2 80.6 63.55 Q79.5 62.65 79.1 61.4 78.75 60.1 79.45 59.2 80.05 58.35 81.25 58.35 L81.65 58.4 Q82.7 58.5 83.65 59.2 L84.2 59.75 85.15 61.4 M84.45 61.35 L83.7 60.05 83.3 59.65 Q82.55 59.1 81.7 59.0 L81.4 58.95 Q80.45 58.95 80.0 59.65 79.45 60.35 79.7 61.35 80.05 62.35 80.9 63.05 L81.7 63.55 82.75 63.7 Q83.8 63.7 84.2 63.05 84.6 62.6 84.6 62.1 L84.45 61.35" fill="url(#gradient17)" fill-rule="evenodd" stroke="none"/>
    <path d="M87.6 64.4 L87.95 64.4 88.0 64.4 Q90.65 64.35 92.4 65.4 L91.25 65.2 91.2 65.2 Q89.7 65.2 88.7 66.35 87.6 67.45 87.6 69.1 87.6 70.7 88.7 71.85 89.7 72.95 91.2 72.95 L91.25 72.95 92.3 72.85 Q90.5 73.8 88.0 73.75 L87.95 73.75 86.5 73.5 84.95 72.5 88.0 66.05 87.6 64.4" fill="url(#gradient18)" fill-rule="evenodd" stroke="none"/>
    <path d="M92.4 65.4 L93.7 66.35 Q94.75 67.45 94.75 69.1 94.75 70.7 93.7 71.85 L92.3 72.85 91.25 72.95 91.2 72.95 Q89.7 72.95 88.7 71.85 87.6 70.7 87.6 69.1 87.6 67.45 88.7 66.35 89.7 65.2 91.2 65.2 L91.25 65.2 92.4 65.4 M91.15 66.55 Q90.55 66.7 90.1 67.2 89.4 68.0 89.4 69.1 89.4 70.2 90.1 71.0 90.6 71.5 91.25 71.65 L91.3 71.7 91.8 71.8 Q92.85 71.8 93.6 71.0 94.25 70.2 94.25 69.1 94.25 68.0 93.6 67.2 92.85 66.45 91.8 66.45 L91.25 66.5 91.15 66.55" fill="url(#gradient19)" fill-rule="evenodd" stroke="none"/>
    <path d="M91.3 71.7 L91.25 71.65 Q90.6 71.5 90.1 71.0 89.4 70.2 89.4 69.1 89.4 68.0 90.1 67.2 90.55 66.7 91.15 66.55 91.8 66.7 92.3 67.2 92.95 68.0 92.95 69.1 92.95 70.2 92.3 71.0 L91.3 71.7" fill="url(#gradient20)" fill-rule="evenodd" stroke="none"/>
    <path d="M42.8 31.3 Q45.55 31.95 48.0 33.5 L49.55 34.65 47.55 34.65 45.1 41.05 Q44.0 39.2 42.55 37.45 38.35 32.5 32.95 31.3 L34.15 31.3 37.1 31.3 40.1 31.3 42.8 31.3" fill="url(#gradient21)" fill-rule="evenodd" stroke="none"/>
    <path d="M32.95 31.3 Q38.35 32.5 42.55 37.45 44.0 39.2 45.1 41.05 L40.05 53.95 38.7 57.5 37.1 61.5 37.1 66.25 37.1 71.0 39.1 72.2 39.1 72.6 Q37.15 74.05 35.0 74.85 L34.45 75.05 34.3 75.1 31.7 75.75 30.2 75.95 29.1 75.95 27.15 75.85 25.95 75.6 23.4 75.1 21.0 74.2 Q16.75 72.45 13.0 68.85 L12.55 68.4 13.5 69.15 Q15.3 70.4 17.3 71.05 L21.2 71.55 Q27.55 71.55 32.05 66.25 36.55 60.95 36.55 53.45 36.55 45.9 32.05 40.6 27.55 35.25 21.2 35.25 19.15 35.25 17.25 35.8 14.75 36.55 12.65 38.3 15.65 35.05 20.25 33.05 21.6 32.45 23.15 31.95 L25.95 31.15 29.1 30.9 30.85 30.95 32.95 31.3 M13.0 68.85 L13.5 69.15 13.0 68.85" fill="url(#gradient22)" fill-rule="evenodd" stroke="none"/>
    <path d="M40.05 53.95 L44.3 53.95 47.75 49.35 52.6 49.35 46.6 57.55 38.7 57.5 40.05 53.95" fill="url(#gradient23)" fill-rule="evenodd" stroke="none"/>
    <path d="M72.75 44.15 Q72.5 43.15 71.6 42.45 70.7 41.8 69.75 41.8 68.8 41.8 68.3 42.45 67.75 43.15 68.05 44.15 68.35 45.15 69.25 45.85 70.15 46.5 71.05 46.5 72.1 46.5 72.55 45.85 73.1 45.15 72.75 44.15 M73.4 44.25 Q73.85 45.45 73.1 46.35 72.55 47.15 71.2 47.15 70.1 47.15 68.95 46.35 67.85 45.45 67.5 44.25 67.1 42.95 67.8 42.05 68.45 41.25 69.6 41.25 70.8 41.25 71.95 42.05 73.05 42.95 73.4 44.25" fill="url(#gradient24)" fill-rule="evenodd" stroke="none"/>
    <path d="M80.1 44.2 Q80.45 45.45 79.8 46.35 79.2 47.15 77.95 47.15 76.7 47.15 75.65 46.35 74.55 45.45 74.2 44.2 73.85 42.95 74.45 42.05 75.1 41.25 76.3 41.25 77.55 41.25 78.6 42.05 79.8 42.95 80.1 44.2 M79.5 44.15 Q79.25 43.15 78.3 42.45 77.45 41.8 76.45 41.8 75.5 41.8 75.0 42.45 74.5 43.15 74.8 44.15 75.1 45.15 75.95 45.85 76.8 46.5 77.8 46.5 78.75 46.5 79.25 45.85 79.75 45.15 79.5 44.15" fill="url(#gradient25)" fill-rule="evenodd" stroke="none"/>
    <path d="M75.65 51.35 L75.85 51.85 75.85 52.55 75.45 53.6 Q74.8 54.55 73.45 54.55 72.2 54.55 71.0 53.6 69.8 52.65 69.5 51.35 69.1 50.05 69.75 49.1 70.4 48.2 71.7 48.2 73.0 48.2 74.15 49.1 75.35 50.05 75.65 51.35 M74.9 51.35 Q74.65 50.35 73.75 49.65 72.9 48.95 71.9 48.95 70.95 48.95 70.45 49.65 69.95 50.35 70.25 51.35 70.5 52.3 71.4 53.05 72.3 53.75 73.25 53.75 74.25 53.75 74.75 53.05 L75.05 52.25 75.05 51.7 74.9 51.35" fill="url(#gradient26)" fill-rule="evenodd" stroke="none"/>
    <path d="M13.5 69.15 L15.75 70.1 19.4 70.6 Q25.4 70.6 29.6 65.6 33.85 60.6 33.85 53.55 33.85 46.5 29.6 41.5 25.4 36.45 19.4 36.45 17.5 36.45 15.7 37.0 13.75 37.6 12.05 38.85 L12.55 38.35 12.65 38.3 Q14.75 36.55 17.25 35.8 19.15 35.25 21.2 35.25 27.55 35.25 32.05 40.6 36.55 45.9 36.55 53.45 36.55 60.95 32.05 66.25 27.55 71.55 21.2 71.55 L17.3 71.05 Q15.3 70.4 13.5 69.15" fill="url(#gradient27)" fill-rule="evenodd" stroke="none"/>
    <path d="M5.95 54.05 L5.95 53.5 5.95 53.45 Q5.95 51.95 6.1 50.7 6.25 48.9 6.8 47.3 L7.6 45.0 Q8.4 43.3 9.5 41.8 L10.4 40.6 10.9 40.05 11.5 39.45 12.05 38.85 Q13.75 37.6 15.7 37.0 17.5 36.45 19.4 36.45 25.4 36.45 29.6 41.5 33.85 46.5 33.85 53.55 33.85 60.6 29.6 65.6 25.4 70.6 19.4 70.6 L15.75 70.1 13.5 69.15 12.55 68.4 10.4 66.25 Q9.0 64.65 8.1 62.85 L7.25 61.05 6.6 59.05 6.2 57.15 6.15 56.55 5.95 54.05 M23.3 45.05 Q20.75 42.4 17.25 42.4 15.2 42.4 13.45 43.35 L11.5 44.8 10.7 45.6 10.2 46.3 9.1 48.2 Q8.4 49.8 8.1 51.65 L8.05 52.4 8.0 53.45 8.0 54.35 8.05 54.75 Q8.3 56.8 9.1 58.55 L9.6 59.6 10.7 61.15 11.5 62.05 Q14.0 64.4 17.25 64.4 20.75 64.4 23.4 61.7 L23.8 61.15 24.5 60.25 25.4 58.7 Q26.5 56.35 26.5 53.45 26.5 50.75 25.55 48.5 L24.7 46.85 23.8 45.6 23.3 45.05" fill="url(#gradient28)" fill-rule="evenodd" stroke="none"/>
    <path d="M23.4 61.7 Q20.75 64.4 17.25 64.4 14.0 64.4 11.5 62.05 L10.7 61.15 9.6 59.6 9.1 58.55 Q8.3 56.8 8.05 54.75 L8.0 54.35 8.0 53.45 8.05 52.4 8.1 51.65 Q8.4 49.8 9.1 48.2 L10.2 46.3 10.7 45.6 11.5 44.8 13.45 43.35 Q15.2 42.4 17.25 42.4 20.75 42.4 23.3 45.05 L21.2 44.75 Q19.75 44.75 18.55 45.25 L17.95 45.6 Q17.35 45.95 16.8 46.5 L16.05 47.25 15.05 48.8 14.4 50.2 Q14.05 51.2 13.95 52.4 L13.9 53.45 13.95 53.95 14.0 54.65 14.45 56.8 Q15.0 58.3 16.05 59.5 L17.2 60.65 18.5 61.5 Q19.75 62.1 21.2 62.1 L23.4 61.7" fill="url(#gradient29)" fill-rule="evenodd" stroke="none"/>
    <path d="M16.8 46.5 Q17.35 45.95 17.95 45.6 L21.1 50.15 Q20.55 50.4 20.1 50.95 L16.8 46.5" fill="url(#gradient30)" fill-rule="evenodd" stroke="none"/>
    <path d="M24.7 46.85 L25.55 48.5 24.4 50.95 23.3 50.1 24.7 46.85" fill="url(#gradient31)" fill-rule="evenodd" stroke="none"/>
    <path d="M24.4 50.95 Q25.3 52.1 25.3 53.7 25.3 55.3 24.4 56.4 L24.25 56.6 23.15 57.4 22.25 57.55 21.5 57.45 20.25 56.6 20.1 56.4 Q19.4 55.55 19.25 54.4 L19.2 53.7 19.3 52.85 Q19.45 51.8 20.1 50.95 20.55 50.4 21.1 50.15 21.6 49.85 22.25 49.85 L23.3 50.1 24.4 50.95" fill="url(#gradient32)" fill-rule="evenodd" stroke="none"/>
    <path d="M18.5 61.5 L17.2 60.65 20.25 56.6 21.5 57.45 18.5 61.5" fill="url(#gradient33)" fill-rule="evenodd" stroke="none"/>
    <path d="M25.4 58.7 L24.5 60.25 23.15 57.4 24.25 56.6 25.4 58.7" fill="url(#gradient34)" fill-rule="evenodd" stroke="none"/>
    <path d="M37.1 61.5 L49.0 61.5 56.8 50.85 60.85 50.85 62.5 56.9 58.8 56.9 51.15 66.25 37.1 66.25 37.1 61.5" fill="url(#gradient35)" fill-rule="evenodd" stroke="none"/>
    <path d="M13.95 53.95 L13.9 53.45 13.95 52.4 19.3 52.85 19.2 53.7 19.25 54.4 13.95 53.95" fill="url(#gradient36)" fill-rule="evenodd" stroke="none"/>
    <path d="M77.8 61.35 L77.05 60.05 76.55 59.65 Q75.85 59.1 75.05 59.0 L74.75 58.95 Q73.7 58.95 73.25 59.65 72.75 60.35 73.0 61.35 73.3 62.35 74.2 63.05 L75.05 63.55 76.0 63.7 Q77.05 63.7 77.5 63.05 L77.8 62.1 77.8 61.35 M78.6 61.4 L78.6 62.35 Q78.6 63.05 78.2 63.6 77.6 64.45 76.25 64.45 L75.0 64.25 73.9 63.6 Q72.75 62.7 72.35 61.4 72.05 60.1 72.65 59.15 73.3 58.25 74.6 58.25 L75.0 58.35 Q76.05 58.5 76.95 59.15 L77.6 59.7 Q78.25 60.4 78.6 61.4" fill="url(#gradient37)" fill-rule="evenodd" stroke="none"/>
    <path d="M83.95 29.75 L85.35 27.75 85.35 22.5 84.1 20.45 57.55 20.45 55.85 22.5 55.85 27.75 57.55 29.75 83.95 29.75 83.0 30.1 83.0 31.75 84.1 31.75 91.1 31.6 Q98.6 32.1 102.15 36.15 L112.35 38.8 117.5 56.9 120.0 66.05 116.3 73.95 96.15 77.3 85.35 77.3 83.5 83.25 80.0 83.25 78.85 83.25 78.4 85.4 76.8 87.1 73.15 105.6 71.4 105.6 68.25 102.55 68.25 87.75 68.05 87.75 65.1 87.75 61.2 87.75 58.25 87.75 54.3 87.75 51.35 87.75 46.4 87.75 43.4 85.4 43.35 85.2 35.6 85.2 M35.75 85.4 L24.25 108.35 22.1 108.35 19.25 105.3 22.75 92.2 18.15 92.7 Q10.65 92.7 5.35 87.6 0.0 82.4 0.0 75.15 0.0 73.0 0.45 71.05 0.0 69.15 0.0 67.05 0.0 64.45 0.65 62.15 1.9 57.95 5.35 54.6 L5.95 54.05 5.95 53.5 5.95 53.45 Q5.95 51.95 6.1 50.7 6.25 48.9 6.8 47.3 L7.6 45.0 Q8.4 43.3 9.5 41.8 L10.4 40.6 10.9 40.05 5.2 37.85 6.75 32.85 18.35 29.05 19.05 26.55 21.35 25.4 18.0 16.05 11.25 12.05 9.0 5.4 13.15 2.55 13.05 2.25 15.9 0.0 18.05 0.0 29.55 17.05 32.45 14.1 35.45 14.1 38.4 14.1 41.35 14.1 44.3 14.1 47.3 14.1 62.05 14.1 62.05 11.45 58.6 8.65 58.6 5.05 62.05 2.25 65.2 0.0 66.95 0.0 70.7 14.1 79.75 14.1 83.0 16.75 83.0 19.45 84.1 20.45 M81.7 18.2 L83.0 19.45 M45.95 31.3 L46.75 30.15 45.55 28.9 45.55 18.5 48.35 15.55 79.4 15.55 79.95 16.1 81.7 17.45 81.7 18.2 79.7 16.3 51.4 16.3 57.55 20.45 M58.65 28.35 L57.45 26.95 57.45 23.25 58.65 21.75 83.65 21.75 84.55 23.25 84.55 26.95 83.65 28.35 58.65 28.35 M81.8 30.55 L83.0 30.1 M81.8 30.55 L81.8 31.75 83.0 31.75 M84.1 31.75 L86.2 32.7 88.15 33.9 89.1 34.65 96.55 34.65 102.15 36.15 M81.95 34.65 L89.1 34.65 M81.95 44.35 Q82.35 42.1 83.9 40.4 85.15 39.05 86.7 38.45 L80.8 37.7 76.8 37.15 74.45 37.25 80.3 38.8 81.95 44.35 84.05 51.7 Q86.1 54.0 89.1 54.0 L89.2 54.0 Q93.4 54.05 96.45 52.3 L94.6 52.65 94.55 52.65 Q92.05 52.65 90.2 50.75 89.1 49.45 88.7 47.85 88.45 47.0 88.45 45.95 88.45 43.25 90.2 41.35 92.05 39.4 94.55 39.4 L94.6 39.4 96.6 39.8 Q93.65 38.0 89.2 38.05 L89.1 38.05 86.7 38.45 M96.6 39.8 L96.9 39.9 98.3 40.8 97.7 38.8 81.95 34.65 80.8 37.7 M98.3 40.8 L98.85 41.35 Q100.6 43.25 100.6 45.95 L100.4 47.85 100.35 48.1 102.9 56.9 107.15 56.9 M94.6 50.45 Q93.5 50.15 92.65 49.2 L91.8 47.85 Q91.45 47.05 91.45 45.95 91.45 44.15 92.65 42.85 93.5 41.85 94.6 41.6 L94.7 41.6 95.6 41.5 Q97.3 41.5 98.55 42.85 L99.1 43.5 Q99.7 44.55 99.75 45.95 99.75 47.05 99.4 47.85 L98.55 49.2 Q97.3 50.5 95.6 50.5 L94.6 50.45 Q95.85 50.2 96.85 49.2 L97.7 47.85 Q98.05 47.05 98.05 45.95 98.0 44.55 97.4 43.5 L96.85 42.85 Q95.9 41.85 94.7 41.6 M112.0 44.15 Q112.25 45.15 111.75 45.85 111.35 46.5 110.45 46.5 109.5 46.5 108.7 45.85 107.85 45.15 107.6 44.15 107.35 43.15 107.85 42.45 108.25 41.8 109.2 41.8 110.1 41.8 110.9 42.45 111.7 43.15 112.0 44.15 M112.55 44.2 Q112.85 45.4 112.25 46.3 111.75 47.1 110.65 47.1 109.5 47.1 108.5 46.3 107.45 45.4 107.15 44.2 106.8 42.95 107.45 42.1 107.95 41.3 109.1 41.3 110.2 41.3 111.2 42.1 112.2 42.95 112.55 44.2 M106.05 44.15 Q106.35 45.15 105.9 45.85 105.4 46.5 104.5 46.5 103.6 46.5 102.75 45.85 101.95 45.15 101.7 44.15 101.45 43.15 101.85 42.45 102.35 41.8 103.25 41.8 104.15 41.8 104.95 42.45 105.8 43.15 106.05 44.15 M106.5 44.15 Q106.85 45.35 106.3 46.2 105.7 47.0 104.6 47.0 103.5 47.0 102.5 46.2 101.55 45.35 101.25 44.15 100.9 42.95 101.4 42.1 102.0 41.3 103.1 41.3 104.2 41.3 105.15 42.1 106.2 42.95 106.5 44.15 M108.8 51.4 Q109.2 52.55 108.6 53.5 108.0 54.35 106.9 54.35 105.7 54.35 104.7 53.5 103.65 52.55 103.35 51.4 103.0 50.15 103.65 49.25 104.2 48.4 105.35 48.4 106.45 48.4 107.45 49.25 108.5 50.15 108.8 51.4 M114.75 51.4 Q115.1 52.55 114.45 53.5 113.9 54.35 112.8 54.35 111.65 54.35 110.65 53.5 109.65 52.55 109.3 51.4 109.0 50.15 109.6 49.25 110.1 48.4 111.3 48.4 112.4 48.4 113.4 49.25 114.4 50.15 114.75 51.4 M97.7 38.8 L112.35 38.8 M114.2 51.35 Q114.45 52.3 113.95 53.05 113.5 53.75 112.6 53.75 111.7 53.75 110.9 53.05 110.1 52.3 109.8 51.35 109.55 50.35 110.05 49.65 110.45 48.95 111.4 48.95 112.3 48.95 113.1 49.65 113.9 50.35 114.2 51.35 M116.95 61.35 Q117.25 62.35 116.75 63.05 116.35 63.7 115.35 63.7 114.5 63.7 113.7 63.05 112.85 62.35 112.6 61.35 112.35 60.35 112.8 59.65 113.3 58.95 114.2 58.95 115.05 58.95 115.9 59.65 116.7 60.35 116.95 61.35 M117.5 61.35 Q117.85 62.6 117.25 63.45 116.75 64.25 115.5 64.25 114.4 64.25 113.4 63.45 112.35 62.6 112.05 61.35 111.75 60.1 112.3 59.2 112.9 58.35 114.05 58.35 115.1 58.35 116.15 59.2 117.15 60.1 117.5 61.35 M108.25 51.35 Q108.55 52.3 108.1 53.05 107.6 53.75 106.7 53.75 105.75 53.75 104.95 53.05 104.1 52.3 103.85 51.35 103.6 50.35 104.1 49.65 104.55 48.95 105.45 48.95 106.35 48.95 107.15 49.65 108.0 50.35 108.25 51.35 M111.1 61.35 Q111.25 62.35 110.85 63.05 110.4 63.7 109.5 63.7 108.6 63.7 107.8 63.05 107.0 62.35 106.7 61.35 106.45 60.35 106.85 59.65 107.35 58.95 108.25 58.95 109.2 58.95 110.0 59.65 110.85 60.35 111.1 61.35 M111.65 61.4 Q111.85 62.65 111.35 63.5 110.8 64.3 109.7 64.3 108.6 64.3 107.6 63.5 106.6 62.65 106.25 61.4 105.95 60.2 106.45 59.3 107.05 58.45 108.15 58.45 109.35 58.45 110.3 59.3 111.35 60.2 111.65 61.4 M105.45 66.05 L101.65 73.95 116.3 73.95 M102.9 56.9 L105.45 66.05 120.0 66.05 M107.95 56.9 L117.5 56.9 M100.35 48.1 Q99.95 49.5 98.85 50.75 97.75 51.85 96.45 52.3 M92.3 62.9 L91.25 63.15 91.2 63.15 Q89.85 63.15 88.85 62.2 L88.7 62.0 Q87.6 60.85 87.6 59.25 87.6 57.6 88.7 56.45 89.7 55.35 91.2 55.35 L91.25 55.35 92.4 55.55 Q90.65 54.55 88.0 54.55 L87.95 54.55 Q86.3 54.55 85.15 55.7 L85.5 56.9 87.45 63.9 87.95 63.95 88.0 63.95 Q90.5 63.95 92.3 62.9 93.1 62.65 93.7 62.0 94.75 60.85 94.75 59.25 94.75 57.95 94.05 56.9 L93.7 56.45 Q93.15 55.8 92.4 55.55 M91.1 56.65 L91.25 56.6 91.8 56.55 Q92.55 56.55 93.2 57.0 L93.6 57.35 Q94.25 58.15 94.25 59.25 94.25 60.35 93.6 61.1 92.85 61.9 91.8 61.9 L91.25 61.8 91.2 61.8 Q90.55 61.6 90.1 61.1 L89.9 60.95 Q89.4 60.2 89.4 59.25 89.4 58.15 90.1 57.35 90.55 56.85 91.1 56.65 91.45 56.75 91.8 57.0 L92.2 57.35 Q92.85 58.15 92.85 59.25 92.85 60.35 92.2 61.1 L91.2 61.8 M94.05 56.9 L98.4 56.9 M81.65 51.35 L81.7 51.7 81.7 52.25 81.4 53.05 Q80.9 53.75 80.0 53.75 78.95 53.75 78.1 53.05 77.2 52.3 76.95 51.35 76.7 50.35 77.1 49.65 77.65 48.95 78.6 48.95 79.6 48.95 80.45 49.65 81.4 50.35 81.65 51.35 M82.4 51.35 L82.45 51.8 82.45 52.55 82.05 53.55 Q81.4 54.45 80.25 54.45 78.9 54.45 77.8 53.55 76.65 52.6 76.35 51.35 76.0 50.1 76.55 49.2 77.25 48.3 78.45 48.3 79.75 48.3 80.85 49.2 82.05 50.1 82.4 51.35 M85.15 61.4 L85.3 62.35 Q85.3 63.0 84.8 63.55 84.3 64.4 82.95 64.4 L81.65 64.2 80.6 63.55 Q79.5 62.65 79.1 61.4 78.75 60.1 79.45 59.2 80.05 58.35 81.25 58.35 L81.65 58.4 Q82.7 58.5 83.65 59.2 L84.2 59.75 85.15 61.4 M84.45 61.35 L84.6 62.1 Q84.6 62.6 84.2 63.05 83.8 63.7 82.75 63.7 L81.7 63.55 80.9 63.05 Q80.05 62.35 79.7 61.35 79.45 60.35 80.0 59.65 80.45 58.95 81.4 58.95 L81.7 59.0 Q82.55 59.1 83.3 59.65 L83.7 60.05 84.45 61.35 M84.05 51.7 L85.15 55.7 M87.45 63.9 L87.6 64.4 87.95 64.4 88.0 64.4 Q90.65 64.35 92.4 65.4 L93.7 66.35 Q94.75 67.45 94.75 69.1 94.75 70.7 93.7 71.85 L92.3 72.85 Q90.5 73.8 88.0 73.75 L87.95 73.75 86.5 73.5 85.55 76.7 101.65 73.95 M87.6 64.4 L88.0 66.05 84.95 72.5 86.5 73.5 M84.95 72.5 L84.3 73.95 77.35 75.1 80.0 83.25 M91.3 71.7 L91.25 71.65 Q90.6 71.5 90.1 71.0 89.4 70.2 89.4 69.1 89.4 68.0 90.1 67.2 90.55 66.7 91.15 66.55 L91.25 66.5 91.8 66.45 Q92.85 66.45 93.6 67.2 94.25 68.0 94.25 69.1 94.25 70.2 93.6 71.0 92.85 71.8 91.8 71.8 L91.3 71.7 92.3 71.0 Q92.95 70.2 92.95 69.1 92.95 68.0 92.3 67.2 91.8 66.7 91.15 66.55 M92.3 72.85 L91.25 72.95 91.2 72.95 Q89.7 72.95 88.7 71.85 87.6 70.7 87.6 69.1 87.6 67.45 88.7 66.35 89.7 65.2 91.2 65.2 L91.25 65.2 92.4 65.4 M85.35 77.3 L85.55 76.7 M99.05 56.9 L102.9 56.9 M62.05 11.45 L62.05 2.25 M67.45 14.1 L70.7 14.1 M62.05 14.1 L67.45 14.1 65.2 0.0 M60.55 23.45 L79.1 23.45 79.55 24.15 79.55 26.0 79.1 26.75 60.55 26.75 59.95 26.0 59.95 24.15 60.55 23.45 M43.95 17.45 L47.3 14.1 M41.0 17.45 L43.95 17.45 43.95 29.2 45.95 31.3 43.05 31.3 42.8 31.3 Q45.55 31.95 48.0 33.5 L85.4 33.5 M43.05 15.4 L44.3 14.1 M41.0 17.45 L42.6 15.8 M41.0 21.05 L41.0 17.45 38.0 17.45 38.0 21.05 M48.7 19.6 L51.4 16.3 M48.7 19.6 L55.85 22.5 M41.7 29.85 L41.0 29.2 38.0 29.2 38.7 29.85 M41.0 29.2 L43.95 29.2 M48.0 33.5 L49.55 34.65 64.55 34.65 69.55 35.95 80.35 35.95 M47.55 34.65 L49.55 34.65 M43.05 31.3 L41.8 30.1 M50.35 31.65 L48.7 29.7 48.7 19.6 M32.95 31.3 Q38.35 32.5 42.55 37.45 44.0 39.2 45.1 41.05 L47.55 34.65 63.35 38.8 80.3 38.8 M40.05 53.95 L44.3 53.95 47.75 49.35 52.6 49.35 46.6 57.55 38.7 57.5 37.1 61.5 49.0 61.5 56.8 50.85 60.85 50.85 62.5 56.9 68.5 56.9 63.35 38.8 M48.7 29.7 L55.85 27.75 M50.35 31.65 L57.55 29.75 M72.75 44.15 Q73.1 45.15 72.55 45.85 72.1 46.5 71.05 46.5 70.15 46.5 69.25 45.85 68.35 45.15 68.05 44.15 67.75 43.15 68.3 42.45 68.8 41.8 69.75 41.8 70.7 41.8 71.6 42.45 72.5 43.15 72.75 44.15 M73.4 44.25 Q73.85 45.45 73.1 46.35 72.55 47.15 71.2 47.15 70.1 47.15 68.95 46.35 67.85 45.45 67.5 44.25 67.1 42.95 67.8 42.05 68.45 41.25 69.6 41.25 70.8 41.25 71.95 42.05 73.05 42.95 73.4 44.25 M80.1 44.2 Q80.45 45.45 79.8 46.35 79.2 47.15 77.95 47.15 76.7 47.15 75.65 46.35 74.55 45.45 74.2 44.2 73.85 42.95 74.45 42.05 75.1 41.25 76.3 41.25 77.55 41.25 78.6 42.05 79.8 42.95 80.1 44.2 M79.5 44.15 Q79.75 45.15 79.25 45.85 78.75 46.5 77.8 46.5 76.8 46.5 75.95 45.85 75.1 45.15 74.8 44.15 74.5 43.15 75.0 42.45 75.5 41.8 76.45 41.8 77.45 41.8 78.3 42.45 79.25 43.15 79.5 44.15 M75.65 51.35 L75.85 51.85 75.85 52.55 75.45 53.6 Q74.8 54.55 73.45 54.55 72.2 54.55 71.0 53.6 69.8 52.65 69.5 51.35 69.1 50.05 69.75 49.1 70.4 48.2 71.7 48.2 73.0 48.2 74.15 49.1 75.35 50.05 75.65 51.35 M69.55 35.95 L74.45 37.25 M41.0 29.2 L41.0 21.3 M50.35 31.65 L78.7 31.65 81.8 30.55 M28.25 22.05 L29.1 21.65 29.1 17.45 29.55 17.05 M38.0 17.45 L39.65 15.8 M37.1 15.4 L38.4 14.1 M32.1 17.45 L35.05 17.45 36.7 15.8 M32.1 17.45 L33.8 15.8 M32.1 21.05 L32.1 17.45 29.1 17.45 M35.05 21.05 L35.05 17.45 38.0 17.45 M34.15 15.4 L35.45 14.1 M18.0 16.05 L13.15 2.55 13.6 2.25 M12.05 38.85 Q13.75 37.6 15.7 37.0 17.5 36.45 19.4 36.45 25.4 36.45 29.6 41.5 33.85 46.5 33.85 53.55 33.85 60.6 29.6 65.6 25.4 70.6 19.4 70.6 L15.75 70.1 13.5 69.15 Q15.3 70.4 17.3 71.05 L21.2 71.55 Q27.55 71.55 32.05 66.25 36.55 60.95 36.55 53.45 36.55 45.9 32.05 40.6 27.55 35.25 21.2 35.25 19.15 35.25 17.25 35.8 14.75 36.55 12.65 38.3 L12.55 38.35 12.05 38.85 11.5 39.45 10.9 40.05 M20.25 33.05 L17.7 31.4 18.35 29.05 M23.4 61.7 Q20.75 64.4 17.25 64.4 14.0 64.4 11.5 62.05 L10.7 61.15 9.6 59.6 9.1 58.55 Q8.3 56.8 8.05 54.75 L8.0 54.35 8.0 53.45 8.05 52.4 8.1 51.65 Q8.4 49.8 9.1 48.2 L10.2 46.3 10.7 45.6 11.5 44.8 13.45 43.35 Q15.2 42.4 17.25 42.4 20.75 42.4 23.3 45.05 L23.8 45.6 24.7 46.85 25.55 48.5 Q26.5 50.75 26.5 53.45 26.5 56.35 25.4 58.7 L24.5 60.25 23.8 61.15 23.4 61.7 21.2 62.1 Q19.75 62.1 18.5 61.5 L17.2 60.65 16.05 59.5 Q15.0 58.3 14.45 56.8 L14.0 54.65 13.95 53.95 13.9 53.45 13.95 52.4 Q14.05 51.2 14.4 50.2 L15.05 48.8 16.05 47.25 16.8 46.5 Q17.35 45.95 17.95 45.6 L18.55 45.25 Q19.75 44.75 21.2 44.75 L23.3 45.05 M32.8 29.85 L32.1 29.2 29.1 29.2 30.85 30.95 32.95 31.3 34.15 31.3 33.0 30.1 M32.1 29.2 L35.05 29.2 35.05 21.3 M42.8 31.3 L40.1 31.3 37.1 31.3 34.15 31.3 M37.1 31.3 L35.95 30.1 M40.1 31.3 L38.85 30.1 M35.75 29.85 L35.05 29.2 38.0 29.2 38.0 21.3 M20.25 33.05 Q21.6 32.45 23.15 31.95 L25.95 31.15 29.1 30.9 30.85 30.95 M21.35 25.4 L28.25 22.05 15.9 0.0 M12.65 38.3 Q15.65 35.05 20.25 33.05 M32.1 29.2 L32.1 21.3 M29.1 29.2 L29.1 21.65 M38.7 57.5 L40.05 53.95 45.1 41.05 M24.4 50.95 Q25.3 52.1 25.3 53.7 25.3 55.3 24.4 56.4 L24.25 56.6 25.4 58.7 M21.1 50.15 Q21.6 49.85 22.25 49.85 L23.3 50.1 24.7 46.85 M23.3 50.1 L24.4 50.95 25.55 48.5 M23.15 57.4 L24.5 60.25 M21.5 57.45 L20.25 56.6 17.2 60.65 M24.25 56.6 L23.15 57.4 22.25 57.55 21.5 57.45 18.5 61.5 M39.1 72.6 L39.1 72.2 37.1 71.0 37.1 66.25 37.1 61.5 M19.3 52.85 Q19.45 51.8 20.1 50.95 L16.8 46.5 M19.25 54.4 L19.2 53.7 19.3 52.85 13.95 52.4 M20.25 56.6 L20.1 56.4 Q19.4 55.55 19.25 54.4 L13.95 53.95 M6.6 59.05 L6.2 57.15 6.15 56.55 Q3.75 59.1 2.75 62.15 2.0 64.45 2.0 67.0 L2.0 67.05 Q3.0 65.25 4.5 63.6 L3.75 61.75 6.6 59.05 7.25 61.05 8.1 62.85 Q9.0 64.65 10.4 66.25 L12.55 68.4 13.5 69.15 13.0 68.85 Q16.75 72.45 21.0 74.2 L23.4 75.1 25.95 75.6 27.15 75.85 29.1 75.95 30.2 75.95 31.7 75.75 34.3 75.1 34.45 75.05 35.0 74.85 Q37.15 74.05 39.1 72.6 L39.1 74.55 42.7 83.6 43.35 85.2 M6.15 56.55 L5.95 54.05 M2.5 71.1 L2.75 70.25 Q3.55 67.8 5.25 65.65 L4.5 63.6 M5.25 65.65 L6.5 68.85 9.0 68.85 10.15 71.2 9.1 72.9 10.95 76.8 17.85 76.8 21.0 74.2 M2.5 71.1 Q2.0 69.15 2.0 67.05 M13.0 68.85 L12.55 68.4 M13.0 68.85 L11.3 67.6 M17.85 76.8 L19.25 78.65 23.4 75.1 M25.15 83.35 Q21.9 84.6 18.15 84.6 10.65 84.6 5.35 79.5 3.25 77.5 2.0 75.15 2.0 81.65 6.75 86.2 11.5 90.8 18.15 90.8 20.9 90.8 23.35 90.05 L25.15 83.35 25.15 83.25 21.3 82.45 18.15 82.7 Q11.5 82.7 6.75 78.1 3.55 75.05 2.5 71.1 M32.0 84.65 L34.85 85.2 38.8 82.1 37.3 81.6 34.3 75.1 M34.85 85.2 L35.6 85.2 M19.25 78.65 L20.4 82.25 21.3 82.45 M23.35 90.05 L22.75 92.2 M25.15 83.25 L32.0 84.65 22.1 108.35 M2.0 75.15 Q0.95 73.2 0.45 71.05 M20.1 50.95 Q20.55 50.4 21.1 50.15 L17.95 45.6 M74.9 51.35 L75.05 51.7 75.05 52.25 74.75 53.05 Q74.25 53.75 73.25 53.75 72.3 53.75 71.4 53.05 70.5 52.3 70.25 51.35 69.95 50.35 70.45 49.65 70.95 48.95 71.9 48.95 72.9 48.95 73.75 49.65 74.65 50.35 74.9 51.35 M77.8 61.35 L77.8 62.1 77.5 63.05 Q77.05 63.7 76.0 63.7 L75.05 63.55 74.2 63.05 Q73.3 62.35 73.0 61.35 72.75 60.35 73.25 59.65 73.7 58.95 74.75 58.95 L75.05 59.0 Q75.85 59.1 76.55 59.65 L77.05 60.05 77.8 61.35 M78.6 61.4 L78.6 62.35 Q78.6 63.05 78.2 63.6 77.6 64.45 76.25 64.45 L75.0 64.25 73.9 63.6 Q72.75 62.7 72.35 61.4 72.05 60.1 72.65 59.15 73.3 58.25 74.6 58.25 L75.0 58.35 Q76.05 58.5 76.95 59.15 L77.6 59.7 Q78.25 60.4 78.6 61.4 M71.05 66.05 L67.3 73.95 84.3 73.95 M68.5 56.9 L79.2 56.9 M68.5 56.9 L71.05 66.05 88.0 66.05 M37.1 66.25 L51.15 66.25 58.8 56.9 62.5 56.9 M54.95 77.3 L52.05 77.3 55.3 85.4 58.25 87.75 M51.35 85.4 L55.3 85.4 M58.95 77.3 L54.95 77.3 58.25 85.4 62.2 85.4 58.95 77.3 61.9 77.3 64.15 77.3 65.9 77.05 69.95 76.35 77.35 75.1 M43.4 85.4 L48.35 85.4 44.4 75.6 39.1 72.2 M48.1 77.3 L47.2 77.3 44.4 75.6 M51.35 85.4 L54.3 87.75 M48.35 85.4 L51.35 87.75 M48.1 77.3 L51.35 85.4 M52.05 77.3 L48.1 77.3 M69.95 76.35 L72.65 83.25 78.85 83.25 M65.9 77.05 L69.3 85.4 72.2 87.75 73.55 87.75 76.2 87.75 76.8 87.1 M65.1 85.4 L69.3 85.4 M61.9 77.3 L65.1 85.4 68.05 87.75 M68.25 87.75 L72.2 87.75 M62.2 85.4 L65.1 87.75 M58.25 85.4 L61.2 87.75 M67.3 73.95 L47.2 77.3 M42.7 83.6 L38.8 82.1 M40.1 15.4 L41.35 14.1 M71.4 105.6 L73.55 87.75 M79.85 56.9 L85.5 56.9" fill="none" stroke="#000000" stroke-width="0.7" stroke-opacity="0.4"/>
  </g>
  <defs>
    <radialGradient cx="0" cy="0" gradientTransform="matrix(0.0, 0.0, 0.0, 0.0, 0.0, 0.0)" gradientUnits="userSpaceOnUse" id="gradient0" r="819.2" spreadMethod="pad">
      <stop offset="0.2" stop-color="#ff1919"/>
      <stop offset="0.66" stop-color="#6b0101"/>
    </radialGradient>
    <linearGradient gradientTransform="matrix(-1.0E-4, 0.0028, -0.0111, -4.0E-4, 93.05, 35.2)" gradientUnits="userSpaceOnUse" id="gradient1" spreadMethod="pad" x1="-819.2" x2="819.2">
      <stop offset="0.0" stop-color="#848484"/>
      <stop offset="1.0" stop-color="#424242"/>
    </linearGradient>
    <linearGradient gradientTransform="matrix(0.0, 0.0044, -0.0075, 0.0, 80.6, 40.7)" gradientUnits="userSpaceOnUse" id="gradient2" spreadMethod="pad" x1="-819.2" x2="819.2">
      <stop offset="0.0" stop-color="#848484"/>
      <stop offset="1.0" stop-color="#424242"/>
    </linearGradient>
    <radialGradient cx="0" cy="0" gradientTransform="matrix(0.0193, 0.0, 0.0, 0.0193, 86.9, 39.65)" gradientUnits="userSpaceOnUse" id="gradient3" r="819.2" spreadMethod="pad">
      <stop offset="0.0" stop-color="#999999"/>
      <stop offset="1.0" stop-color="#333333"/>
    </radialGradient>
    <radialGradient cx="0" cy="0" gradientTransform="matrix(0.015, 0.0, 0.0, 0.015, 91.2, 41.9)" gradientUnits="userSpaceOnUse" id="gradient4" r="819.2" spreadMethod="pad">
      <stop offset="0.0" stop-color="#999999"/>
      <stop offset="1.0" stop-color="#333333"/>
    </radialGradient>
    <radialGradient cx="0" cy="0" gradientTransform="matrix(0.0041, 0.0, 0.0, 0.0041, 90.55, 68.95)" gradientUnits="userSpaceOnUse" id="gradient5" r="819.2" spreadMethod="pad">
      <stop offset="0.2" stop-color="#ff1919"/>
      <stop offset="0.66" stop-color="#6b0101"/>
    </radialGradient>
    <radialGradient cx="0" cy="0" gradientTransform="matrix(0.0082, 0.0, 0.0, 0.0082, 93.05, 45.95)" gradientUnits="userSpaceOnUse" id="gradient6" r="819.2" spreadMethod="pad">
      <stop offset="0.2" stop-color="#ff1919"/>
      <stop offset="0.66" stop-color="#6b0101"/>
    </radialGradient>
    <radialGradient cx="0" cy="0" gradientTransform="matrix(0.0074, 0.0, 0.0, 0.0074, 111.4, 46.6)" gradientUnits="userSpaceOnUse" id="gradient7" r="819.2" spreadMethod="pad">
      <stop offset="0.0" stop-color="#999999"/>
      <stop offset="1.0" stop-color="#333333"/>
    </radialGradient>
    <radialGradient cx="0" cy="0" gradientTransform="matrix(0.0076, 0.0, 0.0, 0.0076, 105.85, 46.3)" gradientUnits="userSpaceOnUse" id="gradient8" r="819.2" spreadMethod="pad">
      <stop offset="0.0" stop-color="#999999"/>
      <stop offset="1.0" stop-color="#333333"/>
    </radialGradient>
    <radialGradient cx="0" cy="0" gradientTransform="matrix(0.0079, 0.0, 0.0, 0.0079, 107.75, 54.1)" gradientUnits="userSpaceOnUse" id="gradient9" r="819.2" spreadMethod="pad">
      <stop offset="0.0" stop-color="#999999"/>
      <stop offset="1.0" stop-color="#333333"/>
    </radialGradient>
    <radialGradient cx="0" cy="0" gradientTransform="matrix(0.0079, 0.0, 0.0, 0.0079, 114.2, 53.65)" gradientUnits="userSpaceOnUse" id="gradient10" r="819.2" spreadMethod="pad">
      <stop offset="0.0" stop-color="#999999"/>
      <stop offset="1.0" stop-color="#333333"/>
    </radialGradient>
    <radialGradient cx="0" cy="0" gradientTransform="matrix(0.0079, 0.0, 0.0, 0.0079, 117.0, 63.55)" gradientUnits="userSpaceOnUse" id="gradient11" r="819.2" spreadMethod="pad">
      <stop offset="0.0" stop-color="#999999"/>
      <stop offset="1.0" stop-color="#333333"/>
    </radialGradient>
    <radialGradient cx="0" cy="0" gradientTransform="matrix(0.0077, 0.0, 0.0, 0.0077, 110.95, 63.6)" gradientUnits="userSpaceOnUse" id="gradient12" r="819.2" spreadMethod="pad">
      <stop offset="0.0" stop-color="#999999"/>
      <stop offset="1.0" stop-color="#333333"/>
    </radialGradient>
    <radialGradient cx="0" cy="0" gradientTransform="matrix(0.0113, 0.0, 0.0, 0.0113, 86.3, 55.9)" gradientUnits="userSpaceOnUse" id="gradient13" r="819.2" spreadMethod="pad">
      <stop offset="0.0" stop-color="#999999"/>
      <stop offset="1.0" stop-color="#333333"/>
    </radialGradient>
    <radialGradient cx="0" cy="0" gradientTransform="matrix(0.0088, 0.0, 0.0, 0.0088, 89.6, 56.7)" gradientUnits="userSpaceOnUse" id="gradient14" r="819.2" spreadMethod="pad">
      <stop offset="0.0" stop-color="#999999"/>
      <stop offset="1.0" stop-color="#333333"/>
    </radialGradient>
    <radialGradient cx="0" cy="0" gradientTransform="matrix(0.0056, 0.0, 0.0, 0.0056, 90.4, 59.0)" gradientUnits="userSpaceOnUse" id="gradient15" r="819.2" spreadMethod="pad">
      <stop offset="0.2" stop-color="#ff1919"/>
      <stop offset="0.66" stop-color="#6b0101"/>
    </radialGradient>
    <radialGradient cx="0" cy="0" gradientTransform="matrix(0.008, 0.0, 0.0, 0.008, 81.15, 53.75)" gradientUnits="userSpaceOnUse" id="gradient16" r="819.2" spreadMethod="pad">
      <stop offset="0.0" stop-color="#999999"/>
      <stop offset="1.0" stop-color="#333333"/>
    </radialGradient>
    <radialGradient cx="0" cy="0" gradientTransform="matrix(0.0085, 0.0, 0.0, 0.0085, 84.25, 64.1)" gradientUnits="userSpaceOnUse" id="gradient17" r="819.2" spreadMethod="pad">
      <stop offset="0.0" stop-color="#999999"/>
      <stop offset="1.0" stop-color="#333333"/>
    </radialGradient>
    <radialGradient cx="0" cy="0" gradientTransform="matrix(0.0106, 0.0, 0.0, 0.0106, 88.3, 65.35)" gradientUnits="userSpaceOnUse" id="gradient18" r="819.2" spreadMethod="pad">
      <stop offset="0.0" stop-color="#999999"/>
      <stop offset="1.0" stop-color="#333333"/>
    </radialGradient>
    <radialGradient cx="0" cy="0" gradientTransform="matrix(0.009, 0.0, 0.0, 0.009, 89.2, 66.6)" gradientUnits="userSpaceOnUse" id="gradient19" r="819.2" spreadMethod="pad">
      <stop offset="0.0" stop-color="#999999"/>
      <stop offset="1.0" stop-color="#333333"/>
    </radialGradient>
    <radialGradient cx="0" cy="0" gradientTransform="matrix(0.0052, 0.0, 0.0, 0.0052, 90.6, 69.0)" gradientUnits="userSpaceOnUse" id="gradient20" r="819.2" spreadMethod="pad">
      <stop offset="0.2" stop-color="#ff1919"/>
      <stop offset="0.66" stop-color="#6b0101"/>
    </radialGradient>
    <linearGradient gradientTransform="matrix(0.0, 0.006, -0.0102, 0.0, 41.25, 36.2)" gradientUnits="userSpaceOnUse" id="gradient21" spreadMethod="pad" x1="-819.2" x2="819.2">
      <stop offset="0.0" stop-color="#848484"/>
      <stop offset="1.0" stop-color="#424242"/>
    </linearGradient>
    <radialGradient cx="0" cy="0" gradientTransform="matrix(0.0531, 0.0, 0.0, 0.0531, 21.75, 33.8)" gradientUnits="userSpaceOnUse" id="gradient22" r="819.2" spreadMethod="pad">
      <stop offset="0.0" stop-color="#999999"/>
      <stop offset="1.0" stop-color="#333333"/>
    </radialGradient>
    <radialGradient cx="0" cy="0" gradientTransform="matrix(0.0132, 0.0, 0.0, 0.0132, 48.3, 52.4)" gradientUnits="userSpaceOnUse" id="gradient23" r="819.2" spreadMethod="pad">
      <stop offset="0.2" stop-color="#ff1919"/>
      <stop offset="0.66" stop-color="#6b0101"/>
    </radialGradient>
    <radialGradient cx="0" cy="0" gradientTransform="matrix(0.0076, 0.0, 0.0, 0.0076, 72.1, 46.45)" gradientUnits="userSpaceOnUse" id="gradient24" r="819.2" spreadMethod="pad">
      <stop offset="0.0" stop-color="#999999"/>
      <stop offset="1.0" stop-color="#333333"/>
    </radialGradient>
    <radialGradient cx="0" cy="0" gradientTransform="matrix(0.0079, 0.0, 0.0, 0.0079, 78.95, 46.65)" gradientUnits="userSpaceOnUse" id="gradient25" r="819.2" spreadMethod="pad">
      <stop offset="0.0" stop-color="#999999"/>
      <stop offset="1.0" stop-color="#333333"/>
    </radialGradient>
    <radialGradient cx="0" cy="0" gradientTransform="matrix(0.008, 0.0, 0.0, 0.008, 74.3, 53.7)" gradientUnits="userSpaceOnUse" id="gradient26" r="819.2" spreadMethod="pad">
      <stop offset="0.0" stop-color="#999999"/>
      <stop offset="1.0" stop-color="#333333"/>
    </radialGradient>
    <radialGradient cx="0" cy="0" gradientTransform="matrix(0.039, 0.0, 0.0, 0.039, 34.2, 45.6)" gradientUnits="userSpaceOnUse" id="gradient27" r="819.2" spreadMethod="pad">
      <stop offset="0.2" stop-color="#ff1919"/>
      <stop offset="0.66" stop-color="#6b0101"/>
    </radialGradient>
    <radialGradient cx="0" cy="0" gradientTransform="matrix(0.0401, 0.0, 0.0, 0.0401, 12.25, 41.05)" gradientUnits="userSpaceOnUse" id="gradient28" r="819.2" spreadMethod="pad">
      <stop offset="0.0" stop-color="#999999"/>
      <stop offset="1.0" stop-color="#333333"/>
    </radialGradient>
    <radialGradient cx="0" cy="0" gradientTransform="matrix(0.0252, 0.0, 0.0, 0.0252, 21.5, 62.2)" gradientUnits="userSpaceOnUse" id="gradient29" r="819.2" spreadMethod="pad">
      <stop offset="0.0" stop-color="#999999"/>
      <stop offset="1.0" stop-color="#333333"/>
    </radialGradient>
    <radialGradient cx="0" cy="0" gradientTransform="matrix(0.0065, 0.0, 0.0, 0.0065, 20.5, 50.0)" gradientUnits="userSpaceOnUse" id="gradient30" r="819.2" spreadMethod="pad">
      <stop offset="0.0" stop-color="#999999"/>
      <stop offset="1.0" stop-color="#333333"/>
    </radialGradient>
    <radialGradient cx="0" cy="0" gradientTransform="matrix(0.0042, 0.0, 0.0, 0.0042, 23.9, 50.2)" gradientUnits="userSpaceOnUse" id="gradient31" r="819.2" spreadMethod="pad">
      <stop offset="0.0" stop-color="#999999"/>
      <stop offset="1.0" stop-color="#333333"/>
    </radialGradient>
    <radialGradient cx="0" cy="0" gradientTransform="matrix(0.0068, 0.0, 0.0, 0.0068, 20.7, 52.7)" gradientUnits="userSpaceOnUse" id="gradient32" r="819.2" spreadMethod="pad">
      <stop offset="0.0" stop-color="#999999"/>
      <stop offset="1.0" stop-color="#333333"/>
    </radialGradient>
    <radialGradient cx="0" cy="0" gradientTransform="matrix(0.0056, 0.0, 0.0, 0.0056, 20.7, 57.9)" gradientUnits="userSpaceOnUse" id="gradient33" r="819.2" spreadMethod="pad">
      <stop offset="0.0" stop-color="#999999"/>
      <stop offset="1.0" stop-color="#333333"/>
    </radialGradient>
    <radialGradient cx="0" cy="0" gradientTransform="matrix(0.0036, 0.0, 0.0, 0.0036, 24.1, 57.4)" gradientUnits="userSpaceOnUse" id="gradient34" r="819.2" spreadMethod="pad">
      <stop offset="0.0" stop-color="#999999"/>
      <stop offset="1.0" stop-color="#333333"/>
    </radialGradient>
    <radialGradient cx="0" cy="0" gradientTransform="matrix(0.0273, 0.0, 0.0, 0.0273, 57.8, 57.7)" gradientUnits="userSpaceOnUse" id="gradient35" r="819.2" spreadMethod="pad">
      <stop offset="0.2" stop-color="#ff1919"/>
      <stop offset="0.66" stop-color="#6b0101"/>
    </radialGradient>
    <radialGradient cx="0" cy="0" gradientTransform="matrix(0.0057, 0.0, 0.0, 0.0057, 18.3, 53.8)" gradientUnits="userSpaceOnUse" id="gradient36" r="819.2" spreadMethod="pad">
      <stop offset="0.0" stop-color="#999999"/>
      <stop offset="1.0" stop-color="#333333"/>
    </radialGradient>
    <radialGradient cx="0" cy="0" gradientTransform="matrix(0.008, 0.0, 0.0, 0.008, 77.4, 63.55)" gradientUnits="userSpaceOnUse" id="gradient37" r="819.2" spreadMethod="pad">
      <stop offset="0.0" stop-color="#999999"/>
      <stop offset="1.0" stop-color="#333333"/>
    </radialGradient>
  </defs>
</svg>
