<?xml version="1.0" encoding="UTF-8" standalone="no"?>
<svg xmlns:xlink="http://www.w3.org/1999/xlink" height="196.25px" width="183.05px" xmlns="http://www.w3.org/2000/svg">
  <g transform="matrix(1.0, 0.0, 0.0, 1.0, 0.05, 0.05)">
    <path d="M172.45 69.3 Q172.95 72.7 172.95 76.55 L172.85 79.8 Q172.65 84.0 171.7 87.7 L171.1 87.6 Q171.05 81.95 168.1 77.0 166.3 73.85 163.7 71.8 L167.0 72.5 167.1 72.5 172.45 69.3" fill="#434343" fill-rule="evenodd" stroke="none"/>
    <path d="M151.1 74.5 L153.1 74.65 Q158.3 75.6 160.95 80.75 162.25 83.25 162.6 86.15 162.85 88.0 162.6 90.0 L162.25 92.25 Q160.9 98.65 156.25 102.55 L154.85 103.6 Q152.05 105.5 149.1 105.7 L146.5 105.55 145.5 105.35 144.6 104.6 144.9 104.65 Q146.65 104.95 148.35 104.65 150.7 104.25 152.95 102.7 L154.2 101.8 Q158.55 98.05 159.85 92.0 L160.2 89.7 Q160.45 87.7 160.15 85.85 159.8 83.3 158.65 81.0 156.1 76.15 151.25 75.3 L149.7 75.15 Q150.35 74.8 151.1 74.5" fill="#042c48" fill-rule="evenodd" stroke="none"/>
    <path d="M145.5 105.35 L146.5 105.55 149.1 105.7 Q152.05 105.5 154.85 103.6 L156.25 102.55 Q160.9 98.65 162.25 92.25 L162.6 90.0 Q162.85 88.0 162.6 86.15 162.25 83.25 160.95 80.75 158.3 75.6 153.1 74.65 L151.1 74.5 Q154.1 73.35 157.3 73.95 162.85 74.9 165.75 80.4 167.35 83.5 167.6 86.95 L167.55 90.65 167.15 92.85 Q165.65 99.8 160.65 103.95 L160.6 104.0 Q157.7 106.5 154.6 107.15 L150.15 107.25 Q147.55 106.75 145.5 105.35" fill="#05416b" fill-rule="evenodd" stroke="none"/>
    <path d="M119.15 68.45 L119.2 68.45 119.25 68.5 137.4 71.6 137.5 71.6 152.25 74.1 138.75 74.1 122.7 74.1 117.75 73.95 111.4 73.4 100.2 68.45 119.15 68.45" fill="#4d4d4d" fill-rule="evenodd" stroke="none"/>
    <path d="M145.6 144.15 L140.8 138.4 140.95 138.4 143.35 138.05 Q146.5 137.5 148.65 136.5 L148.7 136.5 149.35 136.3 145.6 144.15 M107.85 176.8 L105.4 182.0 88.7 182.0 93.0 171.6 94.4 171.6 97.85 171.6 103.05 165.65 100.35 173.65 96.15 175.15 107.85 176.8 M17.05 60.15 L4.5 48.75 14.8 27.25 25.1 43.75 34.65 58.0 42.15 64.9 44.85 65.65 48.35 60.8 44.85 65.65 42.15 64.9 44.35 61.35 44.35 61.4 44.75 60.95 44.85 60.8 48.35 60.8 48.35 60.75 47.55 58.2 48.7 54.55 41.05 41.85 35.8 41.05 34.65 39.65 32.5 36.9 31.75 36.0 30.4 34.2 28.2 31.45 22.9 24.85 46.4 18.95 55.0 8.95 Q83.9 16.6 100.3 33.35 L104.95 38.55 Q114.45 50.4 118.55 66.2 L119.15 68.45 100.2 68.45 95.9 66.55 93.15 66.45 92.75 66.45 93.15 66.45 95.9 66.55 100.2 68.45 100.5 81.65 100.55 81.65 111.6 83.65 112.0 83.8 126.2 88.85 131.35 90.7 133.15 91.3 121.35 88.9 Q120.8 94.5 119.65 100.4 L79.15 84.35 119.65 100.4 118.5 105.5 118.35 106.2 118.1 107.15 117.2 110.6 113.7 121.4 105.55 135.5 101.85 133.15 102.1 130.75 102.5 124.9 103.15 117.25 103.5 113.3 102.5 112.5 96.0 129.7 91.65 127.1 91.7 125.7 92.3 111.45 92.6 104.65 91.95 104.15 86.35 123.75 82.95 121.75 83.15 119.45 83.25 117.15 Q83.65 103.35 76.9 94.25 L74.1 90.85 79.15 84.35 92.5 66.65 88.25 66.75 68.45 93.0 68.4 93.0 64.45 98.3 Q63.5 93.9 61.15 90.75 59.6 88.55 57.35 87.1 L84.0 52.95 86.85 54.8 88.25 66.75 86.85 54.8 84.0 52.95 57.35 87.1 Q55.25 85.65 52.7 84.75 L48.85 84.75 45.05 84.75 44.4 84.75 45.05 84.75 48.85 84.75 Q47.0 85.6 45.05 84.75 L44.7 85.05 Q49.5 85.95 53.4 89.7 L55.25 91.95 Q61.05 99.1 61.05 109.25 61.05 119.4 55.25 126.6 L53.4 128.8 Q48.45 133.55 42.1 133.85 L42.0 133.85 41.5 133.85 Q38.15 133.85 35.25 132.65 L35.25 132.55 Q33.25 131.75 31.4 130.4 L31.3 130.35 Q29.8 129.15 28.45 127.55 L27.65 126.6 26.15 124.6 24.5 121.55 25.8 123.4 26.7 124.5 Q28.25 126.15 29.95 127.2 L31.3 128.0 Q33.95 129.25 37.0 129.25 L37.4 129.25 Q43.65 129.05 48.2 123.4 52.8 117.65 52.8 109.45 52.8 101.2 48.2 95.45 43.65 89.8 37.4 89.65 L37.0 89.65 Q33.95 89.65 31.3 90.85 29.85 91.6 28.6 92.65 27.1 93.85 25.8 95.45 L24.7 97.05 23.9 98.3 24.5 97.1 Q25.4 95.0 26.8 93.05 L27.65 91.95 Q29.0 90.1 30.55 88.85 L30.85 88.55 31.3 88.25 Q35.8 84.75 41.5 84.75 L34.6 72.9 31.6 67.25 26.05 56.95 21.3 48.25 25.1 43.75 21.3 48.25 26.05 56.95 17.05 60.15 M68.8 8.95 L70.95 4.5 83.75 8.95 83.65 8.95 84.4 9.15 85.15 9.4 85.15 9.45 68.8 8.95 M167.1 68.45 L167.0 72.5 163.7 71.8 156.1 70.25 Q159.0 70.45 157.9 69.9 L167.1 68.45 M83.65 8.95 L82.35 8.95 83.65 8.95 M92.6 66.55 L92.5 66.65 92.6 66.55 92.75 66.45 93.45 65.45 92.6 66.55 M92.5 66.65 L95.9 66.55 92.5 66.65 M100.55 81.65 L121.35 88.9 100.55 81.65 M55.0 8.95 L58.5 36.15 84.0 52.95 58.5 36.15 55.0 8.95 M42.0 84.75 L41.5 84.75 42.0 84.75 44.7 85.05 44.4 84.75 42.0 84.75 M24.55 105.35 Q25.1 102.55 26.65 100.25 L27.45 99.15 Q28.65 97.65 30.0 96.75 L31.3 95.95 Q32.95 95.15 34.85 95.05 L35.35 95.05 35.7 95.05 Q38.35 95.1 40.5 96.55 42.0 97.55 43.3 99.15 L44.7 101.2 Q46.65 104.65 46.65 109.1 46.65 112.3 45.6 115.0 L45.55 115.25 44.7 117.0 43.3 119.0 Q41.35 121.55 38.9 122.5 L35.7 123.15 35.35 123.15 33.3 122.95 31.3 122.3 Q29.8 121.55 28.55 120.2 L27.45 119.0 Q26.2 117.55 25.45 115.75 24.45 113.35 24.2 110.5 L24.15 109.1 Q24.15 107.1 24.55 105.35 L32.9 107.05 34.55 112.4 45.55 115.25 34.55 112.4 32.9 107.05 24.55 105.35 M46.4 18.95 L31.75 36.0 46.4 18.95 M58.8 133.05 L59.4 132.4 Q62.85 128.95 65.8 124.55 L66.5 123.65 68.7 119.8 73.65 123.4 69.7 139.35 73.05 135.65 76.95 131.45 81.5 134.7 78.85 145.45 79.65 145.9 81.8 143.45 86.35 138.25 90.05 141.05 87.95 151.5 88.5 151.85 90.9 149.0 94.75 144.5 98.2 147.0 97.55 157.85 89.7 170.95 81.55 166.7 76.0 177.1 63.3 177.1 70.8 161.05 50.6 150.45 47.0 141.35 50.75 139.35 Q54.6 137.0 58.0 133.85 L58.8 133.05 M78.85 145.45 L69.7 139.35 78.85 145.45 M70.8 161.05 L81.55 166.7 70.8 161.05 M69.7 139.35 L59.4 132.4 69.7 139.35 M126.35 125.5 L124.8 129.3 123.35 132.8 123.2 133.15 123.1 133.55 123.0 133.6 122.95 133.65 122.9 133.85 122.05 135.8 121.95 136.0 121.95 136.1 121.75 136.45 118.9 126.75 118.9 126.7 120.35 123.55 126.35 125.5 M118.0 146.65 L119.65 148.1 115.7 157.45 115.65 151.8 118.0 146.65 M126.15 151.85 L128.4 146.65 130.15 148.0 126.75 157.1 126.15 151.85 M137.25 154.55 L138.7 154.55 139.15 156.7 137.65 156.8 137.25 154.55 M102.2 154.55 L107.1 146.65 108.7 148.15 103.35 157.8 103.35 157.75 101.35 155.75 103.35 157.75 100.8 157.8 100.65 157.8 100.65 155.75 101.35 155.75 102.2 154.55 M97.55 157.85 L88.5 151.85 97.55 157.85 M94.4 171.6 L96.15 175.15 94.4 171.6 M87.95 151.5 L79.65 145.9 87.95 151.5" fill="#666666" fill-rule="evenodd" stroke="none"/>
    <path d="M140.2 138.45 L139.55 142.55 138.95 142.45 137.1 146.8 136.5 146.0 137.7 138.6 138.45 138.6 140.2 138.45" fill="#707070" fill-rule="evenodd" stroke="none"/>
    <path d="M139.55 142.55 L141.55 142.65 143.0 146.75 143.0 146.8 142.2 156.65 139.15 156.7 140.25 146.8 138.95 142.45 139.55 142.55 M86.35 123.75 L91.95 104.15 92.6 104.65 92.3 111.45 88.75 123.75 86.35 123.75 M96.0 129.7 L102.5 112.5 103.5 113.3 103.15 117.25 100.2 125.25 98.45 129.7 96.0 129.7 M105.55 135.5 L113.7 121.4 115.8 122.05 113.8 125.6 111.45 129.65 108.1 135.5 105.55 135.5 M73.65 123.4 L76.1 123.4 75.75 124.85 74.75 129.05 73.05 135.65 69.7 139.35 73.65 123.4 M78.85 145.45 L81.5 134.7 83.9 134.7 83.35 137.05 81.8 143.45 79.65 145.9 78.85 145.45 M118.0 146.65 L123.7 146.65 125.7 148.1 119.65 148.1 125.7 148.1 126.15 151.85 126.75 157.1 130.15 148.0 128.4 146.65 134.9 146.65 135.9 147.95 135.9 148.0 137.25 154.55 137.65 156.8 137.7 156.85 126.75 157.2 115.7 157.45 103.35 157.8 108.7 148.15 107.1 146.65 113.7 146.65 115.6 148.15 115.65 151.8 115.7 157.45 119.65 148.1 118.0 146.65 M92.25 142.55 L90.9 149.0 88.5 151.85 87.95 151.5 90.05 141.05 92.5 141.05 92.25 142.55 M100.6 147.0 L100.65 152.25 100.65 154.3 100.65 154.55 100.65 155.75 100.65 157.8 97.55 157.85 98.2 147.0 100.6 147.0 M135.9 148.0 L130.15 148.0 135.9 148.0 M143.0 146.8 L140.25 146.8 143.0 146.8 M115.6 148.15 L108.7 148.15 115.6 148.15 M126.75 157.1 L126.75 157.2 126.75 157.1" fill="#a1a1a1" fill-rule="evenodd" stroke="none"/>
    <path d="M68.7 119.8 L71.2 119.8 71.4 120.0 76.1 123.4 73.65 123.4 68.7 119.8 M81.5 134.7 L76.95 131.45 79.4 131.45 83.9 134.7 81.5 134.7 M94.75 144.5 L97.15 144.5 100.6 147.0 98.2 147.0 94.75 144.5 M86.35 138.25 L88.75 138.25 92.5 141.05 90.05 141.05 86.35 138.25" fill="#bdbdbd" fill-rule="evenodd" stroke="none"/>
    <path d="M0.85 0.0 L3.15 0.0 22.9 24.85 20.45 25.45 22.9 24.85 28.2 31.45 25.0 31.45 28.2 31.45 30.4 34.2 31.75 36.0 32.5 36.9 29.25 36.9 32.5 36.9 34.65 39.65 35.8 41.05 36.9 42.45 39.1 45.15 46.3 54.15 42.45 54.15 35.55 45.15 39.1 45.15 35.55 45.15 33.4 42.45 31.3 39.7 31.3 39.65 29.25 36.9 27.1 34.2 30.4 34.2 27.1 34.2 25.0 31.45 20.45 25.45 0.85 0.0 M117.35 0.0 L119.65 0.0 126.75 8.95 124.15 8.95 117.35 0.0 M34.65 39.65 L31.3 39.65 34.65 39.65 M36.9 42.45 L33.4 42.45 36.9 42.45" fill="#999999" fill-rule="evenodd" stroke="none"/>
    <path d="M68.0 196.15 L59.55 196.15 78.65 182.05 76.0 177.1 81.55 166.7 89.7 170.95 93.0 171.6 88.7 182.0 81.35 187.0 68.0 196.15 M38.2 184.4 L22.65 182.4 10.25 170.0 4.35 147.35 6.25 143.1 32.55 137.4 32.45 135.8 50.75 139.35 47.0 141.35 50.6 150.45 70.8 161.05 63.3 177.1 38.2 166.5 31.25 163.7 27.9 163.3 25.1 148.6 24.55 146.0 32.9 143.5 32.55 137.4 32.9 143.5 24.55 146.0 25.1 148.6 27.9 163.3 28.55 166.4 27.75 167.2 27.75 170.6 29.65 171.85 29.65 174.95 29.65 178.1 34.65 181.15 34.65 182.25 38.2 184.4 M2.05 88.25 L1.45 84.95 12.8 78.15 16.9 77.2 34.6 72.9 41.5 84.75 Q35.8 84.75 31.3 88.25 L30.85 88.55 30.55 88.85 30.5 88.7 28.55 85.65 26.5 82.6 2.05 88.25 M0.0 1.6 L0.85 0.0 20.45 25.45 25.0 31.45 23.75 35.8 25.0 31.45 27.1 34.2 29.25 36.9 27.9 41.75 29.25 36.9 31.3 39.65 31.3 39.7 33.4 42.45 32.0 47.65 29.95 44.75 27.9 41.75 25.85 38.8 27.1 34.2 25.85 38.8 23.75 35.8 0.65 2.45 0.0 1.6 M116.2 2.25 L116.2 2.15 117.35 0.0 124.15 8.95 122.4 8.95 120.2 8.6 116.2 2.25 M120.45 8.95 L120.2 8.6 122.4 8.95 120.45 8.95 M35.8 41.05 L41.05 41.85 48.7 54.55 47.55 58.2 46.3 54.15 39.1 45.15 36.9 42.45 35.8 41.05 M42.15 64.9 L34.65 58.0 34.85 51.8 34.05 50.65 32.0 47.65 33.4 42.45 35.55 45.15 34.05 50.65 35.55 45.15 42.45 54.15 44.85 60.8 44.75 60.95 44.35 61.4 44.35 61.35 42.15 64.9 M29.95 44.75 L31.3 39.65 29.95 44.75 M1.45 84.95 L35.9 76.65 1.45 84.95 M44.35 61.35 L44.75 60.95 44.35 61.35 M36.8 152.5 L36.1 152.15 35.95 161.55 40.1 163.3 40.15 162.65 40.4 154.05 37.25 152.65 37.0 152.6 36.8 152.5 M4.35 147.35 L15.0 151.35 17.95 167.9 22.7 167.9 23.25 170.85 29.65 174.95 23.25 170.85 22.7 167.9 17.95 167.9 15.0 151.35 4.35 147.35 M25.1 148.6 L19.4 150.15 15.0 151.35 19.4 150.15 25.1 148.6 M19.4 150.15 L22.7 167.9 19.4 150.15 M44.45 155.65 L42.75 154.9 42.75 154.95 41.85 154.55 41.7 164.0 46.0 165.8 46.05 165.05 46.1 165.05 46.1 164.5 46.35 156.45 44.45 155.65 M48.5 157.35 L47.55 156.95 47.45 166.45 47.5 166.5 51.8 168.35 51.85 167.5 51.9 167.5 51.9 167.2 52.15 158.85 49.6 157.8 49.3 157.7 48.5 157.3 48.5 157.35 M76.5 177.1 L76.0 177.1 76.5 177.1 M81.35 187.0 L78.65 182.05 81.35 187.0" fill="#4c4c4c" fill-rule="evenodd" stroke="none"/>
    <path d="M59.55 196.15 L51.15 196.15 41.55 184.4 38.2 184.4 34.65 182.25 34.65 181.15 34.35 174.55 29.65 171.85 34.35 174.55 34.65 181.15 29.65 178.1 29.65 174.95 29.65 171.85 27.75 170.6 27.75 167.2 28.55 166.4 27.9 163.3 31.25 163.7 38.2 166.5 63.3 177.1 76.0 177.1 71.4 185.65 59.3 185.65 48.5 185.65 45.15 182.25 41.55 184.4 45.15 182.25 39.8 176.75 38.2 166.5 39.8 176.75 45.15 182.25 48.5 185.65 59.3 185.65 71.4 185.65 76.0 177.1 78.65 182.05 59.55 196.15 M6.25 143.1 L9.5 135.55 14.65 123.75 17.05 123.2 17.4 123.1 13.5 120.5 16.3 119.85 12.35 117.3 15.15 116.65 11.2 114.05 14.0 113.4 10.05 110.85 12.85 110.2 8.95 107.55 11.75 106.95 7.8 104.3 10.6 103.7 6.6 101.1 9.45 100.5 5.5 97.9 8.3 97.2 4.35 94.65 7.15 94.0 3.2 91.45 6.0 90.8 2.05 88.25 26.5 82.6 28.55 85.65 30.5 88.7 30.55 88.85 Q29.0 90.1 27.65 91.95 L26.8 93.05 Q25.4 95.0 24.5 97.1 L23.9 98.3 Q23.15 99.55 22.7 100.95 21.95 102.75 21.65 104.7 21.3 106.45 21.25 108.3 L21.15 109.45 21.3 111.8 21.85 115.2 22.9 118.4 20.35 118.9 22.9 118.4 Q23.5 120.05 24.5 121.55 L26.15 124.6 27.65 126.6 28.45 127.55 Q29.8 129.15 31.3 130.35 L31.4 130.4 Q33.25 131.75 35.25 132.55 L35.25 132.65 Q38.15 133.85 41.5 133.85 L42.0 133.85 42.1 133.85 54.25 133.85 58.8 133.05 58.0 133.85 Q54.6 137.0 50.75 139.35 L32.45 135.8 32.55 137.4 6.25 143.1 M16.9 77.2 L18.2 70.55 16.5 70.95 14.65 68.55 17.05 60.15 26.05 56.95 31.6 67.25 34.6 72.9 16.9 77.2 M14.8 27.25 L0.05 3.55 0.0 1.6 0.65 2.45 0.05 3.55 0.65 2.45 23.75 35.8 25.85 38.8 27.9 41.75 29.95 44.75 32.0 47.65 34.05 50.65 34.85 51.8 34.65 58.0 25.1 43.75 14.8 27.25 M117.8 8.2 L116.05 4.65 116.2 2.25 120.2 8.6 120.45 8.95 118.15 8.95 117.8 8.2 120.2 8.6 117.8 8.2 M15.5 88.55 L6.0 90.8 15.5 88.55 M7.15 94.0 L15.5 92.1 7.15 94.0 M15.5 95.6 L8.3 97.2 15.5 95.6 M27.6 68.25 L31.6 67.25 27.6 68.25 M18.2 70.55 L27.25 68.4 18.2 70.55 M29.4 64.7 L14.65 68.55 29.4 64.7 M26.8 93.05 L15.95 95.5 26.8 93.05 M15.95 92.0 L30.5 88.7 15.95 92.0 M28.55 85.65 L15.95 88.5 28.55 85.65 M15.95 105.95 L21.65 104.7 15.95 105.95 M15.95 109.5 L21.25 108.3 15.95 109.5 M15.95 102.5 L22.7 100.95 15.95 102.5 M20.35 115.45 L21.85 115.2 20.35 115.45 M19.7 129.55 L28.45 127.55 19.7 129.55 M25.8 131.65 L31.4 130.4 25.8 131.65 M35.25 132.65 L32.0 133.7 32.45 135.8 32.0 133.7 35.25 132.65 M14.65 123.75 L18.55 126.35 15.8 126.95 18.2 128.55 15.8 126.95 18.55 126.35 14.65 123.75 M15.5 99.05 L9.45 100.5 15.5 99.05 M15.5 113.05 L14.0 113.4 15.5 113.05 M20.05 115.5 L15.15 116.65 20.05 115.5 M17.75 123.05 L17.05 123.2 17.75 123.05 17.4 123.1 17.75 123.05 24.5 121.55 17.75 123.05 M16.3 119.85 L20.05 119.0 16.3 119.85 M12.85 110.2 L15.5 109.55 12.85 110.2 M15.5 106.1 L11.75 106.95 15.5 106.1 M15.5 102.6 L10.6 103.7 15.5 102.6 M15.95 112.95 L21.3 111.8 15.95 112.95 M26.15 124.6 L18.55 126.35 26.15 124.6 M9.5 135.55 L20.85 132.75 9.5 135.55 M31.25 163.7 L28.55 166.4 31.25 163.7 M59.3 185.65 L63.3 177.1 59.3 185.65 M24.5 97.1 L15.95 99.05 24.5 97.1" fill="#333333" fill-rule="evenodd" stroke="none"/>
    <path d="M64.45 98.3 L68.4 93.0 68.45 93.0 88.25 66.75 92.5 66.65 79.15 84.35 74.1 90.85 76.9 94.25 72.0 100.15 71.35 98.35 71.35 98.3 64.45 98.3 M115.8 122.05 L120.35 123.55 118.9 126.7 113.8 125.6 115.8 122.05" fill="#747474" fill-rule="evenodd" stroke="none"/>
    <path d="M92.6 66.55 L93.45 65.45 92.75 66.45 92.6 66.55" fill="#959595" fill-rule="evenodd" stroke="none"/>
    <path d="M111.4 73.4 L111.6 83.65 100.55 81.65 100.5 81.65 100.2 68.45 111.4 73.4" fill="#5b5b5b" fill-rule="evenodd" stroke="none"/>
    <path d="M47.55 58.2 L48.35 60.75 48.35 60.8 44.85 60.8 42.45 54.15 46.3 54.15 47.55 58.2" fill="#7f7f7f" fill-rule="evenodd" stroke="none"/>
    <path d="M105.4 182.0 L97.5 187.0 82.95 196.15 68.0 196.15 81.35 187.0 88.7 182.0 105.4 182.0 M97.5 187.0 L81.35 187.0 97.5 187.0" fill="#595959" fill-rule="evenodd" stroke="none"/>
    <path d="M131.55 172.8 L128.7 175.65 117.05 178.1 131.55 172.8 M117.0 178.1 L107.85 176.8 96.15 175.15 100.35 173.65 117.0 178.1" fill="#7e7e7e" fill-rule="evenodd" stroke="none"/>
    <path d="M36.1 152.15 L36.8 152.5 36.6 161.05 35.95 161.55 36.6 161.05 36.6 161.15 40.15 162.65 40.1 163.3 35.95 161.55 36.1 152.15 M46.05 165.05 L46.0 165.8 41.7 164.0 41.85 154.55 42.75 154.95 42.55 163.55 46.05 165.05 M47.5 166.5 L47.45 166.45 47.55 156.95 48.5 157.35 48.35 165.95 47.5 166.5 48.35 165.95 51.85 167.5 51.8 168.35 47.5 166.5 M41.7 164.0 L42.55 163.55 41.7 164.0" fill="#2e467b" fill-rule="evenodd" stroke="none"/>
    <path d="M42.75 154.95 L42.75 154.9 44.45 155.65 42.75 154.95 M46.1 164.5 L46.1 165.05 46.05 165.05 46.1 164.5 M48.5 157.35 L48.5 157.3 49.3 157.7 48.5 157.35 M51.9 167.2 L51.9 167.5 51.85 167.5 51.9 167.2" fill="#ff0000" fill-rule="evenodd" stroke="none"/>
    <path d="M126.75 8.95 L132.85 8.95 142.55 8.95 Q163.0 16.65 173.25 31.05 L176.5 36.2 Q183.2 48.35 182.95 63.05 L172.45 69.3 167.1 72.5 167.0 72.5 167.1 68.45 166.95 64.45 166.85 63.1 166.8 62.35 166.85 63.1 166.95 64.45 167.1 68.45 157.9 69.9 152.25 70.85 152.25 72.9 152.25 74.1 137.5 71.6 137.4 71.6 119.25 68.5 119.2 68.45 119.15 68.45 118.55 66.2 Q114.45 50.4 104.95 38.55 L116.2 38.55 Q125.55 48.1 126.9 58.3 L136.35 61.45 Q134.4 49.8 129.35 41.2 126.7 36.5 123.1 32.4 L122.9 32.15 Q110.1 17.6 86.1 9.75 L85.6 9.55 85.15 9.45 85.6 9.55 86.1 9.75 Q110.1 17.6 122.9 32.15 L123.1 32.4 Q126.7 36.5 129.35 41.2 134.4 49.8 136.35 61.45 L126.9 58.3 Q125.55 48.1 116.2 38.55 L104.95 38.55 100.3 33.35 Q83.9 16.6 55.0 8.95 L68.8 8.95 85.15 9.45 85.15 9.4 84.4 9.15 83.65 8.95 83.75 8.95 84.4 9.15 83.75 8.95 70.95 4.5 91.7 4.05 117.8 8.2 118.15 8.95 120.45 8.95 122.4 8.95 124.15 8.95 126.75 8.95 M142.2 156.65 L134.5 168.2 134.45 168.3 134.45 168.35 132.7 170.2 132.05 170.3 131.55 172.8 117.05 178.1 117.0 178.1 100.35 173.65 103.05 165.65 97.85 171.6 94.4 171.6 93.0 171.6 89.7 170.95 97.55 157.85 100.65 157.8 100.8 157.8 103.35 157.75 103.35 157.8 115.7 157.45 126.75 157.2 137.7 156.85 137.65 156.8 139.15 156.7 142.2 156.65 M134.6 14.2 Q132.05 12.85 129.35 11.75 126.4 10.35 123.1 9.15 L122.4 8.95 123.1 9.15 Q126.4 10.35 129.35 11.75 132.05 12.85 134.6 14.2 L132.75 14.2 129.3 14.2 125.8 14.2 122.3 14.2 118.85 14.2 115.35 14.2 Q119.45 16.2 123.1 18.4 L129.35 22.75 Q137.9 29.4 143.25 38.0 147.05 44.1 149.2 51.15 L149.8 53.05 150.5 55.75 151.15 59.4 151.55 61.75 151.8 63.65 151.85 64.5 151.8 64.5 151.85 64.75 152.1 67.3 152.1 67.75 152.15 68.0 152.15 68.1 152.15 68.25 152.15 68.3 152.25 70.85 152.15 68.3 152.15 68.25 152.15 68.1 152.15 68.0 152.1 67.75 152.1 67.3 151.85 64.75 151.8 64.5 151.85 64.5 151.85 64.55 151.85 64.75 151.85 64.55 151.85 64.5 154.85 64.05 158.3 63.55 161.75 63.05 165.0 62.6 166.8 62.35 165.95 55.75 165.25 52.4 Q159.4 27.2 134.6 14.2 M176.5 36.2 L172.7 36.4 Q178.85 45.7 178.6 57.2 L174.75 58.9 Q173.85 50.9 171.3 44.0 162.35 19.75 132.85 8.95 162.35 19.75 171.3 44.0 173.85 50.9 174.75 58.9 L178.6 57.2 Q178.85 45.7 172.7 36.4 L176.5 36.2 M136.75 109.65 L137.95 111.15 Q140.65 114.15 144.1 115.45 L144.0 115.5 143.35 117.4 143.25 117.7 142.6 119.6 141.95 121.2 141.9 121.4 140.65 124.6 139.25 128.15 138.75 129.5 138.45 130.1 137.8 131.65 136.3 135.15 135.9 136.0 134.75 138.6 134.35 139.45 133.9 140.45 133.45 141.45 132.75 142.85 131.7 142.85 132.75 142.85 132.5 143.4 131.7 142.85 123.75 137.8 121.7 136.5 121.75 136.45 121.95 136.1 121.95 136.0 122.05 135.8 122.9 133.85 122.95 133.65 123.0 133.6 123.1 133.55 123.25 133.15 123.2 133.15 123.25 133.15 123.1 133.55 123.2 133.15 123.35 132.8 124.8 129.3 126.35 125.5 128.85 118.45 Q124.3 113.4 124.6 108.35 L124.75 107.55 Q124.9 106.55 125.3 105.5 L118.5 105.5 119.65 100.4 Q120.8 94.5 121.35 88.9 L133.15 91.3 Q132.55 96.45 132.85 99.95 L132.9 100.4 Q133.15 102.15 133.55 103.45 L133.95 104.5 Q134.7 106.45 135.8 108.2 L136.75 109.65 M108.7 11.25 Q112.15 12.65 115.35 14.2 112.15 12.65 108.7 11.25 105.5 10.0 102.15 8.95 L118.15 8.95 102.15 8.95 Q105.5 10.0 108.7 11.25 L127.3 11.25 108.7 11.25 M151.85 64.75 L151.95 65.45 151.95 65.55 152.05 66.45 152.1 67.3 152.15 68.0 152.1 67.3 152.05 66.45 151.95 65.55 151.95 65.45 151.85 64.75 M151.85 64.55 L151.95 65.45 151.85 64.55 M113.7 121.4 L117.2 110.6 118.1 107.15 118.35 106.2 118.5 105.5 125.3 105.5 Q124.9 106.55 124.75 107.55 L124.6 108.35 Q124.3 113.4 128.85 118.45 L126.35 125.5 120.35 123.55 115.8 122.05 113.7 121.4 M132.9 100.4 L119.65 100.4 132.9 100.4 M121.95 136.1 L122.05 135.8 121.95 136.1 M132.05 170.3 L133.15 164.8 103.05 165.65 133.15 164.8 132.05 170.3 M103.35 157.8 L100.8 157.8 103.35 157.8" fill="url(#gradient0)" fill-rule="evenodd" stroke="none"/>
    <path d="M134.6 14.2 Q159.4 27.2 165.25 52.4 L165.95 55.75 166.8 62.35 165.0 62.6 164.55 58.35 163.7 53.15 163.15 50.65 161.45 45.45 163.15 50.65 163.7 53.15 164.55 58.35 165.0 62.6 161.75 63.05 161.6 60.9 160.75 55.75 Q160.1 52.3 159.1 49.05 L157.8 45.05 159.1 49.05 Q160.1 52.3 160.75 55.75 L161.6 60.9 161.75 63.05 158.3 63.55 154.85 64.05 151.85 64.5 151.8 63.65 151.55 61.75 151.15 59.4 150.5 55.75 149.8 53.05 149.2 51.15 Q147.05 44.1 143.25 38.0 137.9 29.4 129.35 22.75 L123.1 18.4 Q119.45 16.2 115.35 14.2 L118.85 14.2 Q121.05 15.35 123.1 16.65 126.45 18.6 129.35 20.95 133.65 24.2 137.1 28.05 133.65 24.2 129.35 20.95 126.45 18.6 123.1 16.65 121.05 15.35 118.85 14.2 L122.3 14.2 125.8 14.2 Q127.65 15.15 129.35 16.2 138.05 21.3 144.1 28.05 138.05 21.3 129.35 16.2 127.65 15.15 125.8 14.2 L129.3 14.2 132.75 14.2 134.6 14.2 M140.6 28.05 Q135.8 22.7 129.35 18.4 126.45 16.35 123.1 14.6 L122.3 14.2 123.1 14.6 Q126.45 16.35 129.35 18.4 135.8 22.7 140.6 28.05 M129.3 14.2 L129.35 14.25 Q150.2 25.2 157.7 44.7 150.2 25.2 129.35 14.25 L129.3 14.2 M137.25 28.25 Q141.5 33.0 144.4 38.6 147.55 44.45 149.2 51.15 147.55 44.45 144.4 38.6 141.5 33.0 137.25 28.25 M144.25 28.25 Q150.9 35.8 154.45 45.3 L155.7 49.2 157.25 55.75 158.05 60.55 158.3 63.55 158.05 60.55 157.25 55.75 155.7 49.2 154.45 45.3 Q150.9 35.8 144.25 28.25 M140.75 28.25 Q146.0 34.25 149.35 41.55 151.3 45.85 152.6 50.6 L153.75 55.75 154.6 60.9 154.85 64.05 154.6 60.9 153.75 55.75 152.6 50.6 Q151.3 45.85 149.35 41.55 146.0 34.25 140.75 28.25 M161.3 45.1 Q153.9 25.3 132.75 14.2 153.9 25.3 161.3 45.1" fill="url(#gradient1)" fill-rule="evenodd" stroke="none"/>
    <path d="M163.7 71.8 Q166.3 73.85 168.1 77.0 171.05 81.95 171.1 87.6 L170.85 91.05 170.5 93.15 Q168.55 102.1 161.6 107.4 154.6 112.7 146.6 111.35 L145.15 111.05 145.05 111.0 Q138.2 109.3 134.3 102.7 L132.85 99.95 Q132.55 96.45 133.15 91.3 L131.35 90.7 Q131.45 88.65 131.9 86.5 133.5 79.1 138.75 74.1 L152.25 74.1 152.25 72.9 152.25 70.85 157.9 69.9 Q159.0 70.45 156.1 70.25 L163.7 71.8 M145.5 105.35 Q147.55 106.75 150.15 107.25 L154.6 107.15 Q157.7 106.5 160.6 104.0 L160.65 103.95 Q165.65 99.8 167.15 92.85 L167.55 90.65 167.6 86.95 Q167.35 83.5 165.75 80.4 162.85 74.9 157.3 73.95 154.1 73.35 151.1 74.5 150.35 74.8 149.7 75.15 L149.35 75.35 146.75 77.2 145.8 78.05 Q144.15 79.65 142.95 81.6 L142.7 82.0 Q141.05 84.8 140.3 88.3 138.8 95.15 141.65 100.7 142.7 102.7 144.1 104.1 L144.6 104.6 145.5 105.35 M143.95 104.4 L144.6 104.6 143.95 104.4" fill="url(#gradient2)" fill-rule="evenodd" stroke="none"/>
    <path d="M171.7 87.7 L178.9 88.95 174.45 91.5 170.85 91.05 171.1 87.6 171.7 87.7" fill="url(#gradient3)" fill-rule="evenodd" stroke="none"/>
    <path d="M145.05 111.0 L145.15 111.05 146.6 111.35 Q154.6 112.7 161.6 107.4 168.55 102.1 170.5 93.15 L170.85 91.05 174.45 91.5 Q172.9 98.25 169.3 103.7 L169.15 103.9 Q167.65 106.2 165.75 108.25 L164.85 109.15 164.85 109.25 164.5 109.5 Q161.45 112.55 158.25 114.25 L158.15 114.3 157.3 114.7 156.4 115.1 153.05 116.1 149.55 116.4 Q146.6 116.4 144.1 115.45 140.65 114.15 137.95 111.15 L136.75 109.65 145.05 111.0" fill="url(#gradient4)" fill-rule="evenodd" stroke="none"/>
    <path d="M178.9 88.95 Q177.85 94.4 176.25 100.2 L176.15 100.5 Q174.05 107.75 171.25 115.6 L171.15 115.7 168.95 121.45 161.85 124.95 158.5 133.0 157.9 134.3 157.1 136.05 155.6 139.5 145.6 144.15 149.35 136.3 149.35 136.25 149.4 136.2 149.5 136.05 149.55 136.0 152.35 129.5 155.65 121.4 157.85 115.5 158.25 114.25 Q161.45 112.55 164.5 109.5 L164.85 109.25 164.85 109.15 165.75 108.25 Q167.65 106.2 169.15 103.9 L169.3 103.7 Q172.9 98.25 174.45 91.5 L178.9 88.95 M169.15 103.9 Q167.35 110.15 165.4 115.6 L163.25 121.45 161.85 124.95 163.25 121.45 165.4 115.6 Q167.35 110.15 169.15 103.9" fill="url(#gradient5)" fill-rule="evenodd" stroke="none"/>
    <path d="M145.05 111.0 L136.75 109.65 135.8 108.2 Q134.7 106.45 133.95 104.5 L133.55 103.45 Q133.15 102.15 132.9 100.4 L132.85 99.95 134.3 102.7 Q138.2 109.3 145.05 111.0 M111.4 73.4 L117.75 73.95 Q113.7 78.05 112.0 83.8 113.7 78.05 117.75 73.95 L122.7 74.1 138.75 74.1 Q133.5 79.1 131.9 86.5 131.45 88.65 131.35 90.7 L126.2 88.85 112.0 83.8 111.6 83.65 111.4 73.4 M122.7 74.1 Q119.7 77.05 118.05 80.9 L127.2 84.25 126.55 86.5 126.2 88.85 126.55 86.5 127.2 84.25 118.05 80.9 Q119.7 77.05 122.7 74.1" fill="url(#gradient6)" fill-rule="evenodd" stroke="none"/>
    <path d="M149.7 75.15 L151.25 75.3 Q156.1 76.15 158.65 81.0 159.8 83.3 160.15 85.85 160.45 87.7 160.2 89.7 L159.85 92.0 Q158.55 98.05 154.2 101.8 L152.95 102.7 Q150.7 104.25 148.35 104.65 146.65 104.95 144.9 104.65 L144.6 104.6 144.1 104.1 Q142.7 102.7 141.65 100.7 138.8 95.15 140.3 88.3 141.05 84.8 142.7 82.0 L142.95 81.6 Q144.15 79.65 145.8 78.05 L146.75 77.2 149.35 75.35 149.7 75.15" fill="url(#gradient7)" fill-rule="evenodd" stroke="none"/>
    <path d="M23.9 98.3 L24.7 97.05 25.8 95.45 Q27.1 93.85 28.6 92.65 29.85 91.6 31.3 90.85 33.95 89.65 37.0 89.65 L37.4 89.65 Q43.65 89.8 48.2 95.45 52.8 101.2 52.8 109.45 52.8 117.65 48.2 123.4 43.65 129.05 37.4 129.25 L37.0 129.25 Q33.95 129.25 31.3 128.0 L29.95 127.2 Q28.25 126.15 26.7 124.5 L25.8 123.4 24.5 121.55 Q23.5 120.05 22.9 118.4 L21.85 115.2 21.3 111.8 21.15 109.45 21.25 108.3 Q21.3 106.45 21.65 104.7 21.95 102.75 22.7 100.95 23.15 99.55 23.9 98.3 M24.55 105.35 Q24.15 107.1 24.15 109.1 L24.2 110.5 Q24.45 113.35 25.45 115.75 26.2 117.55 27.45 119.0 L28.55 120.2 Q29.8 121.55 31.3 122.3 L33.3 122.95 35.35 123.15 35.7 123.15 38.9 122.5 Q41.35 121.55 43.3 119.0 L44.7 117.0 45.55 115.25 45.6 115.0 Q46.65 112.3 46.65 109.1 46.65 104.65 44.7 101.2 L43.3 99.15 Q42.0 97.55 40.5 96.55 38.35 95.1 35.7 95.05 L35.35 95.05 34.85 95.05 Q32.95 95.15 31.3 95.95 L30.0 96.75 Q28.65 97.65 27.45 99.15 L26.65 100.25 Q25.1 102.55 24.55 105.35" fill="url(#gradient8)" fill-rule="evenodd" stroke="none"/>
    <path d="M57.35 87.1 Q59.6 88.55 61.15 90.75 63.5 93.9 64.45 98.3 L71.35 98.3 71.35 98.35 72.0 100.15 72.4 101.35 Q73.35 105.05 73.35 109.25 L73.35 109.65 Q73.3 114.3 72.0 118.4 L71.4 120.0 71.2 119.8 68.7 119.8 66.5 123.65 65.8 124.55 Q62.85 128.95 59.4 132.4 L58.8 133.05 54.25 133.85 42.1 133.85 Q48.45 133.55 53.4 128.8 L55.25 126.6 Q61.05 119.4 61.05 109.25 61.05 99.1 55.25 91.95 L53.4 89.7 Q49.5 85.95 44.7 85.05 L42.0 84.75 44.4 84.75 44.7 85.05 45.05 84.75 Q47.0 85.6 48.85 84.75 L52.7 84.75 Q55.25 85.65 57.35 87.1" fill="url(#gradient9)" fill-rule="evenodd" stroke="none"/>
    <path d="M76.9 94.25 Q83.65 103.35 83.25 117.15 L83.15 119.45 72.0 118.4 Q73.3 114.3 73.35 109.65 L73.35 109.25 Q73.35 105.05 72.4 101.35 L72.0 100.15 76.9 94.25 M103.15 117.25 L102.5 124.9 101.7 125.0 100.2 125.25 103.15 117.25" fill="url(#gradient10)" fill-rule="evenodd" stroke="none"/>
    <path d="M83.15 119.45 L82.95 121.75 86.35 123.75 88.75 123.75 92.3 111.45 91.7 125.7 91.65 127.1 96.0 129.7 98.45 129.7 100.2 125.25 101.7 125.0 102.5 124.9 102.1 130.75 101.85 133.15 105.55 135.5 108.1 135.5 111.45 129.65 113.8 125.6 118.9 126.7 118.9 126.75 121.75 136.45 121.7 136.5 123.75 137.8 131.7 142.85 132.5 143.4 132.75 142.85 134.6 142.95 135.25 145.35 134.6 142.95 133.9 140.45 134.35 139.45 136.0 145.35 136.5 146.0 137.1 146.8 138.7 154.55 137.25 154.55 135.9 148.0 135.9 147.95 134.9 146.65 128.4 146.65 126.15 151.85 125.7 148.1 123.7 146.65 118.0 146.65 115.65 151.8 115.6 148.15 113.7 146.65 107.1 146.65 102.2 154.55 100.65 154.55 100.65 154.3 100.65 152.25 100.6 147.0 97.15 144.5 94.75 144.5 90.9 149.0 92.25 142.55 Q116.45 145.8 131.7 142.85 116.45 145.8 92.25 142.55 L92.5 141.05 88.75 138.25 86.35 138.25 81.8 143.45 83.35 137.05 83.9 134.7 79.4 131.45 76.95 131.45 73.05 135.65 74.75 129.05 75.75 124.85 76.1 123.4 71.4 120.0 72.0 118.4 83.15 119.45 M102.1 130.75 Q96.75 131.15 91.3 130.9 L82.95 130.3 77.05 129.5 74.75 129.05 77.05 129.5 82.95 130.3 91.3 130.9 Q96.75 131.15 102.1 130.75 M132.5 143.4 L132.45 143.5 132.5 143.55 132.5 143.4 M75.75 124.85 L82.95 125.55 88.25 125.75 82.95 125.55 75.75 124.85 M91.7 125.7 L88.5 125.75 91.7 125.7 M112.25 129.5 L111.45 129.65 112.25 129.5 M123.75 137.8 Q104.55 140.95 83.35 137.05 104.55 140.95 123.75 137.8" fill="url(#gradient11)" fill-rule="evenodd" stroke="none"/>
    <path d="M36.6 161.05 L36.8 152.5 37.0 152.6 37.25 152.65 40.4 154.05 40.15 162.65 36.6 161.15 36.6 161.05 M44.45 155.65 L46.35 156.45 46.1 164.5 46.05 165.05 42.55 163.55 42.75 154.95 44.45 155.65 M48.35 165.95 L48.5 157.35 49.3 157.7 49.6 157.8 52.15 158.85 51.9 167.2 51.85 167.5 48.35 165.95" fill="url(#gradient12)" fill-rule="evenodd" stroke="none"/>
    <path d="M140.8 138.4 L140.2 138.45 138.45 138.6 137.7 138.6 136.8 138.6 134.75 138.6 135.9 136.0 136.3 135.15 138.45 135.15 143.35 134.7 Q147.0 134.2 150.5 132.8 147.0 134.2 143.35 134.7 L138.45 135.15 136.3 135.15 137.8 131.65 138.45 130.1 138.75 129.5 139.25 128.15 140.65 124.6 141.9 121.4 141.95 121.2 143.35 121.2 Q150.1 121.2 156.2 118.9 150.1 121.2 143.35 121.2 L141.95 121.2 142.6 119.6 143.25 117.7 143.35 117.4 144.0 115.5 144.1 115.45 Q146.6 116.4 149.55 116.4 L153.05 116.1 156.4 115.1 157.3 114.7 158.15 114.3 158.25 114.25 157.85 115.5 155.65 121.4 152.35 129.5 149.55 136.0 149.5 136.05 149.4 136.2 149.35 136.2 149.35 136.25 149.35 136.3 148.7 136.5 148.65 136.5 Q146.5 137.5 143.35 138.05 L140.95 138.4 140.8 138.4 M154.9 122.35 Q149.4 124.45 143.35 124.6 L140.65 124.6 143.35 124.6 Q149.4 124.45 154.9 122.35 M151.95 129.35 Q147.8 130.9 143.35 131.45 L138.45 131.65 137.8 131.65 138.45 131.65 143.35 131.45 Q147.8 130.9 151.95 129.35 M153.45 125.9 Q148.6 127.7 143.35 128.05 L139.25 128.15 143.35 128.05 Q148.6 127.7 153.45 125.9 M149.55 136.0 L149.4 136.1 148.7 136.5 149.4 136.1 149.55 136.0 M149.4 136.2 L149.4 136.1 149.4 136.2" fill="url(#gradient13)" fill-rule="evenodd" stroke="none"/>
    <path d="M134.75 138.6 L136.8 138.6 137.7 138.6 136.5 146.0 136.0 145.35 134.35 139.45 134.75 138.6" fill="url(#gradient14)" fill-rule="evenodd" stroke="none"/>
    <path d="M132.75 142.85 L133.45 141.45 133.9 140.45 134.6 142.95 132.75 142.85 M100.65 154.55 L102.2 154.55 101.35 155.75 100.65 155.75 100.65 154.55" fill="url(#gradient15)" fill-rule="evenodd" stroke="none"/>
    <path d="M138.7 154.55 L137.1 146.8 138.95 142.45 140.25 146.8 139.15 156.7 138.7 154.55" fill="url(#gradient16)" fill-rule="evenodd" stroke="none"/>
    <path d="M126.75 8.95 L132.85 8.95 142.55 8.95 Q163.0 16.65 173.25 31.05 L176.5 36.2 Q183.2 48.35 182.95 63.05 L172.45 69.3 M171.7 87.7 L178.9 88.95 Q177.85 94.4 176.25 100.2 L176.15 100.5 Q174.05 107.75 171.25 115.6 L171.15 115.7 168.95 121.45 161.85 124.95 158.5 133.0 157.9 134.3 157.1 136.05 155.6 139.5 145.6 144.15 140.8 138.4 140.2 138.45 139.55 142.55 141.55 142.65 143.0 146.75 143.0 146.8 142.2 156.65 134.5 168.2 134.45 168.3 134.45 168.35 132.7 170.2 132.05 170.3 131.55 172.8 128.7 175.65 117.05 178.1 117.0 178.1 107.85 176.8 105.4 182.0 97.5 187.0 82.95 196.15 68.0 196.15 59.55 196.15 51.15 196.15 41.55 184.4 38.2 184.4 22.65 182.4 10.25 170.0 4.35 147.35 6.25 143.1 9.5 135.55 14.65 123.75 17.05 123.2 17.4 123.1 13.5 120.5 16.3 119.85 12.35 117.3 15.15 116.65 11.2 114.05 14.0 113.4 10.05 110.85 12.85 110.2 8.95 107.55 11.75 106.95 7.8 104.3 10.6 103.7 6.6 101.1 9.45 100.5 5.5 97.9 8.3 97.2 4.35 94.65 7.15 94.0 3.2 91.45 6.0 90.8 2.05 88.25 1.45 84.95 12.8 78.15 16.9 77.2 18.2 70.55 16.5 70.95 14.65 68.55 17.05 60.15 4.5 48.75 14.8 27.25 0.05 3.55 0.0 1.6 0.85 0.0 3.15 0.0 22.9 24.85 46.4 18.95 55.0 8.95 68.8 8.95 70.95 4.5 91.7 4.05 117.8 8.2 116.05 4.65 116.2 2.25 116.2 2.15 117.35 0.0 119.65 0.0 126.75 8.95 124.15 8.95 122.4 8.95 123.1 9.15 Q126.4 10.35 129.35 11.75 132.05 12.85 134.6 14.2 159.4 27.2 165.25 52.4 L165.95 55.75 166.8 62.35 166.85 63.1 166.95 64.45 167.1 68.45 167.0 72.5 167.1 72.5 172.45 69.3 M132.85 8.95 Q162.35 19.75 171.3 44.0 173.85 50.9 174.75 58.9 L178.6 57.2 Q178.85 45.7 172.7 36.4 L176.5 36.2 M161.45 45.45 L163.15 50.65 163.7 53.15 164.55 58.35 165.0 62.6 166.8 62.35 M167.0 72.5 L163.7 71.8 Q166.3 73.85 168.1 77.0 171.05 81.95 171.1 87.6 L171.7 87.7 M170.85 91.05 L170.5 93.15 Q168.55 102.1 161.6 107.4 154.6 112.7 146.6 111.35 L145.15 111.05 145.05 111.0 136.75 109.65 137.95 111.15 Q140.65 114.15 144.1 115.45 146.6 116.4 149.55 116.4 L153.05 116.1 156.4 115.1 157.3 114.7 158.15 114.3 158.25 114.25 Q161.45 112.55 164.5 109.5 L164.85 109.25 M164.85 109.15 L165.75 108.25 Q167.65 106.2 169.15 103.9 L169.3 103.7 Q172.9 98.25 174.45 91.5 L170.85 91.05 171.1 87.6 M151.1 74.5 L153.1 74.65 Q158.3 75.6 160.95 80.75 162.25 83.25 162.6 86.15 162.85 88.0 162.6 90.0 L162.25 92.25 Q160.9 98.65 156.25 102.55 L154.85 103.6 Q152.05 105.5 149.1 105.7 L146.5 105.55 145.5 105.35 Q147.55 106.75 150.15 107.25 L154.6 107.15 Q157.7 106.5 160.6 104.0 L160.65 103.95 Q165.65 99.8 167.15 92.85 L167.55 90.65 167.6 86.95 Q167.35 83.5 165.75 80.4 162.85 74.9 157.3 73.95 154.1 73.35 151.1 74.5 150.35 74.8 149.7 75.15 L151.25 75.3 Q156.1 76.15 158.65 81.0 159.8 83.3 160.15 85.85 160.45 87.7 160.2 89.7 L159.85 92.0 Q158.55 98.05 154.2 101.8 L152.95 102.7 Q150.7 104.25 148.35 104.65 146.65 104.95 144.9 104.65 L144.6 104.6 145.5 105.35 M174.45 91.5 L178.9 88.95 M161.85 124.95 L163.25 121.45 165.4 115.6 Q167.35 110.15 169.15 103.9 M144.1 28.05 Q138.05 21.3 129.35 16.2 127.65 15.15 125.8 14.2 L122.3 14.2 123.1 14.6 Q126.45 16.35 129.35 18.4 135.8 22.7 140.6 28.05 M125.8 14.2 L129.3 14.2 132.75 14.2 134.6 14.2 M137.1 28.05 Q133.65 24.2 129.35 20.95 126.45 18.6 123.1 16.65 121.05 15.35 118.85 14.2 L115.35 14.2 Q119.45 16.2 123.1 18.4 L129.35 22.75 Q137.9 29.4 143.25 38.0 147.05 44.1 149.2 51.15 147.55 44.45 144.4 38.6 141.5 33.0 137.25 28.25 M157.7 44.7 Q150.2 25.2 129.35 14.25 L129.3 14.2 M85.15 9.45 L85.6 9.55 86.1 9.75 Q110.1 17.6 122.9 32.15 L123.1 32.4 Q126.7 36.5 129.35 41.2 134.4 49.8 136.35 61.45 L126.9 58.3 Q125.55 48.1 116.2 38.55 L104.95 38.55 Q114.45 50.4 118.55 66.2 L119.15 68.45 119.2 68.45 119.25 68.5 137.4 71.6 137.5 71.6 152.25 74.1 152.25 72.9 152.25 70.85 152.15 68.3 152.15 68.25 152.15 68.1 152.15 68.0 152.1 67.75 152.1 67.3 151.85 64.75 151.8 64.5 151.85 64.5 151.8 63.65 151.55 61.75 151.15 59.4 150.5 55.75 149.8 53.05 149.2 51.15 M158.3 63.55 L158.05 60.55 157.25 55.75 155.7 49.2 154.45 45.3 Q150.9 35.8 144.25 28.25 M157.8 45.05 L159.1 49.05 Q160.1 52.3 160.75 55.75 L161.6 60.9 161.75 63.05 165.0 62.6 M132.75 14.2 Q153.9 25.3 161.3 45.1 M154.85 64.05 L154.6 60.9 153.75 55.75 152.6 50.6 Q151.3 45.85 149.35 41.55 146.0 34.25 140.75 28.25 M120.2 8.6 L117.8 8.2 118.15 8.95 120.45 8.95 120.2 8.6 116.2 2.25 M118.15 8.95 L102.15 8.95 Q105.5 10.0 108.7 11.25 L127.3 11.25 M115.35 14.2 Q112.15 12.65 108.7 11.25 M84.4 9.15 L85.15 9.4 85.15 9.45 68.8 8.95 M83.75 8.95 L83.65 8.95 84.4 9.15 83.75 8.95 70.95 4.5 M82.35 8.95 L83.65 8.95 M55.0 8.95 Q83.9 16.6 100.3 33.35 L104.95 38.55 M117.75 73.95 L111.4 73.4 111.6 83.65 112.0 83.8 Q113.7 78.05 117.75 73.95 L122.7 74.1 138.75 74.1 152.25 74.1 M88.25 66.75 L86.85 54.8 84.0 52.95 57.35 87.1 Q59.6 88.55 61.15 90.75 63.5 93.9 64.45 98.3 L68.4 93.0 68.45 93.0 88.25 66.75 92.5 66.65 92.6 66.55 92.75 66.45 93.15 66.45 95.9 66.55 100.2 68.45 119.15 68.45 M95.9 66.55 L92.5 66.65 79.15 84.35 119.65 100.4 Q120.8 94.5 121.35 88.9 L100.55 81.65 100.5 81.65 100.2 68.45 111.4 73.4 M100.55 81.65 L111.6 83.65 M151.85 64.75 L151.85 64.55 151.85 64.5 154.85 64.05 158.3 63.55 161.75 63.05 M152.15 68.0 L152.1 67.3 152.05 66.45 151.95 65.55 151.95 65.45 151.85 64.75 M157.9 69.9 L152.25 70.85 M151.95 65.45 L151.85 64.55 M131.35 90.7 Q131.45 88.65 131.9 86.5 133.5 79.1 138.75 74.1 M133.15 91.3 L131.35 90.7 126.2 88.85 112.0 83.8 M126.2 88.85 L126.55 86.5 127.2 84.25 118.05 80.9 Q119.7 77.05 122.7 74.1 M144.6 104.6 L144.1 104.1 Q142.7 102.7 141.65 100.7 138.8 95.15 140.3 88.3 141.05 84.8 142.7 82.0 L142.95 81.6 Q144.15 79.65 145.8 78.05 L146.75 77.2 149.35 75.35 149.7 75.15 M118.85 14.2 L122.3 14.2 M124.15 8.95 L117.35 0.0 M122.4 8.95 L120.2 8.6 M122.4 8.95 L120.45 8.95 M121.35 88.9 L133.15 91.3 Q132.55 96.45 132.85 99.95 L134.3 102.7 Q138.2 109.3 145.05 111.0 M84.0 52.95 L58.5 36.15 55.0 8.95 M0.05 3.55 L0.65 2.45 0.0 1.6 M32.5 36.9 L31.75 36.0 30.4 34.2 27.1 34.2 29.25 36.9 32.5 36.9 34.65 39.65 35.8 41.05 41.05 41.85 48.7 54.55 47.55 58.2 48.35 60.75 48.35 60.8 44.85 65.65 42.15 64.9 34.65 58.0 25.1 43.75 21.3 48.25 26.05 56.95 31.6 67.25 34.6 72.9 41.5 84.75 42.0 84.75 44.4 84.75 45.05 84.75 48.85 84.75 52.7 84.75 Q55.25 85.65 57.35 87.1 M22.9 24.85 L20.45 25.45 25.0 31.45 28.2 31.45 22.9 24.85 M23.75 35.8 L25.0 31.45 27.1 34.2 25.85 38.8 27.9 41.75 29.25 36.9 31.3 39.65 34.65 39.65 M34.65 58.0 L34.85 51.8 34.05 50.65 32.0 47.65 29.95 44.75 27.9 41.75 M35.8 41.05 L36.9 42.45 39.1 45.15 46.3 54.15 47.55 58.2 M33.4 42.45 L31.3 39.7 31.3 39.65 29.95 44.75 M35.55 45.15 L39.1 45.15 M33.4 42.45 L32.0 47.65 M35.55 45.15 L33.4 42.45 36.9 42.45 M28.2 31.45 L30.4 34.2 M25.85 38.8 L23.75 35.8 0.65 2.45 M25.1 43.75 L14.8 27.25 M20.45 25.45 L0.85 0.0 M31.6 67.25 L27.6 68.25 M8.3 97.2 L15.5 95.6 M15.5 92.1 L7.15 94.0 M6.0 90.8 L15.5 88.55 M2.05 88.25 L26.5 82.6 28.55 85.65 30.5 88.7 30.55 88.85 30.85 88.55 31.3 88.25 Q35.8 84.75 41.5 84.75 M30.55 88.85 Q29.0 90.1 27.65 91.95 L26.8 93.05 Q25.4 95.0 24.5 97.1 L23.9 98.3 24.7 97.05 25.8 95.45 Q27.1 93.85 28.6 92.65 29.85 91.6 31.3 90.85 33.95 89.65 37.0 89.65 L37.4 89.65 Q43.65 89.8 48.2 95.45 52.8 101.2 52.8 109.45 52.8 117.65 48.2 123.4 43.65 129.05 37.4 129.25 L37.0 129.25 Q33.95 129.25 31.3 128.0 L29.95 127.2 Q28.25 126.15 26.7 124.5 L25.8 123.4 24.5 121.55 26.15 124.6 27.65 126.6 28.45 127.55 Q29.8 129.15 31.3 130.35 L31.4 130.4 Q33.25 131.75 35.25 132.55 L35.25 132.65 Q38.15 133.85 41.5 133.85 L42.0 133.85 42.1 133.85 Q48.45 133.55 53.4 128.8 L55.25 126.6 Q61.05 119.4 61.05 109.25 61.05 99.1 55.25 91.95 L53.4 89.7 Q49.5 85.95 44.7 85.05 L42.0 84.75 M24.55 105.35 Q25.1 102.55 26.65 100.25 L27.45 99.15 Q28.65 97.65 30.0 96.75 L31.3 95.95 Q32.95 95.15 34.85 95.05 L35.35 95.05 35.7 95.05 Q38.35 95.1 40.5 96.55 42.0 97.55 43.3 99.15 L44.7 101.2 Q46.65 104.65 46.65 109.1 46.65 112.3 45.6 115.0 L45.55 115.25 44.7 117.0 43.3 119.0 Q41.35 121.55 38.9 122.5 L35.7 123.15 35.35 123.15 33.3 122.95 31.3 122.3 Q29.8 121.55 28.55 120.2 L27.45 119.0 Q26.2 117.55 25.45 115.75 24.45 113.35 24.2 110.5 L24.15 109.1 Q24.15 107.1 24.55 105.35 L32.9 107.05 34.55 112.4 45.55 115.25 M17.05 60.15 L26.05 56.95 M14.65 68.55 L29.4 64.7 M27.25 68.4 L18.2 70.55 M34.6 72.9 L16.9 77.2 M35.9 76.65 L1.45 84.95 M15.95 88.5 L28.55 85.65 M30.5 88.7 L15.95 92.0 M15.95 95.5 L26.8 93.05 M44.85 60.8 L44.75 60.95 44.35 61.4 44.35 61.35 42.15 64.9 M44.75 60.95 L44.35 61.35 M46.3 54.15 L42.45 54.15 44.85 60.8 48.35 60.8 M72.0 100.15 L71.35 98.35 71.35 98.3 64.45 98.3 M79.15 84.35 L74.1 90.85 76.9 94.25 Q83.65 103.35 83.25 117.15 L83.15 119.45 82.95 121.75 86.35 123.75 91.95 104.15 92.6 104.65 92.3 111.45 91.7 125.7 91.65 127.1 96.0 129.7 102.5 112.5 103.5 113.3 103.15 117.25 102.5 124.9 102.1 130.75 101.85 133.15 105.55 135.5 113.7 121.4 117.2 110.6 118.1 107.15 118.35 106.2 118.5 105.5 119.65 100.4 132.9 100.4 132.85 99.95 M35.55 45.15 L34.05 50.65 M42.45 54.15 L35.55 45.15 M31.75 36.0 L46.4 18.95 M72.0 118.4 Q73.3 114.3 73.35 109.65 L73.35 109.25 Q73.35 105.05 72.4 101.35 L72.0 100.15 76.9 94.25 M58.8 133.05 L59.4 132.4 Q62.85 128.95 65.8 124.55 L66.5 123.65 68.7 119.8 71.2 119.8 71.4 120.0 72.0 118.4 83.15 119.45 M73.65 123.4 L76.1 123.4 71.4 120.0 M68.7 119.8 L73.65 123.4 69.7 139.35 73.05 135.65 74.75 129.05 75.75 124.85 76.1 123.4 M58.8 133.05 L54.25 133.85 42.1 133.85 M50.75 139.35 Q54.6 137.0 58.0 133.85 L58.8 133.05 M63.3 177.1 L70.8 161.05 50.6 150.45 47.0 141.35 50.75 139.35 32.45 135.8 32.55 137.4 32.9 143.5 24.55 146.0 25.1 148.6 27.9 163.3 31.25 163.7 38.2 166.5 63.3 177.1 76.0 177.1 81.55 166.7 70.8 161.05 M69.7 139.35 L78.85 145.45 81.5 134.7 76.95 131.45 73.05 135.65 M78.85 145.45 L79.65 145.9 81.8 143.45 83.35 137.05 83.9 134.7 81.5 134.7 M74.75 129.05 L77.05 129.5 82.95 130.3 91.3 130.9 Q96.75 131.15 102.1 130.75 M76.95 131.45 L79.4 131.45 83.9 134.7 M59.4 132.4 L69.7 139.35 M21.25 108.3 Q21.3 106.45 21.65 104.7 L15.95 105.95 M21.3 111.8 L21.15 109.45 21.25 108.3 15.95 109.5 M21.65 104.7 Q21.95 102.75 22.7 100.95 L15.95 102.5 M22.9 118.4 L21.85 115.2 20.35 115.45 M22.9 118.4 L20.35 118.9 M24.5 121.55 Q23.5 120.05 22.9 118.4 M21.85 115.2 L21.3 111.8 15.95 112.95 M10.6 103.7 L15.5 102.6 M11.75 106.95 L15.5 106.1 M15.5 109.55 L12.85 110.2 M20.05 119.0 L16.3 119.85 M17.4 123.1 L17.75 123.05 24.5 121.55 M17.05 123.2 L17.75 123.05 M15.15 116.65 L20.05 115.5 M14.0 113.4 L15.5 113.05 M9.45 100.5 L15.5 99.05 M18.2 128.55 L15.8 126.95 18.55 126.35 14.65 123.75 M32.45 135.8 L32.0 133.7 35.25 132.65 M31.4 130.4 L25.8 131.65 M28.45 127.55 L19.7 129.55 M6.25 143.1 L32.55 137.4 M20.85 132.75 L9.5 135.55 M18.55 126.35 L26.15 124.6 M36.1 152.15 L35.95 161.55 36.6 161.05 M36.8 152.5 L37.0 152.6 M37.25 152.65 L40.4 154.05 40.15 162.65 40.1 163.3 35.95 161.55 M28.55 166.4 L27.75 167.2 27.75 170.6 29.65 171.85 34.35 174.55 34.65 181.15 34.65 182.25 38.2 184.4 M29.65 174.95 L23.25 170.85 22.7 167.9 17.95 167.9 15.0 151.35 4.35 147.35 M27.9 163.3 L28.55 166.4 31.25 163.7 M40.15 162.65 L36.6 161.15 36.6 161.05 M15.0 151.35 L19.4 150.15 25.1 148.6 M34.65 181.15 L29.65 178.1 29.65 174.95 29.65 171.85 M41.55 184.4 L45.15 182.25 39.8 176.75 38.2 166.5 M22.7 167.9 L19.4 150.15 M42.75 154.95 L42.75 154.9 44.45 155.65 46.35 156.45 46.1 164.5 46.1 165.05 46.05 165.05 46.0 165.8 41.7 164.0 41.85 154.55 42.75 154.95 44.45 155.65 M48.5 157.35 L47.55 156.95 47.45 166.45 47.5 166.5 48.35 165.95 48.5 157.35 48.5 157.3 49.3 157.7 49.6 157.8 52.15 158.85 51.9 167.2 51.9 167.5 51.85 167.5 51.8 168.35 47.5 166.5 M48.5 157.35 L49.3 157.7 M46.05 165.05 L46.1 164.5 M42.55 163.55 L41.7 164.0 M46.05 165.05 L42.55 163.55 42.75 154.95 M51.9 167.2 L51.85 167.5 48.35 165.95 M76.0 177.1 L71.4 185.65 59.3 185.65 48.5 185.65 45.15 182.25 M76.0 177.1 L76.5 177.1 M76.0 177.1 L78.65 182.05 81.35 187.0 88.7 182.0 93.0 171.6 89.7 170.95 81.55 166.7 M63.3 177.1 L59.3 185.65 M78.65 182.05 L59.55 196.15 M144.6 104.6 L143.95 104.4 M141.95 121.2 L143.35 121.2 Q150.1 121.2 156.2 118.9 M141.95 121.2 L141.9 121.4 140.65 124.6 143.35 124.6 Q149.4 124.45 154.9 122.35 M144.1 115.45 L144.0 115.5 143.35 117.4 143.25 117.7 142.6 119.6 141.95 121.2 M149.55 136.0 L149.5 136.05 149.4 136.2 149.35 136.25 149.35 136.3 145.6 144.15 M136.75 109.65 L135.8 108.2 Q134.7 106.45 133.95 104.5 L133.55 103.45 Q133.15 102.15 132.9 100.4 M126.35 125.5 L128.85 118.45 Q124.3 113.4 124.6 108.35 L124.75 107.55 Q124.9 106.55 125.3 105.5 L118.5 105.5 M139.25 128.15 L138.75 129.5 138.45 130.1 137.8 131.65 138.45 131.65 143.35 131.45 Q147.8 130.9 151.95 129.35 M140.65 124.6 L139.25 128.15 143.35 128.05 Q148.6 127.7 153.45 125.9 M136.3 135.15 L135.9 136.0 134.75 138.6 136.8 138.6 137.7 138.6 138.45 138.6 140.2 138.45 M150.5 132.8 Q147.0 134.2 143.35 134.7 L138.45 135.15 136.3 135.15 137.8 131.65 M126.35 125.5 L124.8 129.3 123.35 132.8 123.2 133.15 123.25 133.15 123.1 133.55 123.0 133.6 122.95 133.65 122.9 133.85 122.05 135.8 121.95 136.1 121.75 136.45 121.7 136.5 123.75 137.8 131.7 142.85 132.75 142.85 133.45 141.45 133.9 140.45 134.35 139.45 134.75 138.6 M123.2 133.15 L123.1 133.55 M122.05 135.8 L121.95 136.0 121.95 136.1 M125.7 148.1 L123.7 146.65 118.0 146.65 119.65 148.1 125.7 148.1 126.15 151.85 128.4 146.65 134.9 146.65 135.9 147.95 135.9 148.0 137.25 154.55 138.7 154.55 M136.0 145.35 L134.35 139.45 M126.15 151.85 L126.75 157.1 130.15 148.0 128.4 146.65 M149.35 136.3 L148.7 136.5 148.65 136.5 Q146.5 137.5 143.35 138.05 L140.95 138.4 140.8 138.4 M135.25 145.35 L134.6 142.95 132.75 142.85 132.5 143.4 132.5 143.55 132.45 143.5 132.5 143.4 131.7 142.85 Q116.45 145.8 92.25 142.55 L90.9 149.0 94.75 144.5 97.15 144.5 100.6 147.0 100.65 152.25 M100.65 154.3 L100.65 154.55 102.2 154.55 107.1 146.65 113.7 146.65 115.6 148.15 115.65 151.8 118.0 146.65 M138.95 142.45 L137.1 146.8 M138.95 142.45 L139.55 142.55 M139.15 156.7 L140.25 146.8 138.95 142.45 M134.6 142.95 L133.9 140.45 M136.5 146.0 L137.7 138.6 M130.15 148.0 L135.9 148.0 M148.7 136.5 L149.4 136.1 149.55 136.0 M149.4 136.2 L149.35 136.2 149.35 136.25 M149.4 136.1 L149.4 136.2 M140.25 146.8 L143.0 146.8 M113.7 121.4 L115.8 122.05 120.35 123.55 126.35 125.5 M100.2 125.25 L98.45 129.7 96.0 129.7 M92.3 111.45 L88.75 123.75 86.35 123.75 M88.25 125.75 L82.95 125.55 75.75 124.85 M92.5 141.05 L88.75 138.25 86.35 138.25 90.05 141.05 92.5 141.05 92.25 142.55 M81.8 143.45 L86.35 138.25 M94.75 144.5 L98.2 147.0 100.6 147.0 M88.5 125.75 L91.7 125.7 M121.75 136.45 L118.9 126.75 118.9 126.7 113.8 125.6 111.45 129.65 112.25 129.5 M111.45 129.65 L108.1 135.5 105.55 135.5 M102.5 124.9 L101.7 125.0 100.2 125.25 103.15 117.25 M103.35 157.8 L108.7 148.15 107.1 146.65 M108.7 148.15 L115.6 148.15 M115.8 122.05 L113.8 125.6 M118.9 126.7 L120.35 123.55 M115.65 151.8 L115.7 157.45 119.65 148.1 M102.2 154.55 L101.35 155.75 103.35 157.75 103.35 157.8 115.7 157.45 126.75 157.2 126.75 157.1 M100.65 157.8 L100.8 157.8 103.35 157.8 M100.65 155.75 L100.65 157.8 97.55 157.85 98.2 147.0 M100.65 154.55 L100.65 155.75 101.35 155.75 M90.05 141.05 L87.95 151.5 88.5 151.85 90.9 149.0 M93.0 171.6 L94.4 171.6 97.85 171.6 103.05 165.65 133.15 164.8 132.05 170.3 M88.5 151.85 L97.55 157.85 M100.35 173.65 L96.15 175.15 107.85 176.8 M81.35 187.0 L97.5 187.0 M103.05 165.65 L100.35 173.65 117.0 178.1 M96.15 175.15 L94.4 171.6 M88.7 182.0 L105.4 182.0 M137.65 156.8 L137.25 154.55 M126.75 157.2 L137.7 156.85 137.65 156.8 M142.2 156.65 L139.15 156.7 M83.35 137.05 Q104.55 140.95 123.75 137.8 M117.05 178.1 L131.55 172.8 M15.95 99.05 L24.5 97.1 M22.7 100.95 Q23.15 99.55 23.9 98.3 M68.0 196.15 L81.35 187.0 M79.65 145.9 L87.95 151.5 M163.7 71.8 L156.1 70.25 M167.1 68.45 L157.9 69.9" fill="none" stroke="#000000" stroke-width="0.7" stroke-opacity="0.4"/>
  </g>
  <defs>
    <linearGradient gradientTransform="matrix(0.0, -0.0825, 0.0772, 0.0, 118.3, 76.5)" gradientUnits="userSpaceOnUse" id="gradient0" spreadMethod="pad" x1="-819.2" x2="819.2">
      <stop offset="0.0" stop-color="#939393"/>
      <stop offset="0.807843137254902" stop-color="#cccccc"/>
      <stop offset="1.0" stop-color="#a0a0a0"/>
    </linearGradient>
    <linearGradient gradientTransform="matrix(0.0, -0.0253, 0.0309, 0.0, 140.6, 34.9)" gradientUnits="userSpaceOnUse" id="gradient1" spreadMethod="pad" x1="-819.2" x2="819.2">
      <stop offset="0.0" stop-color="#4c4c4c"/>
      <stop offset="1.0" stop-color="#7f7f7f"/>
    </linearGradient>
    <linearGradient gradientTransform="matrix(0.0076, 0.0277, -0.0251, 0.0031, 152.9, 96.0)" gradientUnits="userSpaceOnUse" id="gradient2" spreadMethod="pad" x1="-819.2" x2="819.2">
      <stop offset="0.0" stop-color="#666666"/>
      <stop offset="0.2627450980392157" stop-color="#999999"/>
      <stop offset="1.0" stop-color="#696969"/>
    </linearGradient>
    <linearGradient gradientTransform="matrix(0.0, 0.0, 0.0, 0.0, 634.8, 369.4)" gradientUnits="userSpaceOnUse" id="gradient3" spreadMethod="pad" x1="-819.2" x2="819.2">
      <stop offset="0.0" stop-color="#a3a3a3"/>
      <stop offset="0.807843137254902" stop-color="#cccccc"/>
      <stop offset="1.0" stop-color="#a0a0a0"/>
    </linearGradient>
    <linearGradient gradientTransform="matrix(-0.0123, 0.0032, -0.0033, -0.0128, 141.8, 107.85)" gradientUnits="userSpaceOnUse" id="gradient4" spreadMethod="pad" x1="-819.2" x2="819.2">
      <stop offset="0.0" stop-color="#585858"/>
      <stop offset="1.0" stop-color="#414141"/>
    </linearGradient>
    <linearGradient gradientTransform="matrix(0.0, -0.0825, 0.0772, 0.0, 118.15, 76.55)" gradientUnits="userSpaceOnUse" id="gradient5" spreadMethod="pad" x1="-819.2" x2="819.2">
      <stop offset="0.0" stop-color="#939393"/>
      <stop offset="0.807843137254902" stop-color="#cccccc"/>
      <stop offset="1.0" stop-color="#a0a0a0"/>
    </linearGradient>
    <linearGradient gradientTransform="matrix(-0.0019, 0.0074, -0.0262, -0.0063, 130.1, 80.65)" gradientUnits="userSpaceOnUse" id="gradient6" spreadMethod="pad" x1="-819.2" x2="819.2">
      <stop offset="0.0" stop-color="#3c3c3c"/>
      <stop offset="1.0" stop-color="#414141"/>
    </linearGradient>
    <radialGradient cx="0" cy="0" gradientTransform="matrix(0.0262, 0.0, 0.0, 0.0262, 140.85, 85.15)" gradientUnits="userSpaceOnUse" id="gradient7" r="819.2" spreadMethod="pad">
      <stop offset="0.0" stop-color="#149eff"/>
      <stop offset="1.0" stop-color="#0041ff"/>
    </radialGradient>
    <radialGradient cx="0" cy="0" gradientTransform="matrix(0.0306, 0.0, 0.0, 0.0306, 39.75, 104.45)" gradientUnits="userSpaceOnUse" id="gradient8" r="819.2" spreadMethod="pad">
      <stop offset="0.0" stop-color="#999999"/>
      <stop offset="1.0" stop-color="#333333"/>
    </radialGradient>
    <linearGradient gradientTransform="matrix(0.0, 0.0299, -0.0191, 0.0, 57.7, 109.2)" gradientUnits="userSpaceOnUse" id="gradient9" spreadMethod="pad" x1="-819.2" x2="819.2">
      <stop offset="0.0" stop-color="#666666"/>
      <stop offset="0.2627450980392157" stop-color="#999999"/>
      <stop offset="1.0" stop-color="#333333"/>
    </linearGradient>
    <linearGradient gradientTransform="matrix(0.0, 0.0, 0.0, 0.0, 634.8, 369.4)" gradientUnits="userSpaceOnUse" id="gradient10" spreadMethod="pad" x1="-819.2" x2="819.2">
      <stop offset="0.0" stop-color="#0043a0"/>
      <stop offset="1.0" stop-color="#333333"/>
    </linearGradient>
    <linearGradient gradientTransform="matrix(0.0274, 0.0274, -0.0193, 0.0193, 94.25, 125.05)" gradientUnits="userSpaceOnUse" id="gradient11" spreadMethod="pad" x1="-819.2" x2="819.2">
      <stop offset="0.0" stop-color="#0043a0"/>
      <stop offset="1.0" stop-color="#333333"/>
    </linearGradient>
    <linearGradient gradientTransform="matrix(2.0E-4, -0.0062, 0.0022, 0.0, 50.25, 160.85)" gradientUnits="userSpaceOnUse" id="gradient12" spreadMethod="pad" x1="-819.2" x2="819.2">
      <stop offset="0.0" stop-color="#005dff"/>
      <stop offset="0.9882352941176471" stop-color="#002a74"/>
    </linearGradient>
    <linearGradient gradientTransform="matrix(0.0, -0.0211, 0.0163, 0.0, 148.15, 121.35)" gradientUnits="userSpaceOnUse" id="gradient13" spreadMethod="pad" x1="-819.2" x2="819.2">
      <stop offset="0.0" stop-color="#333333"/>
      <stop offset="1.0" stop-color="#666666"/>
    </linearGradient>
    <linearGradient gradientTransform="matrix(0.0028, 0.0028, -0.0026, 0.0026, 136.4, 141.55)" gradientUnits="userSpaceOnUse" id="gradient14" spreadMethod="pad" x1="-819.2" x2="819.2">
      <stop offset="0.0" stop-color="#0043a0"/>
      <stop offset="1.0" stop-color="#333333"/>
    </linearGradient>
    <linearGradient gradientTransform="matrix(0.0274, 0.0274, -0.0193, 0.0193, 94.25, 125.05)" gradientUnits="userSpaceOnUse" id="gradient15" spreadMethod="pad" x1="-819.2" x2="819.2">
      <stop offset="0.0" stop-color="#a00000"/>
      <stop offset="1.0" stop-color="#333333"/>
    </linearGradient>
    <linearGradient gradientTransform="matrix(0.0044, 0.0044, -0.0043, 0.0043, 139.0, 149.55)" gradientUnits="userSpaceOnUse" id="gradient16" spreadMethod="pad" x1="-819.2" x2="819.2">
      <stop offset="0.0" stop-color="#0043a0"/>
      <stop offset="1.0" stop-color="#333333"/>
    </linearGradient>
  </defs>
</svg>
