<?xml version="1.0" encoding="utf-8"?>
<svg version="1.1" id="Layer_1"
xmlns="http://www.w3.org/2000/svg"
xmlns:xlink="http://www.w3.org/1999/xlink"
width="214px" height="87px"
xml:space="preserve">
<g id="PathID_6" transform="matrix(1, 0, 0, 1, 0.05, 0.05)">
<path fill="#B7B7B7" d="M205.3 21.3L199.35 21.3L201.15 23.95L207.1 23.95L205.3 21.3M173.55 28.45L170.55 25.65L181.1 25.65L185.4 25.65L195.95 25.65L199.7 25.65L210.25 25.65L199.7 25.65L196.7 21.25L195.5 19.5L206 19.5L210.25 25.65L213.25 28.45L173.55 28.45M145.3 70.15L143.6 67.7L152.75 67.7L156.25 67.7L157.95 70.3L156.55 71.7L154.3 71.7L152.95 70.15L149.1 70.15M174.05 73.2L172.3 73.2L171.15 71.8L169.65 70.15L173.5 70.15L176.15 73.2L174.05 73.2M89.85 14.2L92.5 18.2L75.4 18.2L72.6 10.15L87.05 10.15L89.85 14.2M107.4 18.2L104.55 10.15L119.05 10.15L124.45 18.2L107.4 18.2M181.1 25.65L170.55 25.65L166.35 19.5L176.85 19.5L181.1 25.65M195.95 25.65L185.4 25.65L181.2 19.5L191.7 19.5L195.95 25.65M185.05 21.3L186.85 23.95L192.8 23.95L191 21.3L185.05 21.3M170.2 21.3L172 23.95L177.95 23.95L176.15 21.3L170.2 21.3M122.5 32.25L128.45 32.25L135.45 39.35L142.9 47.05L136.95 47.05L129.5 39.35L122.5 32.25M113.6 39.35L107.7 39.35L100.7 32.25L106.7 32.25L113.6 39.35L121.15 47.05L115.3 47.05L107.7 39.35L113.6 39.35M135.45 39.35L129.5 39.35L135.45 39.35M120.2 15.35L118.25 12.5L108.35 12.5L109.4 15.35L120.2 15.35M86.3 12.5L76.4 12.5L77.45 15.35L88.25 15.35L86.3 12.5M152.95 70.15L154.3 71.7L155.6 73.2L151.75 73.2L150.55 71.8L149.1 70.15L145.3 70.15L152.95 70.15M132.25 74.9L132.25 75.95L132.35 76.8Q132.7 78.4 134 79.6L134.5 80.05L135.45 80.65L135.8 80.85L139.65 80.85L143.45 80.85L144.6 80.85L145.65 82.5L144.35 82.5L134.4 82.5L133 82.5L123.05 67.7L135.65 67.7L137.4 70.3L136 71.7L129.95 71.7L131.1 73.3L132.25 74.9" />
<path fill="#333333" d="M207.1 23.95L201.15 23.95L199.35 21.3L205.3 21.3L207.1 23.95M182.95 77.3L190.1 76.15L193.9 76.15L186.75 77.3L182.95 77.3M164.05 80.85L163.65 80.6L164.05 80.85L163.45 80.85L163.65 80.6L165.15 78.6L165.75 77.8L166.15 78.2L166.25 78.3L166.45 78.5L167 79.1L167.35 79.5L168.55 80.85L167.9 80.85L165.15 80.85L164.05 80.85M89.95 74L90.95 76.8L93.05 76.8L92 79L86.6 79L86 77.35L86.6 79L92 79L96.2 79L94.8 83.55L79.2 83.55L77.25 78.2L76.25 79L75.7 77.35L73.7 79L73.1 77.35L71.1 79L70.5 77.35L68.5 79L67.95 77.35L65.95 79L65.35 77.35L63.35 79L62.75 77.35L60.8 79L60.2 77.35L58.2 79L57.6 77.35L55.6 79L55.05 77.35L53.05 79L52.45 77.35L50.45 79L49.85 77.35L47.85 79L47.4 77.65L47.3 77.35L45.3 79L44.7 77.35L42.7 79L39.45 79L38.05 83.55L28.9 83.55L27.25 79L23.35 79L22.35 75.95L26.8 75.95L30.9 75.95L28.15 71.3L24.65 65.45L22.25 61.3L20.75 58.85L24.55 53.75L24.9 53.25L25.6 52.3L21 52.3L5.55 52.3L6.5 50.9L0 43.2L0 41.7L0 34.65L2.2 31.3L9.95 31.3L9.85 31.45L9.4 32.1L8.8 33.1L8.15 34.05L8.15 37.85L1.9 37.85L1.9 35.25L3.6 32.65L6.2 32.65L4.7 34.9L4.7 37.55L4.7 34.9L6.2 32.65L3.6 32.65L1.9 35.25L1.9 37.85L8.15 37.85L8.15 34.05L30.7 34.05L30.1 35.3L30.1 39.35L8.15 39.35L8.05 40.05L7.8 41.7L7.1 46.1L24.95 46.1L24.95 46.2Q24.45 46.8 24.45 47.7L24.45 47.8Q24.5 48.6 24.95 49.2Q25.35 49.8 26.1 49.8L26.65 49.7L26.85 51.05L24.65 51.05L24.5 50.9L21.65 48.65L8.45 48.65L2.55 41.7L8.45 48.65L21.65 48.65L24.5 50.9L24.65 51.05L26.85 51.05L26.65 49.7L27.15 49.4L27.3 49.2Q27.8 48.55 27.8 47.7Q27.8 46.8 27.3 46.2L27.2 46.1L29.15 46.1L29.15 46.2Q28.6 46.8 28.6 47.7Q28.6 48.55 29.15 49.2Q29.65 49.8 30.3 49.8L31.5 49.2Q32.05 48.55 32.05 47.7Q32.05 46.8 31.5 46.2L31.5 46.1L32.95 46.1L33.5 50.25L34.1 54.9L35.1 63L28.35 63L35.1 63L35.55 66.35L29.45 66.35L30.05 67L30.55 67.65L32.25 69.55L32.3 69.6L38.5 69.6L40 71.3L40.05 71.4L40.45 71.85L42.8 71.85L45.35 71.85L47.95 71.85L50.55 71.85L53.1 71.85L55.7 71.85L55.9 71.85L58.25 71.85L60.85 71.85L63.45 71.85L66 71.85L66.2 71.85L66.25 71.85L68.6 71.85L71.2 71.85L73.75 71.85L76.35 71.85L78.95 71.85L80.85 77.35L78.95 71.85L81.5 71.85L83.4 77.35L84 79L86 77.35L84.8 74L84.05 71.85L108.9 71.85L110.75 74.6L94.05 74.6L92.9 72.1L94.05 74.6L93.05 76.8L90.95 76.8L89.95 74L84.8 74M30.3 18.2L34.15 18.2L38.05 18.2L38.5 18.2L36.5 22.25L15.9 22.25L14.5 22.25L16.8 18.2L30.3 18.2M29.05 10.15L21.75 10.15L26.2 0L31.1 0L29.05 10.15M54.4 10.15L47.1 10.15L51.55 0L56.45 0L54.4 10.15M191 21.3L192.8 23.95L186.85 23.95L185.05 21.3L191 21.3M176.15 21.3L177.95 23.95L172 23.95L170.2 21.3L176.15 21.3M164.7 59.4L164.7 47.05L163.1 45.45L163.1 39.35L163.1 45.45L159.65 41.85L159.65 39.35L159.65 41.85L157.2 39.35L159.65 39.35L163.1 39.35L166.6 39.35L170.05 39.35L170.05 49.5L170.05 54.2L166.6 59.4L164.7 59.4M166.15 77.3L162.35 77.3L169.5 76.15L173.3 76.15L166.15 77.3M165.15 78.6L166.05 79.6L167.9 80.85L166.05 79.6L165.15 78.6M166.6 59.4L166.6 39.35L166.6 59.4M84.05 71.85L84.8 74L89.95 74L86 77.35L84 79L83.4 77.35L81.45 79L81.5 71.85L81.7 71.85L84.05 71.85M55.25 66.4L61.4 66.4L55.25 66.4L54.5 65.55L54.5 65.45L53.1 54.85L52.5 50.25L59.3 50.25L59.9 54.85L61.35 66.35L61.4 66.4L64.25 69.6L58.1 69.6L55.25 66.4M81.45 79L80.85 77.35L78.85 79L78.25 77.35L77.25 78.2L78.25 77.35L78.85 79L80.85 77.35L81.45 79L83.4 77.35M143.65 74.9L143.7 75.05L143.65 74.9L143.7 74.9L143.7 75.05L143.7 75.1L144.1 76.6L145.1 77.65L145.55 78.2L145.65 78.3L145.9 78.5L146.45 79.1L146.75 79.5L147.95 80.85L147.3 80.85L144.6 80.85L143.45 80.85L139.65 80.85L135.8 80.85L135.45 80.65L134.5 80.05L134 79.6Q132.7 78.4 132.35 76.8L132.25 75.95L132.25 74.9L136.1 74.9Q135.8 77.75 137.8 79.6L139.65 80.85L137.8 79.6Q135.8 77.75 136.1 74.9L139.95 74.9Q139.6 77.75 141.65 79.6L143.45 80.85L141.65 79.6Q139.6 77.75 139.95 74.9L143.65 74.9M147.3 80.85L145.45 79.6Q143.5 77.8 143.7 75.1Q143.5 77.8 145.45 79.6L147.3 80.85M8.15 39.35L8.15 37.85L8.15 39.35M8.05 40.05L1.9 40.05L1.9 37.85L1.9 40.05L8.05 40.05M7.8 41.7L2.55 41.7L0 41.7L2.55 41.7L7.8 41.7M28.4 63.4L28.35 63L27.85 59.2L27.7 57.85L27.1 53.25L26.85 51.05L27.1 53.25L27.7 57.85L27.85 59.2L26.8 60.15Q25.15 61.75 25.15 63.4L26.75 65.45L28.7 65.45L28.4 63.4M27.7 57.85L26.8 57.85Q25.45 55.9 24.55 53.75Q25.45 55.9 26.8 57.85L27.7 57.85M24.9 53.25L27.1 53.25L24.9 53.25M26.8 57.85Q23.35 59.2 22.25 61.3Q23.35 59.2 26.8 57.85M38.1 69.15L38.5 69.6L32.3 69.6L32.25 69.55L30.55 67.65L30.05 67L29.45 66.35L28.7 65.55L35.55 66.35L38.1 69.15M28.7 65.55L28.7 65.45L28.7 65.55L29.45 66.35M26.75 65.45L24.65 65.45L26.75 65.45M28.15 71.3L40 71.3L28.15 71.3M27.25 79L39.45 79L27.25 79M6.5 50.9L24.5 50.9L6.5 50.9M78.25 77.35L76.35 71.85L78.25 77.35M73.1 77.35L71.2 71.85L73.1 77.35M75.7 77.35L73.75 71.85L75.7 77.35M70.5 77.35L68.6 71.85L70.5 77.35M67.95 77.35L66 71.85L67.95 77.35M42.8 71.85L44.7 77.35L42.8 71.85M58.25 71.85L60.2 77.35L58.25 71.85M62.75 77.35L60.85 71.85L62.75 77.35M55.7 71.85L57.6 77.35L55.7 71.85M53.1 71.85L55.05 77.35L53.1 71.85M52.45 77.35L50.55 71.85L52.45 77.35M47.95 71.85L49.85 77.35L47.95 71.85M47.3 77.35L45.35 71.85L47.3 77.35M63.45 71.85L65.35 77.35L63.45 71.85M42.7 79L40.05 71.4L42.7 79" />
<path fill="#9E9E9E" d="M201.45 32.05L201.45 49.5L198.25 49.5L201.45 49.5L201.45 51.95L207 51.95L209.95 51.95L209.95 49.5L212.85 49.5L209.95 49.5L209.95 32.05L207 32.05L201.45 32.05M185.95 32.05L183 32.05L177.45 32.05L177.45 49.5L173.55 49.5L173.55 28.45L213.25 28.45L213.25 55.45L173.55 55.45L173.55 49.5L177.45 49.5L177.45 51.95L183 51.95L185.95 51.95L185.95 49.5L189.45 49.5L189.45 51.95L195 51.95L197.95 51.95L197.95 49.5L197.95 32.05L195 32.05L189.45 32.05L189.45 49.5L185.95 49.5L185.95 32.05M142.9 47.05L142.9 63.15L136.95 63.15L136.95 47.05L142.9 47.05M121.15 47.05L121.15 63.15L115.3 63.15L115.3 47.05L121.15 47.05" />
<path fill="#757575" d="M207 49.5L207 32.05L209.95 32.05L209.95 49.5L209.95 51.95L207 49.5M153.6 82.5L155 82.5L151.85 86.25L141.2 86.25L143.5 83.55L144.35 82.5L145.65 82.5L144.6 80.85L147.3 80.85L147.95 80.85L148.7 81.65L152.05 81.65L153.05 81.65L153.6 82.5M158.75 63L152.75 67.7L143.6 67.7L135.65 67.7L143.6 67.7L145.3 70.15L137.5 70.15L137.4 70.3L135.65 67.7L123.05 67.7L133 82.5L134.4 82.5L131.25 86.25L120.55 86.25L118.65 83.55L116.8 83.55L111.4 75.55L110.75 74.6L108.9 71.85L107.4 69.6L103.5 63.9L103.5 61.95L103.5 51.1L101.35 49.15L98.05 46.1L97.7 46.1L93.85 46.1L90.05 46.1L86.2 46.1L82.4 46.1L78.8 46.1L77.8 46.1L74.25 46.1L32.95 46.1L31.5 46.1L29.15 46.1L27.2 46.1L24.95 46.1L7.1 46.1L7.8 41.7L8.05 40.05L8.15 39.35L30.1 39.35L107.7 39.35L115.3 47.05L115.3 63.15L121.15 63.15L125.1 63.15L125.1 47.05L117.6 39.45L117.55 39.35L129.5 39.35L136.95 47.05L136.95 63.15L142.9 63.15L146.85 63.15L146.85 47.05L139.4 39.35L157.2 39.35L139.4 39.35L132.45 32.25L136.4 25.65L140.75 25.65L144.25 25.65L147.75 25.65L151.25 25.65L154.75 25.65L170.55 25.65L173.55 28.45L173.55 49.5L173.55 55.45L168.35 63L164.7 63L164.7 59.4L166.6 59.4L170.05 54.2L170.05 49.5L173.55 49.5L170.05 49.5L170.05 39.35L166.6 39.35L163.1 39.35L159.65 39.35L157.2 39.35L159.65 41.85L163.1 45.45L164.7 47.05L164.7 59.4L164.7 63L158.75 63M75.4 18.2L66.95 35.3L30.1 35.3L30.7 34.05L31.65 32.1L32.9 29.6L34.1 27.15L35.3 24.7L36.5 22.25L38.5 18.2L41.9 18.2L43.55 14.2L68.35 14.2L70 10.15L68.35 14.2L43.55 14.2L41.9 18.2L38.5 18.2L38.05 18.2L34.15 18.2L30.3 18.2L33.65 10.15L30.3 18.2L16.8 18.2L15.25 18.2L18.55 10.15L21.75 10.15L29.05 10.15L32.4 10.15L33.65 10.15L37.5 10.15L41.4 10.15L45.25 10.15L47.1 10.15L54.4 10.15L57.75 10.15L70 10.15L72.6 10.15L75.4 18.2M90.8 21.45L92.5 18.2L89.85 14.2L100.3 14.2L101.95 10.15L100.3 14.2L89.85 14.2L87.05 10.15L101.95 10.15L104.55 10.15L107.4 18.2L105.7 21.45L90.8 21.45M30.1 35.3L66.95 35.3L71.7 35.3L78.45 21.45L90.8 21.45L105.7 21.45L122.75 21.45L130.9 21.45L133 19.5L136.5 19.5L140.05 19.5L143.55 19.5L147.05 19.5L150.55 19.5L166.35 19.5L170.55 25.65L154.75 25.65L151.25 25.65L147.75 25.65L144.25 25.65L140.75 25.65L136.4 25.65L132.4 25.65L126.5 25.65L122.5 32.25L129.5 39.35L117.55 39.35L110.7 32.25L114.65 25.65L110.65 25.65L104.75 25.65L100.7 32.25L107.7 39.35L30.1 39.35L30.1 35.3M185.4 25.65L181.1 25.65L176.85 19.5L181.2 19.5L185.4 25.65M196.7 21.25L199.7 25.65L195.95 25.65L191.7 19.5L195.45 19.5L196.7 21.25M195 49.5L197.95 49.5L195 49.5L195 32.05L197.95 32.05L197.95 49.5L197.95 51.95L195 51.95L195 49.5M183 32.05L185.95 32.05L185.95 49.5L185.95 51.95L183 51.95L183 49.5L183 32.05M183 49.5L185.95 49.5L183 49.5M209.95 51.95L207 51.95L207 49.5L209.95 49.5M133.75 61.7L133.75 48.5L130.8 48.5L128.35 48.5L128.35 61.7L130.8 61.7L133.75 61.7M150.1 48.5L150.1 61.7L152.55 61.7L155.55 61.7L155.55 48.5L152.55 48.5L150.1 48.5M140.75 25.65L136.5 19.5L140.75 25.65M140.05 19.5L144.25 25.65L140.05 19.5M151.25 25.65L147.05 19.5L151.25 25.65M154.75 25.65L150.55 19.5L154.75 25.65M147.75 25.65L143.55 19.5L147.75 25.65M143.5 83.55L150.45 83.55L152.05 81.65L150.45 83.55L143.5 83.55M44.8 19.9L39 31.5L40.3 31.5L42.85 31.5L48.55 19.9L46 19.9L44.8 19.9M39.8 19.9L34.05 31.5L35.4 31.5L37.95 31.5L43.65 19.9L41.05 19.9L39.8 19.9M49.75 19.9L44 31.5L45.25 31.5L47.85 31.5L53.55 19.9L51 19.9L49.75 19.9M54.7 19.9L48.95 31.5L50.25 31.5L52.85 31.5L58.45 19.9L55.9 19.9L54.7 19.9M43.55 14.2L45.25 10.15L43.55 14.2M37.5 10.15L34.15 18.2L37.5 10.15M41.4 10.15L38.05 18.2L41.4 10.15" />
<path fill="#666666" d="M164.7 63L168.35 63L198.45 63L168.35 63L173.55 55.45L213.25 55.45L208.05 63L198.45 63L192.45 67.7L156.25 67.7L152.75 67.7L158.75 63L164.7 63M139.95 74.9L136.1 74.9L132.25 74.9L131.1 73.3L137.85 73.3L139.4 71.8L150.55 71.8L139.4 71.8L137.85 73.3L131.1 73.3L129.95 71.7L136 71.7L137.4 70.3L137.5 70.15L145.3 70.15L149.1 70.15L150.55 71.8L151.75 73.2L155.6 73.2L154.3 71.7L156.55 71.7L157.95 70.3L158.1 70.15L169.65 70.15L171.15 71.8L172.3 73.2L174.05 73.2L176.15 73.2L190.85 73.2L194.65 73.2L193.9 76.15L190.1 76.15L182.95 77.3L179.65 81.65L169.3 81.65L168.55 80.85L167.35 79.5L167 79.1L166.45 78.5L166.25 78.3L166.15 78.2L165.75 77.8L166.15 77.3L173.3 76.15L174.05 73.2L173.3 76.15L169.5 76.15L170.25 73.2L169.5 76.15L162.35 77.3L159.05 81.65L153.05 81.65L152.05 81.65L148.7 81.65L147.95 80.85L146.75 79.5L146.45 79.1L145.9 78.5L145.65 78.3L145.55 78.2L145.1 77.65L144.1 76.6L143.7 75.1L143.7 75.05L143.7 74.9L143.65 74.9L143.25 73.2L151.75 73.2L143.25 73.2L143.65 74.9L139.95 74.9M16.6 58.1L26.8 75.95L22.35 75.95L13.75 75.95L0.95 58.1L16.6 58.1M105.7 21.45L107.4 18.2L124.45 18.2L122.75 21.45L105.7 21.45M195.45 19.5L195.5 19.5L196.7 21.25L195.45 19.5M59.3 50.25L74.75 50.25L75.35 54.85L59.9 54.85L75.35 54.85L76.85 66.35L61.35 66.35L59.9 54.85L59.3 50.25L52.5 50.25L49 50.25L49.55 54.85L34.1 54.9L49.55 54.85L51 66.35L35.55 66.35L35.1 63L34.1 54.9L33.5 50.25L49 50.25L33.5 50.25L32.95 46.1L74.25 46.1L74.75 50.25L59.3 50.25M172.3 73.2L170.25 73.2L158.55 73.2L159.95 71.8L171.15 71.8L159.95 71.8L158.55 73.2L170.25 73.2L172.3 73.2M190.85 73.2L190.1 76.15L190.85 73.2M122.5 32.25L126.5 25.65L132.4 25.65L128.45 32.25L122.5 32.25M78.45 21.45L71.7 35.3L66.95 35.3L75.4 18.2L92.5 18.2L90.8 21.45L78.45 21.45M100.7 32.25L104.75 25.65L110.65 25.65L106.7 32.25L100.7 32.25M155.6 73.2L158.55 73.2L155.6 73.2M40.3 31.5L39 31.5L44.8 19.9L46 19.9L40.3 31.5M41.05 19.9L35.4 31.5L34.05 31.5L39.8 19.9L41.05 19.9M45.25 31.5L44 31.5L49.75 19.9L51 19.9L45.25 31.5M50.25 31.5L48.95 31.5L54.7 19.9L55.9 19.9L50.25 31.5" />
<linearGradient
id="LinearGradID_66" gradientUnits="userSpaceOnUse" gradientTransform="matrix(0.00338745, 0, 0, 0.012146, 192.2, 42)" spreadMethod ="pad" x1="-819.2" y1="0" x2="819.2" y2="0" >
<stop  offset="0" stop-color="#00DDFF" />
<stop  offset="1" stop-color="#0055FF" />
</linearGradient>
<path style="fill:url(#LinearGradID_66) " d="M195 51.95L189.45 51.95L189.45 49.5L189.45 32.05L195 32.05L195 49.5L195 51.95" />
<linearGradient
id="LinearGradID_67" gradientUnits="userSpaceOnUse" gradientTransform="matrix(0.00338745, 0, 0, 0.012146, 180.2, 42)" spreadMethod ="pad" x1="-819.2" y1="0" x2="819.2" y2="0" >
<stop  offset="0" stop-color="#00DDFF" />
<stop  offset="1" stop-color="#0055FF" />
</linearGradient>
<path style="fill:url(#LinearGradID_67) " d="M183 49.5L183 51.95L177.45 51.95L177.45 49.5L177.45 32.05L183 32.05L183 49.5" />
<linearGradient
id="LinearGradID_68" gradientUnits="userSpaceOnUse" gradientTransform="matrix(0.00338745, 0, 0, 0.012146, 204.2, 42)" spreadMethod ="pad" x1="-819.2" y1="0" x2="819.2" y2="0" >
<stop  offset="0" stop-color="#00DDFF" />
<stop  offset="1" stop-color="#0055FF" />
</linearGradient>
<path style="fill:url(#LinearGradID_68) " d="M207 51.95L201.45 51.95L201.45 49.5L201.45 32.05L207 32.05L207 49.5L207 51.95" />
<path fill="#474747" d="M182.95 77.3L186.75 77.3L183.45 81.65L179.65 81.65L182.95 77.3M164.95 82.5L161.75 86.25L151.85 86.25L155 82.5L164.95 82.5M134.4 82.5L144.35 82.5L143.5 83.55L141.2 86.25L131.25 86.25L134.4 82.5M110.75 74.6L111.4 75.55L110.65 76.8L109.3 79L103.6 79L101.8 83.55L94.8 83.55L96.2 79L92 79L93.05 76.8L94.05 74.6L110.75 74.6M39.45 79L42.7 79L44.7 77.35L45.3 79L47.3 77.35L47.4 77.65L45.05 83.55L38.05 83.55L39.45 79M165.15 78.6L163.65 80.6L163.45 80.85L162.85 81.65L159.05 81.65L162.35 77.3L166.15 77.3L165.75 77.8L165.15 78.6M66.2 71.85L65.95 71.5L66.25 71.85L66.2 71.85M96.2 79L103.6 79L96.2 79M93.05 76.8L110.65 76.8L93.05 76.8" />
<path fill="#9B9B9B" d="M155 82.5L153.6 82.5L153.05 81.65L159.05 81.65L162.85 81.65L163.45 80.85L164.05 80.85L165.15 80.85L166.25 82.5L164.95 82.5L155 82.5M16.6 58.1L21 52.3L25.6 52.3L24.9 53.25L24.55 53.75L20.75 58.85L22.25 61.3L24.65 65.45L28.15 71.3L30.9 75.95L26.8 75.95L16.6 58.1" />
<radialGradient
id="RadialGradID_69" gradientUnits="userSpaceOnUse" gradientTransform="matrix(0.0255127, 0, 0, 0.0255127, 137.65, 44.4)" spreadMethod ="pad" cx="0" cy="0" r="819.2" fx="0" fy="0" >
<stop  offset="0"  stop-color="#0058FF" />
<stop  offset="0.458824"  stop-color="#00DDFF" />
<stop  offset="1"  stop-color="#0055FF" />
</radialGradient>
<path style="fill:url(#RadialGradID_69) " d="M142.9 47.05L135.45 39.35L128.45 32.25L132.4 25.65L136.4 25.65L132.45 32.25L139.4 39.35L146.85 47.05L146.85 63.15L142.9 63.15L142.9 47.05" />
<path fill="#898989" d="M130.8 61.7L128.35 61.7L128.35 48.5L130.8 48.5L130.8 61.7M152.55 61.7L150.1 61.7L150.1 48.5L152.55 48.5L152.55 61.7" />
<linearGradient
id="LinearGradID_70" gradientUnits="userSpaceOnUse" gradientTransform="matrix(0, 0.00799561, -0.00805664, 0, 132.25, 55.1)" spreadMethod ="pad" x1="-819.2" y1="0" x2="819.2" y2="0" >
<stop  offset="0" stop-color="#0055FF" />
<stop  offset="0.505882" stop-color="#00DDFF" />
<stop  offset="1" stop-color="#0055FF" />
</linearGradient>
<path style="fill:url(#LinearGradID_70) " d="M130.8 48.5L133.75 48.5L133.75 61.7L130.8 61.7L130.8 48.5M152.55 48.5L155.55 48.5L155.55 61.7L152.55 61.7L152.55 48.5" />
<radialGradient
id="RadialGradID_71" gradientUnits="userSpaceOnUse" gradientTransform="matrix(0.00744629, 0, 0, 0.00744629, 114.3, 13.95)" spreadMethod ="pad" cx="0" cy="0" r="819.2" fx="0" fy="0" >
<stop  offset="0"  stop-color="#00DDFF" />
<stop  offset="1"  stop-color="#0055FF" />
</radialGradient>
<path style="fill:url(#RadialGradID_71) " d="M109.4 15.35L108.35 12.5L118.25 12.5L120.2 15.35L109.4 15.35" />
<radialGradient
id="RadialGradID_72" gradientUnits="userSpaceOnUse" gradientTransform="matrix(0.00744629, 0, 0, 0.00744629, 82.35, 13.95)" spreadMethod ="pad" cx="0" cy="0" r="819.2" fx="0" fy="0" >
<stop  offset="0"  stop-color="#00DDFF" />
<stop  offset="1"  stop-color="#0055FF" />
</radialGradient>
<path style="fill:url(#RadialGradID_72) " d="M88.25 15.35L77.45 15.35L76.4 12.5L86.3 12.5L88.25 15.35" />
<linearGradient
id="LinearGradID_73" gradientUnits="userSpaceOnUse" gradientTransform="matrix(0, 0.0140381, -0.0163269, 0, 127.15, 57.85)" spreadMethod ="pad" x1="-819.2" y1="0" x2="819.2" y2="0" >
<stop  offset="0" stop-color="#00DDFF" />
<stop  offset="1" stop-color="#003195" />
</linearGradient>
<path style="fill:url(#LinearGradID_73) " d="M96.95 64.35L97.9 66.15L98.6 67.1Q100 68.9 101.7 69.6L97.8 69.6L97.4 69.4Q96.4 68.9 95.5 67.95L95.25 67.65L94.8 67.15L94.6 66.85L94.1 66.15L93.4 64.75L94.1 66.15L94.6 66.85L94.8 67.15L95.25 67.65L95.5 67.95Q96.4 68.9 97.4 69.4L97.8 69.6L94.1 69.6L92.95 69Q91.8 68.15 90.7 66.75L90.25 66.15L89.3 64.35L90.25 66.15L90.7 66.75Q91.8 68.15 92.95 69L94.1 69.6L90.25 69.6L90.1 69.5Q88.5 68.75 87.2 66.95L86.45 65.95L87.2 66.95Q88.5 68.75 90.1 69.5L90.25 69.6L86.45 69.6L83.95 69.6L80.3 65.55L80.3 65.45L78.95 54.85L78.35 50.25L77.8 46.1L78.8 46.1L82.4 46.1L86.2 46.1L90.05 46.1L93.85 46.1L97.7 46.1L98.05 46.1L101.35 49.15L103.5 51.1L103.5 61.95L103.5 63.9L107.4 69.6L105.55 69.6L101.7 69.6Q100 68.9 98.6 67.1L97.9 66.15L96.95 64.35M88.75 63.25Q86.1 57.35 86.1 49.15L86.1 48.25L86.2 46.1L86.1 48.25L86.1 49.15Q86.1 57.35 88.75 63.25M93 64L92.6 63.25Q89.95 57.35 89.95 49.15L89.95 48.25L90.05 46.1L89.95 48.25L89.95 49.15Q89.95 57.35 92.6 63.25L93 64M84.9 63.25L84.6 62.55Q82.3 56.85 82.3 49.15L82.3 48.25L82.4 46.1L82.3 48.25L82.3 49.15Q82.3 56.85 84.6 62.55L84.9 63.25M100.2 63.25L99.85 62.55Q97.6 56.85 97.6 49.15L97.6 48.25L97.7 46.1L97.6 48.25L97.6 49.15Q97.6 56.85 99.85 62.55L100.2 63.25M96.4 63.25Q93.75 57.35 93.75 49.15L93.75 48.25L93.85 46.1L93.75 48.25L93.75 49.15Q93.75 57.35 96.4 63.25M101.75 65.95L102.8 67.4Q104.1 68.95 105.55 69.6Q104.1 68.95 102.8 67.4L101.75 65.95M103.5 61.95Q102.65 59.7 102.1 57.2Q102.65 59.7 103.5 61.95M81.8 64.35L82.85 66.15Q84.1 68.05 85.5 69.05L85.95 69.35L86.45 69.6L85.95 69.35L85.5 69.05Q84.1 68.05 82.85 66.15L81.8 64.35M85.45 64.35L86.15 65.95L85.45 64.35M100.7 64.35L101.4 65.95L100.7 64.35M101.95 56.3Q101.35 52.95 101.35 49.15Q101.35 52.95 101.95 56.3M81.25 63.25Q80.3 61.15 79.7 58.75Q78.6 54.35 78.6 49.15L78.65 48.25Q78.65 47.15 78.8 46.1Q78.65 47.15 78.65 48.25L78.6 49.15Q78.6 54.35 79.7 58.75Q80.3 61.15 81.25 63.25" />
<radialGradient
id="RadialGradID_74" gradientUnits="userSpaceOnUse" gradientTransform="matrix(0.0255127, 0, 0, 0.0255127, 115.9, 44.4)" spreadMethod ="pad" cx="0" cy="0" r="819.2" fx="0" fy="0" >
<stop  offset="0"  stop-color="#0058FF" />
<stop  offset="0.458824"  stop-color="#00DDFF" />
<stop  offset="1"  stop-color="#0055FF" />
</radialGradient>
<path style="fill:url(#RadialGradID_74) " d="M121.15 47.05L113.6 39.35L106.7 32.25L110.65 25.65L114.65 25.65L110.7 32.25L117.55 39.35L117.6 39.45L125.1 47.05L125.1 63.15L121.15 63.15L121.15 47.05" />
<path fill="#A5A5A5" d="M78.35 50.25L74.75 50.25L74.25 46.1L77.8 46.1L78.35 50.25L78.95 54.85L80.3 65.45L80.3 65.55L83.95 69.6L86.45 69.6L90.25 69.6L94.1 69.6L97.8 69.6L101.7 69.6L105.55 69.6L107.4 69.6L108.9 71.85L84.05 71.85L81.7 71.85L80.15 70.05L80.1 70.05L76.85 66.35L75.35 54.85L78.95 54.85L75.35 54.85L74.75 50.25L78.35 50.25M49 50.25L52.5 50.25L53.1 54.85L54.5 65.45L54.5 65.55L55.25 66.4L58.1 69.6L64.25 69.6L65.95 71.5L66.2 71.85L66 71.85L63.45 71.85L60.85 71.85L58.25 71.85L55.9 71.85L51 66.35L49.55 54.85L49 50.25M53.1 54.85L49.55 54.85L53.1 54.85" />
<path fill="#545454" d="M78.95 71.85L76.35 71.85L73.75 71.85L71.2 71.85L68.6 71.85L66.25 71.85L65.95 71.5L64.25 69.6L61.4 66.4L61.35 66.35L76.85 66.35L80.1 70.05L80.15 70.05L81.7 71.85L81.5 71.85L78.95 71.85M55.9 71.85L55.7 71.85L53.1 71.85L50.55 71.85L47.95 71.85L45.35 71.85L42.8 71.85L40.45 71.85L40.05 71.4L40 71.3L38.5 69.6L38.1 69.15L35.55 66.35L51 66.35L55.9 71.85" />
<path fill="#5B5B5B" d="M29.05 10.15L31.1 0L32.95 0L32.4 10.15L29.05 10.15M56.45 0L58.3 0L57.75 10.15L54.4 10.15L56.45 0" />
<linearGradient
id="LinearGradID_75" gradientUnits="userSpaceOnUse" gradientTransform="matrix(0.0050354, 0, 0, 0.00708008, 39.5, 25.7)" spreadMethod ="pad" x1="-819.2" y1="0" x2="819.2" y2="0" >
<stop  offset="0" stop-color="#0055FF" />
<stop  offset="0.505882" stop-color="#00DDFF" />
<stop  offset="1" stop-color="#0055FF" />
</linearGradient>
<path style="fill:url(#LinearGradID_75) " d="M41.05 19.9L43.65 19.9L37.95 31.5L35.4 31.5L41.05 19.9" />
<linearGradient
id="LinearGradID_76" gradientUnits="userSpaceOnUse" gradientTransform="matrix(0.0050354, 0, 0, 0.00708008, 44.4, 25.7)" spreadMethod ="pad" x1="-819.2" y1="0" x2="819.2" y2="0" >
<stop  offset="0" stop-color="#0055FF" />
<stop  offset="0.505882" stop-color="#00DDFF" />
<stop  offset="1" stop-color="#0055FF" />
</linearGradient>
<path style="fill:url(#LinearGradID_76) " d="M46 19.9L48.55 19.9L42.85 31.5L40.3 31.5L46 19.9" />
<linearGradient
id="LinearGradID_77" gradientUnits="userSpaceOnUse" gradientTransform="matrix(0.00500488, 0, 0, 0.00708008, 54.35, 25.7)" spreadMethod ="pad" x1="-819.2" y1="0" x2="819.2" y2="0" >
<stop  offset="0" stop-color="#0055FF" />
<stop  offset="0.505882" stop-color="#00DDFF" />
<stop  offset="1" stop-color="#0055FF" />
</linearGradient>
<path style="fill:url(#LinearGradID_77) " d="M55.9 19.9L58.45 19.9L52.85 31.5L50.25 31.5L55.9 19.9" />
<linearGradient
id="LinearGradID_78" gradientUnits="userSpaceOnUse" gradientTransform="matrix(0.00506592, 0, 0, 0.00708008, 49.4, 25.7)" spreadMethod ="pad" x1="-819.2" y1="0" x2="819.2" y2="0" >
<stop  offset="0" stop-color="#0055FF" />
<stop  offset="0.505882" stop-color="#00DDFF" />
<stop  offset="1" stop-color="#0055FF" />
</linearGradient>
<path style="fill:url(#LinearGradID_78) " d="M51 19.9L53.55 19.9L47.85 31.5L45.25 31.5L51 19.9" />
<path fill="#494949" d="M8.15 34.05L8.8 33.1L9.4 32.1L9.85 31.45L9.45 32.1L8.8 33.1L9.45 32.1L9.85 31.45L9.95 31.3L11 29.6L12.65 27.15L14.25 24.7L15.9 22.25L36.5 22.25L35.3 24.7L34.1 27.15L32.9 29.6L31.65 32.1L30.7 34.05L8.15 34.05M9.45 32.1L9.4 32.1L9.45 32.1M9.85 32.1L31.65 32.1L9.85 32.1M35.3 24.7L14.25 24.7L35.3 24.7M32.9 29.6L11 29.6L32.9 29.6M12.65 27.15L34.1 27.15L12.65 27.15" />
<path fill="#008ECC" d="M27.8 47.7Q27.8 48.55 27.3 49.2L27.15 49.4L26.65 49.7L26.1 49.8Q25.35 49.8 24.95 49.2Q24.5 48.6 24.45 47.8L24.45 47.7Q24.45 46.8 24.95 46.2L24.95 46.1L27.2 46.1L27.3 46.2Q27.8 46.8 27.8 47.7M31.5 46.2Q32.05 46.8 32.05 47.7Q32.05 48.55 31.5 49.2L30.3 49.8Q29.65 49.8 29.15 49.2Q28.6 48.55 28.6 47.7Q28.6 46.8 29.15 46.2L29.15 46.1L31.5 46.1L31.5 46.2" />
<path fill="#282828" d="M28.4 63.4L25.15 63.4Q25.15 61.75 26.8 60.15L27.85 59.2L28.35 63L28.4 63.4" />
<path fill="#444444" d="M28.7 65.45L26.75 65.45L25.15 63.4L28.4 63.4L28.7 65.45" />
<path fill="#878787" d="M21 52.3L16.6 58.1L0.95 58.1L5.45 52.3L5.55 52.3L21 52.3" />
<path style="fill:none;stroke-width:0.7;stroke-linecap:round;stroke-linejoin:round;stroke-miterlimit:3;stroke:#000000;stroke-opacity:0.298039" d="M207 32.05L209.95 32.05L209.95 49.5L212.85 49.5" />
<path style="fill:none;stroke-width:0.7;stroke-linecap:round;stroke-linejoin:round;stroke-miterlimit:3;stroke:#000000;stroke-opacity:0.301961" d="M205.3 21.3L199.35 21.3L201.15 23.95L207.1 23.95L205.3 21.3z" />
<path style="fill:none;stroke-width:0.7;stroke-linecap:round;stroke-linejoin:round;stroke-miterlimit:3;stroke:#000000;stroke-opacity:0.298039" d="M210.25 25.65L213.25 28.45L213.25 55.45L208.05 63L198.45 63L192.45 67.7L156.25 67.7L157.95 70.3L158.1 70.15L169.65 70.15L173.5 70.15L176.15 73.2L190.85 73.2L194.65 73.2L193.9 76.15L186.75 77.3L183.45 81.65L179.65 81.65L169.3 81.65L168.55 80.85L167.9 80.85L165.15 80.85L166.25 82.5L164.95 82.5L161.75 86.25L151.85 86.25L141.2 86.25L131.25 86.25L120.55 86.25L118.65 83.55L116.8 83.55L111.4 75.55L110.65 76.8L109.3 79L103.6 79L101.8 83.55L94.8 83.55L79.2 83.55L77.25 78.2L76.25 79L75.7 77.35L73.7 79L73.1 77.35L71.1 79L70.5 77.35L68.5 79L67.95 77.35L65.95 79L65.35 77.35L63.35 79L62.75 77.35L60.8 79L60.2 77.35L58.2 79L57.6 77.35L55.6 79L55.05 77.35L53.05 79L52.45 77.35L50.45 79L49.85 77.35L47.85 79L47.4 77.65L45.05 83.55L38.05 83.55L28.9 83.55L27.25 79L23.35 79L22.35 75.95L13.75 75.95L0.95 58.1L5.45 52.3L5.55 52.3L6.5 50.9L0 43.2L0 41.7L0 34.65L2.2 31.3L9.95 31.3L11 29.6L12.65 27.15L14.25 24.7L15.9 22.25L14.5 22.25L16.8 18.2L15.25 18.2L18.55 10.15L21.75 10.15L26.2 0L31.1 0L32.95 0L32.4 10.15L33.65 10.15L37.5 10.15L41.4 10.15L45.25 10.15L47.1 10.15L51.55 0L56.45 0L58.3 0L57.75 10.15L70 10.15L72.6 10.15L87.05 10.15L101.95 10.15L104.55 10.15L119.05 10.15L124.45 18.2L122.75 21.45L130.9 21.45" />
<path style="fill:none;stroke-width:0.7;stroke-linecap:round;stroke-linejoin:round;stroke-miterlimit:3;stroke:#000000;stroke-opacity:0.301961" d="M130.9 21.45L133 19.5L136.5 19.5L140.05 19.5L143.55 19.5L147.05 19.5L150.55 19.5L166.35 19.5L176.85 19.5L181.2 19.5L191.7 19.5L195.45 19.5L195.5 19.5L206 19.5L210.25 25.65L199.7 25.65L195.95 25.65L185.4 25.65L181.1 25.65L170.55 25.65" />
<path style="fill:none;stroke-width:0.7;stroke-linecap:round;stroke-linejoin:round;stroke-miterlimit:3;stroke:#000000;stroke-opacity:0.298039" d="M170.55 25.65L173.55 28.45L213.25 28.45" />
<path style="fill:none;stroke-width:0.7;stroke-linecap:round;stroke-linejoin:round;stroke-miterlimit:3;stroke:#000000;stroke-opacity:0.301961" d="M185.05 21.3L186.85 23.95L192.8 23.95L191 21.3L185.05 21.3z" />
<path style="fill:none;stroke-width:0.7;stroke-linecap:round;stroke-linejoin:round;stroke-miterlimit:3;stroke:#000000;stroke-opacity:0.301961" d="M195.5 19.5L196.7 21.25L199.7 25.65" />
<path style="fill:none;stroke-width:0.7;stroke-linecap:round;stroke-linejoin:round;stroke-miterlimit:3;stroke:#000000;stroke-opacity:0.301961" d="M170.2 21.3L172 23.95L177.95 23.95L176.15 21.3L170.2 21.3z" />
<path style="fill:none;stroke-width:0.7;stroke-linecap:round;stroke-linejoin:round;stroke-miterlimit:3;stroke:#000000;stroke-opacity:0.301961" d="M157.2 39.35L159.65 39.35L163.1 39.35L166.6 39.35L170.05 39.35" />
<path style="fill:none;stroke-width:0.7;stroke-linecap:round;stroke-linejoin:round;stroke-miterlimit:3;stroke:#000000;stroke-opacity:0.298039" d="M170.05 39.35L170.05 49.5L173.55 49.5L173.55 28.45" />
<path style="fill:none;stroke-width:0.7;stroke-linecap:round;stroke-linejoin:round;stroke-miterlimit:3;stroke:#000000;stroke-opacity:0.298039" d="M163.1 45.45L163.1 39.35" />
<path style="fill:none;stroke-width:0.7;stroke-linecap:round;stroke-linejoin:round;stroke-miterlimit:3;stroke:#000000;stroke-opacity:0.298039" d="M164.7 59.4L164.7 47.05L163.1 45.45L159.65 41.85L157.2 39.35L139.4 39.35L146.85 47.05L146.85 63.15L142.9 63.15L136.95 63.15L136.95 47.05L129.5 39.35L117.55 39.35L117.6 39.45L125.1 47.05L125.1 63.15L121.15 63.15L115.3 63.15L115.3 47.05L107.7 39.35L30.1 39.35L8.15 39.35L8.05 40.05L7.8 41.7L7.1 46.1L24.95 46.1L27.2 46.1L29.15 46.1L31.5 46.1L32.95 46.1L74.25 46.1L77.8 46.1L78.8 46.1L82.4 46.1L86.2 46.1L90.05 46.1L93.85 46.1L97.7 46.1L98.05 46.1L101.35 49.15L103.5 51.1L103.5 61.95L103.5 63.9L107.4 69.6L108.9 71.85L110.75 74.6L111.4 75.55" />
<path style="fill:none;stroke-width:0.7;stroke-linecap:round;stroke-linejoin:round;stroke-miterlimit:3;stroke:#000000;stroke-opacity:0.298039" d="M195 32.05L197.95 32.05L197.95 49.5L197.95 51.95L195 51.95L189.45 51.95L189.45 49.5L185.95 49.5L185.95 51.95L183 51.95L177.45 51.95L177.45 49.5L173.55 49.5L173.55 55.45L213.25 55.45" />
<path style="fill:none;stroke-width:0.7;stroke-linecap:round;stroke-linejoin:round;stroke-miterlimit:3;stroke:#000000;stroke-opacity:0.298039" d="M189.45 49.5L189.45 32.05L195 32.05L195 49.5L197.95 49.5" />
<path style="fill:none;stroke-width:0.7;stroke-linecap:round;stroke-linejoin:round;stroke-miterlimit:3;stroke:#000000;stroke-opacity:0.298039" d="M183 32.05L185.95 32.05L185.95 49.5L183 49.5L183 51.95" />
<path style="fill:none;stroke-width:0.7;stroke-linecap:round;stroke-linejoin:round;stroke-miterlimit:3;stroke:#000000;stroke-opacity:0.298039" d="M177.45 49.5L177.45 32.05L183 32.05L183 49.5" />
<path style="fill:none;stroke-width:0.7;stroke-linecap:round;stroke-linejoin:round;stroke-miterlimit:3;stroke:#000000;stroke-opacity:0.301961" d="M191.7 19.5L195.95 25.65" />
<path style="fill:none;stroke-width:0.7;stroke-linecap:round;stroke-linejoin:round;stroke-miterlimit:3;stroke:#000000;stroke-opacity:0.301961" d="M181.1 25.65L176.85 19.5" />
<path style="fill:none;stroke-width:0.7;stroke-linecap:round;stroke-linejoin:round;stroke-miterlimit:3;stroke:#000000;stroke-opacity:0.301961" d="M185.4 25.65L181.2 19.5" />
<path style="fill:none;stroke-width:0.7;stroke-linecap:round;stroke-linejoin:round;stroke-miterlimit:3;stroke:#000000;stroke-opacity:0.301961" d="M166.35 19.5L170.55 25.65L154.75 25.65L151.25 25.65L147.75 25.65L144.25 25.65L140.75 25.65L136.4 25.65" />
<path style="fill:none;stroke-width:0.7;stroke-linecap:round;stroke-linejoin:round;stroke-miterlimit:3;stroke:#000000;stroke-opacity:0.298039" d="M136.4 25.65L132.45 32.25L139.4 39.35" />
<path style="fill:none;stroke-width:0.7;stroke-linecap:round;stroke-linejoin:round;stroke-miterlimit:3;stroke:#000000;stroke-opacity:0.298039" d="M198.25 49.5L201.45 49.5L201.45 32.05L207 32.05L207 49.5L209.95 49.5L209.95 51.95L207 51.95L201.45 51.95L201.45 49.5" />
<path style="fill:none;stroke-width:0.7;stroke-linecap:round;stroke-linejoin:round;stroke-miterlimit:3;stroke:#000000;stroke-opacity:0.298039" d="M195 49.5L195 51.95" />
<path style="fill:none;stroke-width:0.7;stroke-linecap:round;stroke-linejoin:round;stroke-miterlimit:3;stroke:#000000;stroke-opacity:0.298039" d="M170.05 49.5L170.05 54.2L166.6 59.4L164.7 59.4L164.7 63L168.35 63L173.55 55.45" />
<path style="fill:none;stroke-width:0.7;stroke-linecap:round;stroke-linejoin:round;stroke-miterlimit:3;stroke:#000000;stroke-opacity:0.298039" d="M169.65 70.15L171.15 71.8L172.3 73.2L174.05 73.2L176.15 73.2" />
<path style="fill:none;stroke-width:0.7;stroke-linecap:round;stroke-linejoin:round;stroke-miterlimit:3;stroke:#000000;stroke-opacity:0.298039" d="M171.15 71.8L159.95 71.8L158.55 73.2L170.25 73.2L172.3 73.2" />
<path style="fill:none;stroke-width:0.7;stroke-linecap:round;stroke-linejoin:round;stroke-miterlimit:3;stroke:#000000;stroke-opacity:0.298039" d="M165.75 77.8L166.15 77.3L162.35 77.3L159.05 81.65L162.85 81.65L163.45 80.85L163.65 80.6L165.15 78.6L165.75 77.8L166.15 78.2L166.25 78.3L166.45 78.5L167 79.1L167.35 79.5L168.55 80.85" />
<path style="fill:none;stroke-width:0.7;stroke-linecap:round;stroke-linejoin:round;stroke-miterlimit:3;stroke:#000000;stroke-opacity:0.298039" d="M167.9 80.85L166.05 79.6L165.15 78.6" />
<path style="fill:none;stroke-width:0.7;stroke-linecap:round;stroke-linejoin:round;stroke-miterlimit:3;stroke:#000000;stroke-opacity:0.298039" d="M163.45 80.85L164.05 80.85L163.65 80.6" />
<path style="fill:none;stroke-width:0.7;stroke-linecap:round;stroke-linejoin:round;stroke-miterlimit:3;stroke:#000000;stroke-opacity:0.298039" d="M164.05 80.85L165.15 80.85" />
<path style="fill:none;stroke-width:0.7;stroke-linecap:round;stroke-linejoin:round;stroke-miterlimit:3;stroke:#000000;stroke-opacity:0.298039" d="M162.35 77.3L169.5 76.15L170.25 73.2" />
<path style="fill:none;stroke-width:0.7;stroke-linecap:round;stroke-linejoin:round;stroke-miterlimit:3;stroke:#000000;stroke-opacity:0.298039" d="M169.5 76.15L173.3 76.15L174.05 73.2" />
<path style="fill:none;stroke-width:0.7;stroke-linecap:round;stroke-linejoin:round;stroke-miterlimit:3;stroke:#000000;stroke-opacity:0.298039" d="M173.3 76.15L166.15 77.3" />
<path style="fill:none;stroke-width:0.7;stroke-linecap:round;stroke-linejoin:round;stroke-miterlimit:3;stroke:#000000;stroke-opacity:0.298039" d="M190.1 76.15L193.9 76.15" />
<path style="fill:none;stroke-width:0.7;stroke-linecap:round;stroke-linejoin:round;stroke-miterlimit:3;stroke:#000000;stroke-opacity:0.298039" d="M182.95 77.3L190.1 76.15L190.85 73.2" />
<path style="fill:none;stroke-width:0.7;stroke-linecap:round;stroke-linejoin:round;stroke-miterlimit:3;stroke:#000000;stroke-opacity:0.298039" d="M186.75 77.3L182.95 77.3L179.65 81.65" />
<path style="fill:none;stroke-width:0.7;stroke-linecap:round;stroke-linejoin:round;stroke-miterlimit:3;stroke:#000000;stroke-opacity:0.298039" d="M198.45 63L168.35 63" />
<path style="fill:none;stroke-width:0.7;stroke-linecap:round;stroke-linejoin:round;stroke-miterlimit:3;stroke:#000000;stroke-opacity:0.298039" d="M207 51.95L207 49.5" />
<path style="fill:none;stroke-width:0.7;stroke-linecap:round;stroke-linejoin:round;stroke-miterlimit:3;stroke:#000000;stroke-opacity:0.298039" d="M166.6 39.35L166.6 59.4" />
<path style="fill:none;stroke-width:0.7;stroke-linecap:round;stroke-linejoin:round;stroke-miterlimit:3;stroke:#000000;stroke-opacity:0.301961" d="M132.4 25.65L136.4 25.65" />
<path style="fill:none;stroke-width:0.7;stroke-linecap:round;stroke-linejoin:round;stroke-miterlimit:3;stroke:#000000;stroke-opacity:0.298039" d="M122.5 32.25L126.5 25.65" />
<path style="fill:none;stroke-width:0.7;stroke-linecap:round;stroke-linejoin:round;stroke-miterlimit:3;stroke:#000000;stroke-opacity:0.301961" d="M126.5 25.65L132.4 25.65" />
<path style="fill:none;stroke-width:0.7;stroke-linecap:round;stroke-linejoin:round;stroke-miterlimit:3;stroke:#000000;stroke-opacity:0.298039" d="M132.4 25.65L128.45 32.25L135.45 39.35L142.9 47.05L142.9 63.15" />
<path style="fill:none;stroke-width:0.7;stroke-linecap:round;stroke-linejoin:round;stroke-miterlimit:3;stroke:#000000;stroke-opacity:0.298039" d="M128.45 32.25L122.5 32.25L129.5 39.35L135.45 39.35" />
<path style="fill:none;stroke-width:0.7;stroke-linecap:round;stroke-linejoin:round;stroke-miterlimit:3;stroke:#000000;stroke-opacity:0.298039" d="M130.8 61.7L128.35 61.7L128.35 48.5L130.8 48.5L133.75 48.5L133.75 61.7L130.8 61.7L130.8 48.5" />
<path style="fill:none;stroke-width:0.7;stroke-linecap:round;stroke-linejoin:round;stroke-miterlimit:3;stroke:#000000;stroke-opacity:0.298039" d="M152.55 48.5L155.55 48.5L155.55 61.7L152.55 61.7L150.1 61.7L150.1 48.5L152.55 48.5L152.55 61.7" />
<path style="fill:none;stroke-width:0.7;stroke-linecap:round;stroke-linejoin:round;stroke-miterlimit:3;stroke:#000000;stroke-opacity:0.298039" d="M159.65 39.35L159.65 41.85" />
<path style="fill:none;stroke-width:0.7;stroke-linecap:round;stroke-linejoin:round;stroke-miterlimit:3;stroke:#000000;stroke-opacity:0.301961" d="M136.5 19.5L140.75 25.65" />
<path style="fill:none;stroke-width:0.7;stroke-linecap:round;stroke-linejoin:round;stroke-miterlimit:3;stroke:#000000;stroke-opacity:0.301961" d="M144.25 25.65L140.05 19.5" />
<path style="fill:none;stroke-width:0.7;stroke-linecap:round;stroke-linejoin:round;stroke-miterlimit:3;stroke:#000000;stroke-opacity:0.301961" d="M147.05 19.5L151.25 25.65" />
<path style="fill:none;stroke-width:0.7;stroke-linecap:round;stroke-linejoin:round;stroke-miterlimit:3;stroke:#000000;stroke-opacity:0.301961" d="M150.55 19.5L154.75 25.65" />
<path style="fill:none;stroke-width:0.7;stroke-linecap:round;stroke-linejoin:round;stroke-miterlimit:3;stroke:#000000;stroke-opacity:0.301961" d="M143.55 19.5L147.75 25.65" />
<path style="fill:none;stroke-width:0.7;stroke-linecap:round;stroke-linejoin:round;stroke-miterlimit:3;stroke:#000000;stroke-opacity:0.298039" d="M142.9 47.05L136.95 47.05" />
<path style="fill:none;stroke-width:0.7;stroke-linecap:round;stroke-linejoin:round;stroke-miterlimit:3;stroke:#000000;stroke-opacity:0.298039" d="M120.2 15.35L118.25 12.5L108.35 12.5L109.4 15.35L120.2 15.35z" />
<path style="fill:none;stroke-width:0.7;stroke-linecap:round;stroke-linejoin:round;stroke-miterlimit:3;stroke:#000000;stroke-opacity:0.298039" d="M107.4 18.2L105.7 21.45L122.75 21.45" />
<path style="fill:none;stroke-width:0.7;stroke-linecap:round;stroke-linejoin:round;stroke-miterlimit:3;stroke:#000000;stroke-opacity:0.298039" d="M107.4 18.2L104.55 10.15" />
<path style="fill:none;stroke-width:0.7;stroke-linecap:round;stroke-linejoin:round;stroke-miterlimit:3;stroke:#000000;stroke-opacity:0.298039" d="M86.3 12.5L76.4 12.5L77.45 15.35L88.25 15.35L86.3 12.5z" />
<path style="fill:none;stroke-width:0.7;stroke-linecap:round;stroke-linejoin:round;stroke-miterlimit:3;stroke:#000000;stroke-opacity:0.298039" d="M101.95 10.15L100.3 14.2L89.85 14.2L92.5 18.2L90.8 21.45L105.7 21.45" />
<path style="fill:none;stroke-width:0.7;stroke-linecap:round;stroke-linejoin:round;stroke-miterlimit:3;stroke:#000000;stroke-opacity:0.298039" d="M89.85 14.2L87.05 10.15" />
<path style="fill:none;stroke-width:0.7;stroke-linecap:round;stroke-linejoin:round;stroke-miterlimit:3;stroke:#000000;stroke-opacity:0.298039" d="M86.2 46.1L86.1 48.25L86.1 49.15Q86.1 57.35 88.75 63.25" />
<path style="fill:none;stroke-width:0.7;stroke-linecap:round;stroke-linejoin:round;stroke-miterlimit:3;stroke:#000000;stroke-opacity:0.298039" d="M90.05 46.1L89.95 48.25L89.95 49.15Q89.95 57.35 92.6 63.25L93 64" />
<path style="fill:none;stroke-width:0.7;stroke-linecap:round;stroke-linejoin:round;stroke-miterlimit:3;stroke:#000000;stroke-opacity:0.298039" d="M82.4 46.1L82.3 48.25L82.3 49.15Q82.3 56.85 84.6 62.55L84.9 63.25" />
<path style="fill:none;stroke-width:0.7;stroke-linecap:round;stroke-linejoin:round;stroke-miterlimit:3;stroke:#000000;stroke-opacity:0.298039" d="M97.7 46.1L97.6 48.25L97.6 49.15Q97.6 56.85 99.85 62.55L100.2 63.25" />
<path style="fill:none;stroke-width:0.7;stroke-linecap:round;stroke-linejoin:round;stroke-miterlimit:3;stroke:#000000;stroke-opacity:0.298039" d="M93.85 46.1L93.75 48.25L93.75 49.15Q93.75 57.35 96.4 63.25" />
<path style="fill:none;stroke-width:0.7;stroke-linecap:round;stroke-linejoin:round;stroke-miterlimit:3;stroke:#000000;stroke-opacity:0.298039" d="M100.7 32.25L104.75 25.65L110.65 25.65L114.65 25.65L110.7 32.25L117.55 39.35" />
<path style="fill:none;stroke-width:0.7;stroke-linecap:round;stroke-linejoin:round;stroke-miterlimit:3;stroke:#000000;stroke-opacity:0.298039" d="M110.65 25.65L106.7 32.25L113.6 39.35L121.15 47.05L121.15 63.15" />
<path style="fill:none;stroke-width:0.7;stroke-linecap:round;stroke-linejoin:round;stroke-miterlimit:3;stroke:#000000;stroke-opacity:0.298039" d="M121.15 47.05L115.3 47.05" />
<path style="fill:none;stroke-width:0.7;stroke-linecap:round;stroke-linejoin:round;stroke-miterlimit:3;stroke:#000000;stroke-opacity:0.298039" d="M107.7 39.35L113.6 39.35" />
<path style="fill:none;stroke-width:0.7;stroke-linecap:round;stroke-linejoin:round;stroke-miterlimit:3;stroke:#000000;stroke-opacity:0.298039" d="M100.7 32.25L107.7 39.35" />
<path style="fill:none;stroke-width:0.7;stroke-linecap:round;stroke-linejoin:round;stroke-miterlimit:3;stroke:#000000;stroke-opacity:0.298039" d="M106.7 32.25L100.7 32.25" />
<path style="fill:none;stroke-width:0.7;stroke-linecap:round;stroke-linejoin:round;stroke-miterlimit:3;stroke:#000000;stroke-opacity:0.298039" d="M105.55 69.6L107.4 69.6" />
<path style="fill:none;stroke-width:0.7;stroke-linecap:round;stroke-linejoin:round;stroke-miterlimit:3;stroke:#000000;stroke-opacity:0.298039" d="M101.7 69.6L105.55 69.6Q104.1 68.95 102.8 67.4L101.75 65.95" />
<path style="fill:none;stroke-width:0.7;stroke-linecap:round;stroke-linejoin:round;stroke-miterlimit:3;stroke:#000000;stroke-opacity:0.298039" d="M102.1 57.2Q102.65 59.7 103.5 61.95" />
<path style="fill:none;stroke-width:0.7;stroke-linecap:round;stroke-linejoin:round;stroke-miterlimit:3;stroke:#000000;stroke-opacity:0.298039" d="M94.1 69.6L92.95 69Q91.8 68.15 90.7 66.75L90.25 66.15L89.3 64.35" />
<path style="fill:none;stroke-width:0.7;stroke-linecap:round;stroke-linejoin:round;stroke-miterlimit:3;stroke:#000000;stroke-opacity:0.298039" d="M90.25 69.6L90.1 69.5Q88.5 68.75 87.2 66.95L86.45 65.95" />
<path style="fill:none;stroke-width:0.7;stroke-linecap:round;stroke-linejoin:round;stroke-miterlimit:3;stroke:#000000;stroke-opacity:0.298039" d="M86.45 69.6L85.95 69.35L85.5 69.05Q84.1 68.05 82.85 66.15L81.8 64.35" />
<path style="fill:none;stroke-width:0.7;stroke-linecap:round;stroke-linejoin:round;stroke-miterlimit:3;stroke:#000000;stroke-opacity:0.298039" d="M81.7 71.85L81.5 71.85L83.4 77.35L84 79L86 77.35L84.8 74L84.05 71.85L81.7 71.85L80.15 70.05L80.1 70.05L76.85 66.35L61.35 66.35L61.4 66.4L64.25 69.6L65.95 71.5L66.25 71.85L68.6 71.85L71.2 71.85L73.75 71.85L76.35 71.85L78.95 71.85L81.5 71.85" />
<path style="fill:none;stroke-width:0.7;stroke-linecap:round;stroke-linejoin:round;stroke-miterlimit:3;stroke:#000000;stroke-opacity:0.298039" d="M86.45 69.6L90.25 69.6L94.1 69.6L97.8 69.6L97.4 69.4Q96.4 68.9 95.5 67.95L95.25 67.65L94.8 67.15L94.6 66.85L94.1 66.15L93.4 64.75" />
<path style="fill:none;stroke-width:0.7;stroke-linecap:round;stroke-linejoin:round;stroke-miterlimit:3;stroke:#000000;stroke-opacity:0.298039" d="M86.15 65.95L85.45 64.35" />
<path style="fill:none;stroke-width:0.7;stroke-linecap:round;stroke-linejoin:round;stroke-miterlimit:3;stroke:#000000;stroke-opacity:0.298039" d="M93.05 76.8L90.95 76.8L89.95 74L84.8 74" />
<path style="fill:none;stroke-width:0.7;stroke-linecap:round;stroke-linejoin:round;stroke-miterlimit:3;stroke:#000000;stroke-opacity:0.298039" d="M77.8 46.1L78.35 50.25L78.95 54.85L80.3 65.45L80.3 65.55L83.95 69.6L86.45 69.6" />
<path style="fill:none;stroke-width:0.7;stroke-linecap:round;stroke-linejoin:round;stroke-miterlimit:3;stroke:#000000;stroke-opacity:0.298039" d="M101.7 69.6Q100 68.9 98.6 67.1L97.9 66.15L96.95 64.35" />
<path style="fill:none;stroke-width:0.7;stroke-linecap:round;stroke-linejoin:round;stroke-miterlimit:3;stroke:#000000;stroke-opacity:0.298039" d="M96.2 79L94.8 83.55" />
<path style="fill:none;stroke-width:0.7;stroke-linecap:round;stroke-linejoin:round;stroke-miterlimit:3;stroke:#000000;stroke-opacity:0.298039" d="M96.2 79L92 79L86.6 79L86 77.35" />
<path style="fill:none;stroke-width:0.7;stroke-linecap:round;stroke-linejoin:round;stroke-miterlimit:3;stroke:#000000;stroke-opacity:0.298039" d="M92 79L93.05 76.8L94.05 74.6L92.9 72.1" />
<path style="fill:none;stroke-width:0.7;stroke-linecap:round;stroke-linejoin:round;stroke-miterlimit:3;stroke:#000000;stroke-opacity:0.298039" d="M83.4 77.35L81.45 79L80.85 77.35L78.85 79L78.25 77.35L77.25 78.2" />
<path style="fill:none;stroke-width:0.7;stroke-linecap:round;stroke-linejoin:round;stroke-miterlimit:3;stroke:#000000;stroke-opacity:0.298039" d="M97.8 69.6L101.7 69.6" />
<path style="fill:none;stroke-width:0.7;stroke-linecap:round;stroke-linejoin:round;stroke-miterlimit:3;stroke:#000000;stroke-opacity:0.298039" d="M101.4 65.95L100.7 64.35" />
<path style="fill:none;stroke-width:0.7;stroke-linecap:round;stroke-linejoin:round;stroke-miterlimit:3;stroke:#000000;stroke-opacity:0.298039" d="M103.6 79L96.2 79" />
<path style="fill:none;stroke-width:0.7;stroke-linecap:round;stroke-linejoin:round;stroke-miterlimit:3;stroke:#000000;stroke-opacity:0.298039" d="M108.9 71.85L84.05 71.85" />
<path style="fill:none;stroke-width:0.7;stroke-linecap:round;stroke-linejoin:round;stroke-miterlimit:3;stroke:#000000;stroke-opacity:0.298039" d="M110.65 76.8L93.05 76.8" />
<path style="fill:none;stroke-width:0.7;stroke-linecap:round;stroke-linejoin:round;stroke-miterlimit:3;stroke:#000000;stroke-opacity:0.298039" d="M94.05 74.6L110.75 74.6" />
<path style="fill:none;stroke-width:0.7;stroke-linecap:round;stroke-linejoin:round;stroke-miterlimit:3;stroke:#000000;stroke-opacity:0.298039" d="M149.1 70.15L150.55 71.8L151.75 73.2L155.6 73.2L154.3 71.7L152.95 70.15L149.1 70.15L145.3 70.15L137.5 70.15L137.4 70.3L136 71.7L129.95 71.7L131.1 73.3L137.85 73.3L139.4 71.8L150.55 71.8" />
<path style="fill:none;stroke-width:0.7;stroke-linecap:round;stroke-linejoin:round;stroke-miterlimit:3;stroke:#000000;stroke-opacity:0.298039" d="M151.75 73.2L143.25 73.2L143.65 74.9" />
<path style="fill:none;stroke-width:0.7;stroke-linecap:round;stroke-linejoin:round;stroke-miterlimit:3;stroke:#000000;stroke-opacity:0.298039" d="M143.7 75.05L143.7 75.1L144.1 76.6L145.1 77.65L145.55 78.2L145.65 78.3L145.9 78.5L146.45 79.1L146.75 79.5L147.95 80.85L148.7 81.65L152.05 81.65L153.05 81.65L159.05 81.65" />
<path style="fill:none;stroke-width:0.7;stroke-linecap:round;stroke-linejoin:round;stroke-miterlimit:3;stroke:#000000;stroke-opacity:0.298039" d="M152.75 67.7L143.6 67.7L145.3 70.15" />
<path style="fill:none;stroke-width:0.7;stroke-linecap:round;stroke-linejoin:round;stroke-miterlimit:3;stroke:#000000;stroke-opacity:0.298039" d="M156.25 67.7L152.75 67.7L158.75 63L164.7 63" />
<path style="fill:none;stroke-width:0.7;stroke-linecap:round;stroke-linejoin:round;stroke-miterlimit:3;stroke:#000000;stroke-opacity:0.298039" d="M154.3 71.7L156.55 71.7L157.95 70.3" />
<path style="fill:none;stroke-width:0.7;stroke-linecap:round;stroke-linejoin:round;stroke-miterlimit:3;stroke:#000000;stroke-opacity:0.298039" d="M158.55 73.2L155.6 73.2" />
<path style="fill:none;stroke-width:0.7;stroke-linecap:round;stroke-linejoin:round;stroke-miterlimit:3;stroke:#000000;stroke-opacity:0.298039" d="M137.4 70.3L135.65 67.7L123.05 67.7L133 82.5L134.4 82.5L144.35 82.5L145.65 82.5L144.6 80.85L143.45 80.85L139.65 80.85L135.8 80.85L135.45 80.65L134.5 80.05L134 79.6Q132.7 78.4 132.35 76.8L132.25 75.95L132.25 74.9L131.1 73.3" />
<path style="fill:none;stroke-width:0.7;stroke-linecap:round;stroke-linejoin:round;stroke-miterlimit:3;stroke:#000000;stroke-opacity:0.298039" d="M143.45 80.85L141.65 79.6Q139.6 77.75 139.95 74.9L136.1 74.9Q135.8 77.75 137.8 79.6L139.65 80.85" />
<path style="fill:none;stroke-width:0.7;stroke-linecap:round;stroke-linejoin:round;stroke-miterlimit:3;stroke:#000000;stroke-opacity:0.298039" d="M136.1 74.9L132.25 74.9" />
<path style="fill:none;stroke-width:0.7;stroke-linecap:round;stroke-linejoin:round;stroke-miterlimit:3;stroke:#000000;stroke-opacity:0.298039" d="M134.4 82.5L131.25 86.25" />
<path style="fill:none;stroke-width:0.7;stroke-linecap:round;stroke-linejoin:round;stroke-miterlimit:3;stroke:#000000;stroke-opacity:0.298039" d="M155 82.5L153.6 82.5L153.05 81.65" />
<path style="fill:none;stroke-width:0.7;stroke-linecap:round;stroke-linejoin:round;stroke-miterlimit:3;stroke:#000000;stroke-opacity:0.298039" d="M143.65 74.9L143.7 75.05" />
<path style="fill:none;stroke-width:0.7;stroke-linecap:round;stroke-linejoin:round;stroke-miterlimit:3;stroke:#000000;stroke-opacity:0.298039" d="M143.7 75.1Q143.5 77.8 145.45 79.6L147.3 80.85L147.95 80.85" />
<path style="fill:none;stroke-width:0.7;stroke-linecap:round;stroke-linejoin:round;stroke-miterlimit:3;stroke:#000000;stroke-opacity:0.298039" d="M141.2 86.25L143.5 83.55L144.35 82.5" />
<path style="fill:none;stroke-width:0.7;stroke-linecap:round;stroke-linejoin:round;stroke-miterlimit:3;stroke:#000000;stroke-opacity:0.298039" d="M144.6 80.85L147.3 80.85" />
<path style="fill:none;stroke-width:0.7;stroke-linecap:round;stroke-linejoin:round;stroke-miterlimit:3;stroke:#000000;stroke-opacity:0.298039" d="M152.05 81.65L150.45 83.55L143.5 83.55" />
<path style="fill:none;stroke-width:0.7;stroke-linecap:round;stroke-linejoin:round;stroke-miterlimit:3;stroke:#000000;stroke-opacity:0.298039" d="M155 82.5L151.85 86.25" />
<path style="fill:none;stroke-width:0.7;stroke-linecap:round;stroke-linejoin:round;stroke-miterlimit:3;stroke:#000000;stroke-opacity:0.298039" d="M143.6 67.7L135.65 67.7" />
<path style="fill:none;stroke-width:0.7;stroke-linecap:round;stroke-linejoin:round;stroke-miterlimit:3;stroke:#000000;stroke-opacity:0.298039" d="M143.65 74.9L139.95 74.9" />
<path style="fill:none;stroke-width:0.7;stroke-linecap:round;stroke-linejoin:round;stroke-miterlimit:3;stroke:#000000;stroke-opacity:0.298039" d="M124.45 18.2L107.4 18.2" />
<path style="fill:none;stroke-width:0.7;stroke-linecap:round;stroke-linejoin:round;stroke-miterlimit:3;stroke:#000000;stroke-opacity:0.298039" d="M101.35 49.15Q101.35 52.95 101.95 56.3" />
<path style="fill:none;stroke-width:0.7;stroke-linecap:round;stroke-linejoin:round;stroke-miterlimit:3;stroke:#000000;stroke-opacity:0.298039" d="M70 10.15L68.35 14.2L43.55 14.2L41.9 18.2L38.5 18.2L36.5 22.25L35.3 24.7L34.1 27.15L32.9 29.6L31.65 32.1L30.7 34.05L30.1 35.3L66.95 35.3L75.4 18.2L72.6 10.15" />
<path style="fill:none;stroke-width:0.7;stroke-linecap:round;stroke-linejoin:round;stroke-miterlimit:3;stroke:#000000;stroke-opacity:0.298039" d="M54.4 10.15L47.1 10.15" />
<path style="fill:none;stroke-width:0.7;stroke-linecap:round;stroke-linejoin:round;stroke-miterlimit:3;stroke:#000000;stroke-opacity:0.298039" d="M54.4 10.15L56.45 0" />
<path style="fill:none;stroke-width:0.7;stroke-linecap:round;stroke-linejoin:round;stroke-miterlimit:3;stroke:#000000;stroke-opacity:0.298039" d="M46 19.9L48.55 19.9L42.85 31.5L40.3 31.5L39 31.5L44.8 19.9L46 19.9L40.3 31.5" />
<path style="fill:none;stroke-width:0.7;stroke-linecap:round;stroke-linejoin:round;stroke-miterlimit:3;stroke:#000000;stroke-opacity:0.298039" d="M35.4 31.5L37.95 31.5L43.65 19.9L41.05 19.9L35.4 31.5L34.05 31.5L39.8 19.9L41.05 19.9" />
<path style="fill:none;stroke-width:0.7;stroke-linecap:round;stroke-linejoin:round;stroke-miterlimit:3;stroke:#000000;stroke-opacity:0.298039" d="M51 19.9L53.55 19.9L47.85 31.5L45.25 31.5L44 31.5L49.75 19.9L51 19.9L45.25 31.5" />
<path style="fill:none;stroke-width:0.7;stroke-linecap:round;stroke-linejoin:round;stroke-miterlimit:3;stroke:#000000;stroke-opacity:0.298039" d="M55.9 19.9L58.45 19.9L52.85 31.5L50.25 31.5L48.95 31.5L54.7 19.9L55.9 19.9L50.25 31.5" />
<path style="fill:none;stroke-width:0.7;stroke-linecap:round;stroke-linejoin:round;stroke-miterlimit:3;stroke:#000000;stroke-opacity:0.298039" d="M45.25 10.15L43.55 14.2" />
<path style="fill:none;stroke-width:0.7;stroke-linecap:round;stroke-linejoin:round;stroke-miterlimit:3;stroke:#000000;stroke-opacity:0.298039" d="M78.8 46.1Q78.65 47.15 78.65 48.25L78.6 49.15Q78.6 54.35 79.7 58.75Q80.3 61.15 81.25 63.25" />
<path style="fill:none;stroke-width:0.7;stroke-linecap:round;stroke-linejoin:round;stroke-miterlimit:3;stroke:#000000;stroke-opacity:0.298039" d="M66.95 35.3L71.7 35.3L78.45 21.45L90.8 21.45" />
<path style="fill:none;stroke-width:0.7;stroke-linecap:round;stroke-linejoin:round;stroke-miterlimit:3;stroke:#000000;stroke-opacity:0.298039" d="M21.75 10.15L29.05 10.15L31.1 0" />
<path style="fill:none;stroke-width:0.7;stroke-linecap:round;stroke-linejoin:round;stroke-miterlimit:3;stroke:#000000;stroke-opacity:0.298039" d="M38.05 18.2L34.15 18.2L30.3 18.2L16.8 18.2" />
<path style="fill:none;stroke-width:0.7;stroke-linecap:round;stroke-linejoin:round;stroke-miterlimit:3;stroke:#000000;stroke-opacity:0.298039" d="M33.65 10.15L30.3 18.2" />
<path style="fill:none;stroke-width:0.7;stroke-linecap:round;stroke-linejoin:round;stroke-miterlimit:3;stroke:#000000;stroke-opacity:0.298039" d="M29.05 10.15L32.4 10.15" />
<path style="fill:none;stroke-width:0.7;stroke-linecap:round;stroke-linejoin:round;stroke-miterlimit:3;stroke:#000000;stroke-opacity:0.298039" d="M34.15 18.2L37.5 10.15" />
<path style="fill:none;stroke-width:0.7;stroke-linecap:round;stroke-linejoin:round;stroke-miterlimit:3;stroke:#000000;stroke-opacity:0.298039" d="M4.7 37.55L4.7 34.9L6.2 32.65L3.6 32.65L1.9 35.25L1.9 37.85L8.15 37.85L8.15 34.05L8.8 33.1L9.4 32.1L9.85 31.45L9.95 31.3" />
<path style="fill:none;stroke-width:0.7;stroke-linecap:round;stroke-linejoin:round;stroke-miterlimit:3;stroke:#000000;stroke-opacity:0.298039" d="M9.4 32.1L9.45 32.1L9.85 31.45" />
<path style="fill:none;stroke-width:0.7;stroke-linecap:round;stroke-linejoin:round;stroke-miterlimit:3;stroke:#000000;stroke-opacity:0.298039" d="M9.45 32.1L8.8 33.1" />
<path style="fill:none;stroke-width:0.7;stroke-linecap:round;stroke-linejoin:round;stroke-miterlimit:3;stroke:#000000;stroke-opacity:0.298039" d="M8.15 37.85L8.15 39.35" />
<path style="fill:none;stroke-width:0.7;stroke-linecap:round;stroke-linejoin:round;stroke-miterlimit:3;stroke:#000000;stroke-opacity:0.298039" d="M1.9 37.85L1.9 40.05L8.05 40.05" />
<path style="fill:none;stroke-width:0.7;stroke-linecap:round;stroke-linejoin:round;stroke-miterlimit:3;stroke:#000000;stroke-opacity:0.298039" d="M0 41.7L2.55 41.7L7.8 41.7" />
<path style="fill:none;stroke-width:0.7;stroke-linecap:round;stroke-linejoin:round;stroke-miterlimit:3;stroke:#000000;stroke-opacity:0.298039" d="M2.55 41.7L8.45 48.65L21.65 48.65L24.5 50.9L24.65 51.05L26.85 51.05L26.65 49.7L26.1 49.8Q25.35 49.8 24.95 49.2Q24.5 48.6 24.45 47.8L24.45 47.7Q24.45 46.8 24.95 46.2" />
<path style="fill:none;stroke-width:0.7;stroke-linecap:round;stroke-linejoin:round;stroke-miterlimit:3;stroke:#000000;stroke-opacity:0.298039" d="M29.15 46.2Q28.6 46.8 28.6 47.7Q28.6 48.55 29.15 49.2Q29.65 49.8 30.3 49.8L31.5 49.2Q32.05 48.55 32.05 47.7Q32.05 46.8 31.5 46.2" />
<path style="fill:none;stroke-width:0.7;stroke-linecap:round;stroke-linejoin:round;stroke-miterlimit:3;stroke:#000000;stroke-opacity:0.298039" d="M26.65 49.7L27.15 49.4L27.3 49.2Q27.8 48.55 27.8 47.7Q27.8 46.8 27.3 46.2" />
<path style="fill:none;stroke-width:0.7;stroke-linecap:round;stroke-linejoin:round;stroke-miterlimit:3;stroke:#000000;stroke-opacity:0.298039" d="M30.1 39.35L30.1 35.3" />
<path style="fill:none;stroke-width:0.7;stroke-linecap:round;stroke-linejoin:round;stroke-miterlimit:3;stroke:#000000;stroke-opacity:0.298039" d="M31.65 32.1L9.85 32.1" />
<path style="fill:none;stroke-width:0.7;stroke-linecap:round;stroke-linejoin:round;stroke-miterlimit:3;stroke:#000000;stroke-opacity:0.298039" d="M8.15 34.05L30.7 34.05" />
<path style="fill:none;stroke-width:0.7;stroke-linecap:round;stroke-linejoin:round;stroke-miterlimit:3;stroke:#000000;stroke-opacity:0.298039" d="M15.9 22.25L36.5 22.25" />
<path style="fill:none;stroke-width:0.7;stroke-linecap:round;stroke-linejoin:round;stroke-miterlimit:3;stroke:#000000;stroke-opacity:0.298039" d="M14.25 24.7L35.3 24.7" />
<path style="fill:none;stroke-width:0.7;stroke-linecap:round;stroke-linejoin:round;stroke-miterlimit:3;stroke:#000000;stroke-opacity:0.298039" d="M11 29.6L32.9 29.6" />
<path style="fill:none;stroke-width:0.7;stroke-linecap:round;stroke-linejoin:round;stroke-miterlimit:3;stroke:#000000;stroke-opacity:0.298039" d="M34.1 27.15L12.65 27.15" />
<path style="fill:none;stroke-width:0.7;stroke-linecap:round;stroke-linejoin:round;stroke-miterlimit:3;stroke:#000000;stroke-opacity:0.298039" d="M35.1 63L34.1 54.9L33.5 50.25L32.95 46.1" />
<path style="fill:none;stroke-width:0.7;stroke-linecap:round;stroke-linejoin:round;stroke-miterlimit:3;stroke:#000000;stroke-opacity:0.298039" d="M26.85 51.05L27.1 53.25L27.7 57.85L27.85 59.2L28.35 63L35.1 63L35.55 66.35L51 66.35L49.55 54.85L34.1 54.9" />
<path style="fill:none;stroke-width:0.7;stroke-linecap:round;stroke-linejoin:round;stroke-miterlimit:3;stroke:#000000;stroke-opacity:0.298039" d="M26.8 75.95L30.9 75.95L28.15 71.3L24.65 65.45L22.25 61.3L20.75 58.85L24.55 53.75L24.9 53.25L25.6 52.3L21 52.3L16.6 58.1L26.8 75.95L22.35 75.95" />
<path style="fill:none;stroke-width:0.7;stroke-linecap:round;stroke-linejoin:round;stroke-miterlimit:3;stroke:#000000;stroke-opacity:0.298039" d="M24.55 53.75Q25.45 55.9 26.8 57.85L27.7 57.85" />
<path style="fill:none;stroke-width:0.7;stroke-linecap:round;stroke-linejoin:round;stroke-miterlimit:3;stroke:#000000;stroke-opacity:0.298039" d="M27.85 59.2L26.8 60.15Q25.15 61.75 25.15 63.4L28.4 63.4L28.35 63" />
<path style="fill:none;stroke-width:0.7;stroke-linecap:round;stroke-linejoin:round;stroke-miterlimit:3;stroke:#000000;stroke-opacity:0.298039" d="M27.1 53.25L24.9 53.25" />
<path style="fill:none;stroke-width:0.7;stroke-linecap:round;stroke-linejoin:round;stroke-miterlimit:3;stroke:#000000;stroke-opacity:0.298039" d="M22.25 61.3Q23.35 59.2 26.8 57.85" />
<path style="fill:none;stroke-width:0.7;stroke-linecap:round;stroke-linejoin:round;stroke-miterlimit:3;stroke:#000000;stroke-opacity:0.298039" d="M25.15 63.4L26.75 65.45L28.7 65.45L28.4 63.4" />
<path style="fill:none;stroke-width:0.7;stroke-linecap:round;stroke-linejoin:round;stroke-miterlimit:3;stroke:#000000;stroke-opacity:0.298039" d="M35.55 66.35L29.45 66.35L30.05 67L30.55 67.65L32.25 69.55L32.3 69.6L38.5 69.6L38.1 69.15L35.55 66.35z" />
<path style="fill:none;stroke-width:0.7;stroke-linecap:round;stroke-linejoin:round;stroke-miterlimit:3;stroke:#000000;stroke-opacity:0.298039" d="M28.7 65.45L28.7 65.55L29.45 66.35" />
<path style="fill:none;stroke-width:0.7;stroke-linecap:round;stroke-linejoin:round;stroke-miterlimit:3;stroke:#000000;stroke-opacity:0.298039" d="M24.65 65.45L26.75 65.45" />
<path style="fill:none;stroke-width:0.7;stroke-linecap:round;stroke-linejoin:round;stroke-miterlimit:3;stroke:#000000;stroke-opacity:0.298039" d="M38.5 69.6L40 71.3L40.05 71.4L40.45 71.85L42.8 71.85L45.35 71.85L47.95 71.85L50.55 71.85L53.1 71.85L55.7 71.85L55.9 71.85L51 66.35" />
<path style="fill:none;stroke-width:0.7;stroke-linecap:round;stroke-linejoin:round;stroke-miterlimit:3;stroke:#000000;stroke-opacity:0.298039" d="M40 71.3L28.15 71.3" />
<path style="fill:none;stroke-width:0.7;stroke-linecap:round;stroke-linejoin:round;stroke-miterlimit:3;stroke:#000000;stroke-opacity:0.298039" d="M0.95 58.1L16.6 58.1" />
<path style="fill:none;stroke-width:0.7;stroke-linecap:round;stroke-linejoin:round;stroke-miterlimit:3;stroke:#000000;stroke-opacity:0.298039" d="M39.45 79L27.25 79" />
<path style="fill:none;stroke-width:0.7;stroke-linecap:round;stroke-linejoin:round;stroke-miterlimit:3;stroke:#000000;stroke-opacity:0.298039" d="M47.4 77.65L47.3 77.35L45.3 79L44.7 77.35L42.7 79L39.45 79L38.05 83.55" />
<path style="fill:none;stroke-width:0.7;stroke-linecap:round;stroke-linejoin:round;stroke-miterlimit:3;stroke:#000000;stroke-opacity:0.298039" d="M24.5 50.9L6.5 50.9" />
<path style="fill:none;stroke-width:0.7;stroke-linecap:round;stroke-linejoin:round;stroke-miterlimit:3;stroke:#000000;stroke-opacity:0.298039" d="M21 52.3L5.55 52.3" />
<path style="fill:none;stroke-width:0.7;stroke-linecap:round;stroke-linejoin:round;stroke-miterlimit:3;stroke:#000000;stroke-opacity:0.298039" d="M75.35 54.85L78.95 54.85" />
<path style="fill:none;stroke-width:0.7;stroke-linecap:round;stroke-linejoin:round;stroke-miterlimit:3;stroke:#000000;stroke-opacity:0.298039" d="M74.75 50.25L75.35 54.85L76.85 66.35" />
<path style="fill:none;stroke-width:0.7;stroke-linecap:round;stroke-linejoin:round;stroke-miterlimit:3;stroke:#000000;stroke-opacity:0.298039" d="M78.35 50.25L74.75 50.25L74.25 46.1" />
<path style="fill:none;stroke-width:0.7;stroke-linecap:round;stroke-linejoin:round;stroke-miterlimit:3;stroke:#000000;stroke-opacity:0.298039" d="M55.9 71.85L58.25 71.85L60.85 71.85L63.45 71.85L66 71.85L66.2 71.85" />
<path style="fill:none;stroke-width:0.7;stroke-linecap:round;stroke-linejoin:round;stroke-miterlimit:3;stroke:#000000;stroke-opacity:0.298039" d="M66.25 71.85L66.2 71.85" />
<path style="fill:none;stroke-width:0.7;stroke-linecap:round;stroke-linejoin:round;stroke-miterlimit:3;stroke:#000000;stroke-opacity:0.298039" d="M52.5 50.25L53.1 54.85L54.5 65.45L54.5 65.55L55.25 66.4L61.4 66.4" />
<path style="fill:none;stroke-width:0.7;stroke-linecap:round;stroke-linejoin:round;stroke-miterlimit:3;stroke:#000000;stroke-opacity:0.298039" d="M61.35 66.35L59.9 54.85L59.3 50.25L52.5 50.25L49 50.25L49.55 54.85L53.1 54.85" />
<path style="fill:none;stroke-width:0.7;stroke-linecap:round;stroke-linejoin:round;stroke-miterlimit:3;stroke:#000000;stroke-opacity:0.298039" d="M64.25 69.6L58.1 69.6L55.25 66.4" />
<path style="fill:none;stroke-width:0.7;stroke-linecap:round;stroke-linejoin:round;stroke-miterlimit:3;stroke:#000000;stroke-opacity:0.298039" d="M76.35 71.85L78.25 77.35" />
<path style="fill:none;stroke-width:0.7;stroke-linecap:round;stroke-linejoin:round;stroke-miterlimit:3;stroke:#000000;stroke-opacity:0.298039" d="M71.2 71.85L73.1 77.35" />
<path style="fill:none;stroke-width:0.7;stroke-linecap:round;stroke-linejoin:round;stroke-miterlimit:3;stroke:#000000;stroke-opacity:0.298039" d="M73.75 71.85L75.7 77.35" />
<path style="fill:none;stroke-width:0.7;stroke-linecap:round;stroke-linejoin:round;stroke-miterlimit:3;stroke:#000000;stroke-opacity:0.298039" d="M75.35 54.85L59.9 54.85" />
<path style="fill:none;stroke-width:0.7;stroke-linecap:round;stroke-linejoin:round;stroke-miterlimit:3;stroke:#000000;stroke-opacity:0.298039" d="M68.6 71.85L70.5 77.35" />
<path style="fill:none;stroke-width:0.7;stroke-linecap:round;stroke-linejoin:round;stroke-miterlimit:3;stroke:#000000;stroke-opacity:0.298039" d="M80.85 77.35L78.95 71.85" />
<path style="fill:none;stroke-width:0.7;stroke-linecap:round;stroke-linejoin:round;stroke-miterlimit:3;stroke:#000000;stroke-opacity:0.298039" d="M66 71.85L67.95 77.35" />
<path style="fill:none;stroke-width:0.7;stroke-linecap:round;stroke-linejoin:round;stroke-miterlimit:3;stroke:#000000;stroke-opacity:0.298039" d="M44.7 77.35L42.8 71.85" />
<path style="fill:none;stroke-width:0.7;stroke-linecap:round;stroke-linejoin:round;stroke-miterlimit:3;stroke:#000000;stroke-opacity:0.298039" d="M60.2 77.35L58.25 71.85" />
<path style="fill:none;stroke-width:0.7;stroke-linecap:round;stroke-linejoin:round;stroke-miterlimit:3;stroke:#000000;stroke-opacity:0.298039" d="M60.85 71.85L62.75 77.35" />
<path style="fill:none;stroke-width:0.7;stroke-linecap:round;stroke-linejoin:round;stroke-miterlimit:3;stroke:#000000;stroke-opacity:0.298039" d="M57.6 77.35L55.7 71.85" />
<path style="fill:none;stroke-width:0.7;stroke-linecap:round;stroke-linejoin:round;stroke-miterlimit:3;stroke:#000000;stroke-opacity:0.298039" d="M55.05 77.35L53.1 71.85" />
<path style="fill:none;stroke-width:0.7;stroke-linecap:round;stroke-linejoin:round;stroke-miterlimit:3;stroke:#000000;stroke-opacity:0.298039" d="M50.55 71.85L52.45 77.35" />
<path style="fill:none;stroke-width:0.7;stroke-linecap:round;stroke-linejoin:round;stroke-miterlimit:3;stroke:#000000;stroke-opacity:0.298039" d="M49.85 77.35L47.95 71.85" />
<path style="fill:none;stroke-width:0.7;stroke-linecap:round;stroke-linejoin:round;stroke-miterlimit:3;stroke:#000000;stroke-opacity:0.298039" d="M45.35 71.85L47.3 77.35" />
<path style="fill:none;stroke-width:0.7;stroke-linecap:round;stroke-linejoin:round;stroke-miterlimit:3;stroke:#000000;stroke-opacity:0.298039" d="M74.75 50.25L59.3 50.25" />
<path style="fill:none;stroke-width:0.7;stroke-linecap:round;stroke-linejoin:round;stroke-miterlimit:3;stroke:#000000;stroke-opacity:0.298039" d="M65.35 77.35L63.45 71.85" />
<path style="fill:none;stroke-width:0.7;stroke-linecap:round;stroke-linejoin:round;stroke-miterlimit:3;stroke:#000000;stroke-opacity:0.298039" d="M38.05 18.2L41.4 10.15" />
<path style="fill:none;stroke-width:0.7;stroke-linecap:round;stroke-linejoin:round;stroke-miterlimit:3;stroke:#000000;stroke-opacity:0.298039" d="M40.05 71.4L42.7 79" />
<path style="fill:none;stroke-width:0.7;stroke-linecap:round;stroke-linejoin:round;stroke-miterlimit:3;stroke:#000000;stroke-opacity:0.298039" d="M49 50.25L33.5 50.25" />
<path style="fill:none;stroke-width:0.7;stroke-linecap:round;stroke-linejoin:round;stroke-miterlimit:3;stroke:#000000;stroke-opacity:0.298039" d="M92.5 18.2L75.4 18.2" />
<path style="fill:none;stroke-width:0.7;stroke-linecap:round;stroke-linejoin:round;stroke-miterlimit:3;stroke:#000000;stroke-opacity:0.298039" d="M164.95 82.5L155 82.5" />
</g>
</svg>
