<?xml version="1.0" encoding="UTF-8" standalone="no"?>
<svg xmlns:xlink="http://www.w3.org/1999/xlink" height="66.25px" width="230.8px" xmlns="http://www.w3.org/2000/svg">
  <g transform="matrix(1.0, 0.0, 0.0, 1.0, 0.05, 0.05)">
    <use height="66.25" transform="matrix(1.0, 0.0, 0.0, 1.0, -0.05, -0.05)" width="230.8" xlink:href="#shape0"/>
  </g>
  <defs>
    <g id="shape0" transform="matrix(1.0, 0.0, 0.0, 1.0, 0.05, 0.05)">
      <path d="M204.05 17.9 L207.85 17.9 214.2 31.35 210.9 38.55 207.2 46.55 203.4 46.55 207.1 38.55 210.4 31.35 204.05 17.9 M207.1 38.55 L210.9 38.55 207.1 38.55 M190.55 38.55 L186.9 46.55 183.1 46.55 186.75 38.55 190.55 38.55 186.75 38.55 190.1 31.35 183.75 17.9 187.55 17.9 193.9 31.35 190.55 38.55 M179.8 17.9 L171.15 17.9 163.7 11.65 129.2 6.7 129.5 6.2 134.35 6.2 134.95 6.3 172.3 11.65 179.8 17.9 M167.25 17.9 L173.6 31.35 170.25 38.55 166.6 46.55 151.35 46.55 150.35 43.6 146.9 33.75 91.05 24.85 93.35 21.35 152.5 28.05 155.95 38.55 170.25 38.55 155.95 38.55 152.5 28.05 93.35 21.35 93.9 20.55 95.45 18.15 95.6 17.9 99.9 17.9 100.7 15.65 103.15 15.65 106.3 10.75 108.3 7.6 109.2 6.2 114.05 6.2 114.65 6.3 152.0 11.65 159.5 17.9 163.3 17.9 167.25 17.9 M200.1 17.9 L191.45 17.9 184.0 11.65 149.6 6.7 149.5 6.7 149.85 6.2 154.65 6.2 155.25 6.3 192.6 11.65 200.1 17.9 M159.5 17.9 L101.7 17.9 103.15 15.65 101.7 17.9 159.5 17.9 M130.8 46.55 L122.15 46.55 121.15 43.6 119.25 38.15 129.8 39.25 119.25 38.15 117.6 33.4 128.35 35.1 129.8 39.25 132.3 46.55 130.8 46.55 M117.1 46.55 L114.55 46.55 105.65 46.55 104.65 43.6 102.1 36.3 100.15 30.6 112.25 32.55 113.95 37.55 117.1 46.55 M146.3 46.55 L142.45 46.55 137.4 46.55 136.35 43.6 135.05 39.8 133.7 35.95 143.1 37.45 146.3 46.55 M142.45 46.55 L140.3 40.35 135.05 39.8 140.3 40.35 142.45 46.55 M107.15 7.6 Q106.35 9.3 105.9 10.75 L100.05 10.75 98.8 7.6 107.15 7.6 M94.45 7.6 Q93.65 9.3 93.2 10.75 L87.35 10.75 86.1 7.6 88.0 7.6 94.45 7.6 M81.75 7.6 Q80.55 10.25 80.1 12.3 79.85 13.55 79.9 14.6 80.05 16.95 81.75 18.15 L78.35 18.15 58.95 18.15 Q57.95 17.5 57.5 16.5 L55.0 16.5 50.05 18.8 49.15 21.2 36.3 21.2 35.9 21.85 5.05 21.85 2.55 21.85 0.15 16.5 8.9 3.05 13.3 3.05 47.5 3.05 13.3 3.05 15.25 0.0 44.45 0.0 47.5 3.05 52.05 3.05 58.25 9.2 58.95 7.6 81.75 7.6 M87.1 18.15 L88.0 15.65 92.75 15.65 Q93.15 17.25 94.45 18.15 L87.1 18.15 M86.85 43.6 L83.65 34.35 81.3 27.65 94.75 29.75 96.85 35.75 100.55 46.55 96.75 46.55 87.9 46.55 87.7 46.05 86.85 43.6 M83.65 34.35 L96.85 35.75 83.65 34.35 M102.1 36.3 L113.95 37.55 102.1 36.3 M99.9 17.9 L101.7 17.9 99.9 17.9 M79.9 14.6 L57.05 14.6 Q56.95 12.4 58.25 9.2 56.95 12.4 57.05 14.6 L79.9 14.6 M49.35 5.85 Q47.1 5.85 44.85 7.65 42.65 9.5 41.75 12.05 40.8 14.65 41.75 16.45 42.65 18.25 44.9 18.25 47.15 18.25 49.35 16.45 51.6 14.65 52.5 12.05 53.4 9.5 52.5 7.65 51.55 5.85 49.35 5.85 M57.05 14.6 Q57.1 15.65 57.5 16.5 57.1 15.65 57.05 14.6 M46.1 30.35 Q46.25 33.5 46.95 36.2 47.6 38.6 48.65 40.7 L50.4 43.4 42.3 43.4 37.45 46.7 35.4 46.7 26.8 46.7 23.6 46.7 20.45 46.7 18.4 46.7 17.3 46.7 14.1 46.7 10.95 46.7 10.85 46.7 7.75 46.7 0.0 28.15 3.2 28.15 6.35 28.15 9.55 28.15 12.7 28.15 14.25 31.85 12.7 28.15 15.9 28.15 17.45 31.85 15.9 28.15 19.05 28.15 33.65 28.15 32.9 26.4 50.05 26.4 46.1 30.35 M29.7 16.45 Q30.6 18.25 32.85 18.25 35.1 18.25 37.3 16.45 39.55 14.65 40.45 12.05 41.35 9.5 40.45 7.65 39.5 5.85 37.25 5.85 35.0 5.85 32.8 7.65 30.6 9.5 29.65 12.05 28.75 14.65 29.7 16.45 M28.35 7.65 Q27.45 5.85 25.2 5.85 22.95 5.85 20.75 7.65 18.5 9.5 17.6 12.05 16.7 14.65 17.6 16.45 18.55 18.25 20.8 18.25 23.05 18.25 25.25 16.45 27.45 14.65 28.4 12.05 29.3 9.5 28.35 7.65 M16.3 7.65 Q15.4 5.85 13.15 5.85 10.9 5.85 8.7 7.65 6.45 9.5 5.55 12.05 4.65 14.65 5.55 16.45 6.5 18.25 8.75 18.25 10.95 18.25 13.2 16.45 15.4 14.65 16.35 12.05 17.25 9.5 16.3 7.65 M3.2 28.15 L4.75 31.85 3.2 28.15 M7.9 31.85 L6.35 28.15 7.9 31.85 M5.0 32.45 L10.95 46.7 5.0 32.45 M8.2 32.45 L14.1 46.7 8.2 32.45 M11.35 32.45 L17.3 46.7 11.35 32.45 M14.5 32.45 L20.45 46.7 14.5 32.45 M9.55 28.15 L11.1 31.85 9.55 28.15 M20.85 32.45 L26.8 46.7 20.85 32.45 M48.65 40.7 L39.0 40.7 33.65 28.15 39.0 40.7 48.65 40.7 M17.7 32.45 L23.6 46.7 17.7 32.45 M20.6 31.85 L19.05 28.15 20.6 31.85" fill="#666666" fill-rule="evenodd" stroke="none"/>
      <path d="M214.2 31.35 L219.25 31.35 215.95 38.55 213.85 43.15 221.5 43.15 223.6 38.55 227.4 38.55 223.6 38.55 226.9 31.35 230.7 31.35 227.4 38.55 223.7 46.55 207.2 46.55 210.9 38.55 215.95 38.55 210.9 38.55 214.2 31.35 M206.6 31.35 L210.4 31.35 207.1 38.55 203.4 46.55 186.9 46.55 190.55 38.55 195.65 38.55 190.55 38.55 193.9 31.35 198.95 31.35 195.65 38.55 193.55 43.15 201.15 43.15 203.25 38.55 206.6 31.35 M207.1 38.55 L203.25 38.55 207.1 38.55 M173.6 31.35 L178.65 31.35 175.35 38.55 173.25 43.15 180.85 43.15 182.95 38.55 186.25 31.35 190.1 31.35 186.75 38.55 183.1 46.55 166.6 46.55 170.25 38.55 173.6 31.35 M175.35 38.55 L170.25 38.55 175.35 38.55 M182.95 38.55 L186.75 38.55 182.95 38.55" fill="#565656" fill-rule="evenodd" stroke="none"/>
      <path d="M207.85 17.9 L209.25 17.9 211.8 17.9 224.35 17.9 230.7 31.35 226.9 31.35 222.1 21.2 214.5 21.2 219.25 31.35 214.2 31.35 207.85 17.9 M203.9 17.9 L204.05 17.9 210.4 31.35 206.6 31.35 201.8 21.2 194.2 21.2 198.95 31.35 193.9 31.35 187.55 17.9 188.95 17.9 191.45 17.9 200.1 17.9 203.9 17.9 M183.6 17.9 L183.75 17.9 190.1 31.35 186.25 31.35 181.5 21.2 173.85 21.2 178.65 31.35 173.6 31.35 167.25 17.9 168.65 17.9 171.15 17.9 179.8 17.9 183.6 17.9" fill="#8c8c8c" fill-rule="evenodd" stroke="none"/>
      <path d="M209.25 17.9 L204.05 13.55 198.7 13.55 203.9 17.9 200.1 17.9 192.6 11.65 204.3 11.65 211.8 17.9 209.25 17.9 M183.6 17.9 L179.8 17.9 172.3 11.65 184.0 11.65 191.45 17.9 188.95 17.9 183.75 13.55 178.4 13.55 183.6 17.9 M171.15 17.9 L168.65 17.9 163.4 13.55 158.1 13.55 163.3 17.9 159.5 17.9 152.0 11.65 163.7 11.65 171.15 17.9 M44.45 0.0 L72.0 0.0 75.9 3.05 82.15 3.05 88.0 7.6 86.1 7.6 81.75 7.6 58.95 7.6 58.25 9.2 52.05 3.05 47.5 3.05 44.45 0.0 M75.9 3.05 L52.05 3.05 75.9 3.05" fill="#9e9e9e" fill-rule="evenodd" stroke="none"/>
      <path d="M184.0 11.65 L172.3 11.65 134.95 6.3 146.0 6.2 149.5 6.7 149.6 6.7 184.0 11.65 M155.25 6.3 L166.35 6.2 204.3 11.65 192.6 11.65 155.25 6.3 M129.2 6.7 L163.7 11.65 152.0 11.65 114.65 6.3 125.7 6.2 129.2 6.7" fill="#adadad" fill-rule="evenodd" stroke="none"/>
      <path d="M175.75 49.65 L177.25 51.65 191.0 51.65 191.85 53.7 Q191.45 55.45 190.1 55.7 L181.85 55.7 175.5 60.95 181.85 55.7 190.1 55.7 Q191.45 55.45 191.85 53.7 L191.0 51.65 177.25 51.65 175.75 49.65 192.25 49.65 193.75 51.65 207.5 51.65 208.35 53.7 Q208.0 55.25 206.9 55.65 L206.6 55.7 198.35 55.7 192.0 60.95 175.5 60.95 159.0 60.95 165.35 55.7 173.6 55.7 Q174.95 55.45 175.35 53.7 L174.5 51.65 160.75 51.65 159.25 49.65 160.75 51.65 174.5 51.65 175.35 53.7 Q174.95 55.45 173.6 55.7 L165.35 55.7 159.0 60.95 125.95 60.95 125.85 60.85 118.0 61.8 110.8 64.9 Q109.05 66.15 106.9 66.15 L90.55 66.15 90.4 66.15 74.05 66.15 Q76.1 66.1 77.8 64.9 L85.0 61.8 115.45 58.15 116.45 56.5 118.35 56.5 119.65 57.65 122.2 57.65 123.9 59.1 101.5 61.8 94.3 64.9 Q92.6 66.1 90.55 66.15 92.6 66.1 94.3 64.9 L101.5 61.8 123.9 59.1 122.2 57.65 119.65 57.65 118.35 56.5 116.45 56.5 115.45 58.15 85.0 61.8 77.8 64.9 Q76.1 66.1 74.05 66.15 L73.7 66.15 71.15 66.15 68.6 66.15 66.1 66.15 63.55 66.15 34.4 66.15 29.45 66.15 Q26.9 66.15 25.0 64.45 L24.15 63.6 23.55 62.85 Q21.95 60.55 21.95 57.55 21.95 55.95 22.4 54.55 L14.6 52.55 Q11.25 50.15 10.85 46.7 L10.95 46.7 14.1 46.7 17.3 46.7 18.4 46.7 20.45 46.7 23.6 46.7 26.8 46.7 35.4 46.7 37.45 46.7 42.3 43.4 50.4 43.4 Q52.15 45.65 54.55 47.35 L56.5 48.6 78.85 48.6 76.3 54.3 80.0 54.3 81.4 51.4 89.05 51.4 110.1 51.4 110.1 55.1 112.15 56.5 116.45 56.5 112.15 56.5 110.1 55.1 110.1 51.4 110.1 50.65 115.65 49.75 114.55 46.55 117.1 46.55 119.65 46.55 118.6 43.6 121.15 43.6 122.15 46.55 130.8 46.55 131.55 48.25 137.25 48.25 137.65 49.65 138.05 51.0 134.85 55.95 123.2 55.95 121.9 53.7 117.1 53.7 115.65 49.75 117.1 53.7 121.9 53.7 123.2 55.95 134.85 55.95 138.05 51.0 137.65 49.65 142.75 49.65 159.25 49.65 175.75 49.65 M106.3 10.75 L103.15 15.65 100.7 15.65 92.75 15.65 88.0 15.65 84.2 15.65 Q82.5 13.85 83.05 12.3 83.35 11.5 84.2 10.75 L87.35 10.75 93.2 10.75 100.05 10.75 105.9 10.75 106.3 10.75 M123.9 59.1 L125.85 60.85 123.9 59.1 M85.0 61.8 Q79.75 60.05 80.0 54.3 79.75 60.05 85.0 61.8 M134.6 54.6 L132.45 54.6 131.45 52.15 120.65 52.15 118.85 47.85 120.65 52.15 131.45 52.15 132.45 54.6 134.6 54.6 M122.2 57.65 L138.8 57.65 140.55 54.7 156.55 54.7 160.75 51.65 156.55 54.7 140.55 54.7 138.8 57.65 122.2 57.65 M5.05 21.85 L35.9 21.85 34.55 23.85 22.5 23.85 19.3 23.85 16.15 23.85 12.95 23.85 9.8 23.85 6.6 23.85 5.05 23.85 5.05 21.85 M54.55 47.35 L38.1 47.35 35.7 47.35 35.4 46.7 35.7 47.35 38.1 47.35 54.55 47.35 M38.1 47.35 Q38.0 50.15 39.05 52.1 L28.75 52.1 23.7 52.1 21.85 52.1 20.05 50.9 19.5 50.25 Q18.9 49.4 18.6 48.25 L18.4 46.7 18.6 48.25 Q18.9 49.4 19.5 50.25 L20.05 50.9 21.85 52.1 23.7 52.1 28.75 52.1 39.05 52.1 Q38.0 50.15 38.1 47.35 M28.75 52.1 Q27.95 53.2 27.5 54.55 27.15 55.65 27.05 56.85 27.15 55.65 27.5 54.55 27.95 53.2 28.75 52.1 M56.75 54.3 L59.3 54.3 61.85 54.3 Q61.3 55.8 61.3 57.55 61.3 55.8 61.85 54.3 L59.3 54.3 Q58.75 55.8 58.75 57.55 58.75 55.8 59.3 54.3 L56.75 54.3 Q56.25 55.8 56.25 57.55 56.25 55.8 56.75 54.3 L41.05 54.3 Q39.8 53.4 39.05 52.1 39.8 53.4 41.05 54.3 L56.75 54.3 M56.25 58.25 Q56.45 61.35 58.45 63.6 60.55 66.05 63.55 66.15 60.55 66.05 58.45 63.6 56.45 61.35 56.25 58.25 M66.9 54.3 L76.3 54.3 66.9 54.3 Q66.4 55.8 66.4 57.55 66.4 61.1 68.6 63.6 70.7 66.05 73.7 66.15 70.7 66.05 68.6 63.6 66.4 61.1 66.4 57.55 66.4 55.8 66.9 54.3 L64.4 54.3 Q63.85 55.8 63.85 57.55 63.85 55.8 64.4 54.3 L66.9 54.3 M63.9 58.25 Q64.05 61.35 66.05 63.6 68.2 66.05 71.15 66.15 68.2 66.05 66.05 63.6 64.05 61.35 63.9 58.25 M61.35 58.25 Q61.55 61.35 63.5 63.6 65.65 66.05 68.6 66.15 65.65 66.05 63.5 63.6 61.55 61.35 61.35 58.25 M58.8 58.25 Q59.0 61.35 60.95 63.6 63.1 66.05 66.1 66.15 63.1 66.05 60.95 63.6 59.0 61.35 58.8 58.25 M61.85 54.3 L64.4 54.3 61.85 54.3 M27.05 57.55 Q27.05 60.55 28.65 62.85 L29.25 63.6 30.05 64.45 Q31.95 66.1 34.4 66.15 31.95 66.1 30.05 64.45 L29.25 63.6 28.65 62.85 Q27.05 60.55 27.05 57.55 M22.4 54.55 Q22.85 53.2 23.7 52.1 22.85 53.2 22.4 54.55" fill="#333333" fill-rule="evenodd" stroke="none"/>
      <path d="M137.25 48.25 L142.35 48.25 142.75 49.65 137.65 49.65 137.25 48.25 M89.05 51.4 L81.4 51.4 80.0 54.3 76.3 54.3 78.85 48.6 80.65 48.6 90.3 48.6 89.05 51.4" fill="#424242" fill-rule="evenodd" stroke="none"/>
      <path d="M108.3 7.6 L106.3 10.75 105.9 10.75 Q106.35 9.3 107.15 7.6 L108.3 7.6 M133.7 35.95 L136.25 35.95 145.65 37.45 147.8 43.6 148.8 46.55 146.3 46.55 143.1 37.45 133.7 35.95 M132.3 46.55 L129.8 39.25 128.35 35.1 117.6 33.4 120.15 33.4 130.9 35.1 133.85 43.6 134.85 46.55 132.3 46.55 M118.6 43.6 L119.65 46.55 117.1 46.55 113.95 37.55 112.25 32.55 100.15 30.6 102.65 30.6 114.75 32.55 118.6 43.6 M98.8 7.6 L100.05 10.75 93.2 10.75 Q93.65 9.3 94.45 7.6 L98.8 7.6 M86.1 7.6 L87.35 10.75 84.2 10.75 Q83.35 11.5 83.05 12.3 82.5 13.85 84.2 15.65 L88.0 15.65 87.1 18.15 81.75 18.15 Q80.05 16.95 79.9 14.6 79.85 13.55 80.1 12.3 80.55 10.25 81.75 7.6 L86.1 7.6 M81.3 27.65 L81.3 27.55 83.85 27.65 97.3 29.75 102.1 43.6 103.1 46.55 100.55 46.55 96.85 35.75 94.75 29.75 81.3 27.65 M95.45 18.15 L94.45 18.15 Q93.15 17.25 92.75 15.65 L100.7 15.65 99.9 17.9 95.6 17.9 95.45 18.15" fill="#828282" fill-rule="evenodd" stroke="none"/>
      <path d="M77.45 24.6 L84.45 43.6 86.85 43.6 87.7 46.05 87.9 46.55 96.75 46.55 94.6 48.6 90.3 48.6 80.65 48.6 Q70.7 42.95 70.2 30.35 L75.95 24.6 77.45 24.6 M75.15 27.9 L82.15 46.05 87.7 46.05 82.15 46.05 75.15 27.9" fill="#777777" fill-rule="evenodd" stroke="none"/>
      <path d="M81.75 18.15 L87.1 18.15 94.45 18.15 95.45 18.15 93.9 20.55 80.65 20.55 77.45 24.6 75.95 24.6 73.4 24.6 78.35 18.15 73.4 24.6 51.85 24.6 50.95 25.5 48.65 22.6 49.15 21.2 50.05 18.8 55.0 16.5 57.5 16.5 Q57.95 17.5 58.95 18.15 L78.35 18.15 81.75 18.15 M80.65 48.6 L78.85 48.6 56.5 48.6 54.55 47.35 Q52.15 45.65 50.4 43.4 L48.65 40.7 Q47.6 38.6 46.95 36.2 46.25 33.5 46.1 30.35 L70.2 30.35 Q70.7 42.95 80.65 48.6" fill="#4c4c4c" fill-rule="evenodd" stroke="none"/>
      <path d="M73.4 24.6 L75.95 24.6 70.2 30.35 46.1 30.35 50.05 26.4 50.95 25.5 51.85 24.6 73.4 24.6" fill="#606060" fill-rule="evenodd" stroke="none"/>
      <path d="M49.15 21.2 L48.65 22.6 50.95 25.5 50.05 26.4 32.9 26.4 33.65 28.15 19.05 28.15 15.9 28.15 12.7 28.15 14.4 26.0 12.7 28.15 9.55 28.15 6.35 28.15 3.2 28.15 4.9 26.0 3.2 28.15 0.0 28.15 3.45 23.85 5.05 23.85 6.6 23.85 9.8 23.85 12.95 23.85 16.15 23.85 19.3 23.85 22.5 23.85 34.55 23.85 35.9 21.85 36.3 21.2 49.15 21.2 M20.75 26.0 L19.05 28.15 20.75 26.0 M17.6 26.0 L15.9 28.15 17.6 26.0 M8.05 26.0 L6.35 28.15 8.05 26.0 M9.55 28.15 L11.25 26.0 9.55 28.15 M34.55 23.85 L32.9 26.4 34.55 23.85 M8.55 25.4 L9.8 23.85 8.55 25.4 M5.4 25.4 L6.6 23.85 5.4 25.4 M18.1 25.4 L19.3 23.85 18.1 25.4 M12.95 23.85 L11.75 25.4 12.95 23.85 M14.9 25.4 L16.15 23.85 14.9 25.4 M21.25 25.4 L22.5 23.85 21.25 25.4" fill="#848484" fill-rule="evenodd" stroke="none"/>
      <path d="M49.35 5.85 Q51.55 5.85 52.5 7.65 53.4 9.5 52.5 12.05 51.6 14.65 49.35 16.45 47.15 18.25 44.9 18.25 42.65 18.25 41.75 16.45 40.8 14.65 41.75 12.05 42.65 9.5 44.85 7.65 47.1 5.85 49.35 5.85 M47.6 14.85 Q49.05 13.7 49.65 12.0 50.25 10.3 49.6 9.1 49.0 7.95 47.55 7.95 46.1 7.95 44.65 9.1 43.15 10.3 42.6 12.0 41.95 13.7 42.6 14.85 43.2 16.1 44.65 16.1 46.1 16.1 47.6 14.85" fill="url(#gradient0)" fill-rule="evenodd" stroke="none"/>
      <path d="M32.55 9.1 Q31.1 10.3 30.5 12.0 29.9 13.7 30.55 14.85 31.15 16.1 32.6 16.1 34.05 16.1 35.5 14.85 37.0 13.7 37.6 12.0 38.2 10.3 37.55 9.1 36.95 7.95 35.5 7.95 34.05 7.95 32.55 9.1 M29.7 16.45 Q28.75 14.65 29.65 12.05 30.6 9.5 32.8 7.65 35.0 5.85 37.25 5.85 39.5 5.85 40.45 7.65 41.35 9.5 40.45 12.05 39.55 14.65 37.3 16.45 35.1 18.25 32.85 18.25 30.6 18.25 29.7 16.45" fill="url(#gradient1)" fill-rule="evenodd" stroke="none"/>
      <path d="M28.35 7.65 Q29.3 9.5 28.4 12.05 27.45 14.65 25.25 16.45 23.05 18.25 20.8 18.25 18.55 18.25 17.6 16.45 16.7 14.65 17.6 12.05 18.5 9.5 20.75 7.65 22.95 5.85 25.2 5.85 27.45 5.85 28.35 7.65 M25.5 9.15 Q24.9 7.95 23.45 7.95 21.95 7.95 20.5 9.15 19.05 10.3 18.45 12.0 17.85 13.7 18.45 14.9 19.05 16.1 20.55 16.1 22.0 16.1 23.45 14.9 24.9 13.7 25.55 12.0 26.15 10.3 25.5 9.15" fill="url(#gradient2)" fill-rule="evenodd" stroke="none"/>
      <path d="M16.3 7.65 Q17.25 9.5 16.35 12.05 15.4 14.65 13.2 16.45 10.95 18.25 8.75 18.25 6.5 18.25 5.55 16.45 4.65 14.65 5.55 12.05 6.45 9.5 8.7 7.65 10.9 5.85 13.15 5.85 15.4 5.85 16.3 7.65 M6.4 12.0 Q5.8 13.7 6.4 14.9 7.0 16.1 8.45 16.1 9.95 16.1 11.4 14.9 12.85 13.7 13.45 12.0 14.05 10.3 13.45 9.15 12.85 7.95 11.4 7.95 9.9 7.95 8.45 9.15 7.0 10.3 6.4 12.0" fill="url(#gradient3)" fill-rule="evenodd" stroke="none"/>
      <path d="M93.35 21.35 L91.05 24.85 146.9 33.75 150.35 43.6 147.8 43.6 145.65 37.45 136.25 35.95 133.7 35.95 135.05 39.8 136.35 43.6 133.85 43.6 130.9 35.1 120.15 33.4 117.6 33.4 119.25 38.15 121.15 43.6 118.6 43.6 114.75 32.55 102.65 30.6 100.15 30.6 102.1 36.3 104.65 43.6 102.1 43.6 97.3 29.75 83.85 27.65 81.3 27.55 81.3 27.65 83.65 34.35 86.85 43.6 84.45 43.6 77.45 24.6 80.65 20.55 93.9 20.55 93.35 21.35" fill="url(#gradient4)" fill-rule="evenodd" stroke="none"/>
      <path d="M47.6 14.85 Q46.1 16.1 44.65 16.1 43.2 16.1 42.6 14.85 41.95 13.7 42.6 12.0 43.15 10.3 44.65 9.1 46.1 7.95 47.55 7.95 49.0 7.95 49.6 9.1 50.25 10.3 49.65 12.0 49.05 13.7 47.6 14.85" fill="url(#gradient5)" fill-rule="evenodd" stroke="none"/>
      <path d="M32.55 9.1 Q34.05 7.95 35.5 7.95 36.95 7.95 37.55 9.1 38.2 10.3 37.6 12.0 37.0 13.7 35.5 14.85 34.05 16.1 32.6 16.1 31.15 16.1 30.55 14.85 29.9 13.7 30.5 12.0 31.1 10.3 32.55 9.1" fill="url(#gradient6)" fill-rule="evenodd" stroke="none"/>
      <path d="M25.5 9.15 Q26.15 10.3 25.55 12.0 24.9 13.7 23.45 14.9 22.0 16.1 20.55 16.1 19.05 16.1 18.45 14.9 17.85 13.7 18.45 12.0 19.05 10.3 20.5 9.15 21.95 7.95 23.45 7.95 24.9 7.95 25.5 9.15" fill="url(#gradient7)" fill-rule="evenodd" stroke="none"/>
      <path d="M6.4 12.0 Q7.0 10.3 8.45 9.15 9.9 7.95 11.4 7.95 12.85 7.95 13.45 9.15 14.05 10.3 13.45 12.0 12.85 13.7 11.4 14.9 9.95 16.1 8.45 16.1 7.0 16.1 6.4 14.9 5.8 13.7 6.4 12.0" fill="url(#gradient8)" fill-rule="evenodd" stroke="none"/>
      <path d="M168.65 17.9 L167.25 17.9 163.3 17.9 158.1 13.55 163.4 13.55 168.65 17.9" fill="url(#gradient9)" fill-rule="evenodd" stroke="none"/>
      <path d="M188.95 17.9 L187.55 17.9 183.75 17.9 183.6 17.9 178.4 13.55 183.75 13.55 188.95 17.9" fill="url(#gradient10)" fill-rule="evenodd" stroke="none"/>
      <path d="M209.25 17.9 L207.85 17.9 204.05 17.9 203.9 17.9 198.7 13.55 204.05 13.55 209.25 17.9" fill="url(#gradient11)" fill-rule="evenodd" stroke="none"/>
      <path d="M178.65 31.35 L173.85 21.2 181.5 21.2 186.25 31.35 182.95 38.55 180.85 43.15 173.25 43.15 175.35 38.55 178.65 31.35" fill="url(#gradient12)" fill-rule="evenodd" stroke="none"/>
      <path d="M206.6 31.35 L203.25 38.55 201.15 43.15 193.55 43.15 195.65 38.55 198.95 31.35 194.2 21.2 201.8 21.2 206.6 31.35" fill="url(#gradient13)" fill-rule="evenodd" stroke="none"/>
      <path d="M219.25 31.35 L214.5 21.2 222.1 21.2 226.9 31.35 223.6 38.55 221.5 43.15 213.85 43.15 215.95 38.55 219.25 31.35" fill="url(#gradient14)" fill-rule="evenodd" stroke="none"/>
      <path d="M207.85 17.9 L209.25 17.9 204.05 13.55 198.7 13.55 203.9 17.9 204.05 17.9 207.85 17.9 214.2 31.35 219.25 31.35 214.5 21.2 222.1 21.2 226.9 31.35 230.7 31.35 224.35 17.9 211.8 17.9 209.25 17.9 M204.3 11.65 L211.8 17.9 M206.6 31.35 L210.4 31.35 204.05 17.9 M203.25 38.55 L207.1 38.55 210.4 31.35 M207.2 46.55 L210.9 38.55 207.1 38.55 203.4 46.55 207.2 46.55 223.7 46.55 227.4 38.55 223.6 38.55 221.5 43.15 213.85 43.15 215.95 38.55 210.9 38.55 214.2 31.35 M219.25 31.35 L215.95 38.55 M206.6 31.35 L203.25 38.55 201.15 43.15 193.55 43.15 195.65 38.55 190.55 38.55 186.9 46.55 203.4 46.55 M227.4 38.55 L230.7 31.35 M223.6 38.55 L226.9 31.35 M188.95 17.9 L187.55 17.9 193.9 31.35 198.95 31.35 194.2 21.2 201.8 21.2 206.6 31.35 M183.75 17.9 L183.6 17.9 179.8 17.9 171.15 17.9 168.65 17.9 167.25 17.9 173.6 31.35 178.65 31.35 173.85 21.2 181.5 21.2 186.25 31.35 190.1 31.35 183.75 17.9 187.55 17.9 M191.45 17.9 L188.95 17.9 183.75 13.55 178.4 13.55 183.6 17.9 M200.1 17.9 L191.45 17.9 184.0 11.65 172.3 11.65 179.8 17.9 M192.6 11.65 L200.1 17.9 203.9 17.9 M163.7 11.65 L171.15 17.9 M168.65 17.9 L163.4 13.55 158.1 13.55 163.3 17.9 167.25 17.9 M173.6 31.35 L170.25 38.55 175.35 38.55 178.65 31.35 M175.35 38.55 L173.25 43.15 180.85 43.15 182.95 38.55 186.25 31.35 M166.6 46.55 L170.25 38.55 155.95 38.55 152.5 28.05 93.35 21.35 91.05 24.85 146.9 33.75 150.35 43.6 151.35 46.55 166.6 46.55 183.1 46.55 186.75 38.55 182.95 38.55 M186.75 38.55 L190.55 38.55 193.9 31.35 M186.9 46.55 L183.1 46.55 M198.95 31.35 L195.65 38.55 M190.1 31.35 L186.75 38.55 M175.5 60.95 L181.85 55.7 190.1 55.7 Q191.45 55.45 191.85 53.7 L191.0 51.65 177.25 51.65 175.75 49.65 159.25 49.65 160.75 51.65 174.5 51.65 175.35 53.7 Q174.95 55.45 173.6 55.7 L165.35 55.7 159.0 60.95 175.5 60.95 192.0 60.95 198.35 55.7 206.6 55.7 206.9 55.65 Q208.0 55.25 208.35 53.7 L207.5 51.65 193.75 51.65 192.25 49.65 175.75 49.65 M155.25 6.3 L166.35 6.2 204.3 11.65 192.6 11.65 155.25 6.3 154.65 6.2 149.85 6.2 149.5 6.7 149.6 6.7 184.0 11.65 M134.95 6.3 L146.0 6.2 149.5 6.7 M152.0 11.65 L159.5 17.9 163.3 17.9 M134.95 6.3 L134.35 6.2 129.5 6.2 129.2 6.7 163.7 11.65 152.0 11.65 114.65 6.3 114.05 6.2 109.2 6.2 108.3 7.6 106.3 10.75 103.15 15.65 101.7 17.9 159.5 17.9 M114.65 6.3 L125.7 6.2 129.2 6.7 M133.7 35.95 L136.25 35.95 145.65 37.45 147.8 43.6 150.35 43.6 M130.8 46.55 L131.55 48.25 137.25 48.25 142.35 48.25 142.75 49.65 159.25 49.65 M121.15 43.6 L122.15 46.55 130.8 46.55 132.3 46.55 129.8 39.25 119.25 38.15 121.15 43.6 118.6 43.6 119.65 46.55 117.1 46.55 114.55 46.55 115.65 49.75 117.1 53.7 121.9 53.7 123.2 55.95 134.85 55.95 138.05 51.0 137.65 49.65 137.25 48.25 M146.3 46.55 L142.45 46.55 137.4 46.55 136.35 43.6 133.85 43.6 134.85 46.55 132.3 46.55 M135.05 39.8 L140.3 40.35 142.45 46.55 M136.35 43.6 L135.05 39.8 133.7 35.95 143.1 37.45 146.3 46.55 148.8 46.55 147.8 43.6 M117.6 33.4 L120.15 33.4 130.9 35.1 133.85 43.6 M129.8 39.25 L128.35 35.1 117.6 33.4 119.25 38.15 M105.9 10.75 Q106.35 9.3 107.15 7.6 L98.8 7.6 100.05 10.75 105.9 10.75 106.3 10.75 M107.15 7.6 L108.3 7.6 M98.8 7.6 L94.45 7.6 Q93.65 9.3 93.2 10.75 L100.05 10.75 M44.45 0.0 L72.0 0.0 75.9 3.05 82.15 3.05 88.0 7.6 94.45 7.6 M87.35 10.75 L86.1 7.6 81.75 7.6 Q80.55 10.25 80.1 12.3 79.85 13.55 79.9 14.6 80.05 16.95 81.75 18.15 L87.1 18.15 88.0 15.65 84.2 15.65 Q82.5 13.85 83.05 12.3 83.35 11.5 84.2 10.75 L87.35 10.75 93.2 10.75 M86.1 7.6 L88.0 7.6 M93.35 21.35 L93.9 20.55 80.65 20.55 77.45 24.6 84.45 43.6 86.85 43.6 83.65 34.35 81.3 27.65 81.3 27.55 83.85 27.65 97.3 29.75 102.1 43.6 104.65 43.6 102.1 36.3 100.15 30.6 102.65 30.6 114.75 32.55 118.6 43.6 M94.45 18.15 L95.45 18.15 95.6 17.9 99.9 17.9 100.7 15.65 92.75 15.65 Q93.15 17.25 94.45 18.15 L87.1 18.15 M93.9 20.55 L95.45 18.15 M92.75 15.65 L88.0 15.65 M96.85 35.75 L94.75 29.75 81.3 27.65 M87.7 46.05 L82.15 46.05 75.15 27.9 M96.75 46.55 L87.9 46.55 87.7 46.05 86.85 43.6 M96.75 46.55 L100.55 46.55 96.85 35.75 83.65 34.35 M90.3 48.6 L94.6 48.6 96.75 46.55 M102.1 43.6 L103.1 46.55 100.55 46.55 M104.65 43.6 L105.65 46.55 114.55 46.55 M117.1 46.55 L113.95 37.55 102.1 36.3 M100.15 30.6 L112.25 32.55 113.95 37.55 M101.7 17.9 L99.9 17.9 M100.7 15.65 L103.15 15.65 M90.55 66.15 Q92.6 66.1 94.3 64.9 L101.5 61.8 123.9 59.1 122.2 57.65 119.65 57.65 118.35 56.5 116.45 56.5 115.45 58.15 85.0 61.8 77.8 64.9 Q76.1 66.1 74.05 66.15 L90.4 66.15 90.55 66.15 106.9 66.15 Q109.05 66.15 110.8 64.9 L118.0 61.8 125.85 60.85 123.9 59.1 M116.45 56.5 L112.15 56.5 110.1 55.1 110.1 51.4 89.05 51.4 81.4 51.4 80.0 54.3 Q79.75 60.05 85.0 61.8 M115.65 49.75 L110.1 50.65 110.1 51.4 M160.75 51.65 L156.55 54.7 140.55 54.7 138.8 57.65 122.2 57.65 M118.85 47.85 L120.65 52.15 131.45 52.15 132.45 54.6 134.6 54.6 M159.0 60.95 L125.95 60.95 125.85 60.85 M142.75 49.65 L137.65 49.65 M89.05 51.4 L90.3 48.6 80.65 48.6 78.85 48.6 76.3 54.3 80.0 54.3 M75.95 24.6 L77.45 24.6 M73.4 24.6 L75.95 24.6 70.2 30.35 Q70.7 42.95 80.65 48.6 M73.4 24.6 L78.35 18.15 58.95 18.15 Q57.95 17.5 57.5 16.5 L55.0 16.5 50.05 18.8 49.15 21.2 48.65 22.6 50.95 25.5 51.85 24.6 73.4 24.6 M58.25 9.2 L52.05 3.05 47.5 3.05 13.3 3.05 8.9 3.05 0.15 16.5 2.55 21.85 5.05 21.85 35.9 21.85 36.3 21.2 49.15 21.2 M81.75 7.6 L58.95 7.6 58.25 9.2 Q56.95 12.4 57.05 14.6 L79.9 14.6 M49.35 5.85 Q51.55 5.85 52.5 7.65 53.4 9.5 52.5 12.05 51.6 14.65 49.35 16.45 47.15 18.25 44.9 18.25 42.65 18.25 41.75 16.45 40.8 14.65 41.75 12.05 42.65 9.5 44.85 7.65 47.1 5.85 49.35 5.85 M44.45 0.0 L47.5 3.05 M47.6 14.85 Q46.1 16.1 44.65 16.1 43.2 16.1 42.6 14.85 41.95 13.7 42.6 12.0 43.15 10.3 44.65 9.1 46.1 7.95 47.55 7.95 49.0 7.95 49.6 9.1 50.25 10.3 49.65 12.0 49.05 13.7 47.6 14.85 M57.5 16.5 Q57.1 15.65 57.05 14.6 M46.1 30.35 Q46.25 33.5 46.95 36.2 47.6 38.6 48.65 40.7 L50.4 43.4 Q52.15 45.65 54.55 47.35 L56.5 48.6 78.85 48.6 M50.4 43.4 L42.3 43.4 37.45 46.7 35.4 46.7 35.7 47.35 38.1 47.35 54.55 47.35 M50.95 25.5 L50.05 26.4 46.1 30.35 70.2 30.35 M52.05 3.05 L75.9 3.05 M32.55 9.1 Q34.05 7.95 35.5 7.95 36.95 7.95 37.55 9.1 38.2 10.3 37.6 12.0 37.0 13.7 35.5 14.85 34.05 16.1 32.6 16.1 31.15 16.1 30.55 14.85 29.9 13.7 30.5 12.0 31.1 10.3 32.55 9.1 M29.7 16.45 Q28.75 14.65 29.65 12.05 30.6 9.5 32.8 7.65 35.0 5.85 37.25 5.85 39.5 5.85 40.45 7.65 41.35 9.5 40.45 12.05 39.55 14.65 37.3 16.45 35.1 18.25 32.85 18.25 30.6 18.25 29.7 16.45 M28.35 7.65 Q29.3 9.5 28.4 12.05 27.45 14.65 25.25 16.45 23.05 18.25 20.8 18.25 18.55 18.25 17.6 16.45 16.7 14.65 17.6 12.05 18.5 9.5 20.75 7.65 22.95 5.85 25.2 5.85 27.45 5.85 28.35 7.65 M25.5 9.15 Q26.15 10.3 25.55 12.0 24.9 13.7 23.45 14.9 22.0 16.1 20.55 16.1 19.05 16.1 18.45 14.9 17.85 13.7 18.45 12.0 19.05 10.3 20.5 9.15 21.95 7.95 23.45 7.95 24.9 7.95 25.5 9.15 M5.05 23.85 L6.6 23.85 9.8 23.85 12.95 23.85 16.15 23.85 19.3 23.85 22.5 23.85 34.55 23.85 35.9 21.85 M16.3 7.65 Q17.25 9.5 16.35 12.05 15.4 14.65 13.2 16.45 10.95 18.25 8.75 18.25 6.5 18.25 5.55 16.45 4.65 14.65 5.55 12.05 6.45 9.5 8.7 7.65 10.9 5.85 13.15 5.85 15.4 5.85 16.3 7.65 M13.3 3.05 L15.25 0.0 44.45 0.0 M6.4 12.0 Q7.0 10.3 8.45 9.15 9.9 7.95 11.4 7.95 12.85 7.95 13.45 9.15 14.05 10.3 13.45 12.0 12.85 13.7 11.4 14.9 9.95 16.1 8.45 16.1 7.0 16.1 6.4 14.9 5.8 13.7 6.4 12.0 M5.05 23.85 L5.05 21.85 M0.0 28.15 L3.45 23.85 5.05 23.85 M12.7 28.15 L14.25 31.85 M15.9 28.15 L17.45 31.85 M15.9 28.15 L19.05 28.15 20.75 26.0 M12.7 28.15 L14.4 26.0 M12.7 28.15 L15.9 28.15 17.6 26.0 M3.2 28.15 L6.35 28.15 8.05 26.0 M3.2 28.15 L4.9 26.0 M9.55 28.15 L6.35 28.15 7.9 31.85 M4.75 31.85 L3.2 28.15 0.0 28.15 7.75 46.7 10.85 46.7 10.95 46.7 5.0 32.45 M10.95 46.7 L14.1 46.7 8.2 32.45 M14.1 46.7 L17.3 46.7 11.35 32.45 M17.3 46.7 L18.4 46.7 20.45 46.7 14.5 32.45 M18.4 46.7 L18.6 48.25 Q18.9 49.4 19.5 50.25 L20.05 50.9 21.85 52.1 23.7 52.1 28.75 52.1 39.05 52.1 Q38.0 50.15 38.1 47.35 M11.25 26.0 L9.55 28.15 12.7 28.15 M11.1 31.85 L9.55 28.15 M19.05 28.15 L33.65 28.15 32.9 26.4 34.55 23.85 M23.6 46.7 L26.8 46.7 20.85 32.45 M20.45 46.7 L23.6 46.7 17.7 32.45 M33.65 28.15 L39.0 40.7 48.65 40.7 M35.4 46.7 L26.8 46.7 M19.05 28.15 L20.6 31.85 M22.5 23.85 L21.25 25.4 M16.15 23.85 L14.9 25.4 M11.75 25.4 L12.95 23.85 M19.3 23.85 L18.1 25.4 M6.6 23.85 L5.4 25.4 M9.8 23.85 L8.55 25.4 M27.05 56.85 Q27.15 55.65 27.5 54.55 27.95 53.2 28.75 52.1 M74.05 66.15 L73.7 66.15 71.15 66.15 68.6 66.15 66.1 66.15 63.55 66.15 34.4 66.15 29.45 66.15 Q26.9 66.15 25.0 64.45 L24.15 63.6 23.55 62.85 Q21.95 60.55 21.95 57.55 21.95 55.95 22.4 54.55 L14.6 52.55 Q11.25 50.15 10.85 46.7 M23.7 52.1 Q22.85 53.2 22.4 54.55 M34.4 66.15 Q31.95 66.1 30.05 64.45 L29.25 63.6 28.65 62.85 Q27.05 60.55 27.05 57.55 M73.7 66.15 Q70.7 66.05 68.6 63.6 66.4 61.1 66.4 57.55 66.4 55.8 66.9 54.3 L64.4 54.3 Q63.85 55.8 63.85 57.55 M61.3 57.55 Q61.3 55.8 61.85 54.3 L59.3 54.3 Q58.75 55.8 58.75 57.55 M64.4 54.3 L61.85 54.3 M66.1 66.15 Q63.1 66.05 60.95 63.6 59.0 61.35 58.8 58.25 M68.6 66.15 Q65.65 66.05 63.5 63.6 61.55 61.35 61.35 58.25 M71.15 66.15 Q68.2 66.05 66.05 63.6 64.05 61.35 63.9 58.25 M76.3 54.3 L66.9 54.3 M63.55 66.15 Q60.55 66.05 58.45 63.6 56.45 61.35 56.25 58.25 M56.25 57.55 Q56.25 55.8 56.75 54.3 L41.05 54.3 Q39.8 53.4 39.05 52.1 M59.3 54.3 L56.75 54.3 M50.05 26.4 L32.9 26.4 M81.75 18.15 L78.35 18.15 M172.3 11.65 L134.95 6.3" fill="none" stroke-width="0.7" stroke="#000000" stroke-opacity="0.4"/>
    </g>
    <radialGradient cx="0" cy="0" gradientTransform="matrix(0.0133, 0.0, 0.0, 0.0133, 45.25, 7.65)" gradientUnits="userSpaceOnUse" id="gradient0" r="819.2" spreadMethod="pad">
      <stop offset="0.0" stop-color="#cccccc"/>
      <stop offset="1.0" stop-color="#333333"/>
    </radialGradient>
    <radialGradient cx="0" cy="0" gradientTransform="matrix(0.013, 0.0, 0.0, 0.013, 33.6, 7.9)" gradientUnits="userSpaceOnUse" id="gradient1" r="819.2" spreadMethod="pad">
      <stop offset="0.0" stop-color="#cccccc"/>
      <stop offset="1.0" stop-color="#333333"/>
    </radialGradient>
    <radialGradient cx="0" cy="0" gradientTransform="matrix(0.013, 0.0, 0.0, 0.013, 20.9, 7.9)" gradientUnits="userSpaceOnUse" id="gradient2" r="819.2" spreadMethod="pad">
      <stop offset="0.0" stop-color="#cccccc"/>
      <stop offset="1.0" stop-color="#333333"/>
    </radialGradient>
    <radialGradient cx="0" cy="0" gradientTransform="matrix(0.013, 0.0, 0.0, 0.013, 8.7, 7.9)" gradientUnits="userSpaceOnUse" id="gradient3" r="819.2" spreadMethod="pad">
      <stop offset="0.0" stop-color="#cccccc"/>
      <stop offset="1.0" stop-color="#333333"/>
    </radialGradient>
    <linearGradient gradientTransform="matrix(0.0, 0.0141, -0.0445, 0.0, 113.9, 32.05)" gradientUnits="userSpaceOnUse" id="gradient4" spreadMethod="pad" x1="-819.2" x2="819.2">
      <stop offset="0.0" stop-color="#ff7300"/>
      <stop offset="0.23137254901960785" stop-color="#ffbb00"/>
      <stop offset="0.4666666666666667" stop-color="#ffc800"/>
      <stop offset="1.0" stop-color="#ff7200"/>
    </linearGradient>
    <radialGradient cx="0" cy="0" gradientTransform="matrix(0.0065, 0.0, 0.0, 0.0065, 44.75, 11.3)" gradientUnits="userSpaceOnUse" id="gradient5" r="819.2" spreadMethod="pad">
      <stop offset="0.0" stop-color="#ffbb00"/>
      <stop offset="1.0" stop-color="#ff7200"/>
    </radialGradient>
    <radialGradient cx="0" cy="0" gradientTransform="matrix(0.0067, 0.0, 0.0, 0.0067, 32.55, 11.3)" gradientUnits="userSpaceOnUse" id="gradient6" r="819.2" spreadMethod="pad">
      <stop offset="0.0" stop-color="#ffbb00"/>
      <stop offset="1.0" stop-color="#ff7200"/>
    </radialGradient>
    <radialGradient cx="0" cy="0" gradientTransform="matrix(0.0072, 0.0, 0.0, 0.0072, 20.05, 11.3)" gradientUnits="userSpaceOnUse" id="gradient7" r="819.2" spreadMethod="pad">
      <stop offset="0.0" stop-color="#ffbb00"/>
      <stop offset="1.0" stop-color="#ff7200"/>
    </radialGradient>
    <radialGradient cx="0" cy="0" gradientTransform="matrix(0.0072, 0.0, 0.0, 0.0072, 7.95, 10.95)" gradientUnits="userSpaceOnUse" id="gradient8" r="819.2" spreadMethod="pad">
      <stop offset="0.0" stop-color="#ffbb00"/>
      <stop offset="1.0" stop-color="#ff7200"/>
    </radialGradient>
    <linearGradient gradientTransform="matrix(0.0064, 0.0, 0.0, 0.0026, 163.35, 15.7)" gradientUnits="userSpaceOnUse" id="gradient9" spreadMethod="pad" x1="-819.2" x2="819.2">
      <stop offset="0.0" stop-color="#ffc800"/>
      <stop offset="0.4117647058823529" stop-color="#ff7300"/>
      <stop offset="1.0" stop-color="#666666"/>
    </linearGradient>
    <linearGradient gradientTransform="matrix(0.0064, 0.0, 0.0, 0.0026, 183.65, 15.7)" gradientUnits="userSpaceOnUse" id="gradient10" spreadMethod="pad" x1="-819.2" x2="819.2">
      <stop offset="0.0" stop-color="#ffc800"/>
      <stop offset="0.4117647058823529" stop-color="#ff7300"/>
      <stop offset="1.0" stop-color="#666666"/>
    </linearGradient>
    <linearGradient gradientTransform="matrix(0.0064, 0.0, 0.0, 0.0026, 204.0, 15.7)" gradientUnits="userSpaceOnUse" id="gradient11" spreadMethod="pad" x1="-819.2" x2="819.2">
      <stop offset="0.0" stop-color="#ffc800"/>
      <stop offset="0.4117647058823529" stop-color="#ff7300"/>
      <stop offset="1.0" stop-color="#666666"/>
    </linearGradient>
    <linearGradient gradientTransform="matrix(0.0079, 0.0, 0.0, 0.0134, 179.75, 32.15)" gradientUnits="userSpaceOnUse" id="gradient12" spreadMethod="pad" x1="-819.2" x2="819.2">
      <stop offset="0.0" stop-color="#ffc800"/>
      <stop offset="0.4117647058823529" stop-color="#ff7300"/>
      <stop offset="1.0" stop-color="#666666"/>
    </linearGradient>
    <linearGradient gradientTransform="matrix(0.0079, 0.0, 0.0, 0.0134, 200.05, 32.15)" gradientUnits="userSpaceOnUse" id="gradient13" spreadMethod="pad" x1="-819.2" x2="819.2">
      <stop offset="0.0" stop-color="#ffc800"/>
      <stop offset="0.4117647058823529" stop-color="#ff7300"/>
      <stop offset="1.0" stop-color="#666666"/>
    </linearGradient>
    <linearGradient gradientTransform="matrix(0.0079, 0.0, 0.0, 0.0134, 220.4, 32.15)" gradientUnits="userSpaceOnUse" id="gradient14" spreadMethod="pad" x1="-819.2" x2="819.2">
      <stop offset="0.0" stop-color="#ffc800"/>
      <stop offset="0.4117647058823529" stop-color="#ff7300"/>
      <stop offset="1.0" stop-color="#666666"/>
    </linearGradient>
  </defs>
</svg>
