<?xml version="1.0" encoding="UTF-8" standalone="no"?>
<svg xmlns:xlink="http://www.w3.org/1999/xlink" height="199.0px" width="212.3px" xmlns="http://www.w3.org/2000/svg">
  <g transform="matrix(1.0, 0.0, 0.0, 1.0, 0.05, 0.05)">
    <path d="M163.65 19.3 L166.65 30.5 167.9 35.15 156.6 35.15 152.35 19.3 163.65 19.3 M176.6 55.05 L177.1 58.2 Q153.25 62.25 122.4 58.2 L122.4 58.15 122.15 56.65 107.15 62.6 103.05 63.05 125.95 54.35 128.45 54.75 Q139.55 56.75 151.0 56.9 163.55 57.05 176.6 55.05 M177.6 61.95 L177.9 63.9 173.75 64.6 Q162.75 66.4 152.1 66.55 139.45 66.3 127.25 63.9 L123.15 64.7 123.15 64.6 123.1 63.9 123.1 63.8 123.0 62.65 Q155.8 66.8 177.6 61.95 M145.4 19.3 L146.5 23.3 147.3 26.4 152.15 26.4 153.85 32.8 149.0 32.8 149.6 35.15 138.35 35.15 134.1 19.3 145.4 19.3 M127.15 19.3 L128.25 23.3 129.05 26.4 130.75 32.8 129.05 26.4 133.9 26.4 135.55 32.8 130.75 32.8 131.35 35.15 120.05 35.15 115.85 19.3 127.15 19.3 M147.3 26.4 L149.0 32.8 147.3 26.4 M122.15 56.65 L127.4 55.1 Q139.0 57.0 151.0 56.9 139.0 57.0 127.4 55.1 L122.15 56.65 M141.65 94.35 L137.85 95.35 Q133.2 96.7 128.15 98.95 126.15 99.8 124.1 100.8 L119.05 100.8 Q121.1 99.8 123.1 98.95 128.15 96.7 132.75 95.35 L136.75 94.3 137.6 94.2 139.9 94.1 141.6 94.05 141.6 94.1 141.65 94.3 141.65 94.35 M67.65 120.5 L67.65 123.45 62.5 123.45 67.65 123.45 67.65 127.55 67.65 131.45 57.0 131.45 59.65 127.55 67.65 127.55 59.65 127.55 60.4 126.5 62.5 123.45 64.55 120.5 67.65 120.5 M51.2 150.6 L60.0 141.75 67.65 141.75 67.65 155.15 58.5 155.15 55.75 155.15 51.2 150.6" fill="#555555" fill-rule="evenodd" stroke="none"/>
    <path d="M166.65 30.5 L175.5 38.1 120.75 38.1 108.45 27.55 112.0 27.55 120.05 35.15 131.35 35.15 130.75 32.8 135.55 32.8 138.35 35.15 149.6 35.15 149.0 32.8 153.85 32.8 156.6 35.15 167.9 35.15 166.65 30.5 M177.9 63.9 L182.0 63.9 177.9 64.6 Q164.75 66.7 152.1 66.55 162.75 66.4 173.75 64.6 L177.9 63.9 M141.2 113.2 L144.9 112.5 Q156.9 110.5 167.3 109.85 174.0 109.45 180.1 109.6 165.85 110.0 148.65 113.2 L141.2 113.2 M73.65 48.05 L65.25 39.55 70.45 39.55 74.2 43.3 78.95 48.15 73.75 48.15 73.65 48.05 M56.65 30.95 L61.9 30.95 70.45 39.55 65.25 39.55 56.65 30.95" fill="#cccccc" fill-rule="evenodd" stroke="none"/>
    <path d="M175.5 38.1 Q179.85 50.1 180.65 54.35 L176.6 55.05 Q163.55 57.05 151.0 56.9 139.55 56.75 128.45 54.75 L125.95 54.35 Q124.9 49.5 120.75 38.1 L175.5 38.1 M182.0 63.9 L182.3 71.65 182.2 76.0 Q157.75 68.0 127.45 76.0 L127.55 71.65 127.35 64.7 127.25 63.9 Q139.45 66.3 152.1 66.55 164.75 66.7 177.9 64.6 L182.0 63.9 M69.35 0.0 L123.95 0.0 124.35 0.0 Q140.65 0.55 153.65 10.3 L98.95 10.3 95.3 7.8 Q83.7 0.55 69.75 0.1 L69.35 0.0" fill="url(#gradient0)" fill-rule="evenodd" stroke="none"/>
    <path d="M177.1 58.2 L177.6 61.95 Q155.8 66.8 123.0 62.65 L122.9 61.8 122.75 60.45 122.4 58.2 Q153.25 62.25 177.1 58.2" fill="url(#gradient1)" fill-rule="evenodd" stroke="none"/>
    <path d="M182.2 76.0 L186.2 81.65 Q189.25 86.6 191.35 92.1 L191.85 93.7 189.4 93.7 185.9 93.85 187.8 100.75 191.9 101.5 194.2 102.1 194.55 103.85 195.05 107.35 195.35 110.0 Q188.2 109.35 180.1 109.6 174.0 109.45 167.3 109.85 156.9 110.5 144.9 112.5 L141.2 113.2 114.75 113.2 Q112.35 116.8 109.25 119.9 108.95 113.15 106.05 107.95 L104.5 105.6 Q100.35 99.9 94.75 99.2 L93.3 99.1 91.15 99.3 89.1 99.1 86.0 99.5 83.9 100.25 Q87.25 95.8 89.9 93.95 L90.6 93.5 Q99.85 87.45 108.0 83.4 118.65 78.0 127.45 76.0 157.75 68.0 182.2 76.0 M186.2 81.65 Q181.45 80.1 176.45 79.2 L177.85 86.8 162.5 86.05 148.55 87.6 143.4 79.2 Q137.6 80.1 131.6 81.7 116.05 85.25 94.75 99.2 116.05 85.25 131.6 81.7 137.6 80.1 143.4 79.2 L148.55 87.6 162.5 86.05 177.85 86.8 176.45 79.2 Q181.45 80.1 186.2 81.65 M162.5 86.05 L167.3 109.85 162.5 86.05 M141.65 94.35 L141.65 94.3 141.6 94.1 141.6 94.05 139.9 94.1 137.6 94.2 136.75 94.3 132.75 95.35 Q128.15 96.7 123.1 98.95 121.1 99.8 119.05 100.8 L121.2 104.85 125.5 103.45 Q135.2 100.5 142.95 100.95 L141.65 94.35" fill="url(#gradient2)" fill-rule="evenodd" stroke="none"/>
    <path d="M189.4 93.7 L191.9 101.5 187.8 100.75 185.9 93.85 189.4 93.7" fill="url(#gradient3)" fill-rule="evenodd" stroke="none"/>
    <path d="M195.35 110.0 Q204.5 110.9 212.1 113.2 L212.2 116.75 212.1 120.65 211.6 125.7 Q209.85 138.4 203.15 149.0 L201.8 151.0 Q198.85 155.1 195.25 158.85 182.3 172.4 165.15 175.45 L167.75 170.3 Q170.8 168.75 173.65 166.7 L174.15 166.3 169.7 166.3 135.05 166.3 134.55 166.7 131.6 168.6 128.85 170.15 123.8 172.45 119.65 174.0 Q113.0 175.95 105.5 176.3 L93.75 176.3 Q101.25 175.95 107.9 174.0 L112.1 172.45 Q117.75 170.2 122.8 166.7 L124.55 165.45 Q128.3 162.5 131.75 158.85 L133.65 156.85 138.25 151.0 139.6 149.0 Q142.8 143.95 144.9 138.5 L145.8 135.8 Q148.1 128.6 148.65 120.65 L159.7 118.85 165.0 118.25 172.9 117.45 178.1 117.2 180.1 117.1 185.9 117.1 191.15 117.25 195.35 117.5 198.95 117.95 204.1 118.75 Q208.25 119.5 212.1 120.65 208.25 119.5 204.1 118.75 L198.95 117.95 195.35 117.5 191.15 117.25 185.9 117.1 180.1 117.1 178.1 117.2 172.9 117.45 165.0 118.25 159.7 118.85 148.65 120.65 148.65 120.3 148.7 116.75 148.7 114.05 148.65 113.2 Q165.85 110.0 180.1 109.6 188.2 109.35 195.35 110.0 M149.35 149.0 L139.6 149.0 149.35 149.0 147.75 151.2 145.45 154.15 142.9 157.0 148.1 157.0 152.95 151.2 154.5 149.0 Q157.9 144.05 160.2 138.65 L161.25 136.0 Q163.5 130.0 164.45 123.55 L164.45 123.45 159.15 124.15 158.75 126.35 Q157.75 131.3 156.05 136.0 L155.0 138.65 Q153.5 142.2 151.45 145.65 L149.35 149.0 M162.35 149.0 L154.5 149.0 162.35 149.0 160.8 151.2 158.5 154.15 155.9 157.0 161.15 157.0 166.0 151.2 167.6 149.0 Q171.0 144.05 173.3 138.65 L174.35 136.0 Q176.7 129.5 177.6 122.4 L172.35 122.65 172.0 125.2 Q171.0 130.8 169.1 136.0 L168.05 138.65 Q166.55 142.2 164.5 145.65 L162.35 149.0 M175.4 149.0 L167.6 149.0 175.4 149.0 173.8 151.2 171.5 154.15 168.95 157.0 174.15 157.0 179.05 151.2 180.6 149.0 Q184.0 144.05 186.3 138.65 L187.35 136.0 Q189.75 129.5 190.65 122.4 L185.5 122.25 185.05 125.2 Q184.05 130.8 182.15 136.0 L181.1 138.65 177.55 145.65 175.4 149.0 M188.45 149.0 L180.6 149.0 188.45 149.0 186.9 151.2 184.6 154.15 182.0 157.0 187.25 157.0 192.1 151.2 193.65 149.0 Q197.05 144.05 199.35 138.65 L200.4 136.0 Q202.55 130.15 203.55 123.8 L198.4 123.0 197.8 126.7 Q196.85 131.5 195.2 136.0 L194.15 138.65 Q192.6 142.2 190.55 145.65 L188.45 149.0 M203.15 149.0 L193.65 149.0 203.15 149.0" fill="url(#gradient4)" fill-rule="evenodd" stroke="none"/>
    <path d="M158.75 126.35 L159.15 124.15 164.45 123.45 164.45 123.55 158.75 126.35 M172.0 125.2 L172.35 122.65 177.6 122.4 172.0 125.2 M185.05 125.2 L185.5 122.25 190.65 122.4 185.05 125.2 M197.8 126.7 L198.4 123.0 203.55 123.8 197.8 126.7" fill="#37545d" fill-rule="evenodd" stroke="none"/>
    <path d="M175.4 149.0 L177.55 145.65 181.1 138.65 182.15 136.0 Q184.05 130.8 185.05 125.2 L190.65 122.4 Q189.75 129.5 187.35 136.0 L186.3 138.65 Q184.0 144.05 180.6 149.0 L179.05 151.2 174.15 157.0 171.5 154.15 173.8 151.2 175.4 149.0 M177.55 145.65 L180.6 149.0 177.55 145.65" fill="url(#gradient5)" fill-rule="evenodd" stroke="none"/>
    <path d="M162.35 149.0 L164.5 145.65 Q166.55 142.2 168.05 138.65 L169.1 136.0 Q171.0 130.8 172.0 125.2 L177.6 122.4 Q176.7 129.5 174.35 136.0 L173.3 138.65 Q171.0 144.05 167.6 149.0 L166.0 151.2 161.15 157.0 158.5 154.15 160.8 151.2 162.35 149.0 M164.5 145.65 L167.6 149.0 164.5 145.65" fill="url(#gradient6)" fill-rule="evenodd" stroke="none"/>
    <path d="M188.45 149.0 L190.55 145.65 Q192.6 142.2 194.15 138.65 L195.2 136.0 Q196.85 131.5 197.8 126.7 L203.55 123.8 Q202.55 130.15 200.4 136.0 L199.35 138.65 Q197.05 144.05 193.65 149.0 L192.1 151.2 187.25 157.0 184.6 154.15 186.9 151.2 188.45 149.0 M190.55 145.65 L193.65 149.0 190.55 145.65" fill="url(#gradient7)" fill-rule="evenodd" stroke="none"/>
    <path d="M184.6 154.15 L187.25 157.0 182.0 157.0 184.6 154.15" fill="#b1c8d0" fill-rule="evenodd" stroke="none"/>
    <path d="M171.5 154.15 L174.15 157.0 168.95 157.0 171.5 154.15 M148.1 157.0 L142.9 157.0 145.45 154.15 148.1 157.0 M161.15 157.0 L155.9 157.0 158.5 154.15 161.15 157.0" fill="#7d9faa" fill-rule="evenodd" stroke="none"/>
    <path d="M165.15 175.45 L164.95 175.85 161.5 171.75 136.2 171.75 131.75 180.65 125.6 180.65 131.6 168.6 134.55 166.7 135.05 166.3 169.7 166.3 167.75 170.3 165.15 175.45" fill="url(#gradient8)" fill-rule="evenodd" stroke="none"/>
    <path d="M131.95 198.9 L118.95 198.9 127.9 193.3 130.55 193.3 147.9 182.55 156.15 182.55 155.2 184.4 131.95 198.9 M112.8 198.9 L95.95 198.9 93.7 193.3 105.3 193.3 111.45 193.3 131.75 180.65 136.2 171.75 140.1 176.35 136.05 184.4 112.8 198.9 M62.95 188.5 L55.1 188.5 54.15 182.7 53.7 180.0 53.3 177.55 52.75 174.4 52.2 170.8 51.6 167.3 35.35 167.3 28.3 167.3 25.75 156.2 22.7 143.15 18.85 143.15 17.15 135.9 46.9 135.9 46.9 143.15 46.9 146.25 48.8 148.15 51.2 150.6 55.75 155.15 58.5 155.15 58.5 160.5 63.3 165.3 67.5 165.3 63.3 165.3 58.5 160.5 58.5 155.15 67.65 155.15 69.5 155.15 67.5 165.3 64.6 180.0 62.95 188.5 M26.3 35.45 L29.55 29.45 37.15 27.5 46.15 25.15 Q60.0 27.1 67.1 30.05 69.0 30.9 70.4 31.7 L77.45 43.3 74.2 43.3 70.45 39.55 61.9 30.95 56.65 30.95 44.3 30.95 43.5 35.45 37.15 35.45 26.3 35.45 M152.35 19.3 L156.6 35.15 153.85 32.8 152.15 26.4 146.5 23.3 145.4 19.3 143.3 18.15 140.15 12.55 152.35 19.3 M167.75 170.3 L169.7 166.3 174.15 166.3 173.65 166.7 Q170.8 168.75 167.75 170.3 M125.05 18.15 L121.9 12.55 134.1 19.3 138.35 35.15 135.55 32.8 133.9 26.4 128.25 23.3 127.15 19.3 125.05 18.15 M115.85 19.3 L120.05 35.15 112.0 27.55 103.65 12.55 115.85 19.3 M122.4 58.15 L112.35 62.35 113.3 65.65 123.0 62.65 123.1 63.8 123.1 63.9 123.15 64.6 123.15 64.7 122.1 64.9 110.0 68.4 107.15 62.6 122.15 56.65 122.4 58.15 M59.5 19.75 Q59.65 17.8 61.75 15.05 L62.1 14.65 63.15 13.45 Q64.95 11.6 67.2 10.15 70.45 8.05 72.8 8.05 L72.9 8.05 Q72.85 10.0 70.7 12.7 L70.0 13.65 69.55 14.2 68.6 15.15 65.25 17.7 Q62.0 19.75 59.65 19.75 L59.5 19.75 M41.95 20.05 Q42.1 18.65 43.35 16.85 L43.75 16.3 44.85 15.0 Q46.3 13.5 48.1 12.35 50.75 10.7 52.55 10.7 L52.65 10.7 Q52.6 12.25 50.9 14.45 L50.25 15.3 49.95 15.6 Q48.5 17.2 46.55 18.4 43.95 20.05 42.05 20.05 L41.95 20.05 M37.15 35.45 L37.15 27.5 37.15 35.45 M63.5 55.8 L64.6 57.1 66.15 59.4 Q67.8 62.15 68.8 65.15 69.7 67.9 70.1 70.95 L70.3 75.3 70.3 76.7 Q70.2 79.7 69.6 82.5 L69.05 84.65 67.7 88.25 Q66.45 91.05 64.6 93.5 L64.15 94.05 Q61.6 97.15 58.65 98.85 L51.45 98.85 58.65 98.85 55.9 100.15 55.05 100.4 Q53.15 99.9 51.45 98.85 L49.45 97.55 54.85 97.55 Q58.15 97.45 60.5 94.7 L61.05 94.05 61.85 92.65 Q62.85 90.65 62.95 88.25 L62.95 82.5 62.95 76.7 62.95 70.95 62.95 65.2 62.95 65.15 68.8 65.15 62.95 65.15 62.95 62.1 62.6 59.4 66.15 59.4 62.6 59.4 Q62.0 57.2 60.5 55.45 L58.4 53.6 Q56.75 52.6 54.8 52.55 L50.2 52.55 Q52.5 50.95 55.05 50.2 L55.95 50.5 Q58.6 51.5 61.05 53.45 L61.25 53.6 63.5 55.8 M70.1 70.95 L62.95 70.95 70.1 70.95 M70.3 76.7 L62.95 76.7 70.3 76.7 M61.05 94.05 L64.15 94.05 61.05 94.05 M67.7 88.25 L62.95 88.25 67.7 88.25 M69.6 82.5 L62.95 82.5 69.6 82.5 M58.4 53.6 L61.25 53.6 58.4 53.6 M87.35 136.05 Q85.9 135.45 84.65 134.3 L83.9 133.5 82.75 132.15 82.25 131.35 Q81.3 129.9 80.7 128.25 L79.9 125.4 79.55 122.05 79.5 121.35 Q79.5 120.1 79.65 119.0 79.8 117.4 80.2 115.9 80.6 114.3 81.35 112.85 L82.75 110.5 83.5 109.6 84.65 109.6 81.35 112.85 83.25 112.85 80.2 115.9 82.7 115.9 79.65 119.0 82.65 119.0 79.55 122.05 83.25 122.05 79.9 125.4 83.6 125.4 80.75 128.25 80.7 128.25 80.75 128.25 85.35 128.25 82.25 131.35 87.6 131.35 84.65 134.3 89.1 134.3 87.35 136.05 M78.45 137.8 L78.45 145.25 Q77.6 146.9 77.2 148.8 L76.85 151.15 76.6 151.15 76.6 141.75 76.6 135.1 77.75 136.85 78.45 137.8 M26.45 143.15 Q26.45 144.9 27.45 146.2 28.45 147.5 29.85 147.5 31.3 147.5 32.3 146.2 33.3 144.9 33.3 143.15 33.3 141.35 32.3 140.05 31.3 138.75 29.85 138.75 28.45 138.75 27.45 140.05 26.45 141.35 26.45 143.15 L22.7 143.15 26.45 143.15 M46.9 143.15 L33.3 143.15 46.9 143.15 M29.85 156.2 Q29.85 158.0 30.9 159.3 31.9 160.55 33.3 160.55 34.7 160.55 35.7 159.3 36.75 158.0 36.75 156.2 36.75 154.4 35.7 153.1 34.7 151.85 33.3 151.85 31.9 151.85 30.9 153.1 29.85 154.4 29.85 156.2 L25.75 156.2 29.85 156.2 M48.8 148.15 L40.7 156.2 36.75 156.2 40.7 156.2 48.8 148.15 M64.6 180.0 L53.7 180.0 64.6 180.0 M103.2 158.65 L102.1 159.35 96.9 162.55 94.5 155.5 93.35 152.25 90.25 143.25 91.15 143.15 93.3 143.3 94.45 143.25 97.3 142.6 98.85 146.75 93.35 152.25 98.85 146.75 100.0 149.95 103.2 158.65 M100.0 149.95 L94.5 155.5 100.0 149.95" fill="#333333" fill-rule="evenodd" stroke="none"/>
    <path d="M164.95 175.85 L165.4 176.35 140.1 176.35 136.2 171.75 161.5 171.75 164.95 175.85 M17.15 135.9 L11.3 135.9 8.7 127.0 0.0 97.55 2.75 90.55 8.8 75.3 12.85 75.3 19.25 75.3 14.15 88.15 12.0 93.55 10.55 97.25 10.45 97.55 11.45 100.9 12.5 104.55 13.6 108.2 14.7 111.9 15.8 115.55 16.75 118.9 16.9 119.2 17.95 122.95 19.0 126.5 25.45 126.5 55.2 126.5 48.65 135.9 46.9 135.9 17.15 135.9 M156.45 15.3 L163.65 19.3 152.35 19.3 140.15 12.55 151.5 12.55 156.45 15.3 M143.3 18.15 L145.4 19.3 134.1 19.3 121.9 12.55 133.2 12.55 143.3 18.15 M146.5 23.3 L152.15 26.4 147.3 26.4 146.5 23.3 M127.15 19.3 L115.85 19.3 103.65 12.55 114.95 12.55 125.05 18.15 127.15 19.3 M129.05 26.4 L128.25 23.3 133.9 26.4 129.05 26.4 M41.4 48.05 L42.15 43.65 42.85 39.55 65.25 39.55 42.85 39.55 43.5 35.45 44.3 30.95 56.65 30.95 65.25 39.55 73.65 48.05 Q68.1 43.5 61.25 43.3 L55.05 43.3 53.85 43.3 50.55 43.65 Q45.6 44.6 41.4 48.05 M8.7 127.0 L12.45 123.3 16.75 118.9 12.45 123.3 8.7 127.0 M2.75 90.55 L12.45 123.3 2.75 90.55" fill="#666666" fill-rule="evenodd" stroke="none"/>
    <path d="M153.65 10.3 L156.45 15.3 151.5 12.55 140.15 12.55 143.3 18.15 133.2 12.55 121.9 12.55 125.05 18.15 114.95 12.55 103.65 12.55 112.0 27.55 108.45 27.55 98.95 10.3 153.65 10.3 M107.15 62.6 L110.0 68.4 106.1 69.5 103.05 63.05 107.15 62.6 M119.05 100.8 L124.1 100.8 125.5 103.45 121.2 104.85 119.05 100.8" fill="#bbbbbb" fill-rule="evenodd" stroke="none"/>
    <path d="M29.55 29.45 L22.5 31.2 19.6 29.4 16.65 27.55 Q36.85 11.25 53.15 3.3 59.35 0.35 66.35 0.1 L67.1 0.0 67.25 0.0 69.35 0.0 69.75 0.1 Q83.7 0.55 95.3 7.8 L98.95 10.3 84.65 21.0 70.4 31.7 Q69.0 30.9 67.1 30.05 60.0 27.1 46.15 25.15 L37.15 27.5 29.55 29.45 M55.75 21.45 L57.05 22.75 57.6 23.4 Q58.4 24.0 59.9 24.0 62.45 24.0 65.75 22.25 L67.3 21.3 Q70.5 19.25 73.0 16.6 L73.55 16.05 74.55 14.7 Q77.55 10.9 77.45 8.15 77.4 7.1 76.95 6.45 L76.5 5.95 75.1 4.6 74.45 3.9 74.25 3.8 Q73.5 3.35 72.3 3.35 70.9 3.35 69.3 3.9 67.25 4.6 64.85 6.1 61.85 8.05 59.45 10.55 L57.65 12.65 56.3 14.65 Q55.5 15.95 55.1 17.1 54.7 18.25 54.7 19.25 54.75 20.15 55.1 20.75 L55.2 20.85 55.75 21.45 M54.9 14.7 L55.1 14.4 Q56.35 12.35 56.3 10.75 56.3 9.95 55.9 9.4 L55.55 9.0 54.45 7.9 53.75 7.3 Q53.1 6.95 52.2 6.95 49.7 6.95 46.2 9.15 43.85 10.7 41.9 12.65 L40.5 14.4 Q38.7 16.75 38.25 18.55 L38.15 19.65 Q38.2 20.45 38.5 20.95 L38.95 21.4 40.0 22.4 40.45 22.95 Q41.1 23.45 42.3 23.45 44.75 23.45 48.2 21.25 50.75 19.65 52.75 17.55 L54.0 16.0 54.9 14.7 54.95 14.7 56.3 14.65 54.95 14.7 54.9 14.7 M19.6 29.4 Q28.8 22.25 38.25 18.55 28.8 22.25 19.6 29.4 M84.65 21.0 Q80.4 17.6 73.55 16.05 80.4 17.6 84.65 21.0" fill="url(#gradient9)" fill-rule="evenodd" stroke="none"/>
    <path d="M84.65 21.0 L98.95 10.3 108.45 27.55 78.8 45.55 77.45 43.3 70.4 31.7 84.65 21.0 M67.65 107.35 L69.9 107.35 Q74.0 107.35 77.55 105.85 73.3 112.0 73.1 120.5 L67.65 120.5 67.65 107.35 M67.65 141.75 L67.65 131.45 74.85 131.45 76.6 135.1 76.6 141.75 67.65 141.75" fill="#999999" fill-rule="evenodd" stroke="none"/>
    <path d="M108.45 27.55 L120.75 38.1 87.2 59.45 81.6 50.15 78.8 45.55 108.45 27.55 M67.65 123.45 L67.65 120.5 73.1 120.5 73.1 121.25 73.15 123.45 67.65 123.45 73.15 123.45 Q73.3 125.6 73.75 127.55 L67.65 127.55 73.75 127.55 74.4 130.15 74.85 131.45 67.65 131.45 67.65 127.55 67.65 123.45 M64.55 120.5 L62.5 123.45 60.4 126.5 55.2 126.5 61.7 117.1 66.9 117.1 64.55 120.5 M76.6 141.75 L76.6 151.15 76.6 155.15 69.5 155.15 67.65 155.15 67.65 141.75 76.6 141.75" fill="#888888" fill-rule="evenodd" stroke="none"/>
    <path d="M123.0 62.65 L113.3 65.65 112.35 62.35 122.4 58.15 122.4 58.2 122.75 60.45 122.9 61.8 123.0 62.65" fill="url(#gradient10)" fill-rule="evenodd" stroke="none"/>
    <path d="M127.25 63.9 L127.35 64.7 127.55 71.65 127.45 76.0 Q118.65 78.0 108.0 83.4 99.85 87.45 90.6 93.5 L89.95 87.25 89.35 81.05 87.2 59.45 120.75 38.1 Q124.9 49.5 125.95 54.35 L103.05 63.05 106.1 69.5 110.0 68.4 122.1 64.9 123.15 64.7 127.25 63.9 M148.65 120.65 Q148.1 128.6 145.8 135.8 L144.9 138.5 Q142.8 143.95 139.6 149.0 L129.4 142.45 124.5 146.9 105.95 134.75 124.5 146.9 129.4 142.45 139.6 149.0 138.25 151.0 133.65 156.85 131.75 158.85 Q128.3 162.5 124.55 165.45 L122.8 166.7 Q117.75 170.2 112.1 172.45 L107.9 174.0 Q101.25 175.95 93.75 176.3 L91.45 176.3 91.45 165.15 96.9 162.55 102.1 159.35 103.2 158.65 106.8 155.75 111.1 151.6 111.3 151.3 Q109.05 141.45 105.4 135.7 L105.95 134.75 107.15 132.4 107.75 130.85 107.85 130.45 Q108.95 127.05 109.2 123.25 L109.25 121.25 109.25 119.9 Q112.35 116.8 114.75 113.2 L141.2 113.2 148.65 113.2 148.7 114.05 148.7 116.75 148.65 120.3 148.65 120.65 121.45 120.65 Q117.95 126.05 113.7 130.45 L107.85 130.45 113.7 130.45 Q117.95 126.05 121.45 120.65 L148.65 120.65 M108.0 83.4 L104.3 75.15 89.35 81.05 104.3 75.15 108.0 83.4 M19.25 75.3 L23.0 75.3 23.0 75.85 Q23.0 88.7 28.25 98.65 L28.25 98.7 Q29.95 102.0 32.25 105.0 41.25 116.75 54.0 117.1 L59.2 117.1 61.7 117.1 55.2 126.5 25.45 126.5 24.4 122.9 23.35 119.2 22.25 115.55 21.2 111.9 20.1 108.2 19.6 106.65 19.0 104.55 17.95 100.9 16.85 97.25 15.75 93.55 14.15 88.15 19.25 75.3 M59.65 127.55 L57.0 131.45 53.85 135.9 48.65 135.9 55.2 126.5 60.4 126.5 59.65 127.55 M19.6 106.65 L28.25 98.7 19.6 106.65" fill="#777777" fill-rule="evenodd" stroke="none"/>
    <path d="M81.6 50.15 L87.2 59.45 89.35 81.05 89.95 87.25 77.05 87.25 89.95 87.25 90.6 93.5 89.9 93.95 Q87.25 95.8 83.9 100.25 80.5 101.8 77.75 105.6 L77.55 105.85 Q74.0 107.35 69.9 107.35 L67.65 107.35 55.05 107.35 Q58.0 107.25 60.75 106.3 66.8 104.15 71.55 97.95 75.25 93.15 77.05 87.25 78.75 81.75 78.75 75.35 78.75 62.05 71.55 52.7 L69.4 50.15 81.6 50.15 69.4 50.15 Q68.35 49.0 67.15 48.05 64.15 45.55 60.8 44.4 58.0 43.4 55.05 43.3 L61.25 43.3 Q68.1 43.5 73.65 48.05 L73.75 48.15 78.95 48.15 74.2 43.3 77.45 43.3 78.8 45.55 81.6 50.15" fill="url(#gradient11)" fill-rule="evenodd" stroke="none"/>
    <path d="M124.1 100.8 Q126.15 99.8 128.15 98.95 133.2 96.7 137.85 95.35 L141.65 94.35 142.95 100.95 Q135.2 100.5 125.5 103.45 L124.1 100.8" fill="url(#gradient12)" fill-rule="evenodd" stroke="none"/>
    <path d="M75.1 4.6 L75.45 5.5 75.5 6.1 Q75.55 7.4 74.9 8.95 74.2 10.65 72.6 12.65 L71.55 14.1 71.05 14.6 70.3 15.35 Q68.1 17.55 65.35 19.25 62.55 21.05 60.25 21.7 L57.95 22.0 56.75 21.9 55.75 21.45 55.2 20.85 55.1 20.75 Q54.75 20.15 54.7 19.25 54.7 18.25 55.1 17.1 55.5 15.95 56.3 14.65 L57.65 12.65 59.45 10.55 Q61.85 8.05 64.85 6.1 67.25 4.6 69.3 3.9 70.9 3.35 72.3 3.35 73.5 3.35 74.25 3.8 L74.45 3.9 75.1 4.6 M72.9 8.05 L72.9 7.8 72.85 7.35 Q72.55 5.7 70.45 5.7 68.15 5.7 64.85 7.8 62.6 9.25 60.8 11.1 L59.4 12.7 58.15 14.6 Q57.15 16.35 57.15 17.7 57.25 19.35 58.75 19.7 L59.5 19.75 59.65 19.75 Q62.0 19.75 65.25 17.7 L68.6 15.15 69.55 14.2 70.0 13.65 70.7 12.7 Q72.85 10.0 72.9 8.05 M54.45 7.9 L54.7 8.65 54.75 9.15 54.3 11.4 52.4 14.4 51.95 15.0 51.15 15.9 Q49.2 18.0 46.65 19.65 44.4 21.1 42.55 21.55 L40.7 21.85 39.75 21.7 38.95 21.4 38.5 20.95 Q38.2 20.45 38.15 19.65 L38.25 18.55 Q38.7 16.75 40.5 14.4 L41.9 12.65 Q43.85 10.7 46.2 9.15 49.7 6.95 52.2 6.95 53.1 6.95 53.75 7.3 L54.45 7.9 M52.65 10.7 L52.65 10.5 52.6 10.1 Q52.4 8.8 50.75 8.8 48.85 8.8 46.2 10.5 44.4 11.65 43.0 13.15 L41.9 14.45 Q40.35 16.4 40.15 17.85 L40.1 18.4 Q40.15 19.7 41.35 20.0 L41.95 20.05 42.05 20.05 Q43.95 20.05 46.55 18.4 48.5 17.2 49.95 15.6 L50.25 15.3 50.9 14.45 Q52.6 12.25 52.65 10.7" fill="#aaaaaa" fill-rule="evenodd" stroke="none"/>
    <path d="M55.75 21.45 L56.75 21.9 57.95 22.0 60.25 21.7 Q62.55 21.05 65.35 19.25 68.1 17.55 70.3 15.35 L71.05 14.6 71.55 14.1 72.6 12.65 Q74.2 10.65 74.9 8.95 75.55 7.4 75.5 6.1 L75.45 5.5 75.1 4.6 76.5 5.95 76.95 6.45 Q77.4 7.1 77.45 8.15 77.55 10.9 74.55 14.7 L73.55 16.05 73.0 16.6 Q70.5 19.25 67.3 21.3 L65.75 22.25 Q62.45 24.0 59.9 24.0 58.4 24.0 57.6 23.4 L57.05 22.75 55.75 21.45" fill="url(#gradient13)" fill-rule="evenodd" stroke="none"/>
    <path d="M59.5 19.75 L58.75 19.7 Q57.25 19.35 57.15 17.7 57.15 16.35 58.15 14.6 L59.4 12.7 60.8 11.1 Q62.6 9.25 64.85 7.8 68.15 5.7 70.45 5.7 72.55 5.7 72.85 7.35 L72.9 7.8 72.9 8.05 72.8 8.05 Q70.45 8.05 67.2 10.15 64.95 11.6 63.15 13.45 L62.1 14.65 61.75 15.05 Q59.65 17.8 59.5 19.75" fill="url(#gradient14)" fill-rule="evenodd" stroke="none"/>
    <path d="M54.45 7.9 L55.55 9.0 55.9 9.4 Q56.3 9.95 56.3 10.75 56.35 12.35 55.1 14.4 L54.9 14.7 54.0 16.0 52.75 17.55 Q50.75 19.65 48.2 21.25 44.75 23.45 42.3 23.45 41.1 23.45 40.45 22.95 L40.0 22.4 38.95 21.4 39.75 21.7 40.7 21.85 42.55 21.55 Q44.4 21.1 46.65 19.65 49.2 18.0 51.15 15.9 L51.95 15.0 52.4 14.4 54.3 11.4 54.75 9.15 54.7 8.65 54.45 7.9" fill="url(#gradient15)" fill-rule="evenodd" stroke="none"/>
    <path d="M52.65 10.7 L52.55 10.7 Q50.75 10.7 48.1 12.35 46.3 13.5 44.85 15.0 L43.75 16.3 43.35 16.85 Q42.1 18.65 41.95 20.05 L41.35 20.0 Q40.15 19.7 40.1 18.4 L40.15 17.85 Q40.35 16.4 41.9 14.45 L43.0 13.15 Q44.4 11.65 46.2 10.5 48.85 8.8 50.75 8.8 52.4 8.8 52.6 10.1 L52.65 10.5 52.65 10.7" fill="url(#gradient16)" fill-rule="evenodd" stroke="none"/>
    <path d="M69.4 50.15 L71.55 52.7 Q78.75 62.05 78.75 75.35 78.75 81.75 77.05 87.25 72.65 86.45 69.05 84.65 72.65 86.45 77.05 87.25 75.25 93.15 71.55 97.95 66.8 104.15 60.75 106.3 58.0 107.25 55.05 107.35 L53.6 107.35 Q50.35 107.3 47.4 106.2 41.55 104.0 36.95 97.95 29.75 88.55 29.75 75.35 29.75 71.7 30.3 68.3 31.0 63.9 32.65 60.1 34.3 56.1 36.95 52.7 L37.6 51.85 Q39.35 49.65 41.4 48.05 45.6 44.6 50.55 43.65 L53.85 43.3 55.05 43.3 Q58.0 43.4 60.8 44.4 64.15 45.55 67.15 48.05 68.35 49.0 69.4 50.15 66.45 51.55 64.8 53.6 63.95 54.65 63.5 55.8 63.95 54.65 64.8 53.6 66.45 51.55 69.4 50.15 M69.05 84.65 L69.6 82.5 Q70.2 79.7 70.3 76.7 L70.3 75.3 70.1 70.95 Q69.7 67.9 68.8 65.15 67.8 62.15 66.15 59.4 L64.6 57.1 63.5 55.8 61.25 53.6 61.05 53.45 Q58.6 51.5 55.95 50.5 L55.05 50.2 54.15 50.0 52.2 49.7 51.65 49.7 51.0 49.65 50.35 49.65 Q44.8 49.75 40.35 53.45 38.45 55.0 36.8 57.1 31.05 64.7 31.05 75.3 31.05 85.9 36.8 93.5 42.35 100.75 50.2 101.0 L51.0 101.0 51.65 101.0 52.05 100.95 54.1 100.65 55.05 100.4 55.9 100.15 58.65 98.85 Q61.6 97.15 64.15 94.05 L64.6 93.5 Q66.45 91.05 67.7 88.25 L69.05 84.65" fill="url(#gradient17)" fill-rule="evenodd" stroke="none"/>
    <path d="M12.85 75.3 L12.85 68.3 8.75 68.3 13.85 60.1 10.65 60.1 15.7 51.85 12.5 51.85 17.6 43.65 14.35 43.65 19.45 35.45 26.3 35.45 37.15 35.45 43.5 35.45 42.85 39.55 42.15 43.65 41.4 48.05 Q39.35 49.65 37.6 51.85 L36.95 52.7 Q34.3 56.1 32.65 60.1 31.0 63.9 30.3 68.3 29.75 71.7 29.75 75.35 29.75 88.55 36.95 97.95 41.55 104.0 47.4 106.2 L47.4 113.9 Q41.95 110.9 37.45 105.0 35.15 102.0 33.4 98.65 28.25 88.7 28.25 75.85 L28.25 75.3 23.0 75.3 19.25 75.3 12.85 75.3 M15.7 51.85 L37.6 51.85 15.7 51.85 M13.85 60.1 L32.65 60.1 13.85 60.1 M12.85 68.3 L30.3 68.3 12.85 68.3 M42.15 43.65 L17.6 43.65 42.15 43.65" fill="#2f2f2f" fill-rule="evenodd" stroke="none"/>
    <path d="M51.65 101.0 L51.0 101.0 50.2 101.0 Q42.35 100.75 36.8 93.5 31.05 85.9 31.05 75.3 31.05 64.7 36.8 57.1 38.45 55.0 40.35 53.45 44.8 49.75 50.35 49.65 L51.0 49.65 51.65 49.7 Q46.45 49.95 42.25 53.45 40.35 55.0 38.7 57.1 32.9 64.7 32.9 75.3 32.9 85.9 38.7 93.5 44.05 100.55 51.65 101.0 M54.15 50.0 L55.05 50.2 Q52.5 50.95 50.2 52.55 L49.0 52.55 48.55 52.55 48.35 52.55 48.2 52.55 Q50.95 50.6 54.15 50.0 M40.0 63.5 L40.0 64.25 40.0 64.45 40.0 85.75 40.0 86.0 40.0 86.85 40.0 87.4 Q37.75 81.95 37.75 75.3 37.75 68.7 40.0 63.2 L40.0 63.5 M47.4 97.5 L48.15 97.55 49.05 97.55 49.45 97.55 51.45 98.85 Q53.15 99.9 55.05 100.4 L54.1 100.65 Q50.45 99.9 47.4 97.5" fill="url(#gradient18)" fill-rule="evenodd" stroke="none"/>
    <path d="M40.0 86.85 L40.0 86.0 40.0 85.75 40.0 64.45 40.0 64.25 40.0 63.5 40.05 63.1 40.15 62.6 Q40.5 60.2 41.9 58.4 42.8 57.2 43.9 56.65 45.1 55.95 46.5 55.95 L46.55 55.95 47.8 56.1 Q46.35 56.4 45.2 57.55 L44.4 58.4 44.4 58.45 Q43.5 59.65 43.0 61.05 L42.95 61.25 Q42.5 62.55 42.5 64.0 L42.5 66.8 42.5 69.6 42.5 72.35 42.5 75.15 42.5 77.95 42.5 80.7 42.5 83.5 42.5 86.25 Q42.55 87.75 43.0 89.05 43.45 90.6 44.4 91.85 45.9 93.7 47.8 94.15 L46.55 94.25 46.15 94.25 Q44.6 94.15 43.35 93.2 L41.9 91.85 Q40.5 90.05 40.15 87.65 L40.0 86.85" fill="url(#gradient19)" fill-rule="evenodd" stroke="none"/>
    <path d="M51.65 49.7 L52.2 49.7 54.15 50.0 Q50.95 50.6 48.2 52.55 44.85 52.65 42.45 55.45 40.0 58.3 40.0 62.3 L40.15 62.6 40.05 63.1 40.0 63.2 Q37.75 68.7 37.75 75.3 37.75 81.95 40.0 87.4 L40.0 87.6 40.0 87.85 Q40.0 91.9 42.45 94.7 44.25 96.85 46.7 97.4 L47.4 97.5 Q50.45 99.9 54.1 100.65 L52.05 100.95 51.65 101.0 Q44.05 100.55 38.7 93.5 32.9 85.9 32.9 75.3 32.9 64.7 38.7 57.1 40.35 55.0 42.25 53.45 46.45 49.95 51.65 49.7" fill="url(#gradient20)" fill-rule="evenodd" stroke="none"/>
    <path d="M47.8 56.1 L46.55 55.95 46.5 55.95 Q45.1 55.95 43.9 56.65 42.8 57.2 41.9 58.4 40.5 60.2 40.15 62.6 L40.0 62.3 Q40.0 58.3 42.45 55.45 44.85 52.65 48.2 52.55 L48.35 52.55 48.55 52.55 49.0 52.55 49.95 52.75 51.5 53.3 Q53.0 54.0 54.25 55.45 56.65 58.25 56.7 62.1 L56.7 65.2 53.1 65.2 53.1 64.0 Q53.1 62.55 52.7 61.25 52.2 59.7 51.3 58.45 L51.2 58.4 Q49.7 56.5 47.8 56.1" fill="url(#gradient21)" fill-rule="evenodd" stroke="none"/>
    <path d="M16.75 118.9 L15.8 115.55 14.7 111.9 13.6 108.2 12.5 104.55 11.45 100.9 10.45 97.55 10.55 97.25 12.0 93.55 14.15 88.15 15.75 93.55 12.0 93.55 15.75 93.55 16.85 97.25 10.55 97.25 16.85 97.25 17.95 100.9 19.0 104.55 19.6 106.65 20.1 108.2 13.6 108.2 20.1 108.2 21.2 111.9 22.25 115.55 23.35 119.2 24.4 122.9 25.45 126.5 19.0 126.5 17.95 122.95 16.9 119.2 16.75 118.9 M14.7 111.9 L21.2 111.9 14.7 111.9 M15.8 115.55 L22.25 115.55 15.8 115.55 M16.9 119.2 L23.35 119.2 16.9 119.2 M11.45 100.9 L17.95 100.9 11.45 100.9 M12.5 104.55 L19.0 104.55 12.5 104.55 M17.95 122.95 L24.4 122.9 17.95 122.95" fill="url(#gradient22)" fill-rule="evenodd" stroke="none"/>
    <path d="M23.0 75.3 L28.25 75.3 28.25 75.85 Q28.25 88.7 33.4 98.65 35.15 102.0 37.45 105.0 41.95 110.9 47.4 113.9 52.85 116.9 59.2 117.1 L54.0 117.1 Q41.25 116.75 32.25 105.0 29.95 102.0 28.25 98.7 L28.25 98.65 Q23.0 88.7 23.0 75.85 L23.0 75.3 M33.4 98.65 L28.25 98.65 33.4 98.65" fill="url(#gradient23)" fill-rule="evenodd" stroke="none"/>
    <path d="M40.0 87.4 L40.0 86.85 40.15 87.65 Q40.5 90.05 41.9 91.85 L43.35 93.2 Q44.6 94.15 46.15 94.25 L46.55 94.25 47.8 94.15 Q49.7 93.7 51.2 91.85 L52.05 90.55 Q53.25 92.1 55.6 92.65 L54.25 94.7 Q53.0 96.15 51.5 96.9 L49.35 97.5 49.05 97.55 48.15 97.55 47.4 97.5 46.7 97.4 Q44.25 96.85 42.45 94.7 40.0 91.9 40.0 87.85 L40.0 87.6 40.0 87.4" fill="url(#gradient24)" fill-rule="evenodd" stroke="none"/>
    <path d="M49.35 97.5 L51.5 96.9 Q53.0 96.15 54.25 94.7 L55.6 92.65 Q56.65 90.65 56.7 88.2 L56.7 65.2 56.7 62.1 Q56.65 58.25 54.25 55.45 53.0 54.0 51.5 53.3 L49.95 52.75 49.0 52.55 50.2 52.55 54.8 52.55 Q56.75 52.6 58.4 53.6 L60.5 55.45 Q62.0 57.2 62.6 59.4 L62.95 62.1 62.95 65.15 62.95 65.2 62.95 70.95 62.95 76.7 62.95 82.5 62.95 88.25 Q62.85 90.65 61.85 92.65 L55.6 92.65 61.85 92.65 61.05 94.05 60.5 94.7 Q58.15 97.45 54.85 97.55 L49.45 97.55 49.35 97.5 M62.95 65.2 L56.7 65.2 62.95 65.2" fill="url(#gradient25)" fill-rule="evenodd" stroke="none"/>
    <path d="M47.8 94.15 Q45.9 93.7 44.4 91.85 43.45 90.6 43.0 89.05 42.55 87.75 42.5 86.25 L42.5 83.5 42.5 80.7 42.5 77.95 42.5 75.15 42.5 72.35 42.5 69.6 42.5 66.8 42.5 64.0 Q42.5 62.55 42.95 61.25 L43.0 61.05 Q43.5 59.65 44.4 58.45 L44.4 58.4 45.2 57.55 Q46.35 56.4 47.8 56.1 49.7 56.5 51.2 58.4 L51.3 58.45 Q52.2 59.7 52.7 61.25 53.1 62.55 53.1 64.0 L53.1 65.2 53.1 66.8 53.1 69.6 53.1 72.35 53.1 75.15 53.1 77.95 53.1 80.7 53.1 83.5 53.1 86.25 Q53.1 87.75 52.7 89.05 L52.05 90.55 51.2 91.85 Q49.7 93.7 47.8 94.15 M53.1 66.8 L42.5 66.8 53.1 66.8 M42.95 61.25 L52.7 61.25 42.95 61.25 M42.5 64.0 L53.1 64.0 42.5 64.0 M42.5 69.6 L53.1 69.6 42.5 69.6 M42.5 72.35 L53.1 72.35 42.5 72.35 M51.3 58.45 L44.4 58.45 51.3 58.45 M51.2 91.85 L44.4 91.85 51.2 91.85 M43.0 89.05 L52.7 89.05 43.0 89.05 M53.1 75.15 L42.5 75.15 53.1 75.15 M42.5 80.7 L53.1 80.7 42.5 80.7 M42.5 77.95 L53.1 77.95 42.5 77.95 M53.1 83.5 L42.5 83.5 53.1 83.5 M42.5 86.25 L53.1 86.25 42.5 86.25" fill="url(#gradient26)" fill-rule="evenodd" stroke="none"/>
    <path d="M55.6 92.65 Q53.25 92.1 52.05 90.55 L52.7 89.05 Q53.1 87.75 53.1 86.25 L53.1 83.5 53.1 80.7 53.1 77.95 53.1 75.15 53.1 72.35 53.1 69.6 53.1 66.8 53.1 65.2 56.7 65.2 56.7 88.2 Q56.65 90.65 55.6 92.65" fill="url(#gradient27)" fill-rule="evenodd" stroke="none"/>
    <path d="M77.55 105.85 L77.75 105.6 Q80.5 101.8 83.9 100.25 L86.0 99.5 89.1 99.1 91.15 99.3 Q96.4 100.2 100.3 105.6 101.8 107.65 102.8 110.0 105.05 114.95 105.05 121.25 L105.0 123.25 Q104.7 127.05 103.65 130.45 L103.55 130.85 102.9 132.4 102.85 132.7 100.3 136.85 Q98.6 139.25 96.6 140.8 94.05 142.6 91.15 143.15 L90.25 143.25 89.1 143.3 Q85.0 143.3 81.7 140.9 80.25 139.85 79.0 138.4 L78.45 137.8 77.75 136.85 76.6 135.1 74.85 131.45 74.4 130.15 73.75 127.55 Q73.3 125.6 73.15 123.45 L73.1 121.25 73.1 120.5 Q73.3 112.0 77.55 105.85 M88.65 106.2 L86.7 105.95 Q82.8 105.95 79.85 109.3 L78.85 110.5 Q75.6 114.95 75.6 121.35 75.6 127.65 78.85 132.15 L80.0 133.5 Q82.85 136.65 86.7 136.65 L87.95 136.6 88.7 136.45 Q90.85 135.9 92.65 134.3 L93.75 133.15 94.55 132.15 95.1 131.35 96.65 128.25 96.7 127.95 96.75 127.8 97.4 125.4 97.75 122.05 97.75 121.35 97.6 119.0 97.05 115.9 95.95 112.85 Q95.35 111.6 94.55 110.5 L93.85 109.6 Q91.5 106.85 88.65 106.2" fill="url(#gradient28)" fill-rule="evenodd" stroke="none"/>
    <path d="M88.7 136.45 L87.95 136.6 86.7 136.65 Q82.85 136.65 80.0 133.5 L78.85 132.15 Q75.6 127.65 75.6 121.35 75.6 114.95 78.85 110.5 L79.85 109.3 Q82.8 105.95 86.7 105.95 L88.65 106.2 Q85.9 106.8 83.75 109.3 L83.5 109.6 82.75 110.5 81.35 112.85 Q80.6 114.3 80.2 115.9 79.8 117.4 79.65 119.0 79.5 120.1 79.5 121.35 L79.55 122.05 79.9 125.4 80.7 128.25 Q81.3 129.9 82.25 131.35 L82.75 132.15 83.9 133.5 84.65 134.3 Q85.9 135.45 87.35 136.05 L88.7 136.45" fill="url(#gradient29)" fill-rule="evenodd" stroke="none"/>
    <path d="M55.05 107.35 L67.65 107.35 67.65 120.5 64.55 120.5 66.9 117.1 61.7 117.1 59.2 117.1 Q52.85 116.9 47.4 113.9 L47.4 106.2 Q50.35 107.3 53.6 107.35 L55.05 107.35 M57.0 131.45 L67.65 131.45 67.65 141.75 60.0 141.75 51.2 150.6 48.8 148.15 46.9 146.25 46.9 143.15 46.9 135.9 48.65 135.9 53.85 135.9 57.0 131.45" fill="#606060" fill-rule="evenodd" stroke="none"/>
    <path d="M93.7 193.3 L90.65 193.3 89.2 188.5 87.5 182.85 81.25 162.05 80.25 158.85 78.45 152.8 78.45 145.25 78.45 137.8 79.0 138.4 Q80.25 139.85 81.7 140.9 85.0 143.3 89.1 143.3 L90.25 143.25 93.35 152.25 94.5 155.5 96.9 162.55 91.45 165.15 91.45 176.3 93.75 176.3 105.5 176.3 Q113.0 175.95 119.65 174.0 L123.8 172.45 128.85 170.15 131.6 168.6 125.6 180.65 105.3 193.3 93.7 193.3 M105.4 135.7 Q109.05 141.45 111.3 151.3 L111.1 151.6 106.8 155.75 104.85 149.95 103.75 146.75 101.5 140.3 Q103.1 138.9 104.5 136.85 L105.4 135.7" fill="url(#gradient30)" fill-rule="evenodd" stroke="none"/>
    <path d="M33.3 143.15 Q33.3 144.9 32.3 146.2 31.3 147.5 29.85 147.5 28.45 147.5 27.45 146.2 26.45 144.9 26.45 143.15 26.45 141.35 27.45 140.05 28.45 138.75 29.85 138.75 31.3 138.75 32.3 140.05 33.3 141.35 33.3 143.15" fill="url(#gradient31)" fill-rule="evenodd" stroke="none"/>
    <path d="M36.75 156.2 Q36.75 158.0 35.7 159.3 34.7 160.55 33.3 160.55 31.9 160.55 30.9 159.3 29.85 158.0 29.85 156.2 29.85 154.4 30.9 153.1 31.9 151.85 33.3 151.85 34.7 151.85 35.7 153.1 36.75 154.4 36.75 156.2" fill="url(#gradient32)" fill-rule="evenodd" stroke="none"/>
    <path d="M161.35 184.4 L138.1 198.9 131.95 198.9 155.2 184.4 161.35 184.4 M118.95 198.9 L112.8 198.9 136.05 184.4 142.25 184.4 143.15 182.55 147.9 182.55 130.55 193.3 127.9 193.3 118.95 198.9 M54.15 182.7 L41.95 182.7 39.8 177.55 38.4 174.4 36.9 170.8 35.35 167.3 51.6 167.3 52.2 170.8 52.75 174.4 53.3 177.55 53.7 180.0 54.15 182.7 M125.6 180.65 L131.75 180.65 111.45 193.3 105.3 193.3 125.6 180.65 M52.2 170.8 L36.9 170.8 52.2 170.8 M52.75 174.4 L38.4 174.4 52.75 174.4 M53.3 177.55 L39.8 177.55 53.3 177.55 M142.25 184.4 L127.9 193.3 142.25 184.4" fill="#222222" fill-rule="evenodd" stroke="none"/>
    <path d="M165.4 176.35 L161.35 184.4 155.2 184.4 156.15 182.55 147.9 182.55 143.15 182.55 142.25 184.4 136.05 184.4 140.1 176.35 165.4 176.35 M89.2 188.5 L62.95 188.5 64.6 180.0 67.5 165.3 69.5 155.15 76.6 155.15 76.6 151.15 76.85 151.15 Q76.65 154.15 77.9 156.4 78.85 158.05 80.25 158.85 L81.25 162.05 Q79.3 162.8 77.4 164.6 L76.8 165.3 Q74.1 168.2 73.25 172.2 72.2 176.65 74.0 179.8 L74.15 180.0 64.6 180.0 74.15 180.0 Q75.7 182.7 78.75 182.85 L78.95 182.85 87.5 182.85 89.2 188.5 M76.8 165.3 L67.5 165.3 76.8 165.3 M106.8 155.75 L103.2 158.65 100.0 149.95 98.85 146.75 97.3 142.6 Q99.15 142.05 100.85 140.8 L101.5 140.3 103.75 146.75 98.85 146.75 103.75 146.75 104.85 149.95 106.8 155.75 M100.0 149.95 L104.85 149.95 100.0 149.95" fill="#505050" fill-rule="evenodd" stroke="none"/>
    <path d="M78.45 145.25 L78.45 152.8 80.25 158.85 Q78.85 158.05 77.9 156.4 76.65 154.15 76.85 151.15 L77.2 148.8 Q77.6 146.9 78.45 145.25" fill="url(#gradient33)" fill-rule="evenodd" stroke="none"/>
    <path d="M81.25 162.05 L87.5 182.85 78.95 182.85 78.75 182.85 Q75.7 182.7 74.15 180.0 L74.0 179.8 Q72.2 176.65 73.25 172.2 74.1 168.2 76.8 165.3 L77.4 164.6 Q79.3 162.8 81.25 162.05" fill="url(#gradient34)" fill-rule="evenodd" stroke="none"/>
    <path d="M149.35 149.0 L151.45 145.65 Q153.5 142.2 155.0 138.65 L156.05 136.0 Q157.75 131.3 158.75 126.35 L164.45 123.55 Q163.5 130.0 161.25 136.0 L160.2 138.65 Q157.9 144.05 154.5 149.0 L152.95 151.2 148.1 157.0 145.45 154.15 147.75 151.2 149.35 149.0 M151.45 145.65 L154.5 149.0 151.45 145.65" fill="url(#gradient35)" fill-rule="evenodd" stroke="none"/>
    <path d="M91.15 99.3 L93.3 99.1 94.75 99.2 Q100.35 99.9 104.5 105.6 L106.05 107.95 Q108.95 113.15 109.25 119.9 L109.25 121.25 109.2 123.25 Q108.95 127.05 107.85 130.45 L107.75 130.85 107.15 132.4 105.95 134.75 105.4 135.7 104.5 136.85 Q103.1 138.9 101.5 140.3 L100.85 140.8 Q99.15 142.05 97.3 142.6 L94.45 143.25 93.3 143.3 91.15 143.15 Q94.05 142.6 96.6 140.8 98.6 139.25 100.3 136.85 L102.85 132.7 102.9 132.4 103.55 130.85 103.65 130.45 Q104.7 127.05 105.0 123.25 L105.05 121.25 Q105.05 114.95 102.8 110.0 101.8 107.65 100.3 105.6 96.4 100.2 91.15 99.3" fill="url(#gradient36)" fill-rule="evenodd" stroke="none"/>
    <path d="M93.85 109.6 L94.55 110.5 Q95.35 111.6 95.95 112.85 L83.25 112.85 81.35 112.85 84.65 109.6 93.85 109.6" fill="url(#gradient37)" fill-rule="evenodd" stroke="none"/>
    <path d="M88.65 106.2 Q91.5 106.85 93.85 109.6 L84.65 109.6 83.5 109.6 83.75 109.3 Q85.9 106.8 88.65 106.2" fill="url(#gradient38)" fill-rule="evenodd" stroke="none"/>
    <path d="M95.95 112.85 L97.05 115.9 82.7 115.9 80.2 115.9 83.25 112.85 95.95 112.85" fill="url(#gradient39)" fill-rule="evenodd" stroke="none"/>
    <path d="M97.05 115.9 L97.6 119.0 82.65 119.0 79.65 119.0 82.7 115.9 97.05 115.9" fill="url(#gradient40)" fill-rule="evenodd" stroke="none"/>
    <path d="M97.6 119.0 L97.75 121.35 97.75 122.05 83.25 122.05 79.55 122.05 82.65 119.0 97.6 119.0" fill="url(#gradient41)" fill-rule="evenodd" stroke="none"/>
    <path d="M97.75 122.05 L97.4 125.4 83.6 125.4 79.9 125.4 83.25 122.05 97.75 122.05" fill="url(#gradient42)" fill-rule="evenodd" stroke="none"/>
    <path d="M95.1 131.35 L94.55 132.15 93.75 133.15 92.65 134.3 89.1 134.3 84.65 134.3 87.6 131.35 95.1 131.35" fill="url(#gradient43)" fill-rule="evenodd" stroke="none"/>
    <path d="M97.4 125.4 L96.75 127.8 96.7 127.95 96.65 128.25 85.35 128.25 80.75 128.25 83.6 125.4 97.4 125.4" fill="url(#gradient44)" fill-rule="evenodd" stroke="none"/>
    <path d="M96.65 128.25 L95.1 131.35 87.6 131.35 82.25 131.35 85.35 128.25 96.65 128.25" fill="url(#gradient45)" fill-rule="evenodd" stroke="none"/>
    <path d="M92.65 134.3 Q90.85 135.9 88.7 136.45 L87.35 136.05 89.1 134.3 92.65 134.3" fill="url(#gradient46)" fill-rule="evenodd" stroke="none"/>
    <path d="M163.65 19.3 L166.65 30.5 175.5 38.1 Q179.85 50.1 180.65 54.35 L176.6 55.05 177.1 58.2 177.6 61.95 177.9 63.9 182.0 63.9 182.3 71.65 182.2 76.0 186.2 81.65 Q189.25 86.6 191.35 92.1 L191.85 93.7 189.4 93.7 191.9 101.5 194.2 102.1 194.55 103.85 195.05 107.35 195.35 110.0 Q204.5 110.9 212.1 113.2 L212.2 116.75 212.1 120.65 211.6 125.7 Q209.85 138.4 203.15 149.0 L201.8 151.0 Q198.85 155.1 195.25 158.85 182.3 172.4 165.15 175.45 L164.95 175.85 165.4 176.35 161.35 184.4 138.1 198.9 131.95 198.9 118.95 198.9 112.8 198.9 95.95 198.9 93.7 193.3 90.65 193.3 89.2 188.5 62.95 188.5 55.1 188.5 54.15 182.7 41.95 182.7 39.8 177.55 38.4 174.4 36.9 170.8 35.35 167.3 28.3 167.3 25.75 156.2 22.7 143.15 18.85 143.15 17.15 135.9 11.3 135.9 8.7 127.0 0.0 97.55 2.75 90.55 8.8 75.3 12.85 75.3 12.85 68.3 8.75 68.3 13.85 60.1 10.65 60.1 15.7 51.85 12.5 51.85 17.6 43.65 14.35 43.65 19.45 35.45 26.3 35.45 29.55 29.45 22.5 31.2 19.6 29.4 16.65 27.55 Q36.85 11.25 53.15 3.3 59.35 0.35 66.35 0.1 L67.1 0.0 67.25 0.0 69.35 0.0 123.95 0.0 124.35 0.0 Q140.65 0.55 153.65 10.3 L156.45 15.3 163.65 19.3 152.35 19.3 156.6 35.15 167.9 35.15 166.65 30.5 M182.0 63.9 L177.9 64.6 Q164.75 66.7 152.1 66.55 139.45 66.3 127.25 63.9 L127.35 64.7 127.55 71.65 127.45 76.0 Q157.75 68.0 182.2 76.0 M177.9 63.9 L173.75 64.6 Q162.75 66.4 152.1 66.55 M94.75 99.2 Q116.05 85.25 131.6 81.7 137.6 80.1 143.4 79.2 L148.55 87.6 162.5 86.05 177.85 86.8 176.45 79.2 Q181.45 80.1 186.2 81.65 M189.4 93.7 L185.9 93.85 187.8 100.75 191.9 101.5 M212.1 120.65 Q208.25 119.5 204.1 118.75 L198.95 117.95 195.35 117.5 191.15 117.25 185.9 117.1 180.1 117.1 178.1 117.2 172.9 117.45 165.0 118.25 159.7 118.85 148.65 120.65 Q148.1 128.6 145.8 135.8 L144.9 138.5 Q142.8 143.95 139.6 149.0 L149.35 149.0 151.45 145.65 Q153.5 142.2 155.0 138.65 L156.05 136.0 Q157.75 131.3 158.75 126.35 L159.15 124.15 164.45 123.45 164.45 123.55 Q163.5 130.0 161.25 136.0 L160.2 138.65 Q157.9 144.05 154.5 149.0 L162.35 149.0 164.5 145.65 Q166.55 142.2 168.05 138.65 L169.1 136.0 Q171.0 130.8 172.0 125.2 L172.35 122.65 177.6 122.4 Q176.7 129.5 174.35 136.0 L173.3 138.65 Q171.0 144.05 167.6 149.0 L175.4 149.0 177.55 145.65 181.1 138.65 182.15 136.0 Q184.05 130.8 185.05 125.2 L185.5 122.25 190.65 122.4 Q189.75 129.5 187.35 136.0 L186.3 138.65 Q184.0 144.05 180.6 149.0 L188.45 149.0 190.55 145.65 Q192.6 142.2 194.15 138.65 L195.2 136.0 Q196.85 131.5 197.8 126.7 L198.4 123.0 203.55 123.8 Q202.55 130.15 200.4 136.0 L199.35 138.65 Q197.05 144.05 193.65 149.0 L203.15 149.0 M180.1 109.6 Q174.0 109.45 167.3 109.85 156.9 110.5 144.9 112.5 L141.2 113.2 148.65 113.2 Q165.85 110.0 180.1 109.6 188.2 109.35 195.35 110.0 M190.65 122.4 L185.05 125.2 M177.6 122.4 L172.0 125.2 M188.45 149.0 L186.9 151.2 184.6 154.15 187.25 157.0 192.1 151.2 193.65 149.0 190.55 145.65 M174.15 157.0 L179.05 151.2 180.6 149.0 177.55 145.65 M175.4 149.0 L173.8 151.2 171.5 154.15 174.15 157.0 168.95 157.0 171.5 154.15 M161.15 157.0 L166.0 151.2 167.6 149.0 164.5 145.65 M167.75 170.3 L169.7 166.3 135.05 166.3 134.55 166.7 131.6 168.6 125.6 180.65 131.75 180.65 136.2 171.75 161.5 171.75 164.95 175.85 M169.7 166.3 L174.15 166.3 173.65 166.7 Q170.8 168.75 167.75 170.3 L165.15 175.45 M184.6 154.15 L182.0 157.0 187.25 157.0 M203.55 123.8 L197.8 126.7 M167.3 109.85 L162.5 86.05 M140.15 12.55 L151.5 12.55 156.45 15.3 M143.3 18.15 L145.4 19.3 146.5 23.3 152.15 26.4 153.85 32.8 156.6 35.15 M125.05 18.15 L121.9 12.55 133.2 12.55 143.3 18.15 140.15 12.55 152.35 19.3 M134.1 19.3 L121.9 12.55 M128.25 23.3 L127.15 19.3 115.85 19.3 120.05 35.15 131.35 35.15 130.75 32.8 129.05 26.4 128.25 23.3 133.9 26.4 135.55 32.8 138.35 35.15 134.1 19.3 145.4 19.3 M127.15 19.3 L125.05 18.15 114.95 12.55 103.65 12.55 115.85 19.3 M133.9 26.4 L129.05 26.4 M135.55 32.8 L130.75 32.8 M146.5 23.3 L147.3 26.4 152.15 26.4 M153.85 32.8 L149.0 32.8 149.6 35.15 138.35 35.15 M149.0 32.8 L147.3 26.4 M98.95 10.3 L95.3 7.8 Q83.7 0.55 69.75 0.1 L69.35 0.0 M84.65 21.0 L98.95 10.3 153.65 10.3 M108.45 27.55 L120.75 38.1 175.5 38.1 M120.05 35.15 L112.0 27.55 108.45 27.55 98.95 10.3 M112.0 27.55 L103.65 12.55 M122.4 58.15 L112.35 62.35 113.3 65.65 123.0 62.65 122.9 61.8 122.75 60.45 122.4 58.2 Q153.25 62.25 177.1 58.2 M122.15 56.65 L107.15 62.6 110.0 68.4 122.1 64.9 123.15 64.7 123.15 64.6 M123.0 62.65 Q155.8 66.8 177.6 61.95 M107.15 62.6 L103.05 63.05 106.1 69.5 110.0 68.4 M87.2 59.45 L81.6 50.15 69.4 50.15 71.55 52.7 Q78.75 62.05 78.75 75.35 78.75 81.75 77.05 87.25 L89.95 87.25 89.35 81.05 87.2 59.45 120.75 38.1 Q124.9 49.5 125.95 54.35 L128.45 54.75 Q139.55 56.75 151.0 56.9 163.55 57.05 176.6 55.05 M83.9 100.25 Q87.25 95.8 89.9 93.95 L90.6 93.5 89.95 87.25 M89.35 81.05 L104.3 75.15 108.0 83.4 Q118.65 78.0 127.45 76.0 M108.0 83.4 Q99.85 87.45 90.6 93.5 M151.0 56.9 Q139.0 57.0 127.4 55.1 L122.15 56.65 M123.15 64.7 L127.25 63.9 M124.1 100.8 Q126.15 99.8 128.15 98.95 133.2 96.7 137.85 95.35 L141.65 94.35 141.65 94.3 141.6 94.1 141.6 94.05 139.9 94.1 137.6 94.2 136.75 94.3 132.75 95.35 Q128.15 96.7 123.1 98.95 121.1 99.8 119.05 100.8 L124.1 100.8 125.5 103.45 Q135.2 100.5 142.95 100.95 L141.65 94.35 M125.95 54.35 L103.05 63.05 M75.1 4.6 L75.45 5.5 75.5 6.1 Q75.55 7.4 74.9 8.95 74.2 10.65 72.6 12.65 L71.55 14.1 71.05 14.6 70.3 15.35 Q68.1 17.55 65.35 19.25 62.55 21.05 60.25 21.7 L57.95 22.0 56.75 21.9 55.75 21.45 57.05 22.75 57.6 23.4 Q58.4 24.0 59.9 24.0 62.45 24.0 65.75 22.25 L67.3 21.3 Q70.5 19.25 73.0 16.6 L73.55 16.05 74.55 14.7 Q77.55 10.9 77.45 8.15 77.4 7.1 76.95 6.45 L76.5 5.95 75.1 4.6 74.45 3.9 74.25 3.8 Q73.5 3.35 72.3 3.35 70.9 3.35 69.3 3.9 67.25 4.6 64.85 6.1 61.85 8.05 59.45 10.55 L57.65 12.65 56.3 14.65 Q55.5 15.95 55.1 17.1 54.7 18.25 54.7 19.25 54.75 20.15 55.1 20.75 L55.2 20.85 55.75 21.45 M72.9 8.05 L72.9 7.8 72.85 7.35 Q72.55 5.7 70.45 5.7 68.15 5.7 64.85 7.8 62.6 9.25 60.8 11.1 L59.4 12.7 58.15 14.6 Q57.15 16.35 57.15 17.7 57.25 19.35 58.75 19.7 L59.5 19.75 Q59.65 17.8 61.75 15.05 L62.1 14.65 63.15 13.45 Q64.95 11.6 67.2 10.15 70.45 8.05 72.8 8.05 L72.9 8.05 Q72.85 10.0 70.7 12.7 L70.0 13.65 69.55 14.2 68.6 15.15 65.25 17.7 Q62.0 19.75 59.65 19.75 L59.5 19.75 M54.45 7.9 L55.55 9.0 55.9 9.4 Q56.3 9.95 56.3 10.75 56.35 12.35 55.1 14.4 L54.9 14.7 54.95 14.7 56.3 14.65 M54.45 7.9 L54.7 8.65 54.75 9.15 54.3 11.4 52.4 14.4 51.95 15.0 51.15 15.9 Q49.2 18.0 46.65 19.65 44.4 21.1 42.55 21.55 L40.7 21.85 39.75 21.7 38.95 21.4 40.0 22.4 40.45 22.95 Q41.1 23.45 42.3 23.45 44.75 23.45 48.2 21.25 50.75 19.65 52.75 17.55 L54.0 16.0 54.9 14.7 M38.25 18.55 Q38.7 16.75 40.5 14.4 L41.9 12.65 Q43.85 10.7 46.2 9.15 49.7 6.95 52.2 6.95 53.1 6.95 53.75 7.3 L54.45 7.9 M41.95 20.05 Q42.1 18.65 43.35 16.85 L43.75 16.3 44.85 15.0 Q46.3 13.5 48.1 12.35 50.75 10.7 52.55 10.7 L52.65 10.7 52.65 10.5 52.6 10.1 Q52.4 8.8 50.75 8.8 48.85 8.8 46.2 10.5 44.4 11.65 43.0 13.15 L41.9 14.45 Q40.35 16.4 40.15 17.85 L40.1 18.4 Q40.15 19.7 41.35 20.0 L41.95 20.05 42.05 20.05 Q43.95 20.05 46.55 18.4 48.5 17.2 49.95 15.6 L50.25 15.3 50.9 14.45 Q52.6 12.25 52.65 10.7 M42.85 39.55 L42.15 43.65 41.4 48.05 Q45.6 44.6 50.55 43.65 L53.85 43.3 55.05 43.3 61.25 43.3 Q68.1 43.5 73.65 48.05 L65.25 39.55 42.85 39.55 43.5 35.45 37.15 35.45 26.3 35.45 M43.5 35.45 L44.3 30.95 56.65 30.95 61.9 30.95 70.45 39.55 74.2 43.3 77.45 43.3 70.4 31.7 Q69.0 30.9 67.1 30.05 60.0 27.1 46.15 25.15 L37.15 27.5 37.15 35.45 M65.25 39.55 L70.45 39.55 M55.05 43.3 Q58.0 43.4 60.8 44.4 64.15 45.55 67.15 48.05 68.35 49.0 69.4 50.15 66.45 51.55 64.8 53.6 63.95 54.65 63.5 55.8 L64.6 57.1 66.15 59.4 Q67.8 62.15 68.8 65.15 69.7 67.9 70.1 70.95 L70.3 75.3 70.3 76.7 Q70.2 79.7 69.6 82.5 L69.05 84.65 Q72.65 86.45 77.05 87.25 75.25 93.15 71.55 97.95 66.8 104.15 60.75 106.3 58.0 107.25 55.05 107.35 L67.65 107.35 69.9 107.35 Q74.0 107.35 77.55 105.85 L77.75 105.6 Q80.5 101.8 83.9 100.25 L86.0 99.5 89.1 99.1 91.15 99.3 93.3 99.1 94.75 99.2 Q100.35 99.9 104.5 105.6 L106.05 107.95 Q108.95 113.15 109.25 119.9 112.35 116.8 114.75 113.2 L141.2 113.2 M78.8 45.55 L77.45 43.3 M74.2 43.3 L78.95 48.15 73.75 48.15 73.65 48.05 M56.65 30.95 L65.25 39.55 M38.95 21.4 L38.5 20.95 Q38.2 20.45 38.15 19.65 L38.25 18.55 Q28.8 22.25 19.6 29.4 M37.15 27.5 L29.55 29.45 M51.65 101.0 L51.0 101.0 50.2 101.0 Q42.35 100.75 36.8 93.5 31.05 85.9 31.05 75.3 31.05 64.7 36.8 57.1 38.45 55.0 40.35 53.45 44.8 49.75 50.35 49.65 L51.0 49.65 51.65 49.7 52.2 49.7 54.15 50.0 55.05 50.2 55.95 50.5 Q58.6 51.5 61.05 53.45 L61.25 53.6 63.5 55.8 M32.65 60.1 Q34.3 56.1 36.95 52.7 L37.6 51.85 15.7 51.85 M40.0 86.85 L40.0 86.0 40.0 85.75 40.0 64.45 40.0 64.25 40.0 63.5 40.0 63.2 Q37.75 68.7 37.75 75.3 37.75 81.95 40.0 87.4 L40.0 86.85 40.15 87.65 Q40.5 90.05 41.9 91.85 L43.35 93.2 Q44.6 94.15 46.15 94.25 L46.55 94.25 47.8 94.15 Q45.9 93.7 44.4 91.85 43.45 90.6 43.0 89.05 42.55 87.75 42.5 86.25 L42.5 83.5 42.5 80.7 42.5 77.95 42.5 75.15 42.5 72.35 42.5 69.6 42.5 66.8 42.5 64.0 Q42.5 62.55 42.95 61.25 L43.0 61.05 Q43.5 59.65 44.4 58.45 L44.4 58.4 45.2 57.55 Q46.35 56.4 47.8 56.1 L46.55 55.95 46.5 55.95 Q45.1 55.95 43.9 56.65 42.8 57.2 41.9 58.4 40.5 60.2 40.15 62.6 L40.05 63.1 40.0 63.5 M40.15 62.6 L40.0 62.3 Q40.0 58.3 42.45 55.45 44.85 52.65 48.2 52.55 50.95 50.6 54.15 50.0 M40.05 63.1 L40.0 63.2 M30.3 68.3 Q31.0 63.9 32.65 60.1 L13.85 60.1 M12.85 75.3 L19.25 75.3 23.0 75.3 28.25 75.3 28.25 75.85 Q28.25 88.7 33.4 98.65 35.15 102.0 37.45 105.0 41.95 110.9 47.4 113.9 L47.4 106.2 Q41.55 104.0 36.95 97.95 29.75 88.55 29.75 75.35 29.75 71.7 30.3 68.3 L12.85 68.3 M16.75 118.9 L15.8 115.55 14.7 111.9 13.6 108.2 12.5 104.55 11.45 100.9 10.45 97.55 10.55 97.25 12.0 93.55 14.15 88.15 19.25 75.3 M16.85 97.25 L10.55 97.25 M12.0 93.55 L15.75 93.55 14.15 88.15 M16.85 97.25 L15.75 93.55 M23.0 75.3 L23.0 75.85 Q23.0 88.7 28.25 98.65 L33.4 98.65 M28.25 98.65 L28.25 98.7 Q29.95 102.0 32.25 105.0 41.25 116.75 54.0 117.1 L59.2 117.1 Q52.85 116.9 47.4 113.9 M40.0 87.4 L40.0 87.6 40.0 87.85 Q40.0 91.9 42.45 94.7 44.25 96.85 46.7 97.4 L47.4 97.5 48.15 97.55 49.05 97.55 49.35 97.5 51.5 96.9 Q53.0 96.15 54.25 94.7 L55.6 92.65 Q53.25 92.1 52.05 90.55 L51.2 91.85 Q49.7 93.7 47.8 94.15 M51.65 101.0 Q44.05 100.55 38.7 93.5 32.9 85.9 32.9 75.3 32.9 64.7 38.7 57.1 40.35 55.0 42.25 53.45 46.45 49.95 51.65 49.7 M62.6 59.4 L66.15 59.4 M62.95 65.15 L68.8 65.15 M62.95 70.95 L70.1 70.95 M62.95 65.15 L62.95 65.2 62.95 70.95 62.95 76.7 70.3 76.7 M62.6 59.4 L62.95 62.1 62.95 65.15 M58.4 53.6 L60.5 55.45 Q62.0 57.2 62.6 59.4 M49.0 52.55 L49.95 52.75 51.5 53.3 Q53.0 54.0 54.25 55.45 56.65 58.25 56.7 62.1 L56.7 65.2 62.95 65.2 M47.8 56.1 Q49.7 56.5 51.2 58.4 L51.3 58.45 Q52.2 59.7 52.7 61.25 53.1 62.55 53.1 64.0 L53.1 65.2 56.7 65.2 56.7 88.2 Q56.65 90.65 55.6 92.65 L61.85 92.65 Q62.85 90.65 62.95 88.25 L62.95 82.5 62.95 76.7 M58.4 53.6 Q56.75 52.6 54.8 52.55 L50.2 52.55 49.0 52.55 48.55 52.55 48.35 52.55 48.2 52.55 M53.1 65.2 L53.1 66.8 53.1 69.6 53.1 72.35 53.1 75.15 53.1 77.95 53.1 80.7 53.1 83.5 53.1 86.25 Q53.1 87.75 52.7 89.05 L52.05 90.55 M50.2 52.55 Q52.5 50.95 55.05 50.2 M44.4 58.45 L51.3 58.45 M53.1 72.35 L42.5 72.35 M53.1 69.6 L42.5 69.6 M53.1 64.0 L42.5 64.0 M52.7 61.25 L42.95 61.25 M42.5 66.8 L53.1 66.8 M49.45 97.55 L49.05 97.55 M49.35 97.5 L49.45 97.55 54.85 97.55 Q58.15 97.45 60.5 94.7 L61.05 94.05 61.85 92.65 M51.45 98.85 L58.65 98.85 Q61.6 97.15 64.15 94.05 L61.05 94.05 M42.5 83.5 L53.1 83.5 M53.1 77.95 L42.5 77.95 M53.1 80.7 L42.5 80.7 M42.5 75.15 L53.1 75.15 M52.7 89.05 L43.0 89.05 M44.4 91.85 L51.2 91.85 M49.45 97.55 L51.45 98.85 Q53.15 99.9 55.05 100.4 L55.9 100.15 58.65 98.85 M53.1 86.25 L42.5 86.25 M62.95 82.5 L69.6 82.5 M62.95 88.25 L67.7 88.25 69.05 84.65 M67.7 88.25 Q66.45 91.05 64.6 93.5 L64.15 94.05 M61.25 53.6 L58.4 53.6 M37.6 51.85 Q39.35 49.65 41.4 48.05 M17.6 43.65 L42.15 43.65 M88.7 136.45 L87.95 136.6 86.7 136.65 Q82.85 136.65 80.0 133.5 L78.85 132.15 Q75.6 127.65 75.6 121.35 75.6 114.95 78.85 110.5 L79.85 109.3 Q82.8 105.95 86.7 105.95 L88.65 106.2 Q91.5 106.85 93.85 109.6 L94.55 110.5 Q95.35 111.6 95.95 112.85 L97.05 115.9 97.6 119.0 97.75 121.35 97.75 122.05 97.4 125.4 96.75 127.8 96.7 127.95 96.65 128.25 95.1 131.35 94.55 132.15 93.75 133.15 92.65 134.3 Q90.85 135.9 88.7 136.45 L87.35 136.05 Q85.9 135.45 84.65 134.3 L83.9 133.5 82.75 132.15 82.25 131.35 Q81.3 129.9 80.7 128.25 L79.9 125.4 79.55 122.05 79.5 121.35 Q79.5 120.1 79.65 119.0 79.8 117.4 80.2 115.9 80.6 114.3 81.35 112.85 L82.75 110.5 83.5 109.6 83.75 109.3 Q85.9 106.8 88.65 106.2 M67.65 120.5 L67.65 123.45 73.15 123.45 73.1 121.25 73.1 120.5 67.65 120.5 67.65 107.35 M64.55 120.5 L62.5 123.45 67.65 123.45 67.65 127.55 73.75 127.55 Q73.3 125.6 73.15 123.45 M64.55 120.5 L67.65 120.5 M61.7 117.1 L66.9 117.1 64.55 120.5 M73.1 120.5 Q73.3 112.0 77.55 105.85 M47.4 106.2 Q50.35 107.3 53.6 107.35 L55.05 107.35 M54.1 100.65 L52.05 100.95 51.65 101.0 M55.05 100.4 L54.1 100.65 Q50.45 99.9 47.4 97.5 M59.65 127.55 L57.0 131.45 67.65 131.45 67.65 127.55 59.65 127.55 60.4 126.5 55.2 126.5 48.65 135.9 53.85 135.9 57.0 131.45 M48.65 135.9 L46.9 135.9 46.9 143.15 46.9 146.25 48.8 148.15 51.2 150.6 60.0 141.75 67.65 141.75 67.65 131.45 74.85 131.45 74.4 130.15 73.75 127.55 M80.7 128.25 L80.75 128.25 83.6 125.4 79.9 125.4 83.25 122.05 79.55 122.05 82.65 119.0 79.65 119.0 82.7 115.9 80.2 115.9 83.25 112.85 81.35 112.85 84.65 109.6 83.5 109.6 M76.6 135.1 L74.85 131.45 M90.25 143.25 L89.1 143.3 Q85.0 143.3 81.7 140.9 80.25 139.85 79.0 138.4 L78.45 137.8 78.45 145.25 78.45 152.8 80.25 158.85 81.25 162.05 87.5 182.85 89.2 188.5 M78.45 137.8 L77.75 136.85 76.6 135.1 76.6 141.75 76.6 151.15 76.85 151.15 77.2 148.8 Q77.6 146.9 78.45 145.25 M67.65 141.75 L76.6 141.75 M59.2 117.1 L61.7 117.1 55.2 126.5 25.45 126.5 19.0 126.5 17.95 122.95 16.9 119.2 16.75 118.9 12.45 123.3 8.7 127.0 M62.5 123.45 L60.4 126.5 M22.25 115.55 L21.2 111.9 14.7 111.9 M23.35 119.2 L22.25 115.55 15.8 115.55 M24.4 122.9 L23.35 119.2 16.9 119.2 M20.1 108.2 L19.6 106.65 19.0 104.55 12.5 104.55 M17.95 100.9 L11.45 100.9 M20.1 108.2 L13.6 108.2 M19.0 104.55 L17.95 100.9 16.85 97.25 M33.3 143.15 Q33.3 144.9 32.3 146.2 31.3 147.5 29.85 147.5 28.45 147.5 27.45 146.2 26.45 144.9 26.45 143.15 L22.7 143.15 M26.45 143.15 Q26.45 141.35 27.45 140.05 28.45 138.75 29.85 138.75 31.3 138.75 32.3 140.05 33.3 141.35 33.3 143.15 L46.9 143.15 M25.45 126.5 L24.4 122.9 17.95 122.95 M21.2 111.9 L20.1 108.2 M36.75 156.2 Q36.75 158.0 35.7 159.3 34.7 160.55 33.3 160.55 31.9 160.55 30.9 159.3 29.85 158.0 29.85 156.2 L25.75 156.2 M29.85 156.2 Q29.85 154.4 30.9 153.1 31.9 151.85 33.3 151.85 34.7 151.85 35.7 153.1 36.75 154.4 36.75 156.2 L40.7 156.2 48.8 148.15 M69.5 155.15 L76.6 155.15 76.6 151.15 M80.25 158.85 Q78.85 158.05 77.9 156.4 76.65 154.15 76.85 151.15 M67.65 155.15 L69.5 155.15 67.5 165.3 76.8 165.3 77.4 164.6 Q79.3 162.8 81.25 162.05 M67.5 165.3 L63.3 165.3 58.5 160.5 58.5 155.15 55.75 155.15 51.2 150.6 M74.15 180.0 L74.0 179.8 Q72.2 176.65 73.25 172.2 74.1 168.2 76.8 165.3 M35.35 167.3 L51.6 167.3 52.2 170.8 52.75 174.4 53.3 177.55 53.7 180.0 64.6 180.0 67.5 165.3 M53.7 180.0 L54.15 182.7 M74.15 180.0 L64.6 180.0 62.95 188.5 M87.5 182.85 L78.95 182.85 78.75 182.85 Q75.7 182.7 74.15 180.0 M58.5 155.15 L67.65 155.15 67.65 141.75 M39.8 177.55 L53.3 177.55 M38.4 174.4 L52.75 174.4 M36.9 170.8 L52.2 170.8 M46.9 135.9 L17.15 135.9 M148.65 120.65 L148.65 120.3 148.7 116.75 148.7 114.05 148.65 113.2 M139.6 149.0 L129.4 142.45 124.5 146.9 105.95 134.75 105.4 135.7 Q109.05 141.45 111.3 151.3 L111.1 151.6 106.8 155.75 103.2 158.65 102.1 159.35 96.9 162.55 91.45 165.15 91.45 176.3 93.75 176.3 Q101.25 175.95 107.9 174.0 L112.1 172.45 Q117.75 170.2 122.8 166.7 L124.55 165.45 Q128.3 162.5 131.75 158.85 L133.65 156.85 138.25 151.0 139.6 149.0 M91.15 99.3 Q96.4 100.2 100.3 105.6 101.8 107.65 102.8 110.0 105.05 114.95 105.05 121.25 L105.0 123.25 Q104.7 127.05 103.65 130.45 L103.55 130.85 102.9 132.4 102.85 132.7 100.3 136.85 Q98.6 139.25 96.6 140.8 94.05 142.6 91.15 143.15 L93.3 143.3 94.45 143.25 97.3 142.6 Q99.15 142.05 100.85 140.8 L101.5 140.3 Q103.1 138.9 104.5 136.85 L105.4 135.7 M105.95 134.75 L107.15 132.4 107.75 130.85 107.85 130.45 Q108.95 127.05 109.2 123.25 L109.25 121.25 109.25 119.9 M125.5 103.45 L121.2 104.85 119.05 100.8 M84.65 109.6 L93.85 109.6 M83.25 112.85 L95.95 112.85 M83.25 122.05 L97.75 122.05 M82.65 119.0 L97.6 119.0 M82.7 115.9 L97.05 115.9 M87.35 136.05 L89.1 134.3 84.65 134.3 87.6 131.35 82.25 131.35 85.35 128.25 80.75 128.25 M98.85 146.75 L97.3 142.6 M87.6 131.35 L95.1 131.35 M89.1 134.3 L92.65 134.3 M83.6 125.4 L97.4 125.4 M85.35 128.25 L96.65 128.25 M91.15 143.15 L90.25 143.25 93.35 152.25 98.85 146.75 103.75 146.75 101.5 140.3 M107.85 130.45 L113.7 130.45 Q117.95 126.05 121.45 120.65 L148.65 120.65 M106.8 155.75 L104.85 149.95 100.0 149.95 103.2 158.65 M96.9 162.55 L94.5 155.5 93.35 152.25 M94.5 155.5 L100.0 149.95 98.85 146.75 M93.75 176.3 L105.5 176.3 Q113.0 175.95 119.65 174.0 L123.8 172.45 128.85 170.15 131.6 168.6 M131.75 180.65 L111.45 193.3 105.3 193.3 93.7 193.3 M154.5 149.0 L152.95 151.2 148.1 157.0 142.9 157.0 145.45 154.15 147.75 151.2 149.35 149.0 M161.15 157.0 L155.9 157.0 158.5 154.15 160.8 151.2 162.35 149.0 M158.5 154.15 L161.15 157.0 M148.1 157.0 L145.45 154.15 M136.05 184.4 L140.1 176.35 136.2 171.75 M147.9 182.55 L130.55 193.3 127.9 193.3 118.95 198.9 M147.9 182.55 L156.15 182.55 155.2 184.4 161.35 184.4 M136.05 184.4 L142.25 184.4 143.15 182.55 147.9 182.55 M127.9 193.3 L142.25 184.4 M154.5 149.0 L151.45 145.65 M104.85 149.95 L103.75 146.75 M105.3 193.3 L125.6 180.65 M84.65 21.0 L70.4 31.7 M73.55 16.05 Q80.4 17.6 84.65 21.0 M12.45 123.3 L2.75 90.55 M28.25 98.7 L19.6 106.65 M81.6 50.15 L78.8 45.55 108.45 27.55 M164.45 123.55 L158.75 126.35 M140.1 176.35 L165.4 176.35 M112.8 198.9 L136.05 184.4 M131.95 198.9 L155.2 184.4" fill="none" stroke="#000000" stroke-width="0.7" stroke-opacity="0.4"/>
  </g>
  <defs>
    <linearGradient gradientTransform="matrix(0.0, 0.0475, -0.0115, 0.0, 141.45, 38.0)" gradientUnits="userSpaceOnUse" id="gradient0" spreadMethod="pad" x1="-819.2" x2="819.2">
      <stop offset="0.0" stop-color="#cccccc"/>
      <stop offset="1.0" stop-color="#aaaaaa"/>
    </linearGradient>
    <radialGradient cx="0" cy="0" gradientTransform="matrix(0.0341, 0.0, 0.0, 0.0341, 150.0, 61.25)" gradientUnits="userSpaceOnUse" id="gradient1" r="819.2" spreadMethod="pad">
      <stop offset="0.0" stop-color="#cff5ff"/>
      <stop offset="0.6196078431372549" stop-color="#00c9ff"/>
      <stop offset="0.7019607843137254" stop-color="#1bcfff"/>
      <stop offset="1.0" stop-color="#0055ff"/>
    </radialGradient>
    <radialGradient cx="0" cy="0" gradientTransform="matrix(0.1017, 0.0, 0.0, 0.1017, 161.85, 79.05)" gradientUnits="userSpaceOnUse" id="gradient2" r="819.2" spreadMethod="pad">
      <stop offset="0.0" stop-color="#bbbbbb"/>
      <stop offset="0.9882352941176471" stop-color="#666666"/>
    </radialGradient>
    <linearGradient gradientTransform="matrix(0.0037, 0.0, 0.0, 0.0047, 188.9, 97.55)" gradientUnits="userSpaceOnUse" id="gradient3" spreadMethod="pad" x1="-819.2" x2="819.2">
      <stop offset="0.0" stop-color="#4487ad"/>
      <stop offset="1.0" stop-color="#333333"/>
    </linearGradient>
    <linearGradient gradientTransform="matrix(0.0, 0.0407, -0.0115, 0.0, 246.35, 142.9)" gradientUnits="userSpaceOnUse" id="gradient4" spreadMethod="pad" x1="-819.2" x2="819.2">
      <stop offset="0.0" stop-color="#aaaaaa"/>
      <stop offset="1.0" stop-color="#444444"/>
    </linearGradient>
    <linearGradient gradientTransform="matrix(0.0047, 0.0022, -0.0067, 0.0147, 184.55, 135.6)" gradientUnits="userSpaceOnUse" id="gradient5" spreadMethod="pad" x1="-819.2" x2="819.2">
      <stop offset="0.0" stop-color="#4487ad"/>
      <stop offset="1.0" stop-color="#333333"/>
    </linearGradient>
    <linearGradient gradientTransform="matrix(0.0044, 0.0022, -0.0072, 0.0145, 171.75, 134.9)" gradientUnits="userSpaceOnUse" id="gradient6" spreadMethod="pad" x1="-819.2" x2="819.2">
      <stop offset="0.0" stop-color="#4487ad"/>
      <stop offset="1.0" stop-color="#333333"/>
    </linearGradient>
    <linearGradient gradientTransform="matrix(0.0069, 0.004, -0.0077, 0.0133, 197.05, 136.35)" gradientUnits="userSpaceOnUse" id="gradient7" spreadMethod="pad" x1="-819.2" x2="819.2">
      <stop offset="0.0" stop-color="#4487ad"/>
      <stop offset="1.0" stop-color="#333333"/>
    </linearGradient>
    <linearGradient gradientTransform="matrix(0.0, 0.0197, -0.0088, 0.0, 148.55, 166.4)" gradientUnits="userSpaceOnUse" id="gradient8" spreadMethod="pad" x1="-819.2" x2="819.2">
      <stop offset="0.0" stop-color="#427c91"/>
      <stop offset="1.0" stop-color="#444444"/>
    </linearGradient>
    <linearGradient gradientTransform="matrix(-0.0028, 0.0275, -0.0178, -0.0018, 57.6, 11.9)" gradientUnits="userSpaceOnUse" id="gradient9" spreadMethod="pad" x1="-819.2" x2="819.2">
      <stop offset="0.0" stop-color="#dddddd"/>
      <stop offset="1.0" stop-color="#999999"/>
    </linearGradient>
    <linearGradient gradientTransform="matrix(0.0064, -7.0E-4, 0.0, 0.0035, 117.6, 61.5)" gradientUnits="userSpaceOnUse" id="gradient10" spreadMethod="pad" x1="-819.2" x2="819.2">
      <stop offset="0.0" stop-color="#00ddff"/>
      <stop offset="1.0" stop-color="#0055ff"/>
    </linearGradient>
    <linearGradient gradientTransform="matrix(0.0, 0.0393, -0.0226, 0.0, 86.3, 75.3)" gradientUnits="userSpaceOnUse" id="gradient11" spreadMethod="pad" x1="-819.2" x2="819.2">
      <stop offset="0.0" stop-color="#888888"/>
      <stop offset="0.2196078431372549" stop-color="#bbbbbb"/>
      <stop offset="1.0" stop-color="#444444"/>
    </linearGradient>
    <linearGradient gradientTransform="matrix(0.0126, 0.0, 0.0, 0.0056, 132.55, 98.85)" gradientUnits="userSpaceOnUse" id="gradient12" spreadMethod="pad" x1="-819.2" x2="819.2">
      <stop offset="0.0" stop-color="#4487ad"/>
      <stop offset="1.0" stop-color="#333333"/>
    </linearGradient>
    <radialGradient cx="0" cy="0" gradientTransform="matrix(0.0166, 0.0, 0.0, 0.0166, 66.6, 14.3)" gradientUnits="userSpaceOnUse" id="gradient13" r="819.2" spreadMethod="pad">
      <stop offset="0.0" stop-color="#bbbbbb"/>
      <stop offset="0.9882352941176471" stop-color="#666666"/>
    </radialGradient>
    <radialGradient cx="0" cy="0" gradientTransform="matrix(0.0169, 0.0, 0.0, 0.0169, 60.8, 13.45)" gradientUnits="userSpaceOnUse" id="gradient14" r="819.2" spreadMethod="pad">
      <stop offset="0.0" stop-color="#bbbbbb"/>
      <stop offset="0.9882352941176471" stop-color="#666666"/>
    </radialGradient>
    <radialGradient cx="0" cy="0" gradientTransform="matrix(0.0134, 0.0, 0.0, 0.0134, 47.65, 15.65)" gradientUnits="userSpaceOnUse" id="gradient15" r="819.2" spreadMethod="pad">
      <stop offset="0.0" stop-color="#bbbbbb"/>
      <stop offset="0.9882352941176471" stop-color="#666666"/>
    </radialGradient>
    <radialGradient cx="0" cy="0" gradientTransform="matrix(0.0118, 0.0, 0.0, 0.0118, 43.65, 14.85)" gradientUnits="userSpaceOnUse" id="gradient16" r="819.2" spreadMethod="pad">
      <stop offset="0.0" stop-color="#bbbbbb"/>
      <stop offset="0.9882352941176471" stop-color="#666666"/>
    </radialGradient>
    <radialGradient cx="0" cy="0" gradientTransform="matrix(0.066, 0.0, 0.0, 0.066, 71.9, 58.45)" gradientUnits="userSpaceOnUse" id="gradient17" r="819.2" spreadMethod="pad">
      <stop offset="0.0" stop-color="#bbbbbb"/>
      <stop offset="1.0" stop-color="#444444"/>
    </radialGradient>
    <linearGradient gradientTransform="matrix(0.0, -0.0313, 0.0148, 0.0, 38.8, 75.3)" gradientUnits="userSpaceOnUse" id="gradient18" spreadMethod="pad" x1="-819.2" x2="819.2">
      <stop offset="0.0" stop-color="#888888"/>
      <stop offset="0.2196078431372549" stop-color="#bbbbbb"/>
      <stop offset="1.0" stop-color="#444444"/>
    </linearGradient>
    <linearGradient gradientTransform="matrix(0.0, -0.0234, 0.0234, 0.0, 43.85, 75.1)" gradientUnits="userSpaceOnUse" id="gradient19" spreadMethod="pad" x1="-819.2" x2="819.2">
      <stop offset="0.0" stop-color="#aaaaaa"/>
      <stop offset="0.1411764705882353" stop-color="#cccccc"/>
      <stop offset="0.27450980392156865" stop-color="#acacac"/>
      <stop offset="0.7372549019607844" stop-color="#aaaaaa"/>
      <stop offset="1.0" stop-color="#444444"/>
    </linearGradient>
    <linearGradient gradientTransform="matrix(0.0, -0.0314, 0.0313, 0.0, 43.5, 75.3)" gradientUnits="userSpaceOnUse" id="gradient20" spreadMethod="pad" x1="-819.2" x2="819.2">
      <stop offset="0.0" stop-color="#585858"/>
      <stop offset="0.2196078431372549" stop-color="#666666"/>
      <stop offset="1.0" stop-color="#111111"/>
    </linearGradient>
    <radialGradient cx="0" cy="0" gradientTransform="matrix(0.0233, 0.0, 0.0, 0.0233, 53.2, 57.35)" gradientUnits="userSpaceOnUse" id="gradient21" r="819.2" spreadMethod="pad">
      <stop offset="0.0" stop-color="#bbbbbb"/>
      <stop offset="1.0" stop-color="#444444"/>
    </radialGradient>
    <linearGradient gradientTransform="matrix(0.0, 0.0233, -0.0022, 0.0, 14.65, 107.3)" gradientUnits="userSpaceOnUse" id="gradient22" spreadMethod="pad" x1="-819.2" x2="819.2">
      <stop offset="0.0" stop-color="#00ddff"/>
      <stop offset="1.0" stop-color="#0055ff"/>
    </linearGradient>
    <linearGradient gradientTransform="matrix(0.0, 0.0257, -0.0143, 0.0, 63.2, 96.15)" gradientUnits="userSpaceOnUse" id="gradient23" spreadMethod="pad" x1="-819.2" x2="819.2">
      <stop offset="0.0" stop-color="#aaaaaa"/>
      <stop offset="1.0" stop-color="#cccccc"/>
    </linearGradient>
    <radialGradient cx="0" cy="0" gradientTransform="matrix(0.0172, 0.0, 0.0, 0.0172, 47.8, 83.45)" gradientUnits="userSpaceOnUse" id="gradient24" r="819.2" spreadMethod="pad">
      <stop offset="0.0" stop-color="#bbbbbb"/>
      <stop offset="1.0" stop-color="#444444"/>
    </radialGradient>
    <linearGradient gradientTransform="matrix(0.0, 0.0275, -0.0167, 0.0, 56.0, 75.15)" gradientUnits="userSpaceOnUse" id="gradient25" spreadMethod="pad" x1="-819.2" x2="819.2">
      <stop offset="0.0" stop-color="#aaaaaa"/>
      <stop offset="0.1411764705882353" stop-color="#cccccc"/>
      <stop offset="0.27450980392156865" stop-color="#acacac"/>
      <stop offset="0.7372549019607844" stop-color="#aaaaaa"/>
      <stop offset="1.0" stop-color="#444444"/>
    </linearGradient>
    <linearGradient gradientTransform="matrix(0.0065, 0.0, 0.0, 0.0017, 47.8, 76.55)" gradientUnits="userSpaceOnUse" id="gradient26" spreadMethod="pad" x1="-819.2" x2="819.2">
      <stop offset="0.0" stop-color="#00ddff"/>
      <stop offset="1.0" stop-color="#0055ff"/>
    </linearGradient>
    <linearGradient gradientTransform="matrix(0.0, 0.0169, -0.0168, 0.0, 54.35, 78.9)" gradientUnits="userSpaceOnUse" id="gradient27" spreadMethod="pad" x1="-819.2" x2="819.2">
      <stop offset="0.0" stop-color="#888888"/>
      <stop offset="0.8156862745098039" stop-color="#6a6a6a"/>
      <stop offset="1.0" stop-color="#565656"/>
    </linearGradient>
    <radialGradient cx="0" cy="0" gradientTransform="matrix(0.0439, 0.0, 0.0, 0.0439, 98.5, 108.8)" gradientUnits="userSpaceOnUse" id="gradient28" r="819.2" spreadMethod="pad">
      <stop offset="0.0" stop-color="#bbbbbb"/>
      <stop offset="1.0" stop-color="#444444"/>
    </radialGradient>
    <linearGradient gradientTransform="matrix(0.0, -0.0189, 0.0187, 0.0, 82.1, 121.3)" gradientUnits="userSpaceOnUse" id="gradient29" spreadMethod="pad" x1="-819.2" x2="819.2">
      <stop offset="0.0" stop-color="#888888"/>
      <stop offset="0.2196078431372549" stop-color="#bbbbbb"/>
      <stop offset="1.0" stop-color="#444444"/>
    </linearGradient>
    <radialGradient cx="0" cy="0" gradientTransform="matrix(0.0685, 0.0, 0.0, 0.0685, 115.2, 140.8)" gradientUnits="userSpaceOnUse" id="gradient30" r="819.2" spreadMethod="pad">
      <stop offset="0.0" stop-color="#3f7385"/>
      <stop offset="1.0" stop-color="#333333"/>
    </radialGradient>
    <radialGradient cx="0" cy="0" gradientTransform="matrix(0.0055, 0.0, 0.0, 0.0055, 29.85, 143.1)" gradientUnits="userSpaceOnUse" id="gradient31" r="819.2" spreadMethod="pad">
      <stop offset="0.0" stop-color="#00ddff"/>
      <stop offset="1.0" stop-color="#0055ff"/>
    </radialGradient>
    <radialGradient cx="0" cy="0" gradientTransform="matrix(0.0055, 0.0, 0.0, 0.0055, 33.3, 156.15)" gradientUnits="userSpaceOnUse" id="gradient32" r="819.2" spreadMethod="pad">
      <stop offset="0.0" stop-color="#00ddff"/>
      <stop offset="1.0" stop-color="#0055ff"/>
    </radialGradient>
    <linearGradient gradientTransform="matrix(0.0, 0.0082, -0.0083, 0.0, 78.5, 152.05)" gradientUnits="userSpaceOnUse" id="gradient33" spreadMethod="pad" x1="-819.2" x2="819.2">
      <stop offset="0.0" stop-color="#585858"/>
      <stop offset="0.2196078431372549" stop-color="#666666"/>
      <stop offset="1.0" stop-color="#111111"/>
    </linearGradient>
    <linearGradient gradientTransform="matrix(0.0, 0.0126, -0.0127, 0.0, 80.1, 172.45)" gradientUnits="userSpaceOnUse" id="gradient34" spreadMethod="pad" x1="-819.2" x2="819.2">
      <stop offset="0.0" stop-color="#585858"/>
      <stop offset="0.2196078431372549" stop-color="#666666"/>
      <stop offset="1.0" stop-color="#111111"/>
    </linearGradient>
    <linearGradient gradientTransform="matrix(0.0044, 0.0021, -0.0067, 0.0139, 158.15, 136.4)" gradientUnits="userSpaceOnUse" id="gradient35" spreadMethod="pad" x1="-819.2" x2="819.2">
      <stop offset="0.0" stop-color="#4487ad"/>
      <stop offset="1.0" stop-color="#333333"/>
    </linearGradient>
    <linearGradient gradientTransform="matrix(0.0, 0.0269, -0.027, 0.0, 100.15, 121.15)" gradientUnits="userSpaceOnUse" id="gradient36" spreadMethod="pad" x1="-819.2" x2="819.2">
      <stop offset="0.0" stop-color="#888888"/>
      <stop offset="0.20392156862745098" stop-color="#cccccc"/>
      <stop offset="1.0" stop-color="#444444"/>
    </linearGradient>
    <linearGradient gradientTransform="matrix(0.0, 0.0021, -0.002, 0.0, 88.6, 111.2)" gradientUnits="userSpaceOnUse" id="gradient37" spreadMethod="pad" x1="-819.2" x2="819.2">
      <stop offset="0.0" stop-color="#4487ad"/>
      <stop offset="1.0" stop-color="#333333"/>
    </linearGradient>
    <linearGradient gradientTransform="matrix(0.0, 0.0021, -0.0021, 0.0, 88.65, 107.9)" gradientUnits="userSpaceOnUse" id="gradient38" spreadMethod="pad" x1="-819.2" x2="819.2">
      <stop offset="0.0" stop-color="#4487ad"/>
      <stop offset="1.0" stop-color="#333333"/>
    </linearGradient>
    <linearGradient gradientTransform="matrix(0.0, 0.002, -0.0018, 0.0, 88.6, 114.35)" gradientUnits="userSpaceOnUse" id="gradient39" spreadMethod="pad" x1="-819.2" x2="819.2">
      <stop offset="0.0" stop-color="#4487ad"/>
      <stop offset="1.0" stop-color="#333333"/>
    </linearGradient>
    <linearGradient gradientTransform="matrix(0.0, 0.0019, -0.0019, 0.0, 88.6, 117.4)" gradientUnits="userSpaceOnUse" id="gradient40" spreadMethod="pad" x1="-819.2" x2="819.2">
      <stop offset="0.0" stop-color="#4487ad"/>
      <stop offset="1.0" stop-color="#333333"/>
    </linearGradient>
    <linearGradient gradientTransform="matrix(0.0, 0.0018, -0.0019, 0.0, 88.6, 120.5)" gradientUnits="userSpaceOnUse" id="gradient41" spreadMethod="pad" x1="-819.2" x2="819.2">
      <stop offset="0.0" stop-color="#4487ad"/>
      <stop offset="1.0" stop-color="#333333"/>
    </linearGradient>
    <linearGradient gradientTransform="matrix(0.0, 0.0017, -0.002, 0.0, 88.8, 123.7)" gradientUnits="userSpaceOnUse" id="gradient42" spreadMethod="pad" x1="-819.2" x2="819.2">
      <stop offset="0.0" stop-color="#4487ad"/>
      <stop offset="1.0" stop-color="#333333"/>
    </linearGradient>
    <linearGradient gradientTransform="matrix(0.0, 0.0017, -0.0018, 0.0, 89.85, 132.8)" gradientUnits="userSpaceOnUse" id="gradient43" spreadMethod="pad" x1="-819.2" x2="819.2">
      <stop offset="0.0" stop-color="#4487ad"/>
      <stop offset="1.0" stop-color="#333333"/>
    </linearGradient>
    <linearGradient gradientTransform="matrix(0.0, 0.0018, -0.0018, 0.0, 89.0, 126.8)" gradientUnits="userSpaceOnUse" id="gradient44" spreadMethod="pad" x1="-819.2" x2="819.2">
      <stop offset="0.0" stop-color="#4487ad"/>
      <stop offset="1.0" stop-color="#333333"/>
    </linearGradient>
    <linearGradient gradientTransform="matrix(0.0, 0.002, -0.0019, 0.0, 89.45, 129.75)" gradientUnits="userSpaceOnUse" id="gradient45" spreadMethod="pad" x1="-819.2" x2="819.2">
      <stop offset="0.0" stop-color="#4487ad"/>
      <stop offset="1.0" stop-color="#333333"/>
    </linearGradient>
    <linearGradient gradientTransform="matrix(0.0, 0.0014, -0.0013, 0.0, 90.0, 135.35)" gradientUnits="userSpaceOnUse" id="gradient46" spreadMethod="pad" x1="-819.2" x2="819.2">
      <stop offset="0.0" stop-color="#4487ad"/>
      <stop offset="1.0" stop-color="#333333"/>
    </linearGradient>
  </defs>
</svg>
