<?xml version="1.0" encoding="UTF-8" standalone="no"?>
<svg xmlns:xlink="http://www.w3.org/1999/xlink" height="245.95px" width="256.45px" xmlns="http://www.w3.org/2000/svg">
  <g transform="matrix(1.0, 0.0, 0.0, 1.0, 0.05, 0.05)">
    <path d="M242.9 75.15 Q246.55 79.1 247.0 83.1 248.0 87.9 246.05 92.7 L242.9 75.15" fill="url(#gradient0)" fill-rule="evenodd" stroke="none"/>
    <path d="M165.35 10.0 Q172.55 12.85 179.8 16.5 L178.55 17.15 Q172.4 20.85 168.4 30.45 L165.95 29.6 165.3 29.1 162.4 27.0 159.5 25.0 156.6 23.15 Q156.4 14.9 165.35 10.0" fill="url(#gradient1)" fill-rule="evenodd" stroke="none"/>
    <path d="M162.05 28.6 L165.2 29.35 165.95 29.6 168.4 30.45 171.05 31.6 167.6 32.35 Q160.25 34.2 155.65 38.95 153.0 34.95 149.95 31.5 L147.35 28.75 147.2 28.55 148.7 28.3 151.15 28.05 153.6 27.85 156.1 27.85 158.95 28.1 162.05 28.6" fill="url(#gradient2)" fill-rule="evenodd" stroke="none"/>
    <path d="M162.4 27.0 L162.05 28.6 158.95 28.1 Q159.05 26.5 159.5 25.0 L162.4 27.0" fill="url(#gradient3)" fill-rule="evenodd" stroke="none"/>
    <path d="M162.4 27.0 L165.3 29.1 165.95 29.6 165.2 29.35 162.05 28.6 162.4 27.0" fill="url(#gradient4)" fill-rule="evenodd" stroke="none"/>
    <path d="M171.05 31.6 L173.7 31.3 183.9 32.0 Q187.2 32.6 190.05 33.85 193.85 35.35 196.8 38.0 192.2 37.4 187.1 37.85 168.6 38.95 162.2 51.35 160.7 47.9 159.0 44.7 L155.65 38.95 Q160.25 34.2 167.6 32.35 L171.05 31.6" fill="url(#gradient5)" fill-rule="evenodd" stroke="none"/>
    <path d="M162.2 51.35 Q168.6 38.95 187.1 37.85 192.2 37.4 196.8 38.0 208.4 39.45 216.65 47.55 209.2 43.8 200.6 44.05 181.7 46.0 173.6 58.95 L163.15 53.65 162.2 51.35" fill="url(#gradient6)" fill-rule="evenodd" stroke="none"/>
    <path d="M190.45 210.95 L191.05 215.85 159.1 215.85 136.35 192.45 144.5 192.45 148.0 195.95 161.85 209.7 164.4 209.7 175.95 209.7 177.6 210.95 190.45 210.95 M225.2 53.65 L228.15 54.55 241.75 68.75 238.7 67.4 231.55 59.8 230.95 59.15 230.8 58.95 228.25 56.6 228.15 56.55 225.2 53.65 M190.4 67.4 L186.9 69.1 162.95 57.05 163.15 53.65 173.6 58.95 184.05 64.2 190.4 67.4 M147.2 79.0 Q151.75 92.35 173.3 102.4 L186.6 99.65 195.65 114.75 188.15 125.1 145.45 99.55 Q138.55 91.15 137.6 81.3 142.5 80.4 147.2 79.0 M106.5 174.15 L110.45 178.2 121.1 188.85 113.0 188.85 98.35 174.15 106.5 174.15" fill="#727272" fill-rule="evenodd" stroke="none"/>
    <path d="M246.05 92.7 L248.3 105.45 246.05 105.45 238.7 67.4 241.75 68.75 242.9 75.15 246.05 92.7 M125.4 245.85 L123.7 243.6 118.65 236.75 148.6 233.8 145.5 242.9 125.4 245.85 M186.9 69.1 L190.4 67.4 192.4 71.8 196.9 81.45 200.8 89.8 204.75 98.2 207.65 104.45 206.25 106.4 186.9 69.1 M137.5 111.6 L136.35 111.85 135.05 112.15 128.8 113.5 118.85 115.6 111.5 105.2 145.45 99.55 188.15 125.1 190.4 137.15 148.7 112.15 Q143.35 110.6 137.5 111.6" fill="#595959" fill-rule="evenodd" stroke="none"/>
    <path d="M190.4 67.4 L184.05 64.2 Q193.95 52.6 209.65 51.2 L209.65 51.25 Q220.8 50.75 228.15 56.55 L228.25 56.6 230.8 58.95 230.95 59.15 231.55 59.8 Q233.6 62.15 235.2 65.1 L236.2 67.4 Q236.85 69.55 236.7 71.8 233.0 62.5 217.2 61.25 201.8 60.45 192.4 71.8 L190.4 67.4" fill="url(#gradient7)" fill-rule="evenodd" stroke="none"/>
    <path d="M163.15 53.65 L162.95 57.05 Q122.6 73.5 83.05 64.4 L85.2 61.8 85.95 60.9 93.9 62.5 85.95 60.9 85.2 61.8 74.2 56.05 77.0 54.6 79.75 53.15 81.6 53.75 92.1 57.4 Q92.8 59.9 93.9 62.5 L106.95 63.95 114.85 64.1 Q132.05 63.95 148.9 58.8 156.05 56.65 163.15 53.65 M230.85 105.45 L234.55 113.6 220.85 133.65 219.05 121.85 226.0 112.15 227.25 110.4 230.85 105.45" fill="#7f7f7f" fill-rule="evenodd" stroke="none"/>
    <path d="M159.1 74.75 L172.9 83.15 180.95 97.0 173.7 98.55 Q155.55 90.05 151.6 77.65 155.35 76.3 159.1 74.75" fill="url(#gradient8)" fill-rule="evenodd" stroke="none"/>
    <path d="M159.95 242.9 L143.9 245.85 125.4 245.85 145.5 242.9 159.95 242.9 M123.7 243.6 Q103.25 245.15 94.8 236.15 L97.35 236.4 Q104.0 236.4 108.8 231.1 111.65 227.95 112.8 223.95 114.65 229.8 116.05 237.0 L118.65 236.75 123.7 243.6 M84.65 229.65 L75.8 224.35 76.75 218.55 71.3 215.4 72.75 212.5 70.25 211.15 71.85 207.6 68.95 206.05 70.7 202.6 67.65 201.1 69.2 197.75 74.55 201.65 78.75 200.05 85.15 197.55 Q91.85 197.05 97.3 200.25 90.55 200.25 85.8 205.55 81.05 210.85 81.05 218.3 L81.25 221.1 Q81.85 225.9 84.65 229.65 M70.15 174.85 L70.15 168.6 75.05 165.1 73.85 161.8 58.55 153.3 54.55 142.45 57.0 138.6 66.55 146.7 70.9 147.85 71.4 150.55 79.2 155.45 79.4 155.75 Q84.4 161.25 90.55 161.35 L94.55 168.15 106.9 169.25 115.9 157.9 117.65 165.45 114.05 171.8 110.45 178.2 106.5 174.15 81.45 171.75 77.4 171.75 73.35 171.75 70.15 174.85 M48.55 125.1 L50.95 121.6 47.25 119.25 49.75 115.75 45.95 113.35 48.55 109.95 48.55 109.9 44.65 107.5 47.35 104.1 43.35 101.6 46.1 98.25 42.05 95.75 44.95 92.45 40.8 89.95 43.75 86.6 39.55 84.05 42.5 80.85 42.5 80.75 38.25 78.2 41.3 75.0 36.95 72.3 40.1 69.2 40.1 69.15 51.5 76.2 53.65 82.6 55.15 87.05 58.75 89.25 59.1 91.05 60.5 96.95 61.8 102.9 63.15 108.8 64.5 114.7 65.25 117.85 63.6 119.2 61.05 121.2 61.45 122.95 62.55 128.7 63.65 134.5 48.55 125.1 M49.2 58.1 L50.8 52.7 54.75 51.15 55.6 57.45 59.55 55.95 61.2 56.3 63.15 47.55 68.9 44.85 69.85 48.45 Q63.95 50.1 62.9 56.65 L72.9 58.75 70.0 65.15 51.6 58.95 49.2 58.1 M151.6 77.65 Q155.55 90.05 173.7 98.55 L180.95 97.0 172.9 83.15 159.1 74.75 160.5 74.15 175.75 81.65 186.6 99.65 173.3 102.4 Q151.75 92.35 147.2 79.0 L151.6 77.65 M231.55 59.8 L238.7 67.4 246.05 105.45 244.05 105.45 Q243.35 103.9 242.2 102.65 243.3 100.45 242.55 98.2 241.75 96.25 240.65 94.75 241.55 92.3 240.65 89.8 239.9 88.0 238.85 86.5 239.75 83.95 238.85 81.5 L238.85 81.45 Q237.95 79.35 236.7 77.65 237.9 74.9 236.7 71.8 236.85 69.55 236.2 67.4 L235.2 65.1 Q233.6 62.15 231.55 59.8 M71.2 94.2 Q73.05 92.1 75.9 92.1 78.7 92.1 81.0 94.2 L81.9 95.0 Q83.15 96.5 84.0 98.2 84.8 100.1 85.05 102.25 L85.05 102.3 Q85.25 104.5 84.8 106.35 84.4 108.0 83.45 109.4 L82.6 110.4 Q80.8 112.4 78.05 112.4 L77.25 112.3 78.15 110.4 73.7 110.4 75.4 106.35 70.65 106.35 72.35 102.3 69.55 102.3 71.55 98.2 69.7 98.2 71.8 94.2 71.2 94.2 M78.4 94.2 L71.8 94.2 78.4 94.2 M61.2 56.3 L62.9 56.65 61.2 56.3 M55.6 57.45 L51.6 58.95 55.6 57.45 M44.95 92.45 L49.1 95.0 44.95 92.45 M41.3 75.0 L49.1 79.8 41.3 75.0 M42.5 80.75 L49.1 84.85 42.5 80.75 M43.75 86.6 L49.1 89.95 43.75 86.6 M49.55 90.2 L60.5 96.95 49.55 90.2 M49.55 85.15 L59.1 91.05 49.55 85.15 M49.55 80.05 L53.65 82.6 49.55 80.05 M78.85 98.2 L71.55 98.2 78.85 98.2 M49.75 115.75 L55.05 119.0 49.75 115.75 M48.55 109.9 L55.05 113.9 48.55 109.9 M47.35 104.1 L49.1 105.15 47.35 104.1 M79.75 106.35 L75.4 106.35 79.75 106.35 M79.3 102.3 L72.35 102.3 79.3 102.3 M80.2 110.4 L78.15 110.4 80.2 110.4 M80.75 134.15 Q82.6 132.05 85.45 132.05 88.25 132.05 90.6 134.15 L91.45 135.05 Q92.75 136.5 93.55 138.25 94.35 140.1 94.6 142.3 L94.6 142.35 Q94.8 144.5 94.35 146.35 L93.0 149.45 92.15 150.45 Q90.35 152.4 87.6 152.4 L86.8 152.35 87.7 150.45 83.2 150.45 84.95 146.35 80.2 146.35 81.9 142.35 79.1 142.35 81.05 138.25 79.25 138.25 81.35 134.15 80.75 134.15 M75.05 165.1 L77.4 171.75 75.05 165.1 M50.95 121.6 L55.05 124.15 50.95 121.6 M55.5 124.35 L62.55 128.7 55.5 124.35 M49.55 100.4 L63.15 108.8 49.55 100.4 M49.55 105.5 L64.5 114.7 49.55 105.5 M55.5 119.25 L61.45 122.95 55.5 119.25 M55.5 114.2 L63.6 119.2 55.5 114.2 M92.15 150.45 L90.1 150.45 92.15 150.45 M89.75 150.45 L87.7 150.45 89.75 150.45 M94.6 142.35 L89.3 142.35 94.6 142.35 M93.55 138.25 L88.85 138.25 93.55 138.25 M94.35 146.35 L89.7 146.35 94.35 146.35 M88.85 142.35 L81.9 142.35 88.85 142.35 M88.4 138.25 L81.05 138.25 88.4 138.25 M89.3 146.35 L84.95 146.35 89.3 146.35 M87.95 134.15 L81.35 134.15 87.95 134.15 M90.6 134.15 L88.4 134.15 90.6 134.15 M125.25 189.45 L126.8 186.5 128.25 183.7 129.6 180.9 130.0 180.15 132.0 176.3 137.1 180.15 138.25 181.1 136.75 183.7 132.65 183.7 136.75 183.7 138.25 181.1 144.75 185.95 151.15 190.8 148.0 195.95 144.5 192.45 140.8 191.9 132.5 190.6 125.25 189.45 M167.85 203.55 L175.95 209.7 164.4 209.7 167.85 203.55 M132.65 180.15 L137.1 180.15 132.65 180.15 M132.2 180.15 L130.0 180.15 132.2 180.15 M136.75 183.7 L135.0 186.5 132.5 190.6 135.0 186.5 132.65 186.5 135.0 186.5 136.75 183.7 M132.2 186.5 L126.8 186.5 132.2 186.5 M132.2 183.7 L128.25 183.7 132.2 183.7 M144.75 185.95 L140.8 191.9 144.75 185.95 M46.1 98.25 L49.1 100.1 46.1 98.25 M49.55 95.35 L61.8 102.9 49.55 95.35 M84.8 106.35 L80.15 106.35 84.8 106.35 M85.05 102.3 L79.7 102.3 85.05 102.3 M82.6 110.4 L80.55 110.4 82.6 110.4 M81.0 94.2 L78.85 94.2 81.0 94.2 M84.0 98.2 L79.25 98.2 84.0 98.2 M76.75 218.55 L79.65 216.15 79.4 211.5 79.15 207.05 78.75 200.05 79.15 207.05 79.4 211.5 79.65 216.15 76.75 218.55 M71.85 207.6 L74.05 208.75 71.85 207.6 M74.55 209.0 L79.4 211.5 74.55 209.0 M70.7 202.6 L74.05 204.4 70.7 202.6 M74.55 213.5 L79.65 216.15 74.55 213.5 M72.75 212.5 L74.05 213.15 72.75 212.5 M74.55 204.65 L79.15 207.05 74.55 204.65" fill="#333333" fill-rule="evenodd" stroke="none"/>
    <path d="M200.8 89.8 L196.9 81.45 Q206.2 69.9 221.95 70.75 232.05 71.5 236.7 77.65 237.95 79.35 238.85 81.45 L238.85 81.5 Q239.75 83.95 238.85 86.5 234.6 80.65 225.25 79.7 208.4 79.4 200.8 89.8" fill="url(#gradient9)" fill-rule="evenodd" stroke="none"/>
    <path d="M222.0 50.95 L225.2 53.65 228.15 56.55 Q220.8 50.75 209.65 51.25 L209.65 51.2 Q193.95 52.6 184.05 64.2 L173.6 58.95 Q181.7 46.0 200.6 44.05 209.2 43.8 216.65 47.55 L222.0 50.95" fill="url(#gradient10)" fill-rule="evenodd" stroke="none"/>
    <path d="M196.9 81.45 L192.4 71.8 Q201.8 60.45 217.2 61.25 233.0 62.5 236.7 71.8 237.9 74.9 236.7 77.65 232.05 71.5 221.95 70.75 206.2 69.9 196.9 81.45" fill="url(#gradient11)" fill-rule="evenodd" stroke="none"/>
    <path d="M162.95 57.05 L186.9 69.1 206.25 106.4 226.0 112.15 219.05 121.85 195.65 114.75 186.6 99.65 175.75 81.65 160.5 74.15 159.1 74.75 Q155.35 76.3 151.6 77.65 L147.2 79.0 Q142.5 80.4 137.6 81.3 119.9 84.65 100.6 81.95 L87.5 79.4 83.05 64.4 Q122.6 73.5 162.95 57.05" fill="url(#gradient12)" fill-rule="evenodd" stroke="none"/>
    <path d="M204.75 98.2 L200.8 89.8 Q208.4 79.4 225.25 79.7 234.6 80.65 238.85 86.5 239.9 88.0 240.65 89.8 241.55 92.3 240.65 94.75 236.6 88.9 228.45 88.5 212.95 88.35 204.75 98.2" fill="url(#gradient13)" fill-rule="evenodd" stroke="none"/>
    <path d="M207.65 104.45 L204.75 98.2 Q212.95 88.35 228.45 88.5 236.6 88.9 240.65 94.75 241.75 96.25 242.55 98.2 243.3 100.45 242.2 102.65 238.9 99.25 232.3 98.95 219.75 99.2 214.3 106.4 L207.65 104.45" fill="url(#gradient14)" fill-rule="evenodd" stroke="none"/>
    <path d="M228.4 125.9 L233.75 125.9 242.4 116.15 242.3 115.7 243.8 115.7 245.85 122.2 237.25 131.95 224.45 131.95 228.4 125.9" fill="url(#gradient15)" fill-rule="evenodd" stroke="none"/>
    <path d="M242.3 115.7 L242.4 116.15 233.75 125.9 228.4 125.9 235.0 115.7 242.3 115.7" fill="url(#gradient16)" fill-rule="evenodd" stroke="none"/>
    <path d="M244.05 105.45 L246.05 105.45 248.3 105.45 248.0 113.6 234.55 113.6 230.85 105.45 244.05 105.45 M73.35 171.75 L77.4 171.75 81.45 171.75 106.5 174.15 98.35 174.15 73.35 171.75 M121.1 188.85 L125.25 189.45 132.5 190.6 140.8 191.9 144.5 192.45 136.35 192.45 113.0 188.85 121.1 188.85" fill="#8c8c8c" fill-rule="evenodd" stroke="none"/>
    <path d="M254.55 133.55 L254.4 134.9 253.6 140.5 Q247.55 141.7 244.7 144.75 243.8 145.65 243.2 146.7 L241.75 146.7 218.05 146.7 Q212.4 139.5 190.4 137.15 L188.15 125.1 220.85 133.65 234.55 113.6 248.0 113.6 254.55 133.55 M217.5 201.4 L210.95 210.95 190.45 210.95 177.6 210.95 179.85 201.4 217.5 201.4 M228.4 125.9 L224.45 131.95 222.85 134.4 225.05 138.1 228.7 144.15 244.75 144.15 253.4 134.45 253.4 134.4 247.4 115.7 245.45 115.7 243.8 115.7 242.3 115.7 235.0 115.7 228.4 125.9 M111.5 105.2 L118.85 115.6 111.9 118.6 105.45 114.7 98.95 110.7 94.5 93.0 111.5 105.2" fill="#515151" fill-rule="evenodd" stroke="none"/>
    <path d="M69.2 197.75 L63.0 193.3 60.55 184.15 66.95 177.95 70.15 174.85 73.35 171.75 98.35 174.15 113.0 188.85 136.35 192.45 159.1 215.85 154.95 225.2 151.2 233.55 148.6 233.8 118.65 236.75 116.05 237.0 Q114.65 229.8 112.8 223.95 109.15 212.4 103.75 205.9 L106.5 202.85 104.0 191.5 92.9 180.5 86.75 179.9 92.9 180.5 104.0 191.5 106.5 202.85 103.75 205.9 Q100.75 202.3 97.3 200.25 91.85 197.05 85.15 197.55 L78.75 200.05 74.55 201.65 69.2 197.75 M206.25 106.4 L207.65 104.45 214.3 106.4 227.25 110.4 226.0 112.15 206.25 106.4 M85.2 61.8 L83.05 64.4 87.5 79.4 100.6 81.95 97.05 88.35 100.6 81.95 Q119.9 84.65 137.6 81.3 138.55 91.15 145.45 99.55 L111.5 105.2 94.5 93.0 97.05 88.35 77.0 77.65 69.25 66.65 70.0 65.15 72.9 58.75 74.2 56.05 85.2 61.8 M118.85 115.6 L128.8 113.5 136.85 161.2 179.85 201.4 177.6 210.95 175.95 209.7 167.85 203.55 166.3 202.35 167.25 197.35 131.7 167.85 127.5 149.15 131.7 167.85 167.25 197.35 166.3 202.35 151.15 190.8 144.75 185.95 138.25 181.1 137.1 180.15 132.0 176.3 117.65 165.45 115.9 157.9 110.15 134.05 108.6 127.75 107.4 122.7 105.45 114.7 111.9 118.6 118.85 115.6 M127.3 148.1 L124.6 135.95 108.6 127.75 124.6 135.95 127.3 148.1 M131.0 212.0 Q135.85 217.9 138.15 226.4 L154.95 225.2 138.15 226.4 Q135.85 217.9 131.0 212.0 M86.0 179.8 L66.95 177.95 86.0 179.8 M130.5 211.4 Q124.65 204.65 115.45 201.4 L113.0 188.85 115.45 201.4 Q124.65 204.65 130.5 211.4" fill="#666666" fill-rule="evenodd" stroke="none"/>
    <path d="M242.2 102.65 Q243.35 103.9 244.05 105.45 L230.85 105.45 227.25 110.4 214.3 106.4 Q219.75 99.2 232.3 98.95 238.9 99.25 242.2 102.65" fill="url(#gradient17)" fill-rule="evenodd" stroke="none"/>
    <path d="M224.45 131.95 L237.25 131.95 245.85 122.2 243.8 115.7 245.45 115.7 249.55 128.3 240.85 138.1 225.05 138.1 222.85 134.4 224.45 131.95" fill="url(#gradient18)" fill-rule="evenodd" stroke="none"/>
    <path d="M225.05 138.1 L240.85 138.1 249.55 128.3 245.45 115.7 247.4 115.7 253.4 134.4 253.4 134.45 244.75 144.15 228.7 144.15 225.05 138.1" fill="url(#gradient19)" fill-rule="evenodd" stroke="none"/>
    <path d="M254.4 134.9 L255.85 141.4 253.8 146.9 Q250.5 144.1 247.5 144.1 246.05 144.1 244.7 144.75 247.55 141.7 253.6 140.5 L254.4 134.9 M212.15 152.6 L211.3 152.6 Q201.6 139.3 190.4 146.9 L186.15 144.25 Q183.7 131.7 176.75 135.75 L176.6 138.4 175.05 137.5 175.1 137.4 Q172.95 126.05 166.7 129.75 166.55 130.95 166.55 132.2 L164.25 130.75 164.4 130.6 Q162.45 120.4 156.8 123.7 L156.7 126.1 154.8 124.95 154.9 124.8 Q153.1 115.65 148.05 118.6 L147.95 120.7 143.05 117.65 137.5 111.6 Q143.35 110.6 148.7 112.15 L190.4 137.15 Q212.4 139.5 218.05 146.7 L241.75 146.7 Q239.6 148.65 237.5 152.2 233.55 148.65 229.85 152.15 225.6 148.65 221.75 152.25 216.7 148.45 212.15 152.6" fill="url(#gradient20)" fill-rule="evenodd" stroke="none"/>
    <path d="M248.3 105.45 L256.35 131.25 254.55 133.55 248.0 113.6 248.3 105.45 M219.05 121.85 L220.85 133.65 188.15 125.1 195.65 114.75 219.05 121.85" fill="#7a7a7a" fill-rule="evenodd" stroke="none"/>
    <path d="M206.75 184.25 L208.2 186.7 Q207.2 190.45 205.5 194.45 205.15 195.5 205.5 196.55 L204.9 196.55 204.8 196.05 Q203.4 190.8 201.3 188.3 200.9 193.1 198.55 196.55 L197.75 196.55 197.65 196.05 Q196.05 190.8 193.6 188.3 193.05 193.1 190.35 196.55 L189.55 196.55 Q190.05 195.5 189.55 194.45 184.7 184.7 184.65 176.7 L184.65 175.6 184.85 173.35 Q183.9 172.25 182.7 173.5 L181.35 175.85 180.95 176.7 Q177.9 182.95 177.0 190.1 L175.55 188.85 Q172.25 183.3 174.8 171.4 170.25 176.7 168.0 182.25 L167.3 181.65 Q164.0 176.7 166.35 165.7 162.25 170.45 160.15 175.55 L159.25 174.7 Q156.55 170.25 158.55 160.7 154.95 164.9 153.1 169.35 L152.15 168.6 Q149.75 164.5 151.55 155.95 148.3 159.7 146.6 163.8 L145.7 163.0 Q143.4 159.35 145.1 151.5 142.6 154.45 141.1 157.55 L136.35 111.85 137.5 111.6 143.05 117.65 147.95 120.7 Q147.85 129.0 154.15 136.35 152.05 128.7 154.8 124.95 L156.7 126.1 Q156.65 135.25 163.6 143.45 161.25 134.95 164.25 130.75 L166.55 132.2 Q166.35 142.5 174.2 151.7 171.6 142.1 175.05 137.5 L176.6 138.4 Q176.45 149.9 185.1 160.15 182.3 149.45 186.15 144.25 L190.4 146.9 Q191.4 166.2 200.95 181.1 L203.35 184.7 Q205.45 186.5 206.85 184.7 L206.75 184.25" fill="url(#gradient21)" fill-rule="evenodd" stroke="none"/>
    <path d="M215.55 193.4 L217.5 201.4 179.85 201.4 136.85 161.2 140.6 159.45 Q140.8 163.0 145.85 163.15 L145.7 163.0 146.6 163.8 146.6 163.9 Q146.2 168.7 152.35 168.85 L152.15 168.6 153.1 169.35 153.05 169.5 Q152.6 174.85 159.45 175.05 L159.25 174.7 160.15 175.55 Q159.65 181.5 167.3 181.65 L168.0 182.25 167.95 182.3 167.95 182.45 Q167.45 188.9 175.75 189.1 L175.55 188.85 177.0 190.1 176.9 190.8 Q178.1 196.75 183.25 197.9 185.45 198.3 188.45 197.9 L189.55 196.55 190.35 196.55 190.3 196.6 Q193.7 199.7 197.75 196.55 L198.55 196.55 198.5 196.6 Q201.45 199.7 204.9 196.55 L205.5 196.55 Q205.8 197.2 206.45 197.9 210.95 198.7 213.45 196.55 214.8 195.4 215.55 193.4" fill="url(#gradient22)" fill-rule="evenodd" stroke="none"/>
    <path d="M147.85 17.95 L150.8 19.55 Q150.3 23.8 151.15 28.05 L148.7 28.3 Q146.8 23.15 147.85 17.95" fill="url(#gradient23)" fill-rule="evenodd" stroke="none"/>
    <path d="M150.45 5.05 Q157.85 7.1 165.35 10.0 156.4 14.9 156.6 23.15 L153.65 21.3 150.8 19.55 147.85 17.95 Q146.45 17.1 144.95 16.35 144.5 9.7 150.45 5.05" fill="url(#gradient24)" fill-rule="evenodd" stroke="none"/>
    <path d="M153.65 21.3 L156.6 23.15 Q156.1 25.5 156.1 27.85 L153.6 27.85 Q153.2 24.55 153.65 21.3" fill="url(#gradient25)" fill-rule="evenodd" stroke="none"/>
    <path d="M151.15 28.05 Q150.3 23.8 150.8 19.55 L153.65 21.3 Q153.2 24.55 153.6 27.85 L151.15 28.05" fill="url(#gradient26)" fill-rule="evenodd" stroke="none"/>
    <path d="M142.1 14.85 L144.95 16.35 Q144.0 22.1 146.5 27.85 L146.1 27.5 143.4 25.1 Q141.25 19.8 142.1 14.85" fill="url(#gradient27)" fill-rule="evenodd" stroke="none"/>
    <path d="M130.05 0.95 Q140.25 2.15 150.45 5.05 144.5 9.7 144.95 16.35 L142.1 14.85 139.15 13.5 Q137.7 12.75 136.3 12.15 L133.35 10.85 130.45 9.65 127.55 8.5 Q127.55 4.1 130.05 0.95" fill="url(#gradient28)" fill-rule="evenodd" stroke="none"/>
    <path d="M147.85 17.95 Q146.8 23.15 148.7 28.3 L147.2 28.55 146.5 27.85 Q144.0 22.1 144.95 16.35 146.45 17.1 147.85 17.95" fill="url(#gradient29)" fill-rule="evenodd" stroke="none"/>
    <path d="M133.35 10.85 L136.3 12.15 Q135.5 16.35 137.55 20.9 L135.5 19.7 134.75 19.3 Q132.35 15.05 133.35 10.85" fill="url(#gradient30)" fill-rule="evenodd" stroke="none"/>
    <path d="M126.35 14.35 L124.6 13.35 123.45 12.75 Q121.3 9.6 121.8 6.45 L124.65 7.45 Q124.05 10.9 126.35 14.35" fill="url(#gradient31)" fill-rule="evenodd" stroke="none"/>
    <path d="M104.15 1.6 Q104.3 1.0 104.9 0.4 117.4 -0.6 130.05 0.95 127.55 4.1 127.55 8.5 L124.65 7.45 121.8 6.45 118.85 5.55 115.95 4.65 113.05 3.8 110.15 3.05 107.25 2.35 104.15 1.6" fill="url(#gradient32)" fill-rule="evenodd" stroke="none"/>
    <path d="M132.15 17.9 L129.25 16.1 Q126.7 12.3 127.55 8.5 L130.45 9.65 Q129.65 13.75 132.15 17.9" fill="url(#gradient33)" fill-rule="evenodd" stroke="none"/>
    <path d="M129.25 16.1 L126.7 14.6 126.35 14.35 Q124.05 10.9 124.65 7.45 L127.55 8.5 Q126.7 12.3 129.25 16.1" fill="url(#gradient34)" fill-rule="evenodd" stroke="none"/>
    <path d="M132.45 18.1 L132.15 17.9 Q129.65 13.75 130.45 9.65 L133.35 10.85 Q132.35 15.05 134.75 19.3 L132.6 18.15 132.45 18.1" fill="url(#gradient35)" fill-rule="evenodd" stroke="none"/>
    <path d="M142.1 14.85 Q141.25 19.8 143.4 25.1 L141.25 23.4 140.35 22.8 Q138.35 18.1 139.15 13.5 L142.1 14.85" fill="url(#gradient36)" fill-rule="evenodd" stroke="none"/>
    <path d="M137.55 20.9 Q135.5 16.35 136.3 12.15 137.7 12.75 139.15 13.5 138.35 18.1 140.35 22.8 L137.55 20.9" fill="url(#gradient37)" fill-rule="evenodd" stroke="none"/>
    <path d="M123.45 12.75 L120.55 11.15 Q118.3 8.35 118.85 5.55 L121.8 6.45 Q121.3 9.6 123.45 12.75" fill="url(#gradient38)" fill-rule="evenodd" stroke="none"/>
    <path d="M159.5 25.0 Q159.05 26.5 158.95 28.1 L156.1 27.85 Q156.1 25.5 156.6 23.15 L159.5 25.0" fill="url(#gradient39)" fill-rule="evenodd" stroke="none"/>
    <path d="M117.65 9.65 L114.7 8.3 Q112.6 6.25 113.05 3.8 L115.95 4.65 Q115.35 7.15 117.65 9.65" fill="url(#gradient40)" fill-rule="evenodd" stroke="none"/>
    <path d="M114.7 8.3 L111.85 6.9 Q109.7 5.0 110.15 3.05 L113.05 3.8 Q112.6 6.25 114.7 8.3" fill="url(#gradient41)" fill-rule="evenodd" stroke="none"/>
    <path d="M120.55 11.15 L119.2 10.5 118.75 10.2 117.65 9.65 Q115.35 7.15 115.95 4.65 L118.85 5.55 Q118.3 8.35 120.55 11.15" fill="url(#gradient42)" fill-rule="evenodd" stroke="none"/>
    <path d="M111.85 6.9 L108.95 5.65 Q106.65 4.2 107.25 2.35 L110.15 3.05 Q109.7 5.0 111.85 6.9" fill="url(#gradient43)" fill-rule="evenodd" stroke="none"/>
    <path d="M108.95 5.65 L104.9 4.05 Q103.75 2.85 104.15 1.6 L107.25 2.35 Q106.65 4.2 108.95 5.65" fill="url(#gradient44)" fill-rule="evenodd" stroke="none"/>
    <path d="M89.45 47.05 L88.15 46.1 87.6 44.9 Q86.55 42.55 85.85 40.45 83.9 33.9 85.75 29.1 L89.85 31.25 Q88.4 35.85 90.3 40.45 L91.2 42.4 90.9 44.9 90.8 48.0 89.45 47.05" fill="url(#gradient45)" fill-rule="evenodd" stroke="none"/>
    <path d="M87.85 10.6 Q97.95 13.5 108.05 17.15 99.25 21.45 93.9 33.55 L89.85 31.25 85.75 29.1 81.75 27.0 77.65 25.0 Q78.7 15.3 87.85 10.6" fill="url(#gradient46)" fill-rule="evenodd" stroke="none"/>
    <path d="M88.15 46.1 L86.4 44.9 84.05 43.25 82.65 40.45 Q79.4 33.05 81.75 27.0 L85.75 29.1 Q83.9 33.9 85.85 40.45 86.55 42.55 87.6 44.9 L88.15 46.1" fill="url(#gradient47)" fill-rule="evenodd" stroke="none"/>
    <path d="M84.05 43.25 L79.95 40.5 79.95 40.45 Q75.0 31.8 77.65 25.0 L81.75 27.0 Q79.4 33.05 82.65 40.45 L84.05 43.25" fill="url(#gradient48)" fill-rule="evenodd" stroke="none"/>
    <path d="M74.05 48.05 L81.25 47.55 85.35 47.35 89.45 47.05 90.8 48.0 Q90.8 50.7 91.2 53.45 L92.1 57.4 81.6 53.75 Q81.4 52.6 81.8 51.5 81.4 52.6 81.6 53.75 L79.75 53.15 77.0 54.6 74.2 56.05 72.9 58.75 62.9 56.65 Q63.95 50.1 69.85 48.45 L70.3 48.3 74.05 48.05 M85.35 47.35 Q82.6 49.15 81.85 51.2 82.6 49.15 85.35 47.35 M77.4 51.5 Q76.75 52.9 77.0 54.6 76.75 52.9 77.4 51.5 M81.25 47.55 Q78.5 49.1 77.5 51.2 78.5 49.1 81.25 47.55" fill="url(#gradient49)" fill-rule="evenodd" stroke="none"/>
    <path d="M91.2 42.4 L90.3 40.45 Q88.4 35.85 89.85 31.25 L93.9 33.55 Q92.4 36.95 91.6 40.45 L91.2 42.4" fill="url(#gradient50)" fill-rule="evenodd" stroke="none"/>
    <path d="M85.65 102.25 Q86.15 106.9 84.2 110.4 L83.65 111.25 Q81.05 115.05 76.9 115.05 72.7 115.05 69.25 111.25 65.9 107.5 65.35 102.25 64.8 96.95 67.35 93.15 69.95 89.45 74.2 89.45 78.35 89.45 81.75 93.15 L82.55 94.2 Q85.15 97.6 85.65 102.25 M77.25 112.3 L78.05 112.4 Q80.8 112.4 82.6 110.4 L83.45 109.4 Q84.4 108.0 84.8 106.35 85.25 104.5 85.05 102.3 L85.05 102.25 Q84.8 100.1 84.0 98.2 83.15 96.5 81.9 95.0 L81.0 94.2 Q78.7 92.1 75.9 92.1 73.05 92.1 71.2 94.2 L70.55 95.0 Q69.55 96.5 69.1 98.2 68.65 100.1 68.9 102.25 L68.95 102.3 Q69.15 104.5 70.05 106.35 70.8 108.0 72.0 109.4 L73.05 110.4 Q75.0 112.05 77.25 112.3" fill="url(#gradient51)" fill-rule="evenodd" stroke="none"/>
    <path d="M85.65 102.25 Q85.15 97.6 82.55 94.2 L81.75 93.15 Q78.35 89.45 74.2 89.45 69.95 89.45 67.35 93.15 64.8 96.95 65.35 102.25 65.9 107.5 69.25 111.25 72.7 115.05 76.9 115.05 81.05 115.05 83.65 111.25 L84.2 110.4 Q86.15 106.9 85.65 102.25 M73.4 83.65 Q75.15 83.1 77.1 83.1 83.4 83.1 88.45 88.7 93.5 94.3 94.3 102.25 94.95 108.7 92.55 113.6 L91.3 115.7 Q87.45 121.3 81.2 121.3 76.75 121.3 73.0 118.55 71.35 117.4 69.85 115.7 65.55 110.9 64.35 104.45 L64.05 102.25 63.85 99.05 Q63.9 96.55 64.45 94.35 L64.85 93.05 Q65.65 90.75 67.0 88.7 69.65 84.85 73.4 83.65" fill="url(#gradient52)" fill-rule="evenodd" stroke="none"/>
    <path d="M57.0 138.6 L50.2 132.7 48.55 125.1 63.65 134.5 62.55 128.7 61.45 122.95 61.05 121.2 63.6 119.2 65.25 117.85 64.5 114.7 63.15 108.8 61.8 102.9 60.5 96.95 59.1 91.05 58.75 89.25 55.15 87.05 53.65 82.6 51.5 76.2 40.1 69.15 33.7 65.2 32.45 59.85 32.3 59.1 40.1 55.05 49.2 58.1 51.6 58.95 70.0 65.15 69.25 66.65 77.0 77.65 97.05 88.35 94.5 93.0 98.95 110.7 105.45 114.7 107.4 122.7 108.6 127.75 110.15 134.05 105.75 136.75 110.3 157.2 105.4 163.35 99.7 162.75 97.75 159.1 99.7 162.75 105.4 163.35 110.3 157.2 105.75 136.75 110.15 134.05 115.9 157.9 106.9 169.25 94.55 168.15 90.55 161.35 90.7 161.35 Q94.7 161.35 97.75 159.1 99.45 157.8 100.85 155.75 104.7 150.15 103.85 142.3 103.05 134.35 98.0 128.75 92.95 123.15 86.65 123.15 80.4 123.15 76.55 128.75 72.75 134.35 73.55 142.3 74.4 149.95 79.2 155.45 L71.4 150.55 70.9 147.85 66.4 123.75 73.0 118.55 66.4 123.75 70.9 147.85 66.55 146.7 57.0 138.6 M54.75 51.15 L57.65 51.15 59.55 55.95 55.6 57.45 54.75 51.15 M68.9 44.85 L72.45 44.85 74.05 48.05 70.3 48.3 69.85 48.45 68.9 44.85 M92.55 113.6 Q94.95 108.7 94.3 102.25 93.5 94.3 88.45 88.7 83.4 83.1 77.1 83.1 75.15 83.1 73.4 83.65 69.65 84.85 67.0 88.7 65.65 90.75 64.85 93.05 L64.45 94.35 Q63.9 96.55 63.85 99.05 L64.05 102.25 64.35 104.45 Q65.55 110.9 69.85 115.7 71.35 117.4 73.0 118.55 76.75 121.3 81.2 121.3 87.45 121.3 91.3 115.7 L92.55 113.6 100.85 121.8 102.15 122.0 100.85 121.8 92.55 113.6 M32.45 59.85 L60.75 71.9 63.45 78.0 73.4 83.65 63.45 78.0 60.75 71.9 32.45 59.85 M58.75 89.25 L64.85 93.05 58.75 89.25 M102.95 122.1 L107.4 122.7 102.95 122.1" fill="#3f3f3f" fill-rule="evenodd" stroke="none"/>
    <path d="M75.95 37.85 L71.85 35.3 Q68.2 28.3 69.55 21.3 L73.55 23.15 Q71.45 30.3 75.95 37.85" fill="url(#gradient53)" fill-rule="evenodd" stroke="none"/>
    <path d="M64.5 4.95 Q76.15 7.2 87.85 10.6 78.7 15.3 77.65 25.0 L73.55 23.15 69.55 21.3 65.45 19.55 61.4 17.95 59.05 17.0 Q55.7 10.0 64.5 4.95" fill="url(#gradient54)" fill-rule="evenodd" stroke="none"/>
    <path d="M67.8 32.85 L63.75 30.45 Q59.65 24.2 61.4 17.95 L65.45 19.55 Q64.4 26.2 67.8 32.85" fill="url(#gradient55)" fill-rule="evenodd" stroke="none"/>
    <path d="M71.85 35.3 L67.8 32.85 Q64.4 26.2 65.45 19.55 L69.55 21.3 Q68.2 28.3 71.85 35.3" fill="url(#gradient56)" fill-rule="evenodd" stroke="none"/>
    <path d="M47.5 21.75 L43.4 19.75 Q39.6 15.3 41.1 10.85 L45.1 12.15 Q44.0 16.75 47.5 21.75" fill="url(#gradient57)" fill-rule="evenodd" stroke="none"/>
    <path d="M35.55 0.85 Q49.95 2.05 64.5 4.95 55.7 10.0 59.05 17.0 L57.3 16.35 53.25 14.85 49.2 13.5 45.1 12.15 41.1 10.85 37.0 9.65 32.9 8.5 Q31.05 3.1 35.55 0.85" fill="url(#gradient58)" fill-rule="evenodd" stroke="none"/>
    <path d="M59.65 28.15 L55.6 25.95 Q52.05 20.2 53.25 14.85 L57.3 16.35 Q55.95 22.25 59.65 28.15" fill="url(#gradient59)" fill-rule="evenodd" stroke="none"/>
    <path d="M63.75 30.45 L59.65 28.15 Q55.95 22.25 57.3 16.35 L59.05 17.0 61.4 17.95 Q59.65 24.2 63.75 30.45" fill="url(#gradient60)" fill-rule="evenodd" stroke="none"/>
    <path d="M51.5 23.8 L47.5 21.75 Q44.0 16.75 45.1 12.15 L49.2 13.5 Q47.9 18.6 51.5 23.8" fill="url(#gradient61)" fill-rule="evenodd" stroke="none"/>
    <path d="M55.6 25.95 L51.5 23.8 Q47.9 18.6 49.2 13.5 L53.25 14.85 Q52.05 20.2 55.6 25.95" fill="url(#gradient62)" fill-rule="evenodd" stroke="none"/>
    <path d="M43.4 19.75 L39.3 17.9 Q35.85 13.75 37.0 9.65 L41.1 10.85 Q39.6 15.3 43.4 19.75" fill="url(#gradient63)" fill-rule="evenodd" stroke="none"/>
    <path d="M79.95 40.5 L79.85 40.45 75.95 37.85 Q71.45 30.3 73.55 23.15 L77.65 25.0 Q75.0 31.8 79.95 40.45 L79.95 40.5" fill="url(#gradient64)" fill-rule="evenodd" stroke="none"/>
    <path d="M0.1 1.6 L1.2 0.4 Q18.3 -0.55 35.55 0.85 31.05 3.1 32.9 8.5 L28.9 7.45 24.8 6.45 20.75 5.55 16.7 4.65 12.6 3.8 8.55 3.05 4.5 2.35 0.1 1.6" fill="url(#gradient65)" fill-rule="evenodd" stroke="none"/>
    <path d="M39.3 17.9 L35.3 16.1 Q31.7 12.3 32.9 8.5 L37.0 9.65 Q35.85 13.75 39.3 17.9" fill="url(#gradient66)" fill-rule="evenodd" stroke="none"/>
    <path d="M31.2 14.35 L28.8 13.35 27.1 12.75 Q24.15 9.6 24.8 6.45 L28.9 7.45 Q28.05 10.9 31.2 14.35" fill="url(#gradient67)" fill-rule="evenodd" stroke="none"/>
    <path d="M23.1 11.15 L21.2 10.5 20.55 10.2 19.0 9.65 Q15.75 7.15 16.7 4.65 L20.75 5.55 Q19.95 8.35 23.1 11.15" fill="url(#gradient68)" fill-rule="evenodd" stroke="none"/>
    <path d="M27.1 12.75 L23.1 11.15 Q19.95 8.35 20.75 5.55 L24.8 6.45 Q24.15 9.6 27.1 12.75" fill="url(#gradient69)" fill-rule="evenodd" stroke="none"/>
    <path d="M35.3 16.1 L31.7 14.6 31.2 14.35 Q28.05 10.9 28.9 7.45 L32.9 8.5 Q31.7 12.3 35.3 16.1" fill="url(#gradient70)" fill-rule="evenodd" stroke="none"/>
    <path d="M19.0 9.65 L14.95 8.3 Q12.0 6.25 12.6 3.8 L16.7 4.65 Q15.75 7.15 19.0 9.65" fill="url(#gradient71)" fill-rule="evenodd" stroke="none"/>
    <path d="M14.95 8.3 L10.9 6.9 Q7.95 5.0 8.55 3.05 L12.6 3.8 Q12.0 6.25 14.95 8.3" fill="url(#gradient72)" fill-rule="evenodd" stroke="none"/>
    <path d="M6.85 5.65 L1.2 4.05 Q-0.4 2.85 0.1 1.6 L4.5 2.35 Q3.65 4.2 6.85 5.65" fill="url(#gradient73)" fill-rule="evenodd" stroke="none"/>
    <path d="M10.9 6.9 L6.85 5.65 Q3.65 4.2 4.5 2.35 L8.55 3.05 Q7.95 5.0 10.9 6.9" fill="url(#gradient74)" fill-rule="evenodd" stroke="none"/>
    <path d="M77.25 112.3 Q75.0 112.05 73.05 110.4 L72.0 109.4 Q70.8 108.0 70.05 106.35 69.15 104.5 68.95 102.3 L68.9 102.25 Q68.65 100.1 69.1 98.2 69.55 96.5 70.55 95.0 L71.2 94.2 71.8 94.2 69.7 98.2 71.55 98.2 69.55 102.3 72.35 102.3 70.65 106.35 75.4 106.35 73.7 110.4 78.15 110.4 77.25 112.3 M86.8 152.35 Q84.55 152.1 82.6 150.45 L81.55 149.45 Q80.35 148.05 79.6 146.35 78.7 144.5 78.5 142.35 L78.5 142.3 Q78.25 140.1 78.65 138.25 79.1 136.5 80.1 135.05 L80.75 134.15 81.35 134.15 79.25 138.25 81.05 138.25 79.1 142.35 81.9 142.35 80.2 146.35 84.95 146.35 83.2 150.45 87.7 150.45 86.8 152.35" fill="#191919" fill-rule="evenodd" stroke="none"/>
    <path d="M80.75 134.15 L80.1 135.05 Q79.1 136.5 78.65 138.25 78.25 140.1 78.5 142.3 L78.5 142.35 Q78.7 144.5 79.6 146.35 80.35 148.05 81.55 149.45 L82.6 150.45 Q84.55 152.1 86.8 152.35 L87.6 152.4 Q90.35 152.4 92.15 150.45 L93.0 149.45 94.35 146.35 Q94.8 144.5 94.6 142.35 L94.6 142.3 Q94.35 140.1 93.55 138.25 92.75 136.5 91.45 135.05 L90.6 134.15 Q88.25 132.05 85.45 132.05 82.6 132.05 80.75 134.15 M95.2 142.3 Q95.7 146.95 93.75 150.45 L93.2 151.3 Q90.6 155.05 86.4 155.05 82.25 155.05 78.85 151.3 75.45 147.55 74.9 142.3 74.35 136.9 76.95 133.15 79.45 129.4 83.7 129.4 87.9 129.4 91.3 133.15 L92.1 134.15 Q94.7 137.65 95.2 142.3" fill="url(#gradient75)" fill-rule="evenodd" stroke="none"/>
    <path d="M79.2 155.45 Q74.4 149.95 73.55 142.3 72.75 134.35 76.55 128.75 80.4 123.15 86.65 123.15 92.95 123.15 98.0 128.75 103.05 134.35 103.85 142.3 104.7 150.15 100.85 155.75 99.45 157.8 97.75 159.1 94.7 161.35 90.7 161.35 L90.55 161.35 Q84.4 161.25 79.4 155.75 L79.2 155.45 M95.2 142.3 Q94.7 137.65 92.1 134.15 L91.3 133.15 Q87.9 129.4 83.7 129.4 79.45 129.4 76.95 133.15 74.35 136.9 74.9 142.3 75.45 147.55 78.85 151.3 82.25 155.05 86.4 155.05 90.6 155.05 93.2 151.3 L93.75 150.45 Q95.7 146.95 95.2 142.3" fill="url(#gradient76)" fill-rule="evenodd" stroke="none"/>
    <path d="M136.35 111.85 L141.1 157.55 140.6 158.65 140.6 159.45 136.85 161.2 128.8 113.5 135.05 112.15 136.35 111.85" fill="#212121" fill-rule="evenodd" stroke="none"/>
    <path d="M110.45 178.2 L114.05 171.8 117.65 165.45 132.0 176.3 130.0 180.15 129.6 180.9 128.25 183.7 126.8 186.5 125.25 189.45 121.1 188.85 110.45 178.2 M121.85 179.5 Q125.2 180.95 129.6 180.9 125.2 180.95 121.85 179.5 M121.15 179.25 Q116.65 176.95 114.05 171.8 116.65 176.95 121.15 179.25" fill="url(#gradient77)" fill-rule="evenodd" stroke="none"/>
    <path d="M166.3 202.35 L167.85 203.55 164.4 209.7 161.85 209.7 148.0 195.95 151.15 190.8 166.3 202.35" fill="url(#gradient78)" fill-rule="evenodd" stroke="none"/>
    <path d="M165.75 233.55 L159.95 242.9 145.5 242.9 148.6 233.8 151.2 233.55 165.75 233.55" fill="#474747" fill-rule="evenodd" stroke="none"/>
    <path d="M191.05 215.85 L185.4 225.2 180.25 233.55 165.75 233.55 151.2 233.55 154.95 225.2 159.1 215.85 191.05 215.85 M172.35 225.2 L154.95 225.2 172.35 225.2 M185.4 225.2 L173.15 225.2 185.4 225.2" fill="#545454" fill-rule="evenodd" stroke="none"/>
    <path d="M94.8 236.15 Q89.7 235.35 85.8 231.1 L84.65 229.65 Q81.85 225.9 81.25 221.1 L81.05 218.3 Q81.05 210.85 85.8 205.55 90.55 200.25 97.3 200.25 100.75 202.3 103.75 205.9 109.15 212.4 112.8 223.95 111.65 227.95 108.8 231.1 104.0 236.4 97.35 236.4 L94.8 236.15 M105.05 218.35 Q105.05 213.15 101.8 209.5 98.5 205.9 93.85 205.9 89.25 205.9 86.0 209.5 82.65 213.15 82.65 218.35 82.65 223.45 86.0 227.1 89.25 230.75 93.85 230.75 98.5 230.75 101.8 227.1 105.05 223.45 105.05 218.35" fill="url(#gradient79)" fill-rule="evenodd" stroke="none"/>
    <path d="M103.45 218.35 Q103.45 214.85 101.25 212.4 99.0 209.9 95.9 209.9 92.75 209.9 90.55 212.4 88.35 214.85 88.35 218.35 88.35 221.8 90.55 224.25 92.75 226.75 95.9 226.75 99.0 226.75 101.25 224.25 103.45 221.8 103.45 218.35 M105.05 218.35 Q105.05 223.45 101.8 227.1 98.5 230.75 93.85 230.75 89.25 230.75 86.0 227.1 82.65 223.45 82.65 218.35 82.65 213.15 86.0 209.5 89.25 205.9 93.85 205.9 98.5 205.9 101.8 209.5 105.05 213.15 105.05 218.35" fill="url(#gradient80)" fill-rule="evenodd" stroke="none"/>
    <path d="M103.45 218.35 Q103.45 221.8 101.25 224.25 99.0 226.75 95.9 226.75 92.75 226.75 90.55 224.25 88.35 221.8 88.35 218.35 88.35 214.85 90.55 212.4 92.75 209.9 95.9 209.9 99.0 209.9 101.25 212.4 103.45 214.85 103.45 218.35" fill="url(#gradient81)" fill-rule="evenodd" stroke="none"/>
    <path d="M211.3 152.6 Q204.35 165.95 206.3 181.1 L206.75 184.25 206.85 184.7 Q205.45 186.5 203.35 184.7 L200.95 181.1 Q191.4 166.2 190.4 146.9 201.6 139.3 211.3 152.6" fill="url(#gradient82)" fill-rule="evenodd" stroke="none"/>
    <path d="M253.8 146.9 Q252.85 168.65 243.5 184.7 241.9 186.5 240.8 184.7 243.3 168.1 237.65 153.55 L237.95 152.6 237.5 152.2 Q239.6 148.65 241.75 146.7 L243.2 146.7 Q243.8 145.65 244.7 144.75 246.05 144.1 247.5 144.1 250.5 144.1 253.8 146.9" fill="url(#gradient83)" fill-rule="evenodd" stroke="none"/>
    <path d="M221.9 153.3 Q219.8 160.25 215.3 163.7 215.85 157.15 212.15 152.6 216.7 148.45 221.75 152.25 L222.05 152.6 221.9 153.3" fill="url(#gradient84)" fill-rule="evenodd" stroke="none"/>
    <path d="M230.05 153.65 Q228.2 160.3 224.2 163.7 224.65 157.65 221.9 153.3 L222.05 152.6 221.75 152.25 Q225.6 148.65 229.85 152.15 L230.35 152.6 230.05 153.65" fill="url(#gradient85)" fill-rule="evenodd" stroke="none"/>
    <path d="M237.65 153.55 Q235.9 160.3 232.1 163.7 232.5 157.9 230.05 153.65 L230.35 152.6 229.85 152.15 Q233.55 148.65 237.5 152.2 L237.95 152.6 237.65 153.55" fill="url(#gradient86)" fill-rule="evenodd" stroke="none"/>
    <path d="M176.6 138.4 L176.75 135.75 Q183.7 131.7 186.15 144.25 182.3 149.45 185.1 160.15 176.45 149.9 176.6 138.4" fill="url(#gradient87)" fill-rule="evenodd" stroke="none"/>
    <path d="M166.55 132.2 Q166.55 130.95 166.7 129.75 172.95 126.05 175.1 137.4 L175.05 137.5 Q171.6 142.1 174.2 151.7 166.35 142.5 166.55 132.2" fill="url(#gradient88)" fill-rule="evenodd" stroke="none"/>
    <path d="M164.25 130.75 Q161.25 134.95 163.6 143.45 156.65 135.25 156.7 126.1 L156.8 123.7 Q162.45 120.4 164.4 130.6 L164.25 130.75" fill="url(#gradient89)" fill-rule="evenodd" stroke="none"/>
    <path d="M154.8 124.95 Q152.05 128.7 154.15 136.35 147.85 129.0 147.95 120.7 L148.05 118.6 Q153.1 115.65 154.9 124.8 L154.8 124.95" fill="url(#gradient90)" fill-rule="evenodd" stroke="none"/>
    <path d="M177.0 190.1 Q177.9 182.95 180.95 176.7 L181.35 175.85 182.7 173.5 Q183.9 172.25 184.85 173.35 L184.65 175.6 184.65 176.7 Q184.7 184.7 189.55 194.45 190.05 195.5 189.55 196.55 L188.45 197.9 Q185.45 198.3 183.25 197.9 178.1 196.75 176.9 190.8 L177.0 190.1" fill="url(#gradient91)" fill-rule="evenodd" stroke="none"/>
    <path d="M208.2 186.7 Q209.6 181.4 209.65 176.7 L209.65 175.6 209.5 173.35 Q210.3 172.25 211.3 173.5 L212.4 175.85 212.8 176.7 Q215.55 183.25 216.2 190.8 L215.55 193.4 Q214.8 195.4 213.45 196.55 210.95 198.7 206.45 197.9 205.8 197.2 205.5 196.55 205.15 195.5 205.5 194.45 207.2 190.45 208.2 186.7" fill="url(#gradient92)" fill-rule="evenodd" stroke="none"/>
    <path d="M198.55 196.55 Q200.9 193.1 201.3 188.3 203.4 190.8 204.8 196.05 L204.9 196.55 Q201.45 199.7 198.5 196.6 L198.55 196.55" fill="url(#gradient93)" fill-rule="evenodd" stroke="none"/>
    <path d="M190.35 196.55 Q193.05 193.1 193.6 188.3 196.05 190.8 197.65 196.05 L197.75 196.55 Q193.7 199.7 190.3 196.6 L190.35 196.55" fill="url(#gradient94)" fill-rule="evenodd" stroke="none"/>
    <path d="M168.0 182.25 Q170.25 176.7 174.8 171.4 172.25 183.3 175.55 188.85 L175.75 189.1 Q167.45 188.9 167.95 182.45 L167.95 182.3 168.0 182.25" fill="url(#gradient95)" fill-rule="evenodd" stroke="none"/>
    <path d="M160.15 175.55 Q162.25 170.45 166.35 165.7 164.0 176.7 167.3 181.65 159.65 181.5 160.15 175.55" fill="url(#gradient96)" fill-rule="evenodd" stroke="none"/>
    <path d="M153.1 169.35 Q154.95 164.9 158.55 160.7 156.55 170.25 159.25 174.7 L159.45 175.05 Q152.6 174.85 153.05 169.5 L153.1 169.35" fill="url(#gradient97)" fill-rule="evenodd" stroke="none"/>
    <path d="M146.6 163.8 Q148.3 159.7 151.55 155.95 149.75 164.5 152.15 168.6 L152.35 168.85 Q146.2 168.7 146.6 163.9 L146.6 163.8" fill="url(#gradient98)" fill-rule="evenodd" stroke="none"/>
    <path d="M141.1 157.55 Q142.6 154.45 145.1 151.5 143.4 159.35 145.7 163.0 L145.85 163.15 Q140.8 163.0 140.6 159.45 L140.6 158.65 141.1 157.55" fill="url(#gradient99)" fill-rule="evenodd" stroke="none"/>
    <path d="M179.8 16.5 Q186.0 13.5 194.15 16.0 L194.2 16.0 Q197.9 17.55 201.25 19.7 203.6 21.35 205.75 23.4 L209.55 27.5 212.55 31.5 Q216.5 37.25 219.65 44.7 L222.0 50.95 216.65 47.55 Q208.4 39.45 196.8 38.0 193.85 35.35 190.05 33.85 187.2 32.6 183.9 32.0 L173.7 31.3 171.05 31.6 168.4 30.45 Q172.4 20.85 178.55 17.15 L179.8 16.5 M188.05 27.1 Q186.1 29.05 184.3 31.5 L183.9 32.0 184.3 31.5 Q186.1 29.05 188.05 27.1 M196.5 27.1 Q193.85 28.9 191.7 31.5 L190.05 33.85 191.7 31.5 Q193.85 28.9 196.5 27.1 M201.25 19.7 Q194.3 20.9 188.5 26.6 194.3 20.9 201.25 19.7 M205.75 23.4 Q201.05 24.25 197.25 26.6 201.05 24.25 205.75 23.4" fill="url(#gradient100)" fill-rule="evenodd" stroke="none"/>
    <path d="M108.05 17.15 Q116.2 13.2 127.45 16.0 L132.45 18.1 132.6 18.15 134.75 19.3 135.5 19.7 137.55 20.9 140.35 22.8 141.25 23.4 143.4 25.1 146.1 27.5 146.5 27.85 147.2 28.55 147.35 28.75 149.95 31.5 Q153.0 34.95 155.65 38.95 L159.0 44.7 Q160.7 47.9 162.2 51.35 L163.15 53.65 Q156.05 56.65 148.9 58.8 132.05 63.95 114.85 64.1 L106.95 63.95 93.9 62.5 Q92.8 59.9 92.1 57.4 L91.2 53.45 Q90.8 50.7 90.8 48.0 L90.9 44.9 91.2 42.4 91.6 40.45 Q92.4 36.95 93.9 33.55 99.25 21.45 108.05 17.15 M135.5 19.7 L135.0 19.75 Q122.65 21.7 113.0 32.3 111.55 33.95 110.4 35.55 111.55 33.95 113.0 32.3 122.65 21.7 135.0 19.75 L135.5 19.7 M141.25 23.4 L140.7 23.5 140.5 23.5 Q127.3 25.55 120.1 35.15 L119.8 35.55 120.1 35.15 Q127.3 25.55 140.5 23.5 L140.7 23.5 141.25 23.4 M119.35 36.15 L117.25 39.2 Q115.5 42.05 114.45 44.9 113.4 47.65 113.0 50.4 L112.8 52.6 Q112.45 58.4 114.85 64.1 112.45 58.4 112.8 52.6 L113.0 50.4 Q113.4 47.65 114.45 44.9 115.5 42.05 117.25 39.2 L119.35 36.15 M110.0 36.15 L108.25 39.0 Q106.7 41.9 105.85 44.9 105.05 47.55 104.9 50.4 104.4 56.9 106.95 63.95 104.4 56.9 104.9 50.4 105.05 47.55 105.85 44.9 106.7 41.9 108.25 39.0 L110.0 36.15 M148.9 58.8 Q143.0 50.95 133.3 47.55 L129.5 50.0 133.3 47.55 Q143.0 50.95 148.9 58.8 M128.55 50.6 L121.5 55.05 Q117.15 55.0 112.8 52.6 117.15 55.0 121.5 55.05 L128.55 50.6" fill="url(#gradient101)" fill-rule="evenodd" stroke="none"/>
    <path d="M242.9 75.15 Q246.55 79.1 247.0 83.1 248.0 87.9 246.05 92.7 L248.3 105.45 256.35 131.25 254.55 133.55 254.4 134.9 255.85 141.4 253.8 146.9 Q252.85 168.65 243.5 184.7 241.9 186.5 240.8 184.7 243.3 168.1 237.65 153.55 235.9 160.3 232.1 163.7 232.5 157.9 230.05 153.65 228.2 160.3 224.2 163.7 224.65 157.65 221.9 153.3 219.8 160.25 215.3 163.7 215.85 157.15 212.15 152.6 L211.3 152.6 Q204.35 165.95 206.3 181.1 L206.75 184.25 208.2 186.7 Q209.6 181.4 209.65 176.7 L209.65 175.6 209.5 173.35 Q210.3 172.25 211.3 173.5 L212.4 175.85 212.8 176.7 Q215.55 183.25 216.2 190.8 L215.55 193.4 217.5 201.4 210.95 210.95 190.45 210.95 191.05 215.85 185.4 225.2 180.25 233.55 165.75 233.55 159.95 242.9 143.9 245.85 125.4 245.85 123.7 243.6 Q103.25 245.15 94.8 236.15 89.7 235.35 85.8 231.1 L84.65 229.65 75.8 224.35 76.75 218.55 71.3 215.4 72.75 212.5 70.25 211.15 71.85 207.6 68.95 206.05 70.7 202.6 67.65 201.1 69.2 197.75 63.0 193.3 60.55 184.15 66.95 177.95 70.15 174.85 70.15 168.6 75.05 165.1 73.85 161.8 58.55 153.3 54.55 142.45 57.0 138.6 50.2 132.7 48.55 125.1 50.95 121.6 47.25 119.25 49.75 115.75 45.95 113.35 48.55 109.95 48.55 109.9 44.65 107.5 47.35 104.1 43.35 101.6 46.1 98.25 42.05 95.75 44.95 92.45 40.8 89.95 43.75 86.6 39.55 84.05 42.5 80.85 42.5 80.75 38.25 78.2 41.3 75.0 36.95 72.3 40.1 69.2 40.1 69.15 33.7 65.2 32.45 59.85 32.3 59.1 40.1 55.05 49.2 58.1 50.8 52.7 54.75 51.15 57.65 51.15 59.55 55.95 61.2 56.3 63.15 47.55 68.9 44.85 72.45 44.85 74.05 48.05 81.25 47.55 85.35 47.35 89.45 47.05 88.15 46.1 86.4 44.9 84.05 43.25 79.95 40.5 79.85 40.45 75.95 37.85 71.85 35.3 67.8 32.85 63.75 30.45 59.65 28.15 55.6 25.95 51.5 23.8 47.5 21.75 43.4 19.75 39.3 17.9 35.3 16.1 31.7 14.6 31.2 14.35 28.8 13.35 27.1 12.75 23.1 11.15 21.2 10.5 20.55 10.2 19.0 9.65 14.95 8.3 10.9 6.9 6.85 5.65 1.2 4.05 Q-0.4 2.85 0.1 1.6 L1.2 0.4 Q18.3 -0.55 35.55 0.85 49.95 2.05 64.5 4.95 76.15 7.2 87.85 10.6 97.95 13.5 108.05 17.15 116.2 13.2 127.45 16.0 L132.45 18.1 132.15 17.9 129.25 16.1 126.7 14.6 126.35 14.35 124.6 13.35 123.45 12.75 120.55 11.15 119.2 10.5 118.75 10.2 117.65 9.65 114.7 8.3 111.85 6.9 108.95 5.65 104.9 4.05 Q103.75 2.85 104.15 1.6 104.3 1.0 104.9 0.4 117.4 -0.6 130.05 0.95 140.25 2.15 150.45 5.05 157.85 7.1 165.35 10.0 172.55 12.85 179.8 16.5 186.0 13.5 194.15 16.0 L194.2 16.0 Q197.9 17.55 201.25 19.7 203.6 21.35 205.75 23.4 L209.55 27.5 212.55 31.5 Q216.5 37.25 219.65 44.7 L222.0 50.95 225.2 53.65 228.15 54.55 241.75 68.75 242.9 75.15 246.05 92.7 M168.4 30.45 Q172.4 20.85 178.55 17.15 L179.8 16.5 M165.95 29.6 L165.3 29.1 162.4 27.0 162.05 28.6 165.2 29.35 165.95 29.6 168.4 30.45 171.05 31.6 173.7 31.3 183.9 32.0 184.3 31.5 Q186.1 29.05 188.05 27.1 M155.65 38.95 Q160.25 34.2 167.6 32.35 L171.05 31.6 M183.9 32.0 Q187.2 32.6 190.05 33.85 L191.7 31.5 Q193.85 28.9 196.5 27.1 M162.2 51.35 Q168.6 38.95 187.1 37.85 192.2 37.4 196.8 38.0 193.85 35.35 190.05 33.85 M188.5 26.6 Q194.3 20.9 201.25 19.7 M186.9 69.1 L190.4 67.4 184.05 64.2 173.6 58.95 163.15 53.65 162.95 57.05 186.9 69.1 206.25 106.4 207.65 104.45 204.75 98.2 200.8 89.8 196.9 81.45 192.4 71.8 190.4 67.4 M162.2 51.35 L163.15 53.65 Q156.05 56.65 148.9 58.8 132.05 63.95 114.85 64.1 L106.95 63.95 93.9 62.5 85.95 60.9 85.2 61.8 83.05 64.4 Q122.6 73.5 162.95 57.05 M151.6 77.65 Q155.55 90.05 173.7 98.55 L180.95 97.0 172.9 83.15 159.1 74.75 Q155.35 76.3 151.6 77.65 L147.2 79.0 Q151.75 92.35 173.3 102.4 L186.6 99.65 175.75 81.65 160.5 74.15 159.1 74.75 M225.2 53.65 L228.15 56.55 228.25 56.6 230.8 58.95 230.95 59.15 231.55 59.8 238.7 67.4 241.75 68.75 M236.7 71.8 Q236.85 69.55 236.2 67.4 L235.2 65.1 Q233.6 62.15 231.55 59.8 M184.05 64.2 Q193.95 52.6 209.65 51.2 L209.65 51.25 Q220.8 50.75 228.15 56.55 M200.8 89.8 Q208.4 79.4 225.25 79.7 234.6 80.65 238.85 86.5 239.75 83.95 238.85 81.5 L238.85 81.45 Q237.95 79.35 236.7 77.65 232.05 71.5 221.95 70.75 206.2 69.9 196.9 81.45 M240.65 94.75 Q241.55 92.3 240.65 89.8 239.9 88.0 238.85 86.5 M204.75 98.2 Q212.95 88.35 228.45 88.5 236.6 88.9 240.65 94.75 241.75 96.25 242.55 98.2 243.3 100.45 242.2 102.65 243.35 103.9 244.05 105.45 L246.05 105.45 238.7 67.4 M192.4 71.8 Q201.8 60.45 217.2 61.25 233.0 62.5 236.7 71.8 237.9 74.9 236.7 77.65 M216.65 47.55 L222.0 50.95 M196.8 38.0 Q208.4 39.45 216.65 47.55 209.2 43.8 200.6 44.05 181.7 46.0 173.6 58.95 M197.25 26.6 Q201.05 24.25 205.75 23.4 M242.3 115.7 L242.4 116.15 233.75 125.9 228.4 125.9 224.45 131.95 237.25 131.95 245.85 122.2 243.8 115.7 242.3 115.7 235.0 115.7 228.4 125.9 M234.55 113.6 L230.85 105.45 227.25 110.4 226.0 112.15 219.05 121.85 220.85 133.65 234.55 113.6 248.0 113.6 248.3 105.45 246.05 105.45 M207.65 104.45 L214.3 106.4 Q219.75 99.2 232.3 98.95 238.9 99.25 242.2 102.65 M225.05 138.1 L222.85 134.4 224.45 131.95 M245.45 115.7 L249.55 128.3 240.85 138.1 225.05 138.1 228.7 144.15 244.75 144.15 253.4 134.45 253.4 134.4 247.4 115.7 245.45 115.7 243.8 115.7 M214.3 106.4 L227.25 110.4 M206.25 106.4 L226.0 112.15 M190.4 137.15 Q212.4 139.5 218.05 146.7 L241.75 146.7 243.2 146.7 Q243.8 145.65 244.7 144.75 247.55 141.7 253.6 140.5 L254.4 134.9 M195.65 114.75 L186.6 99.65 M175.05 137.5 L175.1 137.4 Q172.95 126.05 166.7 129.75 166.55 130.95 166.55 132.2 166.35 142.5 174.2 151.7 171.6 142.1 175.05 137.5 L176.6 138.4 176.75 135.75 Q183.7 131.7 186.15 144.25 L190.4 146.9 Q201.6 139.3 211.3 152.6 M156.7 126.1 Q156.65 135.25 163.6 143.45 161.25 134.95 164.25 130.75 L164.4 130.6 Q162.45 120.4 156.8 123.7 L156.7 126.1 154.8 124.95 Q152.05 128.7 154.15 136.35 147.85 129.0 147.95 120.7 L143.05 117.65 137.5 111.6 136.35 111.85 141.1 157.55 Q142.6 154.45 145.1 151.5 143.4 159.35 145.7 163.0 L146.6 163.8 Q148.3 159.7 151.55 155.95 149.75 164.5 152.15 168.6 L153.1 169.35 Q154.95 164.9 158.55 160.7 156.55 170.25 159.25 174.7 L160.15 175.55 Q162.25 170.45 166.35 165.7 164.0 176.7 167.3 181.65 L168.0 182.25 Q170.25 176.7 174.8 171.4 172.25 183.3 175.55 188.85 L177.0 190.1 Q177.9 182.95 180.95 176.7 L181.35 175.85 182.7 173.5 Q183.9 172.25 184.85 173.35 L184.65 175.6 184.65 176.7 Q184.7 184.7 189.55 194.45 190.05 195.5 189.55 196.55 L190.35 196.55 Q193.05 193.1 193.6 188.3 196.05 190.8 197.65 196.05 L197.75 196.55 198.55 196.55 Q200.9 193.1 201.3 188.3 203.4 190.8 204.8 196.05 L204.9 196.55 205.5 196.55 Q205.15 195.5 205.5 194.45 207.2 190.45 208.2 186.7 M166.55 132.2 L164.25 130.75 M190.4 137.15 L188.15 125.1 145.45 99.55 111.5 105.2 118.85 115.6 128.8 113.5 135.05 112.15 136.35 111.85 M188.15 125.1 L195.65 114.75 219.05 121.85 M175.55 188.85 L175.75 189.1 Q167.45 188.9 167.95 182.45 L167.95 182.3 168.0 182.25 M189.55 196.55 L188.45 197.9 Q185.45 198.3 183.25 197.9 178.1 196.75 176.9 190.8 L177.0 190.1 M197.75 196.55 Q193.7 199.7 190.3 196.6 L190.35 196.55 M204.9 196.55 Q201.45 199.7 198.5 196.6 L198.55 196.55 M230.05 153.65 L230.35 152.6 229.85 152.15 Q225.6 148.65 221.75 152.25 L222.05 152.6 221.9 153.3 M237.5 152.2 Q233.55 148.65 229.85 152.15 M237.65 153.55 L237.95 152.6 237.5 152.2 Q239.6 148.65 241.75 146.7 M221.75 152.25 Q216.7 148.45 212.15 152.6 M190.4 146.9 Q191.4 166.2 200.95 181.1 L203.35 184.7 Q205.45 186.5 206.85 184.7 L206.75 184.25 M215.55 193.4 Q214.8 195.4 213.45 196.55 210.95 198.7 206.45 197.9 205.8 197.2 205.5 196.55 M176.6 138.4 Q176.45 149.9 185.1 160.15 182.3 149.45 186.15 144.25 M188.15 125.1 L220.85 133.65 M253.8 146.9 Q250.5 144.1 247.5 144.1 246.05 144.1 244.7 144.75 M248.0 113.6 L254.55 133.55 M230.85 105.45 L244.05 105.45 M150.8 19.55 L147.85 17.95 Q146.8 23.15 148.7 28.3 L151.15 28.05 Q150.3 23.8 150.8 19.55 L153.65 21.3 156.6 23.15 Q156.1 25.5 156.1 27.85 L158.95 28.1 162.05 28.6 M144.95 16.35 L142.1 14.85 Q141.25 19.8 143.4 25.1 L146.1 27.5 146.5 27.85 Q144.0 22.1 144.95 16.35 M147.85 17.95 Q146.45 17.1 144.95 16.35 M136.3 12.15 L133.35 10.85 Q132.35 15.05 134.75 19.3 L135.5 19.7 137.55 20.9 Q135.5 16.35 136.3 12.15 137.7 12.75 139.15 13.5 L142.1 14.85 M130.45 9.65 L127.55 8.5 Q126.7 12.3 129.25 16.1 M124.65 7.45 L121.8 6.45 Q121.3 9.6 123.45 12.75 M127.55 8.5 L124.65 7.45 Q124.05 10.9 126.35 14.35 M132.45 18.1 L132.6 18.15 134.75 19.3 M110.4 35.55 Q111.55 33.95 113.0 32.3 122.65 21.7 135.0 19.75 L135.5 19.7 M137.55 20.9 L140.35 22.8 Q138.35 18.1 139.15 13.5 M140.35 22.8 L141.25 23.4 143.4 25.1 M119.8 35.55 L120.1 35.15 Q127.3 25.55 140.5 23.5 L140.7 23.5 141.25 23.4 M133.35 10.85 L130.45 9.65 Q129.65 13.75 132.15 17.9 M158.95 28.1 Q159.05 26.5 159.5 25.0 L156.6 23.15 M153.6 27.85 L156.1 27.85 M147.2 28.55 L148.7 28.3 M147.2 28.55 L147.35 28.75 149.95 31.5 Q153.0 34.95 155.65 38.95 L159.0 44.7 Q160.7 47.9 162.2 51.35 M146.5 27.85 L147.2 28.55 M151.15 28.05 L153.6 27.85 Q153.2 24.55 153.65 21.3 M115.95 4.65 L113.05 3.8 Q112.6 6.25 114.7 8.3 M118.85 5.55 L115.95 4.65 Q115.35 7.15 117.65 9.65 M120.55 11.15 Q118.3 8.35 118.85 5.55 L121.8 6.45 M110.15 3.05 L107.25 2.35 Q106.65 4.2 108.95 5.65 M107.25 2.35 L104.15 1.6 M113.05 3.8 L110.15 3.05 Q109.7 5.0 111.85 6.9 M89.85 31.25 L85.75 29.1 Q83.9 33.9 85.85 40.45 86.55 42.55 87.6 44.9 L88.15 46.1 M85.75 29.1 L81.75 27.0 Q79.4 33.05 82.65 40.45 L84.05 43.25 M90.8 48.0 L90.9 44.9 91.2 42.4 90.3 40.45 Q88.4 35.85 89.85 31.25 L93.9 33.55 Q99.25 21.45 108.05 17.15 M89.45 47.05 L90.8 48.0 Q90.8 50.7 91.2 53.45 L92.1 57.4 Q92.8 59.9 93.9 62.5 M91.2 42.4 L91.6 40.45 Q92.4 36.95 93.9 33.55 M106.95 63.95 Q104.4 56.9 104.9 50.4 105.05 47.55 105.85 44.9 106.7 41.9 108.25 39.0 L110.0 36.15 M114.85 64.1 Q112.45 58.4 112.8 52.6 L113.0 50.4 Q113.4 47.65 114.45 44.9 115.5 42.05 117.25 39.2 L119.35 36.15 M81.6 53.75 L92.1 57.4 M81.6 53.75 Q81.4 52.6 81.8 51.5 M85.65 102.25 Q86.15 106.9 84.2 110.4 L83.65 111.25 Q81.05 115.05 76.9 115.05 72.7 115.05 69.25 111.25 65.9 107.5 65.35 102.25 64.8 96.95 67.35 93.15 69.95 89.45 74.2 89.45 78.35 89.45 81.75 93.15 L82.55 94.2 Q85.15 97.6 85.65 102.25 M71.2 94.2 Q73.05 92.1 75.9 92.1 78.7 92.1 81.0 94.2 L81.9 95.0 Q83.15 96.5 84.0 98.2 84.8 100.1 85.05 102.25 L85.05 102.3 Q85.25 104.5 84.8 106.35 84.4 108.0 83.45 109.4 L82.6 110.4 Q80.8 112.4 78.05 112.4 L77.25 112.3 Q75.0 112.05 73.05 110.4 L72.0 109.4 Q70.8 108.0 70.05 106.35 69.15 104.5 68.95 102.3 L68.9 102.25 Q68.65 100.1 69.1 98.2 69.55 96.5 70.55 95.0 L71.2 94.2 71.8 94.2 78.4 94.2 M100.6 81.95 L87.5 79.4 83.05 64.4 M94.5 93.0 L97.05 88.35 77.0 77.65 69.25 66.65 70.0 65.15 51.6 58.95 49.2 58.1 M97.05 88.35 L100.6 81.95 Q119.9 84.65 137.6 81.3 142.5 80.4 147.2 79.0 M112.8 52.6 Q117.15 55.0 121.5 55.05 L128.55 50.6 M129.5 50.0 L133.3 47.55 Q143.0 50.95 148.9 58.8 M81.85 51.2 Q82.6 49.15 85.35 47.35 M73.55 23.15 L69.55 21.3 Q68.2 28.3 71.85 35.3 M65.45 19.55 L61.4 17.95 Q59.65 24.2 63.75 30.45 M69.55 21.3 L65.45 19.55 Q64.4 26.2 67.8 32.85 M45.1 12.15 L41.1 10.85 Q39.6 15.3 43.4 19.75 M57.3 16.35 L53.25 14.85 Q52.05 20.2 55.6 25.95 M59.05 17.0 L57.3 16.35 Q55.95 22.25 59.65 28.15 M47.5 21.75 Q44.0 16.75 45.1 12.15 L49.2 13.5 53.25 14.85 M51.5 23.8 Q47.9 18.6 49.2 13.5 M68.9 44.85 L69.85 48.45 70.3 48.3 74.05 48.05 M79.95 40.5 L79.95 40.45 Q75.0 31.8 77.65 25.0 L73.55 23.15 Q71.45 30.3 75.95 37.85 M61.4 17.95 L59.05 17.0 M37.0 9.65 L32.9 8.5 Q31.7 12.3 35.3 16.1 M23.1 11.15 Q19.95 8.35 20.75 5.55 L16.7 4.65 Q15.75 7.15 19.0 9.65 M24.8 6.45 L20.75 5.55 M28.9 7.45 L24.8 6.45 Q24.15 9.6 27.1 12.75 M32.9 8.5 L28.9 7.45 Q28.05 10.9 31.2 14.35 M39.3 17.9 Q35.85 13.75 37.0 9.65 L41.1 10.85 M16.7 4.65 L12.6 3.8 Q12.0 6.25 14.95 8.3 M8.55 3.05 L4.5 2.35 Q3.65 4.2 6.85 5.65 M4.5 2.35 L0.1 1.6 M10.9 6.9 Q7.95 5.0 8.55 3.05 L12.6 3.8 M72.9 58.75 L74.2 56.05 77.0 54.6 Q76.75 52.9 77.4 51.5 M70.0 65.15 L72.9 58.75 62.9 56.65 61.2 56.3 M77.0 54.6 L79.75 53.15 81.6 53.75 M54.75 51.15 L55.6 57.45 59.55 55.95 M51.6 58.95 L55.6 57.45 M53.65 82.6 L51.5 76.2 40.1 69.15 M49.1 84.85 L42.5 80.75 M49.1 79.8 L41.3 75.0 M49.1 95.0 L44.95 92.45 M58.75 89.25 L59.1 91.05 60.5 96.95 61.8 102.9 63.15 108.8 64.5 114.7 65.25 117.85 63.6 119.2 61.05 121.2 61.45 122.95 62.55 128.7 63.65 134.5 48.55 125.1 M58.75 89.25 L55.15 87.05 53.65 82.6 49.55 80.05 M59.1 91.05 L49.55 85.15 M60.5 96.95 L49.55 90.2 M49.1 89.95 L43.75 86.6 M73.4 83.65 Q75.15 83.1 77.1 83.1 83.4 83.1 88.45 88.7 93.5 94.3 94.3 102.25 94.95 108.7 92.55 113.6 L100.85 121.8 102.15 122.0 M64.85 93.05 Q65.65 90.75 67.0 88.7 69.65 84.85 73.4 83.65 L63.45 78.0 60.75 71.9 32.45 59.85 M73.0 118.55 Q71.35 117.4 69.85 115.7 65.55 110.9 64.35 104.45 L64.05 102.25 63.85 99.05 Q63.9 96.55 64.45 94.35 L64.85 93.05 58.75 89.25 M71.55 98.2 L78.85 98.2 M77.25 112.3 L78.15 110.4 73.7 110.4 75.4 106.35 70.65 106.35 72.35 102.3 69.55 102.3 71.55 98.2 69.7 98.2 71.8 94.2 M62.9 56.65 Q63.95 50.1 69.85 48.45 M78.15 110.4 L80.2 110.4 M72.35 102.3 L79.3 102.3 M75.4 106.35 L79.75 106.35 M49.1 105.15 L47.35 104.1 M55.05 113.9 L48.55 109.9 M55.05 119.0 L49.75 115.75 M86.8 152.35 Q84.55 152.1 82.6 150.45 L81.55 149.45 Q80.35 148.05 79.6 146.35 78.7 144.5 78.5 142.35 L78.5 142.3 Q78.25 140.1 78.65 138.25 79.1 136.5 80.1 135.05 L80.75 134.15 Q82.6 132.05 85.45 132.05 88.25 132.05 90.6 134.15 L91.45 135.05 Q92.75 136.5 93.55 138.25 94.35 140.1 94.6 142.3 L94.6 142.35 Q94.8 144.5 94.35 146.35 L93.0 149.45 92.15 150.45 Q90.35 152.4 87.6 152.4 L86.8 152.35 87.7 150.45 83.2 150.45 84.95 146.35 80.2 146.35 81.9 142.35 79.1 142.35 81.05 138.25 79.25 138.25 81.35 134.15 80.75 134.15 M73.0 118.55 L66.4 123.75 70.9 147.85 71.4 150.55 79.2 155.45 Q74.4 149.95 73.55 142.3 72.75 134.35 76.55 128.75 80.4 123.15 86.65 123.15 92.95 123.15 98.0 128.75 103.05 134.35 103.85 142.3 104.7 150.15 100.85 155.75 99.45 157.8 97.75 159.1 L99.7 162.75 105.4 163.35 110.3 157.2 105.75 136.75 110.15 134.05 108.6 127.75 107.4 122.7 102.95 122.1 M57.0 138.6 L66.55 146.7 70.9 147.85 M95.2 142.3 Q95.7 146.95 93.75 150.45 L93.2 151.3 Q90.6 155.05 86.4 155.05 82.25 155.05 78.85 151.3 75.45 147.55 74.9 142.3 74.35 136.9 76.95 133.15 79.45 129.4 83.7 129.4 87.9 129.4 91.3 133.15 L92.1 134.15 Q94.7 137.65 95.2 142.3 M63.6 119.2 L55.5 114.2 M61.45 122.95 L55.5 119.25 M64.5 114.7 L49.55 105.5 M63.15 108.8 L49.55 100.4 M62.55 128.7 L55.5 124.35 M55.05 124.15 L50.95 121.6 M77.4 171.75 L75.05 165.1 M90.55 161.35 Q84.4 161.25 79.4 155.75 L79.2 155.45 M73.35 171.75 L77.4 171.75 81.45 171.75 106.5 174.15 110.45 178.2 114.05 171.8 117.65 165.45 115.9 157.9 106.9 169.25 94.55 168.15 90.55 161.35 90.7 161.35 Q94.7 161.35 97.75 159.1 M70.15 174.85 L73.35 171.75 98.35 174.15 106.5 174.15 M154.8 124.95 L154.9 124.8 Q153.1 115.65 148.05 118.6 L147.95 120.7 M108.6 127.75 L124.6 135.95 127.3 148.1 M137.5 111.6 Q143.35 110.6 148.7 112.15 L190.4 137.15 M105.45 114.7 L111.9 118.6 118.85 115.6 M107.4 122.7 L105.45 114.7 98.95 110.7 94.5 93.0 111.5 105.2 M92.55 113.6 L91.3 115.7 Q87.45 121.3 81.2 121.3 76.75 121.3 73.0 118.55 M88.4 134.15 L90.6 134.15 M81.35 134.15 L87.95 134.15 M84.95 146.35 L89.3 146.35 M81.05 138.25 L88.4 138.25 M81.9 142.35 L88.85 142.35 M89.7 146.35 L94.35 146.35 M88.85 138.25 L93.55 138.25 M89.3 142.35 L94.6 142.35 M87.7 150.45 L89.75 150.45 M90.1 150.45 L92.15 150.45 M86.75 179.9 L92.9 180.5 104.0 191.5 106.5 202.85 103.75 205.9 Q109.15 212.4 112.8 223.95 114.65 229.8 116.05 237.0 L118.65 236.75 148.6 233.8 151.2 233.55 154.95 225.2 138.15 226.4 Q135.85 217.9 131.0 212.0 M110.45 178.2 L121.1 188.85 125.25 189.45 126.8 186.5 128.25 183.7 129.6 180.9 Q125.2 180.95 121.85 179.5 M113.0 188.85 L121.1 188.85 M114.05 171.8 Q116.65 176.95 121.15 179.25 M98.35 174.15 L113.0 188.85 136.35 192.45 144.5 192.45 140.8 191.9 132.5 190.6 125.25 189.45 M152.15 168.6 L152.35 168.85 Q146.2 168.7 146.6 163.9 L146.6 163.8 M145.7 163.0 L145.85 163.15 Q140.8 163.0 140.6 159.45 L136.85 161.2 179.85 201.4 217.5 201.4 M159.25 174.7 L159.45 175.05 Q152.6 174.85 153.05 169.5 L153.1 169.35 M140.6 159.45 L140.6 158.65 141.1 157.55 M127.5 149.15 L131.7 167.85 167.25 197.35 166.3 202.35 167.85 203.55 175.95 209.7 177.6 210.95 179.85 201.4 M138.25 181.1 L137.1 180.15 132.65 180.15 M132.65 183.7 L136.75 183.7 138.25 181.1 144.75 185.95 151.15 190.8 166.3 202.35 M137.1 180.15 L132.0 176.3 130.0 180.15 132.2 180.15 M129.6 180.9 L130.0 180.15 M132.5 190.6 L135.0 186.5 132.65 186.5 M128.25 183.7 L132.2 183.7 M126.8 186.5 L132.2 186.5 M135.0 186.5 L136.75 183.7 M148.0 195.95 L151.15 190.8 M144.5 192.45 L148.0 195.95 161.85 209.7 164.4 209.7 167.85 203.55 M140.8 191.9 L144.75 185.95 M115.9 157.9 L110.15 134.05 M128.8 113.5 L136.85 161.2 M132.0 176.3 L117.65 165.45 M81.75 27.0 L77.65 25.0 M74.2 56.05 L85.2 61.8 M77.5 51.2 Q78.5 49.1 81.25 47.55 M79.25 98.2 L84.0 98.2 M78.85 94.2 L81.0 94.2 M80.55 110.4 L82.6 110.4 M79.7 102.3 L85.05 102.3 M80.15 106.35 L84.8 106.35 M61.8 102.9 L49.55 95.35 M49.1 100.1 L46.1 98.25 M145.45 99.55 Q138.55 91.15 137.6 81.3 M66.95 177.95 L86.0 179.8 M145.5 242.9 L148.6 233.8 M145.5 242.9 L159.95 242.9 M159.1 215.85 L154.95 225.2 172.35 225.2 M125.4 245.85 L145.5 242.9 M103.45 218.35 Q103.45 221.8 101.25 224.25 99.0 226.75 95.9 226.75 92.75 226.75 90.55 224.25 88.35 221.8 88.35 218.35 88.35 214.85 90.55 212.4 92.75 209.9 95.9 209.9 99.0 209.9 101.25 212.4 103.45 214.85 103.45 218.35 M105.05 218.35 Q105.05 223.45 101.8 227.1 98.5 230.75 93.85 230.75 89.25 230.75 86.0 227.1 82.65 223.45 82.65 218.35 82.65 213.15 86.0 209.5 89.25 205.9 93.85 205.9 98.5 205.9 101.8 209.5 105.05 213.15 105.05 218.35 M84.65 229.65 Q81.85 225.9 81.25 221.1 L81.05 218.3 Q81.05 210.85 85.8 205.55 90.55 200.25 97.3 200.25 91.85 197.05 85.15 197.55 L78.75 200.05 79.15 207.05 79.4 211.5 79.65 216.15 76.75 218.55 M112.8 223.95 Q111.65 227.95 108.8 231.1 104.0 236.4 97.35 236.4 L94.8 236.15 M103.75 205.9 Q100.75 202.3 97.3 200.25 M113.0 188.85 L115.45 201.4 Q124.65 204.65 130.5 211.4 M118.65 236.75 L123.7 243.6 M74.05 208.75 L71.85 207.6 M69.2 197.75 L74.55 201.65 78.75 200.05 M79.15 207.05 L74.55 204.65 M74.05 213.15 L72.75 212.5 M79.65 216.15 L74.55 213.5 M74.05 204.4 L70.7 202.6 M79.4 211.5 L74.55 209.0 M164.4 209.7 L175.95 209.7 M177.6 210.95 L190.45 210.95 M173.15 225.2 L185.4 225.2 M162.4 27.0 L159.5 25.0 M167.3 181.65 Q159.65 181.5 160.15 175.55 M151.2 233.55 L165.75 233.55 M136.35 192.45 L159.1 215.85 191.05 215.85" fill="none" stroke="#000000" stroke-width="0.7" stroke-opacity="0.4"/>
  </g>
  <defs>
    <radialGradient cx="0" cy="0" gradientTransform="matrix(0.0154, 0.0, 0.0, 0.0154, 245.65, 87.4)" gradientUnits="userSpaceOnUse" id="gradient0" r="819.2" spreadMethod="pad">
      <stop offset="0.00392156862745098" stop-color="#ff0000"/>
      <stop offset="1.0" stop-color="#770000"/>
    </radialGradient>
    <linearGradient gradientTransform="matrix(-0.0044, 0.0099, -0.011, -0.0049, 167.15, 20.35)" gradientUnits="userSpaceOnUse" id="gradient1" spreadMethod="pad" x1="-819.2" x2="819.2">
      <stop offset="0.0" stop-color="#262626"/>
      <stop offset="0.47843137254901963" stop-color="#636363"/>
      <stop offset="1.0" stop-color="#333333"/>
    </linearGradient>
    <radialGradient cx="0" cy="0" gradientTransform="matrix(0.0204, 0.0, 0.0, 0.0204, 154.3, 31.8)" gradientUnits="userSpaceOnUse" id="gradient2" r="819.2" spreadMethod="pad">
      <stop offset="0.0" stop-color="#8c8c8c"/>
      <stop offset="1.0" stop-color="#333333"/>
    </radialGradient>
    <radialGradient cx="0" cy="0" gradientTransform="matrix(0.0066, 0.0, 0.0, 0.0066, 161.3, 29.9)" gradientUnits="userSpaceOnUse" id="gradient3" r="819.2" spreadMethod="pad">
      <stop offset="0.0" stop-color="#828282"/>
      <stop offset="1.0" stop-color="#333333"/>
    </radialGradient>
    <radialGradient cx="0" cy="0" gradientTransform="matrix(0.0051, 0.0, 0.0, 0.0051, 164.4, 30.55)" gradientUnits="userSpaceOnUse" id="gradient4" r="819.2" spreadMethod="pad">
      <stop offset="0.0" stop-color="#828282"/>
      <stop offset="1.0" stop-color="#333333"/>
    </radialGradient>
    <radialGradient cx="0" cy="0" gradientTransform="matrix(0.035, 0.0, 0.0, 0.035, 168.25, 36.4)" gradientUnits="userSpaceOnUse" id="gradient5" r="819.2" spreadMethod="pad">
      <stop offset="0.0" stop-color="#8c8c8c"/>
      <stop offset="1.0" stop-color="#333333"/>
    </radialGradient>
    <radialGradient cx="0" cy="0" gradientTransform="matrix(0.0425, 0.0, 0.0, 0.0425, 182.25, 42.25)" gradientUnits="userSpaceOnUse" id="gradient6" r="819.2" spreadMethod="pad">
      <stop offset="0.0" stop-color="#8c8c8c"/>
      <stop offset="1.0" stop-color="#333333"/>
    </radialGradient>
    <radialGradient cx="0" cy="0" gradientTransform="matrix(0.0402, 0.0, 0.0, 0.0402, 207.9, 55.6)" gradientUnits="userSpaceOnUse" id="gradient7" r="819.2" spreadMethod="pad">
      <stop offset="0.0" stop-color="#8c8c8c"/>
      <stop offset="1.0" stop-color="#333333"/>
    </radialGradient>
    <radialGradient cx="0" cy="0" gradientTransform="matrix(0.0304, 0.0, 0.0, 0.0304, 173.5, 89.4)" gradientUnits="userSpaceOnUse" id="gradient8" r="819.2" spreadMethod="pad">
      <stop offset="0.0" stop-color="#ff9900"/>
      <stop offset="0.1803921568627451" stop-color="#ff6600"/>
      <stop offset="0.36470588235294116" stop-color="#ff0000"/>
      <stop offset="1.0" stop-color="#770000"/>
    </radialGradient>
    <radialGradient cx="0" cy="0" gradientTransform="matrix(0.03, 0.0, 0.0, 0.03, 220.25, 74.75)" gradientUnits="userSpaceOnUse" id="gradient9" r="819.2" spreadMethod="pad">
      <stop offset="0.0" stop-color="#8c8c8c"/>
      <stop offset="1.0" stop-color="#333333"/>
    </radialGradient>
    <radialGradient cx="0" cy="0" gradientTransform="matrix(0.0402, 0.0, 0.0, 0.0402, 196.2, 48.4)" gradientUnits="userSpaceOnUse" id="gradient10" r="819.2" spreadMethod="pad">
      <stop offset="0.0" stop-color="#8c8c8c"/>
      <stop offset="1.0" stop-color="#333333"/>
    </radialGradient>
    <radialGradient cx="0" cy="0" gradientTransform="matrix(0.03, 0.0, 0.0, 0.03, 216.1, 65.95)" gradientUnits="userSpaceOnUse" id="gradient11" r="819.2" spreadMethod="pad">
      <stop offset="0.0" stop-color="#8c8c8c"/>
      <stop offset="1.0" stop-color="#333333"/>
    </radialGradient>
    <linearGradient gradientTransform="matrix(0.0872, 0.0, 0.0, 0.0395, 154.45, 89.4)" gradientUnits="userSpaceOnUse" id="gradient12" spreadMethod="pad" x1="-819.2" x2="819.2">
      <stop offset="0.0" stop-color="#3f3f3f"/>
      <stop offset="0.5254901960784314" stop-color="#727272"/>
      <stop offset="1.0" stop-color="#3f3f3f"/>
    </linearGradient>
    <radialGradient cx="0" cy="0" gradientTransform="matrix(0.0302, 0.0, 0.0, 0.0302, 225.2, 85.5)" gradientUnits="userSpaceOnUse" id="gradient13" r="819.2" spreadMethod="pad">
      <stop offset="0.0" stop-color="#8c8c8c"/>
      <stop offset="1.0" stop-color="#333333"/>
    </radialGradient>
    <radialGradient cx="0" cy="0" gradientTransform="matrix(0.0295, 0.0, 0.0, 0.0295, 228.45, 93.25)" gradientUnits="userSpaceOnUse" id="gradient14" r="819.2" spreadMethod="pad">
      <stop offset="0.0" stop-color="#8c8c8c"/>
      <stop offset="1.0" stop-color="#333333"/>
    </radialGradient>
    <radialGradient cx="0" cy="0" gradientTransform="matrix(0.0179, 0.0, 0.0, 0.0179, 233.3, 120.3)" gradientUnits="userSpaceOnUse" id="gradient15" r="819.2" spreadMethod="pad">
      <stop offset="0.0" stop-color="#910000"/>
      <stop offset="1.0" stop-color="#260000"/>
    </radialGradient>
    <radialGradient cx="0" cy="0" gradientTransform="matrix(0.0124, 0.0, 0.0, 0.0124, 232.5, 116.55)" gradientUnits="userSpaceOnUse" id="gradient16" r="819.2" spreadMethod="pad">
      <stop offset="0.0" stop-color="#910000"/>
      <stop offset="1.0" stop-color="#260000"/>
    </radialGradient>
    <radialGradient cx="0" cy="0" gradientTransform="matrix(0.0247, 0.0, 0.0, 0.0247, 233.95, 101.75)" gradientUnits="userSpaceOnUse" id="gradient17" r="819.2" spreadMethod="pad">
      <stop offset="0.0" stop-color="#8c8c8c"/>
      <stop offset="1.0" stop-color="#333333"/>
    </radialGradient>
    <radialGradient cx="0" cy="0" gradientTransform="matrix(0.0201, 0.0, 0.0, 0.0201, 236.55, 126.3)" gradientUnits="userSpaceOnUse" id="gradient18" r="819.2" spreadMethod="pad">
      <stop offset="0.0" stop-color="#910000"/>
      <stop offset="1.0" stop-color="#260000"/>
    </radialGradient>
    <radialGradient cx="0" cy="0" gradientTransform="matrix(0.0273, 0.0, 0.0, 0.0273, 235.3, 123.85)" gradientUnits="userSpaceOnUse" id="gradient19" r="819.2" spreadMethod="pad">
      <stop offset="0.0" stop-color="#910000"/>
      <stop offset="1.0" stop-color="#260000"/>
    </radialGradient>
    <radialGradient cx="0" cy="0" gradientTransform="matrix(0.0756, 0.0, 0.0, 0.0756, 192.95, 139.1)" gradientUnits="userSpaceOnUse" id="gradient20" r="819.2" spreadMethod="pad">
      <stop offset="0.0" stop-color="#4c4c4c"/>
      <stop offset="1.0" stop-color="#1e1e1e"/>
    </radialGradient>
    <radialGradient cx="0" cy="0" gradientTransform="matrix(0.1289, 0.0, 0.0, 0.1289, 137.05, 116.05)" gradientUnits="userSpaceOnUse" id="gradient21" r="819.2" spreadMethod="pad">
      <stop offset="0.0" stop-color="#ff6600"/>
      <stop offset="0.27450980392156865" stop-color="#ff0000"/>
      <stop offset="0.5372549019607843" stop-color="#770000"/>
      <stop offset="1.0" stop-color="#260000"/>
    </radialGradient>
    <radialGradient cx="0" cy="0" gradientTransform="matrix(0.071, 0.0, 0.0, 0.071, 181.25, 198.6)" gradientUnits="userSpaceOnUse" id="gradient22" r="819.2" spreadMethod="pad">
      <stop offset="0.0" stop-color="#4c4c4c"/>
      <stop offset="1.0" stop-color="#1e1e1e"/>
    </radialGradient>
    <radialGradient cx="0" cy="0" gradientTransform="matrix(0.0072, 0.0, 0.0, 0.0072, 149.2, 23.55)" gradientUnits="userSpaceOnUse" id="gradient23" r="819.2" spreadMethod="pad">
      <stop offset="0.0" stop-color="#828282"/>
      <stop offset="1.0" stop-color="#333333"/>
    </radialGradient>
    <linearGradient gradientTransform="matrix(-0.0033, 0.0087, -0.0102, -0.0039, 154.2, 13.95)" gradientUnits="userSpaceOnUse" id="gradient24" spreadMethod="pad" x1="-819.2" x2="819.2">
      <stop offset="0.0" stop-color="#262626"/>
      <stop offset="0.47843137254901963" stop-color="#636363"/>
      <stop offset="1.0" stop-color="#333333"/>
    </linearGradient>
    <radialGradient cx="0" cy="0" gradientTransform="matrix(0.0057, 0.0, 0.0, 0.0057, 154.95, 25.65)" gradientUnits="userSpaceOnUse" id="gradient25" r="819.2" spreadMethod="pad">
      <stop offset="0.0" stop-color="#828282"/>
      <stop offset="1.0" stop-color="#333333"/>
    </radialGradient>
    <radialGradient cx="0" cy="0" gradientTransform="matrix(0.007, 0.0, 0.0, 0.007, 152.3, 25.0)" gradientUnits="userSpaceOnUse" id="gradient26" r="819.2" spreadMethod="pad">
      <stop offset="0.0" stop-color="#828282"/>
      <stop offset="1.0" stop-color="#333333"/>
    </radialGradient>
    <radialGradient cx="0" cy="0" gradientTransform="matrix(0.01, 0.0, 0.0, 0.01, 142.95, 20.45)" gradientUnits="userSpaceOnUse" id="gradient27" r="819.2" spreadMethod="pad">
      <stop offset="0.0" stop-color="#828282"/>
      <stop offset="1.0" stop-color="#333333"/>
    </radialGradient>
    <linearGradient gradientTransform="matrix(-0.0018, 0.0073, -0.0129, -0.0032, 138.35, 8.25)" gradientUnits="userSpaceOnUse" id="gradient28" spreadMethod="pad" x1="-819.2" x2="819.2">
      <stop offset="0.0" stop-color="#262626"/>
      <stop offset="0.47843137254901963" stop-color="#636363"/>
      <stop offset="1.0" stop-color="#333333"/>
    </linearGradient>
    <radialGradient cx="0" cy="0" gradientTransform="matrix(0.0085, 0.0, 0.0, 0.0085, 145.55, 22.05)" gradientUnits="userSpaceOnUse" id="gradient29" r="819.2" spreadMethod="pad">
      <stop offset="0.0" stop-color="#828282"/>
      <stop offset="1.0" stop-color="#333333"/>
    </radialGradient>
    <radialGradient cx="0" cy="0" gradientTransform="matrix(0.0074, 0.0, 0.0, 0.0074, 134.75, 15.45)" gradientUnits="userSpaceOnUse" id="gradient30" r="819.2" spreadMethod="pad">
      <stop offset="0.0" stop-color="#828282"/>
      <stop offset="1.0" stop-color="#333333"/>
    </radialGradient>
    <radialGradient cx="0" cy="0" gradientTransform="matrix(0.0069, 0.0, 0.0, 0.0069, 123.1, 9.7)" gradientUnits="userSpaceOnUse" id="gradient31" r="819.2" spreadMethod="pad">
      <stop offset="0.0" stop-color="#828282"/>
      <stop offset="1.0" stop-color="#333333"/>
    </radialGradient>
    <linearGradient gradientTransform="matrix(-9.0E-4, 0.0047, -0.0151, -0.0029, 116.8, 2.35)" gradientUnits="userSpaceOnUse" id="gradient32" spreadMethod="pad" x1="-819.2" x2="819.2">
      <stop offset="0.0" stop-color="#262626"/>
      <stop offset="0.47843137254901963" stop-color="#636363"/>
      <stop offset="1.0" stop-color="#333333"/>
    </linearGradient>
    <radialGradient cx="0" cy="0" gradientTransform="matrix(0.0079, 0.0, 0.0, 0.0079, 128.75, 12.35)" gradientUnits="userSpaceOnUse" id="gradient33" r="819.2" spreadMethod="pad">
      <stop offset="0.0" stop-color="#828282"/>
      <stop offset="1.0" stop-color="#333333"/>
    </radialGradient>
    <radialGradient cx="0" cy="0" gradientTransform="matrix(0.0071, 0.0, 0.0, 0.0071, 126.35, 11.0)" gradientUnits="userSpaceOnUse" id="gradient34" r="819.2" spreadMethod="pad">
      <stop offset="0.0" stop-color="#828282"/>
      <stop offset="1.0" stop-color="#333333"/>
    </radialGradient>
    <radialGradient cx="0" cy="0" gradientTransform="matrix(0.0073, 0.0, 0.0, 0.0073, 132.2, 13.8)" gradientUnits="userSpaceOnUse" id="gradient35" r="819.2" spreadMethod="pad">
      <stop offset="0.0" stop-color="#828282"/>
      <stop offset="1.0" stop-color="#333333"/>
    </radialGradient>
    <radialGradient cx="0" cy="0" gradientTransform="matrix(0.0087, 0.0, 0.0, 0.0087, 140.45, 18.5)" gradientUnits="userSpaceOnUse" id="gradient36" r="819.2" spreadMethod="pad">
      <stop offset="0.0" stop-color="#828282"/>
      <stop offset="1.0" stop-color="#333333"/>
    </radialGradient>
    <radialGradient cx="0" cy="0" gradientTransform="matrix(0.0084, 0.0, 0.0, 0.0084, 137.2, 16.55)" gradientUnits="userSpaceOnUse" id="gradient37" r="819.2" spreadMethod="pad">
      <stop offset="0.0" stop-color="#828282"/>
      <stop offset="1.0" stop-color="#333333"/>
    </radialGradient>
    <radialGradient cx="0" cy="0" gradientTransform="matrix(0.0062, 0.0, 0.0, 0.0062, 120.65, 8.45)" gradientUnits="userSpaceOnUse" id="gradient38" r="819.2" spreadMethod="pad">
      <stop offset="0.0" stop-color="#828282"/>
      <stop offset="1.0" stop-color="#333333"/>
    </radialGradient>
    <radialGradient cx="0" cy="0" gradientTransform="matrix(0.0069, 0.0, 0.0, 0.0069, 158.65, 28.25)" gradientUnits="userSpaceOnUse" id="gradient39" r="819.2" spreadMethod="pad">
      <stop offset="0.0" stop-color="#828282"/>
      <stop offset="1.0" stop-color="#333333"/>
    </radialGradient>
    <radialGradient cx="0" cy="0" gradientTransform="matrix(0.006, 0.0, 0.0, 0.006, 114.3, 6.0)" gradientUnits="userSpaceOnUse" id="gradient40" r="819.2" spreadMethod="pad">
      <stop offset="0.0" stop-color="#828282"/>
      <stop offset="1.0" stop-color="#333333"/>
    </radialGradient>
    <radialGradient cx="0" cy="0" gradientTransform="matrix(0.0051, 0.0, 0.0, 0.0051, 112.05, 5.0)" gradientUnits="userSpaceOnUse" id="gradient41" r="819.2" spreadMethod="pad">
      <stop offset="0.0" stop-color="#828282"/>
      <stop offset="1.0" stop-color="#333333"/>
    </radialGradient>
    <radialGradient cx="0" cy="0" gradientTransform="matrix(0.006, 0.0, 0.0, 0.006, 117.4, 7.25)" gradientUnits="userSpaceOnUse" id="gradient42" r="819.2" spreadMethod="pad">
      <stop offset="0.0" stop-color="#828282"/>
      <stop offset="1.0" stop-color="#333333"/>
    </radialGradient>
    <radialGradient cx="0" cy="0" gradientTransform="matrix(0.0056, 0.0, 0.0, 0.0056, 108.3, 3.85)" gradientUnits="userSpaceOnUse" id="gradient43" r="819.2" spreadMethod="pad">
      <stop offset="0.0" stop-color="#828282"/>
      <stop offset="1.0" stop-color="#333333"/>
    </radialGradient>
    <radialGradient cx="0" cy="0" gradientTransform="matrix(0.0057, 0.0, 0.0, 0.0057, 105.05, 2.9)" gradientUnits="userSpaceOnUse" id="gradient44" r="819.2" spreadMethod="pad">
      <stop offset="0.0" stop-color="#828282"/>
      <stop offset="1.0" stop-color="#333333"/>
    </radialGradient>
    <radialGradient cx="0" cy="0" gradientTransform="matrix(0.0183, 0.0, 0.0, 0.0183, 86.35, 33.65)" gradientUnits="userSpaceOnUse" id="gradient45" r="819.2" spreadMethod="pad">
      <stop offset="0.0" stop-color="#828282"/>
      <stop offset="1.0" stop-color="#333333"/>
    </radialGradient>
    <linearGradient gradientTransform="matrix(0.0042, -0.0116, 0.0149, 0.0053, 92.35, 22.2)" gradientUnits="userSpaceOnUse" id="gradient46" spreadMethod="pad" x1="-819.2" x2="819.2">
      <stop offset="0.0" stop-color="#262626"/>
      <stop offset="0.47843137254901963" stop-color="#636363"/>
      <stop offset="1.0" stop-color="#333333"/>
    </linearGradient>
    <radialGradient cx="0" cy="0" gradientTransform="matrix(0.0187, 0.0, 0.0, 0.0187, 83.1, 31.5)" gradientUnits="userSpaceOnUse" id="gradient47" r="819.2" spreadMethod="pad">
      <stop offset="0.0" stop-color="#828282"/>
      <stop offset="1.0" stop-color="#333333"/>
    </radialGradient>
    <radialGradient cx="0" cy="0" gradientTransform="matrix(0.0183, 0.0, 0.0, 0.0183, 77.75, 29.55)" gradientUnits="userSpaceOnUse" id="gradient48" r="819.2" spreadMethod="pad">
      <stop offset="0.0" stop-color="#828282"/>
      <stop offset="1.0" stop-color="#333333"/>
    </radialGradient>
    <linearGradient gradientTransform="matrix(0.0, -0.0071, 0.0178, 0.0, 77.45, 52.9)" gradientUnits="userSpaceOnUse" id="gradient49" spreadMethod="pad" x1="-819.2" x2="819.2">
      <stop offset="0.0" stop-color="#333333"/>
      <stop offset="0.5254901960784314" stop-color="#636363"/>
      <stop offset="1.0" stop-color="#333333"/>
    </linearGradient>
    <radialGradient cx="0" cy="0" gradientTransform="matrix(0.0087, 0.0, 0.0, 0.0087, 91.7, 35.25)" gradientUnits="userSpaceOnUse" id="gradient50" r="819.2" spreadMethod="pad">
      <stop offset="0.0" stop-color="#828282"/>
      <stop offset="1.0" stop-color="#333333"/>
    </radialGradient>
    <radialGradient cx="0" cy="0" gradientTransform="matrix(0.0299, 0.0, 0.0, 0.0299, 79.85, 112.8)" gradientUnits="userSpaceOnUse" id="gradient51" r="819.2" spreadMethod="pad">
      <stop offset="0.0" stop-color="#7f7f7f"/>
      <stop offset="1.0" stop-color="#333333"/>
    </radialGradient>
    <radialGradient cx="0" cy="0" gradientTransform="matrix(0.0446, 0.0, 0.0, 0.0446, 69.4, 87.75)" gradientUnits="userSpaceOnUse" id="gradient52" r="819.2" spreadMethod="pad">
      <stop offset="0.0" stop-color="#7f7f7f"/>
      <stop offset="1.0" stop-color="#333333"/>
    </radialGradient>
    <radialGradient cx="0" cy="0" gradientTransform="matrix(0.0162, 0.0, 0.0, 0.0162, 71.4, 25.3)" gradientUnits="userSpaceOnUse" id="gradient53" r="819.2" spreadMethod="pad">
      <stop offset="0.0" stop-color="#828282"/>
      <stop offset="1.0" stop-color="#333333"/>
    </radialGradient>
    <linearGradient gradientTransform="matrix(-0.0032, 0.0098, -0.0147, -0.0048, 73.1, 14.65)" gradientUnits="userSpaceOnUse" id="gradient54" spreadMethod="pad" x1="-819.2" x2="819.2">
      <stop offset="0.0" stop-color="#262626"/>
      <stop offset="0.47843137254901963" stop-color="#636363"/>
      <stop offset="1.0" stop-color="#333333"/>
    </linearGradient>
    <radialGradient cx="0" cy="0" gradientTransform="matrix(0.0143, 0.0, 0.0, 0.0143, 62.6, 22.2)" gradientUnits="userSpaceOnUse" id="gradient55" r="819.2" spreadMethod="pad">
      <stop offset="0.0" stop-color="#828282"/>
      <stop offset="1.0" stop-color="#333333"/>
    </radialGradient>
    <radialGradient cx="0" cy="0" gradientTransform="matrix(0.015, 0.0, 0.0, 0.015, 66.8, 24.05)" gradientUnits="userSpaceOnUse" id="gradient56" r="819.2" spreadMethod="pad">
      <stop offset="0.0" stop-color="#828282"/>
      <stop offset="1.0" stop-color="#333333"/>
    </radialGradient>
    <radialGradient cx="0" cy="0" gradientTransform="matrix(0.0124, 0.0, 0.0, 0.0124, 41.95, 13.1)" gradientUnits="userSpaceOnUse" id="gradient57" r="819.2" spreadMethod="pad">
      <stop offset="0.0" stop-color="#828282"/>
      <stop offset="1.0" stop-color="#333333"/>
    </radialGradient>
    <linearGradient gradientTransform="matrix(-0.0016, 0.0077, -0.018, -0.0037, 48.35, 8.1)" gradientUnits="userSpaceOnUse" id="gradient58" spreadMethod="pad" x1="-819.2" x2="819.2">
      <stop offset="0.0" stop-color="#262626"/>
      <stop offset="0.47843137254901963" stop-color="#636363"/>
      <stop offset="1.0" stop-color="#333333"/>
    </linearGradient>
    <radialGradient cx="0" cy="0" gradientTransform="matrix(0.0139, 0.0, 0.0, 0.0139, 53.95, 18.2)" gradientUnits="userSpaceOnUse" id="gradient59" r="819.2" spreadMethod="pad">
      <stop offset="0.0" stop-color="#828282"/>
      <stop offset="1.0" stop-color="#333333"/>
    </radialGradient>
    <radialGradient cx="0" cy="0" gradientTransform="matrix(0.0143, 0.0, 0.0, 0.0143, 58.4, 19.95)" gradientUnits="userSpaceOnUse" id="gradient60" r="819.2" spreadMethod="pad">
      <stop offset="0.0" stop-color="#828282"/>
      <stop offset="1.0" stop-color="#333333"/>
    </radialGradient>
    <radialGradient cx="0" cy="0" gradientTransform="matrix(0.0124, 0.0, 0.0, 0.0124, 46.35, 14.95)" gradientUnits="userSpaceOnUse" id="gradient61" r="819.2" spreadMethod="pad">
      <stop offset="0.0" stop-color="#828282"/>
      <stop offset="1.0" stop-color="#333333"/>
    </radialGradient>
    <radialGradient cx="0" cy="0" gradientTransform="matrix(0.0136, 0.0, 0.0, 0.0136, 49.95, 16.2)" gradientUnits="userSpaceOnUse" id="gradient62" r="819.2" spreadMethod="pad">
      <stop offset="0.0" stop-color="#828282"/>
      <stop offset="1.0" stop-color="#333333"/>
    </radialGradient>
    <radialGradient cx="0" cy="0" gradientTransform="matrix(0.0118, 0.0, 0.0, 0.0118, 37.75, 11.85)" gradientUnits="userSpaceOnUse" id="gradient63" r="819.2" spreadMethod="pad">
      <stop offset="0.0" stop-color="#828282"/>
      <stop offset="1.0" stop-color="#333333"/>
    </radialGradient>
    <radialGradient cx="0" cy="0" gradientTransform="matrix(0.0175, 0.0, 0.0, 0.0175, 74.3, 27.3)" gradientUnits="userSpaceOnUse" id="gradient64" r="819.2" spreadMethod="pad">
      <stop offset="0.0" stop-color="#828282"/>
      <stop offset="1.0" stop-color="#333333"/>
    </radialGradient>
    <linearGradient gradientTransform="matrix(-7.0E-4, 0.0048, -0.0211, -0.0031, 17.6, 2.15)" gradientUnits="userSpaceOnUse" id="gradient65" spreadMethod="pad" x1="-819.2" x2="819.2">
      <stop offset="0.0" stop-color="#262626"/>
      <stop offset="0.47843137254901963" stop-color="#636363"/>
      <stop offset="1.0" stop-color="#333333"/>
    </linearGradient>
    <radialGradient cx="0" cy="0" gradientTransform="matrix(0.011, 0.0, 0.0, 0.011, 34.0, 10.55)" gradientUnits="userSpaceOnUse" id="gradient66" r="819.2" spreadMethod="pad">
      <stop offset="0.0" stop-color="#828282"/>
      <stop offset="1.0" stop-color="#333333"/>
    </radialGradient>
    <radialGradient cx="0" cy="0" gradientTransform="matrix(0.0087, 0.0, 0.0, 0.0087, 27.0, 8.6)" gradientUnits="userSpaceOnUse" id="gradient67" r="819.2" spreadMethod="pad">
      <stop offset="0.0" stop-color="#828282"/>
      <stop offset="1.0" stop-color="#333333"/>
    </radialGradient>
    <radialGradient cx="0" cy="0" gradientTransform="matrix(0.0082, 0.0, 0.0, 0.0082, 18.55, 6.15)" gradientUnits="userSpaceOnUse" id="gradient68" r="819.2" spreadMethod="pad">
      <stop offset="0.0" stop-color="#828282"/>
      <stop offset="1.0" stop-color="#333333"/>
    </radialGradient>
    <radialGradient cx="0" cy="0" gradientTransform="matrix(0.0089, 0.0, 0.0, 0.0089, 21.95, 7.45)" gradientUnits="userSpaceOnUse" id="gradient69" r="819.2" spreadMethod="pad">
      <stop offset="0.0" stop-color="#828282"/>
      <stop offset="1.0" stop-color="#333333"/>
    </radialGradient>
    <radialGradient cx="0" cy="0" gradientTransform="matrix(0.0106, 0.0, 0.0, 0.0106, 30.1, 9.1)" gradientUnits="userSpaceOnUse" id="gradient70" r="819.2" spreadMethod="pad">
      <stop offset="0.0" stop-color="#828282"/>
      <stop offset="1.0" stop-color="#333333"/>
    </radialGradient>
    <radialGradient cx="0" cy="0" gradientTransform="matrix(0.0069, 0.0, 0.0, 0.0069, 14.95, 5.65)" gradientUnits="userSpaceOnUse" id="gradient71" r="819.2" spreadMethod="pad">
      <stop offset="0.0" stop-color="#828282"/>
      <stop offset="1.0" stop-color="#333333"/>
    </radialGradient>
    <radialGradient cx="0" cy="0" gradientTransform="matrix(0.0065, 0.0, 0.0, 0.0065, 10.9, 4.7)" gradientUnits="userSpaceOnUse" id="gradient72" r="819.2" spreadMethod="pad">
      <stop offset="0.0" stop-color="#828282"/>
      <stop offset="1.0" stop-color="#333333"/>
    </radialGradient>
    <radialGradient cx="0" cy="0" gradientTransform="matrix(0.0066, 0.0, 0.0, 0.0066, 2.1, 2.9)" gradientUnits="userSpaceOnUse" id="gradient73" r="819.2" spreadMethod="pad">
      <stop offset="0.0" stop-color="#828282"/>
      <stop offset="1.0" stop-color="#333333"/>
    </radialGradient>
    <radialGradient cx="0" cy="0" gradientTransform="matrix(0.0077, 0.0, 0.0, 0.0077, 5.7, 3.2)" gradientUnits="userSpaceOnUse" id="gradient74" r="819.2" spreadMethod="pad">
      <stop offset="0.0" stop-color="#828282"/>
      <stop offset="1.0" stop-color="#333333"/>
    </radialGradient>
    <radialGradient cx="0" cy="0" gradientTransform="matrix(0.0305, 0.0, 0.0, 0.0305, 89.25, 153.45)" gradientUnits="userSpaceOnUse" id="gradient75" r="819.2" spreadMethod="pad">
      <stop offset="0.0" stop-color="#7f7f7f"/>
      <stop offset="1.0" stop-color="#333333"/>
    </radialGradient>
    <radialGradient cx="0" cy="0" gradientTransform="matrix(0.045, 0.0, 0.0, 0.045, 77.25, 128.75)" gradientUnits="userSpaceOnUse" id="gradient76" r="819.2" spreadMethod="pad">
      <stop offset="0.0" stop-color="#7f7f7f"/>
      <stop offset="1.0" stop-color="#333333"/>
    </radialGradient>
    <linearGradient gradientTransform="matrix(0.0098, 0.0057, -0.0056, 0.0098, 121.05, 178.05)" gradientUnits="userSpaceOnUse" id="gradient77" spreadMethod="pad" x1="-819.2" x2="819.2">
      <stop offset="0.0" stop-color="#333333"/>
      <stop offset="0.5254901960784314" stop-color="#636363"/>
      <stop offset="1.0" stop-color="#333333"/>
    </linearGradient>
    <linearGradient gradientTransform="matrix(0.0112, 0.0063, -0.0033, 0.0059, 157.3, 200.65)" gradientUnits="userSpaceOnUse" id="gradient78" spreadMethod="pad" x1="-819.2" x2="819.2">
      <stop offset="0.0" stop-color="#333333"/>
      <stop offset="0.5254901960784314" stop-color="#636363"/>
      <stop offset="1.0" stop-color="#333333"/>
    </linearGradient>
    <radialGradient cx="0" cy="0" gradientTransform="matrix(0.0394, 0.0, 0.0, 0.0394, 88.6, 206.45)" gradientUnits="userSpaceOnUse" id="gradient79" r="819.2" spreadMethod="pad">
      <stop offset="0.0" stop-color="#7f7f7f"/>
      <stop offset="1.0" stop-color="#333333"/>
    </radialGradient>
    <radialGradient cx="0" cy="0" gradientTransform="matrix(0.0283, 0.0, 0.0, 0.0283, 99.7, 227.6)" gradientUnits="userSpaceOnUse" id="gradient80" r="819.2" spreadMethod="pad">
      <stop offset="0.0" stop-color="#7f7f7f"/>
      <stop offset="1.0" stop-color="#333333"/>
    </radialGradient>
    <radialGradient cx="0" cy="0" gradientTransform="matrix(0.0177, 0.0, 0.0, 0.0177, 102.45, 217.5)" gradientUnits="userSpaceOnUse" id="gradient81" r="819.2" spreadMethod="pad">
      <stop offset="0.0" stop-color="#910000"/>
      <stop offset="1.0" stop-color="#260000"/>
    </radialGradient>
    <linearGradient gradientTransform="matrix(0.0123, -0.0015, 0.0031, 0.0255, 202.55, 164.7)" gradientUnits="userSpaceOnUse" id="gradient82" spreadMethod="pad" x1="-819.2" x2="819.2">
      <stop offset="0.0" stop-color="#333333"/>
      <stop offset="0.396078431372549" stop-color="#757575"/>
      <stop offset="1.0" stop-color="#282828"/>
    </linearGradient>
    <linearGradient gradientTransform="matrix(-0.0096, -8.0E-4, 0.002, -0.0254, 244.45, 164.85)" gradientUnits="userSpaceOnUse" id="gradient83" spreadMethod="pad" x1="-819.2" x2="819.2">
      <stop offset="0.0" stop-color="#333333"/>
      <stop offset="0.396078431372549" stop-color="#757575"/>
      <stop offset="1.0" stop-color="#282828"/>
    </linearGradient>
    <linearGradient gradientTransform="matrix(-0.006, -5.0E-4, 6.0E-4, -0.0081, 216.75, 157.05)" gradientUnits="userSpaceOnUse" id="gradient84" spreadMethod="pad" x1="-819.2" x2="819.2">
      <stop offset="0.0" stop-color="#333333"/>
      <stop offset="0.396078431372549" stop-color="#757575"/>
      <stop offset="1.0" stop-color="#282828"/>
    </linearGradient>
    <linearGradient gradientTransform="matrix(-0.0052, -4.0E-4, 6.0E-4, -0.0081, 225.65, 157.1)" gradientUnits="userSpaceOnUse" id="gradient85" spreadMethod="pad" x1="-819.2" x2="819.2">
      <stop offset="0.0" stop-color="#333333"/>
      <stop offset="0.396078431372549" stop-color="#757575"/>
      <stop offset="1.0" stop-color="#282828"/>
    </linearGradient>
    <linearGradient gradientTransform="matrix(-0.0049, -3.0E-4, 6.0E-4, -0.0081, 233.55, 157.05)" gradientUnits="userSpaceOnUse" id="gradient86" spreadMethod="pad" x1="-819.2" x2="819.2">
      <stop offset="0.0" stop-color="#333333"/>
      <stop offset="0.396078431372549" stop-color="#757575"/>
      <stop offset="1.0" stop-color="#282828"/>
    </linearGradient>
    <linearGradient gradientTransform="matrix(-0.0056, 4.0E-4, -0.0012, -0.0157, 181.8, 147.5)" gradientUnits="userSpaceOnUse" id="gradient87" spreadMethod="pad" x1="-819.2" x2="819.2">
      <stop offset="0.0" stop-color="#333333"/>
      <stop offset="0.396078431372549" stop-color="#757575"/>
      <stop offset="1.0" stop-color="#282828"/>
    </linearGradient>
    <linearGradient gradientTransform="matrix(-0.005, 4.0E-4, -0.0011, -0.0141, 171.15, 140.3)" gradientUnits="userSpaceOnUse" id="gradient88" spreadMethod="pad" x1="-819.2" x2="819.2">
      <stop offset="0.0" stop-color="#333333"/>
      <stop offset="0.396078431372549" stop-color="#757575"/>
      <stop offset="1.0" stop-color="#282828"/>
    </linearGradient>
    <linearGradient gradientTransform="matrix(-0.0045, 3.0E-4, -9.0E-4, -0.0126, 160.85, 133.2)" gradientUnits="userSpaceOnUse" id="gradient89" spreadMethod="pad" x1="-819.2" x2="819.2">
      <stop offset="0.0" stop-color="#333333"/>
      <stop offset="0.396078431372549" stop-color="#757575"/>
      <stop offset="1.0" stop-color="#282828"/>
    </linearGradient>
    <linearGradient gradientTransform="matrix(-0.0041, 3.0E-4, -7.0E-4, -0.0114, 151.65, 127.1)" gradientUnits="userSpaceOnUse" id="gradient90" spreadMethod="pad" x1="-819.2" x2="819.2">
      <stop offset="0.0" stop-color="#333333"/>
      <stop offset="0.396078431372549" stop-color="#757575"/>
      <stop offset="1.0" stop-color="#282828"/>
    </linearGradient>
    <linearGradient gradientTransform="matrix(-0.0077, 4.0E-4, -8.0E-4, -0.0154, 182.9, 185.55)" gradientUnits="userSpaceOnUse" id="gradient91" spreadMethod="pad" x1="-819.2" x2="819.2">
      <stop offset="0.0" stop-color="#333333"/>
      <stop offset="0.396078431372549" stop-color="#757575"/>
      <stop offset="1.0" stop-color="#282828"/>
    </linearGradient>
    <linearGradient gradientTransform="matrix(-0.0065, -3.0E-4, 6.0E-4, -0.0154, 211.0, 185.55)" gradientUnits="userSpaceOnUse" id="gradient92" spreadMethod="pad" x1="-819.2" x2="819.2">
      <stop offset="0.0" stop-color="#333333"/>
      <stop offset="0.396078431372549" stop-color="#757575"/>
      <stop offset="1.0" stop-color="#282828"/>
    </linearGradient>
    <linearGradient gradientTransform="matrix(-0.0039, -2.0E-4, 2.0E-4, -0.006, 201.8, 193.2)" gradientUnits="userSpaceOnUse" id="gradient93" spreadMethod="pad" x1="-819.2" x2="819.2">
      <stop offset="0.0" stop-color="#333333"/>
      <stop offset="0.396078431372549" stop-color="#757575"/>
      <stop offset="1.0" stop-color="#282828"/>
    </linearGradient>
    <linearGradient gradientTransform="matrix(-0.0045, -2.0E-4, 2.0E-4, -0.006, 194.15, 193.25)" gradientUnits="userSpaceOnUse" id="gradient94" spreadMethod="pad" x1="-819.2" x2="819.2">
      <stop offset="0.0" stop-color="#333333"/>
      <stop offset="0.396078431372549" stop-color="#757575"/>
      <stop offset="1.0" stop-color="#282828"/>
    </linearGradient>
    <linearGradient gradientTransform="matrix(-0.0054, -0.0011, 0.0022, -0.0104, 173.05, 179.9)" gradientUnits="userSpaceOnUse" id="gradient95" spreadMethod="pad" x1="-819.2" x2="819.2">
      <stop offset="0.0" stop-color="#333333"/>
      <stop offset="0.396078431372549" stop-color="#757575"/>
      <stop offset="1.0" stop-color="#282828"/>
    </linearGradient>
    <linearGradient gradientTransform="matrix(-0.0049, -0.001, 0.002, -0.0094, 164.8, 173.4)" gradientUnits="userSpaceOnUse" id="gradient96" spreadMethod="pad" x1="-819.2" x2="819.2">
      <stop offset="0.0" stop-color="#333333"/>
      <stop offset="0.396078431372549" stop-color="#757575"/>
      <stop offset="1.0" stop-color="#282828"/>
    </linearGradient>
    <linearGradient gradientTransform="matrix(-0.0044, -9.0E-4, 0.0017, -0.0084, 157.2, 167.6)" gradientUnits="userSpaceOnUse" id="gradient97" spreadMethod="pad" x1="-819.2" x2="819.2">
      <stop offset="0.0" stop-color="#333333"/>
      <stop offset="0.396078431372549" stop-color="#757575"/>
      <stop offset="1.0" stop-color="#282828"/>
    </linearGradient>
    <linearGradient gradientTransform="matrix(-0.004, -8.0E-4, 0.0015, -0.0076, 150.3, 162.15)" gradientUnits="userSpaceOnUse" id="gradient98" spreadMethod="pad" x1="-819.2" x2="819.2">
      <stop offset="0.0" stop-color="#333333"/>
      <stop offset="0.396078431372549" stop-color="#757575"/>
      <stop offset="1.0" stop-color="#282828"/>
    </linearGradient>
    <linearGradient gradientTransform="matrix(-0.0036, -7.0E-4, 0.0014, -0.0068, 144.0, 157.1)" gradientUnits="userSpaceOnUse" id="gradient99" spreadMethod="pad" x1="-819.2" x2="819.2">
      <stop offset="0.0" stop-color="#333333"/>
      <stop offset="0.396078431372549" stop-color="#757575"/>
      <stop offset="1.0" stop-color="#282828"/>
    </linearGradient>
    <linearGradient gradientTransform="matrix(-0.0101, 0.0138, -0.0279, -0.0203, 198.55, 35.1)" gradientUnits="userSpaceOnUse" id="gradient100" spreadMethod="pad" x1="-819.2" x2="819.2">
      <stop offset="0.0" stop-color="#5e5e5e"/>
      <stop offset="0.41568627450980394" stop-color="#8c8c8c"/>
      <stop offset="1.0" stop-color="#333333"/>
    </linearGradient>
    <linearGradient gradientTransform="matrix(-0.0166, 0.0309, -0.038, -0.0204, 126.45, 47.4)" gradientUnits="userSpaceOnUse" id="gradient101" spreadMethod="pad" x1="-819.2" x2="819.2">
      <stop offset="0.0" stop-color="#353535"/>
      <stop offset="0.41568627450980394" stop-color="#8c8c8c"/>
      <stop offset="1.0" stop-color="#333333"/>
    </linearGradient>
  </defs>
</svg>
