<?xml version="1.0" encoding="UTF-8" standalone="no"?>
<svg xmlns:xlink="http://www.w3.org/1999/xlink" height="80.95px" width="163.9px" xmlns="http://www.w3.org/2000/svg">
  <g transform="matrix(1.0, 0.0, 0.0, 1.0, 0.05, 0.05)">
    <use height="80.95" transform="matrix(1.0, 0.0, 0.0, 1.0, -0.05, -0.05)" width="163.9" xlink:href="#sprite0"/>
    <use height="37.95" transform="matrix(1.0, 0.0, 0.0, 1.0, 14.9, 19.2)" width="75.55" xlink:href="#shape1"/>
  </g>
  <defs>
    <g id="sprite0" transform="matrix(1.0, 0.0, 0.0, 1.0, 0.05, 0.05)">
      <use height="80.95" transform="matrix(1.0, 0.0, 0.0, 1.0, -0.05, -0.05)" width="163.9" xlink:href="#shape0"/>
    </g>
    <g id="shape0" transform="matrix(1.0, 0.0, 0.0, 1.0, 0.05, 0.05)">
      <path d="M54.5 64.9 L53.25 64.9 33.75 64.9 33.75 42.55 38.65 39.8 41.25 39.8 52.5 39.8 52.5 44.5 52.5 48.6 41.85 48.6 38.45 52.3 38.45 56.85 52.5 56.85 52.5 61.95 52.5 62.7 54.5 64.9 M8.15 64.0 L2.35 59.85 2.35 58.9 2.2 55.15 2.1 51.4 1.9 47.65 1.85 43.95 1.7 40.15 1.65 37.65 7.9 39.8 6.85 41.95 4.05 40.95 6.85 41.95 Q6.2 43.5 5.85 45.25 5.45 46.95 5.4 48.85 L4.05 48.4 5.4 48.85 5.3 50.2 5.45 52.5 4.05 52.15 5.45 52.5 Q5.65 54.65 6.2 56.55 6.85 58.85 8.15 60.95 L4.05 59.55 8.15 60.95 9.25 62.5 9.25 62.6 8.15 64.0 M5.0 30.8 L7.05 27.3 10.1 26.85 12.25 21.4 16.45 20.3 16.45 20.8 21.6 23.8 15.95 24.95 15.55 25.85 13.65 29.75 5.0 30.8 M56.7 0.0 L59.75 0.0 54.5 4.65 54.5 8.5 51.6 8.5 51.6 4.65 56.7 0.0 M62.7 0.0 L65.65 0.0 60.45 4.65 60.45 8.5 57.45 8.5 57.45 4.65 62.7 0.0 M68.65 0.0 L71.55 0.0 66.45 4.65 66.45 8.5 63.4 8.5 63.4 4.65 68.65 0.0 M74.5 0.0 L77.5 0.0 72.3 4.65 72.3 8.5 69.35 8.5 69.35 4.65 74.5 0.0 M139.0 32.95 Q139.0 34.25 138.25 35.2 137.5 36.2 136.4 36.2 L136.3 36.2 Q135.6 36.2 135.05 35.7 L134.55 35.2 134.4 35.1 134.05 34.6 Q133.7 33.8 133.7 32.95 133.7 32.05 134.05 31.3 L134.4 30.8 134.55 30.6 135.05 30.2 Q135.6 29.7 136.3 29.7 L136.4 29.7 Q137.5 29.7 138.25 30.6 139.0 31.55 139.0 32.95 M134.55 44.8 Q134.75 44.55 135.05 44.35 135.6 43.95 136.3 43.9 L136.4 43.9 Q137.5 43.95 138.25 44.8 139.0 45.8 139.0 47.2 139.0 48.45 138.25 49.45 137.5 50.4 136.4 50.4 L136.3 50.4 135.05 49.95 134.55 49.45 134.4 49.3 134.1 48.85 Q133.7 48.05 133.7 47.2 133.7 46.25 134.05 45.55 L134.4 45.05 134.55 44.8 M159.75 29.7 Q160.85 29.7 161.6 30.6 162.35 31.55 162.35 32.95 162.35 34.25 161.6 35.2 160.85 36.2 159.75 36.2 L159.65 36.2 Q158.9 36.2 158.3 35.7 L157.8 35.2 157.7 35.1 157.4 34.6 Q157.1 33.8 157.1 32.95 157.1 32.05 157.4 31.3 L157.7 30.8 157.8 30.6 158.3 30.2 Q158.9 29.7 159.65 29.7 L159.75 29.7 M148.15 29.7 Q149.25 29.7 150.0 30.6 150.75 31.55 150.75 32.95 150.75 34.25 150.0 35.2 149.25 36.2 148.15 36.2 L148.05 36.2 Q147.3 36.2 146.7 35.7 L146.2 35.2 146.1 35.1 145.8 34.6 Q145.5 33.8 145.5 32.95 145.5 32.05 145.8 31.3 L146.1 30.8 146.2 30.6 146.7 30.2 Q147.3 29.7 148.05 29.7 L148.15 29.7 M150.0 44.8 Q150.75 45.8 150.75 47.2 150.75 48.45 150.0 49.45 149.25 50.4 148.15 50.4 L148.05 50.4 Q147.3 50.4 146.7 49.95 L146.2 49.45 146.1 49.3 145.8 48.85 Q145.5 48.05 145.5 47.2 145.5 46.25 145.8 45.55 L146.1 45.05 146.2 44.8 146.7 44.35 Q147.3 43.95 148.05 43.9 L148.15 43.9 Q149.25 43.95 150.0 44.8 M161.6 44.8 Q162.35 45.8 162.35 47.2 162.35 48.45 161.6 49.45 160.85 50.4 159.75 50.4 L159.65 50.4 Q158.9 50.4 158.3 49.95 L157.8 49.45 157.7 49.3 157.4 48.85 Q157.1 48.05 157.1 47.2 157.1 46.25 157.4 45.55 L157.7 45.05 157.8 44.8 158.3 44.35 Q158.9 43.95 159.65 43.9 L159.75 43.9 Q160.85 43.95 161.6 44.8 M81.2 8.25 L81.2 6.0 83.5 3.9 106.1 3.9 107.8 6.0 107.8 10.6 104.55 12.9 104.2 12.9 100.05 8.25 81.2 8.25 M90.4 35.9 L71.95 35.9 68.95 45.0 82.85 45.0 82.85 47.25 60.6 47.25 64.2 55.4 82.85 55.4 82.85 57.9 62.35 57.9 56.95 45.25 66.1 45.25 70.1 33.75 90.55 33.75 90.55 35.8 90.4 35.9 M159.75 58.1 Q160.85 58.2 161.6 59.05 162.35 60.0 162.35 61.3 162.35 62.7 161.6 63.7 160.85 64.6 159.75 64.6 L159.65 64.6 Q158.9 64.6 158.3 64.15 L157.8 63.7 157.7 63.45 157.45 63.05 Q157.1 62.3 157.1 61.3 157.1 60.5 157.4 59.75 L157.7 59.3 157.8 59.05 158.3 58.55 Q158.9 58.2 159.65 58.1 L159.75 58.1 M148.15 58.1 Q149.25 58.2 150.0 59.05 150.75 60.0 150.75 61.3 150.75 62.7 150.0 63.7 149.25 64.6 148.15 64.6 L148.05 64.6 Q147.3 64.6 146.7 64.15 L146.2 63.7 146.1 63.45 145.85 63.05 Q145.5 62.3 145.5 61.3 145.5 60.5 145.8 59.75 L146.1 59.3 146.2 59.05 146.7 58.55 Q147.3 58.2 148.05 58.1 L148.15 58.1 M136.3 58.1 L136.4 58.1 Q137.5 58.2 138.25 59.05 139.0 60.0 139.0 61.3 139.0 62.7 138.25 63.7 137.5 64.6 136.4 64.6 L136.3 64.6 135.05 64.15 134.55 63.7 134.4 63.45 134.1 63.05 Q133.7 62.3 133.7 61.3 133.7 60.5 134.05 59.75 L134.4 59.3 Q134.4 59.1 134.55 59.05 L135.05 58.55 136.3 58.1 M41.25 39.8 L41.25 41.7 36.25 44.5 36.25 58.25 39.0 61.6 39.0 64.15 39.0 61.6 36.25 58.25 36.25 44.5 41.25 41.7 41.25 39.8 M3.75 48.3 L1.9 47.65 3.75 48.3 M3.75 44.55 L1.85 43.95 3.75 44.55 M3.75 40.85 L1.7 40.15 3.75 40.85 M4.05 44.7 L5.85 45.25 4.05 44.7 M15.55 25.85 L10.1 26.85 15.55 25.85 M3.75 59.4 L2.35 58.9 3.75 59.4 M3.75 51.95 L2.1 51.4 3.75 51.95 M4.05 55.8 L6.2 56.55 4.05 55.8 M3.75 55.7 L2.2 55.15 3.75 55.7 M37.0 44.5 L52.5 44.5 37.0 44.5 M52.5 61.95 L42.0 61.95 38.45 56.85 42.0 61.95 52.5 61.95" fill="#333333" fill-rule="evenodd" stroke="none"/>
      <path d="M154.7 39.8 L154.7 40.4 151.3 40.4 Q150.1 40.5 149.05 41.1 148.0 40.45 146.7 40.4 L146.5 40.4 142.1 40.4 139.7 40.4 Q138.45 40.5 137.35 41.15 136.3 40.5 135.05 40.4 L134.85 40.4 134.75 40.4 128.0 40.4 Q125.8 40.5 124.2 42.4 L124.15 42.4 Q122.55 44.45 122.55 47.25 122.55 50.05 124.15 52.05 L124.2 52.15 Q125.8 53.95 128.0 54.05 L134.75 54.05 134.85 54.05 135.05 54.05 Q136.3 54.05 137.35 53.35 138.45 53.95 139.7 54.05 L142.1 54.05 146.5 54.05 146.7 54.05 Q147.95 54.0 149.0 53.4 L151.3 54.05 154.7 54.05 154.7 54.65 151.3 54.65 Q150.1 54.7 149.05 55.3 147.95 54.7 146.7 54.65 L146.5 54.65 142.1 54.65 139.7 54.65 Q138.45 54.7 137.35 55.35 136.3 54.65 135.05 54.65 L134.85 54.65 134.75 54.65 128.0 54.65 Q125.75 54.7 124.15 56.65 L124.15 56.7 Q122.55 58.65 122.55 61.5 122.55 64.3 124.15 66.25 125.75 68.2 128.0 68.25 L132.05 68.25 131.85 68.45 Q129.55 71.3 126.3 71.4 L126.0 71.4 Q122.85 71.2 120.5 68.45 118.15 65.6 118.15 61.6 118.15 57.55 120.5 54.65 L120.8 54.4 120.5 54.1 119.8 53.15 Q118.15 50.6 118.15 47.25 118.15 43.15 120.5 40.35 L120.8 40.1 120.5 39.8 Q118.15 36.9 118.15 32.9 118.15 28.85 120.5 26.0 122.85 23.25 126.0 23.1 L126.3 23.1 Q129.55 23.15 131.85 26.0 L132.0 26.2 128.0 26.2 Q125.75 26.3 124.15 28.2 122.55 30.2 122.55 33.0 122.55 35.8 124.15 37.75 L124.15 37.85 Q125.75 39.75 128.0 39.8 L134.1 39.8 134.85 39.8 135.05 39.8 Q136.3 39.8 137.35 39.1 138.45 39.8 139.7 39.8 L142.1 39.8 145.8 39.8 146.7 39.8 Q148.0 39.8 149.05 39.2 150.1 39.8 151.3 39.8 L154.7 39.8 M155.35 68.25 L155.2 68.45 Q154.1 69.8 152.8 70.55 L152.65 70.65 Q151.25 71.3 149.65 71.4 L149.5 71.4 149.4 71.4 Q146.25 71.2 144.05 68.65 L143.9 68.45 143.75 68.3 143.75 68.25 143.75 68.3 143.7 68.25 143.75 68.3 143.6 68.45 Q142.5 69.8 141.2 70.55 139.75 71.3 138.05 71.4 L137.9 71.4 137.8 71.4 Q134.55 71.2 132.3 68.45 L132.1 68.25 134.75 68.25 134.85 68.25 135.05 68.25 Q136.3 68.2 137.35 67.6 138.45 68.2 139.7 68.25 L143.7 68.25 143.75 68.25 146.5 68.25 146.7 68.25 Q147.95 68.2 149.0 67.65 150.05 68.2 151.3 68.25 L155.35 68.25 M16.45 20.3 L16.45 10.6 23.1 4.65 51.6 4.65 51.6 8.5 54.5 8.5 54.5 4.65 57.45 4.65 57.45 8.5 60.45 8.5 60.45 4.65 63.4 4.65 63.4 8.5 66.45 8.5 66.45 4.65 69.35 4.65 69.35 8.5 72.3 8.5 72.3 4.65 76.35 4.65 76.35 10.6 64.9 18.6 52.25 18.6 41.4 10.6 16.45 10.6 41.4 10.6 52.25 18.6 64.9 18.6 76.35 10.6 81.2 10.6 79.8 11.6 83.8 15.2 92.95 18.15 90.55 20.3 102.15 20.3 102.15 53.15 82.85 53.15 102.15 53.15 102.15 74.45 113.05 68.0 119.45 74.45 109.55 80.85 102.15 74.45 82.85 74.45 82.85 62.7 82.85 57.9 82.85 55.4 82.85 53.15 82.85 47.25 82.85 45.0 82.85 40.6 90.4 35.9 90.55 35.8 90.55 33.75 90.55 26.2 90.55 20.3 90.55 26.2 68.75 21.8 69.85 18.6 64.9 18.6 57.75 39.8 52.5 39.8 41.25 39.8 38.65 39.8 36.45 39.8 34.85 35.7 35.45 35.7 39.2 35.7 49.1 35.7 49.2 35.7 Q50.6 35.7 51.6 34.55 L52.3 33.25 52.6 31.7 52.3 30.15 51.6 28.95 Q50.6 27.75 49.2 27.75 L49.1 27.75 39.2 27.75 35.45 27.75 31.8 27.75 Q30.7 27.85 29.75 28.65 L21.6 23.8 16.45 20.8 16.45 20.3 M111.65 10.6 L107.95 12.9 104.55 12.9 107.8 10.6 111.65 10.6 M153.15 24.0 L153.4 24.15 153.55 24.25 Q154.55 24.95 155.35 26.0 L155.55 26.2 151.3 26.2 Q150.1 26.3 149.0 26.9 147.95 26.25 146.7 26.2 L146.5 26.2 143.9 26.2 144.1 26.0 Q146.35 23.25 149.7 23.1 L149.85 23.1 Q151.65 23.15 153.15 24.0 M132.1 26.2 L132.3 26.0 Q134.55 23.25 137.8 23.1 L137.9 23.1 138.05 23.1 Q140.1 23.15 141.75 24.25 142.75 24.95 143.55 26.0 L143.75 26.2 139.7 26.2 Q138.45 26.3 137.35 26.9 136.3 26.3 135.05 26.2 L134.85 26.2 134.75 26.2 132.1 26.2 M142.1 39.8 L142.1 40.4 142.1 39.8 M142.1 54.05 L142.1 54.65 142.1 54.05 M79.8 11.6 L69.85 18.6 79.8 11.6 M44.5 25.0 L44.6 25.0 Q46.0 25.0 47.0 23.85 L47.75 22.7 48.0 21.1 47.75 19.5 47.0 18.3 Q46.0 17.1 44.6 17.1 L44.55 17.1 34.65 17.1 30.95 17.1 27.2 17.1 Q25.9 17.2 24.95 18.3 24.0 19.45 24.0 21.1 24.0 22.7 24.95 23.85 25.9 25.0 27.2 25.0 L30.85 25.0 34.6 25.0 44.5 25.0 M52.5 48.6 L52.5 52.3 38.45 52.3 41.85 48.6 52.5 48.6" fill="#666666" fill-rule="evenodd" stroke="none"/>
      <path d="M109.55 80.85 L90.25 80.85 86.35 77.45 82.85 74.45 102.15 74.45 109.55 80.85 M26.65 73.7 L14.3 73.7 9.0 68.15 8.15 64.0 9.25 62.6 Q13.15 67.65 18.6 67.65 24.1 67.65 27.95 62.5 31.85 57.4 31.85 50.2 31.85 42.95 27.95 37.85 24.1 32.7 18.6 32.7 13.1 32.7 9.25 37.85 8.45 38.75 7.9 39.8 L1.65 37.65 0.0 37.05 0.0 31.4 5.0 30.8 13.65 29.75 15.55 25.85 15.95 24.95 21.6 23.8 29.75 28.65 29.6 28.95 Q28.55 30.15 28.55 31.7 28.55 33.35 29.6 34.55 30.45 35.65 31.8 35.7 L34.85 35.7 36.45 39.8 38.65 39.8 33.75 42.55 33.75 64.9 26.65 73.7 M90.55 26.2 L90.55 33.75 70.1 33.75 66.1 45.25 56.95 45.25 62.35 57.9 82.85 57.9 82.85 62.7 52.5 62.7 52.5 61.95 52.5 56.85 52.5 52.3 52.5 56.85 38.45 56.85 38.45 52.3 52.5 52.3 52.5 48.6 52.5 44.5 52.5 39.8 57.75 39.8 62.7 39.8 68.75 21.8 90.55 26.2 M11.5 34.25 L13.65 29.75 11.5 34.25" fill="#4c4c4c" fill-rule="evenodd" stroke="none"/>
      <path d="M23.1 4.65 L30.5 0.0 56.7 0.0 51.6 4.65 23.1 4.65 M59.75 0.0 L62.7 0.0 57.45 4.65 54.5 4.65 59.75 0.0 M65.65 0.0 L68.65 0.0 63.4 4.65 60.45 4.65 65.65 0.0 M71.55 0.0 L74.5 0.0 69.35 4.65 66.45 4.65 71.55 0.0 M77.5 0.0 L81.45 0.0 76.35 4.65 72.3 4.65 77.5 0.0 M107.95 12.9 L110.4 12.9 102.15 20.3 113.05 26.0 113.05 53.15 113.05 68.0 102.15 74.45 102.15 53.15 102.15 20.3 90.55 20.3 92.95 18.15 83.8 15.2 79.8 11.6 81.2 10.6 81.2 8.25 100.05 8.25 104.2 12.9 104.55 12.9 107.95 12.9 M104.2 12.9 L98.8 12.9 92.95 18.15 98.8 12.9 104.2 12.9 M102.15 53.15 L113.05 53.15 102.15 53.15 M69.85 18.6 L68.75 21.8 62.7 39.8 57.75 39.8 64.9 18.6 69.85 18.6" fill="#7f7f7f" fill-rule="evenodd" stroke="none"/>
      <path d="M152.65 70.65 L149.55 74.45 119.45 74.45 113.05 68.0 113.05 53.15 119.8 53.15 120.5 54.1 120.8 54.4 120.5 54.65 Q118.15 57.55 118.15 61.6 118.15 65.6 120.5 68.45 122.85 71.2 126.0 71.4 L126.3 71.4 Q129.55 71.3 131.85 68.45 L132.05 68.25 132.1 68.25 132.3 68.45 Q134.55 71.2 137.8 71.4 L137.9 71.4 138.05 71.4 Q139.75 71.3 141.2 70.55 142.5 69.8 143.6 68.45 L143.75 68.3 143.9 68.45 144.05 68.65 Q146.25 71.2 149.4 71.4 L149.5 71.4 149.65 71.4 Q151.25 71.3 152.65 70.65 M81.45 0.0 L107.6 0.0 111.65 4.65 111.65 10.6 107.8 10.6 107.8 6.0 106.1 3.9 83.5 3.9 81.2 6.0 81.2 8.25 81.2 10.6 76.35 10.6 76.35 4.65 81.45 0.0 M149.65 20.0 L153.15 24.0 Q151.65 23.15 149.85 23.1 L149.7 23.1 Q146.35 23.25 144.1 26.0 L143.9 26.2 143.75 26.2 143.55 26.0 Q142.75 24.95 141.75 24.25 140.1 23.15 138.05 23.1 L137.9 23.1 137.8 23.1 Q134.55 23.25 132.3 26.0 L132.1 26.2 132.0 26.2 131.85 26.0 Q129.55 23.15 126.3 23.1 L126.0 23.1 Q122.85 23.25 120.5 26.0 118.15 28.85 118.15 32.9 118.15 36.9 120.5 39.8 L120.8 40.1 120.5 40.35 Q118.15 43.15 118.15 47.25 118.15 50.6 119.8 53.15 L113.05 53.15 113.05 26.0 102.15 20.3 110.4 12.9 119.45 20.0 149.65 20.0 M119.45 20.0 L113.05 26.0 119.45 20.0" fill="#999999" fill-rule="evenodd" stroke="none"/>
      <path d="M45.85 19.3 Q46.45 19.3 46.9 19.8 L46.95 19.8 Q47.35 20.35 47.35 21.05 47.35 21.8 46.95 22.25 L46.9 22.35 Q46.45 22.8 45.85 22.8 45.25 22.8 44.8 22.25 L44.6 22.0 44.45 21.05 Q44.45 20.55 44.6 20.15 L44.8 19.8 Q45.25 19.3 45.85 19.3 M48.95 31.7 L49.15 30.8 49.45 30.45 Q49.85 29.95 50.4 29.95 L50.5 29.95 Q51.1 29.95 51.5 30.45 51.95 30.95 51.95 31.7 51.95 32.45 51.5 32.95 L50.5 33.5 50.4 33.5 Q49.85 33.45 49.45 32.95 L49.15 32.65 48.95 31.7" fill="#ff3300" fill-rule="evenodd" stroke="none"/>
      <path d="M53.25 64.9 L46.55 73.7 26.65 73.7 33.75 64.9 53.25 64.9" fill="#262626" fill-rule="evenodd" stroke="none"/>
      <path d="M86.35 77.45 L66.0 77.45 54.5 64.9 52.5 62.7 82.85 62.7 82.85 74.45 86.35 77.45" fill="#3f3f3f" fill-rule="evenodd" stroke="none"/>
      <path d="M110.4 12.9 L140.65 12.9 149.65 20.0 119.45 20.0 110.4 12.9" fill="#b2b2b2" fill-rule="evenodd" stroke="none"/>
      <path d="M149.55 74.45 L139.65 80.85 109.55 80.85 119.45 74.45 149.55 74.45" fill="#595959" fill-rule="evenodd" stroke="none"/>
      <path d="M158.1 26.2 L158.3 26.2 Q160.55 26.3 162.15 28.2 163.8 30.2 163.8 33.0 163.8 35.8 162.15 37.85 160.55 39.8 158.3 39.8 L157.3 39.8 Q156.5 39.8 155.7 39.1 L154.35 37.85 Q152.7 35.8 152.7 33.0 152.7 30.2 154.35 28.2 155.0 27.4 155.8 26.9 156.85 26.3 158.1 26.2 M159.75 29.7 L159.65 29.7 Q158.9 29.7 158.3 30.2 L157.8 30.6 157.7 30.8 157.4 31.3 Q157.1 32.05 157.1 32.95 157.1 33.8 157.4 34.6 L157.7 35.1 157.8 35.2 158.3 35.7 Q158.9 36.2 159.65 36.2 L159.75 36.2 Q160.85 36.2 161.6 35.2 162.35 34.25 162.35 32.95 162.35 31.55 161.6 30.6 160.85 29.7 159.75 29.7" fill="url(#gradient0)" fill-rule="evenodd" stroke="none"/>
      <path d="M158.1 40.4 L158.3 40.4 Q160.55 40.5 162.15 42.4 163.8 44.45 163.8 47.25 163.8 50.05 162.15 52.05 160.55 53.95 158.3 54.05 L158.1 54.05 Q156.85 53.95 155.75 53.35 155.2 53.0 154.7 52.45 L154.35 52.05 Q152.7 50.05 152.7 47.25 152.7 44.45 154.35 42.4 L154.7 42.0 Q155.2 41.5 155.75 41.15 156.85 40.5 158.1 40.4 M161.6 44.8 Q160.85 43.95 159.75 43.9 L159.65 43.9 Q158.9 43.95 158.3 44.35 L157.8 44.8 157.7 45.05 157.4 45.55 Q157.1 46.25 157.1 47.2 157.1 48.05 157.4 48.85 L157.7 49.3 157.8 49.45 158.3 49.95 Q158.9 50.4 159.65 50.4 L159.75 50.4 Q160.85 50.4 161.6 49.45 162.35 48.45 162.35 47.2 162.35 45.8 161.6 44.8" fill="url(#gradient1)" fill-rule="evenodd" stroke="none"/>
      <path d="M158.1 54.65 L158.3 54.65 Q160.55 54.7 162.15 56.65 163.8 58.65 163.8 61.5 163.8 64.3 162.15 66.25 160.55 68.2 158.3 68.25 L158.1 68.25 Q156.85 68.2 155.8 67.6 155.0 67.1 154.35 66.25 152.7 64.3 152.7 61.5 152.7 58.65 154.35 56.65 154.95 55.8 155.7 55.45 156.8 54.7 158.1 54.65 M159.75 58.1 L159.65 58.1 Q158.9 58.2 158.3 58.55 L157.8 59.05 157.7 59.3 157.4 59.75 Q157.1 60.5 157.1 61.3 157.1 62.3 157.45 63.05 L157.7 63.45 157.8 63.7 158.3 64.15 Q158.9 64.6 159.65 64.6 L159.75 64.6 Q160.85 64.6 161.6 63.7 162.35 62.7 162.35 61.3 162.35 60.0 161.6 59.05 160.85 58.2 159.75 58.1" fill="url(#gradient2)" fill-rule="evenodd" stroke="none"/>
      <path d="M157.3 39.8 L154.7 39.8 151.3 39.8 Q150.1 39.8 149.05 39.2 L150.55 37.85 Q152.2 35.8 152.2 33.0 152.2 30.2 150.55 28.2 L149.0 26.9 Q150.1 26.3 151.3 26.2 L155.55 26.2 158.1 26.2 Q156.85 26.3 155.8 26.9 155.0 27.4 154.35 28.2 152.7 30.2 152.7 33.0 152.7 35.8 154.35 37.85 L155.7 39.1 Q156.5 39.8 157.3 39.8 M143.9 26.2 L146.5 26.2 Q145.25 26.3 144.2 26.9 143.4 27.4 142.75 28.2 141.1 30.2 141.1 33.0 141.1 35.8 142.75 37.85 L144.1 39.1 Q144.9 39.8 145.8 39.8 L142.1 39.8 139.7 39.8 Q138.45 39.8 137.35 39.1 L138.9 37.85 Q140.45 35.8 140.45 33.0 140.45 30.2 138.9 28.2 L137.35 26.9 Q138.45 26.3 139.7 26.2 L143.75 26.2 143.9 26.2" fill="url(#gradient3)" fill-rule="evenodd" stroke="none"/>
      <path d="M137.35 26.9 L138.9 28.2 Q140.45 30.2 140.45 33.0 140.45 35.8 138.9 37.85 L137.35 39.1 Q136.3 39.8 135.05 39.8 L134.85 39.8 134.1 39.8 Q133.15 39.8 132.35 39.1 L130.95 37.85 Q129.35 35.8 129.35 33.0 129.35 30.3 130.8 28.4 L130.95 28.2 132.45 26.9 Q133.5 26.3 134.75 26.2 L134.85 26.2 135.05 26.2 Q136.3 26.3 137.35 26.9 M139.0 32.95 Q139.0 31.55 138.25 30.6 137.5 29.7 136.4 29.7 L136.3 29.7 Q135.6 29.7 135.05 30.2 L134.55 30.6 134.4 30.8 134.05 31.3 Q133.7 32.05 133.7 32.95 133.7 33.8 134.05 34.6 L134.4 35.1 134.55 35.2 135.05 35.7 Q135.6 36.2 136.3 36.2 L136.4 36.2 Q137.5 36.2 138.25 35.2 139.0 34.25 139.0 32.95" fill="url(#gradient4)" fill-rule="evenodd" stroke="none"/>
      <path d="M132.0 26.2 L132.1 26.2 134.75 26.2 Q133.5 26.3 132.45 26.9 L130.95 28.2 130.8 28.4 Q129.35 30.3 129.35 33.0 129.35 35.8 130.95 37.85 L132.35 39.1 Q133.15 39.8 134.1 39.8 L128.0 39.8 Q125.75 39.75 124.15 37.85 L124.15 37.75 Q122.55 35.8 122.55 33.0 122.55 30.2 124.15 28.2 125.75 26.3 128.0 26.2 L132.0 26.2" fill="url(#gradient5)" fill-rule="evenodd" stroke="none"/>
      <path d="M134.75 54.05 L128.0 54.05 Q125.8 53.95 124.2 52.15 L124.15 52.05 Q122.55 50.05 122.55 47.25 122.55 44.45 124.15 42.4 L124.2 42.4 Q125.8 40.5 128.0 40.4 L134.75 40.4 Q133.5 40.5 132.4 41.15 L130.95 42.4 Q129.35 44.45 129.35 47.25 129.35 50.05 130.95 52.05 L132.4 53.35 Q133.5 53.95 134.75 54.05" fill="url(#gradient6)" fill-rule="evenodd" stroke="none"/>
      <path d="M134.75 54.05 Q133.5 53.95 132.4 53.35 L130.95 52.05 Q129.35 50.05 129.35 47.25 129.35 44.45 130.95 42.4 L132.4 41.15 Q133.5 40.5 134.75 40.4 L134.85 40.4 135.05 40.4 Q136.3 40.5 137.35 41.15 L138.9 42.4 Q140.45 44.45 140.45 47.25 140.45 50.05 138.9 52.05 L137.35 53.35 Q136.3 54.05 135.05 54.05 L134.85 54.05 134.75 54.05 M134.55 44.8 L134.4 45.05 134.05 45.55 Q133.7 46.25 133.7 47.2 133.7 48.05 134.1 48.85 L134.4 49.3 134.55 49.45 135.05 49.95 136.3 50.4 136.4 50.4 Q137.5 50.4 138.25 49.45 139.0 48.45 139.0 47.2 139.0 45.8 138.25 44.8 137.5 43.95 136.4 43.9 L136.3 43.9 Q135.6 43.95 135.05 44.35 134.75 44.55 134.55 44.8" fill="url(#gradient7)" fill-rule="evenodd" stroke="none"/>
      <path d="M154.7 40.4 L158.1 40.4 Q156.85 40.5 155.75 41.15 155.2 41.5 154.7 42.0 L154.35 42.4 Q152.7 44.45 152.7 47.25 152.7 50.05 154.35 52.05 L154.7 52.45 Q155.2 53.0 155.75 53.35 156.85 53.95 158.1 54.05 L154.7 54.05 151.3 54.05 149.0 53.4 150.55 52.05 Q152.2 50.05 152.2 47.25 152.2 44.45 150.55 42.4 L149.05 41.1 Q150.1 40.5 151.3 40.4 L154.7 40.4 M137.35 41.15 Q138.45 40.5 139.7 40.4 L142.1 40.4 146.5 40.4 Q145.25 40.5 144.15 41.15 143.4 41.6 142.75 42.4 141.1 44.45 141.1 47.25 141.1 50.05 142.75 52.05 L144.15 53.35 Q145.25 53.95 146.5 54.05 L142.1 54.05 139.7 54.05 Q138.45 53.95 137.35 53.35 L138.9 52.05 Q140.45 50.05 140.45 47.25 140.45 44.45 138.9 42.4 L137.35 41.15" fill="url(#gradient8)" fill-rule="evenodd" stroke="none"/>
      <path d="M146.5 26.2 L146.7 26.2 Q147.95 26.25 149.0 26.9 L150.55 28.2 Q152.2 30.2 152.2 33.0 152.2 35.8 150.55 37.85 L149.05 39.2 Q148.0 39.8 146.7 39.8 L145.8 39.8 Q144.9 39.8 144.1 39.1 L142.75 37.85 Q141.1 35.8 141.1 33.0 141.1 30.2 142.75 28.2 143.4 27.4 144.2 26.9 145.25 26.3 146.5 26.2 M148.15 29.7 L148.05 29.7 Q147.3 29.7 146.7 30.2 L146.2 30.6 146.1 30.8 145.8 31.3 Q145.5 32.05 145.5 32.95 145.5 33.8 145.8 34.6 L146.1 35.1 146.2 35.2 146.7 35.7 Q147.3 36.2 148.05 36.2 L148.15 36.2 Q149.25 36.2 150.0 35.2 150.75 34.25 150.75 32.95 150.75 31.55 150.0 30.6 149.25 29.7 148.15 29.7" fill="url(#gradient9)" fill-rule="evenodd" stroke="none"/>
      <path d="M146.5 54.05 Q145.25 53.95 144.15 53.35 L142.75 52.05 Q141.1 50.05 141.1 47.25 141.1 44.45 142.75 42.4 143.4 41.6 144.15 41.15 145.25 40.5 146.5 40.4 L146.7 40.4 Q148.0 40.45 149.05 41.1 L150.55 42.4 Q152.2 44.45 152.2 47.25 152.2 50.05 150.55 52.05 L149.0 53.4 Q147.95 54.0 146.7 54.05 L146.5 54.05 M150.0 44.8 Q149.25 43.95 148.15 43.9 L148.05 43.9 Q147.3 43.95 146.7 44.35 L146.2 44.8 146.1 45.05 145.8 45.55 Q145.5 46.25 145.5 47.2 145.5 48.05 145.8 48.85 L146.1 49.3 146.2 49.45 146.7 49.95 Q147.3 50.4 148.05 50.4 L148.15 50.4 Q149.25 50.4 150.0 49.45 150.75 48.45 150.75 47.2 150.75 45.8 150.0 44.8" fill="url(#gradient10)" fill-rule="evenodd" stroke="none"/>
      <path d="M154.7 54.65 L158.1 54.65 Q156.8 54.7 155.7 55.45 154.95 55.8 154.35 56.65 152.7 58.65 152.7 61.5 152.7 64.3 154.35 66.25 155.0 67.1 155.8 67.6 156.85 68.2 158.1 68.25 L155.35 68.25 151.3 68.25 Q150.05 68.2 149.0 67.65 L150.55 66.25 Q152.2 64.3 152.2 61.5 152.2 58.65 150.55 56.65 L149.05 55.3 Q150.1 54.7 151.3 54.65 L154.7 54.65 M137.35 55.35 Q138.45 54.7 139.7 54.65 L142.1 54.65 146.5 54.65 Q145.2 54.7 144.1 55.45 143.35 55.8 142.75 56.65 141.1 58.65 141.1 61.5 141.1 64.3 142.75 66.25 143.4 67.1 144.2 67.6 145.25 68.2 146.5 68.25 L143.75 68.25 143.7 68.25 139.7 68.25 Q138.45 68.2 137.35 67.6 L138.9 66.25 Q140.45 64.3 140.45 61.5 140.45 58.65 138.9 56.65 L137.35 55.35" fill="url(#gradient11)" fill-rule="evenodd" stroke="none"/>
      <path d="M149.05 55.3 L150.55 56.65 Q152.2 58.65 152.2 61.5 152.2 64.3 150.55 66.25 L149.0 67.65 Q147.95 68.2 146.7 68.25 L146.5 68.25 Q145.25 68.2 144.2 67.6 143.4 67.1 142.75 66.25 141.1 64.3 141.1 61.5 141.1 58.65 142.75 56.65 143.35 55.8 144.1 55.45 145.2 54.7 146.5 54.65 L146.7 54.65 Q147.95 54.7 149.05 55.3 M148.15 58.1 L148.05 58.1 Q147.3 58.2 146.7 58.55 L146.2 59.05 146.1 59.3 145.8 59.75 Q145.5 60.5 145.5 61.3 145.5 62.3 145.85 63.05 L146.1 63.45 146.2 63.7 146.7 64.15 Q147.3 64.6 148.05 64.6 L148.15 64.6 Q149.25 64.6 150.0 63.7 150.75 62.7 150.75 61.3 150.75 60.0 150.0 59.05 149.25 58.2 148.15 58.1" fill="url(#gradient12)" fill-rule="evenodd" stroke="none"/>
      <path d="M134.75 54.65 L134.85 54.65 135.05 54.65 Q136.3 54.65 137.35 55.35 L138.9 56.65 Q140.45 58.65 140.45 61.5 140.45 64.3 138.9 66.25 L137.35 67.6 Q136.3 68.2 135.05 68.25 L134.85 68.25 134.75 68.25 Q133.5 68.2 132.45 67.6 L130.95 66.25 130.8 66.05 Q129.35 64.15 129.35 61.5 129.35 58.65 130.95 56.65 131.65 55.8 132.4 55.45 133.45 54.7 134.75 54.65 M136.3 58.1 L135.05 58.55 134.55 59.05 Q134.4 59.1 134.4 59.3 L134.05 59.75 Q133.7 60.5 133.7 61.3 133.7 62.3 134.1 63.05 L134.4 63.45 134.55 63.7 135.05 64.15 136.3 64.6 136.4 64.6 Q137.5 64.6 138.25 63.7 139.0 62.7 139.0 61.3 139.0 60.0 138.25 59.05 137.5 58.2 136.4 58.1 L136.3 58.1" fill="url(#gradient13)" fill-rule="evenodd" stroke="none"/>
      <path d="M132.05 68.25 L128.0 68.25 Q125.75 68.2 124.15 66.25 122.55 64.3 122.55 61.5 122.55 58.65 124.15 56.7 L124.15 56.65 Q125.75 54.7 128.0 54.65 L134.75 54.65 Q133.45 54.7 132.4 55.45 131.65 55.8 130.95 56.65 129.35 58.65 129.35 61.5 129.35 64.15 130.8 66.05 L130.95 66.25 132.45 67.6 Q133.5 68.2 134.75 68.25 L132.1 68.25 132.05 68.25" fill="url(#gradient14)" fill-rule="evenodd" stroke="none"/>
      <path d="M44.55 17.1 L44.6 17.1 Q46.0 17.1 47.0 18.3 L47.75 19.5 48.0 21.1 47.75 22.7 47.0 23.85 Q46.0 25.0 44.6 25.0 L44.5 25.0 Q43.25 24.95 42.3 23.85 41.3 22.7 41.3 21.1 41.3 19.45 42.3 18.3 43.25 17.2 44.55 17.1 M45.85 19.3 Q45.25 19.3 44.8 19.8 L44.6 20.15 Q44.45 20.55 44.45 21.05 L44.6 22.0 44.8 22.25 Q45.25 22.8 45.85 22.8 46.45 22.8 46.9 22.35 L46.95 22.25 Q47.35 21.8 47.35 21.05 47.35 20.35 46.95 19.8 L46.9 19.8 Q46.45 19.3 45.85 19.3" fill="url(#gradient15)" fill-rule="evenodd" stroke="none"/>
      <path d="M44.5 25.0 L34.6 25.0 30.85 25.0 27.2 25.0 Q25.9 25.0 24.95 23.85 24.0 22.7 24.0 21.1 24.0 19.45 24.95 18.3 25.9 17.2 27.2 17.1 L30.95 17.1 34.65 17.1 44.55 17.1 Q43.25 17.2 42.3 18.3 41.3 19.45 41.3 21.1 41.3 22.7 42.3 23.85 43.25 24.95 44.5 25.0 M34.6 25.0 Q33.35 24.95 32.4 23.85 31.4 22.7 31.4 21.1 L31.5 20.3 Q31.8 19.05 32.4 18.3 33.35 17.2 34.65 17.1 33.35 17.2 32.4 18.3 31.8 19.05 31.5 20.3 L31.4 21.1 Q31.4 22.7 32.4 23.85 33.35 24.95 34.6 25.0 M30.95 17.1 Q29.65 17.2 28.65 18.3 28.05 19.05 27.75 20.3 L27.7 21.1 Q27.7 22.7 28.65 23.85 29.65 24.95 30.85 25.0 29.65 24.95 28.65 23.85 27.7 22.7 27.7 21.1 L27.75 20.3 Q28.05 19.05 28.65 18.3 29.65 17.2 30.95 17.1" fill="url(#gradient16)" fill-rule="evenodd" stroke="none"/>
      <path d="M49.1 27.75 L49.2 27.75 Q50.6 27.75 51.6 28.95 L52.3 30.15 52.6 31.7 52.3 33.25 51.6 34.55 Q50.6 35.7 49.2 35.7 L49.1 35.7 Q47.8 35.65 46.8 34.55 45.85 33.35 45.85 31.7 45.85 30.15 46.8 28.95 47.8 27.85 49.1 27.75 M48.95 31.7 L49.15 32.65 49.45 32.95 Q49.85 33.45 50.4 33.5 L50.5 33.5 51.5 32.95 Q51.95 32.45 51.95 31.7 51.95 30.95 51.5 30.45 51.1 29.95 50.5 29.95 L50.4 29.95 Q49.85 29.95 49.45 30.45 L49.15 30.8 48.95 31.7" fill="url(#gradient17)" fill-rule="evenodd" stroke="none"/>
      <path d="M49.1 35.7 L39.2 35.7 35.45 35.7 34.8 35.55 34.85 35.7 31.8 35.7 Q30.45 35.65 29.6 34.55 28.55 33.35 28.55 31.7 28.55 30.15 29.6 28.95 L29.75 28.65 Q30.7 27.85 31.8 27.75 L35.45 27.75 39.2 27.75 49.1 27.75 Q47.8 27.85 46.8 28.95 45.85 30.15 45.85 31.7 45.85 33.35 46.8 34.55 47.8 35.65 49.1 35.7 M39.2 35.7 Q37.9 35.65 36.9 34.55 35.95 33.35 35.95 31.7 L36.2 30.3 Q36.5 29.4 36.9 28.95 37.9 27.85 39.2 27.75 37.9 27.85 36.9 28.95 36.5 29.4 36.2 30.3 L35.95 31.7 Q35.95 33.35 36.9 34.55 37.9 35.65 39.2 35.7 M35.45 27.75 Q34.15 27.85 33.25 28.95 L32.45 30.3 32.25 31.7 Q32.25 33.35 33.25 34.55 33.9 35.35 34.8 35.55 33.9 35.35 33.25 34.55 32.25 33.35 32.25 31.7 L32.45 30.3 33.25 28.95 Q34.15 27.85 35.45 27.75" fill="url(#gradient18)" fill-rule="evenodd" stroke="none"/>
      <path d="M7.9 39.8 Q8.45 38.75 9.25 37.85 13.1 32.7 18.6 32.7 24.1 32.7 27.95 37.85 31.85 42.95 31.85 50.2 31.85 57.4 27.95 62.5 24.1 67.65 18.6 67.65 13.15 67.65 9.25 62.6 L9.25 62.5 8.15 60.95 Q6.85 58.85 6.2 56.55 5.65 54.65 5.45 52.5 L5.3 50.2 5.4 48.85 Q5.45 46.95 5.85 45.25 6.2 43.5 6.85 41.95 L7.9 39.8 M26.4 50.2 Q26.4 45.05 23.65 41.3 20.85 37.65 16.95 37.65 13.0 37.65 10.15 41.3 8.6 43.45 7.9 46.0 7.5 47.65 7.4 49.55 L7.4 50.2 Q7.4 51.85 7.7 53.35 8.3 56.55 10.15 59.0 13.0 62.7 16.95 62.7 20.85 62.7 23.65 59.0 26.4 55.35 26.4 50.2" fill="url(#gradient19)" fill-rule="evenodd" stroke="none"/>
      <path d="M25.1 50.4 Q25.1 47.65 23.65 45.7 22.15 43.7 20.0 43.7 17.95 43.7 16.45 45.7 14.9 47.65 14.9 50.4 14.9 53.25 16.45 55.15 17.95 57.15 20.0 57.15 22.15 57.15 23.65 55.15 25.1 53.25 25.1 50.4 M26.4 50.2 Q26.4 55.35 23.65 59.0 20.85 62.7 16.95 62.7 13.0 62.7 10.15 59.0 8.3 56.55 7.7 53.35 7.4 51.85 7.4 50.2 L7.4 49.55 Q7.5 47.65 7.9 46.0 8.6 43.45 10.15 41.3 13.0 37.65 16.95 37.65 20.85 37.65 23.65 41.3 26.4 45.05 26.4 50.2" fill="url(#gradient20)" fill-rule="evenodd" stroke="none"/>
      <path d="M25.1 50.4 Q25.1 53.25 23.65 55.15 22.15 57.15 20.0 57.15 17.95 57.15 16.45 55.15 14.9 53.25 14.9 50.4 14.9 47.65 16.45 45.7 17.95 43.7 20.0 43.7 22.15 43.7 23.65 45.7 25.1 47.65 25.1 50.4" fill="url(#gradient21)" fill-rule="evenodd" stroke="none"/>
      <path d="M82.85 47.25 L82.85 53.15 82.85 55.4 64.2 55.4 60.6 47.25 82.85 47.25" fill="url(#gradient22)" fill-rule="evenodd" stroke="none"/>
      <path d="M90.4 35.9 L82.85 40.6 82.85 45.0 68.95 45.0 71.95 35.9 90.4 35.9" fill="url(#gradient23)" fill-rule="evenodd" stroke="none"/>
      <path d="M158.1 26.2 L158.3 26.2 Q160.55 26.3 162.15 28.2 163.8 30.2 163.8 33.0 163.8 35.8 162.15 37.85 160.55 39.8 158.3 39.8 L157.3 39.8 154.7 39.8 154.7 40.4 158.1 40.4 158.3 40.4 Q160.55 40.5 162.15 42.4 163.8 44.45 163.8 47.25 163.8 50.05 162.15 52.05 160.55 53.95 158.3 54.05 L158.1 54.05 154.7 54.05 154.7 54.65 158.1 54.65 158.3 54.65 Q160.55 54.7 162.15 56.65 163.8 58.65 163.8 61.5 163.8 64.3 162.15 66.25 160.55 68.2 158.3 68.25 L158.1 68.25 155.35 68.25 155.2 68.45 Q154.1 69.8 152.8 70.55 L152.65 70.65 149.55 74.45 139.65 80.85 109.55 80.85 90.25 80.85 86.35 77.45 66.0 77.45 54.5 64.9 53.25 64.9 46.55 73.7 26.65 73.7 14.3 73.7 9.0 68.15 8.15 64.0 2.35 59.85 2.35 58.9 2.2 55.15 2.1 51.4 1.9 47.65 1.85 43.95 1.7 40.15 1.65 37.65 0.0 37.05 0.0 31.4 5.0 30.8 7.05 27.3 10.1 26.85 12.25 21.4 16.45 20.3 16.45 10.6 23.1 4.65 30.5 0.0 56.7 0.0 59.75 0.0 62.7 0.0 65.65 0.0 68.65 0.0 71.55 0.0 74.5 0.0 77.5 0.0 81.45 0.0 107.6 0.0 111.65 4.65 111.65 10.6 107.95 12.9 110.4 12.9 140.65 12.9 149.65 20.0 153.15 24.0 153.4 24.15 153.55 24.25 Q154.55 24.95 155.35 26.0 L155.55 26.2 158.1 26.2 Q156.85 26.3 155.8 26.9 155.0 27.4 154.35 28.2 152.7 30.2 152.7 33.0 152.7 35.8 154.35 37.85 L155.7 39.1 Q156.5 39.8 157.3 39.8 M153.15 24.0 Q151.65 23.15 149.85 23.1 L149.7 23.1 Q146.35 23.25 144.1 26.0 L143.9 26.2 146.5 26.2 146.7 26.2 Q147.95 26.25 149.0 26.9 150.1 26.3 151.3 26.2 L155.55 26.2 M119.8 53.15 Q118.15 50.6 118.15 47.25 118.15 43.15 120.5 40.35 L120.8 40.1 120.5 39.8 Q118.15 36.9 118.15 32.9 118.15 28.85 120.5 26.0 122.85 23.25 126.0 23.1 L126.3 23.1 Q129.55 23.15 131.85 26.0 L132.0 26.2 132.1 26.2 132.3 26.0 Q134.55 23.25 137.8 23.1 L137.9 23.1 138.05 23.1 Q140.1 23.15 141.75 24.25 142.75 24.95 143.55 26.0 L143.75 26.2 143.9 26.2 M137.35 26.9 Q138.45 26.3 139.7 26.2 L143.75 26.2 M137.35 26.9 L138.9 28.2 Q140.45 30.2 140.45 33.0 140.45 35.8 138.9 37.85 L137.35 39.1 Q138.45 39.8 139.7 39.8 L142.1 39.8 145.8 39.8 Q144.9 39.8 144.1 39.1 L142.75 37.85 Q141.1 35.8 141.1 33.0 141.1 30.2 142.75 28.2 143.4 27.4 144.2 26.9 145.25 26.3 146.5 26.2 M134.75 26.2 L134.85 26.2 135.05 26.2 Q136.3 26.3 137.35 26.9 M139.0 32.95 Q139.0 34.25 138.25 35.2 137.5 36.2 136.4 36.2 L136.3 36.2 Q135.6 36.2 135.05 35.7 L134.55 35.2 134.4 35.1 134.05 34.6 Q133.7 33.8 133.7 32.95 133.7 32.05 134.05 31.3 L134.4 30.8 134.55 30.6 135.05 30.2 Q135.6 29.7 136.3 29.7 L136.4 29.7 Q137.5 29.7 138.25 30.6 139.0 31.55 139.0 32.95 M134.75 26.2 L132.1 26.2 M134.1 39.8 Q133.15 39.8 132.35 39.1 L130.95 37.85 Q129.35 35.8 129.35 33.0 129.35 30.3 130.8 28.4 L130.95 28.2 132.45 26.9 Q133.5 26.3 134.75 26.2 M132.0 26.2 L128.0 26.2 Q125.75 26.3 124.15 28.2 122.55 30.2 122.55 33.0 122.55 35.8 124.15 37.75 L124.15 37.85 Q125.75 39.75 128.0 39.8 L134.1 39.8 134.85 39.8 135.05 39.8 Q136.3 39.8 137.35 39.1 M134.75 40.4 L128.0 40.4 Q125.8 40.5 124.2 42.4 L124.15 42.4 Q122.55 44.45 122.55 47.25 122.55 50.05 124.15 52.05 L124.2 52.15 Q125.8 53.95 128.0 54.05 L134.75 54.05 Q133.5 53.95 132.4 53.35 L130.95 52.05 Q129.35 50.05 129.35 47.25 129.35 44.45 130.95 42.4 L132.4 41.15 Q133.5 40.5 134.75 40.4 L134.85 40.4 135.05 40.4 Q136.3 40.5 137.35 41.15 138.45 40.5 139.7 40.4 L142.1 40.4 142.1 39.8 M137.35 41.15 L138.9 42.4 Q140.45 44.45 140.45 47.25 140.45 50.05 138.9 52.05 L137.35 53.35 Q138.45 53.95 139.7 54.05 L142.1 54.05 146.5 54.05 Q145.25 53.95 144.15 53.35 L142.75 52.05 Q141.1 50.05 141.1 47.25 141.1 44.45 142.75 42.4 143.4 41.6 144.15 41.15 145.25 40.5 146.5 40.4 L142.1 40.4 M134.55 44.8 Q134.75 44.55 135.05 44.35 135.6 43.95 136.3 43.9 L136.4 43.9 Q137.5 43.95 138.25 44.8 139.0 45.8 139.0 47.2 139.0 48.45 138.25 49.45 137.5 50.4 136.4 50.4 L136.3 50.4 135.05 49.95 134.55 49.45 134.4 49.3 134.1 48.85 Q133.7 48.05 133.7 47.2 133.7 46.25 134.05 45.55 L134.4 45.05 134.55 44.8 M159.75 29.7 Q160.85 29.7 161.6 30.6 162.35 31.55 162.35 32.95 162.35 34.25 161.6 35.2 160.85 36.2 159.75 36.2 L159.65 36.2 Q158.9 36.2 158.3 35.7 L157.8 35.2 157.7 35.1 157.4 34.6 Q157.1 33.8 157.1 32.95 157.1 32.05 157.4 31.3 L157.7 30.8 157.8 30.6 158.3 30.2 Q158.9 29.7 159.65 29.7 L159.75 29.7 M149.0 26.9 L150.55 28.2 Q152.2 30.2 152.2 33.0 152.2 35.8 150.55 37.85 L149.05 39.2 Q150.1 39.8 151.3 39.8 L154.7 39.8 M148.15 29.7 Q149.25 29.7 150.0 30.6 150.75 31.55 150.75 32.95 150.75 34.25 150.0 35.2 149.25 36.2 148.15 36.2 L148.05 36.2 Q147.3 36.2 146.7 35.7 L146.2 35.2 146.1 35.1 145.8 34.6 Q145.5 33.8 145.5 32.95 145.5 32.05 145.8 31.3 L146.1 30.8 146.2 30.6 146.7 30.2 Q147.3 29.7 148.05 29.7 L148.15 29.7 M154.7 40.4 L151.3 40.4 Q150.1 40.5 149.05 41.1 L150.55 42.4 Q152.2 44.45 152.2 47.25 152.2 50.05 150.55 52.05 L149.0 53.4 151.3 54.05 154.7 54.05 M145.8 39.8 L146.7 39.8 Q148.0 39.8 149.05 39.2 M146.5 40.4 L146.7 40.4 Q148.0 40.45 149.05 41.1 M150.0 44.8 Q150.75 45.8 150.75 47.2 150.75 48.45 150.0 49.45 149.25 50.4 148.15 50.4 L148.05 50.4 Q147.3 50.4 146.7 49.95 L146.2 49.45 146.1 49.3 145.8 48.85 Q145.5 48.05 145.5 47.2 145.5 46.25 145.8 45.55 L146.1 45.05 146.2 44.8 146.7 44.35 Q147.3 43.95 148.05 43.9 L148.15 43.9 Q149.25 43.95 150.0 44.8 M158.1 54.05 Q156.85 53.95 155.75 53.35 155.2 53.0 154.7 52.45 L154.35 52.05 Q152.7 50.05 152.7 47.25 152.7 44.45 154.35 42.4 L154.7 42.0 Q155.2 41.5 155.75 41.15 156.85 40.5 158.1 40.4 M161.6 44.8 Q162.35 45.8 162.35 47.2 162.35 48.45 161.6 49.45 160.85 50.4 159.75 50.4 L159.65 50.4 Q158.9 50.4 158.3 49.95 L157.8 49.45 157.7 49.3 157.4 48.85 Q157.1 48.05 157.1 47.2 157.1 46.25 157.4 45.55 L157.7 45.05 157.8 44.8 158.3 44.35 Q158.9 43.95 159.65 43.9 L159.75 43.9 Q160.85 43.95 161.6 44.8 M107.8 10.6 L107.8 6.0 106.1 3.9 83.5 3.9 81.2 6.0 81.2 8.25 100.05 8.25 104.2 12.9 104.55 12.9 107.8 10.6 111.65 10.6 M110.4 12.9 L102.15 20.3 113.05 26.0 119.45 20.0 110.4 12.9 M104.55 12.9 L107.95 12.9 M81.2 8.25 L81.2 10.6 79.8 11.6 83.8 15.2 92.95 18.15 98.8 12.9 104.2 12.9 M90.55 20.3 L92.95 18.15 M82.85 45.0 L82.85 40.6 90.4 35.9 71.95 35.9 68.95 45.0 82.85 45.0 82.85 47.25 82.85 53.15 102.15 53.15 102.15 20.3 90.55 20.3 90.55 26.2 90.55 33.75 90.55 35.8 90.4 35.9 M113.05 53.15 L119.8 53.15 120.5 54.1 120.8 54.4 120.5 54.65 Q118.15 57.55 118.15 61.6 118.15 65.6 120.5 68.45 122.85 71.2 126.0 71.4 L126.3 71.4 Q129.55 71.3 131.85 68.45 L132.05 68.25 128.0 68.25 Q125.75 68.2 124.15 66.25 122.55 64.3 122.55 61.5 122.55 58.65 124.15 56.7 L124.15 56.65 Q125.75 54.7 128.0 54.65 L134.75 54.65 134.85 54.65 135.05 54.65 Q136.3 54.65 137.35 55.35 138.45 54.7 139.7 54.65 L142.1 54.65 142.1 54.05 M113.05 68.0 L113.05 53.15 102.15 53.15 102.15 74.45 113.05 68.0 119.45 74.45 149.55 74.45 M82.85 55.4 L82.85 53.15 M82.85 57.9 L82.85 55.4 64.2 55.4 60.6 47.25 82.85 47.25 M82.85 62.7 L82.85 57.9 62.35 57.9 56.95 45.25 66.1 45.25 70.1 33.75 90.55 33.75 M86.35 77.45 L82.85 74.45 82.85 62.7 52.5 62.7 54.5 64.9 M119.45 74.45 L109.55 80.85 102.15 74.45 82.85 74.45 M158.1 68.25 Q156.85 68.2 155.8 67.6 155.0 67.1 154.35 66.25 152.7 64.3 152.7 61.5 152.7 58.65 154.35 56.65 154.95 55.8 155.7 55.45 156.8 54.7 158.1 54.65 M159.75 58.1 Q160.85 58.2 161.6 59.05 162.35 60.0 162.35 61.3 162.35 62.7 161.6 63.7 160.85 64.6 159.75 64.6 L159.65 64.6 Q158.9 64.6 158.3 64.15 L157.8 63.7 157.7 63.45 157.45 63.05 Q157.1 62.3 157.1 61.3 157.1 60.5 157.4 59.75 L157.7 59.3 157.8 59.05 158.3 58.55 Q158.9 58.2 159.65 58.1 L159.75 58.1 M154.7 54.65 L151.3 54.65 Q150.1 54.7 149.05 55.3 L150.55 56.65 Q152.2 58.65 152.2 61.5 152.2 64.3 150.55 66.25 L149.0 67.65 Q150.05 68.2 151.3 68.25 L155.35 68.25 M142.1 54.65 L146.5 54.65 146.7 54.65 Q147.95 54.7 149.05 55.3 M149.0 53.4 Q147.95 54.0 146.7 54.05 L146.5 54.05 M146.5 68.25 Q145.25 68.2 144.2 67.6 143.4 67.1 142.75 66.25 141.1 64.3 141.1 61.5 141.1 58.65 142.75 56.65 143.35 55.8 144.1 55.45 145.2 54.7 146.5 54.65 M148.15 58.1 Q149.25 58.2 150.0 59.05 150.75 60.0 150.75 61.3 150.75 62.7 150.0 63.7 149.25 64.6 148.15 64.6 L148.05 64.6 Q147.3 64.6 146.7 64.15 L146.2 63.7 146.1 63.45 145.85 63.05 Q145.5 62.3 145.5 61.3 145.5 60.5 145.8 59.75 L146.1 59.3 146.2 59.05 146.7 58.55 Q147.3 58.2 148.05 58.1 L148.15 58.1 M146.5 68.25 L143.75 68.25 143.75 68.3 143.9 68.45 144.05 68.65 Q146.25 71.2 149.4 71.4 L149.5 71.4 149.65 71.4 Q151.25 71.3 152.65 70.65 M149.0 67.65 Q147.95 68.2 146.7 68.25 L146.5 68.25 M143.7 68.25 L143.75 68.3 143.6 68.45 Q142.5 69.8 141.2 70.55 139.75 71.3 138.05 71.4 L137.9 71.4 137.8 71.4 Q134.55 71.2 132.3 68.45 L132.1 68.25 132.05 68.25 M137.35 67.6 Q138.45 68.2 139.7 68.25 L143.7 68.25 143.75 68.25 M137.35 53.35 Q136.3 54.05 135.05 54.05 L134.85 54.05 134.75 54.05 M134.75 68.25 Q133.5 68.2 132.45 67.6 L130.95 66.25 130.8 66.05 Q129.35 64.15 129.35 61.5 129.35 58.65 130.95 56.65 131.65 55.8 132.4 55.45 133.45 54.7 134.75 54.65 M136.3 58.1 L136.4 58.1 Q137.5 58.2 138.25 59.05 139.0 60.0 139.0 61.3 139.0 62.7 138.25 63.7 137.5 64.6 136.4 64.6 L136.3 64.6 135.05 64.15 134.55 63.7 134.4 63.45 134.1 63.05 Q133.7 62.3 133.7 61.3 133.7 60.5 134.05 59.75 L134.4 59.3 Q134.4 59.1 134.55 59.05 L135.05 58.55 136.3 58.1 M137.35 55.35 L138.9 56.65 Q140.45 58.65 140.45 61.5 140.45 64.3 138.9 66.25 L137.35 67.6 Q136.3 68.2 135.05 68.25 L134.85 68.25 134.75 68.25 132.1 68.25 M119.45 20.0 L149.65 20.0 M113.05 26.0 L113.05 53.15 M76.35 10.6 L76.35 4.65 72.3 4.65 72.3 8.5 69.35 8.5 69.35 4.65 66.45 4.65 66.45 8.5 63.4 8.5 63.4 4.65 60.45 4.65 60.45 8.5 57.45 8.5 57.45 4.65 54.5 4.65 54.5 8.5 51.6 8.5 51.6 4.65 23.1 4.65 M72.3 4.65 L77.5 0.0 M68.65 0.0 L63.4 4.65 M69.85 18.6 L68.75 21.8 90.55 26.2 M64.9 18.6 L69.85 18.6 79.8 11.6 M69.35 4.65 L74.5 0.0 M66.45 4.65 L71.55 0.0 M16.45 10.6 L41.4 10.6 52.25 18.6 64.9 18.6 76.35 10.6 81.2 10.6 M54.5 4.65 L59.75 0.0 M56.7 0.0 L51.6 4.65 M44.55 17.1 L44.6 17.1 Q46.0 17.1 47.0 18.3 L47.75 19.5 48.0 21.1 47.75 22.7 47.0 23.85 Q46.0 25.0 44.6 25.0 L44.5 25.0 34.6 25.0 30.85 25.0 27.2 25.0 Q25.9 25.0 24.95 23.85 24.0 22.7 24.0 21.1 24.0 19.45 24.95 18.3 25.9 17.2 27.2 17.1 L30.95 17.1 34.65 17.1 44.55 17.1 Q43.25 17.2 42.3 18.3 41.3 19.45 41.3 21.1 41.3 22.7 42.3 23.85 43.25 24.95 44.5 25.0 M45.85 19.3 Q46.45 19.3 46.9 19.8 L46.95 19.8 Q47.35 20.35 47.35 21.05 47.35 21.8 46.95 22.25 L46.9 22.35 Q46.45 22.8 45.85 22.8 45.25 22.8 44.8 22.25 L44.6 22.0 44.45 21.05 Q44.45 20.55 44.6 20.15 L44.8 19.8 Q45.25 19.3 45.85 19.3 M49.1 27.75 L49.2 27.75 Q50.6 27.75 51.6 28.95 L52.3 30.15 52.6 31.7 52.3 33.25 51.6 34.55 Q50.6 35.7 49.2 35.7 L49.1 35.7 39.2 35.7 35.45 35.7 34.85 35.7 36.45 39.8 38.65 39.8 41.25 39.8 52.5 39.8 57.75 39.8 64.9 18.6 M48.95 31.7 L49.15 30.8 49.45 30.45 Q49.85 29.95 50.4 29.95 L50.5 29.95 Q51.1 29.95 51.5 30.45 51.95 30.95 51.95 31.7 51.95 32.45 51.5 32.95 L50.5 33.5 50.4 33.5 Q49.85 33.45 49.45 32.95 L49.15 32.65 48.95 31.7 M49.1 35.7 Q47.8 35.65 46.8 34.55 45.85 33.35 45.85 31.7 45.85 30.15 46.8 28.95 47.8 27.85 49.1 27.75 L39.2 27.75 Q37.9 27.85 36.9 28.95 36.5 29.4 36.2 30.3 L35.95 31.7 Q35.95 33.35 36.9 34.55 37.9 35.65 39.2 35.7 M39.0 64.15 L39.0 61.6 36.25 58.25 36.25 44.5 41.25 41.7 41.25 39.8 M52.5 39.8 L52.5 44.5 52.5 48.6 52.5 52.3 52.5 56.85 52.5 61.95 52.5 62.7 M52.5 48.6 L41.85 48.6 38.45 52.3 52.5 52.3 M68.75 21.8 L62.7 39.8 57.75 39.8 M60.45 4.65 L65.65 0.0 M62.7 0.0 L57.45 4.65 M30.85 25.0 Q29.65 24.95 28.65 23.85 27.7 22.7 27.7 21.1 L27.75 20.3 Q28.05 19.05 28.65 18.3 29.65 17.2 30.95 17.1 M34.65 17.1 Q33.35 17.2 32.4 18.3 31.8 19.05 31.5 20.3 L31.4 21.1 Q31.4 22.7 32.4 23.85 33.35 24.95 34.6 25.0 M21.6 23.8 L16.45 20.8 16.45 20.3 M15.55 25.85 L15.95 24.95 21.6 23.8 29.75 28.65 Q30.7 27.85 31.8 27.75 L35.45 27.75 39.2 27.75 M15.55 25.85 L13.65 29.75 11.5 34.25 M7.9 39.8 Q8.45 38.75 9.25 37.85 13.1 32.7 18.6 32.7 24.1 32.7 27.95 37.85 31.85 42.95 31.85 50.2 31.85 57.4 27.95 62.5 24.1 67.65 18.6 67.65 13.15 67.65 9.25 62.6 L8.15 64.0 M6.85 41.95 L7.9 39.8 1.65 37.65 M1.7 40.15 L3.75 40.85 M1.85 43.95 L3.75 44.55 M1.9 47.65 L3.75 48.3 M5.4 48.85 Q5.45 46.95 5.85 45.25 L4.05 44.7 M6.85 41.95 L4.05 40.95 M5.4 48.85 L4.05 48.4 M5.85 45.25 Q6.2 43.5 6.85 41.95 M25.1 50.4 Q25.1 53.25 23.65 55.15 22.15 57.15 20.0 57.15 17.95 57.15 16.45 55.15 14.9 53.25 14.9 50.4 14.9 47.65 16.45 45.7 17.95 43.7 20.0 43.7 22.15 43.7 23.65 45.7 25.1 47.65 25.1 50.4 M26.4 50.2 Q26.4 55.35 23.65 59.0 20.85 62.7 16.95 62.7 13.0 62.7 10.15 59.0 8.3 56.55 7.7 53.35 7.4 51.85 7.4 50.2 L7.4 49.55 Q7.5 47.65 7.9 46.0 8.6 43.45 10.15 41.3 13.0 37.65 16.95 37.65 20.85 37.65 23.65 41.3 26.4 45.05 26.4 50.2 M13.65 29.75 L5.0 30.8 M10.1 26.85 L15.55 25.85 M34.8 35.55 Q33.9 35.35 33.25 34.55 32.25 33.35 32.25 31.7 L32.45 30.3 33.25 28.95 Q34.15 27.85 35.45 27.75 M34.85 35.7 L31.8 35.7 Q30.45 35.65 29.6 34.55 28.55 33.35 28.55 31.7 28.55 30.15 29.6 28.95 L29.75 28.65 M35.45 35.7 L34.8 35.55 34.85 35.7 M33.75 64.9 L33.75 42.55 38.65 39.8 M38.45 52.3 L38.45 56.85 52.5 56.85 M26.65 73.7 L33.75 64.9 53.25 64.9 M5.45 52.5 L5.3 50.2 5.4 48.85 M2.1 51.4 L3.75 51.95 M2.35 58.9 L3.75 59.4 M8.15 60.95 Q6.85 58.85 6.2 56.55 L4.05 55.8 M8.15 60.95 L4.05 59.55 M4.05 52.15 L5.45 52.5 Q5.65 54.65 6.2 56.55 M2.2 55.15 L3.75 55.7 M9.25 62.6 L9.25 62.5 8.15 60.95 M38.45 56.85 L42.0 61.95 52.5 61.95 M52.5 44.5 L37.0 44.5 M76.35 4.65 L81.45 0.0" fill="none" stroke-width="0.7" stroke="#000000" stroke-opacity="0.4"/>
    </g>
    <radialGradient cx="0" cy="0" gradientTransform="matrix(0.0145, 0.0, 0.0, 0.0145, 155.25, 28.5)" gradientUnits="userSpaceOnUse" id="gradient0" r="819.2" spreadMethod="pad">
      <stop offset="0.0" stop-color="#b2b2b2"/>
      <stop offset="1.0" stop-color="#333333"/>
      <stop offset="1.0" stop-color="#727272"/>
    </radialGradient>
    <radialGradient cx="0" cy="0" gradientTransform="matrix(0.0147, 0.0, 0.0, 0.0147, 154.75, 42.85)" gradientUnits="userSpaceOnUse" id="gradient1" r="819.2" spreadMethod="pad">
      <stop offset="0.0" stop-color="#b2b2b2"/>
      <stop offset="1.0" stop-color="#333333"/>
      <stop offset="1.0" stop-color="#727272"/>
    </radialGradient>
    <radialGradient cx="0" cy="0" gradientTransform="matrix(0.0145, 0.0, 0.0, 0.0145, 154.75, 57.25)" gradientUnits="userSpaceOnUse" id="gradient2" r="819.2" spreadMethod="pad">
      <stop offset="0.0" stop-color="#b2b2b2"/>
      <stop offset="1.0" stop-color="#333333"/>
      <stop offset="1.0" stop-color="#727272"/>
    </radialGradient>
    <linearGradient gradientTransform="matrix(0.0, 0.0083, -0.0056, 0.0, 141.95, 32.95)" gradientUnits="userSpaceOnUse" id="gradient3" spreadMethod="pad" x1="-819.2" x2="819.2">
      <stop offset="0.0" stop-color="#777777"/>
      <stop offset="0.16470588235294117" stop-color="#b2b2b2"/>
      <stop offset="1.0" stop-color="#333333"/>
      <stop offset="1.0" stop-color="#727272"/>
    </linearGradient>
    <radialGradient cx="0" cy="0" gradientTransform="matrix(0.0149, 0.0, 0.0, 0.0149, 131.75, 28.3)" gradientUnits="userSpaceOnUse" id="gradient4" r="819.2" spreadMethod="pad">
      <stop offset="0.0" stop-color="#b2b2b2"/>
      <stop offset="1.0" stop-color="#333333"/>
      <stop offset="1.0" stop-color="#727272"/>
    </radialGradient>
    <linearGradient gradientTransform="matrix(0.0, 0.0083, -0.0075, 0.0, 128.7, 32.95)" gradientUnits="userSpaceOnUse" id="gradient5" spreadMethod="pad" x1="-819.2" x2="819.2">
      <stop offset="0.0" stop-color="#777777"/>
      <stop offset="0.16470588235294117" stop-color="#b2b2b2"/>
      <stop offset="1.0" stop-color="#333333"/>
      <stop offset="1.0" stop-color="#727272"/>
    </linearGradient>
    <linearGradient gradientTransform="matrix(0.0, 0.0083, -0.0075, 0.0, 128.7, 47.2)" gradientUnits="userSpaceOnUse" id="gradient6" spreadMethod="pad" x1="-819.2" x2="819.2">
      <stop offset="0.0" stop-color="#777777"/>
      <stop offset="0.16470588235294117" stop-color="#b2b2b2"/>
      <stop offset="1.0" stop-color="#333333"/>
      <stop offset="1.0" stop-color="#727272"/>
    </linearGradient>
    <radialGradient cx="0" cy="0" gradientTransform="matrix(0.0143, 0.0, 0.0, 0.0143, 131.55, 43.15)" gradientUnits="userSpaceOnUse" id="gradient7" r="819.2" spreadMethod="pad">
      <stop offset="0.0" stop-color="#b2b2b2"/>
      <stop offset="1.0" stop-color="#333333"/>
      <stop offset="1.0" stop-color="#727272"/>
    </radialGradient>
    <linearGradient gradientTransform="matrix(0.0, 0.0083, -0.0056, 0.0, 141.95, 47.2)" gradientUnits="userSpaceOnUse" id="gradient8" spreadMethod="pad" x1="-819.2" x2="819.2">
      <stop offset="0.0" stop-color="#777777"/>
      <stop offset="0.16470588235294117" stop-color="#b2b2b2"/>
      <stop offset="1.0" stop-color="#333333"/>
      <stop offset="1.0" stop-color="#727272"/>
    </linearGradient>
    <radialGradient cx="0" cy="0" gradientTransform="matrix(0.0145, 0.0, 0.0, 0.0145, 143.65, 28.5)" gradientUnits="userSpaceOnUse" id="gradient9" r="819.2" spreadMethod="pad">
      <stop offset="0.0" stop-color="#b2b2b2"/>
      <stop offset="1.0" stop-color="#333333"/>
      <stop offset="1.0" stop-color="#727272"/>
    </radialGradient>
    <radialGradient cx="0" cy="0" gradientTransform="matrix(0.0147, 0.0, 0.0, 0.0147, 143.15, 42.85)" gradientUnits="userSpaceOnUse" id="gradient10" r="819.2" spreadMethod="pad">
      <stop offset="0.0" stop-color="#b2b2b2"/>
      <stop offset="1.0" stop-color="#333333"/>
      <stop offset="1.0" stop-color="#727272"/>
    </radialGradient>
    <linearGradient gradientTransform="matrix(0.0, 0.0083, -0.0056, 0.0, 141.95, 61.45)" gradientUnits="userSpaceOnUse" id="gradient11" spreadMethod="pad" x1="-819.2" x2="819.2">
      <stop offset="0.0" stop-color="#777777"/>
      <stop offset="0.16470588235294117" stop-color="#b2b2b2"/>
      <stop offset="1.0" stop-color="#333333"/>
      <stop offset="1.0" stop-color="#727272"/>
    </linearGradient>
    <radialGradient cx="0" cy="0" gradientTransform="matrix(0.0145, 0.0, 0.0, 0.0145, 143.15, 57.25)" gradientUnits="userSpaceOnUse" id="gradient12" r="819.2" spreadMethod="pad">
      <stop offset="0.0" stop-color="#b2b2b2"/>
      <stop offset="1.0" stop-color="#333333"/>
      <stop offset="1.0" stop-color="#727272"/>
    </radialGradient>
    <radialGradient cx="0" cy="0" gradientTransform="matrix(0.0146, 0.0, 0.0, 0.0146, 131.75, 56.95)" gradientUnits="userSpaceOnUse" id="gradient13" r="819.2" spreadMethod="pad">
      <stop offset="0.0" stop-color="#b2b2b2"/>
      <stop offset="1.0" stop-color="#333333"/>
      <stop offset="1.0" stop-color="#727272"/>
    </radialGradient>
    <linearGradient gradientTransform="matrix(0.0, 0.0083, -0.0075, 0.0, 128.7, 61.45)" gradientUnits="userSpaceOnUse" id="gradient14" spreadMethod="pad" x1="-819.2" x2="819.2">
      <stop offset="0.0" stop-color="#777777"/>
      <stop offset="0.16470588235294117" stop-color="#b2b2b2"/>
      <stop offset="1.0" stop-color="#333333"/>
      <stop offset="1.0" stop-color="#727272"/>
    </linearGradient>
    <radialGradient cx="0" cy="0" gradientTransform="matrix(0.0078, 0.0, 0.0, 0.0078, 42.85, 19.15)" gradientUnits="userSpaceOnUse" id="gradient15" r="819.2" spreadMethod="pad">
      <stop offset="0.0" stop-color="#b2b2b2"/>
      <stop offset="1.0" stop-color="#333333"/>
      <stop offset="1.0" stop-color="#727272"/>
    </radialGradient>
    <linearGradient gradientTransform="matrix(0.0, 0.0048, -0.0125, 0.0, 34.25, 21.1)" gradientUnits="userSpaceOnUse" id="gradient16" spreadMethod="pad" x1="-819.2" x2="819.2">
      <stop offset="0.0" stop-color="#777777"/>
      <stop offset="0.16470588235294117" stop-color="#b2b2b2"/>
      <stop offset="1.0" stop-color="#333333"/>
      <stop offset="1.0" stop-color="#727272"/>
    </linearGradient>
    <radialGradient cx="0" cy="0" gradientTransform="matrix(0.0081, 0.0, 0.0, 0.0081, 47.35, 29.55)" gradientUnits="userSpaceOnUse" id="gradient17" r="819.2" spreadMethod="pad">
      <stop offset="0.0" stop-color="#b2b2b2"/>
      <stop offset="1.0" stop-color="#333333"/>
      <stop offset="1.0" stop-color="#727272"/>
    </radialGradient>
    <linearGradient gradientTransform="matrix(0.0, 0.0048, -0.0125, 0.0, 38.8, 31.65)" gradientUnits="userSpaceOnUse" id="gradient18" spreadMethod="pad" x1="-819.2" x2="819.2">
      <stop offset="0.0" stop-color="#777777"/>
      <stop offset="0.16470588235294117" stop-color="#b2b2b2"/>
      <stop offset="1.0" stop-color="#333333"/>
      <stop offset="1.0" stop-color="#727272"/>
    </linearGradient>
    <radialGradient cx="0" cy="0" gradientTransform="matrix(0.0381, 0.0, 0.0, 0.0381, 9.75, 38.4)" gradientUnits="userSpaceOnUse" id="gradient19" r="819.2" spreadMethod="pad">
      <stop offset="0.0" stop-color="#b2b2b2"/>
      <stop offset="1.0" stop-color="#333333"/>
      <stop offset="1.0" stop-color="#727272"/>
    </radialGradient>
    <radialGradient cx="0" cy="0" gradientTransform="matrix(0.0281, 0.0, 0.0, 0.0281, 21.1, 59.9)" gradientUnits="userSpaceOnUse" id="gradient20" r="819.2" spreadMethod="pad">
      <stop offset="0.0" stop-color="#b2b2b2"/>
      <stop offset="1.0" stop-color="#333333"/>
      <stop offset="1.0" stop-color="#727272"/>
    </radialGradient>
    <radialGradient cx="0" cy="0" gradientTransform="matrix(0.0107, 0.0, 0.0, 0.0107, 23.05, 50.55)" gradientUnits="userSpaceOnUse" id="gradient21" r="819.2" spreadMethod="pad">
      <stop offset="0.0" stop-color="#ff3300"/>
      <stop offset="1.0" stop-color="#990000"/>
    </radialGradient>
    <linearGradient gradientTransform="matrix(-0.0136, -1.0E-4, 0.0, -0.005, 71.7, 51.3)" gradientUnits="userSpaceOnUse" id="gradient22" spreadMethod="pad" x1="-819.2" x2="819.2">
      <stop offset="0.0" stop-color="#ff3300"/>
      <stop offset="1.0" stop-color="#990000"/>
    </linearGradient>
    <linearGradient gradientTransform="matrix(-0.013, 0.0, 0.0, -0.0056, 79.65, 40.4)" gradientUnits="userSpaceOnUse" id="gradient23" spreadMethod="pad" x1="-819.2" x2="819.2">
      <stop offset="0.0" stop-color="#ff3300"/>
      <stop offset="1.0" stop-color="#990000"/>
    </linearGradient>
    <g id="shape1" transform="matrix(1.0, 0.0, 0.0, 1.0, -14.9, -19.2)">
      <path d="M82.85 45.0 L68.95 45.0 71.95 35.9 90.4 35.9 82.85 40.6 82.85 45.0" fill="url(#gradient24)" fill-rule="evenodd" stroke="none"/>
      <path d="M82.85 55.4 L64.2 55.4 60.6 47.25 82.85 47.25 82.85 55.4" fill="url(#gradient25)" fill-rule="evenodd" stroke="none"/>
      <path d="M45.85 19.25 Q46.5 19.25 46.9 19.75 47.3 20.3 47.3 21.0 47.3 21.75 46.9 22.2 L46.9 22.3 Q46.5 22.75 45.85 22.75 L45.8 22.75 Q45.25 22.75 44.75 22.2 L44.55 21.95 Q44.4 21.55 44.4 21.0 44.4 20.5 44.55 20.1 L44.75 19.75 Q45.25 19.25 45.8 19.25 L45.85 19.25 M51.55 30.4 Q51.9 30.9 51.9 31.65 51.9 32.4 51.55 32.9 L51.45 32.9 Q51.05 33.45 50.45 33.45 49.8 33.4 49.4 32.9 L49.15 32.6 48.95 31.65 49.15 30.75 49.4 30.4 Q49.8 29.9 50.45 29.9 51.05 29.9 51.45 30.4 L51.55 30.4" fill="#ff9900" fill-rule="evenodd" stroke="none"/>
      <path d="M16.4 45.65 Q17.9 43.65 20.0 43.65 22.1 43.65 23.6 45.65 25.15 47.6 25.15 50.35 25.15 53.2 23.6 55.1 22.1 57.1 20.0 57.1 17.9 57.1 16.4 55.1 14.95 53.2 14.95 50.35 14.95 47.6 16.4 45.65" fill="url(#gradient26)" fill-rule="evenodd" stroke="none"/>
      <path d="M82.85 45.0 L82.85 40.6 90.4 35.9 71.95 35.9 68.95 45.0 82.85 45.0 M82.85 55.4 L82.85 47.25 60.6 47.25 64.2 55.4 82.85 55.4 M45.85 19.25 Q46.5 19.25 46.9 19.75 47.3 20.3 47.3 21.0 47.3 21.75 46.9 22.2 L46.9 22.3 Q46.5 22.75 45.85 22.75 L45.8 22.75 Q45.25 22.75 44.75 22.2 L44.55 21.95 Q44.4 21.55 44.4 21.0 44.4 20.5 44.55 20.1 L44.75 19.75 Q45.25 19.25 45.8 19.25 L45.85 19.25 M51.55 30.4 Q51.9 30.9 51.9 31.65 51.9 32.4 51.55 32.9 L51.45 32.9 Q51.05 33.45 50.45 33.45 49.8 33.4 49.4 32.9 L49.15 32.6 48.95 31.65 49.15 30.75 49.4 30.4 Q49.8 29.9 50.45 29.9 51.05 29.9 51.45 30.4 L51.55 30.4 M16.4 45.65 Q17.9 43.65 20.0 43.65 22.1 43.65 23.6 45.65 25.15 47.6 25.15 50.35 25.15 53.2 23.6 55.1 22.1 57.1 20.0 57.1 17.9 57.1 16.4 55.1 14.95 53.2 14.95 50.35 14.95 47.6 16.4 45.65" fill="none" stroke="#000000" stroke-width="0.7" stroke-opacity="0.4"/>
    </g>
    <linearGradient gradientTransform="matrix(-0.013, 0.0, 0.0, -0.0056, 79.65, 40.4)" gradientUnits="userSpaceOnUse" id="gradient24" spreadMethod="pad" x1="-819.2" x2="819.2">
      <stop offset="0.0" stop-color="#ffcc00"/>
      <stop offset="1.0" stop-color="#ff6600"/>
    </linearGradient>
    <linearGradient gradientTransform="matrix(-0.0136, -1.0E-4, 0.0, -0.005, 71.7, 51.3)" gradientUnits="userSpaceOnUse" id="gradient25" spreadMethod="pad" x1="-819.2" x2="819.2">
      <stop offset="0.0" stop-color="#ffcc00"/>
      <stop offset="1.0" stop-color="#ff6600"/>
    </linearGradient>
    <radialGradient cx="0" cy="0" gradientTransform="matrix(0.0116, 0.0, 0.0, 0.0116, 23.45, 49.85)" gradientUnits="userSpaceOnUse" id="gradient26" r="819.2" spreadMethod="pad">
      <stop offset="0.0" stop-color="#ffcc00"/>
      <stop offset="0.5294117647058824" stop-color="#ff9900"/>
      <stop offset="1.0" stop-color="#ff6600"/>
    </radialGradient>
  </defs>
</svg>
