<?xml version="1.0" encoding="UTF-8" standalone="no"?>
<svg xmlns:xlink="http://www.w3.org/1999/xlink" height="211.9px" width="159.8px" xmlns="http://www.w3.org/2000/svg">
  <g transform="matrix(1.0, 0.0, 0.0, 1.0, 0.0, 0.05)">
    <path d="M100.95 3.2 L111.95 16.85 117.85 24.15 121.15 28.35 121.3 28.5 121.0 38.8 120.85 41.5 120.85 43.4 120.85 44.3 120.85 45.3 120.75 47.15 120.4 58.4 119.75 83.55 100.25 83.55 86.75 28.35 95.05 28.35 86.75 28.35 77.0 16.85 76.9 16.85 62.5 0.0 62.6 0.0 98.75 0.0 100.95 3.2 M111.95 16.85 L105.05 16.85 111.95 16.85 M97.95 12.85 L85.95 12.85 89.2 17.0 96.0 25.5 96.45 26.05 98.15 28.35 96.45 26.05 109.0 26.05 97.95 12.85 M111.0 28.35 L110.85 28.35 109.0 26.05 110.85 28.35 111.0 28.35 113.55 28.35 111.0 28.35 M113.55 28.25 L113.55 28.35 113.6 28.35 113.55 28.25 105.05 16.85 98.75 9.25 79.75 9.25 86.1 16.85 95.2 28.35 86.1 16.85 79.75 9.25 98.75 9.25 105.05 16.85 113.55 28.25 M98.15 28.35 L95.2 28.35 98.15 28.35 98.75 30.95 98.15 28.35 110.8 28.35 110.85 28.35 110.8 28.35 98.15 28.35 M95.2 28.35 L95.1 28.35 95.2 28.35 M95.05 28.35 L95.1 28.35 94.95 28.25 95.05 28.35 M98.75 30.95 L99.0 32.3 101.0 42.65 101.25 43.4 110.7 43.4 110.8 43.4 110.8 31.05 110.8 30.95 98.75 30.95 M121.15 28.35 L113.6 28.35 121.15 28.35 M110.8 28.35 L110.8 30.95 110.8 28.35 M102.05 47.8 L102.2 48.7 105.2 63.5 105.35 64.3 110.8 64.3 110.8 47.8 102.05 47.8 M113.6 28.35 L113.7 67.45 102.8 67.45 95.1 28.35 102.8 67.45 113.7 67.45 113.6 28.35 M36.95 83.5 L37.0 83.5 44.0 83.5 44.85 83.5 51.55 87.6 55.7 90.1 47.5 90.1 Q38.35 83.9 36.95 83.5 M86.1 16.85 L77.0 16.85 86.1 16.85" fill="#b4b4b4" fill-rule="evenodd" stroke="none"/>
    <path d="M117.85 24.15 L121.3 28.35 121.15 28.35 117.85 24.15" fill="#9a9a9a" fill-rule="evenodd" stroke="none"/>
    <path d="M113.55 28.35 L113.55 28.25 113.6 28.35 113.55 28.35 M95.1 28.35 L95.05 28.35 94.95 28.25 95.1 28.35" fill="#838383" fill-rule="evenodd" stroke="none"/>
    <path d="M121.3 28.35 L121.3 28.4 121.3 28.5 121.15 28.35 121.3 28.35 M121.0 38.8 L120.9 41.5 120.85 43.4 120.85 41.5 121.0 38.8 M65.25 208.6 L25.2 211.85 25.2 199.35 8.65 199.35 30.9 180.3 35.3 180.3 51.3 180.3 55.3 180.3 56.1 182.4 57.35 185.95 63.95 204.7 65.25 208.6 M120.9 41.5 L120.85 41.5 120.9 41.5 M104.6 139.0 L105.25 139.05 104.6 139.05 104.6 139.0 M55.3 180.3 L25.2 199.35 55.3 180.3" fill="#939393" fill-rule="evenodd" stroke="none"/>
    <path d="M119.75 83.55 L111.6 91.75 94.75 91.75 100.25 83.55 119.75 83.55 M133.0 168.3 L134.5 178.45 131.15 175.1 122.1 175.1 122.2 175.0 Q123.0 171.85 123.3 168.3 L133.0 168.3 M157.35 201.55 L159.8 208.6 128.1 208.6 129.95 201.55 137.1 201.65 137.85 205.05 138.25 206.8 151.05 206.8 150.1 201.55 147.65 201.65 147.7 201.55 150.1 201.55 157.35 201.55 M77.0 208.6 L69.6 208.6 89.15 168.3 99.5 168.3 99.3 168.95 98.45 171.25 97.05 175.1 93.15 175.1 77.0 208.6 M45.45 120.7 L64.75 157.9 71.55 157.9 70.05 171.45 63.2 171.45 64.75 157.9 54.85 160.85 35.9 125.45 45.45 120.7 35.9 125.45 54.85 160.85 64.75 157.9 63.2 171.45 58.55 171.85 53.35 172.45 54.85 160.85 44.75 163.75 54.85 160.85 53.35 172.45 43.95 170.7 44.75 169.05 Q45.65 166.6 44.75 163.75 L30.05 131.05 28.5 127.4 Q27.45 124.35 28.25 121.5 29.15 118.85 31.7 116.45 L31.8 116.45 39.45 109.3 45.45 120.7 M35.9 125.45 L35.75 125.45 38.1 130.25 35.9 125.45" fill="#808080" fill-rule="evenodd" stroke="none"/>
    <path d="M94.75 91.75 L88.4 91.75 84.95 91.75 72.9 91.75 71.75 91.75 68.35 85.2 67.45 83.5 66.9 82.35 65.95 80.55 65.1 78.9 57.8 65.1 50.75 63.85 43.4 62.8 43.2 62.8 32.45 61.1 28.7 60.55 19.0 42.05 13.0 41.1 7.4 30.3 8.45 24.9 10.45 15.5 31.25 5.65 62.5 0.0 76.9 16.85 77.0 16.85 86.75 28.35 100.25 83.55 94.75 91.75 M60.2 33.7 L80.95 37.0 76.9 16.85 80.95 37.0 60.2 33.7 50.2 22.15 19.45 17.0 16.7 26.35 8.45 24.9 16.7 26.35 19.45 17.0 50.2 22.15 60.2 33.7 M36.95 44.9 L45.9 46.25 45.95 46.25 46.55 46.45 56.6 48.1 70.65 77.95 79.75 77.95 77.95 70.1 85.1 59.3 76.15 41.7 40.3 35.6 31.25 34.1 36.95 44.9 27.95 43.4 19.0 42.05 13.3 31.35 7.4 30.3 13.3 31.35 19.0 42.05 27.95 43.4 36.95 44.9 M19.45 17.0 L10.45 15.5 19.45 17.0 M22.3 32.65 L27.95 43.4 22.3 32.65 13.3 31.35 22.3 32.65 31.25 34.1 22.3 32.65" fill="#5b5b5b" fill-rule="evenodd" stroke="none"/>
    <path d="M11.2 130.6 L11.2 122.8 Q11.25 121.05 12.0 120.2 L11.7 120.5 Q6.05 96.9 25.5 90.8 L23.05 80.25 34.6 67.2 32.45 61.1 43.2 62.8 43.4 62.8 44.25 65.95 51.55 67.15 52.6 70.95 51.55 67.15 50.75 63.85 57.8 65.1 65.1 78.9 65.95 80.55 66.9 82.35 61.45 82.35 60.7 82.35 Q57.15 82.45 54.25 84.75 52.9 85.7 51.75 87.3 L51.55 87.6 44.85 83.5 44.0 83.5 37.0 83.5 36.95 83.5 36.65 83.5 29.55 90.5 31.4 97.65 27.95 101.25 27.25 98.1 27.1 97.35 26.85 96.25 26.5 94.95 Q26.95 94.5 27.45 94.35 L25.8 91.9 25.5 90.8 25.8 91.9 27.45 94.35 Q26.95 94.5 26.5 94.95 L26.85 96.25 27.1 97.35 27.25 98.1 Q17.15 101.9 21.05 115.05 L21.55 116.75 22.1 114.95 23.55 115.2 23.65 115.2 27.55 118.85 21.4 122.25 21.4 122.35 Q19.3 124.2 18.2 126.5 19.3 124.2 21.4 122.35 L21.4 122.25 27.55 118.85 23.25 124.0 22.4 129.75 19.75 132.05 18.2 126.5 18.2 125.6 18.2 124.15 18.2 120.7 18.2 124.15 18.2 125.6 16.2 127.95 15.35 133.85 12.75 136.05 11.2 130.6 Q12.25 128.15 14.4 126.3 L18.2 124.15 14.4 126.3 Q12.25 128.15 11.2 130.6 M84.45 108.7 L84.75 109.3 85.7 109.3 85.85 109.75 Q88.9 116.65 82.9 117.55 L81.6 117.7 Q80.1 113.45 80.4 111.45 80.55 110.65 80.95 110.25 L81.45 109.45 81.7 109.3 83.9 109.3 84.45 108.7 M53.4 47.15 L46.1 46.25 45.95 46.25 46.1 46.25 53.4 47.15 M46.55 46.45 L45.95 46.25 45.9 46.25 36.95 44.9 31.25 34.1 40.3 35.6 76.15 41.7 85.1 59.3 77.95 70.1 79.75 77.95 70.65 77.95 56.6 48.1 46.55 46.45 46.1 46.25 46.55 46.45 M75.7 43.5 L43.25 38.05 47.0 45.05 58.8 46.9 71.9 76.45 77.5 76.4 76.0 69.95 83.35 59.7 75.7 43.5 83.35 59.7 76.0 69.95 77.5 76.4 71.9 76.45 58.8 46.9 47.0 45.05 43.25 38.05 75.7 43.5 M45.9 46.25 L40.3 35.6 45.9 46.25 M46.4 73.65 L47.45 77.65 48.5 81.4 54.25 84.75 48.5 81.4 47.45 77.65 46.4 73.65 53.7 74.8 52.6 70.95 45.35 69.8 45.9 71.9 46.4 73.65 M44.3 71.45 L45.9 71.9 44.3 71.45 M57.35 185.95 L62.9 185.65 66.45 200.45 63.95 204.7 57.35 185.95 M45.35 69.8 L44.25 65.95 45.35 69.8 M47.45 77.65 L47.65 77.65 65.95 80.55 47.65 77.65 47.45 77.65 M65.1 78.9 L54.25 77.15 53.7 74.8 54.25 77.15 65.1 78.9 M58.4 94.75 L58.55 94.45 Q60.05 92.65 62.35 92.5 L64.1 93.0 Q64.75 93.3 65.4 94.0 L65.85 94.45 66.55 95.4 67.2 97.3 67.35 99.15 67.35 99.75 Q67.35 101.0 66.9 102.1 L66.55 102.85 65.85 103.85 65.7 104.05 64.55 105.2 63.4 103.25 63.85 102.7 64.0 102.55 64.45 101.9 64.75 101.25 65.1 99.5 65.1 99.05 64.95 97.7 64.45 96.4 64.0 95.7 63.65 95.25 62.75 94.5 61.45 94.15 Q59.9 94.3 58.85 95.4 L58.4 94.75 M18.2 119.05 L22.0 118.85 21.55 116.75 22.0 118.85 18.2 119.05 17.85 119.5 17.7 118.6 Q13.15 99.35 26.5 94.95 10.65 98.1 14.9 119.35 L15.05 119.35 16.25 119.5 16.7 119.3 16.25 119.5 15.05 119.35 16.7 119.05 16.8 119.3 16.7 119.3 18.2 120.7 18.2 119.05 M14.9 119.35 Q13.05 119.3 12.0 120.2 13.05 119.3 14.9 119.35" fill="#333333" fill-rule="evenodd" stroke="none"/>
    <path d="M69.6 208.6 L65.25 208.6 63.95 204.7 66.45 200.45 62.9 185.65 57.35 185.95 56.1 182.4 69.8 182.4 79.15 166.75 73.35 150.75 66.9 148.95 73.35 150.75 79.15 166.75 69.8 182.4 56.1 182.4 55.3 180.3 51.3 180.3 35.3 180.3 34.45 177.15 46.7 177.15 54.55 177.15 61.45 177.15 70.05 171.45 71.55 157.9 66.9 148.95 52.0 120.35 46.25 109.3 39.45 109.3 33.55 109.3 23.55 115.2 22.1 114.95 24.85 104.45 27.9 101.45 27.95 101.25 31.4 97.65 29.55 90.5 36.65 83.5 36.95 83.5 Q38.35 83.9 47.5 90.1 L89.15 168.3 69.6 208.6 M101.0 133.15 L104.6 139.0 103.4 138.9 101.7 139.05 103.4 138.9 104.6 139.0 104.6 139.05 101.7 139.05 98.45 139.05 101.0 133.15 M51.3 180.3 L46.7 177.15 51.3 180.3" fill="#585858" fill-rule="evenodd" stroke="none"/>
    <path d="M128.1 208.6 L94.9 208.6 85.85 208.6 77.0 208.6 93.15 175.1 99.75 179.95 106.3 184.65 129.95 201.55 128.1 208.6 M25.2 211.85 L8.65 211.85 8.65 208.6 0.0 208.6 5.15 189.8 28.95 175.6 29.15 176.85 30.45 176.85 30.65 177.15 34.45 177.15 30.65 177.15 30.45 176.85 46.9 176.85 52.0 176.85 58.4 172.45 53.35 172.45 58.55 171.85 63.2 171.45 54.55 177.15 46.7 177.15 34.45 177.15 35.3 180.3 30.9 180.3 8.65 199.35 25.2 199.35 25.2 211.85 M25.45 172.9 L14.85 151.05 12.25 145.9 Q8.5 136.5 11.2 130.6 L12.75 136.05 15.35 133.85 16.2 127.95 18.2 125.6 18.2 126.5 19.75 132.05 22.4 129.75 23.25 124.0 27.55 118.85 23.65 115.2 23.55 115.2 33.55 109.3 39.45 109.3 31.8 116.45 31.7 116.45 Q29.15 118.85 28.25 121.5 27.45 124.35 28.5 127.4 L30.05 131.05 44.75 163.75 38.1 163.75 32.1 150.25 32.15 150.15 32.1 150.15 27.85 139.8 Q27.1 138.1 27.3 136.45 L27.55 134.85 Q28.05 132.95 29.85 131.2 L29.9 131.15 29.85 131.2 Q28.05 132.95 27.55 134.85 L27.3 136.45 Q27.1 138.1 27.85 139.8 L32.1 150.15 32.15 150.15 32.1 150.25 38.1 163.75 44.75 163.75 Q45.65 166.6 44.75 169.05 L43.95 170.7 37.3 170.7 25.45 172.9 M18.2 119.05 L18.2 120.7 16.7 119.3 16.8 119.3 16.7 119.05 17.1 118.9 18.2 120.7 17.1 118.9 17.7 118.6 17.85 119.5 18.2 119.05 M31.7 116.45 L27.55 118.85 31.7 116.45 M30.05 131.05 L30.0 131.15 29.9 131.15 Q25.05 134.0 20.15 136.8 L19.9 136.9 19.85 137.05 17.25 138.45 Q15.95 139.55 15.15 141.05 14.25 142.7 14.0 144.8 13.75 147.5 14.85 151.05 13.75 147.5 14.0 144.8 14.25 142.7 15.15 141.05 15.95 139.55 17.25 138.45 L19.85 137.05 19.9 136.9 20.15 136.8 Q25.05 134.0 29.9 131.15 L30.0 131.15 30.05 131.05 M20.3 138.1 L19.7 138.4 19.7 138.45 17.9 140.0 Q15.95 141.9 15.75 143.9 15.45 146.65 16.55 150.25 L25.75 169.65 34.9 167.75 34.9 164.7 25.65 145.25 Q24.3 140.4 24.45 138.85 24.45 138.0 24.75 137.35 25.0 136.2 25.75 134.85 L20.8 137.8 20.3 138.1 20.35 138.0 20.8 137.8 20.35 138.0 20.3 138.1 M20.15 136.8 L19.85 137.05 20.15 136.8 M37.3 170.7 L37.8 169.7 Q38.65 167.45 38.1 163.75 38.65 167.45 37.8 169.7 L37.3 170.7 M32.1 150.15 L32.1 150.25 32.1 150.15 M58.55 171.85 L58.4 172.45 58.55 171.85 M89.5 192.0 L89.9 192.0 89.5 192.0 M85.85 208.6 L99.75 179.95 85.85 208.6 M8.65 208.6 L8.65 199.35 8.65 208.6 M94.9 208.6 L106.3 184.65 94.9 208.6" fill="#666666" fill-rule="evenodd" stroke="none"/>
    <path d="M73.8 94.5 Q74.2 96.85 74.2 99.15 L74.2 100.65 Q74.0 103.9 72.9 106.8 L71.75 108.9 71.55 109.3 68.7 109.3 68.5 109.45 67.95 110.25 67.45 110.7 65.1 106.25 65.5 105.85 65.85 105.55 66.55 104.35 67.05 103.25 Q67.75 101.75 67.8 100.05 L67.8 99.3 67.6 96.85 Q67.35 95.4 66.6 94.15 L65.85 93.0 65.1 92.3 Q64.4 91.45 63.4 91.0 62.35 90.5 61.0 90.4 58.65 90.5 56.9 92.05 L55.7 90.1 51.55 87.6 51.75 87.3 Q52.9 85.7 54.25 84.75 57.15 82.45 60.7 82.35 L61.45 82.35 Q63.8 82.45 65.85 83.5 L68.35 85.2 71.75 91.75 72.9 91.75 73.8 94.5 M58.85 95.4 Q59.9 94.3 61.45 94.15 L62.75 94.5 63.65 95.25 64.0 95.7 64.45 96.4 64.95 97.7 65.1 99.05 65.1 99.5 64.75 101.25 64.45 101.9 64.0 102.55 63.85 102.7 63.4 103.25 58.85 95.4" fill="#3f3f3f" fill-rule="evenodd" stroke="none"/>
    <path d="M66.9 82.35 L67.45 83.5 68.35 85.2 65.85 83.5 Q63.8 82.45 61.45 82.35 L66.9 82.35 M65.85 83.5 L67.45 83.5 65.85 83.5" fill="#454545" fill-rule="evenodd" stroke="none"/>
    <path d="M88.4 91.75 L96.7 109.3 98.1 111.6 102.7 119.05 105.85 124.15 116.6 141.65 133.0 168.3 123.3 168.3 123.45 166.05 123.45 165.4 Q123.45 158.95 121.35 153.45 119.95 149.85 117.55 146.65 L115.4 144.1 115.1 143.9 Q113.0 141.9 110.55 140.6 L110.35 140.4 109.8 140.15 Q107.65 139.35 105.25 139.05 L104.6 139.0 101.0 133.15 90.95 133.15 82.9 117.55 90.95 133.15 80.85 133.15 84.5 139.95 85.55 141.95 86.9 144.55 88.3 147.1 92.2 154.5 96.1 161.75 97.05 163.35 97.2 163.8 98.6 166.35 99.6 168.3 99.5 168.3 89.15 168.3 47.5 90.1 55.7 90.1 56.9 92.05 58.4 94.75 58.85 95.4 63.4 103.25 64.55 105.2 65.1 106.25 67.45 110.7 68.5 112.7 Q73.4 118.75 81.6 117.7 L82.9 117.55 Q88.9 116.65 85.85 109.75 L85.7 109.3 84.75 109.3 84.45 108.7 84.9 106.8 Q85.95 103.9 86.25 100.65 L86.3 99.15 86.25 97.05 85.8 94.5 84.95 91.75 88.4 91.75" fill="#989898" fill-rule="evenodd" stroke="none"/>
    <path d="M98.1 111.6 L104.0 111.6 108.7 119.5 111.6 124.6 116.95 133.6 Q118.15 138.55 117.25 140.6 L116.6 141.65 105.85 124.15 102.7 119.05 98.1 111.6 M39.45 109.3 L46.25 109.3 52.0 120.35 66.9 148.95 71.55 157.9 64.75 157.9 45.45 120.7 39.45 109.3 M45.45 120.7 L52.0 120.35 45.45 120.7 M108.7 119.5 L102.7 119.05 108.7 119.5 M111.6 124.6 L105.85 124.15 111.6 124.6" fill="#b6b6b6" fill-rule="evenodd" stroke="none"/>
    <path d="M90.95 133.15 L101.0 133.15 98.45 139.05 90.55 139.05 89.15 139.05 88.1 139.05 Q86.25 139.25 84.5 139.8 L84.5 139.95 80.85 133.15 90.95 133.15" fill="#3a3a3a" fill-rule="evenodd" stroke="none"/>
    <path d="M99.5 168.3 L99.6 168.3 98.6 166.35 97.2 163.8 97.35 162.4 97.35 161.75 Q97.2 157.7 94.95 154.65 L94.9 154.5 Q93.85 153.15 92.85 152.5 L92.2 152.2 90.8 151.6 88.45 147.1 88.3 147.1 86.9 144.55 85.55 141.95 87.0 144.55 87.15 144.55 Q90.05 144.55 92.85 145.9 L94.0 146.6 94.65 147.1 Q96.45 148.5 98.1 150.7 102.7 156.9 102.7 165.55 L102.7 166.6 Q102.55 167.75 102.55 168.95 102.1 172.3 101.1 175.1 L97.05 175.1 98.45 171.25 99.3 168.95 99.5 168.3 M97.05 163.35 L96.1 161.75 92.2 154.5 88.3 147.1 88.45 147.1 90.8 151.6 92.35 154.5 92.2 154.5 92.35 154.5 96.15 161.75 97.05 163.35 M63.2 171.45 L70.05 171.45 61.45 177.15 54.55 177.15 63.2 171.45 M53.35 172.45 L58.4 172.45 52.0 176.85 46.9 176.85 53.35 172.45 M87.0 144.55 L86.9 144.55 87.0 144.55 88.45 147.1 87.0 144.55 M99.3 168.95 L99.35 168.95 98.45 171.25 99.35 168.95 99.3 168.95 M96.1 161.75 L96.15 161.75 96.1 161.75 M99.35 168.95 L99.65 168.3 98.6 166.35 99.65 168.3 99.35 168.95" fill="#4f4f4f" fill-rule="evenodd" stroke="none"/>
    <path d="M28.95 175.6 L28.7 175.1 28.05 175.6 25.45 172.9 37.3 170.7 43.95 170.7 53.35 172.45 46.9 176.85 30.45 176.85 29.15 176.85 28.95 175.6" fill="#5d5d5d" fill-rule="evenodd" stroke="none"/>
    <path d="M97.2 163.8 L97.05 163.35 96.15 161.75 92.35 154.5 90.8 151.6 92.2 152.2 92.85 152.5 Q93.85 153.15 94.9 154.5 L94.95 154.65 Q97.2 157.7 97.35 161.75 L97.35 162.4 97.2 163.8" fill="#545454" fill-rule="evenodd" stroke="none"/>
    <path d="M134.5 178.45 L135.9 179.95 140.6 184.65 157.35 201.55 150.1 201.55 143.55 194.4 143.45 194.35 126.15 194.35 128.3 195.8 137.1 201.65 129.95 201.55 106.3 184.65 99.75 179.95 93.15 175.1 97.05 175.1 101.1 175.1 108.3 175.1 122.1 175.1 131.15 175.1 134.5 178.45 M106.3 184.65 L140.6 184.65 106.3 184.65 M99.75 179.95 L135.9 179.95 99.75 179.95" fill="#c6c6c6" fill-rule="evenodd" stroke="none"/>
    <path d="M128.3 195.8 L126.15 194.35 143.45 194.35 143.55 194.4 142.2 195.8 143.55 194.4 150.1 201.55 151.05 206.8 148.3 205.05 151.05 206.8 138.25 206.8 137.85 205.05 148.3 205.05 147.65 201.65 150.1 201.55 147.7 201.55 142.2 195.8 128.3 195.8" fill="#564827" fill-rule="evenodd" stroke="none"/>
    <path d="M97.95 12.85 L109.0 26.05 104.35 25.45 97.35 16.85 97.95 12.85 M108.0 32.25 L110.8 31.05 110.8 43.4 110.7 43.4 108.0 42.65 108.0 32.25 M108.4 48.7 L110.8 47.8 110.8 64.3 108.4 63.4 108.4 48.7" fill="#873d3d" fill-rule="evenodd" stroke="none"/>
    <path d="M89.2 17.0 L85.95 12.85 97.95 12.85 97.35 16.85 89.2 17.0 M96.45 26.05 L96.0 25.5 104.35 25.45 109.0 26.05 96.45 26.05 M99.0 32.3 L98.75 30.95 110.8 30.95 110.8 31.05 108.0 32.25 99.0 32.3 M101.0 42.65 L108.0 42.65 110.7 43.4 101.25 43.4 101.0 42.65 M102.2 48.7 L102.05 47.8 110.8 47.8 108.4 48.7 102.2 48.7 M105.35 64.3 L105.2 63.5 108.4 63.4 110.8 64.3 105.35 64.3" fill="#562727" fill-rule="evenodd" stroke="none"/>
    <path d="M96.0 25.5 L89.2 17.0 97.35 16.85 104.35 25.45 96.0 25.5" fill="url(#gradient0)" fill-rule="evenodd" stroke="none"/>
    <path d="M99.0 32.3 L108.0 32.25 108.0 42.65 101.0 42.65 99.0 32.3" fill="url(#gradient1)" fill-rule="evenodd" stroke="none"/>
    <path d="M102.2 48.7 L108.4 48.7 108.4 63.4 105.2 63.5 102.2 48.7" fill="url(#gradient2)" fill-rule="evenodd" stroke="none"/>
    <path d="M85.8 94.5 L86.25 97.05 86.3 99.15 86.25 100.65 74.2 100.65 86.25 100.65 Q85.95 103.9 84.9 106.8 L84.45 106.8 72.9 106.8 84.45 106.8 84.45 108.7 83.9 109.3 81.7 109.3 71.55 109.3 71.75 108.9 72.9 106.8 Q74.0 103.9 74.2 100.65 L74.2 99.15 Q74.2 96.85 73.8 94.5 L85.8 94.5 73.8 94.5 72.9 91.75 84.95 91.75 85.8 94.5" fill="url(#gradient3)" fill-rule="evenodd" stroke="none"/>
    <path d="M46.4 73.65 L45.9 71.9 45.35 69.8 52.6 70.95 53.7 74.8 46.4 73.65 M43.4 62.8 L50.75 63.85 51.55 67.15 44.25 65.95 43.4 62.8" fill="url(#gradient4)" fill-rule="evenodd" stroke="none"/>
    <path d="M58.4 94.75 L56.9 92.05 Q58.65 90.5 61.0 90.4 62.35 90.5 63.4 91.0 64.4 91.45 65.1 92.3 L65.85 93.0 66.6 94.15 Q67.35 95.4 67.6 96.85 L67.8 99.3 67.8 100.05 Q67.75 101.75 67.05 103.25 L66.55 104.35 65.85 105.55 65.5 105.85 65.1 106.25 64.55 105.2 65.7 104.05 65.85 103.85 66.55 102.85 66.9 102.1 Q67.35 101.0 67.35 99.75 L67.35 99.15 67.2 97.3 66.55 95.4 65.85 94.45 65.4 94.0 Q64.75 93.3 64.1 93.0 L62.35 92.5 Q60.05 92.65 58.55 94.45 L58.4 94.75" fill="url(#gradient5)" fill-rule="evenodd" stroke="none"/>
    <path d="M71.55 109.3 L81.7 109.3 81.45 109.45 68.5 109.45 81.45 109.45 80.95 110.25 Q80.55 110.65 80.4 111.45 80.1 113.45 81.6 117.7 73.4 118.75 68.5 112.7 L67.45 110.7 67.95 110.25 68.5 109.45 68.7 109.3 71.55 109.3" fill="url(#gradient6)" fill-rule="evenodd" stroke="none"/>
    <path d="M19.7 138.45 L19.7 138.4 20.3 138.1 19.7 138.45" fill="url(#gradient7)" fill-rule="evenodd" stroke="none"/>
    <path d="M20.8 137.8 L25.75 134.85 Q25.0 136.2 24.75 137.35 24.45 138.0 24.45 138.85 24.3 140.4 25.65 145.25 L34.9 164.7 34.9 167.75 25.75 169.65 16.55 150.25 Q15.45 146.65 15.75 143.9 15.95 141.9 17.9 140.0 L19.7 138.45 20.3 138.1 20.8 137.8" fill="url(#gradient8)" fill-rule="evenodd" stroke="none"/>
    <path d="M35.9 125.45 L38.1 130.25 35.75 125.45 35.9 125.45" fill="url(#gradient9)" fill-rule="evenodd" stroke="none"/>
    <path d="M85.55 141.95 L84.5 139.95 84.5 139.8 Q86.25 139.25 88.1 139.05 L89.15 139.05 90.55 139.05 Q92.75 139.15 94.9 139.95 L95.95 140.3 96.7 140.6 97.05 140.75 98.4 141.5 100.1 142.85 101.25 143.95 101.4 144.1 103.7 146.8 Q105.95 149.95 107.4 153.45 L108.3 156.3 Q109.05 158.95 109.35 161.75 L109.5 164.35 109.5 165.45 109.5 166.05 109.35 168.95 108.3 175.1 101.1 175.1 Q102.1 172.3 102.55 168.95 102.55 167.75 102.7 166.6 L102.7 165.55 Q102.7 156.9 98.1 150.7 96.45 148.5 94.65 147.1 L94.0 146.6 92.85 145.9 Q90.05 144.55 87.15 144.55 L87.0 144.55 85.55 141.95" fill="url(#gradient10)" fill-rule="evenodd" stroke="none"/>
    <path d="M105.25 139.05 Q107.65 139.35 109.8 140.15 L110.35 140.4 110.55 140.6 Q113.0 141.9 115.1 143.9 L115.4 144.1 117.55 146.65 Q119.95 149.85 121.35 153.45 123.45 158.95 123.45 165.4 L123.45 166.05 123.3 168.3 Q123.0 171.85 122.2 175.0 L122.1 175.1 108.3 175.1 109.35 168.95 109.5 166.05 109.5 165.45 109.5 164.35 109.35 161.75 Q109.05 158.95 108.3 156.3 L107.4 153.45 Q105.95 149.95 103.7 146.8 L101.4 144.1 101.25 143.95 100.1 142.85 98.4 141.5 97.05 140.75 96.7 140.6 95.95 140.3 94.9 139.95 Q92.75 139.15 90.55 139.05 L98.45 139.05 101.7 139.05 104.6 139.05 105.25 139.05 M115.1 143.9 L101.25 143.95 115.1 143.9 M109.8 140.15 L95.95 140.3 109.8 140.15 M121.35 153.45 L107.4 153.45 121.35 153.45 M123.45 166.05 L109.5 166.05 123.45 166.05" fill="url(#gradient11)" fill-rule="evenodd" stroke="none"/>
    <path d="M128.3 195.8 L142.2 195.8 147.7 201.55 147.65 201.55 147.65 201.65 137.1 201.65 128.3 195.8" fill="url(#gradient12)" fill-rule="evenodd" stroke="none"/>
    <path d="M147.65 201.65 L148.3 205.05 137.85 205.05 137.1 201.65 147.65 201.65" fill="url(#gradient13)" fill-rule="evenodd" stroke="none"/>
    <path d="M62.6 0.0 L98.75 0.0 100.95 3.2 M89.2 17.0 L85.95 12.85 97.95 12.85 109.0 26.05 110.85 28.35 111.0 28.35 M113.55 28.35 L113.55 28.25 105.05 16.85 98.75 9.25 79.75 9.25 86.1 16.85 95.2 28.35 M98.15 28.35 L96.45 26.05 96.0 25.5 89.2 17.0 M97.35 16.85 L97.95 12.85 M95.1 28.35 L94.95 28.25 95.05 28.35 M108.0 32.25 L110.8 31.05 M98.15 28.35 L110.8 28.35 110.85 28.35 M113.6 28.35 L113.55 28.25 M104.35 25.45 L109.0 26.05 96.45 26.05 M108.0 42.65 L110.7 43.4 110.8 43.4 M108.4 48.7 L110.8 47.8 M101.25 43.4 L110.7 43.4 M95.1 28.35 L102.8 67.45 113.7 67.45 113.6 28.35 M105.35 64.3 L110.8 64.3 108.4 63.4 M60.2 33.7 L50.2 22.15 19.45 17.0 16.7 26.35 8.45 24.9 M46.1 46.25 L46.55 46.45 56.6 48.1 70.65 77.95 79.75 77.95 M10.45 15.5 L19.45 17.0 M142.2 195.8 L143.55 194.4 M148.3 205.05 L151.05 206.8" fill="none" stroke="#000000" stroke-linecap="round" stroke-linejoin="round" stroke-opacity="0.3019608" stroke-width="0.1"/>
    <path d="M100.95 3.2 L111.95 16.85 117.85 24.15 M121.3 28.4 L121.3 28.5 121.0 38.8 120.9 41.5 120.85 43.4 120.85 44.3 120.85 45.3 120.75 47.15 120.4 58.4 119.75 83.55 111.6 91.75 94.75 91.75 88.4 91.75 96.7 109.3 98.1 111.6 104.0 111.6 108.7 119.5 111.6 124.6 116.95 133.6 Q118.15 138.55 117.25 140.6 L116.6 141.65 133.0 168.3 134.5 178.45 135.9 179.95 140.6 184.65 157.35 201.55 159.8 208.6 128.1 208.6 94.9 208.6 85.85 208.6 77.0 208.6 69.6 208.6 65.25 208.6 25.2 211.85 8.65 211.85 8.65 208.6 0.0 208.6 5.15 189.8 28.95 175.6 28.7 175.1 M28.05 175.6 L25.45 172.9 14.85 151.05 12.25 145.9 Q8.5 136.5 11.2 130.6 L11.2 122.8 Q11.25 121.05 12.0 120.2 L11.7 120.5 Q6.05 96.9 25.5 90.8 L23.05 80.25 34.6 67.2 32.45 61.1 28.7 60.55 19.0 42.05 13.0 41.1 7.4 30.3 8.45 24.9 10.45 15.5 31.25 5.65 62.5 0.0 62.6 0.0 M105.05 16.85 L111.95 16.85 M111.0 28.35 L113.55 28.35 113.6 28.35 121.15 28.35 117.85 24.15 M95.2 28.35 L98.15 28.35 M95.1 28.35 L95.2 28.35 M95.05 28.35 L95.1 28.35 M95.05 28.35 L86.75 28.35 100.25 83.55 119.75 83.55 M98.75 30.95 L99.0 32.3 101.0 42.65 108.0 42.65 M110.8 31.05 L110.8 30.95 110.8 28.35 M98.75 30.95 L98.15 28.35 M121.15 28.35 L121.3 28.5 M121.15 28.35 L121.3 28.35 M110.8 43.4 L110.8 31.05 M102.05 47.8 L102.2 48.7 108.4 48.7 M121.0 38.8 L120.85 41.5 120.9 41.5 M120.85 43.4 L120.85 41.5 M101.0 42.65 L101.25 43.4 M96.0 25.5 L104.35 25.45 M105.2 63.5 L105.35 64.3 M108.4 63.4 L105.2 63.5 102.2 48.7 M84.95 91.75 L88.4 91.75 M86.25 100.65 L86.3 99.15 86.25 97.05 85.8 94.5 73.8 94.5 Q74.2 96.85 74.2 99.15 L74.2 100.65 86.25 100.65 Q85.95 103.9 84.9 106.8 L84.45 108.7 84.75 109.3 M85.7 109.3 L85.85 109.75 Q88.9 116.65 82.9 117.55 L90.95 133.15 101.0 133.15 104.6 139.0 105.25 139.05 Q107.65 139.35 109.8 140.15 L110.35 140.4 110.55 140.6 Q113.0 141.9 115.1 143.9 L115.4 144.1 117.55 146.65 Q119.95 149.85 121.35 153.45 123.45 158.95 123.45 165.4 L123.45 166.05 123.3 168.3 133.0 168.3 M85.8 94.5 L84.95 91.75 72.9 91.75 73.8 94.5 M94.75 91.75 L100.25 83.55 M110.8 64.3 L110.8 47.8 M86.75 28.35 L77.0 16.85 76.9 16.85 80.95 37.0 60.2 33.7 M76.9 16.85 L62.5 0.0 M46.55 46.45 L45.95 46.25 45.9 46.25 36.95 44.9 27.95 43.4 19.0 42.05 13.3 31.35 7.4 30.3 M79.75 77.95 L77.95 70.1 85.1 59.3 76.15 41.7 40.3 35.6 45.9 46.25 M75.7 43.5 L83.35 59.7 76.0 69.95 77.5 76.4 71.9 76.45 58.8 46.9 47.0 45.05 43.25 38.05 75.7 43.5 M40.3 35.6 L31.25 34.1 36.95 44.9 M13.3 31.35 L22.3 32.65 31.25 34.1 M27.95 43.4 L22.3 32.65 M36.95 83.5 L37.0 83.5 M44.0 83.5 L44.85 83.5 51.55 87.6 51.75 87.3 Q52.9 85.7 54.25 84.75 L48.5 81.4 47.45 77.65 46.4 73.65 45.9 71.9 44.3 71.45 M36.95 83.5 L36.65 83.5 M29.55 90.5 L31.4 97.65 M24.85 104.45 L22.1 114.95 23.55 115.2 33.55 109.3 M46.25 109.3 L52.0 120.35 66.9 148.95 73.35 150.75 79.15 166.75 69.8 182.4 56.1 182.4 57.35 185.95 62.9 185.65 66.45 200.45 63.95 204.7 65.25 208.6 M25.5 90.8 L25.8 91.9 27.45 94.35 Q26.95 94.5 26.5 94.95 L26.85 96.25 27.1 97.35 27.25 98.1 27.95 101.25 M32.45 61.1 L43.2 62.8 43.4 62.8 50.75 63.85 57.8 65.1 65.1 78.9 65.95 80.55 66.9 82.35 67.45 83.5 68.35 85.2 71.75 91.75 72.9 91.75 M44.25 65.95 L45.35 69.8 52.6 70.95 51.55 67.15 44.25 65.95 43.4 62.8 M45.9 71.9 L45.35 69.8 M50.75 63.85 L51.55 67.15 M61.45 82.35 L60.7 82.35 Q57.15 82.45 54.25 84.75 M53.7 74.8 L54.25 77.15 65.1 78.9 M65.95 80.55 L47.65 77.65 47.45 77.65 M56.9 92.05 L58.4 94.75 58.55 94.45 Q60.05 92.65 62.35 92.5 L64.1 93.0 Q64.75 93.3 65.4 94.0 L65.85 94.45 66.55 95.4 67.2 97.3 67.35 99.15 67.35 99.75 Q67.35 101.0 66.9 102.1 L66.55 102.85 65.85 103.85 65.7 104.05 64.55 105.2 65.1 106.25 65.5 105.85 65.85 105.55 66.55 104.35 67.05 103.25 Q67.75 101.75 67.8 100.05 L67.8 99.3 67.6 96.85 Q67.35 95.4 66.6 94.15 L65.85 93.0 65.1 92.3 Q64.4 91.45 63.4 91.0 62.35 90.5 61.0 90.4 58.65 90.5 56.9 92.05 L55.7 90.1 47.5 90.1 89.15 168.3 99.5 168.3 99.6 168.3 98.6 166.35 97.2 163.8 97.05 163.35 96.1 161.75 92.2 154.5 88.3 147.1 86.9 144.55 85.55 141.95 84.5 139.95 80.85 133.15 90.95 133.15 M58.4 94.75 L58.85 95.4 Q59.9 94.3 61.45 94.15 L62.75 94.5 63.65 95.25 64.0 95.7 64.45 96.4 64.95 97.7 65.1 99.05 65.1 99.5 64.75 101.25 64.45 101.9 64.0 102.55 63.85 102.7 63.4 103.25 64.55 105.2 M51.55 87.6 L55.7 90.1 M68.35 85.2 L65.85 83.5 Q63.8 82.45 61.45 82.35 L66.9 82.35 M67.45 83.5 L65.85 83.5 M52.6 70.95 L53.7 74.8 46.4 73.65 M47.5 90.1 Q38.35 83.9 36.95 83.5 M74.2 100.65 Q74.0 103.9 72.9 106.8 L84.45 106.8 84.9 106.8 M72.9 106.8 L71.75 108.9 71.55 109.3 M83.9 109.3 L84.45 108.7 84.45 106.8 M68.7 109.3 L68.5 109.45 81.45 109.45 81.7 109.3 M67.45 110.7 L67.95 110.25 68.5 109.45 M65.1 106.25 L67.45 110.7 68.5 112.7 Q73.4 118.75 81.6 117.7 M52.0 120.35 L45.45 120.7 64.75 157.9 71.55 157.9 66.9 148.95 M22.1 114.95 L21.55 116.75 22.0 118.85 18.2 119.05 18.2 120.7 18.2 124.15 18.2 125.6 18.2 126.5 Q19.3 124.2 21.4 122.35 L21.4 122.25 27.55 118.85 23.65 115.2 23.55 115.2 M21.55 116.75 L21.05 115.05 Q17.15 101.9 27.25 98.1 M21.05 115.05 L22.1 114.95 M31.7 116.45 L31.8 116.45 39.45 109.3 45.45 120.7 35.9 125.45 54.85 160.85 64.75 157.9 63.2 171.45 70.05 171.45 71.55 157.9 M31.7 116.45 Q29.15 118.85 28.25 121.5 27.45 124.35 28.5 127.4 L30.05 131.05 44.75 163.75 54.85 160.85 53.35 172.45 58.55 171.85 63.2 171.45 54.55 177.15 61.45 177.15 70.05 171.45 M27.55 118.85 L31.7 116.45 M12.0 120.2 Q13.05 119.3 14.9 119.35 10.65 98.1 26.5 94.95 13.15 99.35 17.7 118.6 L17.85 119.5 18.2 119.05 M15.05 119.35 L14.9 119.35 M16.7 119.05 L16.8 119.3 16.7 119.3 18.2 120.7 17.1 118.9 17.7 118.6 M16.7 119.3 L16.25 119.5 15.05 119.35 16.7 119.05 M18.2 125.6 L16.2 127.95 15.35 133.85 12.75 136.05 11.2 130.6 Q12.25 128.15 14.4 126.3 L18.2 124.15 M27.55 118.85 L23.25 124.0 22.4 129.75 19.75 132.05 18.2 126.5 M14.85 151.05 Q13.75 147.5 14.0 144.8 14.25 142.7 15.15 141.05 15.95 139.55 17.25 138.45 L19.85 137.05 19.9 136.9 20.15 136.8 Q25.05 134.0 29.9 131.15 L30.0 131.15 30.05 131.05 M19.7 138.45 L19.7 138.4 20.3 138.1 20.35 138.0 20.8 137.8 25.75 134.85 Q25.0 136.2 24.75 137.35 24.45 138.0 24.45 138.85 24.3 140.4 25.65 145.25 L34.9 164.7 34.9 167.75 25.75 169.65 16.55 150.25 Q15.45 146.65 15.75 143.9 15.95 141.9 17.9 140.0 L19.7 138.45 20.3 138.1 20.8 137.8 M19.85 137.05 L20.15 136.8 M29.9 131.15 L29.85 131.2 Q28.05 132.95 27.55 134.85 L27.3 136.45 Q27.1 138.1 27.85 139.8 L32.1 150.15 32.15 150.15 32.1 150.25 38.1 163.75 44.75 163.75 Q45.65 166.6 44.75 169.05 L43.95 170.7 53.35 172.45 58.4 172.45 58.55 171.85 M32.1 150.25 L32.1 150.15 M38.1 163.75 Q38.65 167.45 37.8 169.7 L37.3 170.7 43.95 170.7 M37.3 170.7 L25.45 172.9 M35.3 180.3 L30.9 180.3 8.65 199.35 25.2 199.35 55.3 180.3 51.3 180.3 35.3 180.3 34.45 177.15 30.65 177.15 30.45 176.85 29.15 176.85 28.95 175.6 M54.55 177.15 L46.7 177.15 51.3 180.3 M56.1 182.4 L55.3 180.3 M46.9 176.85 L30.45 176.85 M53.35 172.45 L46.9 176.85 M46.7 177.15 L34.45 177.15 M102.7 119.05 L108.7 119.5 M82.9 117.55 L81.6 117.7 M84.5 139.95 L84.5 139.8 Q86.25 139.25 88.1 139.05 L89.15 139.05 90.55 139.05 98.45 139.05 101.0 133.15 M85.55 141.95 L87.0 144.55 87.15 144.55 Q90.05 144.55 92.85 145.9 L94.0 146.6 94.65 147.1 Q96.45 148.5 98.1 150.7 102.7 156.9 102.7 165.55 L102.7 166.6 Q102.55 167.75 102.55 168.95 102.1 172.3 101.1 175.1 L108.3 175.1 109.35 168.95 109.5 166.05 109.5 165.45 109.5 164.35 109.35 161.75 Q109.05 158.95 108.3 156.3 L107.4 153.45 Q105.95 149.95 103.7 146.8 L101.4 144.1 101.25 143.95 100.1 142.85 98.4 141.5 97.05 140.75 96.7 140.6 95.95 140.3 94.9 139.95 Q92.75 139.15 90.55 139.05 M90.8 151.6 L88.45 147.1 88.3 147.1 M87.0 144.55 L88.45 147.1 M86.9 144.55 L87.0 144.55 M101.7 139.05 L103.4 138.9 104.6 139.0 104.6 139.05 105.25 139.05 M101.7 139.05 L104.6 139.05 M105.85 124.15 L111.6 124.6 M101.25 143.95 L115.1 143.9 M116.6 141.65 L105.85 124.15 102.7 119.05 98.1 111.6 M95.95 140.3 L109.8 140.15 M98.45 139.05 L101.7 139.05 M107.4 153.45 L121.35 153.45 M90.8 151.6 L92.2 152.2 92.85 152.5 Q93.85 153.15 94.9 154.5 L94.95 154.65 Q97.2 157.7 97.35 161.75 L97.35 162.4 97.2 163.8 M92.2 154.5 L92.35 154.5 90.8 151.6 M96.15 161.75 L96.1 161.75 M98.45 171.25 L99.35 168.95 99.3 168.95 98.45 171.25 97.05 175.1 101.1 175.1 M99.3 168.95 L99.5 168.3 M98.6 166.35 L99.65 168.3 99.35 168.95 M92.35 154.5 L96.15 161.75 97.05 163.35 M89.9 192.0 L89.5 192.0 M99.75 179.95 L93.15 175.1 77.0 208.6 M93.15 175.1 L97.05 175.1 M106.3 184.65 L99.75 179.95 85.85 208.6 M143.55 194.4 L143.45 194.35 126.15 194.35 128.3 195.8 142.2 195.8 M143.55 194.4 L150.1 201.55 157.35 201.55 M122.1 175.1 L131.15 175.1 134.5 178.45 M123.3 168.3 Q123.0 171.85 122.2 175.0 L122.1 175.1 108.3 175.1 M140.6 184.65 L106.3 184.65 129.95 201.55 137.1 201.65 128.3 195.8 M135.9 179.95 L99.75 179.95 M109.5 166.05 L123.45 166.05 M58.85 95.4 L63.4 103.25 M77.0 16.85 L86.1 16.85 M151.05 206.8 L150.1 201.55 147.65 201.65 148.3 205.05 M151.05 206.8 L138.25 206.8 137.85 205.05 137.1 201.65 147.65 201.65 147.65 201.55 147.7 201.55 142.2 195.8 M128.1 208.6 L129.95 201.55 M137.85 205.05 L148.3 205.05 M25.2 199.35 L25.2 211.85 M8.65 199.35 L8.65 208.6 M63.95 204.7 L57.35 185.95 M89.15 168.3 L69.6 208.6 M106.3 184.65 L94.9 208.6" fill="none" stroke="#000000" stroke-width="0.7" stroke-opacity="0.4"/>
    <path d="M89.2 17.0 L97.35 16.85 M99.0 32.3 L108.0 32.25 M110.8 30.95 L98.75 30.95 M108.0 42.65 L108.0 32.25 M110.8 47.8 L102.05 47.8 M104.35 25.45 L97.35 16.85 M108.4 48.7 L108.4 63.4" fill="none" stroke="#000000" stroke-linecap="round" stroke-linejoin="round" stroke-opacity="0.29803923" stroke-width="0.05"/>
    <path d="M45.95 46.25 L46.1 46.25 53.4 47.15" fill="none" stroke="#454545" stroke-linecap="round" stroke-linejoin="round" stroke-opacity="0.3019608" stroke-width="0.1"/>
  </g>
  <defs>
    <linearGradient gradientTransform="matrix(-0.0137, 3.0E-4, -1.0E-4, -0.0054, 89.2, 21.4)" gradientUnits="userSpaceOnUse" id="gradient0" spreadMethod="pad" x1="-819.2" x2="819.2">
      <stop offset="0.0" stop-color="#cb0000"/>
      <stop offset="0.36470588235294116" stop-color="#ff0000"/>
      <stop offset="0.807843137254902" stop-color="#b40000"/>
    </linearGradient>
    <linearGradient gradientTransform="matrix(-0.0098, 7.0E-4, -5.0E-4, -0.0067, 97.1, 37.95)" gradientUnits="userSpaceOnUse" id="gradient1" spreadMethod="pad" x1="-819.2" x2="819.2">
      <stop offset="0.0" stop-color="#cb0000"/>
      <stop offset="0.36470588235294116" stop-color="#ff0000"/>
      <stop offset="0.807843137254902" stop-color="#b40000"/>
    </linearGradient>
    <linearGradient gradientTransform="matrix(-0.0088, 4.0E-4, -4.0E-4, -0.0091, 99.1, 56.2)" gradientUnits="userSpaceOnUse" id="gradient2" spreadMethod="pad" x1="-819.2" x2="819.2">
      <stop offset="0.0" stop-color="#cb0000"/>
      <stop offset="0.36470588235294116" stop-color="#ff0000"/>
      <stop offset="0.807843137254902" stop-color="#b40000"/>
    </linearGradient>
    <linearGradient gradientTransform="matrix(0.0, -0.0131, 0.0105, 0.0, 77.35, 103.05)" gradientUnits="userSpaceOnUse" id="gradient3" spreadMethod="pad" x1="-819.2" x2="819.2">
      <stop offset="0.08235294117647059" stop-color="#333333"/>
      <stop offset="0.6392156862745098" stop-color="#bcbcbc"/>
      <stop offset="1.0" stop-color="#929292"/>
    </linearGradient>
    <linearGradient gradientTransform="matrix(6.0E-4, -0.004, 0.0052, 8.0E-4, 47.7, 62.55)" gradientUnits="userSpaceOnUse" id="gradient4" spreadMethod="pad" x1="-819.2" x2="819.2">
      <stop offset="0.0" stop-color="#cb0000"/>
      <stop offset="0.36470588235294116" stop-color="#ff0000"/>
      <stop offset="0.807843137254902" stop-color="#b40000"/>
    </linearGradient>
    <radialGradient cx="0" cy="0" gradientTransform="matrix(0.0206, 0.0, 0.0, 0.0186, 64.3, 105.0)" gradientUnits="userSpaceOnUse" id="gradient5" r="819.2" spreadMethod="pad">
      <stop offset="0.0196078431372549" stop-color="#585858"/>
      <stop offset="0.7686274509803922" stop-color="#333333"/>
    </radialGradient>
    <linearGradient gradientTransform="matrix(0.0, -0.0155, 0.0114, 0.0, 76.6, 99.35)" gradientUnits="userSpaceOnUse" id="gradient6" spreadMethod="pad" x1="-819.2" x2="819.2">
      <stop offset="0.08235294117647059" stop-color="#333333"/>
      <stop offset="0.6392156862745098" stop-color="#bcbcbc"/>
      <stop offset="1.0" stop-color="#929292"/>
    </linearGradient>
    <radialGradient cx="0" cy="0" gradientTransform="matrix(0.0322, 0.0, 0.0, 0.0322, 17.2, 141.95)" gradientUnits="userSpaceOnUse" id="gradient7" r="819.2" spreadMethod="pad">
      <stop offset="0.0" stop-color="#00bfff"/>
      <stop offset="1.0" stop-color="#005fc9"/>
    </radialGradient>
    <linearGradient gradientTransform="matrix(0.0112, -0.0062, 0.0098, 0.0178, 33.85, 149.25)" gradientUnits="userSpaceOnUse" id="gradient8" spreadMethod="pad" x1="-819.2" x2="819.2">
      <stop offset="0.0" stop-color="#cb0000"/>
      <stop offset="0.36470588235294116" stop-color="#ff0000"/>
      <stop offset="0.807843137254902" stop-color="#b40000"/>
    </linearGradient>
    <radialGradient cx="0" cy="0" gradientTransform="matrix(0.0531, 0.0, 0.0, 0.0531, 39.3, 114.65)" gradientUnits="userSpaceOnUse" id="gradient9" r="819.2" spreadMethod="pad">
      <stop offset="0.0" stop-color="#00bfff"/>
      <stop offset="1.0" stop-color="#005fc9"/>
    </radialGradient>
    <linearGradient gradientTransform="matrix(4.0E-4, -0.0333, 0.0116, 1.0E-4, 105.7, 161.1)" gradientUnits="userSpaceOnUse" id="gradient10" spreadMethod="pad" x1="-819.2" x2="819.2">
      <stop offset="0.08235294117647059" stop-color="#333333"/>
      <stop offset="0.6392156862745098" stop-color="#777777"/>
      <stop offset="1.0" stop-color="#929292"/>
    </linearGradient>
    <linearGradient gradientTransform="matrix(4.0E-4, -0.0333, 0.0116, 1.0E-4, 105.7, 161.1)" gradientUnits="userSpaceOnUse" id="gradient11" spreadMethod="pad" x1="-819.2" x2="819.2">
      <stop offset="0.08235294117647059" stop-color="#484848"/>
      <stop offset="0.6392156862745098" stop-color="#9f9f9f"/>
      <stop offset="1.0" stop-color="#bdbdbd"/>
    </linearGradient>
    <linearGradient gradientTransform="matrix(-0.0094, -4.0E-4, 1.0E-4, -0.0036, 133.9, 198.4)" gradientUnits="userSpaceOnUse" id="gradient12" spreadMethod="pad" x1="-819.2" x2="819.2">
      <stop offset="0.0" stop-color="#cb0000"/>
      <stop offset="0.36470588235294116" stop-color="#ff0000"/>
      <stop offset="0.807843137254902" stop-color="#b40000"/>
    </linearGradient>
    <linearGradient gradientTransform="matrix(-0.0022, -0.01, 0.0061, -0.0013, 141.05, 196.0)" gradientUnits="userSpaceOnUse" id="gradient13" spreadMethod="pad" x1="-819.2" x2="819.2">
      <stop offset="0.0" stop-color="#cb0000"/>
      <stop offset="0.36470588235294116" stop-color="#ff0000"/>
      <stop offset="0.807843137254902" stop-color="#b40000"/>
    </linearGradient>
  </defs>
</svg>
