<?xml version="1.0" encoding="UTF-8" standalone="no"?>
<svg xmlns:xlink="http://www.w3.org/1999/xlink" height="77.7px" width="192.05px" xmlns="http://www.w3.org/2000/svg">
  <g transform="matrix(1.0, 0.0, 0.0, 1.0, 0.05, 0.05)">
    <use height="77.7" transform="matrix(1.0, 0.0, 0.0, 1.0, -0.05, -0.05)" width="192.05" xlink:href="#shape0"/>
  </g>
  <defs>
    <g id="shape0" transform="matrix(1.0, 0.0, 0.0, 1.0, 0.05, 0.05)">
      <path d="M184.75 19.15 L186.4 21.55 181.05 21.55 179.4 19.15 184.75 19.15 M174.5 68.55 L168.1 69.55 164.65 69.55 171.1 68.55 174.5 68.55 M151.7 72.75 L151.1 72.75 148.65 72.75 147.65 72.75 147.1 72.75 147.3 72.55 148.65 70.75 149.2 70.0 149.55 70.35 149.65 70.45 149.8 70.65 150.3 71.2 150.6 71.55 151.7 72.75 M85.3 75.2 L71.3 75.2 69.55 70.35 68.65 71.1 68.15 69.6 66.35 71.1 65.8 69.6 64.0 71.1 63.45 69.6 61.65 71.1 61.15 69.6 59.35 71.1 58.8 69.6 57.0 71.1 56.5 69.6 54.7 71.1 54.2 69.6 52.4 71.1 51.85 69.6 50.05 71.1 49.55 69.6 47.75 71.1 47.2 69.6 45.4 71.1 44.85 69.6 43.05 71.1 42.65 69.9 42.55 69.6 40.75 71.1 40.25 69.6 38.45 71.1 35.5 71.1 34.25 75.2 26.0 75.2 24.55 71.1 21.0 71.1 20.1 68.35 24.1 68.35 27.8 68.35 25.35 64.15 22.2 58.9 20.05 55.15 18.7 52.95 22.1 48.35 22.4 47.9 23.05 47.05 18.9 47.05 5.0 47.05 5.85 45.8 0.0 38.85 0.0 37.5 0.0 31.2 2.0 28.15 8.95 28.15 8.85 28.3 8.45 28.9 7.9 29.8 7.35 30.65 27.65 30.65 27.1 31.75 27.1 35.4 7.35 35.4 7.25 36.05 7.05 37.5 6.4 41.5 22.45 41.5 22.45 41.55 Q22.0 42.1 22.0 42.9 L22.0 43.0 Q22.05 43.75 22.45 44.25 22.8 44.8 23.5 44.8 L24.0 44.7 24.15 45.95 22.2 45.95 22.05 45.8 19.5 43.8 7.6 43.8 2.3 37.5 7.05 37.5 2.3 37.5 7.6 43.8 19.5 43.8 22.05 45.8 22.2 45.95 24.15 45.95 24.0 44.7 24.45 44.45 24.55 44.25 25.0 42.9 Q25.0 42.1 24.55 41.55 L24.5 41.5 26.25 41.5 26.25 41.55 Q25.75 42.1 25.75 42.9 25.75 43.7 26.25 44.25 26.7 44.8 27.25 44.8 L28.35 44.25 Q28.85 43.7 28.85 42.9 28.85 42.1 28.35 41.55 L28.35 41.5 29.65 41.5 30.15 45.2 30.7 49.4 31.6 56.7 32.0 59.7 26.5 59.7 25.85 59.0 25.85 58.9 25.85 59.0 26.5 59.7 32.0 59.7 34.3 62.25 34.65 62.65 29.05 62.65 29.05 62.6 27.5 60.9 27.05 60.3 26.5 59.7 27.05 60.3 27.5 60.9 29.05 62.6 29.05 62.65 34.65 62.65 36.0 64.15 36.05 64.25 36.4 64.65 38.5 64.65 40.8 64.65 43.15 64.65 45.5 64.65 47.8 64.65 50.15 64.65 50.3 64.65 52.45 64.65 54.75 64.65 57.1 64.65 59.4 64.65 59.6 64.65 59.65 64.65 61.75 64.65 64.1 64.65 65.8 69.6 64.1 64.65 66.4 64.65 68.7 64.65 70.45 69.6 68.7 64.65 71.05 64.65 73.35 64.65 73.55 64.65 75.65 64.65 76.3 66.6 80.95 66.6 81.85 69.1 83.75 69.1 81.85 69.1 80.95 66.6 76.3 66.6 77.4 69.6 77.95 71.1 82.8 71.1 86.6 71.1 85.3 75.2 M14.3 20.0 L13.05 20.0 15.1 16.35 27.25 16.35 30.75 16.35 34.25 16.35 34.65 16.35 32.85 20.0 14.3 20.0 M19.6 9.15 L23.6 0.0 28.0 0.0 26.15 9.15 19.6 9.15 M42.4 9.15 L46.4 0.0 50.8 0.0 48.95 9.15 42.4 9.15 M166.55 19.15 L171.9 19.15 173.5 21.55 168.15 21.55 166.55 19.15 M158.55 19.15 L160.15 21.55 154.8 21.55 153.2 19.15 158.55 19.15 M146.8 35.4 L149.95 35.4 149.95 53.45 149.95 35.4 153.05 35.4 153.05 44.55 153.05 48.75 149.95 53.45 148.25 53.45 148.25 42.35 146.8 40.9 146.8 35.4 146.8 40.9 143.7 37.65 141.5 35.4 143.7 35.4 146.8 35.4 M143.7 37.65 L143.7 35.4 143.7 37.65 M98.0 64.65 L99.7 67.15 84.65 67.15 83.75 69.1 82.8 71.1 77.95 71.1 77.4 69.6 76.3 66.6 75.65 64.65 98.0 64.65 M130.15 72.75 L129.1 72.75 125.7 72.75 122.2 72.75 121.9 72.6 121.05 72.05 120.6 71.65 Q119.45 70.55 119.1 69.1 L119.05 68.35 119.05 67.4 122.5 67.4 125.95 67.4 129.3 67.4 129.35 67.55 129.3 67.4 129.35 67.4 129.35 67.55 129.35 67.6 Q129.15 70.0 130.9 71.65 L132.55 72.75 130.9 71.65 Q129.15 70.0 129.35 67.6 L129.7 68.95 130.6 69.9 131.0 70.35 131.1 70.45 131.3 70.65 131.8 71.2 132.1 71.55 133.15 72.75 132.55 72.75 130.15 72.75 M129.1 72.75 L127.5 71.65 Q125.65 69.95 125.95 67.4 125.65 69.95 127.5 71.65 L129.1 72.75 M83.6 64.9 L84.65 67.15 83.6 64.9 M149.55 69.55 L146.1 69.55 152.55 68.55 155.95 68.55 149.55 69.55 M148.65 70.75 L149.45 71.65 151.1 72.75 149.45 71.65 148.65 70.75 M147.3 72.55 L147.65 72.75 147.3 72.55 M125.7 72.75 L124.0 71.65 Q122.2 69.95 122.5 67.4 122.2 69.95 124.0 71.65 L125.7 72.75 M49.75 59.75 L49.05 59.0 49.05 58.9 47.8 49.35 47.25 45.2 53.35 45.2 53.9 49.35 55.2 59.7 55.25 59.75 49.75 59.75 55.25 59.75 57.85 62.65 52.3 62.65 49.75 59.75 M7.35 34.05 L7.35 30.65 7.35 34.05 7.35 35.4 7.35 34.05 4.1 34.05 7.35 34.05 M7.25 36.05 L1.7 36.05 1.7 34.05 1.7 31.7 3.25 29.4 5.6 29.4 4.1 31.6 4.1 34.05 1.7 34.05 4.1 34.05 4.1 31.6 5.6 29.4 3.25 29.4 1.7 31.7 1.7 34.05 1.7 36.05 7.25 36.05 M2.3 37.5 L0.0 37.5 2.3 37.5 M24.4 47.9 L24.15 45.95 24.4 47.9 24.95 52.05 24.1 52.05 Q22.9 50.3 22.1 48.35 22.9 50.3 24.1 52.05 L24.95 52.05 24.4 47.9 22.4 47.9 24.4 47.9 M5.85 45.8 L22.05 45.8 5.85 45.8 M25.5 56.7 L31.6 56.7 25.5 56.7 25.05 53.25 24.1 54.15 Q22.65 55.55 22.65 57.05 L24.1 58.9 25.85 58.9 25.55 57.05 25.5 56.7 M25.05 53.25 L24.95 52.05 25.05 53.25 M24.1 58.9 L22.2 58.9 24.1 58.9 M25.35 64.15 L36.0 64.15 25.35 64.15 M24.55 71.1 L35.5 71.1 24.55 71.1 M38.5 64.65 L40.25 69.6 38.5 64.65 M38.45 71.1 L36.05 64.25 38.45 71.1 M24.1 52.05 Q21.0 53.25 20.05 55.15 21.0 53.25 24.1 52.05 M68.15 69.6 L66.4 64.65 68.15 69.6 M69.55 70.35 L70.45 69.6 70.95 71.1 72.75 69.6 73.3 71.1 75.05 69.6 75.6 71.1 77.4 69.6 75.6 71.1 75.05 69.6 73.3 71.1 72.75 69.6 70.95 71.1 70.45 69.6 69.55 70.35 M63.45 69.6 L61.75 64.65 63.45 69.6 M75.05 69.6 L73.35 64.65 75.05 69.6 M72.75 69.6 L71.05 64.65 72.75 69.6 M47.2 69.6 L45.5 64.65 47.2 69.6 M42.55 69.6 L40.8 64.65 42.55 69.6 M47.8 64.65 L49.55 69.6 47.8 64.65 M43.15 64.65 L44.85 69.6 43.15 64.65 M57.1 64.65 L58.8 69.6 57.1 64.65 M52.45 64.65 L54.2 69.6 52.45 64.65 M56.5 69.6 L54.75 64.65 56.5 69.6 M50.15 64.65 L51.85 69.6 50.15 64.65 M61.15 69.6 L59.4 64.65 61.15 69.6" fill="#333333" fill-rule="evenodd" stroke="none"/>
      <path d="M184.75 19.15 L179.4 19.15 181.05 21.55 186.4 21.55 184.75 19.15 M175.95 17.55 L185.4 17.55 189.25 23.1 191.95 25.6 156.2 25.6 153.5 23.1 149.7 17.55 159.15 17.55 163.0 23.1 166.85 23.1 163.1 17.55 172.55 17.55 176.35 23.1 179.75 23.1 177.05 19.1 175.95 17.55 M140.65 60.9 L142.15 63.25 140.9 64.5 138.85 64.5 137.65 63.15 134.2 63.15 137.65 63.15 138.85 64.5 140.05 65.85 136.6 65.85 135.5 64.6 134.2 63.15 130.75 63.15 129.25 60.9 137.5 60.9 140.65 60.9 M152.7 63.15 L156.15 63.15 158.55 65.85 156.65 65.85 155.05 65.85 154.05 64.6 152.7 63.15 M65.35 9.15 L78.35 9.15 80.85 12.75 83.25 16.35 67.85 16.35 65.35 9.15 M94.1 9.15 L107.15 9.15 112.0 16.35 96.65 16.35 94.1 9.15 M189.25 23.1 L179.75 23.1 189.25 23.1 M166.55 19.15 L168.15 21.55 173.5 21.55 171.9 19.15 166.55 19.15 M176.35 23.1 L166.85 23.1 176.35 23.1 M158.55 19.15 L153.2 19.15 154.8 21.55 160.15 21.55 158.55 19.15 M163.0 23.1 L153.5 23.1 163.0 23.1 M116.5 42.35 L109.8 35.4 103.5 29.0 108.85 29.0 121.85 42.35 116.5 42.35 M103.75 42.35 L96.95 35.4 90.65 29.0 96.05 29.0 102.25 35.4 96.95 35.4 102.25 35.4 109.05 42.35 103.75 42.35 M108.2 13.8 L106.45 11.25 97.5 11.25 98.45 13.8 108.2 13.8 M119.05 67.4 L119.05 68.35 119.1 69.1 Q119.45 70.55 120.6 71.65 L121.05 72.05 121.9 72.6 122.2 72.75 125.7 72.75 129.1 72.75 130.15 72.75 131.1 74.25 129.9 74.25 120.95 74.25 119.7 74.25 110.75 60.9 122.1 60.9 123.65 63.25 122.4 64.5 116.95 64.5 118.0 65.95 119.05 67.4 M77.65 11.25 L68.75 11.25 69.7 13.8 79.45 13.8 77.65 11.25" fill="#b7b7b7" fill-rule="evenodd" stroke="none"/>
      <path d="M136.65 77.6 L127.1 77.6 129.15 75.2 129.9 74.25 131.1 74.25 130.15 72.75 132.55 72.75 133.15 72.75 133.85 73.5 136.85 73.5 137.75 73.5 138.25 74.25 139.5 74.25 136.65 77.6 M118.15 77.6 L108.5 77.6 106.8 75.2 105.1 75.2 100.25 68.0 99.7 67.15 98.0 64.65 96.65 62.65 93.15 57.5 93.15 55.75 93.15 46.0 91.2 44.25 88.25 41.5 87.95 41.5 84.45 41.5 81.05 41.5 77.6 41.5 74.15 41.5 70.9 41.5 70.0 41.5 66.85 41.5 29.65 41.5 28.35 41.5 26.25 41.5 24.5 41.5 22.45 41.5 6.4 41.5 7.05 37.5 7.25 36.05 7.35 35.4 27.1 35.4 96.95 35.4 27.1 35.4 27.1 31.75 27.65 30.65 28.0 29.9 28.5 28.9 29.6 26.65 30.7 24.45 31.75 22.2 32.85 20.0 34.65 16.35 37.7 16.35 39.2 12.75 61.5 12.75 63.0 9.15 61.5 12.75 39.2 12.75 37.7 16.35 34.65 16.35 34.25 16.35 30.75 16.35 27.25 16.35 15.1 16.35 13.75 16.35 16.7 9.15 19.6 9.15 26.15 9.15 29.15 9.15 30.3 9.15 33.75 9.15 37.25 9.15 40.75 9.15 42.4 9.15 48.95 9.15 52.0 9.15 63.0 9.15 65.35 9.15 67.85 16.35 60.25 31.75 64.55 31.75 70.6 19.3 81.7 19.3 83.25 16.35 80.85 12.75 90.25 12.75 91.75 9.15 90.25 12.75 80.85 12.75 78.35 9.15 91.75 9.15 94.1 9.15 96.65 16.35 95.15 19.3 81.7 19.3 95.15 19.3 110.5 19.3 117.8 19.3 119.7 17.55 122.85 17.55 126.05 17.55 129.2 17.55 132.35 17.55 135.5 17.55 149.7 17.55 153.5 23.1 156.2 25.6 156.2 44.55 156.2 49.9 151.5 56.7 148.25 56.7 142.9 56.7 137.5 60.9 129.25 60.9 130.75 63.15 123.75 63.15 123.65 63.25 122.1 60.9 110.75 60.9 119.7 74.25 120.95 74.25 118.15 77.6 M159.15 17.55 L163.1 17.55 166.85 23.1 163.0 23.1 159.15 17.55 M172.55 17.55 L175.9 17.55 177.05 19.1 179.75 23.1 176.35 23.1 172.55 17.55 M175.5 28.85 L178.15 28.85 178.15 44.55 175.5 44.55 178.15 44.55 178.15 46.75 175.5 46.75 175.5 44.55 175.5 28.85 M186.3 28.85 L188.95 28.85 188.95 44.55 186.3 44.55 186.3 28.85 M164.7 28.85 L167.35 28.85 167.35 44.55 167.35 46.75 164.7 46.75 164.7 44.55 164.7 28.85 M167.35 44.55 L164.7 44.55 167.35 44.55 M186.3 46.75 L186.3 44.55 188.95 44.55 188.95 46.75 186.3 46.75 M133.0 23.1 L129.2 17.55 133.0 23.1 136.15 23.1 132.35 17.55 136.15 23.1 139.3 23.1 135.5 17.55 139.3 23.1 136.15 23.1 133.0 23.1 129.85 23.1 133.0 23.1 M126.05 17.55 L129.85 23.1 126.7 23.1 122.85 17.55 126.7 23.1 129.85 23.1 126.05 17.55 M137.0 55.5 L138.0 55.5 140.45 53.1 140.45 43.65 137.0 43.65 135.4 43.65 135.4 55.5 137.0 55.5 M130.7 43.65 L129.1 43.65 129.1 55.5 130.7 55.5 134.15 55.5 134.15 43.65 130.7 43.65 M149.95 35.4 L146.8 35.4 143.7 35.4 141.5 35.4 143.7 37.65 146.8 40.9 148.25 42.35 148.25 53.45 149.95 53.45 153.05 48.75 153.05 44.55 153.05 35.4 149.95 35.4 M156.2 44.55 L153.05 44.55 156.2 44.55 M139.3 23.1 L153.5 23.1 139.3 23.1 M143.3 52.5 L146.75 52.5 146.75 43.65 143.3 43.65 141.7 43.65 141.7 52.5 143.3 52.5 M118.8 35.55 L141.5 35.4 118.8 35.55 112.45 29.0 116.0 23.1 112.4 23.1 107.1 23.1 103.5 29.0 109.8 35.4 116.5 42.35 116.5 56.85 121.85 56.85 125.4 56.85 125.4 42.35 118.8 35.55 M105.8 35.4 L109.8 35.4 105.8 35.4 99.65 29.0 103.2 23.1 99.6 23.1 94.3 23.1 90.65 29.0 96.95 35.4 103.75 42.35 103.75 56.85 109.05 56.85 112.6 56.85 112.6 42.35 105.85 35.5 105.8 35.4 M117.8 19.3 L120.8 23.1 120.4 23.1 120.8 23.1 117.8 19.3 M148.25 53.45 L148.25 56.7 148.25 53.45 M122.1 60.9 L129.25 60.9 122.1 60.9 M129.15 75.2 L135.4 75.2 136.85 73.5 135.4 75.2 129.15 75.2 M120.8 23.1 L126.7 23.1 120.8 23.1 M60.25 31.75 L27.1 31.75 60.25 31.75 M45.9 17.9 L44.8 17.9 39.6 28.35 40.75 28.35 43.05 28.35 48.2 17.9 45.9 17.9 M36.25 28.35 L38.55 28.35 43.7 17.9 41.4 17.9 40.3 17.9 35.1 28.35 36.25 28.35 M50.3 17.9 L49.25 17.9 44.05 28.35 45.25 28.35 47.55 28.35 52.6 17.9 50.3 17.9 M36.95 17.9 L35.8 17.9 30.65 28.35 31.85 28.35 34.15 28.35 39.3 17.9 36.95 17.9 M33.75 9.15 L30.75 16.35 33.75 9.15 M27.25 16.35 L30.3 9.15 27.25 16.35 M37.25 9.15 L34.25 16.35 37.25 9.15 M39.2 12.75 L40.75 9.15 39.2 12.75" fill="#757575" fill-rule="evenodd" stroke="none"/>
      <path d="M191.95 49.9 L187.25 56.7 178.6 56.7 173.2 60.9 140.65 60.9 137.5 60.9 142.9 56.7 148.25 56.7 151.5 56.7 156.2 49.9 191.95 49.9 M142.15 63.25 L142.3 63.15 152.7 63.15 154.05 64.6 155.05 65.85 153.25 65.85 142.7 65.85 143.95 64.6 154.05 64.6 143.95 64.6 142.7 65.85 153.25 65.85 155.05 65.85 156.65 65.85 158.55 65.85 171.75 65.85 175.2 65.85 174.5 68.55 171.1 68.55 164.65 69.55 161.7 73.5 152.35 73.5 151.7 72.75 150.6 71.55 150.3 71.2 149.8 70.65 149.65 70.45 149.55 70.35 149.2 70.0 149.55 69.55 155.95 68.55 152.55 68.55 153.25 65.85 152.55 68.55 146.1 69.55 143.15 73.5 137.75 73.5 136.85 73.5 133.85 73.5 133.15 72.75 132.1 71.55 131.8 71.2 131.3 70.65 131.1 70.45 131.0 70.35 130.6 69.9 129.7 68.95 129.35 67.6 129.35 67.55 129.35 67.4 129.3 67.4 128.95 65.85 136.6 65.85 128.95 65.85 129.3 67.4 125.95 67.4 122.5 67.4 119.05 67.4 118.0 65.95 116.95 64.5 122.4 64.5 123.65 63.25 123.75 63.15 130.75 63.15 134.2 63.15 135.5 64.6 136.6 65.85 140.05 65.85 138.85 64.5 140.9 64.5 142.15 63.25 M20.1 68.35 L12.4 68.35 0.85 52.3 14.95 52.3 24.1 68.35 20.1 68.35 M112.0 16.35 L110.5 19.3 95.15 19.3 96.65 16.35 112.0 16.35 M175.9 17.55 L175.95 17.55 177.05 19.1 175.9 17.55 M171.75 65.85 L171.1 68.55 171.75 65.85 M29.65 41.5 L66.85 41.5 67.3 45.2 67.8 49.35 53.9 49.35 53.35 45.2 47.25 45.2 44.1 45.2 44.6 49.35 45.9 59.7 32.0 59.7 31.6 56.7 30.7 49.4 30.15 45.2 29.65 41.5 M112.4 23.1 L108.85 29.0 103.5 29.0 107.1 23.1 112.4 23.1 M83.25 16.35 L81.7 19.3 70.6 19.3 64.55 31.75 60.25 31.75 67.85 16.35 83.25 16.35 M90.65 29.0 L94.3 23.1 99.6 23.1 96.05 29.0 90.65 29.0 M156.65 65.85 L155.95 68.55 156.65 65.85 M135.5 64.6 L125.45 64.6 124.05 65.95 118.0 65.95 124.05 65.95 125.45 64.6 135.5 64.6 M140.05 65.85 L142.7 65.85 140.05 65.85 M28.0 29.9 L27.65 30.65 27.95 29.9 28.0 29.9 M40.75 28.35 L39.6 28.35 44.8 17.9 45.9 17.9 40.75 28.35 M36.25 28.35 L35.1 28.35 40.3 17.9 41.4 17.9 36.25 28.35 M45.25 28.35 L44.05 28.35 49.25 17.9 50.3 17.9 45.25 28.35 M55.2 59.7 L53.9 49.35 67.8 49.35 69.15 59.7 55.2 59.7 M53.35 45.2 L67.3 45.2 53.35 45.2 M31.85 28.35 L30.65 28.35 35.8 17.9 36.95 17.9 31.85 28.35 M30.7 49.4 L44.6 49.35 30.7 49.4 M30.15 45.2 L44.1 45.2 30.15 45.2 M151.5 56.7 L178.6 56.7 151.5 56.7" fill="#666666" fill-rule="evenodd" stroke="none"/>
      <path d="M191.95 25.6 L191.95 44.55 191.95 49.9 156.2 49.9 156.2 44.55 159.7 44.55 156.2 44.55 156.2 25.6 191.95 25.6 M178.15 44.55 L178.15 28.85 175.5 28.85 170.5 28.85 170.5 44.55 167.35 44.55 170.5 44.55 170.5 46.75 175.5 46.75 178.15 46.75 178.15 44.55 181.3 44.55 178.15 44.55 M186.3 28.85 L181.3 28.85 181.3 44.55 181.3 46.75 186.3 46.75 188.95 46.75 188.95 44.55 188.95 28.85 186.3 28.85 M191.95 44.55 L188.95 44.55 191.95 44.55 M167.35 44.55 L167.35 28.85 164.7 28.85 159.7 28.85 159.7 44.55 159.7 46.75 164.7 46.75 167.35 46.75 167.35 44.55 M121.85 56.85 L116.5 56.85 116.5 42.35 121.85 42.35 121.85 56.85 M109.05 56.85 L103.75 56.85 103.75 42.35 109.05 42.35 109.05 56.85" fill="#9e9e9e" fill-rule="evenodd" stroke="none"/>
      <path d="M170.5 44.55 L170.5 28.85 175.5 28.85 175.5 44.55 175.5 46.75 170.5 46.75 170.5 44.55" fill="url(#gradient0)" fill-rule="evenodd" stroke="none"/>
      <path d="M164.7 46.75 L159.7 46.75 159.7 44.55 159.7 28.85 164.7 28.85 164.7 44.55 164.7 46.75" fill="url(#gradient1)" fill-rule="evenodd" stroke="none"/>
      <path d="M181.3 44.55 L181.3 28.85 186.3 28.85 186.3 44.55 186.3 46.75 181.3 46.75 181.3 44.55" fill="url(#gradient2)" fill-rule="evenodd" stroke="none"/>
      <path d="M168.1 69.55 L165.1 73.5 161.7 73.5 164.65 69.55 168.1 69.55 M148.45 74.25 L145.6 77.6 136.65 77.6 139.5 74.25 148.45 74.25 M127.1 77.6 L118.15 77.6 120.95 74.25 129.9 74.25 129.15 75.2 127.1 77.6 M100.25 68.0 L99.6 69.1 98.35 71.1 93.25 71.1 91.6 75.2 85.3 75.2 86.6 71.1 82.8 71.1 83.75 69.1 84.65 67.15 99.7 67.15 100.25 68.0 M42.65 69.9 L40.55 75.2 34.25 75.2 35.5 71.1 38.45 71.1 40.25 69.6 40.75 71.1 42.55 69.6 42.65 69.9 M86.6 71.1 L93.25 71.1 86.6 71.1 M83.75 69.1 L99.6 69.1 83.75 69.1 M147.1 72.75 L146.55 73.5 143.15 73.5 146.1 69.55 149.55 69.55 149.2 70.0 148.65 70.75 147.3 72.55 147.1 72.75 M59.6 64.65 L59.35 64.35 59.65 64.65 59.6 64.65" fill="#474747" fill-rule="evenodd" stroke="none"/>
      <path d="M130.7 43.65 L134.15 43.65 134.15 55.5 130.7 55.5 130.7 43.65" fill="url(#gradient3)" fill-rule="evenodd" stroke="none"/>
      <path d="M137.0 55.5 L135.4 55.5 135.4 43.65 137.0 43.65 137.0 55.5 M130.7 55.5 L129.1 55.5 129.1 43.65 130.7 43.65 130.7 55.5 M143.3 52.5 L141.7 52.5 141.7 43.65 143.3 43.65 143.3 52.5" fill="#898989" fill-rule="evenodd" stroke="none"/>
      <path d="M137.0 43.65 L140.45 43.65 140.45 53.1 138.0 55.5 137.0 55.5 137.0 43.65" fill="url(#gradient4)" fill-rule="evenodd" stroke="none"/>
      <path d="M143.3 43.65 L146.75 43.65 146.75 52.5 143.3 52.5 143.3 43.65" fill="url(#gradient5)" fill-rule="evenodd" stroke="none"/>
      <path d="M118.8 35.55 L125.4 42.35 125.4 56.85 121.85 56.85 121.85 42.35 108.85 29.0 112.4 23.1 116.0 23.1 112.45 29.0 118.8 35.55" fill="url(#gradient6)" fill-rule="evenodd" stroke="none"/>
      <path d="M108.2 13.8 L98.45 13.8 97.5 11.25 106.45 11.25 108.2 13.8" fill="url(#gradient7)" fill-rule="evenodd" stroke="none"/>
      <path d="M81.05 41.5 L84.45 41.5 87.95 41.5 88.25 41.5 91.2 44.25 93.15 46.0 93.15 55.75 93.15 57.5 96.65 62.65 95.0 62.65 91.55 62.65 88.0 62.65 87.65 62.45 Q86.75 62.0 85.95 61.15 L85.75 60.9 85.3 60.45 85.15 60.15 84.7 59.55 83.35 56.9 Q80.95 51.6 80.95 44.25 L80.95 43.4 81.05 41.5 M86.75 56.9 Q84.4 51.6 84.4 44.25 L84.4 43.4 84.45 41.5 84.4 43.4 84.4 44.25 Q84.4 51.6 86.75 56.9 M90.2 56.9 L89.85 56.3 Q87.85 51.15 87.85 44.25 L87.85 43.4 87.95 41.5 87.85 43.4 87.85 44.25 Q87.85 51.15 89.85 56.3 L90.2 56.9 M91.6 59.35 L92.5 60.65 Q93.7 62.05 95.0 62.65 93.7 62.05 92.5 60.65 L91.6 59.35 M87.25 57.9 L88.1 59.55 88.75 60.4 Q90.0 62.0 91.55 62.65 90.0 62.0 88.75 60.4 L88.1 59.55 87.25 57.9 M90.65 57.9 L91.25 59.35 90.65 57.9 M93.15 55.75 Q91.2 50.8 91.2 44.25 91.2 50.8 93.15 55.75" fill="url(#gradient8)" fill-rule="evenodd" stroke="none"/>
      <path d="M105.8 35.4 L105.85 35.5 112.6 42.35 112.6 56.85 109.05 56.85 109.05 42.35 102.25 35.4 96.05 29.0 99.6 23.1 103.2 23.1 99.65 29.0 105.8 35.4" fill="url(#gradient9)" fill-rule="evenodd" stroke="none"/>
      <path d="M70.0 41.5 L70.9 41.5 74.15 41.5 77.6 41.5 81.05 41.5 80.95 43.4 80.95 44.25 Q80.95 51.6 83.35 56.9 L84.7 59.55 85.15 60.15 85.3 60.45 85.75 60.9 85.95 61.15 Q86.75 62.0 87.65 62.45 L88.0 62.65 84.7 62.65 81.25 62.65 81.1 62.55 Q79.65 61.85 78.5 60.25 L77.8 59.35 78.5 60.25 Q79.65 61.85 81.1 62.55 L81.25 62.65 77.8 62.65 75.55 62.65 72.25 59.0 72.25 58.9 71.05 49.35 70.5 45.2 70.0 41.5 M80.35 57.9 L81.25 59.55 81.65 60.05 Q82.6 61.35 83.65 62.1 L84.7 62.65 83.65 62.1 Q82.6 61.35 81.65 60.05 L81.25 59.55 80.35 57.9 M73.15 56.9 Q72.25 55.05 71.75 52.85 70.75 48.9 70.75 44.25 L70.8 43.4 70.9 41.5 70.8 43.4 70.75 44.25 Q70.75 48.9 71.75 52.85 72.25 55.05 73.15 56.9 M73.6 57.9 L74.55 59.55 Q75.7 61.25 76.95 62.15 L77.35 62.4 77.8 62.65 77.35 62.4 76.95 62.15 Q75.7 61.25 74.55 59.55 L73.6 57.9 M79.9 56.9 Q77.5 51.6 77.5 44.25 L77.5 43.4 77.6 41.5 77.5 43.4 77.5 44.25 Q77.5 51.6 79.9 56.9 M76.4 56.9 L76.15 56.3 Q74.05 51.15 74.05 44.25 L74.05 43.4 74.15 41.5 74.05 43.4 74.05 44.25 Q74.05 51.15 76.15 56.3 L76.4 56.9 M76.9 57.9 L77.55 59.35 76.9 57.9" fill="url(#gradient10)" fill-rule="evenodd" stroke="none"/>
      <path d="M66.85 41.5 L70.0 41.5 70.5 45.2 71.05 49.35 72.25 58.9 72.25 59.0 75.55 62.65 77.8 62.65 81.25 62.65 84.7 62.65 88.0 62.65 91.55 62.65 95.0 62.65 96.65 62.65 98.0 64.65 75.65 64.65 73.55 64.65 72.15 63.05 72.1 63.05 69.15 59.7 67.8 49.35 67.3 45.2 70.5 45.2 67.3 45.2 66.85 41.5 M47.25 45.2 L47.8 49.35 49.05 58.9 49.05 59.0 49.75 59.75 52.3 62.65 57.85 62.65 59.35 64.35 59.6 64.65 59.4 64.65 57.1 64.65 54.75 64.65 52.45 64.65 50.3 64.65 45.9 59.7 44.6 49.35 44.1 45.2 47.25 45.2 M47.8 49.35 L44.6 49.35 47.8 49.35 M71.05 49.35 L67.8 49.35 71.05 49.35" fill="#a5a5a5" fill-rule="evenodd" stroke="none"/>
      <path d="M148.65 72.75 L149.65 74.25 148.45 74.25 139.5 74.25 138.25 74.25 137.75 73.5 143.15 73.5 146.55 73.5 147.1 72.75 147.65 72.75 148.65 72.75 M18.9 47.05 L23.05 47.05 22.4 47.9 22.1 48.35 18.7 52.95 20.05 55.15 22.2 58.9 25.35 64.15 27.8 68.35 24.1 68.35 14.95 52.3 18.9 47.05" fill="#9b9b9b" fill-rule="evenodd" stroke="none"/>
      <path d="M77.65 11.25 L79.45 13.8 69.7 13.8 68.75 11.25 77.65 11.25" fill="url(#gradient11)" fill-rule="evenodd" stroke="none"/>
      <path d="M28.0 0.0 L29.65 0.0 29.15 9.15 26.15 9.15 28.0 0.0 M50.8 0.0 L52.45 0.0 52.0 9.15 48.95 9.15 50.8 0.0" fill="#5b5b5b" fill-rule="evenodd" stroke="none"/>
      <path d="M41.4 17.9 L43.7 17.9 38.55 28.35 36.25 28.35 41.4 17.9" fill="url(#gradient12)" fill-rule="evenodd" stroke="none"/>
      <path d="M45.9 17.9 L48.2 17.9 43.05 28.35 40.75 28.35 45.9 17.9" fill="url(#gradient13)" fill-rule="evenodd" stroke="none"/>
      <path d="M50.3 17.9 L52.6 17.9 47.55 28.35 45.25 28.35 50.3 17.9" fill="url(#gradient14)" fill-rule="evenodd" stroke="none"/>
      <path d="M31.85 28.35 L36.95 17.9 39.3 17.9 34.15 28.35 31.85 28.35" fill="url(#gradient15)" fill-rule="evenodd" stroke="none"/>
      <path d="M8.95 28.15 L9.9 26.65 11.4 24.45 12.85 22.2 14.3 20.0 32.85 20.0 31.75 22.2 30.7 24.45 29.6 26.65 28.5 28.9 28.0 29.9 27.95 29.9 27.65 30.65 7.35 30.65 7.9 29.8 8.45 28.9 8.85 28.3 8.95 28.15 M8.85 28.3 L8.5 28.9 8.45 28.9 8.5 28.9 8.85 28.3 M7.9 29.8 L8.5 28.9 28.5 28.9 27.95 29.9 28.5 28.9 8.5 28.9 7.9 29.8 M29.6 26.65 L9.9 26.65 29.6 26.65 M31.75 22.2 L12.85 22.2 31.75 22.2 M11.4 24.45 L30.7 24.45 11.4 24.45" fill="#494949" fill-rule="evenodd" stroke="none"/>
      <path d="M0.85 52.3 L4.9 47.05 5.0 47.05 18.9 47.05 14.95 52.3 0.85 52.3" fill="#878787" fill-rule="evenodd" stroke="none"/>
      <path d="M22.45 41.5 L24.5 41.5 24.55 41.55 Q25.0 42.1 25.0 42.9 L24.55 44.25 24.45 44.45 24.0 44.7 23.5 44.8 Q22.8 44.8 22.45 44.25 22.05 43.75 22.0 43.0 L22.0 42.9 Q22.0 42.1 22.45 41.55 L22.45 41.5 M26.25 41.5 L28.35 41.5 28.35 41.55 Q28.85 42.1 28.85 42.9 28.85 43.7 28.35 44.25 L27.25 44.8 Q26.7 44.8 26.25 44.25 25.75 43.7 25.75 42.9 25.75 42.1 26.25 41.55 L26.25 41.5" fill="#cc0000" fill-rule="evenodd" stroke="none"/>
      <path d="M25.5 56.7 L25.55 57.05 22.65 57.05 Q22.65 55.55 24.1 54.15 L25.05 53.25 25.5 56.7" fill="#282828" fill-rule="evenodd" stroke="none"/>
      <path d="M25.55 57.05 L25.85 58.9 24.1 58.9 22.65 57.05 25.55 57.05" fill="#444444" fill-rule="evenodd" stroke="none"/>
      <path d="M55.25 59.75 L55.2 59.7 69.15 59.7 72.1 63.05 72.15 63.05 73.55 64.65 73.35 64.65 71.05 64.65 68.7 64.65 66.4 64.65 64.1 64.65 61.75 64.65 59.65 64.65 59.35 64.35 57.85 62.65 55.25 59.75 M32.0 59.7 L45.9 59.7 50.3 64.65 50.15 64.65 47.8 64.65 45.5 64.65 43.15 64.65 40.8 64.65 38.5 64.65 36.4 64.65 36.05 64.25 36.0 64.15 34.65 62.65 34.3 62.25 32.0 59.7" fill="#545454" fill-rule="evenodd" stroke="none"/>
      <path d="M184.75 19.15 L179.4 19.15 181.05 21.55 186.4 21.55 184.75 19.15 M175.95 17.55 L185.4 17.55 189.25 23.1 M117.8 19.3 L119.7 17.55 122.85 17.55 126.05 17.55 129.2 17.55 132.35 17.55 135.5 17.55 149.7 17.55 159.15 17.55 163.1 17.55 172.55 17.55 175.9 17.55 175.95 17.55 177.05 19.1 179.75 23.1 189.25 23.1 M159.15 17.55 L163.0 23.1 166.85 23.1 163.1 17.55 M166.55 19.15 L168.15 21.55 173.5 21.55 171.9 19.15 166.55 19.15 M172.55 17.55 L176.35 23.1 179.75 23.1 M177.05 19.1 L175.9 17.55 M166.85 23.1 L176.35 23.1 M158.55 19.15 L153.2 19.15 154.8 21.55 160.15 21.55 158.55 19.15 M149.7 17.55 L153.5 23.1 163.0 23.1 M122.85 17.55 L126.7 23.1 129.85 23.1 126.05 17.55 M132.35 17.55 L136.15 23.1 139.3 23.1 135.5 17.55 M136.15 23.1 L133.0 23.1 129.85 23.1 M129.2 17.55 L133.0 23.1 M149.95 35.4 L146.8 35.4 143.7 35.4 141.5 35.4 118.8 35.55 M149.95 35.4 L153.05 35.4 M153.5 23.1 L139.3 23.1 M116.0 23.1 L112.4 23.1 107.1 23.1 M120.4 23.1 L120.8 23.1 117.8 19.3 M148.25 56.7 L148.25 53.45 M126.7 23.1 L120.8 23.1" fill="none" stroke="#000000" stroke-width="0.7" stroke-opacity="0.4"/>
      <path d="M189.25 23.1 L191.95 25.6 191.95 44.55 191.95 49.9 187.25 56.7 178.6 56.7 173.2 60.9 140.65 60.9 142.15 63.25 142.3 63.15 152.7 63.15 156.15 63.15 158.55 65.85 171.75 65.85 175.2 65.85 174.5 68.55 168.1 69.55 165.1 73.5 161.7 73.5 152.35 73.5 151.7 72.75 151.1 72.75 148.65 72.75 149.65 74.25 148.45 74.25 145.6 77.6 136.65 77.6 127.1 77.6 118.15 77.6 108.5 77.6 106.8 75.2 105.1 75.2 100.25 68.0 99.6 69.1 98.35 71.1 93.25 71.1 91.6 75.2 85.3 75.2 71.3 75.2 69.55 70.35 68.65 71.1 68.15 69.6 66.35 71.1 65.8 69.6 64.0 71.1 63.45 69.6 61.65 71.1 61.15 69.6 59.35 71.1 58.8 69.6 57.0 71.1 56.5 69.6 54.7 71.1 54.2 69.6 52.4 71.1 51.85 69.6 50.05 71.1 49.55 69.6 47.75 71.1 47.2 69.6 45.4 71.1 44.85 69.6 43.05 71.1 42.65 69.9 40.55 75.2 34.25 75.2 26.0 75.2 24.55 71.1 21.0 71.1 20.1 68.35 12.4 68.35 0.85 52.3 4.9 47.05 5.0 47.05 5.85 45.8 0.0 38.85 0.0 37.5 0.0 31.2 2.0 28.15 8.95 28.15 9.9 26.65 11.4 24.45 12.85 22.2 14.3 20.0 13.05 20.0 15.1 16.35 13.75 16.35 16.7 9.15 19.6 9.15 23.6 0.0 28.0 0.0 29.65 0.0 29.15 9.15 30.3 9.15 33.75 9.15 37.25 9.15 40.75 9.15 42.4 9.15 46.4 0.0 50.8 0.0 52.45 0.0 52.0 9.15 63.0 9.15 65.35 9.15 78.35 9.15 91.75 9.15 94.1 9.15 107.15 9.15 112.0 16.35 110.5 19.3 117.8 19.3 M175.5 28.85 L178.15 28.85 178.15 44.55 181.3 44.55 181.3 28.85 186.3 28.85 188.95 28.85 188.95 44.55 191.95 44.55 M164.7 28.85 L167.35 28.85 167.35 44.55 170.5 44.55 170.5 28.85 175.5 28.85 175.5 44.55 178.15 44.55 178.15 46.75 175.5 46.75 170.5 46.75 170.5 44.55 M167.35 44.55 L167.35 46.75 164.7 46.75 159.7 46.75 159.7 44.55 156.2 44.55 156.2 49.9 191.95 49.9 M164.7 46.75 L164.7 44.55 164.7 28.85 159.7 28.85 159.7 44.55 M164.7 44.55 L167.35 44.55 M181.3 44.55 L181.3 46.75 186.3 46.75 186.3 44.55 186.3 28.85 M175.5 44.55 L175.5 46.75 M188.95 44.55 L186.3 44.55 M186.3 46.75 L188.95 46.75 188.95 44.55 M168.1 69.55 L164.65 69.55 161.7 73.5 M164.65 69.55 L171.1 68.55 171.75 65.85 M171.1 68.55 L174.5 68.55 M137.0 43.65 L140.45 43.65 140.45 53.1 138.0 55.5 137.0 55.5 135.4 55.5 135.4 43.65 137.0 43.65 137.0 55.5 M130.7 55.5 L129.1 55.5 129.1 43.65 130.7 43.65 134.15 43.65 134.15 55.5 130.7 55.5 130.7 43.65 M146.8 35.4 L146.8 40.9 148.25 42.35 148.25 53.45 149.95 53.45 149.95 35.4 M153.05 35.4 L153.05 44.55 156.2 44.55 156.2 25.6 153.5 23.1 M143.7 35.4 L143.7 37.65 146.8 40.9 M143.3 43.65 L146.75 43.65 146.75 52.5 143.3 52.5 141.7 52.5 141.7 43.65 143.3 43.65 143.3 52.5 M153.05 44.55 L153.05 48.75 149.95 53.45 M143.7 37.65 L141.5 35.4 M118.8 35.55 L125.4 42.35 125.4 56.85 121.85 56.85 116.5 56.85 116.5 42.35 109.8 35.4 105.8 35.4 105.85 35.5 112.6 42.35 112.6 56.85 109.05 56.85 103.75 56.85 103.75 42.35 96.95 35.4 27.1 35.4 7.35 35.4 7.25 36.05 7.05 37.5 6.4 41.5 22.45 41.5 24.5 41.5 26.25 41.5 28.35 41.5 29.65 41.5 66.85 41.5 70.0 41.5 70.9 41.5 74.15 41.5 77.6 41.5 81.05 41.5 84.45 41.5 87.95 41.5 88.25 41.5 91.2 44.25 93.15 46.0 93.15 55.75 93.15 57.5 96.65 62.65 98.0 64.65 99.7 67.15 100.25 68.0 M112.4 23.1 L108.85 29.0 121.85 42.35 121.85 56.85 M108.2 13.8 L106.45 11.25 97.5 11.25 98.45 13.8 108.2 13.8 M107.1 23.1 L103.5 29.0 108.85 29.0 M81.7 19.3 L95.15 19.3 96.65 16.35 94.1 9.15 M67.85 16.35 L60.25 31.75 64.55 31.75 70.6 19.3 81.7 19.3 83.25 16.35 67.85 16.35 65.35 9.15 M90.65 29.0 L94.3 23.1 99.6 23.1 103.2 23.1 99.65 29.0 105.8 35.4 M91.75 9.15 L90.25 12.75 80.85 12.75 83.25 16.35 M87.95 41.5 L87.85 43.4 87.85 44.25 Q87.85 51.15 89.85 56.3 L90.2 56.9 M84.45 41.5 L84.4 43.4 84.4 44.25 Q84.4 51.6 86.75 56.9 M96.05 29.0 L90.65 29.0 96.95 35.4 102.25 35.4 96.05 29.0 99.6 23.1 M116.0 23.1 L112.45 29.0 118.8 35.55 M103.5 29.0 L109.8 35.4 M109.05 42.35 L103.75 42.35 M102.25 35.4 L109.05 42.35 109.05 56.85 M112.0 16.35 L96.65 16.35 M95.15 19.3 L110.5 19.3 M130.15 72.75 L129.1 72.75 125.7 72.75 122.2 72.75 121.9 72.6 121.05 72.05 120.6 71.65 Q119.45 70.55 119.1 69.1 L119.05 68.35 119.05 67.4 118.0 65.95 116.95 64.5 122.4 64.5 123.65 63.25 122.1 60.9 110.75 60.9 119.7 74.25 120.95 74.25 129.9 74.25 131.1 74.25 130.15 72.75 132.55 72.75 130.9 71.65 Q129.15 70.0 129.35 67.6 L129.35 67.55 129.3 67.4 125.95 67.4 Q125.65 69.95 127.5 71.65 L129.1 72.75 M95.0 62.65 Q93.7 62.05 92.5 60.65 L91.6 59.35 M81.05 41.5 L80.95 43.4 80.95 44.25 Q80.95 51.6 83.35 56.9 L84.7 59.55 85.15 60.15 85.3 60.45 85.75 60.9 85.95 61.15 Q86.75 62.0 87.65 62.45 L88.0 62.65 91.55 62.65 Q90.0 62.0 88.75 60.4 L88.1 59.55 87.25 57.9 M84.7 62.65 L83.65 62.1 Q82.6 61.35 81.65 60.05 L81.25 59.55 80.35 57.9 M81.25 62.65 L81.1 62.55 Q79.65 61.85 78.5 60.25 L77.8 59.35 M84.65 67.15 L83.6 64.9 M81.25 62.65 L84.7 62.65 88.0 62.65 M83.75 69.1 L81.85 69.1 80.95 66.6 76.3 66.6 77.4 69.6 77.95 71.1 82.8 71.1 83.75 69.1 84.65 67.15 99.7 67.15 M85.3 75.2 L86.6 71.1 82.8 71.1 M91.55 62.65 L95.0 62.65 96.65 62.65 M99.6 69.1 L83.75 69.1 M93.25 71.1 L86.6 71.1 M91.25 59.35 L90.65 57.9 M120.95 74.25 L118.15 77.6 M137.5 60.9 L142.9 56.7 148.25 56.7 151.5 56.7 156.2 49.9 M154.05 64.6 L143.95 64.6 142.7 65.85 153.25 65.85 155.05 65.85 154.05 64.6 152.7 63.15 M143.15 73.5 L146.55 73.5 147.1 72.75 147.3 72.55 148.65 70.75 149.2 70.0 149.55 69.55 146.1 69.55 143.15 73.5 137.75 73.5 138.25 74.25 139.5 74.25 148.45 74.25 M149.2 70.0 L149.55 70.35 149.65 70.45 149.8 70.65 150.3 71.2 150.6 71.55 151.7 72.75 M147.65 72.75 L148.65 72.75 M147.1 72.75 L147.65 72.75 147.3 72.55 M151.1 72.75 L149.45 71.65 148.65 70.75 M155.05 65.85 L156.65 65.85 158.55 65.85 M152.55 68.55 L155.95 68.55 156.65 65.85 M152.55 68.55 L153.25 65.85 M146.1 69.55 L152.55 68.55 M155.95 68.55 L149.55 69.55 M140.65 60.9 L137.5 60.9 129.25 60.9 130.75 63.15 134.2 63.15 137.65 63.15 138.85 64.5 140.9 64.5 142.15 63.25 M129.25 60.9 L122.1 60.9 M136.6 65.85 L128.95 65.85 129.3 67.4 M123.65 63.25 L123.75 63.15 130.75 63.15 M118.0 65.95 L124.05 65.95 125.45 64.6 135.5 64.6 134.2 63.15 M125.95 67.4 L122.5 67.4 Q122.2 69.95 124.0 71.65 L125.7 72.75 M129.35 67.6 L129.7 68.95 130.6 69.9 131.0 70.35 131.1 70.45 131.3 70.65 131.8 71.2 132.1 71.55 133.15 72.75 133.85 73.5 136.85 73.5 137.75 73.5 M135.5 64.6 L136.6 65.85 140.05 65.85 138.85 64.5 M132.55 72.75 L133.15 72.75 M139.5 74.25 L136.65 77.6 M127.1 77.6 L129.15 75.2 129.9 74.25 M136.85 73.5 L135.4 75.2 129.15 75.2 M142.7 65.85 L140.05 65.85 M121.85 42.35 L116.5 42.35 M122.5 67.4 L119.05 67.4 M91.2 44.25 Q91.2 50.8 93.15 55.75 M80.85 12.75 L78.35 9.15 M77.65 11.25 L68.75 11.25 69.7 13.8 79.45 13.8 77.65 11.25 M63.0 9.15 L61.5 12.75 39.2 12.75 37.7 16.35 34.65 16.35 32.85 20.0 31.75 22.2 30.7 24.45 29.6 26.65 28.5 28.9 28.0 29.9 27.65 30.65 27.1 31.75 60.25 31.75 M48.95 9.15 L42.4 9.15 M40.75 28.35 L39.6 28.35 44.8 17.9 45.9 17.9 48.2 17.9 43.05 28.35 40.75 28.35 45.9 17.9 M41.4 17.9 L43.7 17.9 38.55 28.35 36.25 28.35 35.1 28.35 40.3 17.9 41.4 17.9 36.25 28.35 M45.25 28.35 L44.05 28.35 49.25 17.9 50.3 17.9 52.6 17.9 47.55 28.35 45.25 28.35 50.3 17.9 M48.95 9.15 L50.8 0.0 M47.25 45.2 L47.8 49.35 49.05 58.9 49.05 59.0 49.75 59.75 55.25 59.75 55.2 59.7 53.9 49.35 53.35 45.2 47.25 45.2 44.1 45.2 44.6 49.35 47.8 49.35 M70.9 41.5 L70.8 43.4 70.75 44.25 Q70.75 48.9 71.75 52.85 72.25 55.05 73.15 56.9 M70.0 41.5 L70.5 45.2 71.05 49.35 72.25 58.9 72.25 59.0 75.55 62.65 77.8 62.65 77.35 62.4 76.95 62.15 Q75.7 61.25 74.55 59.55 L73.6 57.9 M70.5 45.2 L67.3 45.2 67.8 49.35 71.05 49.35 M67.3 45.2 L66.85 41.5 M74.15 41.5 L74.05 43.4 74.05 44.25 Q74.05 51.15 76.15 56.3 L76.4 56.9 M77.6 41.5 L77.5 43.4 77.5 44.25 Q77.5 51.6 79.9 56.9 M67.8 49.35 L53.9 49.35 M67.3 45.2 L53.35 45.2 M26.15 9.15 L28.0 0.0 M26.15 9.15 L29.15 9.15 M36.95 17.9 L35.8 17.9 30.65 28.35 31.85 28.35 36.95 17.9 39.3 17.9 34.15 28.35 31.85 28.35 M34.25 16.35 L30.75 16.35 27.25 16.35 15.1 16.35 M34.25 16.35 L37.25 9.15 M30.3 9.15 L27.25 16.35 M30.75 16.35 L33.75 9.15 M8.85 28.3 L8.95 28.15 M7.9 29.8 L7.35 30.65 27.65 30.65 27.95 29.9 28.5 28.9 8.5 28.9 7.9 29.8 M8.45 28.9 L8.5 28.9 8.85 28.3 M1.7 34.05 L4.1 34.05 4.1 31.6 5.6 29.4 3.25 29.4 1.7 31.7 1.7 34.05 1.7 36.05 7.25 36.05 M7.35 35.4 L7.35 34.05 4.1 34.05 M7.35 30.65 L7.35 34.05 M7.05 37.5 L2.3 37.5 7.6 43.8 19.5 43.8 22.05 45.8 22.2 45.95 24.15 45.95 24.0 44.7 23.5 44.8 Q22.8 44.8 22.45 44.25 22.05 43.75 22.0 43.0 L22.0 42.9 Q22.0 42.1 22.45 41.55 M0.0 37.5 L2.3 37.5 M18.9 47.05 L5.0 47.05 M27.95 29.9 L28.0 29.9 M27.1 35.4 L27.1 31.75 M26.25 41.55 Q25.75 42.1 25.75 42.9 25.75 43.7 26.25 44.25 26.7 44.8 27.25 44.8 L28.35 44.25 Q28.85 43.7 28.85 42.9 28.85 42.1 28.35 41.55 M24.0 44.7 L24.45 44.45 24.55 44.25 25.0 42.9 Q25.0 42.1 24.55 41.55 M24.1 68.35 L27.8 68.35 25.35 64.15 22.2 58.9 20.05 55.15 18.7 52.95 22.1 48.35 22.4 47.9 23.05 47.05 18.9 47.05 14.95 52.3 24.1 68.35 20.1 68.35 M22.1 48.35 Q22.9 50.3 24.1 52.05 L24.95 52.05 24.4 47.9 22.4 47.9 M24.15 45.95 L24.4 47.9 M31.6 56.7 L30.7 49.4 30.15 45.2 29.65 41.5 M9.9 26.65 L29.6 26.65 M22.05 45.8 L5.85 45.8 M30.7 24.45 L11.4 24.45 M12.85 22.2 L31.75 22.2 M14.3 20.0 L32.85 20.0 M19.6 9.15 L26.15 9.15 M32.0 59.7 L31.6 56.7 25.5 56.7 25.55 57.05 25.85 58.9 25.85 59.0 26.5 59.7 32.0 59.7 45.9 59.7 44.6 49.35 30.7 49.4 M24.95 52.05 L25.05 53.25 25.5 56.7 M25.05 53.25 L24.1 54.15 Q22.65 55.55 22.65 57.05 L25.55 57.05 M22.2 58.9 L24.1 58.9 22.65 57.05 M26.5 59.7 L27.05 60.3 27.5 60.9 29.05 62.6 29.05 62.65 34.65 62.65 34.3 62.25 32.0 59.7 M24.1 58.9 L25.85 58.9 M34.65 62.65 L36.0 64.15 36.05 64.25 36.4 64.65 38.5 64.65 40.8 64.65 43.15 64.65 45.5 64.65 47.8 64.65 50.15 64.65 50.3 64.65 45.9 59.7 M42.65 69.9 L42.55 69.6 40.75 71.1 40.25 69.6 38.45 71.1 35.5 71.1 34.25 75.2 M36.05 64.25 L38.45 71.1 M40.25 69.6 L38.5 64.65 M35.5 71.1 L24.55 71.1 M36.0 64.15 L25.35 64.15 M0.85 52.3 L14.95 52.3 M20.05 55.15 Q21.0 53.25 24.1 52.05 M77.55 59.35 L76.9 57.9 M68.7 64.65 L66.4 64.65 68.15 69.6 M64.1 64.65 L61.75 64.65 63.45 69.6 M77.4 69.6 L75.6 71.1 75.05 69.6 73.3 71.1 72.75 69.6 70.95 71.1 70.45 69.6 69.55 70.35 M68.7 64.65 L70.45 69.6 M64.1 64.65 L65.8 69.6 M66.4 64.65 L64.1 64.65 M73.55 64.65 L73.35 64.65 75.05 69.6 M75.65 64.65 L73.55 64.65 72.15 63.05 72.1 63.05 69.15 59.7 55.2 59.7 M73.35 64.65 L71.05 64.65 72.75 69.6 M76.3 66.6 L75.65 64.65 98.0 64.65 M71.05 64.65 L68.7 64.65 M44.85 69.6 L43.15 64.65 M49.55 69.6 L47.8 64.65 M40.8 64.65 L42.55 69.6 M45.5 64.65 L47.2 69.6 M50.3 64.65 L52.45 64.65 54.75 64.65 57.1 64.65 59.4 64.65 59.6 64.65 59.65 64.65 59.35 64.35 57.85 62.65 52.3 62.65 49.75 59.75 M54.75 64.65 L56.5 69.6 M54.2 69.6 L52.45 64.65 M58.8 69.6 L57.1 64.65 M57.85 62.65 L55.25 59.75 M51.85 69.6 L50.15 64.65 M61.75 64.65 L59.65 64.65 M59.4 64.65 L61.15 69.6 M69.15 59.7 L67.8 49.35 M44.1 45.2 L30.15 45.2 M40.75 9.15 L39.2 12.75 M77.8 62.65 L81.25 62.65 M178.6 56.7 L151.5 56.7 M191.95 25.6 L156.2 25.6" fill="none" stroke="#000000" stroke-width="0.7" stroke-opacity="0.4"/>
    </g>
    <linearGradient gradientTransform="matrix(0.003, 0.0, 0.0, 0.0109, 172.95, 37.75)" gradientUnits="userSpaceOnUse" id="gradient0" spreadMethod="pad" x1="-819.2" x2="819.2">
      <stop offset="0.0" stop-color="#ff0000"/>
      <stop offset="1.0" stop-color="#990000"/>
    </linearGradient>
    <linearGradient gradientTransform="matrix(0.003, 0.0, 0.0, 0.0109, 162.15, 37.75)" gradientUnits="userSpaceOnUse" id="gradient1" spreadMethod="pad" x1="-819.2" x2="819.2">
      <stop offset="0.0" stop-color="#ff0000"/>
      <stop offset="1.0" stop-color="#990000"/>
    </linearGradient>
    <linearGradient gradientTransform="matrix(0.003, 0.0, 0.0, 0.0109, 183.75, 37.75)" gradientUnits="userSpaceOnUse" id="gradient2" spreadMethod="pad" x1="-819.2" x2="819.2">
      <stop offset="0.0" stop-color="#ff0000"/>
      <stop offset="1.0" stop-color="#990000"/>
    </linearGradient>
    <linearGradient gradientTransform="matrix(0.0, 0.0072, -0.0072, 0.0, 119.0, 49.55)" gradientUnits="userSpaceOnUse" id="gradient3" spreadMethod="pad" x1="-819.2" x2="819.2">
      <stop offset="0.0" stop-color="#990000"/>
      <stop offset="0.49411764705882355" stop-color="#fc0000"/>
      <stop offset="1.0" stop-color="#aa0000"/>
      <stop offset="1.0" stop-color="#990000"/>
    </linearGradient>
    <linearGradient gradientTransform="matrix(0.0, 0.0072, -0.0072, 0.0, 125.3, 49.55)" gradientUnits="userSpaceOnUse" id="gradient4" spreadMethod="pad" x1="-819.2" x2="819.2">
      <stop offset="0.0" stop-color="#990000"/>
      <stop offset="0.49411764705882355" stop-color="#fc0000"/>
      <stop offset="1.0" stop-color="#aa0000"/>
      <stop offset="1.0" stop-color="#990000"/>
    </linearGradient>
    <linearGradient gradientTransform="matrix(0.0, 0.0072, -0.0072, 0.0, 131.6, 49.55)" gradientUnits="userSpaceOnUse" id="gradient5" spreadMethod="pad" x1="-819.2" x2="819.2">
      <stop offset="0.0" stop-color="#990000"/>
      <stop offset="0.49411764705882355" stop-color="#fc0000"/>
      <stop offset="1.0" stop-color="#aa0000"/>
      <stop offset="1.0" stop-color="#990000"/>
    </linearGradient>
    <radialGradient cx="0" cy="0" gradientTransform="matrix(0.0229, 0.0, 0.0, 0.0229, 117.1, 39.95)" gradientUnits="userSpaceOnUse" id="gradient6" r="819.2" spreadMethod="pad">
      <stop offset="0.0" stop-color="#990000"/>
      <stop offset="0.49411764705882355" stop-color="#ff0000"/>
      <stop offset="1.0" stop-color="#aa0000"/>
      <stop offset="1.0" stop-color="#990000"/>
    </radialGradient>
    <radialGradient cx="0" cy="0" gradientTransform="matrix(0.0067, 0.0, 0.0, 0.0067, 102.85, 12.5)" gradientUnits="userSpaceOnUse" id="gradient7" r="819.2" spreadMethod="pad">
      <stop offset="0.0" stop-color="#ff0000"/>
      <stop offset="1.0" stop-color="#990000"/>
    </radialGradient>
    <linearGradient gradientTransform="matrix(0.0, 0.0129, -0.0096, 0.0, 88.8, 52.05)" gradientUnits="userSpaceOnUse" id="gradient8" spreadMethod="pad" x1="-819.2" x2="819.2">
      <stop offset="0.023529411764705882" stop-color="#ff3300"/>
      <stop offset="1.0" stop-color="#490000"/>
    </linearGradient>
    <radialGradient cx="0" cy="0" gradientTransform="matrix(0.0229, 0.0, 0.0, 0.0229, 104.3, 39.95)" gradientUnits="userSpaceOnUse" id="gradient9" r="819.2" spreadMethod="pad">
      <stop offset="0.0" stop-color="#990000"/>
      <stop offset="0.49411764705882355" stop-color="#ff0000"/>
      <stop offset="1.0" stop-color="#aa0000"/>
      <stop offset="1.0" stop-color="#990000"/>
    </radialGradient>
    <linearGradient gradientTransform="matrix(0.0, 0.0129, -0.011, 0.0, 79.0, 52.05)" gradientUnits="userSpaceOnUse" id="gradient10" spreadMethod="pad" x1="-819.2" x2="819.2">
      <stop offset="0.023529411764705882" stop-color="#ff3300"/>
      <stop offset="1.0" stop-color="#490000"/>
    </linearGradient>
    <radialGradient cx="0" cy="0" gradientTransform="matrix(0.0067, 0.0, 0.0, 0.0067, 74.1, 12.5)" gradientUnits="userSpaceOnUse" id="gradient11" r="819.2" spreadMethod="pad">
      <stop offset="0.0" stop-color="#ff0000"/>
      <stop offset="1.0" stop-color="#990000"/>
    </radialGradient>
    <linearGradient gradientTransform="matrix(0.0045, 0.0, 0.0, 0.0064, 39.95, 23.1)" gradientUnits="userSpaceOnUse" id="gradient12" spreadMethod="pad" x1="-819.2" x2="819.2">
      <stop offset="0.0" stop-color="#990000"/>
      <stop offset="0.49411764705882355" stop-color="#fc0000"/>
      <stop offset="1.0" stop-color="#aa0000"/>
      <stop offset="1.0" stop-color="#990000"/>
    </linearGradient>
    <linearGradient gradientTransform="matrix(0.0045, 0.0, 0.0, 0.0064, 44.45, 23.1)" gradientUnits="userSpaceOnUse" id="gradient13" spreadMethod="pad" x1="-819.2" x2="819.2">
      <stop offset="0.0" stop-color="#990000"/>
      <stop offset="0.49411764705882355" stop-color="#fc0000"/>
      <stop offset="1.0" stop-color="#aa0000"/>
      <stop offset="1.0" stop-color="#990000"/>
    </linearGradient>
    <linearGradient gradientTransform="matrix(0.0045, 0.0, 0.0, 0.0064, 48.9, 23.1)" gradientUnits="userSpaceOnUse" id="gradient14" spreadMethod="pad" x1="-819.2" x2="819.2">
      <stop offset="0.0" stop-color="#990000"/>
      <stop offset="0.49411764705882355" stop-color="#fc0000"/>
      <stop offset="1.0" stop-color="#aa0000"/>
      <stop offset="1.0" stop-color="#990000"/>
    </linearGradient>
    <linearGradient gradientTransform="matrix(0.0045, 0.0, 0.0, 0.0064, 35.55, 23.1)" gradientUnits="userSpaceOnUse" id="gradient15" spreadMethod="pad" x1="-819.2" x2="819.2">
      <stop offset="0.0" stop-color="#990000"/>
      <stop offset="0.49411764705882355" stop-color="#fc0000"/>
      <stop offset="1.0" stop-color="#aa0000"/>
      <stop offset="1.0" stop-color="#990000"/>
    </linearGradient>
  </defs>
</svg>
