<?xml version="1.0" encoding="UTF-8" standalone="no"?>
<svg xmlns:xlink="http://www.w3.org/1999/xlink" height="64.3px" width="200.85px" xmlns="http://www.w3.org/2000/svg">
  <g transform="matrix(1.0, 0.0, 0.0, 1.0, 0.05, 0.05)">
    <use height="64.3" transform="matrix(1.0, 0.0, 0.0, 1.0, -0.05, -0.05)" width="200.85" xlink:href="#shape0"/>
  </g>
  <defs>
    <g id="shape0" transform="matrix(1.0, 0.0, 0.0, 1.0, 0.05, 0.05)">
      <path d="M176.75 14.3 L189.85 24.55 189.85 46.0 176.75 56.25 172.35 56.25 170.1 58.95 164.9 58.95 170.1 58.95 165.75 64.2 156.4 64.2 156.4 61.3 156.4 58.95 156.4 56.95 156.4 53.7 165.0 53.7 169.3 48.95 172.2 51.9 176.25 49.65 185.65 44.35 185.65 26.2 176.25 20.9 172.2 18.65 169.3 21.6 165.0 16.85 156.4 16.85 156.4 13.7 156.4 11.6 156.4 9.35 156.4 6.35 165.75 6.35 170.1 11.6 164.9 11.6 170.1 11.6 172.35 14.3 176.75 14.3 M164.05 11.6 L156.4 11.6 164.05 11.6 M164.05 58.95 L156.4 58.95 164.05 58.95 M170.85 32.75 L170.85 26.35 170.85 32.75 M166.35 46.0 L166.35 24.55 170.85 26.35 178.95 29.55 178.95 41.0 170.85 44.25 166.35 46.0 M170.85 33.05 L170.85 44.25 170.85 33.05 M74.9 6.7 L79.65 14.6 78.75 15.85 77.05 18.35 69.3 18.35 65.15 18.35 59.7 18.35 59.1 17.1 57.15 12.9 56.45 11.45 57.5 9.05 58.55 6.7 59.9 6.7 66.7 6.7 74.9 6.7 M72.0 61.3 L71.45 63.45 65.05 63.45 62.85 54.65 67.65 54.65 60.0 47.0 48.05 47.0 48.05 33.05 43.85 29.7 42.4 28.55 39.65 28.55 35.45 28.55 31.25 28.55 27.05 28.55 22.85 28.55 18.65 28.55 13.85 28.55 13.85 23.5 45.8 23.5 60.0 23.5 60.0 47.0 71.65 41.5 Q72.2 43.9 73.25 46.0 L67.65 54.65 73.65 54.65 73.1 56.95 68.8 56.95 Q67.9 56.95 67.25 57.6 66.6 58.2 66.6 59.15 66.6 60.05 67.25 60.65 67.9 61.3 68.8 61.3 L72.0 61.3 M20.65 7.3 L23.1 0.0 27.3 0.0 23.9 10.2 19.7 10.2 20.65 7.3 M31.45 0.0 L35.65 0.0 32.3 10.2 28.1 10.2 30.2 3.9 31.45 0.0 M39.85 0.0 L44.05 0.0 40.7 10.2 36.5 10.2 38.6 3.9 39.85 0.0 M48.25 0.0 L52.45 0.0 49.1 10.2 44.9 10.2 47.0 3.9 48.25 0.0 M73.25 11.95 L71.35 9.05 57.5 9.05 71.35 9.05 73.25 11.95 M73.75 12.7 L75.85 15.85 78.75 15.85 75.85 15.85 73.75 12.7" fill="#666666" fill-rule="evenodd" stroke="none"/>
      <path d="M189.85 24.55 L200.75 24.55 200.75 46.0 189.85 46.0 189.85 24.55 M185.65 26.2 L185.65 44.35 178.95 41.0 178.95 29.55 185.65 26.2 M184.3 35.25 Q184.3 34.55 183.7 34.0 183.15 33.5 182.3 33.5 181.5 33.5 180.9 34.0 180.3 34.55 180.3 35.25 180.3 35.95 180.9 36.45 181.5 37.0 182.3 37.0 183.15 37.0 183.7 36.45 184.3 35.95 184.3 35.25 M184.3 31.05 Q184.3 30.35 183.7 29.8 183.15 29.3 182.3 29.3 181.5 29.3 180.9 29.8 180.3 30.35 180.3 31.05 180.3 31.75 180.9 32.25 181.5 32.8 182.3 32.8 183.15 32.8 183.7 32.25 184.3 31.75 184.3 31.05 M184.3 39.45 Q184.3 38.75 183.7 38.2 183.15 37.7 182.3 37.7 181.5 37.7 180.9 38.2 180.3 38.75 180.3 39.45 180.3 40.15 180.9 40.65 181.5 41.2 182.3 41.2 183.15 41.2 183.7 40.65 184.3 40.15 184.3 39.45 M193.0 27.65 L193.0 42.85 198.65 42.85 198.65 27.65 193.0 27.65 M18.6 18.75 L20.0 17.35 21.5 15.85 53.95 15.85 55.35 12.9 57.15 12.9 59.1 17.1 59.7 18.35 65.15 18.35 60.0 23.5 71.65 29.0 Q70.95 31.95 70.95 35.25 70.95 38.6 71.65 41.5 L60.0 47.0 60.0 23.5 45.8 23.5 13.85 23.5 16.95 20.4 18.6 18.75 M27.3 0.0 L31.45 0.0 30.2 3.9 29.6 3.9 25.6 12.9 23.9 10.2 27.3 0.0 M35.65 0.0 L39.85 0.0 38.6 3.9 38.0 3.9 34.0 12.9 32.3 10.2 35.65 0.0 M44.05 0.0 L48.25 0.0 47.0 3.9 46.35 3.9 42.4 12.9 40.7 10.2 44.05 0.0 M52.45 0.0 L60.2 0.0 61.25 3.9 57.8 3.9 54.75 3.9 50.8 12.9 49.1 10.2 52.45 0.0 M59.1 17.1 L53.25 17.1 52.5 17.75 53.25 17.1 59.1 17.1 M49.35 20.4 L45.8 23.5 49.35 20.4 43.35 20.4 49.35 20.4 52.0 18.15 49.35 20.4 M42.65 20.4 L16.95 20.4 42.65 20.4" fill="#7f7f7f" fill-rule="evenodd" stroke="none"/>
      <path d="M189.85 46.0 L200.75 46.0 191.55 56.25 186.4 56.25 184.25 58.95 180.1 64.2 165.75 64.2 170.1 58.95 172.35 56.25 176.75 56.25 186.4 56.25 176.75 56.25 189.85 46.0 M185.65 44.35 L176.25 49.65 172.2 51.9 169.3 48.95 166.35 46.0 170.85 44.25 172.35 45.75 170.85 44.25 178.95 41.0 185.65 44.35 M177.5 58.95 L170.1 58.95 177.5 58.95 M178.1 58.95 L184.25 58.95 178.1 58.95 M176.25 49.65 L172.8 46.15 176.25 49.65 M89.05 14.6 L88.25 15.85 86.5 18.35 85.5 18.35 77.05 18.35 78.75 15.85 79.65 14.6 89.05 14.6 M88.25 15.85 L85.4 15.85 88.25 15.85 M83.3 46.0 L88.35 46.0 84.35 54.65 73.65 54.65 67.65 54.65 73.25 46.0 78.3 46.0 83.3 46.0 M65.05 63.45 L59.8 63.45 38.0 63.45 36.15 60.45 32.65 54.65 34.7 54.65 38.9 54.65 43.1 54.65 47.3 54.65 51.5 54.65 55.7 54.65 48.05 47.0 43.85 47.0 43.85 29.7 48.05 33.05 48.05 47.0 60.0 47.0 67.65 54.65 62.85 54.65 65.05 63.45 M20.25 37.35 L18.65 34.35 18.15 33.55 Q16.3 30.85 13.85 28.55 L18.65 28.55 22.85 28.55 27.05 28.55 31.25 28.55 35.45 28.55 39.65 28.55 42.4 28.55 43.85 29.7 43.85 47.0 39.65 47.0 35.45 47.0 31.25 47.0 31.25 31.6 31.25 47.0 27.05 47.0 22.85 47.0 22.75 47.0 Q22.3 41.75 20.25 37.35 M20.0 17.35 L17.05 13.55 19.05 8.6 20.65 7.3 19.7 10.2 21.4 12.9 25.6 12.9 21.4 12.9 19.7 10.2 23.9 10.2 25.6 12.9 29.6 3.9 30.2 3.9 28.1 10.2 29.8 12.9 34.0 12.9 29.8 12.9 28.1 10.2 32.3 10.2 34.0 12.9 38.0 3.9 38.6 3.9 36.5 10.2 38.2 12.9 42.4 12.9 38.2 12.9 36.5 10.2 40.7 10.2 42.4 12.9 46.35 3.9 47.0 3.9 44.9 10.2 46.6 12.9 50.8 12.9 46.6 12.9 44.9 10.2 49.1 10.2 50.8 12.9 54.75 3.9 57.8 3.9 59.9 6.7 58.55 6.7 57.5 9.05 56.45 11.45 57.15 12.9 55.35 12.9 53.95 15.85 21.5 15.85 20.0 17.35 M84.85 15.85 L78.75 15.85 84.85 15.85 M18.65 31.6 L18.65 34.35 18.65 31.6 M18.65 28.55 L18.65 31.25 18.65 28.55 M22.85 28.55 L22.85 31.25 22.85 28.55 M27.05 28.55 L27.05 31.25 27.05 28.55 M35.45 28.55 L35.45 31.25 35.45 28.55 M39.65 28.55 L39.65 31.25 39.65 28.55 M31.25 28.55 L31.25 31.25 31.25 28.55 M27.05 31.6 L27.05 47.0 27.05 31.6 M39.65 31.6 L39.65 47.0 39.65 31.6 M35.45 31.6 L35.45 47.0 35.45 31.6 M22.85 31.6 L22.85 47.0 22.85 31.6 M58.45 58.0 L59.05 60.45 53.7 60.45 59.05 60.45 58.45 58.0 M57.6 54.65 L55.7 54.65 57.6 54.65 62.85 54.65 57.6 54.65 58.35 57.7 57.6 54.65 M59.05 60.45 L59.8 63.45 59.05 60.45 M53.2 60.45 L36.15 60.45 53.2 60.45" fill="#4c4c4c" fill-rule="evenodd" stroke="none"/>
      <path d="M32.65 54.65 L30.4 54.65 25.1 49.35 22.75 47.0 22.85 47.0 27.05 47.0 31.25 47.0 35.45 47.0 39.65 47.0 43.85 47.0 48.05 47.0 55.7 54.65 51.5 54.65 47.3 54.65 43.1 54.65 38.9 54.65 34.7 54.65 31.05 51.0 34.7 54.65 32.65 54.65 M47.3 50.45 L43.85 47.0 47.3 50.45 M34.7 50.45 L31.25 47.0 34.7 50.45 M38.9 50.45 L35.45 47.0 38.9 50.45 M35.25 51.0 L38.9 54.65 35.25 51.0 M30.55 50.45 L27.05 47.0 30.55 50.45 M39.45 51.0 L43.1 54.65 39.45 51.0 M43.65 51.0 L47.3 54.65 43.65 51.0 M47.85 51.0 L51.5 54.65 47.85 51.0 M43.1 50.45 L39.65 47.0 43.1 50.45" fill="#333333" fill-rule="evenodd" stroke="none"/>
      <path d="M200.75 24.55 L189.85 24.55 176.75 14.3 186.4 14.3 176.75 14.3 172.35 14.3 170.1 11.6 165.75 6.35 180.1 6.35 184.25 11.6 186.4 14.3 191.55 14.3 200.75 24.55 M169.3 21.6 L172.2 18.65 176.25 20.9 185.65 26.2 178.95 29.55 170.85 26.35 166.35 24.55 169.3 21.6 M176.25 20.9 L174.95 22.25 176.25 20.9 M177.5 11.6 L170.1 11.6 177.5 11.6 M174.3 22.85 L170.85 26.35 174.3 22.85 M184.25 11.6 L178.1 11.6 184.25 11.6 M88.5 13.7 L89.05 14.6 79.65 14.6 74.9 6.7 84.35 6.7 85.9 9.35 83.45 9.35 Q82.55 9.35 81.9 9.95 81.3 10.6 81.3 11.5 81.3 12.4 81.9 13.05 82.55 13.7 83.45 13.7 L88.5 13.7 M65.15 18.35 L69.3 18.35 73.25 24.55 Q72.2 26.65 71.65 29.0 L60.0 23.5 65.15 18.35" fill="#999999" fill-rule="evenodd" stroke="none"/>
      <path d="M85.5 18.35 L88.35 24.55 83.3 24.55 78.25 24.55 73.25 24.55 69.3 18.35 77.05 18.35 85.5 18.35" fill="#b2b2b2" fill-rule="evenodd" stroke="none"/>
      <path d="M61.25 3.9 L63.8 3.9 66.7 6.7 59.9 6.7 57.8 3.9 61.25 3.9" fill="#727272" fill-rule="evenodd" stroke="none"/>
      <path d="M184.3 31.05 Q184.3 31.75 183.7 32.25 183.15 32.8 182.3 32.8 181.5 32.8 180.9 32.25 180.3 31.75 180.3 31.05 180.3 30.35 180.9 29.8 181.5 29.3 182.3 29.3 183.15 29.3 183.7 29.8 184.3 30.35 184.3 31.05 M184.3 35.25 Q184.3 35.95 183.7 36.45 183.15 37.0 182.3 37.0 181.5 37.0 180.9 36.45 180.3 35.95 180.3 35.25 180.3 34.55 180.9 34.0 181.5 33.5 182.3 33.5 183.15 33.5 183.7 34.0 184.3 34.55 184.3 35.25 M184.3 39.45 Q184.3 40.15 183.7 40.65 183.15 41.2 182.3 41.2 181.5 41.2 180.9 40.65 180.3 40.15 180.3 39.45 180.3 38.75 180.9 38.2 181.5 37.7 182.3 37.7 183.15 37.7 183.7 38.2 184.3 38.75 184.3 39.45" fill="#007ed7" fill-rule="evenodd" stroke="none"/>
      <path d="M88.35 24.55 L93.35 24.55 98.4 24.55 103.45 24.55 108.45 24.55 113.5 24.55 118.55 24.55 123.6 24.55 128.6 24.55 133.65 24.55 138.7 24.55 143.7 24.55 148.75 24.55 153.8 24.55 158.85 24.55 163.85 24.55 166.35 24.55 166.35 46.0 163.9 46.0 Q162.7 43.6 162.1 40.8 162.7 43.6 163.9 46.0 L158.85 46.0 153.8 46.0 148.8 46.0 143.75 46.0 138.7 46.0 133.65 46.0 Q132.5 43.6 131.9 40.8 132.5 43.6 133.65 46.0 L128.65 46.0 123.6 46.0 Q122.4 43.6 121.85 40.8 122.4 43.6 123.6 46.0 L118.55 46.0 113.55 46.0 Q112.35 43.6 111.75 40.8 112.35 43.6 113.55 46.0 L108.5 46.0 103.45 46.0 Q102.25 43.6 101.7 40.8 102.25 43.6 103.45 46.0 L98.4 46.0 93.4 46.0 Q92.2 43.6 91.65 40.8 92.2 43.6 93.4 46.0 L88.35 46.0 83.3 46.0 Q82.1 43.6 81.55 40.8 82.1 43.6 83.3 46.0 L78.3 46.0 73.25 46.0 Q72.2 43.9 71.65 41.5 70.95 38.6 70.95 35.25 70.95 31.95 71.65 29.0 72.2 26.65 73.25 24.55 L78.25 24.55 83.3 24.55 88.35 24.55 Q86.05 29.2 86.05 35.25 86.05 38.0 86.55 40.45 86.05 38.0 86.05 35.25 86.05 29.2 88.35 24.55 M136.95 40.8 Q137.5 43.6 138.7 46.0 137.5 43.6 136.95 40.8 M126.9 40.8 Q127.45 43.6 128.65 46.0 127.45 43.6 126.9 40.8 M138.7 24.55 Q136.4 29.2 136.4 35.25 136.4 38.0 136.9 40.45 136.4 38.0 136.4 35.25 136.4 29.2 138.7 24.55 M128.6 24.55 Q126.35 29.2 126.35 35.25 126.35 38.0 126.8 40.45 126.35 38.0 126.35 35.25 126.35 29.2 128.6 24.55 M133.65 24.55 Q131.35 29.2 131.35 35.25 131.35 38.0 131.85 40.45 131.35 38.0 131.35 35.25 131.35 29.2 133.65 24.55 M142.0 40.8 Q142.55 43.6 143.75 46.0 142.55 43.6 142.0 40.8 M147.0 40.8 Q147.6 43.6 148.8 46.0 147.6 43.6 147.0 40.8 M157.1 40.8 Q157.65 43.6 158.85 46.0 157.65 43.6 157.1 40.8 M152.05 40.8 Q152.6 43.6 153.8 46.0 152.6 43.6 152.05 40.8 M143.7 24.55 Q141.45 29.2 141.45 35.25 141.45 38.0 141.9 40.45 141.45 38.0 141.45 35.25 141.45 29.2 143.7 24.55 M158.85 24.55 Q156.55 29.2 156.55 35.25 156.55 38.0 157.05 40.45 156.55 38.0 156.55 35.25 156.55 29.2 158.85 24.55 M148.75 24.55 Q146.45 29.2 146.45 35.25 146.45 38.0 146.95 40.45 146.45 38.0 146.45 35.25 146.45 29.2 148.75 24.55 M153.8 24.55 Q151.5 29.2 151.5 35.25 151.5 38.0 152.0 40.45 151.5 38.0 151.5 35.25 151.5 29.2 153.8 24.55 M86.6 40.8 Q87.15 43.6 88.35 46.0 87.15 43.6 86.6 40.8 M98.4 24.55 Q96.1 29.2 96.1 35.25 96.1 38.0 96.6 40.45 96.1 38.0 96.1 35.25 96.1 29.2 98.4 24.55 M93.35 24.55 Q91.1 29.2 91.1 35.25 91.1 38.0 91.55 40.45 91.1 38.0 91.1 35.25 91.1 29.2 93.35 24.55 M96.65 40.8 Q97.25 43.6 98.4 46.0 97.25 43.6 96.65 40.8 M83.3 24.55 Q81.0 29.2 81.0 35.25 81.0 38.0 81.5 40.45 81.0 38.0 81.0 35.25 81.0 29.2 83.3 24.55 M106.75 40.8 Q107.3 43.6 108.5 46.0 107.3 43.6 106.75 40.8 M116.8 40.8 Q117.35 43.6 118.55 46.0 117.35 43.6 116.8 40.8 M103.45 24.55 Q101.15 29.2 101.15 35.25 101.15 38.0 101.65 40.45 101.15 38.0 101.15 35.25 101.15 29.2 103.45 24.55 M118.55 24.55 Q116.25 29.2 116.25 35.25 116.25 38.0 116.75 40.45 116.25 38.0 116.25 35.25 116.25 29.2 118.55 24.55 M108.45 24.55 Q106.2 29.2 106.2 35.25 106.2 38.0 106.65 40.45 106.2 38.0 106.2 35.25 106.2 29.2 108.45 24.55 M113.5 24.55 Q111.2 29.2 111.2 35.25 111.2 38.0 111.7 40.45 111.2 38.0 111.2 35.25 111.2 29.2 113.5 24.55 M123.6 24.55 Q121.3 29.2 121.3 35.25 121.3 38.0 121.8 40.45 121.3 38.0 121.3 35.25 121.3 29.2 123.6 24.55 M78.25 24.55 Q75.95 29.2 75.95 35.25 75.95 38.0 76.45 40.45 75.95 38.0 75.95 35.25 75.95 29.2 78.25 24.55 M76.5 40.8 Q77.1 43.6 78.3 46.0 77.1 43.6 76.5 40.8 M163.85 24.55 Q161.6 29.2 161.6 35.25 161.6 38.0 162.05 40.45 161.6 38.0 161.6 35.25 161.6 29.2 163.85 24.55" fill="url(#gradient0)" fill-rule="evenodd" stroke="none"/>
      <path d="M193.0 27.65 L198.65 27.65 198.65 42.85 193.0 42.85 193.0 27.65" fill="url(#gradient1)" fill-rule="evenodd" stroke="none"/>
      <path d="M156.4 9.35 L156.4 11.6 156.4 13.7 88.5 13.7 83.45 13.7 Q82.55 13.7 81.9 13.05 81.3 12.4 81.3 11.5 81.3 10.6 81.9 9.95 82.55 9.35 83.45 9.35 L85.9 9.35 156.4 9.35" fill="url(#gradient2)" fill-rule="evenodd" stroke="none"/>
      <path d="M156.4 56.95 L156.4 58.95 156.4 61.3 72.0 61.3 68.8 61.3 Q67.9 61.3 67.25 60.65 66.6 60.05 66.6 59.15 66.6 58.2 67.25 57.6 67.9 56.95 68.8 56.95 L73.1 56.95 156.4 56.95" fill="url(#gradient3)" fill-rule="evenodd" stroke="none"/>
      <path d="M18.15 33.55 L13.45 33.55 10.3 33.55 5.85 33.55 Q3.45 33.55 1.7 31.35 0.0 29.2 0.0 26.15 0.0 23.1 1.7 20.9 3.45 18.75 5.85 18.75 L10.3 18.75 13.45 18.75 18.6 18.75 16.95 20.4 13.85 23.5 13.85 28.55 Q16.3 30.85 18.15 33.55 M13.45 18.75 Q11.1 18.8 9.4 20.9 7.7 23.1 7.7 26.15 L7.75 27.2 7.7 26.15 Q7.7 23.1 9.4 20.9 11.1 18.8 13.45 18.75 M10.3 18.75 Q8.0 18.8 6.35 20.9 4.6 23.1 4.6 26.15 L4.7 27.2 4.6 26.15 Q4.6 23.1 6.35 20.9 8.0 18.8 10.3 18.75 M7.85 27.8 Q8.2 29.8 9.4 31.35 11.1 33.5 13.45 33.55 11.1 33.5 9.4 31.35 8.2 29.8 7.85 27.8 M4.75 27.8 Q5.1 29.8 6.35 31.35 8.0 33.45 10.3 33.55 8.0 33.45 6.35 31.35 5.1 29.8 4.75 27.8" fill="url(#gradient4)" fill-rule="evenodd" stroke="none"/>
      <path d="M25.1 49.35 L16.9 49.35 14.35 49.35 10.7 49.35 Q8.75 49.35 7.35 47.55 5.95 45.8 5.95 43.35 5.95 40.85 7.35 39.05 8.75 37.35 10.7 37.35 L14.25 37.35 16.85 37.35 20.25 37.35 Q22.3 41.75 22.75 47.0 L25.1 49.35 M16.85 37.35 Q14.95 37.4 13.6 39.05 12.2 40.85 12.2 43.35 L12.25 44.2 12.2 43.35 Q12.2 40.85 13.6 39.05 14.95 37.4 16.85 37.35 M9.85 44.7 Q10.1 46.3 11.1 47.55 12.45 49.25 14.35 49.35 12.45 49.25 11.1 47.55 10.1 46.3 9.85 44.7 M12.35 44.7 Q12.6 46.3 13.6 47.55 15.0 49.3 16.9 49.35 15.0 49.3 13.6 47.55 12.6 46.3 12.35 44.7 M14.25 37.35 Q12.4 37.4 11.1 39.05 9.7 40.85 9.7 43.35 L9.75 44.2 9.7 43.35 Q9.7 40.85 11.1 39.05 12.4 37.4 14.25 37.35" fill="url(#gradient5)" fill-rule="evenodd" stroke="none"/>
      <path d="M189.85 24.55 L200.75 24.55 191.55 14.3 186.4 14.3 176.75 14.3 189.85 24.55 189.85 46.0 200.75 46.0 200.75 24.55 M165.75 6.35 L180.1 6.35 184.25 11.6 186.4 14.3 M164.9 11.6 L170.1 11.6 165.75 6.35 156.4 6.35 156.4 9.35 156.4 11.6 164.05 11.6 M156.4 13.7 L156.4 16.85 165.0 16.85 169.3 21.6 172.2 18.65 176.25 20.9 185.65 26.2 185.65 44.35 176.25 49.65 172.2 51.9 169.3 48.95 165.0 53.7 156.4 53.7 156.4 56.95 156.4 58.95 164.05 58.95 M88.35 24.55 L93.35 24.55 98.4 24.55 103.45 24.55 108.45 24.55 113.5 24.55 118.55 24.55 123.6 24.55 128.6 24.55 133.65 24.55 138.7 24.55 143.7 24.55 148.75 24.55 153.8 24.55 158.85 24.55 163.85 24.55 166.35 24.55 169.3 21.6 M174.95 22.25 L176.25 20.9 M176.75 14.3 L172.35 14.3 170.1 11.6 177.5 11.6 M184.3 31.05 Q184.3 31.75 183.7 32.25 183.15 32.8 182.3 32.8 181.5 32.8 180.9 32.25 180.3 31.75 180.3 31.05 180.3 30.35 180.9 29.8 181.5 29.3 182.3 29.3 183.15 29.3 183.7 29.8 184.3 30.35 184.3 31.05 M184.3 35.25 Q184.3 35.95 183.7 36.45 183.15 37.0 182.3 37.0 181.5 37.0 180.9 36.45 180.3 35.95 180.3 35.25 180.3 34.55 180.9 34.0 181.5 33.5 182.3 33.5 183.15 33.5 183.7 34.0 184.3 34.55 184.3 35.25 M170.85 26.35 L170.85 32.75 M163.9 46.0 Q162.7 43.6 162.1 40.8 M163.9 46.0 L166.35 46.0 166.35 24.55 170.85 26.35 174.3 22.85 M166.35 46.0 L170.85 44.25 170.85 33.05 M166.35 46.0 L169.3 48.95 M184.3 39.45 Q184.3 40.15 183.7 40.65 183.15 41.2 182.3 41.2 181.5 41.2 180.9 40.65 180.3 40.15 180.3 39.45 180.3 38.75 180.9 38.2 181.5 37.7 182.3 37.7 183.15 37.7 183.7 38.2 184.3 38.75 184.3 39.45 M170.85 44.25 L172.35 45.75 M170.85 44.25 L178.95 41.0 178.95 29.55 170.85 26.35 M193.0 27.65 L198.65 27.65 198.65 42.85 193.0 42.85 193.0 27.65 M178.95 29.55 L185.65 26.2 M185.65 44.35 L178.95 41.0 M178.1 11.6 L184.25 11.6 M186.4 56.25 L191.55 56.25 200.75 46.0 M184.25 58.95 L186.4 56.25 176.75 56.25 172.35 56.25 170.1 58.95 177.5 58.95 M164.9 58.95 L170.1 58.95 165.75 64.2 180.1 64.2 184.25 58.95 178.1 58.95 M189.85 46.0 L176.75 56.25 M172.8 46.15 L176.25 49.65 M156.4 11.6 L156.4 13.7 88.5 13.7 89.05 14.6 88.25 15.85 86.5 18.35 85.5 18.35 88.35 24.55 Q86.05 29.2 86.05 35.25 86.05 38.0 86.55 40.45 M123.6 46.0 Q122.4 43.6 121.85 40.8 M123.6 46.0 L128.65 46.0 Q127.45 43.6 126.9 40.8 M138.7 46.0 Q137.5 43.6 136.95 40.8 M133.65 46.0 Q132.5 43.6 131.9 40.8 M133.65 46.0 L138.7 46.0 143.75 46.0 Q142.55 43.6 142.0 40.8 M131.85 40.45 Q131.35 38.0 131.35 35.25 131.35 29.2 133.65 24.55 M126.8 40.45 Q126.35 38.0 126.35 35.25 126.35 29.2 128.6 24.55 M136.9 40.45 Q136.4 38.0 136.4 35.25 136.4 29.2 138.7 24.55 M128.65 46.0 L133.65 46.0 M148.8 46.0 Q147.6 43.6 147.0 40.8 M143.75 46.0 L148.8 46.0 153.8 46.0 Q152.6 43.6 152.05 40.8 M158.85 46.0 Q157.65 43.6 157.1 40.8 M153.8 46.0 L158.85 46.0 163.9 46.0 M152.0 40.45 Q151.5 38.0 151.5 35.25 151.5 29.2 153.8 24.55 M146.95 40.45 Q146.45 38.0 146.45 35.25 146.45 29.2 148.75 24.55 M157.05 40.45 Q156.55 38.0 156.55 35.25 156.55 29.2 158.85 24.55 M141.9 40.45 Q141.45 38.0 141.45 35.25 141.45 29.2 143.7 24.55 M88.5 13.7 L83.45 13.7 Q82.55 13.7 81.9 13.05 81.3 12.4 81.3 11.5 81.3 10.6 81.9 9.95 82.55 9.35 83.45 9.35 L85.9 9.35 84.35 6.7 74.9 6.7 79.65 14.6 89.05 14.6 M73.25 24.55 L78.25 24.55 83.3 24.55 88.35 24.55 M85.4 15.85 L88.25 15.85 M83.3 46.0 Q82.1 43.6 81.55 40.8 M83.3 46.0 L88.35 46.0 Q87.15 43.6 86.6 40.8 M93.4 46.0 L98.4 46.0 Q97.25 43.6 96.65 40.8 M93.4 46.0 Q92.2 43.6 91.65 40.8 M91.55 40.45 Q91.1 38.0 91.1 35.25 91.1 29.2 93.35 24.55 M96.6 40.45 Q96.1 38.0 96.1 35.25 96.1 29.2 98.4 24.55 M88.35 46.0 L93.4 46.0 M81.5 40.45 Q81.0 38.0 81.0 35.25 81.0 29.2 83.3 24.55 M103.45 46.0 L108.5 46.0 Q107.3 43.6 106.75 40.8 M103.45 46.0 Q102.25 43.6 101.7 40.8 M113.55 46.0 L118.55 46.0 Q117.35 43.6 116.8 40.8 M113.55 46.0 Q112.35 43.6 111.75 40.8 M108.5 46.0 L113.55 46.0 M111.7 40.45 Q111.2 38.0 111.2 35.25 111.2 29.2 113.5 24.55 M106.65 40.45 Q106.2 38.0 106.2 35.25 106.2 29.2 108.45 24.55 M116.75 40.45 Q116.25 38.0 116.25 35.25 116.25 29.2 118.55 24.55 M101.65 40.45 Q101.15 38.0 101.15 35.25 101.15 29.2 103.45 24.55 M98.4 46.0 L103.45 46.0 M165.75 64.2 L156.4 64.2 156.4 61.3 72.0 61.3 71.45 63.45 65.05 63.45 59.8 63.45 38.0 63.45 36.15 60.45 32.65 54.65 30.4 54.65 25.1 49.35 16.9 49.35 14.35 49.35 10.7 49.35 Q8.75 49.35 7.35 47.55 5.95 45.8 5.95 43.35 5.95 40.85 7.35 39.05 8.75 37.35 10.7 37.35 L14.25 37.35 16.85 37.35 20.25 37.35 18.65 34.35 18.15 33.55 13.45 33.55 10.3 33.55 5.85 33.55 Q3.45 33.55 1.7 31.35 0.0 29.2 0.0 26.15 0.0 23.1 1.7 20.9 3.45 18.75 5.85 18.75 L10.3 18.75 13.45 18.75 18.6 18.75 20.0 17.35 17.05 13.55 19.05 8.6 20.65 7.3 23.1 0.0 27.3 0.0 31.45 0.0 35.65 0.0 39.85 0.0 44.05 0.0 48.25 0.0 52.45 0.0 60.2 0.0 61.25 3.9 63.8 3.9 66.7 6.7 74.9 6.7 M156.4 61.3 L156.4 58.95 M73.65 54.65 L84.35 54.65 88.35 46.0 M85.9 9.35 L156.4 9.35 M121.8 40.45 Q121.3 38.0 121.3 35.25 121.3 29.2 123.6 24.55 M118.55 46.0 L123.6 46.0 M57.5 9.05 L71.35 9.05 73.25 11.95 M65.15 18.35 L69.3 18.35 77.05 18.35 78.75 15.85 75.85 15.85 73.75 12.7 M79.65 14.6 L78.75 15.85 84.85 15.85 M73.25 24.55 L69.3 18.35 M57.8 3.9 L54.75 3.9 50.8 12.9 46.6 12.9 44.9 10.2 47.0 3.9 46.35 3.9 42.4 12.9 38.2 12.9 36.5 10.2 38.6 3.9 38.0 3.9 34.0 12.9 29.8 12.9 28.1 10.2 30.2 3.9 29.6 3.9 25.6 12.9 21.4 12.9 19.7 10.2 20.65 7.3 M57.15 12.9 L56.45 11.45 57.5 9.05 58.55 6.7 59.9 6.7 57.8 3.9 61.25 3.9 M40.7 10.2 L44.05 0.0 M44.9 10.2 L49.1 10.2 52.45 0.0 M47.0 3.9 L48.25 0.0 M43.35 20.4 L49.35 20.4 52.0 18.15 M45.8 23.5 L49.35 20.4 M52.5 17.75 L53.25 17.1 59.1 17.1 57.15 12.9 55.35 12.9 53.95 15.85 21.5 15.85 20.0 17.35 M65.15 18.35 L59.7 18.35 59.1 17.1 M42.4 12.9 L40.7 10.2 36.5 10.2 M60.0 47.0 L60.0 23.5 45.8 23.5 13.85 23.5 13.85 28.55 18.65 28.55 22.85 28.55 27.05 28.55 31.25 28.55 35.45 28.55 39.65 28.55 42.4 28.55 43.85 29.7 48.05 33.05 48.05 47.0 60.0 47.0 71.65 41.5 Q70.95 38.6 70.95 35.25 70.95 31.95 71.65 29.0 L60.0 23.5 65.15 18.35 M50.8 12.9 L49.1 10.2 M43.85 47.0 L43.85 29.7 M51.5 54.65 L55.7 54.65 48.05 47.0 43.85 47.0 47.3 50.45 M76.45 40.45 Q75.95 38.0 75.95 35.25 75.95 29.2 78.25 24.55 M83.3 46.0 L78.3 46.0 73.25 46.0 67.65 54.65 73.65 54.65 73.1 56.95 156.4 56.95 M73.25 46.0 Q72.2 43.9 71.65 41.5 M78.3 46.0 Q77.1 43.6 76.5 40.8 M59.9 6.7 L66.7 6.7 M71.65 29.0 Q72.2 26.65 73.25 24.55 M32.3 10.2 L35.65 0.0 M38.6 3.9 L39.85 0.0 M23.9 10.2 L27.3 0.0 M34.0 12.9 L32.3 10.2 28.1 10.2 M25.6 12.9 L23.9 10.2 19.7 10.2 M30.2 3.9 L31.45 0.0 M13.85 23.5 L16.95 20.4 18.6 18.75 M4.7 27.2 L4.6 26.15 Q4.6 23.1 6.35 20.9 8.0 18.8 10.3 18.75 M7.75 27.2 L7.7 26.15 Q7.7 23.1 9.4 20.9 11.1 18.8 13.45 18.75 M18.65 34.35 L18.65 31.6 M18.15 33.55 Q16.3 30.85 13.85 28.55 M18.65 31.25 L18.65 28.55 M10.3 33.55 Q8.0 33.45 6.35 31.35 5.1 29.8 4.75 27.8 M13.45 33.55 Q11.1 33.5 9.4 31.35 8.2 29.8 7.85 27.8 M9.75 44.2 L9.7 43.35 Q9.7 40.85 11.1 39.05 12.4 37.4 14.25 37.35 M16.9 49.35 Q15.0 49.3 13.6 47.55 12.6 46.3 12.35 44.7 M14.35 49.35 Q12.45 49.25 11.1 47.55 10.1 46.3 9.85 44.7 M12.25 44.2 L12.2 43.35 Q12.2 40.85 13.6 39.05 14.95 37.4 16.85 37.35 M31.25 31.25 L31.25 28.55 M39.65 31.25 L39.65 28.55 M35.45 31.25 L35.45 28.55 M27.05 31.25 L27.05 28.55 M22.85 31.25 L22.85 28.55 M27.05 47.0 L22.85 47.0 22.75 47.0 25.1 49.35 M22.75 47.0 Q22.3 41.75 20.25 37.35 M35.45 47.0 L31.25 47.0 34.7 50.45 M39.65 47.0 L35.45 47.0 38.9 50.45 M22.85 47.0 L22.85 31.6 M35.45 47.0 L35.45 31.6 M39.65 47.0 L39.65 31.6 M31.25 47.0 L31.25 31.6 M27.05 47.0 L27.05 31.6 M31.25 47.0 L27.05 47.0 30.55 50.45 M38.9 54.65 L35.25 51.0 M34.7 54.65 L31.05 51.0 M34.7 54.65 L38.9 54.65 43.1 54.65 39.45 51.0 M32.65 54.65 L34.7 54.65 M72.0 61.3 L68.8 61.3 Q67.9 61.3 67.25 60.65 66.6 60.05 66.6 59.15 66.6 58.2 67.25 57.6 67.9 56.95 68.8 56.95 L73.1 56.95 M62.85 54.65 L67.65 54.65 60.0 47.0 M65.05 63.45 L62.85 54.65 57.6 54.65 58.35 57.7 M55.7 54.65 L57.6 54.65 M53.7 60.45 L59.05 60.45 58.45 58.0 M43.1 54.65 L47.3 54.65 43.65 51.0 M47.3 54.65 L51.5 54.65 47.85 51.0 M59.8 63.45 L59.05 60.45 M16.95 20.4 L42.65 20.4 M36.15 60.45 L53.2 60.45 M43.85 47.0 L39.65 47.0 43.1 50.45 M77.05 18.35 L85.5 18.35 M162.05 40.45 Q161.6 38.0 161.6 35.25 161.6 29.2 163.85 24.55" fill="none" stroke-width="0.7" stroke="#000000" stroke-opacity="0.4"/>
      <path d="M156.6 38.5 L156.6 28.9 Q159.6 29.2 161.9 30.2 165.5 31.65 165.5 33.7 165.5 35.8 161.9 37.25 159.6 38.15 156.6 38.5" fill="url(#gradient6)" fill-rule="evenodd" stroke="none"/>
      <path d="M156.6 28.9 L156.6 38.5 112.3 38.7 82.75 38.6 82.75 28.8 112.3 28.7 156.6 28.9" fill="url(#gradient7)" fill-rule="evenodd" stroke="none"/>
      <path d="M82.75 28.8 L82.75 38.6 Q78.85 38.35 75.95 37.25 72.1 35.8 72.1 33.7 72.1 31.65 75.95 30.2 78.85 29.05 82.75 28.8" fill="url(#gradient8)" fill-rule="evenodd" stroke="none"/>
    </g>
    <linearGradient gradientTransform="matrix(0.0, 0.0131, -0.0582, 0.0, 118.65, 35.25)" gradientUnits="userSpaceOnUse" id="gradient0" spreadMethod="pad" x1="-819.2" x2="819.2">
      <stop offset="0.0" stop-color="#003366"/>
      <stop offset="0.3137254901960784" stop-color="#56bbff"/>
      <stop offset="0.7137254901960784" stop-color="#0099ff"/>
      <stop offset="1.0" stop-color="#003366"/>
    </linearGradient>
    <linearGradient gradientTransform="matrix(0.0035, 0.0, 0.0, 0.0093, 195.8, 35.25)" gradientUnits="userSpaceOnUse" id="gradient1" spreadMethod="pad" x1="-819.2" x2="819.2">
      <stop offset="0.0" stop-color="#307fbc"/>
      <stop offset="1.0" stop-color="#333333"/>
    </linearGradient>
    <linearGradient gradientTransform="matrix(0.0, 0.0027, -0.0459, 0.0, 118.85, 11.5)" gradientUnits="userSpaceOnUse" id="gradient2" spreadMethod="pad" x1="-819.2" x2="819.2">
      <stop offset="0.0" stop-color="#666666"/>
      <stop offset="0.2235294117647059" stop-color="#cccccc"/>
      <stop offset="1.0" stop-color="#333333"/>
    </linearGradient>
    <linearGradient gradientTransform="matrix(0.0, 0.0027, -0.0548, 0.0, 111.5, 59.15)" gradientUnits="userSpaceOnUse" id="gradient3" spreadMethod="pad" x1="-819.2" x2="819.2">
      <stop offset="0.0" stop-color="#666666"/>
      <stop offset="0.2235294117647059" stop-color="#cccccc"/>
      <stop offset="1.0" stop-color="#333333"/>
    </linearGradient>
    <linearGradient gradientTransform="matrix(0.0, 0.009, -0.0114, 0.0, 9.3, 26.1)" gradientUnits="userSpaceOnUse" id="gradient4" spreadMethod="pad" x1="-819.2" x2="819.2">
      <stop offset="0.0" stop-color="#494949"/>
      <stop offset="0.2235294117647059" stop-color="#939393"/>
      <stop offset="1.0" stop-color="#333333"/>
    </linearGradient>
    <linearGradient gradientTransform="matrix(0.0, 0.0073, -0.0117, 0.0, 15.55, 43.35)" gradientUnits="userSpaceOnUse" id="gradient5" spreadMethod="pad" x1="-819.2" x2="819.2">
      <stop offset="0.0" stop-color="#494949"/>
      <stop offset="0.2235294117647059" stop-color="#939393"/>
      <stop offset="1.0" stop-color="#333333"/>
    </linearGradient>
    <radialGradient cx="0" cy="0" gradientTransform="matrix(0.0151, 0.0, 0.0, 0.0061, 153.2, 33.7)" gradientUnits="userSpaceOnUse" id="gradient6" r="819.2" spreadMethod="pad">
      <stop offset="0.4117647058823529" stop-color="#ffffff" stop-opacity="0.43137255"/>
      <stop offset="0.7294117647058823" stop-color="#00ccff" stop-opacity="0.34901962"/>
      <stop offset="1.0" stop-color="#00ccff" stop-opacity="0.0"/>
    </radialGradient>
    <radialGradient cx="0" cy="0" gradientTransform="matrix(0.1962, 0.0, 0.0, 0.0061, 112.3, 33.7)" gradientUnits="userSpaceOnUse" id="gradient7" r="819.2" spreadMethod="pad">
      <stop offset="0.4117647058823529" stop-color="#ffffff" stop-opacity="0.43137255"/>
      <stop offset="0.7294117647058823" stop-color="#00ccff" stop-opacity="0.34901962"/>
      <stop offset="1.0" stop-color="#00ccff" stop-opacity="0.0"/>
    </radialGradient>
    <radialGradient cx="0" cy="0" gradientTransform="matrix(0.0161, 0.0, 0.0, 0.0061, 85.15, 33.7)" gradientUnits="userSpaceOnUse" id="gradient8" r="819.2" spreadMethod="pad">
      <stop offset="0.4117647058823529" stop-color="#ffffff" stop-opacity="0.43137255"/>
      <stop offset="0.7294117647058823" stop-color="#00ccff" stop-opacity="0.34901962"/>
      <stop offset="1.0" stop-color="#00ccff" stop-opacity="0.0"/>
    </radialGradient>
  </defs>
</svg>
