<?xml version="1.0" encoding="UTF-8" standalone="no"?>
<svg xmlns:xlink="http://www.w3.org/1999/xlink" height="149.2px" width="278.35px" xmlns="http://www.w3.org/2000/svg">
  <g transform="matrix(1.0, 0.0, 0.0, 1.0, 0.05, 0.05)">
    <path d="M181.05 142.55 L177.2 142.55 177.2 140.4 177.2 126.2 173.7 122.65 170.95 122.65 170.95 142.5 170.95 142.55 166.95 142.55 166.95 140.35 166.95 126.2 163.4 122.65 160.7 122.65 160.7 142.5 160.7 142.55 158.2 142.55 152.4 136.95 151.5 136.15 150.1 126.55 146.85 104.7 145.95 98.75 127.25 98.75 120.3 93.4 114.5 89.0 112.5 87.4 113.45 83.3 131.4 73.45 134.0 73.45 136.85 81.2 163.95 81.2 170.45 56.95 163.1 44.95 138.0 38.05 132.6 43.6 127.55 35.45 102.45 28.6 97.65 33.55 92.8 25.65 64.7 18.15 56.45 26.65 49.0 26.65 63.15 12.4 175.5 43.25 185.3 54.2 211.2 83.15 211.2 95.25 200.6 95.25 190.85 86.9 177.45 84.05 175.5 91.35 187.25 93.55 197.7 102.7 211.2 102.7 211.2 108.25 181.05 142.55 M78.9 12.4 L91.45 0.0 95.35 1.3 95.4 1.3 99.25 2.65 99.3 2.65 103.1 3.85 103.15 3.85 122.3 10.15 119.1 23.05 91.2 15.65 87.2 14.55 83.1 13.45 88.35 8.25 83.1 13.45 78.95 12.4 78.9 12.4 M185.4 33.05 L185.4 37.85 204.65 58.7 202.85 61.25 196.6 54.2 186.8 43.25 149.6 33.25 Q164.3 26.45 185.4 33.05 M158.05 48.0 L163.35 56.05 157.9 77.55 138.3 77.55 136.6 73.45 153.25 73.45 157.65 56.75 154.35 50.75 136.7 46.8 132.4 46.8 137.15 42.55 158.05 48.0 M185.3 54.2 L177.45 84.05 185.3 54.2 M175.5 91.35 L173.55 98.75 145.95 98.75 173.55 98.75 175.5 91.35 M122.55 38.5 L127.85 46.6 127.8 46.8 123.15 46.8 120.35 41.55 101.05 37.25 96.9 37.25 101.55 33.05 122.55 38.5 M94.1 7.75 L99.25 2.65 94.1 7.75 M88.9 7.75 L95.4 1.3 88.9 7.75 M98.65 8.25 L91.2 15.65 98.65 8.25 M93.55 8.25 L87.2 14.55 93.55 8.25 M99.2 7.75 L103.15 3.85 99.2 7.75 M87.8 28.75 L93.05 36.85 92.95 37.25 88.05 37.25 84.85 31.35 63.8 26.65 59.4 26.65 63.9 22.6 87.8 28.75" fill="#5b5b5b" fill-rule="evenodd" stroke="none"/>
    <path d="M256.5 36.95 L239.75 36.95 191.05 28.25 223.3 28.25 256.5 36.95 M27.5 26.65 L49.0 26.65 56.45 26.65 59.4 26.65 63.8 26.65 84.85 31.35 49.75 31.35 27.5 26.65 M63.15 12.4 L78.9 12.4 78.95 12.4 83.1 13.45 87.2 14.55 91.2 15.65 119.1 23.05 122.9 23.05 150.25 23.05 153.7 23.05 151.9 19.75 164.85 23.9 165.75 23.6 Q171.0 22.45 176.75 22.9 L208.8 22.9 Q217.55 23.8 221.1 26.25 L191.3 26.25 188.95 27.6 Q172.55 21.95 156.15 27.15 L156.0 27.25 149.6 33.25 186.8 43.25 175.5 43.25 63.15 12.4 M91.45 0.0 L120.4 0.0 123.55 1.25 126.9 2.65 130.0 3.85 145.95 10.1 122.3 10.15 103.15 3.85 103.1 3.85 99.3 2.65 99.25 2.65 95.4 1.3 95.35 1.3 91.45 0.0 M176.75 22.9 Q183.65 23.45 191.3 26.25 183.65 23.45 176.75 22.9 M127.8 46.8 L129.55 46.8 132.4 46.8 136.7 46.8 154.35 50.75 125.0 50.75 106.4 46.8 123.15 46.8 127.8 46.8 M96.9 37.25 L101.05 37.25 120.35 41.55 88.2 41.55 67.85 37.25 88.05 37.25 92.95 37.25 94.0 37.25 96.9 37.25 M116.0 3.85 L103.15 3.85 116.0 3.85 M116.0 2.65 L99.3 2.65 116.0 2.65 M116.0 1.3 L95.4 1.3 116.0 1.3 M123.55 1.25 L116.5 1.3 123.55 1.25 M130.0 3.85 L116.5 3.85 130.0 3.85 M126.9 2.65 L116.5 2.65 126.9 2.65 M164.85 23.9 L156.15 27.15 164.85 23.9" fill="#b4b4b4" fill-rule="evenodd" stroke="none"/>
    <path d="M90.0 48.1 L105.35 48.1 99.6 55.45 101.1 59.05 95.6 60.55 97.4 63.85 94.75 64.6 90.0 48.1 M51.75 38.45 L66.9 38.45 60.45 46.7 62.05 50.65 56.05 52.2 58.0 55.85 56.85 56.2 51.75 38.45 M131.4 73.45 L126.65 56.75 157.65 56.75 153.25 73.45 136.6 73.45 134.0 73.45 131.4 73.45" fill="#808080" fill-rule="evenodd" stroke="none"/>
    <path d="M215.95 142.55 L212.05 142.55 212.05 140.4 212.1 126.2 208.55 122.65 206.95 122.65 214.45 114.1 242.55 114.1 215.95 142.55 M205.8 142.55 L201.75 142.55 201.75 140.4 201.8 128.55 205.8 124.0 205.8 142.55 M195.45 142.55 L189.45 142.55 195.45 135.65 195.45 142.55 M152.4 136.95 L141.4 136.95 137.3 134.6 118.35 134.6 115.15 136.95 103.8 136.95 104.2 133.7 105.3 132.45 133.4 132.45 133.6 132.45 Q135.35 132.45 136.6 131.1 L137.3 130.1 Q137.85 129.1 137.85 127.8 137.85 125.85 136.6 124.45 135.35 123.1 133.6 123.1 L133.4 123.1 126.6 123.1 126.55 123.05 Q125.35 121.7 123.55 121.7 L123.45 121.7 115.15 121.7 116.9 119.8 128.6 119.8 131.4 119.8 135.6 119.8 135.9 119.8 137.7 119.6 Q139.9 119.05 141.55 117.25 143.85 114.65 143.85 111.05 143.85 107.4 141.55 104.85 L141.45 104.7 Q139.1 102.25 135.9 102.25 L135.6 102.25 131.4 102.25 128.6 102.25 120.3 102.25 120.3 93.4 127.25 98.75 145.95 98.75 146.85 104.7 150.1 126.55 151.5 136.15 152.4 136.95 M123.75 19.7 L141.25 19.7 142.8 17.5 142.8 13.0 144.35 13.0 150.25 23.05 122.9 23.05 123.75 19.7 M150.1 126.55 L142.25 126.55 139.15 124.1 137.7 119.6 139.15 124.1 142.25 126.55 150.1 126.55 M146.85 104.7 L141.45 104.7 146.85 104.7 M149.15 133.15 L142.0 133.15 137.3 130.1 142.0 133.15 149.15 133.15" fill="#333333" fill-rule="evenodd" stroke="none"/>
    <path d="M212.05 140.4 L205.8 142.55 205.8 124.0 206.95 122.65 208.55 122.65 212.1 126.2 212.05 140.4 M201.75 140.4 L195.45 142.55 195.45 135.65 201.8 128.55 201.75 140.4 M177.2 140.4 L170.95 142.5 170.95 122.65 173.7 122.65 177.2 126.2 177.2 140.4 M166.95 140.35 L160.7 142.5 160.7 122.65 163.4 122.65 166.95 126.2 166.95 140.35 M5.35 75.9 L1.65 75.05 15.9 75.05 20.35 75.9 5.35 75.9 M4.75 69.7 L0.85 68.25 15.9 68.25 20.6 69.7 20.6 69.75 4.75 69.7 M4.1 63.35 L0.0 61.5 15.9 61.5 20.15 63.35 4.1 63.35 M8.3 57.8 L5.05 55.1 22.0 56.05 25.5 58.6 8.3 57.8 M12.4 52.55 L9.9 49.0 9.95 49.0 28.05 50.65 30.75 53.95 12.4 52.55 M16.75 46.95 L14.65 43.0 34.15 45.2 36.3 49.0 36.3 49.05 16.75 46.95 M20.7 40.0 L19.4 36.9 40.2 39.8 42.05 43.95 21.2 41.3 20.7 40.0 M157.9 77.55 L163.95 81.2 136.85 81.2 134.0 73.45 136.6 73.45 138.3 77.55 157.9 77.55 M129.55 46.8 L132.6 43.6 138.0 38.05 137.15 42.55 132.4 46.8 129.55 46.8 M101.55 33.05 L96.9 37.25 94.0 37.25 97.65 33.55 102.45 28.6 101.55 33.05 M117.05 57.85 L118.6 61.3 101.1 59.05 99.6 55.45 117.05 57.85 M101.7 71.45 L104.7 73.55 90.3 72.9 87.5 70.65 101.7 71.45 M106.8 66.9 L109.05 69.65 109.05 69.7 93.7 68.5 93.05 67.6 91.6 65.55 91.65 65.55 106.8 66.9 M113.75 65.55 L113.7 65.55 97.4 63.85 95.6 60.55 111.9 62.4 113.75 65.55 M73.85 54.3 L75.9 57.7 75.9 57.75 75.85 57.75 58.0 55.85 56.05 52.2 73.85 54.3 M68.3 59.25 L70.8 62.25 70.8 62.3 54.0 61.0 53.7 60.55 51.7 57.7 51.8 57.7 68.3 59.25 M100.2 77.55 L86.8 77.6 83.35 76.05 96.65 76.05 100.2 77.55 M84.0 81.7 L96.65 81.7 100.6 82.9 100.6 82.95 87.3 82.9 84.0 81.7 M87.85 88.05 L84.75 87.35 96.65 87.35 100.35 88.05 87.85 88.05 M138.3 77.55 L136.85 81.2 138.3 77.55 M64.7 18.15 L63.9 22.6 59.4 26.65 56.45 26.65 64.7 18.15 M60.45 46.7 L79.5 49.3 81.15 53.15 62.05 50.65 60.45 46.7 M57.25 69.2 L61.05 70.85 46.4 70.9 42.65 69.2 57.25 69.2 M57.25 75.4 L61.55 76.7 47.0 76.7 43.4 75.4 57.25 75.4 M62.75 64.25 L66.0 66.5 50.25 65.8 47.75 63.75 47.25 63.35 62.75 64.25 M57.25 81.6 L61.3 82.3 47.6 82.3 44.2 81.6 57.25 81.6" fill="#3f3f3f" fill-rule="evenodd" stroke="none"/>
    <path d="M187.0 35.55 L193.45 42.35 206.45 56.1 204.65 58.7 185.4 37.85 185.4 33.05 188.95 27.6 191.3 26.25 221.1 26.25 223.3 28.25 191.05 28.25 187.0 35.55 M145.95 10.1 L151.75 19.7 151.9 19.75 153.7 23.05 150.25 23.05 144.35 13.0 142.8 13.0 140.1 13.0 125.25 13.05 124.5 16.3 123.75 19.7 122.9 23.05 119.1 23.05 122.3 10.15 145.95 10.1 M247.2 95.25 L245.25 95.25 241.95 90.4 223.45 90.4 220.25 95.25 211.2 95.25 211.2 83.15 244.55 83.15 247.2 95.25 M211.2 102.7 L225.25 102.7 227.65 98.25 238.5 98.25 241.7 102.7 248.8 102.7 249.95 108.25 211.2 108.25 211.2 102.7 M163.35 56.05 L170.45 56.95 163.95 81.2 157.9 77.55 163.35 56.05 M120.35 41.55 L123.15 46.8 106.4 46.8 105.35 48.1 90.0 48.1 88.2 41.55 120.35 41.55 M88.05 37.25 L67.85 37.25 66.9 38.45 51.75 38.45 49.75 31.35 84.85 31.35 88.05 37.25 M126.65 56.75 L125.0 50.75 154.35 50.75 157.65 56.75 126.65 56.75" fill="#989898" fill-rule="evenodd" stroke="none"/>
    <path d="M244.55 83.15 L211.2 83.15 185.3 54.2 196.6 54.2 202.85 61.25 204.65 58.7 223.9 58.7 241.3 68.15 244.55 83.15 M186.8 43.25 L196.6 54.2 185.3 54.2 175.5 43.25 186.8 43.25 M170.45 56.95 L163.35 56.05 158.05 48.0 163.1 44.95 170.45 56.95 M227.65 61.25 L202.85 61.25 227.65 61.25 M127.8 46.8 L127.85 46.6 122.55 38.5 127.55 35.45 132.6 43.6 129.55 46.8 127.8 46.8 M92.8 25.65 L97.65 33.55 94.0 37.25 92.95 37.25 93.05 36.85 87.8 28.75 92.8 25.65" fill="#a8a8a8" fill-rule="evenodd" stroke="none"/>
    <path d="M243.15 42.55 L265.0 42.55 265.15 42.55 263.65 46.45 241.0 46.45 240.9 46.45 240.9 46.4 243.15 42.55 M259.45 41.2 L235.05 41.2 239.75 36.95 256.5 36.95 259.45 41.2 M249.45 48.1 L269.5 48.1 267.65 51.5 246.65 51.5 249.45 48.1 M278.25 59.25 L274.1 61.15 257.55 61.1 261.9 59.25 278.25 59.25 M277.4 66.2 L273.4 67.7 257.05 67.75 257.05 67.7 261.9 66.2 277.4 66.2 M276.55 73.2 L272.7 74.05 257.3 74.05 261.9 73.2 276.55 73.2 M250.85 113.15 L222.1 142.55 215.95 142.55 242.55 114.1 214.45 114.1 206.95 122.65 205.8 124.0 201.8 128.55 195.45 135.65 189.45 142.55 181.05 142.55 211.2 108.25 249.95 108.25 250.55 111.05 250.85 113.15 M273.9 53.7 L271.45 56.25 252.05 56.25 255.7 53.7 273.9 53.7 M204.65 58.7 L206.45 56.1 219.2 56.1 223.9 58.7 204.65 58.7 M114.5 89.0 L120.3 93.4 120.3 102.25 120.3 116.0 114.5 116.0 114.5 89.0" fill="#757575" fill-rule="evenodd" stroke="none"/>
    <path d="M185.4 33.05 Q164.3 26.45 149.6 33.25 L156.0 27.25 156.15 27.15 Q172.55 21.95 188.95 27.6 L185.4 33.05 M163.1 44.95 L158.05 48.0 137.15 42.55 138.0 38.05 163.1 44.95 M127.55 35.45 L122.55 38.5 101.55 33.05 102.45 28.6 127.55 35.45 M92.8 25.65 L87.8 28.75 63.9 22.6 64.7 18.15 92.8 25.65" fill="#919191" fill-rule="evenodd" stroke="none"/>
    <path d="M140.05 111.05 Q140.05 112.35 139.15 113.3 138.35 114.2 137.15 114.2 L135.9 113.9 135.1 113.3 Q134.3 112.35 134.3 111.05 134.3 109.75 135.1 108.8 L135.9 108.2 137.15 107.9 Q138.35 107.9 139.15 108.8 140.05 109.75 140.05 111.05 M135.8 127.8 L135.35 129.0 Q134.9 129.5 134.25 129.5 L133.6 129.35 133.15 129.0 Q132.75 128.45 132.75 127.8 132.75 127.05 133.15 126.6 L133.6 126.25 134.25 126.1 Q134.9 126.1 135.35 126.6 135.8 127.05 135.8 127.8 M125.75 126.4 L125.3 127.6 Q124.85 128.05 124.25 128.05 L123.55 127.9 123.15 127.6 Q122.65 127.05 122.65 126.4 122.65 125.7 123.15 125.2 L123.55 124.85 124.25 124.7 Q124.85 124.7 125.3 125.2 125.75 125.7 125.75 126.4" fill="#ffb206" fill-rule="evenodd" stroke="none"/>
    <path d="M187.0 35.55 L235.05 41.2 233.95 43.75 215.75 40.6 216.75 45.0 193.45 42.35 187.0 35.55 M5.05 55.1 L12.4 52.55 30.75 53.95 22.0 56.05 5.05 55.1 M9.95 49.0 L16.75 46.95 36.3 49.05 36.2 49.05 28.05 50.65 9.95 49.0 M14.65 43.0 L19.6 41.65 21.2 41.3 42.05 43.95 34.15 45.2 14.65 43.0 M19.4 36.9 L27.5 26.65 49.75 31.35 40.2 39.8 19.4 36.9 M105.35 48.1 L106.4 46.8 125.0 50.75 117.05 57.85 99.6 55.45 105.35 48.1 M67.85 37.25 L88.2 41.55 79.5 49.3 60.45 46.7 66.9 38.45 67.85 37.25 M101.1 59.05 L118.6 61.3 111.9 62.4 95.6 60.55 101.1 59.05 M106.8 66.9 L91.65 65.55 94.75 64.6 97.4 63.85 113.7 65.55 106.8 66.9 M81.15 53.15 L73.85 54.3 56.05 52.2 62.05 50.65 81.15 53.15 M75.85 57.75 L68.3 59.25 51.8 57.7 56.85 56.2 58.0 55.85 75.85 57.75 M70.8 62.3 L62.75 64.25 47.25 63.35 50.65 62.2 54.0 61.0 70.8 62.3" fill="#595959" fill-rule="evenodd" stroke="none"/>
    <path d="M89.05 143.0 L84.35 143.0 84.35 140.8 84.35 126.2 80.75 122.65 78.05 122.65 78.05 142.95 78.05 143.0 73.85 143.0 73.85 140.8 73.85 126.2 70.3 122.65 67.6 122.65 67.6 142.95 67.6 143.0 64.3 143.0 67.35 115.25 69.8 103.5 71.6 95.35 87.55 95.35 71.6 95.35 75.55 77.1 93.05 67.6 93.7 68.5 87.5 70.65 90.3 72.9 90.25 72.95 83.35 76.05 86.8 77.6 84.0 81.7 87.3 82.9 84.75 87.35 87.85 88.05 85.45 93.05 88.4 93.3 87.55 95.35 86.1 98.7 89.0 98.7 86.8 104.25 89.5 104.25 87.5 109.8 90.15 109.8 88.2 115.35 90.75 115.35 88.9 120.6 91.6 140.3 89.05 143.0 M49.45 115.8 L43.3 102.1 43.25 102.05 37.45 89.65 37.45 83.45 37.4 69.4 47.75 63.75 50.25 65.8 50.25 65.85 42.65 69.2 46.4 70.9 43.4 75.4 47.0 76.7 44.2 81.6 47.6 82.3 44.95 87.8 48.25 88.1 46.95 91.05 45.7 94.0 45.7 94.05 48.8 94.05 46.5 100.0 46.5 100.05 49.45 100.05 47.2 106.1 50.1 106.1 48.0 112.1 50.75 112.1 49.45 115.8 M112.5 87.4 L114.5 89.0 114.5 116.0 114.5 116.05 111.95 118.9 111.55 119.35 104.95 126.55 105.9 118.2 108.2 107.45 112.5 87.4 M37.45 83.45 L46.95 91.05 37.45 83.45" fill="#444444" fill-rule="evenodd" stroke="none"/>
    <path d="M84.35 140.8 L78.05 142.95 78.05 122.65 80.75 122.65 84.35 126.2 84.35 140.8 M73.85 140.8 L67.6 142.95 67.6 122.65 70.3 122.65 73.85 126.2 73.85 140.8" fill="#303030" fill-rule="evenodd" stroke="none"/>
    <path d="M92.0 143.0 L89.05 143.0 91.6 140.3 92.0 143.0 M120.3 116.0 L120.3 116.05 117.7 118.9 117.25 119.35 116.9 119.8 115.15 121.7 106.6 131.1 105.3 132.45 104.2 133.7 104.95 126.55 111.55 119.35 111.95 118.9 114.5 116.05 114.5 116.0 120.3 116.0" fill="#565656" fill-rule="evenodd" stroke="none"/>
    <path d="M265.0 42.55 L243.15 42.55 235.05 41.2 259.45 41.2 265.0 42.55 M241.0 46.45 L263.65 46.45 269.5 48.1 249.45 48.1 241.0 46.45 M278.25 59.25 L261.9 59.25 252.05 56.25 271.45 56.25 278.25 59.25 M257.55 61.1 L274.1 61.15 277.4 66.2 261.9 66.2 256.75 61.5 257.55 61.1 M273.4 67.7 L276.55 73.2 261.9 73.2 257.05 67.75 273.4 67.7 M272.7 74.05 L275.7 80.2 272.05 80.45 274.8 87.15 271.35 87.15 274.0 93.9 274.0 93.95 270.65 93.95 273.15 100.7 273.15 100.75 269.9 100.75 272.3 107.55 269.15 107.55 271.5 113.95 264.15 149.0 260.25 149.0 261.9 113.95 258.8 107.1 261.9 107.55 258.45 100.5 261.9 100.75 258.2 93.8 261.9 93.95 257.9 87.15 261.9 87.15 257.6 80.45 261.9 80.2 257.3 74.05 272.7 74.05 M267.65 51.5 L273.9 53.7 255.7 53.7 246.65 51.55 246.65 51.5 267.65 51.5 M265.0 80.45 L257.6 80.45 265.0 80.45 M275.7 80.2 L261.9 80.2 275.7 80.2 M272.05 80.45 L265.7 80.45 272.05 80.45 M270.65 93.95 L261.9 93.95 270.65 93.95 M271.35 87.15 L261.9 87.15 271.35 87.15 M269.9 100.75 L261.9 100.75 269.9 100.75 M269.15 107.55 L261.9 107.55 269.15 107.55 M271.5 113.95 L261.9 113.95 271.5 113.95" fill="url(#gradient0)" fill-rule="evenodd" stroke="none"/>
    <path d="M235.05 41.2 L243.15 42.55 240.9 46.4 240.9 46.45 241.0 46.45 249.45 48.1 246.65 51.5 246.65 51.55 255.7 53.7 252.05 56.25 246.65 60.05 242.3 56.85 246.65 51.5 242.3 56.85 246.65 60.05 252.05 56.25 261.9 59.25 257.55 61.1 256.75 61.5 251.6 63.7 252.15 69.25 252.65 74.95 253.2 80.9 253.8 87.15 254.4 93.5 255.0 100.05 255.6 106.6 256.2 112.5 250.55 111.05 256.2 112.5 255.6 106.6 255.0 100.05 254.4 93.5 253.8 87.15 253.2 80.9 252.65 74.95 252.15 69.25 251.6 63.7 256.75 61.5 261.9 66.2 257.05 67.7 257.05 67.75 261.9 73.2 257.3 74.05 261.9 80.2 257.6 80.45 253.2 80.9 257.6 80.45 261.9 87.15 257.9 87.15 261.9 93.95 258.2 93.8 254.4 93.5 258.2 93.8 261.9 100.75 258.45 100.5 261.9 107.55 258.8 107.1 255.6 106.6 258.8 107.1 261.9 113.95 256.2 112.5 261.9 113.95 260.25 149.0 257.7 149.0 255.35 147.6 250.85 113.15 250.55 111.05 249.95 108.25 248.8 102.7 247.75 97.85 247.2 95.25 244.55 83.15 241.3 68.15 223.9 58.7 219.2 56.1 206.45 56.1 193.45 42.35 216.75 45.0 215.75 40.6 233.95 43.75 235.05 41.2 M96.65 149.1 L92.8 149.1 92.0 143.0 91.6 140.3 88.9 120.6 90.75 115.35 88.2 115.35 90.15 109.8 87.5 109.8 89.5 104.25 86.8 104.25 89.0 98.7 86.1 98.7 87.55 95.35 88.4 93.3 85.45 93.05 87.85 88.05 100.35 88.05 96.65 93.05 85.45 93.05 96.65 93.05 100.15 93.3 96.65 98.7 99.9 98.7 96.65 104.25 99.65 104.15 96.65 109.8 99.5 109.6 96.65 115.35 99.2 115.0 96.65 120.6 88.9 120.6 96.65 120.6 96.65 149.1 M57.25 149.05 L53.5 149.05 48.7 117.9 49.45 115.8 50.75 112.1 48.0 112.1 50.1 106.1 47.2 106.1 49.45 100.05 46.5 100.05 46.5 100.0 48.8 94.05 45.7 94.05 45.7 94.0 46.95 91.05 48.25 88.1 44.95 87.8 47.6 82.3 61.3 82.3 57.25 87.8 61.05 88.1 57.25 94.05 48.8 94.05 57.25 94.05 60.85 94.05 57.25 100.05 60.55 99.9 57.25 106.1 60.3 105.9 57.25 112.1 60.0 111.8 57.25 117.9 57.25 149.05 M15.9 148.85 L12.1 148.85 6.6 114.75 8.8 108.45 5.85 108.45 8.1 101.85 5.0 101.85 5.0 101.8 7.45 95.25 4.15 95.25 6.7 88.65 3.35 88.65 3.35 88.6 6.1 82.15 2.55 81.85 5.35 75.9 20.35 75.9 15.9 81.85 20.1 82.15 12.9 82.15 20.1 82.15 15.9 88.65 19.8 88.65 15.9 95.25 19.55 95.15 15.9 101.85 19.25 101.6 15.9 108.45 18.9 108.1 15.9 114.75 15.9 148.85 M1.65 75.05 L4.75 69.7 20.6 69.75 15.9 75.05 1.65 75.05 M0.85 68.25 L4.1 63.35 20.15 63.35 20.9 63.7 15.9 68.25 0.85 68.25 M0.0 61.5 L8.3 57.8 25.5 58.6 15.9 61.5 0.0 61.5 M246.65 60.05 L251.6 63.7 246.45 65.95 226.05 52.1 225.9 46.05 216.75 45.0 225.9 46.05 226.05 52.1 246.45 65.95 251.6 63.7 246.65 60.05 M252.15 69.25 L257.05 67.75 252.15 69.25 M252.65 74.95 L257.3 74.05 252.65 74.95 M253.8 87.15 L257.9 87.15 253.8 87.15 M247.75 97.85 L250.7 93.95 246.45 65.95 250.7 93.95 247.75 97.85 M233.95 43.75 L231.65 48.9 237.1 52.95 242.3 56.85 237.1 52.95 231.65 48.9 233.95 43.75 M224.55 58.7 L223.9 58.7 224.55 58.7 M240.9 46.4 L237.1 52.95 240.9 46.4 M216.75 45.0 L219.2 56.1 216.75 45.0 M255.0 100.05 L258.45 100.5 255.0 100.05 M256.2 112.5 L257.7 149.0 256.2 112.5 M246.45 65.95 L241.3 68.15 246.45 65.95 M101.7 71.45 L87.5 70.65 93.7 68.5 109.05 69.7 101.7 71.45 M90.3 72.9 L104.7 73.55 96.65 76.05 83.35 76.05 90.25 72.95 90.3 72.9 M100.2 77.55 L100.85 77.85 96.65 81.7 84.0 81.7 86.8 77.6 100.2 77.55 M84.75 87.35 L87.3 82.9 100.6 82.95 96.65 87.35 84.75 87.35 M93.55 93.3 L88.4 93.3 93.55 93.3 M88.4 95.35 L87.55 95.35 88.4 95.35 M94.15 93.3 L100.15 93.3 94.15 93.3 M89.0 98.7 L96.65 98.7 89.0 98.7 M2.55 81.85 L15.9 81.85 2.55 81.85 M6.7 88.65 L15.9 88.65 6.7 88.65 M7.45 95.25 L15.9 95.25 7.45 95.25 M6.1 82.15 L12.2 82.15 6.1 82.15 M66.0 66.5 L57.25 69.2 42.65 69.2 50.25 65.85 50.25 65.8 66.0 66.5 M61.05 70.85 L61.8 71.2 57.25 75.4 43.4 75.4 46.4 70.9 61.05 70.85 M44.2 81.6 L47.0 76.7 61.55 76.7 57.25 81.6 44.2 81.6 M44.95 87.8 L57.25 87.8 44.95 87.8 M48.25 88.1 L53.8 88.1 48.25 88.1 M54.45 88.1 L61.05 88.1 54.45 88.1 M50.1 106.1 L57.25 106.1 50.1 106.1 M48.7 117.9 L57.25 117.9 48.7 117.9 M50.75 112.1 L57.25 112.1 50.75 112.1 M49.45 100.05 L57.25 100.05 49.45 100.05 M6.6 114.75 L15.9 114.75 6.6 114.75 M8.8 108.45 L15.9 108.45 8.8 108.45 M8.1 101.85 L15.9 101.85 8.1 101.85 M89.5 104.25 L96.65 104.25 89.5 104.25 M90.75 115.35 L96.65 115.35 90.75 115.35 M90.15 109.8 L96.65 109.8 90.15 109.8" fill="url(#gradient1)" fill-rule="evenodd" stroke="none"/>
    <path d="M211.2 95.25 L220.25 95.25 223.45 90.4 241.95 90.4 245.25 95.25 247.2 95.25 247.75 97.85 248.8 102.7 241.7 102.7 238.5 98.25 227.65 98.25 225.25 102.7 211.2 102.7 197.7 102.7 187.25 93.55 175.5 91.35 177.45 84.05 190.85 86.9 200.6 95.25 211.2 95.25" fill="url(#gradient2)" fill-rule="evenodd" stroke="none"/>
    <path d="M142.8 13.0 L142.8 17.5 141.25 19.7 123.75 19.7 124.5 16.3 139.55 16.3 140.1 13.0 142.8 13.0" fill="url(#gradient3)" fill-rule="evenodd" stroke="none"/>
    <path d="M140.1 13.0 L139.55 16.3 124.5 16.3 125.25 13.05 140.1 13.0" fill="url(#gradient4)" fill-rule="evenodd" stroke="none"/>
    <path d="M103.8 136.95 L102.6 147.55 99.7 149.1 96.65 149.1 96.65 120.6 101.35 119.35 101.75 114.55 101.35 119.35 96.65 120.6 99.2 115.0 96.65 115.35 99.5 109.6 96.65 109.8 99.65 104.15 102.8 103.9 102.25 109.25 99.5 109.6 102.25 109.25 102.8 103.9 99.65 104.15 96.65 104.25 99.9 98.7 96.65 98.7 100.15 93.3 96.65 93.05 100.35 88.05 96.65 87.35 100.6 82.95 100.6 82.9 96.65 81.7 100.85 77.85 100.2 77.55 96.65 76.05 104.7 73.55 101.7 71.45 109.05 69.7 109.05 69.65 106.8 66.9 113.7 65.55 113.75 65.55 111.9 62.4 118.6 61.3 117.05 57.85 125.0 50.75 126.65 56.75 122.45 59.75 125.9 70.2 109.2 81.45 105.0 79.65 109.05 76.7 112.65 74.05 116.9 70.9 121.3 67.65 118.6 61.3 121.3 67.65 116.9 70.9 112.65 74.05 109.05 76.7 105.0 79.65 109.2 81.45 125.9 70.2 122.45 59.75 126.65 56.75 131.4 73.45 113.45 83.3 112.5 87.4 108.2 107.45 105.8 104.25 109.2 81.45 113.45 83.3 109.2 81.45 105.8 104.25 108.2 107.45 105.9 118.2 101.35 119.35 99.7 149.1 101.35 119.35 105.9 118.2 104.95 126.55 104.2 133.7 103.8 136.95 M64.3 143.0 L63.8 147.45 60.15 149.05 57.25 149.05 57.25 117.9 60.0 111.8 62.8 111.3 62.3 116.6 57.25 117.9 62.3 116.6 62.8 111.3 60.0 111.8 57.25 112.1 60.3 105.9 63.35 105.5 62.8 111.3 63.35 105.5 60.3 105.9 57.25 106.1 60.55 99.9 63.9 99.65 63.35 105.5 63.9 99.65 60.55 99.9 57.25 100.05 60.85 94.05 57.25 94.05 61.05 88.1 57.25 87.8 61.3 82.3 57.25 81.6 61.55 76.7 57.25 75.4 61.8 71.2 61.05 70.85 57.25 69.2 66.0 66.5 70.8 69.85 66.35 73.2 61.8 71.2 66.35 73.2 70.8 69.85 66.0 66.5 62.75 64.25 70.8 62.3 70.8 62.25 68.3 59.25 75.85 57.75 75.9 57.75 75.9 57.7 73.85 54.3 81.15 53.15 84.15 60.0 79.3 63.6 75.9 57.7 79.3 63.6 84.15 60.0 81.15 53.15 79.5 49.3 88.2 41.55 90.0 48.1 94.75 64.6 91.65 65.55 91.6 65.55 93.05 67.6 75.55 77.1 71.0 75.15 89.1 62.8 85.45 51.4 90.0 48.1 85.45 51.4 89.1 62.8 71.0 75.15 75.55 77.1 71.6 95.35 69.8 103.5 67.35 115.25 64.3 143.0 M37.4 69.4 L35.95 70.15 29.65 99.05 26.95 111.9 23.1 147.35 19.05 148.85 15.9 148.85 15.9 114.75 18.9 108.1 22.05 107.5 21.5 113.3 15.9 114.75 21.5 113.3 22.05 107.5 18.9 108.1 15.9 108.45 19.25 101.6 15.9 101.85 19.55 95.15 15.9 95.25 19.8 88.65 15.9 88.65 20.1 82.15 15.9 81.85 20.35 75.9 24.9 76.8 24.35 82.55 20.1 82.15 24.35 82.55 24.9 76.8 20.35 75.9 15.9 75.05 20.6 69.75 25.45 71.25 25.9 65.85 20.9 63.7 25.9 65.85 25.45 71.25 20.6 69.75 20.6 69.7 15.9 68.25 20.9 63.7 20.15 63.35 15.9 61.5 25.5 58.6 22.0 56.05 30.75 53.95 28.05 50.65 36.2 49.05 36.3 49.05 36.3 49.0 34.15 45.2 42.05 43.95 40.2 39.8 49.75 31.35 51.75 38.45 46.75 42.1 50.8 54.6 30.9 68.0 35.95 70.15 30.9 68.0 50.8 54.6 46.75 42.1 51.75 38.45 56.85 56.2 51.8 57.7 51.7 57.7 53.7 60.55 50.65 62.2 47.25 63.35 47.75 63.75 37.4 69.4 37.4 68.8 37.4 69.4 M109.05 76.7 L104.7 73.55 109.05 76.7 M113.75 65.55 L116.9 70.9 113.75 65.55 M109.05 69.65 L112.65 74.05 109.05 69.65 M79.3 63.6 L74.75 67.05 70.8 62.25 74.75 67.05 79.3 63.6 M100.85 77.85 L105.0 79.65 104.65 84.1 100.6 82.95 104.65 84.1 105.0 79.65 100.85 77.85 M104.65 84.1 L104.2 88.85 100.35 88.05 104.2 88.85 104.65 84.1 M103.7 93.65 L103.2 98.7 99.9 98.7 103.2 98.7 103.7 93.65 100.15 93.3 103.7 93.65 104.2 88.85 103.7 93.65 M36.3 49.0 L40.05 55.4 35.0 59.15 30.75 53.95 35.0 59.15 40.05 55.4 36.3 49.0 M25.5 58.6 L30.75 62.3 25.9 65.85 30.9 68.0 26.8 95.25 29.65 99.05 26.8 95.25 30.9 68.0 25.9 65.85 30.75 62.3 25.5 58.6 M35.0 59.15 L30.75 62.3 35.0 59.15 M24.35 82.55 L23.8 88.65 23.25 94.8 19.55 95.15 23.25 94.8 23.8 88.65 19.8 88.65 23.8 88.65 24.35 82.55 M25.45 71.25 L24.9 76.8 25.45 71.25 M69.8 103.5 L67.2 100.05 71.0 75.15 66.35 73.2 65.95 78.05 61.55 76.7 65.95 78.05 66.35 73.2 71.0 75.15 67.2 100.05 69.8 103.5 M74.75 67.05 L70.8 69.85 74.75 67.05 M65.95 78.05 L65.45 83.2 61.3 82.3 65.45 83.2 65.95 78.05 M65.45 83.2 L64.95 88.5 61.05 88.1 64.95 88.5 65.45 83.2 M64.95 88.5 L64.4 94.05 60.85 94.05 64.4 94.05 64.95 88.5 M40.05 55.4 L45.35 51.45 42.05 43.95 45.35 51.45 40.05 55.4 M60.15 149.05 L62.3 116.6 67.35 115.25 62.3 116.6 60.15 149.05 M19.05 148.85 L21.5 113.3 26.95 111.9 21.5 113.3 19.05 148.85 M19.25 101.6 L22.6 101.25 22.05 107.5 22.6 101.25 19.25 101.6 M102.25 109.25 L101.75 114.55 99.2 115.0 101.75 114.55 102.25 109.25 M23.25 94.8 L22.6 101.25 23.25 94.8 M64.4 94.05 L63.9 99.65 64.4 94.05 M103.2 98.7 L102.8 103.9 103.2 98.7" fill="url(#gradient5)" fill-rule="evenodd" stroke="none"/>
    <path d="M143.2 111.05 Q143.2 108.85 141.8 107.35 140.4 105.8 138.45 105.8 137.0 105.8 135.9 106.6 L135.05 107.35 Q133.65 108.85 133.65 111.05 133.65 113.25 135.05 114.75 L135.9 115.5 Q137.0 116.3 138.45 116.3 140.4 116.3 141.8 114.75 143.2 113.25 143.2 111.05 M141.45 104.7 L141.55 104.85 Q143.85 107.4 143.85 111.05 143.85 114.65 141.55 117.25 139.9 119.05 137.7 119.6 L135.9 119.8 135.6 119.8 Q132.5 119.7 130.3 117.25 127.95 114.65 127.95 111.05 127.95 107.4 130.3 104.85 132.5 102.35 135.6 102.25 L135.9 102.25 Q139.1 102.25 141.45 104.7" fill="url(#gradient6)" fill-rule="evenodd" stroke="none"/>
    <path d="M143.2 111.05 Q143.2 113.25 141.8 114.75 140.4 116.3 138.45 116.3 137.0 116.3 135.9 115.5 L135.05 114.75 Q133.65 113.25 133.65 111.05 133.65 108.85 135.05 107.35 L135.9 106.6 Q137.0 105.8 138.45 105.8 140.4 105.8 141.8 107.35 143.2 108.85 143.2 111.05 M140.05 111.05 Q140.05 109.75 139.15 108.8 138.35 107.9 137.15 107.9 L135.9 108.2 135.1 108.8 Q134.3 109.75 134.3 111.05 134.3 112.35 135.1 113.3 L135.9 113.9 137.15 114.2 Q138.35 114.2 139.15 113.3 140.05 112.35 140.05 111.05" fill="url(#gradient7)" fill-rule="evenodd" stroke="none"/>
    <path d="M125.55 105.5 Q123.75 107.9 123.75 111.05 123.75 114.65 126.1 117.25 128.3 119.7 131.4 119.8 128.3 119.7 126.1 117.25 123.75 114.65 123.75 111.05 123.75 107.9 125.55 105.5 M135.6 102.25 Q132.5 102.35 130.3 104.85 127.95 107.4 127.95 111.05 127.95 114.65 130.3 117.25 132.5 119.7 135.6 119.8 L131.4 119.8 128.6 119.8 116.9 119.8 117.25 119.35 117.7 118.9 120.3 116.05 120.3 116.0 120.3 102.25 128.6 102.25 Q125.55 102.35 123.3 104.85 L122.95 105.2 123.3 104.85 Q125.55 102.35 128.6 102.25 L131.4 102.25 135.6 102.25 M125.75 105.2 L126.1 104.85 Q128.3 102.35 131.4 102.25 128.3 102.35 126.1 104.85 L125.75 105.2 M122.75 105.5 Q120.95 107.9 120.95 111.05 120.95 114.65 123.3 117.25 125.55 119.7 128.6 119.8 125.55 119.7 123.3 117.25 120.95 114.65 120.95 111.05 120.95 107.9 122.75 105.5" fill="url(#gradient8)" fill-rule="evenodd" stroke="none"/>
    <path d="M123.45 121.7 L123.55 121.7 Q125.35 121.7 126.55 123.05 L126.6 123.1 Q127.85 124.45 127.85 126.35 127.85 128.3 126.55 129.65 125.35 131.1 123.55 131.1 L123.45 131.1 Q121.8 131.05 120.6 129.65 119.3 128.3 119.3 126.35 119.3 124.45 120.6 123.05 121.8 121.75 123.45 121.7 M127.45 126.4 Q127.45 125.2 126.7 124.4 126.0 123.6 124.85 123.6 124.15 123.6 123.55 124.0 L123.1 124.4 Q122.4 125.2 122.4 126.4 122.4 127.55 123.1 128.35 L123.55 128.75 124.85 129.2 Q126.0 129.2 126.7 128.35 127.45 127.55 127.45 126.4" fill="url(#gradient9)" fill-rule="evenodd" stroke="none"/>
    <path d="M133.4 123.1 L133.6 123.1 Q135.35 123.1 136.6 124.45 137.85 125.85 137.85 127.8 137.85 129.1 137.3 130.1 L136.6 131.1 Q135.35 132.45 133.6 132.45 L133.4 132.45 Q131.75 132.4 130.6 131.1 129.35 129.7 129.35 127.8 129.35 125.85 130.6 124.45 131.75 123.15 133.4 123.1 M137.45 127.8 Q137.45 126.6 136.7 125.85 136.0 124.95 134.9 124.95 134.2 124.95 133.6 125.4 L133.15 125.85 Q132.4 126.6 132.4 127.8 132.4 128.95 133.15 129.75 L133.6 130.15 Q134.2 130.6 134.9 130.6 136.0 130.6 136.7 129.75 137.45 128.95 137.45 127.8" fill="url(#gradient10)" fill-rule="evenodd" stroke="none"/>
    <path d="M126.6 123.1 L133.4 123.1 Q131.75 123.15 130.6 124.45 129.35 125.85 129.35 127.8 129.35 129.7 130.6 131.1 131.75 132.4 133.4 132.45 L105.3 132.45 106.6 131.1 123.45 131.1 123.55 131.1 Q125.35 131.1 126.55 129.65 127.85 128.3 127.85 126.35 127.85 124.45 126.6 123.1" fill="url(#gradient11)" fill-rule="evenodd" stroke="none"/>
    <path d="M137.45 127.8 Q137.45 128.95 136.7 129.75 136.0 130.6 134.9 130.6 134.2 130.6 133.6 130.15 L133.15 129.75 Q132.4 128.95 132.4 127.8 132.4 126.6 133.15 125.85 L133.6 125.4 Q134.2 124.95 134.9 124.95 136.0 124.95 136.7 125.85 137.45 126.6 137.45 127.8 M135.8 127.8 Q135.8 127.05 135.35 126.6 134.9 126.1 134.25 126.1 L133.6 126.25 133.15 126.6 Q132.75 127.05 132.75 127.8 132.75 128.45 133.15 129.0 L133.6 129.35 134.25 129.5 Q134.9 129.5 135.35 129.0 L135.8 127.8" fill="url(#gradient12)" fill-rule="evenodd" stroke="none"/>
    <path d="M127.45 126.4 Q127.45 127.55 126.7 128.35 126.0 129.2 124.85 129.2 L123.55 128.75 123.1 128.35 Q122.4 127.55 122.4 126.4 122.4 125.2 123.1 124.4 L123.55 124.0 Q124.15 123.6 124.85 123.6 126.0 123.6 126.7 124.4 127.45 125.2 127.45 126.4 M125.75 126.4 Q125.75 125.7 125.3 125.2 124.85 124.7 124.25 124.7 L123.55 124.85 123.15 125.2 Q122.65 125.7 122.65 126.4 122.65 127.05 123.15 127.6 L123.55 127.9 124.25 128.05 Q124.85 128.05 125.3 127.6 L125.75 126.4" fill="url(#gradient13)" fill-rule="evenodd" stroke="none"/>
    <path d="M123.45 131.1 L106.6 131.1 115.15 121.7 123.45 121.7 Q121.8 121.75 120.6 123.05 119.3 124.45 119.3 126.35 119.3 128.3 120.6 129.65 121.8 131.05 123.45 131.1" fill="url(#gradient14)" fill-rule="evenodd" stroke="none"/>
    <path d="M239.75 36.95 L235.05 41.2 187.0 35.55 191.05 28.25 239.75 36.95" fill="#848484" fill-rule="evenodd" stroke="none"/>
    <path d="M243.15 42.55 L265.0 42.55 259.45 41.2 235.05 41.2 243.15 42.55 240.9 46.4 240.9 46.45 241.0 46.45 263.65 46.45 265.15 42.55 265.0 42.55 M249.45 48.1 L269.5 48.1 263.65 46.45 M259.45 41.2 L256.5 36.95 239.75 36.95 235.05 41.2 187.0 35.55 193.45 42.35 216.75 45.0 225.9 46.05 226.05 52.1 246.45 65.95 251.6 63.7 246.65 60.05 252.05 56.25 255.7 53.7 273.9 53.7 271.45 56.25 278.25 59.25 261.9 59.25 257.55 61.1 274.1 61.15 277.4 66.2 273.4 67.7 276.55 73.2 272.7 74.05 275.7 80.2 272.05 80.45 274.8 87.15 271.35 87.15 274.0 93.9 274.0 93.95 270.65 93.95 273.15 100.7 273.15 100.75 269.9 100.75 272.3 107.55 269.15 107.55 271.5 113.95 264.15 149.0 260.25 149.0 257.7 149.0 255.35 147.6 250.85 113.15 222.1 142.55 215.95 142.55 212.05 142.55 212.05 140.4 205.8 142.55 201.75 142.55 201.75 140.4 195.45 142.55 189.45 142.55 181.05 142.55 177.2 142.55 177.2 140.4 170.95 142.5 170.95 142.55 166.95 142.55 166.95 140.35 160.7 142.5 160.7 142.55 158.2 142.55 152.4 136.95 141.4 136.95 137.3 134.6 118.35 134.6 115.15 136.95 103.8 136.95 102.6 147.55 99.7 149.1 96.65 149.1 92.8 149.1 92.0 143.0 89.05 143.0 84.35 143.0 84.35 140.8 78.05 142.95 78.05 143.0 73.85 143.0 73.85 140.8 67.6 142.95 67.6 143.0 64.3 143.0 63.8 147.45 60.15 149.05 57.25 149.05 53.5 149.05 48.7 117.9 49.45 115.8 43.3 102.1 43.25 102.05 37.45 89.65 37.45 83.45 37.4 69.4 35.95 70.15 29.65 99.05 26.95 111.9 23.1 147.35 19.05 148.85 15.9 148.85 12.1 148.85 6.6 114.75 8.8 108.45 5.85 108.45 8.1 101.85 5.0 101.85 5.0 101.8 7.45 95.25 4.15 95.25 6.7 88.65 3.35 88.65 3.35 88.6 6.1 82.15 2.55 81.85 5.35 75.9 1.65 75.05 4.75 69.7 0.85 68.25 4.1 63.35 0.0 61.5 8.3 57.8 5.05 55.1 12.4 52.55 9.9 49.0 9.95 49.0 16.75 46.95 14.65 43.0 19.6 41.65 19.6 41.05 20.7 40.0 19.4 36.9 27.5 26.65 49.0 26.65 63.15 12.4 78.9 12.4 91.45 0.0 120.4 0.0 123.55 1.25 126.9 2.65 130.0 3.85 145.95 10.1 151.75 19.7 151.9 19.75 164.85 23.9 165.75 23.6 Q171.0 22.45 176.75 22.9 L208.8 22.9 Q217.55 23.8 221.1 26.25 L223.3 28.25 256.5 36.95 M233.95 43.75 L235.05 41.2 M274.1 61.15 L278.25 59.25 M267.65 51.5 L273.9 53.7 M256.75 61.5 L257.55 61.1 M246.65 51.5 L246.65 51.55 255.7 53.7 M246.65 51.5 L242.3 56.85 246.65 60.05 M250.55 111.05 L256.2 112.5 255.6 106.6 255.0 100.05 254.4 93.5 253.8 87.15 253.2 80.9 252.65 74.95 252.15 69.25 251.6 63.7 256.75 61.5 261.9 66.2 277.4 66.2 M257.05 67.75 L257.05 67.7 261.9 66.2 M261.9 73.2 L257.05 67.75 252.15 69.25 M257.3 74.05 L261.9 73.2 276.55 73.2 M261.9 59.25 L252.05 56.25 271.45 56.25 M257.6 80.45 L261.9 80.2 257.3 74.05 252.65 74.95 M257.6 80.45 L253.2 80.9 M211.2 95.25 L220.25 95.25 223.45 90.4 241.95 90.4 245.25 95.25 247.2 95.25 244.55 83.15 211.2 83.15 211.2 95.25 200.6 95.25 190.85 86.9 177.45 84.05 175.5 91.35 187.25 93.55 197.7 102.7 211.2 102.7 225.25 102.7 227.65 98.25 238.5 98.25 241.7 102.7 248.8 102.7 247.75 97.85 247.2 95.25 M246.45 65.95 L250.7 93.95 247.75 97.85 M257.9 87.15 L253.8 87.15 M258.2 93.8 L261.9 93.95 257.9 87.15 261.9 87.15 257.6 80.45 265.0 80.45 M258.2 93.8 L254.4 93.5 M265.7 80.45 L272.05 80.45 M261.9 80.2 L275.7 80.2 M246.65 51.5 L267.65 51.5 269.5 48.1 M261.9 87.15 L271.35 87.15 M261.9 93.95 L270.65 93.95 M257.3 74.05 L272.7 74.05 M257.05 67.75 L273.4 67.7 M246.65 51.5 L249.45 48.1 241.0 46.45 M242.3 56.85 L237.1 52.95 231.65 48.9 233.95 43.75 M187.0 35.55 L191.05 28.25 223.3 28.25 M204.65 58.7 L185.4 37.85 185.4 33.05 Q164.3 26.45 149.6 33.25 L186.8 43.25 196.6 54.2 202.85 61.25 204.65 58.7 206.45 56.1 193.45 42.35 M188.95 27.6 L191.3 26.25 Q183.65 23.45 176.75 22.9 M185.4 33.05 L188.95 27.6 Q172.55 21.95 156.15 27.15 L156.0 27.25 149.6 33.25 M175.5 43.25 L186.8 43.25 M185.3 54.2 L196.6 54.2 M163.35 56.05 L170.45 56.95 163.1 44.95 158.05 48.0 163.35 56.05 157.9 77.55 163.95 81.2 170.45 56.95 M145.95 98.75 L173.55 98.75 175.5 91.35 M177.45 84.05 L185.3 54.2 175.5 43.25 63.15 12.4 M223.9 58.7 L224.55 58.7 M244.55 83.15 L241.3 68.15 223.9 58.7 204.65 58.7 M223.9 58.7 L219.2 56.1 206.45 56.1 M202.85 61.25 L227.65 61.25 M191.3 26.25 L221.1 26.25 M211.2 83.15 L185.3 54.2 M237.1 52.95 L240.9 46.4 M191.05 28.25 L239.75 36.95 M219.2 56.1 L216.75 45.0 M211.2 108.25 L211.2 102.7 M212.05 140.4 L212.1 126.2 208.55 122.65 206.95 122.65 205.8 124.0 205.8 142.55 M206.95 122.65 L214.45 114.1 242.55 114.1 215.95 142.55 M170.95 142.5 L170.95 122.65 173.7 122.65 177.2 126.2 177.2 140.4 M166.95 140.35 L166.95 126.2 163.4 122.65 160.7 122.65 160.7 142.5 M195.45 135.65 L201.8 128.55 205.8 124.0 M195.45 135.65 L195.45 142.55 M189.45 142.55 L195.45 135.65 M201.75 140.4 L201.8 128.55 M181.05 142.55 L211.2 108.25 249.95 108.25 248.8 102.7 M258.8 107.1 L255.6 106.6 M258.8 107.1 L261.9 107.55 258.45 100.5 255.0 100.05 M258.45 100.5 L261.9 100.75 258.2 93.8 M250.85 113.15 L250.55 111.05 249.95 108.25 M256.2 112.5 L261.9 113.95 258.8 107.1 M261.9 113.95 L271.5 113.95 M261.9 107.55 L269.15 107.55 M261.9 100.75 L269.9 100.75 M257.7 149.0 L256.2 112.5 M261.9 113.95 L260.25 149.0 M241.3 68.15 L246.45 65.95 M123.75 19.7 L141.25 19.7 142.8 17.5 142.8 13.0 140.1 13.0 139.55 16.3 124.5 16.3 123.75 19.7 122.9 23.05 150.25 23.05 144.35 13.0 142.8 13.0 M150.25 23.05 L153.7 23.05 151.9 19.75 M124.5 16.3 L125.25 13.05 140.1 13.0 M122.55 38.5 L127.85 46.6 127.8 46.8 129.55 46.8 132.6 43.6 127.55 35.45 122.55 38.5 101.55 33.05 96.9 37.25 101.05 37.25 120.35 41.55 123.15 46.8 127.8 46.8 M132.4 46.8 L137.15 42.55 138.0 38.05 132.6 43.6 M154.35 50.75 L136.7 46.8 132.4 46.8 129.55 46.8 M137.15 42.55 L158.05 48.0 M122.3 10.15 L145.95 10.1 M103.15 3.85 L103.1 3.85 99.3 2.65 99.25 2.65 94.1 7.75 M103.15 3.85 L116.0 3.85 M99.25 2.65 L95.4 1.3 88.9 7.75 M95.4 1.3 L95.35 1.3 91.45 0.0 M83.1 13.45 L87.2 14.55 93.55 8.25 M91.2 15.65 L98.65 8.25 M83.1 13.45 L88.35 8.25 M87.2 14.55 L91.2 15.65 119.1 23.05 122.3 10.15 103.15 3.85 99.2 7.75 M97.65 33.55 L92.8 25.65 87.8 28.75 93.05 36.85 92.95 37.25 94.0 37.25 97.65 33.55 102.45 28.6 127.55 35.45 M88.2 41.55 L90.0 48.1 105.35 48.1 106.4 46.8 123.15 46.8 M96.9 37.25 L94.0 37.25 M92.95 37.25 L88.05 37.25 67.85 37.25 88.2 41.55 120.35 41.55 M88.05 37.25 L84.85 31.35 49.75 31.35 51.75 38.45 66.9 38.45 67.85 37.25 M101.55 33.05 L102.45 28.6 M95.4 1.3 L116.0 1.3 M99.3 2.65 L116.0 2.65 M118.6 61.3 L117.05 57.85 99.6 55.45 101.1 59.05 118.6 61.3 121.3 67.65 116.9 70.9 112.65 74.05 109.05 76.7 105.0 79.65 109.2 81.45 125.9 70.2 122.45 59.75 126.65 56.75 125.0 50.75 117.05 57.85 M104.7 73.55 L101.7 71.45 87.5 70.65 90.3 72.9 104.7 73.55 109.05 76.7 M109.05 69.7 L101.7 71.45 M109.05 69.7 L109.05 69.65 106.8 66.9 91.65 65.55 91.6 65.55 93.05 67.6 93.7 68.5 109.05 69.7 M116.9 70.9 L113.75 65.55 113.7 65.55 106.8 66.9 M113.75 65.55 L111.9 62.4 95.6 60.55 97.4 63.85 113.7 65.55 M111.9 62.4 L118.6 61.3 M112.65 74.05 L109.05 69.65 M95.6 60.55 L101.1 59.05 M75.9 57.7 L79.3 63.6 84.15 60.0 81.15 53.15 73.85 54.3 75.9 57.7 75.9 57.75 75.85 57.75 68.3 59.25 70.8 62.25 74.75 67.05 79.3 63.6 M83.35 76.05 L90.25 72.95 90.3 72.9 M94.75 64.6 L97.4 63.85 M91.65 65.55 L94.75 64.6 90.0 48.1 85.45 51.4 89.1 62.8 71.0 75.15 75.55 77.1 93.05 67.6 M87.5 70.65 L93.7 68.5 M96.65 81.7 L100.85 77.85 100.2 77.55 86.8 77.6 84.0 81.7 96.65 81.7 100.6 82.9 100.6 82.95 104.65 84.1 105.0 79.65 100.85 77.85 M100.2 77.55 L96.65 76.05 83.35 76.05 86.8 77.6 M87.3 82.9 L84.0 81.7 M91.6 140.3 L88.9 120.6 90.75 115.35 88.2 115.35 90.15 109.8 87.5 109.8 89.5 104.25 86.8 104.25 89.0 98.7 86.1 98.7 87.55 95.35 71.6 95.35 69.8 103.5 67.35 115.25 64.3 143.0 M87.85 88.05 L84.75 87.35 87.3 82.9 100.6 82.95 96.65 87.35 100.35 88.05 104.2 88.85 104.65 84.1 M85.45 93.05 L88.4 93.3 93.55 93.3 M87.85 88.05 L85.45 93.05 96.65 93.05 100.35 88.05 87.85 88.05 M87.55 95.35 L88.4 93.3 M87.55 95.35 L88.4 95.35 M96.65 98.7 L100.15 93.3 94.15 93.3 M96.65 104.25 L99.9 98.7 96.65 98.7 89.0 98.7 M100.15 93.3 L96.65 93.05 M96.65 87.35 L84.75 87.35 M100.15 93.3 L103.7 93.65 104.2 88.85 M99.9 98.7 L103.2 98.7 103.7 93.65 M112.5 87.4 L114.5 89.0 120.3 93.4 127.25 98.75 145.95 98.75 146.85 104.7 150.1 126.55 151.5 136.15 152.4 136.95 M113.45 83.3 L109.2 81.45 105.8 104.25 108.2 107.45 112.5 87.4 113.45 83.3 131.4 73.45 126.65 56.75 157.65 56.75 154.35 50.75 125.0 50.75 106.4 46.8 M96.65 76.05 L104.7 73.55 M136.6 73.45 L153.25 73.45 157.65 56.75 M131.4 73.45 L134.0 73.45 136.6 73.45 138.3 77.55 157.9 77.55 M136.85 81.2 L138.3 77.55 M134.0 73.45 L136.85 81.2 163.95 81.2 M105.35 48.1 L99.6 55.45 M116.5 2.65 L126.9 2.65 M116.5 3.85 L130.0 3.85 M116.5 1.3 L123.55 1.25 M119.1 23.05 L122.9 23.05 M78.9 12.4 L78.95 12.4 83.1 13.45 M63.9 22.6 L64.7 18.15 56.45 26.65 59.4 26.65 63.9 22.6 87.8 28.75 M56.45 26.65 L49.0 26.65 M51.75 38.45 L46.75 42.1 50.8 54.6 30.9 68.0 35.95 70.15 M79.5 49.3 L60.45 46.7 62.05 50.65 81.15 53.15 79.5 49.3 88.2 41.55 M66.9 38.45 L60.45 46.7 M84.85 31.35 L63.8 26.65 59.4 26.65 M28.05 50.65 L36.2 49.05 36.3 49.05 16.75 46.95 M36.3 49.05 L36.3 49.0 34.15 45.2 14.65 43.0 M21.2 41.3 L20.7 40.0 M40.2 39.8 L19.4 36.9 M19.6 41.65 L21.2 41.3 42.05 43.95 40.2 39.8 49.75 31.35 27.5 26.65 M30.75 53.95 L35.0 59.15 40.05 55.4 36.3 49.0 M25.5 58.6 L22.0 56.05 5.05 55.1 M20.6 69.75 L25.45 71.25 25.9 65.85 20.9 63.7 15.9 68.25 20.6 69.7 20.6 69.75 4.75 69.7 M37.4 69.4 L37.4 68.8 M29.65 99.05 L26.8 95.25 30.9 68.0 25.9 65.85 30.75 62.3 25.5 58.6 15.9 61.5 20.15 63.35 20.9 63.7 M30.75 62.3 L35.0 59.15 M30.75 53.95 L22.0 56.05 M30.75 53.95 L28.05 50.65 9.95 49.0 M15.9 68.25 L0.85 68.25 M20.15 63.35 L4.1 63.35 M15.9 61.5 L0.0 61.5 M20.1 82.15 L12.9 82.15 M20.1 82.15 L15.9 81.85 2.55 81.85 M15.9 95.25 L19.8 88.65 15.9 88.65 6.7 88.65 M15.9 101.85 L19.55 95.15 15.9 95.25 7.45 95.25 M15.9 88.65 L20.1 82.15 24.35 82.55 24.9 76.8 20.35 75.9 15.9 81.85 M15.9 75.05 L1.65 75.05 M12.2 82.15 L6.1 82.15 M19.55 95.15 L23.25 94.8 23.8 88.65 19.8 88.65 M23.8 88.65 L24.35 82.55 M20.35 75.9 L5.35 75.9 M25.5 58.6 L8.3 57.8 M15.9 75.05 L20.6 69.75 M20.35 75.9 L15.9 75.05 M24.9 76.8 L25.45 71.25 M30.75 53.95 L12.4 52.55 M61.8 71.2 L66.35 73.2 70.8 69.85 66.0 66.5 57.25 69.2 61.05 70.85 61.8 71.2 57.25 75.4 61.55 76.7 65.95 78.05 66.35 73.2 71.0 75.15 67.2 100.05 69.8 103.5 M70.8 62.3 L62.75 64.25 66.0 66.5 50.25 65.8 50.25 65.85 42.65 69.2 57.25 69.2 M70.8 62.25 L70.8 62.3 54.0 61.0 50.65 62.2 47.25 63.35 62.75 64.25 M70.8 69.85 L74.75 67.05 M51.8 57.7 L56.85 56.2 51.75 38.45 M58.0 55.85 L56.05 52.2 62.05 50.65 M53.7 60.55 L51.7 57.7 51.8 57.7 68.3 59.25 M56.85 56.2 L58.0 55.85 75.85 57.75 M54.0 61.0 L53.7 60.55 50.65 62.2 M46.4 70.9 L42.65 69.2 M47.75 63.75 L47.25 63.35 M50.25 65.8 L47.75 63.75 37.4 69.4 M47.0 76.7 L43.4 75.4 46.4 70.9 61.05 70.85 M44.2 81.6 L47.0 76.7 61.55 76.7 57.25 81.6 61.3 82.3 65.45 83.2 65.95 78.05 M47.6 82.3 L44.2 81.6 57.25 81.6 M49.45 115.8 L50.75 112.1 48.0 112.1 50.1 106.1 47.2 106.1 49.45 100.05 46.5 100.05 46.5 100.0 48.8 94.05 45.7 94.05 45.7 94.0 46.95 91.05 37.45 83.45 M46.95 91.05 L48.25 88.1 44.95 87.8 47.6 82.3 61.3 82.3 57.25 87.8 61.05 88.1 64.95 88.5 65.45 83.2 M57.25 87.8 L44.95 87.8 M57.25 75.4 L43.4 75.4 M57.25 94.05 L48.8 94.05 M53.8 88.1 L48.25 88.1 M60.85 94.05 L64.4 94.05 64.95 88.5 M71.6 95.35 L75.55 77.1 M57.25 94.05 L61.05 88.1 54.45 88.1 M57.25 100.05 L60.85 94.05 57.25 94.05 M73.85 54.3 L56.05 52.2 M34.15 45.2 L42.05 43.95 45.35 51.45 40.05 55.4 M57.25 117.9 L62.3 116.6 62.8 111.3 60.0 111.8 57.25 117.9 57.25 149.05 M62.8 111.3 L63.35 105.5 60.3 105.9 57.25 112.1 60.0 111.8 M63.35 105.5 L63.9 99.65 60.55 99.9 57.25 106.1 60.3 105.9 M73.85 140.8 L73.85 126.2 70.3 122.65 67.6 122.65 67.6 142.95 M67.35 115.25 L62.3 116.6 60.15 149.05 M84.35 140.8 L84.35 126.2 80.75 122.65 78.05 122.65 78.05 142.95 M60.55 99.9 L57.25 100.05 49.45 100.05 M57.25 112.1 L50.75 112.1 M57.25 117.9 L48.7 117.9 M57.25 106.1 L50.1 106.1 M26.95 111.9 L21.5 113.3 19.05 148.85 M15.9 114.75 L21.5 113.3 22.05 107.5 18.9 108.1 15.9 114.75 15.9 148.85 M22.05 107.5 L22.6 101.25 19.25 101.6 15.9 108.45 18.9 108.1 M19.25 101.6 L15.9 101.85 8.1 101.85 M15.9 108.45 L8.8 108.45 M15.9 114.75 L6.6 114.75 M143.2 111.05 Q143.2 113.25 141.8 114.75 140.4 116.3 138.45 116.3 137.0 116.3 135.9 115.5 L135.05 114.75 Q133.65 113.25 133.65 111.05 133.65 108.85 135.05 107.35 L135.9 106.6 Q137.0 105.8 138.45 105.8 140.4 105.8 141.8 107.35 143.2 108.85 143.2 111.05 M141.45 104.7 L141.55 104.85 Q143.85 107.4 143.85 111.05 143.85 114.65 141.55 117.25 139.9 119.05 137.7 119.6 L139.15 124.1 142.25 126.55 150.1 126.55 M135.6 102.25 L135.9 102.25 Q139.1 102.25 141.45 104.7 L146.85 104.7 M140.05 111.05 Q140.05 112.35 139.15 113.3 138.35 114.2 137.15 114.2 L135.9 113.9 135.1 113.3 Q134.3 112.35 134.3 111.05 134.3 109.75 135.1 108.8 L135.9 108.2 137.15 107.9 Q138.35 107.9 139.15 108.8 140.05 109.75 140.05 111.05 M131.4 119.8 Q128.3 119.7 126.1 117.25 123.75 114.65 123.75 111.05 123.75 107.9 125.55 105.5 M135.6 119.8 Q132.5 119.7 130.3 117.25 127.95 114.65 127.95 111.05 127.95 107.4 130.3 104.85 132.5 102.35 135.6 102.25 L131.4 102.25 Q128.3 102.35 126.1 104.85 L125.75 105.2 M122.95 105.2 L123.3 104.85 Q125.55 102.35 128.6 102.25 L120.3 102.25 120.3 116.0 120.3 116.05 117.7 118.9 117.25 119.35 116.9 119.8 128.6 119.8 Q125.55 119.7 123.3 117.25 120.95 114.65 120.95 111.05 120.95 107.9 122.75 105.5 M131.4 102.25 L128.6 102.25 M123.45 121.7 L123.55 121.7 Q125.35 121.7 126.55 123.05 L126.6 123.1 133.4 123.1 133.6 123.1 Q135.35 123.1 136.6 124.45 137.85 125.85 137.85 127.8 137.85 129.1 137.3 130.1 L142.0 133.15 149.15 133.15 M128.6 119.8 L131.4 119.8 135.6 119.8 135.9 119.8 137.7 119.6 M137.45 127.8 Q137.45 128.95 136.7 129.75 136.0 130.6 134.9 130.6 134.2 130.6 133.6 130.15 L133.15 129.75 Q132.4 128.95 132.4 127.8 132.4 126.6 133.15 125.85 L133.6 125.4 Q134.2 124.95 134.9 124.95 136.0 124.95 136.7 125.85 137.45 126.6 137.45 127.8 M135.8 127.8 L135.35 129.0 Q134.9 129.5 134.25 129.5 L133.6 129.35 133.15 129.0 Q132.75 128.45 132.75 127.8 132.75 127.05 133.15 126.6 L133.6 126.25 134.25 126.1 Q134.9 126.1 135.35 126.6 135.8 127.05 135.8 127.8 M137.3 130.1 L136.6 131.1 Q135.35 132.45 133.6 132.45 L133.4 132.45 105.3 132.45 104.2 133.7 103.8 136.95 M133.4 132.45 Q131.75 132.4 130.6 131.1 129.35 129.7 129.35 127.8 129.35 125.85 130.6 124.45 131.75 123.15 133.4 123.1 M127.45 126.4 Q127.45 127.55 126.7 128.35 126.0 129.2 124.85 129.2 L123.55 128.75 123.1 128.35 Q122.4 127.55 122.4 126.4 122.4 125.2 123.1 124.4 L123.55 124.0 Q124.15 123.6 124.85 123.6 126.0 123.6 126.7 124.4 127.45 125.2 127.45 126.4 M125.75 126.4 L125.3 127.6 Q124.85 128.05 124.25 128.05 L123.55 127.9 123.15 127.6 Q122.65 127.05 122.65 126.4 122.65 125.7 123.15 125.2 L123.55 124.85 124.25 124.7 Q124.85 124.7 125.3 125.2 125.75 125.7 125.75 126.4 M126.6 123.1 Q127.85 124.45 127.85 126.35 127.85 128.3 126.55 129.65 125.35 131.1 123.55 131.1 L123.45 131.1 106.6 131.1 105.3 132.45 M99.5 109.6 L102.25 109.25 102.8 103.9 99.65 104.15 96.65 109.8 99.5 109.6 96.65 115.35 99.2 115.0 101.75 114.55 102.25 109.25 M96.65 120.6 L101.35 119.35 101.75 114.55 M105.9 118.2 L101.35 119.35 99.7 149.1 M104.95 126.55 L111.55 119.35 111.95 118.9 114.5 116.05 114.5 116.0 114.5 89.0 M120.3 116.0 L114.5 116.0 M115.15 121.7 L116.9 119.8 M105.9 118.2 L108.2 107.45 M99.65 104.15 L96.65 104.25 89.5 104.25 M96.65 120.6 L99.2 115.0 M96.65 120.6 L88.9 120.6 M96.65 109.8 L90.15 109.8 M96.65 115.35 L90.75 115.35 M89.05 143.0 L91.6 140.3 92.0 143.0 M123.45 131.1 Q121.8 131.05 120.6 129.65 119.3 128.3 119.3 126.35 119.3 124.45 120.6 123.05 121.8 121.75 123.45 121.7 L115.15 121.7 106.6 131.1 M104.95 126.55 L104.2 133.7 M105.9 118.2 L104.95 126.55 M96.65 120.6 L96.65 149.1 M92.8 25.65 L64.7 18.15 M63.9 99.65 L64.4 94.05 M22.6 101.25 L23.25 94.8 M120.3 102.25 L120.3 93.4 M102.8 103.9 L103.2 98.7 M163.1 44.95 L138.0 38.05 M156.15 27.15 L164.85 23.9" fill="none" stroke="#000000" stroke-width="0.7" stroke-opacity="0.4"/>
  </g>
  <defs>
    <linearGradient gradientTransform="matrix(0.0, -0.0717, 0.025, 0.0, 36.3, 90.05)" gradientUnits="userSpaceOnUse" id="gradient0" spreadMethod="pad" x1="-819.2" x2="819.2">
      <stop offset="0.0" stop-color="#333333"/>
      <stop offset="1.0" stop-color="#b4b4b4"/>
    </linearGradient>
    <linearGradient gradientTransform="matrix(0.0, -0.0555, 0.0155, 0.0, 12.65, 103.3)" gradientUnits="userSpaceOnUse" id="gradient1" spreadMethod="pad" x1="-819.2" x2="819.2">
      <stop offset="0.0" stop-color="#212121"/>
      <stop offset="1.0" stop-color="#595959"/>
    </linearGradient>
    <radialGradient cx="0" cy="0" gradientTransform="matrix(0.0807, 0.0, 0.0, 0.0807, 196.35, 62.3)" gradientUnits="userSpaceOnUse" id="gradient2" r="819.2" spreadMethod="pad">
      <stop offset="0.0" stop-color="#ffa800"/>
      <stop offset="1.0" stop-color="#333333"/>
    </radialGradient>
    <radialGradient cx="0" cy="0" gradientTransform="matrix(0.0163, 0.0, 0.0, 0.0163, 129.7, 14.45)" gradientUnits="userSpaceOnUse" id="gradient3" r="819.2" spreadMethod="pad">
      <stop offset="0.0" stop-color="#ffa800"/>
      <stop offset="1.0" stop-color="#895a00"/>
    </radialGradient>
    <radialGradient cx="0" cy="0" gradientTransform="matrix(0.0127, 0.0, 0.0, 0.0127, 129.7, 14.15)" gradientUnits="userSpaceOnUse" id="gradient4" r="819.2" spreadMethod="pad">
      <stop offset="0.0" stop-color="#ffe122"/>
      <stop offset="1.0" stop-color="#ffa800"/>
    </radialGradient>
    <linearGradient gradientTransform="matrix(0.0, -0.0717, 0.025, 0.0, 36.3, 90.05)" gradientUnits="userSpaceOnUse" id="gradient5" spreadMethod="pad" x1="-819.2" x2="819.2">
      <stop offset="0.0" stop-color="#2d2d2d"/>
      <stop offset="1.0" stop-color="#808080"/>
    </linearGradient>
    <radialGradient cx="0" cy="0" gradientTransform="matrix(0.0181, 0.0, 0.0, 0.0181, 131.05, 106.8)" gradientUnits="userSpaceOnUse" id="gradient6" r="819.2" spreadMethod="pad">
      <stop offset="0.0" stop-color="#5b5b5b"/>
      <stop offset="1.0" stop-color="#333333"/>
    </radialGradient>
    <radialGradient cx="0" cy="0" gradientTransform="matrix(0.0113, 0.0, 0.0, 0.0113, 139.65, 114.85)" gradientUnits="userSpaceOnUse" id="gradient7" r="819.2" spreadMethod="pad">
      <stop offset="0.0" stop-color="#5b5b5b"/>
      <stop offset="1.0" stop-color="#333333"/>
    </radialGradient>
    <linearGradient gradientTransform="matrix(0.0, -0.0107, 0.0115, 0.0, 126.25, 111.0)" gradientUnits="userSpaceOnUse" id="gradient8" spreadMethod="pad" x1="-819.2" x2="819.2">
      <stop offset="0.0" stop-color="#333333"/>
      <stop offset="0.7568627450980392" stop-color="#5b5b5b"/>
      <stop offset="1.0" stop-color="#333333"/>
    </linearGradient>
    <radialGradient cx="0" cy="0" gradientTransform="matrix(0.0088, 0.0, 0.0, 0.0088, 121.65, 124.5)" gradientUnits="userSpaceOnUse" id="gradient9" r="819.2" spreadMethod="pad">
      <stop offset="0.0" stop-color="#5b5b5b"/>
      <stop offset="1.0" stop-color="#333333"/>
    </radialGradient>
    <radialGradient cx="0" cy="0" gradientTransform="matrix(0.0097, 0.0, 0.0, 0.0097, 131.3, 125.8)" gradientUnits="userSpaceOnUse" id="gradient10" r="819.2" spreadMethod="pad">
      <stop offset="0.0" stop-color="#5b5b5b"/>
      <stop offset="1.0" stop-color="#333333"/>
    </radialGradient>
    <linearGradient gradientTransform="matrix(0.0, -0.0057, 0.0172, 0.0, 119.35, 127.75)" gradientUnits="userSpaceOnUse" id="gradient11" spreadMethod="pad" x1="-819.2" x2="819.2">
      <stop offset="0.0" stop-color="#333333"/>
      <stop offset="0.7568627450980392" stop-color="#5b5b5b"/>
      <stop offset="1.0" stop-color="#333333"/>
    </linearGradient>
    <radialGradient cx="0" cy="0" gradientTransform="matrix(0.0065, 0.0, 0.0, 0.0065, 135.75, 129.7)" gradientUnits="userSpaceOnUse" id="gradient12" r="819.2" spreadMethod="pad">
      <stop offset="0.0" stop-color="#5b5b5b"/>
      <stop offset="1.0" stop-color="#333333"/>
    </radialGradient>
    <radialGradient cx="0" cy="0" gradientTransform="matrix(0.0068, 0.0, 0.0, 0.0068, 125.6, 128.7)" gradientUnits="userSpaceOnUse" id="gradient13" r="819.2" spreadMethod="pad">
      <stop offset="0.0" stop-color="#5b5b5b"/>
      <stop offset="1.0" stop-color="#333333"/>
    </radialGradient>
    <linearGradient gradientTransform="matrix(0.0, -0.0057, 0.0103, 0.0, 114.95, 126.35)" gradientUnits="userSpaceOnUse" id="gradient14" spreadMethod="pad" x1="-819.2" x2="819.2">
      <stop offset="0.0" stop-color="#333333"/>
      <stop offset="0.7568627450980392" stop-color="#5b5b5b"/>
      <stop offset="1.0" stop-color="#333333"/>
    </linearGradient>
  </defs>
</svg>
