<?xml version="1.0" encoding="UTF-8" standalone="no"?>
<svg xmlns:xlink="http://www.w3.org/1999/xlink" height="42.2px" width="144.25px" xmlns="http://www.w3.org/2000/svg">
  <g transform="matrix(1.0, 0.0, 0.0, 1.0, 0.0, 0.0)">
    <use height="42.2" transform="matrix(1.0, 0.0, 0.0, 1.0, 0.0, 0.0)" width="144.25" xlink:href="#shape0"/>
  </g>
  <defs>
    <g id="shape0" transform="matrix(1.0, 0.0, 0.0, 1.0, 0.0, 0.0)">
      <path d="M127.05 15.1 L127.3 15.1 127.4 15.1 Q129.35 15.15 131.0 16.05 L139.85 20.7 139.6 20.7 138.95 20.8 Q137.7 21.1 136.75 22.3 L136.05 23.4 Q135.45 24.6 135.45 26.15 135.45 27.7 136.05 28.9 L136.75 30.0 Q137.7 31.2 139.0 31.5 L139.6 31.6 139.85 31.6 139.85 31.65 131.3 36.15 130.3 36.65 130.25 36.7 127.4 37.3 127.3 37.3 127.05 37.3 Q123.5 37.15 121.0 34.05 120.05 32.85 119.4 31.5 118.35 29.1 118.35 26.2 118.35 23.3 119.4 20.9 120.05 19.55 121.0 18.35 123.5 15.2 127.05 15.1" fill="url(#gradient0)" fill-rule="evenodd" stroke="none"/>
      <path d="M139.85 20.7 L139.95 20.7 141.0 20.9 Q142.1 21.25 142.95 22.3 144.25 23.9 144.25 26.15 144.25 28.4 142.95 30.0 142.1 31.05 141.0 31.4 L139.95 31.6 139.85 31.6 139.6 31.6 139.0 31.5 Q137.7 31.2 136.75 30.0 L136.05 28.9 Q135.45 27.7 135.45 26.15 135.45 24.6 136.05 23.4 L136.75 22.3 Q137.7 21.1 138.95 20.8 L139.6 20.7 139.85 20.7 M34.05 3.45 L40.75 3.45 42.3 9.9 39.95 9.9 38.9 5.5 37.4 5.5 29.15 5.5 26.85 15.2 Q25.75 16.7 25.0 18.35 L24.9 18.7 24.2 20.6 24.0 21.3 23.0 21.3 27.25 3.45 31.4 3.45 34.05 3.45 M69.9 3.55 L70.15 3.55 70.45 3.5 Q72.15 3.5 73.35 5.1 L74.2 6.65 72.5 6.65 Q71.8 5.8 70.85 5.8 L70.7 5.8 70.55 5.8 Q69.75 5.95 69.2 6.7 68.45 7.65 68.45 9.0 68.45 10.35 69.2 11.3 L69.65 11.8 70.05 12.05 70.4 12.2 70.9 12.2 70.4 12.2 70.05 12.05 69.65 11.8 72.05 11.8 74.0 11.8 73.35 12.9 Q72.4 14.15 71.15 14.45 L69.65 14.4 Q68.45 14.1 67.55 12.9 66.35 11.3 66.35 9.0 66.35 6.7 67.55 5.1 68.55 3.8 69.9 3.55 M105.6 3.5 L105.85 3.5 106.15 3.45 Q107.85 3.45 109.05 5.05 110.25 6.65 110.25 8.95 110.25 11.25 109.05 12.85 108.1 14.1 106.85 14.4 L105.35 14.35 Q104.15 14.05 103.25 12.85 102.05 11.25 102.05 8.95 102.05 6.65 103.25 5.05 104.25 3.75 105.6 3.5 M141.0 23.1 L140.15 22.9 139.95 22.9 139.7 22.95 139.6 22.95 Q138.85 23.15 138.3 23.85 137.55 24.8 137.55 26.1 137.55 27.45 138.3 28.35 L139.6 29.25 139.7 29.25 139.95 29.3 140.15 29.3 141.0 29.15 141.95 28.35 Q142.7 27.45 142.7 26.1 142.7 24.8 141.95 23.85 141.55 23.3 141.0 23.1 M105.65 11.95 L105.75 12.0 106.1 12.15 106.6 12.1 Q107.8 11.85 108.25 11.25 108.95 10.3 108.95 8.95 108.95 7.6 108.25 6.65 107.55 5.75 106.55 5.75 L106.4 5.75 106.25 5.75 105.75 5.95 Q105.25 6.15 104.9 6.65 104.15 7.6 104.15 8.95 104.15 10.3 104.9 11.25 L105.65 11.95 M86.45 25.8 L83.6 28.75 79.8 28.75 76.0 28.75 78.85 25.8 76.0 28.75 72.2 28.75 75.05 25.8 72.2 28.75 68.4 28.75 71.25 25.8 68.4 28.75 64.6 28.75 60.8 28.75 63.65 25.8 67.45 25.8 71.25 25.8 75.05 25.8 78.85 25.8 82.65 25.8 86.45 25.8 M79.8 28.75 L82.65 25.8 79.8 28.75 M71.3 12.2 L72.05 11.8 71.3 12.2 M67.45 25.8 L64.6 28.75 67.45 25.8" fill="#cccccc" fill-rule="evenodd" stroke="none"/>
      <path d="M141.0 23.1 Q141.55 23.3 141.95 23.85 142.7 24.8 142.7 26.1 142.7 27.45 141.95 28.35 L141.0 29.15 140.15 29.3 139.95 29.3 139.7 29.25 139.6 29.25 138.3 28.35 Q137.55 27.45 137.55 26.1 137.55 24.8 138.3 23.85 138.85 23.15 139.6 22.95 L139.7 22.95 139.95 22.9 140.15 22.9 141.0 23.1" fill="#333333" fill-rule="evenodd" stroke="none"/>
      <path d="M127.05 37.3 L111.55 37.3 109.4 37.0 109.25 36.95 Q107.05 36.25 105.3 34.15 L105.2 34.05 Q102.6 30.8 102.6 26.2 102.6 21.6 105.2 18.35 L105.25 18.35 Q106.95 16.2 109.15 15.5 L109.2 15.45 111.55 15.1 127.05 15.1 Q123.5 15.2 121.0 18.35 120.05 19.55 119.4 20.9 118.35 23.3 118.35 26.2 118.35 29.1 119.4 31.5 120.05 32.85 121.0 34.05 123.5 37.15 127.05 37.3" fill="url(#gradient1)" fill-rule="evenodd" stroke="none"/>
      <path d="M109.25 36.95 L102.2 35.0 102.05 35.0 Q100.1 34.95 98.6 33.75 L97.25 32.45 Q95.2 29.9 95.2 26.25 95.2 23.25 96.65 21.0 L100.1 17.95 102.05 17.55 102.2 17.55 109.15 15.5 Q106.95 16.2 105.25 18.35 L105.2 18.35 Q102.6 21.6 102.6 26.2 102.6 30.8 105.2 34.05 L105.3 34.15 Q107.05 36.25 109.25 36.95" fill="url(#gradient2)" fill-rule="evenodd" stroke="none"/>
      <path d="M85.7 17.55 L85.7 17.4 Q85.7 16.5 86.6 15.85 87.55 15.25 88.85 15.25 90.15 15.25 91.05 15.85 92.0 16.5 92.0 17.4 L92.0 17.55 Q91.9 18.05 91.05 18.45 90.15 18.85 88.85 18.85 L86.6 18.45 Q85.75 18.05 85.7 17.55" fill="url(#gradient3)" fill-rule="evenodd" stroke="none"/>
      <path d="M102.05 35.0 L97.5 35.0 93.3 35.0 Q91.4 34.95 89.85 33.75 L88.5 32.45 Q86.45 29.9 86.45 26.25 L86.45 25.8 82.65 25.8 78.85 25.8 75.05 25.8 71.25 25.8 67.45 25.8 63.65 25.8 60.8 28.75 60.95 29.5 61.65 31.65 Q62.25 33.0 63.2 34.2 L63.9 35.0 62.4 35.0 62.35 35.0 Q60.9 35.0 59.7 34.4 58.85 34.0 58.15 33.3 L57.35 32.45 56.2 30.65 55.7 29.15 55.65 29.0 55.4 27.75 55.3 26.25 55.3 25.95 Q55.35 24.3 55.85 22.9 56.35 21.35 57.35 20.1 L58.3 19.1 Q58.8 18.65 59.35 18.35 L59.05 20.4 60.1 20.4 62.9 17.55 70.5 17.55 Q70.55 18.05 71.4 18.45 L73.65 18.85 75.85 18.45 Q76.7 18.05 76.8 17.55 L78.1 17.55 Q78.15 18.05 79.0 18.45 L81.25 18.85 Q82.55 18.85 83.45 18.45 84.3 18.05 84.4 17.55 L85.7 17.55 Q85.75 18.05 86.6 18.45 L88.85 18.85 Q90.15 18.85 91.05 18.45 91.9 18.05 92.0 17.55 L96.5 17.55 95.55 21.05 96.55 21.05 96.65 21.0 Q95.2 23.25 95.2 26.25 95.2 29.9 97.25 32.45 L98.6 33.75 Q100.1 34.95 102.05 35.0 M100.5 17.55 L102.05 17.55 100.1 17.95 100.5 17.55" fill="url(#gradient4)" fill-rule="evenodd" stroke="none"/>
      <path d="M78.1 17.55 L78.1 17.4 Q78.1 16.5 79.0 15.85 79.95 15.25 81.25 15.25 82.55 15.25 83.45 15.85 84.4 16.5 84.4 17.4 L84.4 17.55 Q84.3 18.05 83.45 18.45 82.55 18.85 81.25 18.85 L79.0 18.45 Q78.15 18.05 78.1 17.55" fill="url(#gradient5)" fill-rule="evenodd" stroke="none"/>
      <path d="M97.5 35.0 Q95.2 37.35 92.1 37.45 89.0 37.35 86.7 35.0 L86.0 34.2 Q85.05 33.0 84.45 31.65 L83.75 29.5 83.6 28.75 86.45 25.8 86.45 26.25 Q86.45 29.9 88.5 32.45 L89.85 33.75 Q91.4 34.95 93.3 35.0 L97.5 35.0" fill="#bcbcbc" fill-rule="evenodd" stroke="none"/>
      <path d="M92.1 37.45 L88.3 37.45 84.5 37.45 80.7 37.45 76.9 37.45 73.1 37.45 69.3 37.45 66.9 37.0 Q65.3 36.4 63.9 35.0 L63.2 34.2 Q62.25 33.0 61.65 31.65 L60.95 29.5 60.8 28.75 64.6 28.75 68.4 28.75 72.2 28.75 76.0 28.75 79.8 28.75 79.95 29.5 80.65 31.65 Q81.25 33.0 82.2 34.2 L82.9 35.0 Q85.2 37.35 88.3 37.45 85.2 37.35 82.9 35.0 L82.2 34.2 Q81.25 33.0 80.65 31.65 L79.95 29.5 79.8 28.75 83.6 28.75 83.75 29.5 84.45 31.65 Q85.05 33.0 86.0 34.2 L86.7 35.0 Q89.0 37.35 92.1 37.45 M84.5 37.45 Q81.4 37.35 79.1 35.0 L78.4 34.2 Q77.45 33.0 76.85 31.65 L76.15 29.5 76.0 28.75 76.15 29.5 76.85 31.65 Q77.45 33.0 78.4 34.2 L79.1 35.0 Q81.4 37.35 84.5 37.45 M80.7 37.45 Q77.6 37.35 75.3 35.0 L74.6 34.2 Q73.65 33.0 73.05 31.65 L72.35 29.5 72.2 28.75 72.35 29.5 73.05 31.65 Q73.65 33.0 74.6 34.2 L75.3 35.0 Q77.6 37.35 80.7 37.45 M68.4 28.75 L68.55 29.5 69.25 31.65 Q69.85 33.0 70.8 34.2 L71.5 35.0 Q73.85 37.35 76.9 37.45 73.85 37.35 71.5 35.0 L70.8 34.2 Q69.85 33.0 69.25 31.65 L68.55 29.5 68.4 28.75 M73.1 37.45 Q70.05 37.35 67.7 35.0 L67.0 34.2 66.9 34.1 Q66.0 32.95 65.45 31.65 L64.75 29.5 64.6 28.75 64.75 29.5 65.45 31.65 Q66.0 32.95 66.9 34.1 L67.0 34.2 67.7 35.0 Q70.05 37.35 73.1 37.45" fill="url(#gradient6)" fill-rule="evenodd" stroke="none"/>
      <path d="M62.35 35.05 L52.1 40.7 51.9 40.8 51.8 40.8 Q47.15 40.6 43.85 36.5 L42.95 35.25 Q40.45 36.65 37.2 37.3 40.45 36.65 42.95 35.25 L43.85 36.5 Q47.15 40.6 51.8 40.8 L51.8 40.85 Q49.5 42.15 46.75 42.2 L46.45 42.2 46.15 42.2 35.6 42.2 32.75 42.2 29.9 42.2 23.5 42.2 23.3 42.2 19.6 41.5 19.35 41.45 17.25 40.3 15.55 38.9 14.25 37.5 13.5 36.45 13.2 36.0 Q11.95 34.1 11.3 31.85 L10.95 30.65 10.5 27.6 12.6 27.6 10.5 27.6 10.45 26.05 Q10.45 22.8 11.35 20.05 L11.8 18.8 13.05 16.3 13.55 15.6 14.25 14.65 15.5 13.3 16.6 12.3 16.2 14.05 17.35 14.05 17.0 15.5 15.85 15.5 15.25 18.0 16.4 18.0 16.2 18.8 13.9 18.8 13.45 20.15 Q12.55 22.9 12.55 26.15 L12.6 27.6 15.2 27.6 25.45 27.6 15.2 27.6 15.15 26.15 Q15.15 23.55 15.75 21.3 L23.0 21.3 24.0 21.3 24.2 20.6 24.9 18.7 25.0 18.35 Q25.75 16.7 26.85 15.2 L27.3 14.65 Q31.0 10.05 36.15 9.9 L38.45 9.9 39.95 9.9 42.3 9.9 46.15 9.9 46.45 9.9 46.75 9.9 Q49.45 9.95 51.75 11.25 L51.8 11.35 51.9 11.35 52.0 11.35 52.1 11.45 59.75 15.95 59.35 18.35 Q58.8 18.65 58.3 19.1 L57.35 20.1 Q56.35 21.35 55.85 22.9 55.35 24.3 55.3 25.95 L55.3 26.25 55.4 27.75 55.65 29.0 55.7 29.15 56.2 30.65 57.35 32.45 58.15 33.3 Q58.85 34.0 59.7 34.4 60.9 35.0 62.35 35.0 L62.35 35.05 M51.8 11.35 Q47.15 11.5 43.85 15.65 L43.7 15.8 Q42.55 17.3 41.75 19.05 L41.25 20.3 41.2 20.55 Q40.5 22.75 40.4 25.3 L40.35 26.05 40.35 26.25 40.4 26.8 40.7 29.7 33.95 30.65 33.5 27.6 33.95 30.65 40.7 29.7 40.4 26.8 40.35 26.25 40.35 26.05 40.4 25.3 Q40.5 22.75 41.2 20.55 L41.25 20.3 41.75 19.05 Q42.55 17.3 43.7 15.8 L43.85 15.65 Q47.15 11.5 51.8 11.35 M46.15 9.9 Q44.2 9.95 42.5 10.65 L41.0 11.35 39.4 12.45 Q38.25 13.4 37.25 14.65 35.85 16.35 35.0 18.35 L34.8 18.8 35.0 18.35 Q35.85 16.35 37.25 14.65 38.25 13.4 39.4 12.45 L41.0 11.35 42.5 10.65 Q44.2 9.95 46.15 9.9 M40.7 29.7 L40.85 30.2 Q41.1 31.35 41.5 32.35 L41.6 32.65 Q38.75 33.8 35.2 34.25 L35.05 33.9 35.0 33.75 34.2 31.55 33.95 30.65 34.2 31.55 35.0 33.75 35.05 33.9 35.2 34.25 Q38.75 33.8 41.6 32.65 L41.5 32.35 Q41.1 31.35 40.85 30.2 L40.7 29.7 M55.85 22.9 L41.2 20.55 55.85 22.9 M37.25 37.5 L37.2 37.3 37.1 37.3 37.25 37.5 Q40.95 42.05 46.15 42.2 40.95 42.05 37.25 37.5 M41.6 32.65 L41.75 33.05 42.95 35.25 41.75 33.05 41.6 32.65 M29.4 18.75 L26.75 18.7 26.3 20.15 Q25.4 22.9 25.4 26.15 L25.45 27.6 28.1 27.6 30.6 27.6 33.5 27.6 33.45 26.05 Q33.45 23.15 34.2 20.6 L34.8 18.8 31.9 18.75 29.4 18.75 M33.95 30.65 L23.5 30.65 20.65 30.65 17.8 30.65 10.95 30.65 17.8 30.65 20.65 30.65 23.5 30.65 33.95 30.65 M24.9 18.7 L26.75 18.7 24.9 18.7 M13.9 18.8 L11.8 18.8 13.9 18.8 M17.8 30.65 Q18.15 32.25 18.85 33.75 19.7 35.75 21.1 37.5 L23.5 39.85 24.9 40.8 Q27.2 42.1 29.9 42.2 27.2 42.1 24.9 40.8 L23.5 39.85 21.1 37.5 Q19.7 35.75 18.85 33.75 18.15 32.25 17.8 30.65 M35.6 42.2 Q30.9 42.05 27.45 38.25 L26.8 37.5 Q25.4 35.75 24.55 33.75 23.85 32.25 23.5 30.65 23.85 32.25 24.55 33.75 25.4 35.75 26.8 37.5 L27.45 38.25 Q30.9 42.05 35.6 42.2 M20.65 30.65 Q21.0 32.25 21.7 33.75 22.4 35.4 23.5 36.85 L23.95 37.5 26.05 39.65 Q29.0 42.05 32.75 42.2 29.0 42.05 26.05 39.65 L23.95 37.5 23.5 36.85 Q22.4 35.4 21.7 33.75 21.0 32.25 20.65 30.65 M35.2 34.25 Q35.95 35.85 37.1 37.3 35.95 35.85 35.2 34.25 M40.35 26.25 L55.3 25.95 40.35 26.25" fill="url(#gradient7)" fill-rule="evenodd" stroke="none"/>
      <path d="M70.5 17.55 L70.5 17.4 Q70.5 16.5 71.4 15.85 72.35 15.25 73.65 15.25 74.95 15.25 75.85 15.85 76.8 16.5 76.8 17.4 L76.8 17.55 Q76.7 18.05 75.85 18.45 L73.65 18.85 71.4 18.45 Q70.55 18.05 70.5 17.55" fill="url(#gradient8)" fill-rule="evenodd" stroke="none"/>
      <path d="M16.75 11.65 L16.8 11.55 17.1 11.55 17.7 11.55 17.95 11.55 22.5 11.55 21.9 14.05 17.35 14.05 16.2 14.05 16.6 12.3 16.75 11.65 M18.3 10.1 L17.1 10.1 17.7 7.6 18.9 7.6 23.45 7.6 22.85 10.1 18.3 10.1 M24.45 3.45 L29.95 0.0 31.9 0.0 31.4 3.45 27.25 3.45 24.45 3.45 M17.0 15.5 L21.55 15.5 20.95 18.0 16.4 18.0 15.25 18.0 15.85 15.5 17.0 15.5" fill="#636363" fill-rule="evenodd" stroke="none"/>
      <path d="M31.9 0.0 L33.6 0.0 34.05 3.45 31.4 3.45 31.9 0.0 M23.45 7.6 L24.85 7.6 24.25 10.1 22.85 10.1 23.45 7.6 M22.5 11.55 L23.9 11.55 23.3 14.05 21.9 14.05 22.5 11.55 M21.55 15.5 L22.95 15.5 22.35 18.0 20.95 18.0 21.55 15.5" fill="#acacac" fill-rule="evenodd" stroke="none"/>
      <path d="M18.0 11.2 L18.3 10.1 22.85 10.1 24.25 10.1 24.85 7.6 23.45 7.6 18.9 7.6 19.85 3.45 24.45 3.45 27.25 3.45 23.0 21.3 15.75 21.3 15.6 21.3 16.2 18.8 16.4 18.0 20.95 18.0 22.35 18.0 22.95 15.5 21.55 15.5 17.0 15.5 17.35 14.05 21.9 14.05 23.3 14.05 23.9 11.55 22.5 11.55 17.95 11.55 17.95 11.35 18.0 11.2" fill="#a9a9a9" fill-rule="evenodd" stroke="none"/>
      <path d="M0.7 21.8 Q1.3 20.1 2.4 18.7 L13.55 15.6 13.05 16.3 11.8 18.8 11.35 20.05 0.7 21.8 M3.95 17.0 Q4.7 16.3 5.6 15.9 L5.7 15.85 Q6.3 15.55 7.0 15.35 L16.75 11.65 16.6 12.3 15.5 13.3 3.95 17.0" fill="#d1d1d1" fill-rule="evenodd" stroke="none"/>
      <path d="M2.4 18.7 L2.65 18.35 2.8 18.15 3.95 17.0 15.5 13.3 14.25 14.65 13.55 15.6 2.4 18.7" fill="#e7e7e7" fill-rule="evenodd" stroke="none"/>
      <path d="M0.0 26.05 Q0.05 23.75 0.7 21.8 L11.35 20.05 Q10.45 22.8 10.45 26.05 L0.0 26.05" fill="#959595" fill-rule="evenodd" stroke="none"/>
      <path d="M0.55 30.1 Q0.0 28.3 0.0 26.2 L0.0 26.05 10.45 26.05 10.5 27.6 10.95 30.65 11.3 31.85 0.55 30.1" fill="#6c6c6c" fill-rule="evenodd" stroke="none"/>
      <path d="M2.1 33.3 Q1.1 31.85 0.55 30.1 L11.3 31.85 Q11.95 34.1 13.2 36.0 L13.5 36.45 2.1 33.3" fill="#525252" fill-rule="evenodd" stroke="none"/>
      <path d="M19.35 41.45 L7.0 37.05 Q5.1 36.55 3.55 35.05 L15.55 38.9 17.25 40.3 19.35 41.45" fill="#363636" fill-rule="evenodd" stroke="none"/>
      <path d="M3.55 35.05 L2.65 34.05 2.1 33.3 13.5 36.45 14.25 37.5 15.55 38.9 3.55 35.05" fill="#404040" fill-rule="evenodd" stroke="none"/>
      <path d="M82.7 6.65 L83.55 5.05 Q84.55 3.75 85.9 3.5 L105.6 3.5 Q104.25 3.75 103.25 5.05 102.05 6.65 102.05 8.95 102.05 11.25 103.25 12.85 104.15 14.05 105.35 14.35 L101.35 14.35 98.3 14.35 97.3 14.35 85.65 14.35 Q84.45 14.05 83.55 12.85 L82.95 11.8 Q82.35 10.55 82.35 8.95 82.35 7.7 82.7 6.65" fill="url(#gradient9)" fill-rule="evenodd" stroke="none"/>
      <path d="M74.2 6.65 L82.7 6.65 Q82.35 7.7 82.35 8.95 82.35 10.55 82.95 11.8 L74.0 11.8 72.05 11.8 69.65 11.8 69.2 11.3 Q68.45 10.35 68.45 9.0 68.45 7.65 69.2 6.7 69.75 5.95 70.55 5.8 L70.7 5.8 70.85 5.8 Q71.8 5.8 72.5 6.65 L74.2 6.65 M69.65 6.65 L72.5 6.65 69.65 6.65" fill="url(#gradient10)" fill-rule="evenodd" stroke="none"/>
      <path d="M59.75 15.95 L59.95 14.4 61.1 14.4 60.1 20.4 59.05 20.4 59.35 18.35 59.75 15.95 M96.5 17.55 L97.3 14.35 98.3 14.35 96.55 21.05 95.55 21.05 96.5 17.55" fill="#545454" fill-rule="evenodd" stroke="none"/>
      <path d="M101.35 14.35 L100.5 17.55 100.1 17.95 96.65 21.0 96.55 21.05 98.3 14.35 101.35 14.35 M63.5 14.4 L62.9 17.55 60.1 20.4 61.1 14.4 63.5 14.4" fill="#464646" fill-rule="evenodd" stroke="none"/>
      <path d="M59.95 14.4 Q58.6 14.2 57.7 13.0 56.5 11.4 56.5 9.1 56.5 6.8 57.7 5.2 58.7 3.9 60.05 3.55 L69.9 3.55 Q68.55 3.8 67.55 5.1 66.35 6.7 66.35 9.0 66.35 11.3 67.55 12.9 68.45 14.1 69.65 14.4 L63.5 14.4 61.1 14.4 59.95 14.4" fill="url(#gradient11)" fill-rule="evenodd" stroke="none"/>
      <path d="M31.9 18.75 L34.8 18.8 34.2 20.6 Q33.45 23.15 33.45 26.05 L33.5 27.6 30.6 27.6 30.55 26.05 Q30.55 22.8 31.45 20.05 L31.9 18.75" fill="url(#gradient12)" fill-rule="evenodd" stroke="none"/>
      <path d="M26.75 18.7 L29.4 18.75 28.95 20.15 Q28.05 22.9 28.05 26.15 L28.1 27.6 25.45 27.6 25.4 26.15 Q25.4 22.9 26.3 20.15 L26.75 18.7" fill="url(#gradient13)" fill-rule="evenodd" stroke="none"/>
      <path d="M29.4 18.75 L31.9 18.75 31.45 20.05 Q30.55 22.8 30.55 26.05 L30.6 27.6 28.1 27.6 28.05 26.15 Q28.05 22.9 28.95 20.15 L29.4 18.75" fill="url(#gradient14)" fill-rule="evenodd" stroke="none"/>
      <path d="M16.2 18.8 L15.6 21.3 15.75 21.3 Q15.15 23.55 15.15 26.15 L15.2 27.6 12.6 27.6 12.55 26.15 Q12.55 22.9 13.45 20.15 L13.9 18.8 16.2 18.8" fill="url(#gradient15)" fill-rule="evenodd" stroke="none"/>
      <path d="M105.65 11.95 L104.9 11.25 Q104.15 10.3 104.15 8.95 104.15 7.6 104.9 6.65 105.25 6.15 105.75 5.95 L106.65 6.65 Q107.35 7.6 107.35 8.95 107.35 10.3 106.65 11.25 106.35 11.7 105.65 11.95" fill="url(#gradient16)" fill-rule="evenodd" stroke="none"/>
      <path d="M37.4 5.5 L38.45 9.9 36.15 9.9 Q31.0 10.05 27.3 14.65 L26.85 15.2 29.15 5.5 37.4 5.5" fill="url(#gradient17)" fill-rule="evenodd" stroke="none"/>
      <path d="M105.75 5.95 L106.25 5.75 106.4 5.75 106.55 5.75 Q107.55 5.75 108.25 6.65 108.95 7.6 108.95 8.95 108.95 10.3 108.25 11.25 107.8 11.85 106.6 12.1 L106.1 12.15 105.75 12.0 105.65 11.95 Q106.35 11.7 106.65 11.25 107.35 10.3 107.35 8.95 107.35 7.6 106.65 6.65 L105.75 5.95 M37.4 5.5 L38.9 5.5 39.95 9.9 38.45 9.9 37.4 5.5" fill="#003399" fill-rule="evenodd" stroke="none"/>
      <path d="M127.05 15.1 L127.3 15.1 127.4 15.1 Q129.35 15.15 131.0 16.05 L139.85 20.7 139.95 20.7 141.0 20.9 Q142.1 21.25 142.95 22.3 144.25 23.9 144.25 26.15 144.25 28.4 142.95 30.0 142.1 31.05 141.0 31.4 L139.95 31.6 139.85 31.65 131.3 36.15 130.3 36.65 130.25 36.7 127.4 37.3 127.3 37.3 127.05 37.3 111.55 37.3 109.4 37.0 109.25 36.95 102.2 35.0 102.05 35.0 97.5 35.0 Q95.2 37.35 92.1 37.45 L88.3 37.45 84.5 37.45 80.7 37.45 76.9 37.45 73.1 37.45 69.3 37.45 66.9 37.0 Q65.3 36.4 63.9 35.0 L62.4 35.0 62.35 35.05 52.1 40.7 51.9 40.8 51.8 40.85 Q49.5 42.15 46.75 42.2 L46.45 42.2 46.15 42.2 35.6 42.2 32.75 42.2 29.9 42.2 23.5 42.2 23.3 42.2 19.6 41.5 19.35 41.45 7.0 37.05 Q5.1 36.55 3.55 35.05 L2.65 34.05 2.1 33.3 Q1.1 31.85 0.55 30.1 0.0 28.3 0.0 26.2 L0.0 26.05 Q0.05 23.75 0.7 21.8 1.3 20.1 2.4 18.7 L2.65 18.35 2.8 18.15 3.95 17.0 Q4.7 16.3 5.6 15.9 L5.7 15.85 Q6.3 15.55 7.0 15.35 L16.75 11.65 16.8 11.55 17.1 11.55 18.0 11.2 18.3 10.1 17.1 10.1 17.7 7.6 18.9 7.6 19.85 3.45 24.45 3.45 29.95 0.0 31.9 0.0 33.6 0.0 34.05 3.45 40.75 3.45 42.3 9.9 46.15 9.9 46.45 9.9 46.75 9.9 Q49.45 9.95 51.75 11.25 L51.9 11.35 52.0 11.35 52.1 11.45 59.75 15.95 59.95 14.4 Q58.6 14.2 57.7 13.0 56.5 11.4 56.5 9.1 56.5 6.8 57.7 5.2 58.7 3.9 60.05 3.55 L69.9 3.55 70.15 3.55 70.45 3.5 Q72.15 3.5 73.35 5.1 L74.2 6.65 82.7 6.65 83.55 5.05 Q84.55 3.75 85.9 3.5 L105.6 3.5 105.85 3.5 106.15 3.45 Q107.85 3.45 109.05 5.05 110.25 6.65 110.25 8.95 110.25 11.25 109.05 12.85 108.1 14.1 106.85 14.4 L106.15 14.45 105.35 14.35 101.35 14.35 100.5 17.55 102.05 17.55 102.2 17.55 109.15 15.5 109.2 15.45 111.55 15.1 127.05 15.1 Q123.5 15.2 121.0 18.35 120.05 19.55 119.4 20.9 118.35 23.3 118.35 26.2 118.35 29.1 119.4 31.5 120.05 32.85 121.0 34.05 123.5 37.15 127.05 37.3 M139.85 20.7 L139.6 20.7 138.95 20.8 Q137.7 21.1 136.75 22.3 L136.05 23.4 Q135.45 24.6 135.45 26.15 135.45 27.7 136.05 28.9 L136.75 30.0 Q137.7 31.2 139.0 31.5 L139.6 31.6 139.85 31.6 139.95 31.6 M141.0 23.1 Q141.55 23.3 141.95 23.85 142.7 24.8 142.7 26.1 142.7 27.45 141.95 28.35 L141.0 29.15 140.15 29.3 139.95 29.3 139.7 29.25 139.6 29.25 138.3 28.35 Q137.55 27.45 137.55 26.1 137.55 24.8 138.3 23.85 138.85 23.15 139.6 22.95 L139.7 22.95 139.95 22.9 140.15 22.9 141.0 23.1 M105.75 5.95 L106.25 5.75 106.4 5.75 106.55 5.75 Q107.55 5.75 108.25 6.65 108.95 7.6 108.95 8.95 108.95 10.3 108.25 11.25 107.8 11.85 106.6 12.1 L106.1 12.15 105.75 12.0 105.65 11.95 104.9 11.25 Q104.15 10.3 104.15 8.95 104.15 7.6 104.9 6.65 105.25 6.15 105.75 5.95 L106.65 6.65 Q107.35 7.6 107.35 8.95 107.35 10.3 106.65 11.25 106.35 11.7 105.65 11.95 M105.35 14.35 Q104.15 14.05 103.25 12.85 102.05 11.25 102.05 8.95 102.05 6.65 103.25 5.05 104.25 3.75 105.6 3.5 M109.15 15.5 Q106.95 16.2 105.25 18.35 L105.2 18.35 Q102.6 21.6 102.6 26.2 102.6 30.8 105.2 34.05 L105.3 34.15 Q107.05 36.25 109.25 36.95 M106.85 14.4 L105.35 14.35 M82.95 11.8 Q82.35 10.55 82.35 8.95 82.35 7.7 82.7 6.65 M92.0 17.55 L92.0 17.4 Q92.0 16.5 91.05 15.85 90.15 15.25 88.85 15.25 87.55 15.25 86.6 15.85 85.7 16.5 85.7 17.4 L85.7 17.55 Q85.75 18.05 86.6 18.45 L88.85 18.85 Q90.15 18.85 91.05 18.45 91.9 18.05 92.0 17.55 L96.5 17.55 97.3 14.35 85.65 14.35 Q84.45 14.05 83.55 12.85 L82.95 11.8 74.0 11.8 73.35 12.9 Q72.4 14.15 71.15 14.45 L70.45 14.5 69.65 14.4 63.5 14.4 62.9 17.55 70.5 17.55 70.5 17.4 Q70.5 16.5 71.4 15.85 72.35 15.25 73.65 15.25 74.95 15.25 75.85 15.85 76.8 16.5 76.8 17.4 L76.8 17.55 78.1 17.55 78.1 17.4 Q78.1 16.5 79.0 15.85 79.95 15.25 81.25 15.25 82.55 15.25 83.45 15.85 84.4 16.5 84.4 17.4 L84.4 17.55 85.7 17.55 M84.4 17.55 Q84.3 18.05 83.45 18.45 82.55 18.85 81.25 18.85 L79.0 18.45 Q78.15 18.05 78.1 17.55 M98.3 14.35 L97.3 14.35 M100.5 17.55 L100.1 17.95 102.05 17.55 M96.65 21.0 L96.55 21.05 95.55 21.05 96.5 17.55 M98.3 14.35 L96.55 21.05 M100.1 17.95 L96.65 21.0 Q95.2 23.25 95.2 26.25 95.2 29.9 97.25 32.45 L98.6 33.75 Q100.1 34.95 102.05 35.0 M97.5 35.0 L93.3 35.0 Q91.4 34.95 89.85 33.75 L88.5 32.45 Q86.45 29.9 86.45 26.25 L86.45 25.8 83.6 28.75 83.75 29.5 84.45 31.65 Q85.05 33.0 86.0 34.2 L86.7 35.0 Q89.0 37.35 92.1 37.45 M88.3 37.45 Q85.2 37.35 82.9 35.0 L82.2 34.2 Q81.25 33.0 80.65 31.65 L79.95 29.5 79.8 28.75 76.0 28.75 76.15 29.5 76.85 31.65 Q77.45 33.0 78.4 34.2 L79.1 35.0 Q81.4 37.35 84.5 37.45 M86.45 25.8 L82.65 25.8 79.8 28.75 83.6 28.75 M101.35 14.35 L98.3 14.35 M74.0 11.8 L72.05 11.8 71.3 12.2 M74.2 6.65 L72.5 6.65 69.65 6.65 M69.65 11.8 L69.2 11.3 Q68.45 10.35 68.45 9.0 68.45 7.65 69.2 6.7 69.75 5.95 70.55 5.8 L70.7 5.8 70.85 5.8 Q71.8 5.8 72.5 6.65 M69.65 14.4 Q68.45 14.1 67.55 12.9 66.35 11.3 66.35 9.0 66.35 6.7 67.55 5.1 68.55 3.8 69.9 3.55 M70.9 12.2 L70.4 12.2 70.05 12.05 69.65 11.8 72.05 11.8 M61.1 14.4 L63.5 14.4 M70.5 17.55 Q70.55 18.05 71.4 18.45 L73.65 18.85 75.85 18.45 Q76.7 18.05 76.8 17.55 M71.15 14.45 L69.65 14.4 M51.8 11.35 L51.9 11.35 M34.8 18.8 L35.0 18.35 Q35.85 16.35 37.25 14.65 38.25 13.4 39.4 12.45 L41.0 11.35 42.5 10.65 Q44.2 9.95 46.15 9.9 M33.5 27.6 L33.95 30.65 40.7 29.7 40.4 26.8 40.35 26.25 40.35 26.05 40.4 25.3 Q40.5 22.75 41.2 20.55 L41.25 20.3 41.75 19.05 Q42.55 17.3 43.7 15.8 L43.85 15.65 Q47.15 11.5 51.8 11.35 M59.75 15.95 L59.35 18.35 59.05 20.4 60.1 20.4 61.1 14.4 59.95 14.4 M59.35 18.35 Q58.8 18.65 58.3 19.1 L57.35 20.1 Q56.35 21.35 55.85 22.9 55.35 24.3 55.3 25.95 L55.3 26.25 55.4 27.75 55.65 29.0 55.7 29.15 56.2 30.65 57.35 32.45 58.15 33.3 Q58.85 34.0 59.7 34.4 60.9 35.0 62.35 35.0 L62.4 35.0 M41.2 20.55 L55.85 22.9 M33.95 30.65 L34.2 31.55 35.0 33.75 35.05 33.9 35.2 34.25 Q38.75 33.8 41.6 32.65 L41.5 32.35 Q41.1 31.35 40.85 30.2 L40.7 29.7 M51.8 40.8 Q47.15 40.6 43.85 36.5 L42.95 35.25 Q40.45 36.65 37.2 37.3 L37.1 37.3 Q35.95 35.85 35.2 34.25 M37.25 37.5 Q40.95 42.05 46.15 42.2 M42.95 35.25 L41.75 33.05 41.6 32.65 M51.8 40.8 L51.9 40.8 M78.85 25.8 L76.0 28.75 72.2 28.75 72.35 29.5 73.05 31.65 Q73.65 33.0 74.6 34.2 L75.3 35.0 Q77.6 37.35 80.7 37.45 M72.2 28.75 L75.05 25.8 71.25 25.8 68.4 28.75 72.2 28.75 M78.85 25.8 L75.05 25.8 M76.9 37.45 Q73.85 37.35 71.5 35.0 L70.8 34.2 Q69.85 33.0 69.25 31.65 L68.55 29.5 68.4 28.75 64.6 28.75 64.75 29.5 65.45 31.65 Q66.0 32.95 66.9 34.1 L67.0 34.2 67.7 35.0 Q70.05 37.35 73.1 37.45 M60.8 28.75 L64.6 28.75 67.45 25.8 63.65 25.8 60.8 28.75 60.95 29.5 61.65 31.65 Q62.25 33.0 63.2 34.2 L63.9 35.0 M71.25 25.8 L67.45 25.8 M62.9 17.55 L60.1 20.4 M39.95 9.9 L38.9 5.5 37.4 5.5 38.45 9.9 39.95 9.9 42.3 9.9 M31.4 3.45 L31.9 0.0 M34.05 3.45 L31.4 3.45 27.25 3.45 23.0 21.3 24.0 21.3 24.2 20.6 24.9 18.7 25.0 18.35 Q25.75 16.7 26.85 15.2 L29.15 5.5 37.4 5.5 M26.85 15.2 L27.3 14.65 Q31.0 10.05 36.15 9.9 L38.45 9.9 M23.45 7.6 L24.85 7.6 24.25 10.1 22.85 10.1 18.3 10.1 M22.5 11.55 L23.9 11.55 23.3 14.05 21.9 14.05 17.35 14.05 17.0 15.5 21.55 15.5 22.95 15.5 22.35 18.0 20.95 18.0 16.4 18.0 16.2 18.8 15.6 21.3 15.75 21.3 23.0 21.3 M22.85 10.1 L23.45 7.6 18.9 7.6 M24.45 3.45 L27.25 3.45 M20.95 18.0 L21.55 15.5 M26.75 18.7 L29.4 18.75 31.9 18.75 34.8 18.8 34.2 20.6 Q33.45 23.15 33.45 26.05 L33.5 27.6 30.6 27.6 28.1 27.6 25.45 27.6 15.2 27.6 12.6 27.6 10.5 27.6 10.95 30.65 17.8 30.65 20.65 30.65 23.5 30.65 33.95 30.65 M25.45 27.6 L25.4 26.15 Q25.4 22.9 26.3 20.15 L26.75 18.7 24.9 18.7 M28.1 27.6 L28.05 26.15 Q28.05 22.9 28.95 20.15 L29.4 18.75 M30.6 27.6 L30.55 26.05 Q30.55 22.8 31.45 20.05 L31.9 18.75 M22.5 11.55 L21.9 14.05 M16.6 12.3 L16.75 11.65 M17.1 11.55 L17.7 11.55 17.95 11.35 18.0 11.2 M17.95 11.55 L17.95 11.35 M17.7 11.55 L17.95 11.55 22.5 11.55 M17.35 14.05 L16.2 14.05 16.6 12.3 15.5 13.3 14.25 14.65 13.55 15.6 13.05 16.3 11.8 18.8 13.9 18.8 16.2 18.8 M17.0 15.5 L15.85 15.5 15.25 18.0 16.4 18.0 M11.35 20.05 L11.8 18.8 M12.6 27.6 L12.55 26.15 Q12.55 22.9 13.45 20.15 L13.9 18.8 M3.95 17.0 L15.5 13.3 M0.7 21.8 L11.35 20.05 Q10.45 22.8 10.45 26.05 L10.5 27.6 M13.55 15.6 L2.4 18.7 M11.3 31.85 Q11.95 34.1 13.2 36.0 L13.5 36.45 14.25 37.5 15.55 38.9 17.25 40.3 19.35 41.45 M15.2 27.6 L15.15 26.15 Q15.15 23.55 15.75 21.3 M29.9 42.2 Q27.2 42.1 24.9 40.8 L23.5 39.85 21.1 37.5 Q19.7 35.75 18.85 33.75 18.15 32.25 17.8 30.65 M10.95 30.65 L11.3 31.85 0.55 30.1 M13.5 36.45 L2.1 33.3 M3.55 35.05 L15.55 38.9 M0.0 26.05 L10.45 26.05 M32.75 42.2 Q29.0 42.05 26.05 39.65 L23.95 37.5 23.5 36.85 Q22.4 35.4 21.7 33.75 21.0 32.25 20.65 30.65 M23.5 30.65 Q23.85 32.25 24.55 33.75 25.4 35.75 26.8 37.5 L27.45 38.25 Q30.9 42.05 35.6 42.2 M37.25 37.5 L37.1 37.3 M55.3 25.95 L40.35 26.25 M82.65 25.8 L78.85 25.8" fill="none" stroke-width="0.7" stroke="#000000" stroke-opacity="0.4"/>
    </g>
    <linearGradient gradientTransform="matrix(0.0, -0.0126, 0.0131, 0.0, 129.1, 26.15)" gradientUnits="userSpaceOnUse" id="gradient0" spreadMethod="pad" x1="-819.2" x2="819.2">
      <stop offset="0.0" stop-color="#333333"/>
      <stop offset="0.7294117647058823" stop-color="#d7d7d7"/>
      <stop offset="1.0" stop-color="#666666"/>
    </linearGradient>
    <linearGradient gradientTransform="matrix(0.0, -0.0132, 0.0149, 0.0, 114.85, 26.25)" gradientUnits="userSpaceOnUse" id="gradient1" spreadMethod="pad" x1="-819.2" x2="819.2">
      <stop offset="0.0" stop-color="#333333"/>
      <stop offset="0.7294117647058823" stop-color="#d7d7d7"/>
      <stop offset="1.0" stop-color="#666666"/>
    </linearGradient>
    <linearGradient gradientTransform="matrix(0.0, -0.0117, 0.0086, 0.0, 102.25, 25.75)" gradientUnits="userSpaceOnUse" id="gradient2" spreadMethod="pad" x1="-819.2" x2="819.2">
      <stop offset="0.0" stop-color="#333333"/>
      <stop offset="0.7294117647058823" stop-color="#d7d7d7"/>
      <stop offset="1.0" stop-color="#666666"/>
    </linearGradient>
    <radialGradient cx="0" cy="0" gradientTransform="matrix(0.0046, 0.0, 0.0, 0.0046, 89.3, 16.5)" gradientUnits="userSpaceOnUse" id="gradient3" r="819.2" spreadMethod="pad">
      <stop offset="0.11372549019607843" stop-color="#b1abab"/>
      <stop offset="0.8745098039215686" stop-color="#565656"/>
    </radialGradient>
    <linearGradient gradientTransform="matrix(0.0, -0.0107, 0.0285, 0.0, 78.65, 26.3)" gradientUnits="userSpaceOnUse" id="gradient4" spreadMethod="pad" x1="-819.2" x2="819.2">
      <stop offset="0.0" stop-color="#333232"/>
      <stop offset="0.4196078431372549" stop-color="#626262"/>
      <stop offset="0.6784313725490196" stop-color="#adadad"/>
      <stop offset="0.9058823529411765" stop-color="#565656"/>
    </linearGradient>
    <radialGradient cx="0" cy="0" gradientTransform="matrix(0.0046, 0.0, 0.0, 0.0046, 81.5, 16.3)" gradientUnits="userSpaceOnUse" id="gradient5" r="819.2" spreadMethod="pad">
      <stop offset="0.11372549019607843" stop-color="#b1abab"/>
      <stop offset="0.8745098039215686" stop-color="#565656"/>
    </radialGradient>
    <linearGradient gradientTransform="matrix(0.0, -0.0049, 0.0191, 0.0, 76.45, 33.1)" gradientUnits="userSpaceOnUse" id="gradient6" spreadMethod="pad" x1="-819.2" x2="819.2">
      <stop offset="0.0" stop-color="#333333"/>
      <stop offset="1.0" stop-color="#999999"/>
    </linearGradient>
    <linearGradient gradientTransform="matrix(0.0, -0.0195, 0.0317, 0.0, 36.4, 26.15)" gradientUnits="userSpaceOnUse" id="gradient7" spreadMethod="pad" x1="-819.2" x2="819.2">
      <stop offset="0.0" stop-color="#333333"/>
      <stop offset="0.7294117647058823" stop-color="#d7d7d7"/>
      <stop offset="1.0" stop-color="#666666"/>
    </linearGradient>
    <radialGradient cx="0" cy="0" gradientTransform="matrix(0.0049, 0.0, 0.0, 0.0049, 74.3, 16.3)" gradientUnits="userSpaceOnUse" id="gradient8" r="819.2" spreadMethod="pad">
      <stop offset="0.11372549019607843" stop-color="#b1abab"/>
      <stop offset="0.8745098039215686" stop-color="#565656"/>
    </radialGradient>
    <linearGradient gradientTransform="matrix(0.0, -0.0066, 0.0142, 0.0, 93.95, 8.95)" gradientUnits="userSpaceOnUse" id="gradient9" spreadMethod="pad" x1="-819.2" x2="819.2">
      <stop offset="0.0" stop-color="#333333"/>
      <stop offset="0.7294117647058823" stop-color="#d7d7d7"/>
      <stop offset="1.0" stop-color="#666666"/>
    </linearGradient>
    <linearGradient gradientTransform="matrix(-1.0E-4, -0.0054, 0.0088, -2.0E-4, 75.55, 5.7)" gradientUnits="userSpaceOnUse" id="gradient10" spreadMethod="pad" x1="-819.2" x2="819.2">
      <stop offset="0.0" stop-color="#333333"/>
      <stop offset="0.7294117647058823" stop-color="#d7d7d7"/>
      <stop offset="1.0" stop-color="#666666"/>
    </linearGradient>
    <linearGradient gradientTransform="matrix(0.0, -0.0066, 0.0082, 0.0, 63.2, 9.0)" gradientUnits="userSpaceOnUse" id="gradient11" spreadMethod="pad" x1="-819.2" x2="819.2">
      <stop offset="0.0" stop-color="#333333"/>
      <stop offset="0.7294117647058823" stop-color="#d7d7d7"/>
      <stop offset="1.0" stop-color="#666666"/>
    </linearGradient>
    <linearGradient gradientTransform="matrix(0.0021, -0.0056, 0.0026, 0.001, 32.6, 23.2)" gradientUnits="userSpaceOnUse" id="gradient12" spreadMethod="pad" x1="-819.2" x2="819.2">
      <stop offset="0.21176470588235294" stop-color="#5bbbff"/>
      <stop offset="0.3568627450980392" stop-color="#149eff"/>
      <stop offset="0.7333333333333333" stop-color="#1954ff"/>
    </linearGradient>
    <linearGradient gradientTransform="matrix(0.0021, -0.0055, 0.0025, 9.0E-4, 27.4, 23.15)" gradientUnits="userSpaceOnUse" id="gradient13" spreadMethod="pad" x1="-819.2" x2="819.2">
      <stop offset="0.21176470588235294" stop-color="#5bbbff"/>
      <stop offset="0.3568627450980392" stop-color="#149eff"/>
      <stop offset="0.7333333333333333" stop-color="#1954ff"/>
    </linearGradient>
    <linearGradient gradientTransform="matrix(0.002, -0.0055, 0.0024, 9.0E-4, 29.95, 23.15)" gradientUnits="userSpaceOnUse" id="gradient14" spreadMethod="pad" x1="-819.2" x2="819.2">
      <stop offset="0.21176470588235294" stop-color="#5bbbff"/>
      <stop offset="0.3568627450980392" stop-color="#149eff"/>
      <stop offset="0.7333333333333333" stop-color="#1954ff"/>
    </linearGradient>
    <linearGradient gradientTransform="matrix(0.002, -0.0054, 0.0024, 9.0E-4, 14.5, 23.2)" gradientUnits="userSpaceOnUse" id="gradient15" spreadMethod="pad" x1="-819.2" x2="819.2">
      <stop offset="0.21176470588235294" stop-color="#5bbbff"/>
      <stop offset="0.3568627450980392" stop-color="#149eff"/>
      <stop offset="0.7333333333333333" stop-color="#1954ff"/>
    </linearGradient>
    <radialGradient cx="0" cy="0" gradientTransform="matrix(0.0045, 0.0, 0.0, 0.0045, 104.75, 9.25)" gradientUnits="userSpaceOnUse" id="gradient16" r="819.2" spreadMethod="pad">
      <stop offset="0.21176470588235294" stop-color="#5bbbff"/>
      <stop offset="0.3568627450980392" stop-color="#149eff"/>
      <stop offset="0.7333333333333333" stop-color="#1954ff"/>
    </radialGradient>
    <radialGradient cx="0" cy="0" gradientTransform="matrix(0.015, 0.0, 0.0, 0.015, 27.5, 12.75)" gradientUnits="userSpaceOnUse" id="gradient17" r="819.2" spreadMethod="pad">
      <stop offset="0.21176470588235294" stop-color="#5bbbff"/>
      <stop offset="0.3568627450980392" stop-color="#149eff"/>
      <stop offset="0.7333333333333333" stop-color="#1954ff"/>
    </radialGradient>
  </defs>
</svg>
