<?xml version="1.0" encoding="UTF-8" standalone="no"?>
<svg xmlns:xlink="http://www.w3.org/1999/xlink" height="202.1px" width="202.1px" xmlns="http://www.w3.org/2000/svg">
  <g transform="matrix(1.0, 0.0, 0.0, 1.0, 0.05, 0.05)">
    <path d="M186.9 63.85 L196.7 69.95 202.0 77.7 192.2 79.0 187.1 77.15 185.5 74.55 188.8 75.85 193.3 73.75 191.55 68.95 188.45 67.1 186.9 63.85 M195.9 94.75 L200.25 95.55 195.55 103.6 193.8 104.6 195.25 97.65 195.9 94.75 M18.65 127.85 L11.05 124.3 9.95 121.6 11.2 121.6 17.6 121.6 18.45 125.0 26.15 128.5 26.15 129.5 29.65 132.45 29.45 134.4 Q29.45 135.6 29.7 136.65 30.2 140.0 32.3 142.5 L33.0 143.3 34.15 148.3 30.55 146.55 27.95 132.95 18.65 127.85 M9.0 99.45 L5.9 99.45 4.55 96.85 10.0 93.25 11.2 96.0 12.1 99.45 9.0 99.45 M202.0 77.7 L193.3 73.75 202.0 77.7 M188.4 84.8 L189.3 87.65 181.95 91.85 184.1 98.5 183.9 99.35 172.0 99.3 172.15 98.0 167.65 92.35 151.05 88.1 Q140.45 84.4 125.5 77.65 L151.05 84.8 161.05 84.8 169.2 89.4 179.2 89.4 181.55 84.8 188.4 84.8 M163.1 76.8 L163.75 77.7 155.1 73.75 163.75 77.7 154.0 79.0 148.55 77.0 115.0 64.75 110.4 63.05 109.15 54.5 112.45 55.7 113.35 61.35 150.6 75.85 155.1 73.75 153.35 68.95 119.0 48.95 113.45 52.15 108.5 50.2 108.05 47.3 113.05 49.25 116.35 47.3 124.95 50.05 128.3 51.15 154.45 67.35 158.5 69.95 163.1 76.8 M145.15 95.1 L150.4 93.85 159.75 95.55 158.3 98.0 155.0 103.6 150.75 106.05 124.35 121.1 117.35 124.95 117.5 121.75 149.55 104.4 151.75 98.95 146.7 97.45 118.05 104.05 118.15 101.4 124.55 99.9 145.15 95.1 M200.25 95.55 L195.25 97.65 200.25 95.55 M148.8 70.9 L145.15 72.4 115.4 60.2 114.25 54.4 119.3 51.4 147.3 67.1 148.8 70.9 M142.65 68.1 L141.45 65.15 119.55 52.85 115.55 55.2 116.45 59.75 139.8 69.3 142.65 68.1 M117.55 119.65 L117.6 118.25 138.45 107.35 139.9 104.15 136.15 102.55 117.95 106.8 118.0 105.4 140.7 100.15 145.3 102.15 143.5 106.1 117.55 119.65 M159.75 95.55 L151.75 98.95 159.75 95.55 M56.4 42.15 L59.5 37.3 65.05 37.3 68.25 31.55 73.85 40.1 63.45 40.1 64.2 42.15 56.4 42.15 M65.05 37.3 L63.45 40.1 65.05 37.3" fill="#404040" fill-rule="evenodd" stroke="none"/>
    <path d="M180.05 49.35 L180.05 51.15 181.0 51.15 186.9 63.85 188.45 67.1 188.6 67.4 186.45 70.65 184.7 73.3 182.4 76.8 163.1 76.8 158.5 69.95 154.45 67.35 128.3 51.15 137.8 51.15 137.8 49.4 137.75 49.35 148.6 49.35 148.6 51.15 150.0 51.15 150.0 51.1 148.45 45.4 170.15 45.4 171.7 49.35 180.05 49.35 M187.1 77.15 L196.4 92.15 195.9 94.75 195.25 97.65 193.8 104.6 186.75 138.15 184.7 138.75 179.65 140.35 189.25 96.0 181.95 91.85 189.3 87.65 188.4 84.8 185.05 74.4 185.5 74.55 187.1 77.15 M182.95 150.25 L182.95 157.85 181.6 157.85 151.95 157.85 151.95 150.25 121.9 144.45 128.7 144.45 150.5 148.6 151.95 150.25 182.95 150.25 M143.2 173.1 L144.2 174.2 144.2 178.65 125.8 178.65 125.8 174.2 118.45 169.75 120.9 169.75 126.25 173.1 143.2 173.1 M89.4 189.0 L91.45 199.05 84.9 199.05 80.4 179.05 75.7 168.65 72.6 162.3 74.2 162.4 79.1 162.35 82.2 168.65 75.7 168.65 82.2 168.65 83.4 171.0 86.35 177.0 87.35 179.05 80.4 179.05 87.35 179.05 88.4 184.0 89.4 189.0 M66.1 13.6 L79.7 11.55 87.45 10.35 115.3 14.9 90.25 16.35 82.35 12.65 87.45 10.35 82.35 12.65 66.1 13.6 M180.05 51.15 L172.4 51.15 171.7 49.35 172.4 51.15 180.05 51.15 M196.4 92.15 L189.25 96.0 196.4 92.15 M125.5 77.65 Q140.45 84.4 151.05 88.1 L167.65 92.35 172.15 98.0 172.0 99.3 168.8 139.7 152.65 138.35 149.15 138.05 150.75 106.05 155.0 103.6 158.3 98.0 159.75 95.55 150.4 93.85 145.15 95.1 109.3 73.3 116.1 73.3 109.3 73.3 104.85 43.7 104.8 43.55 107.65 44.45 108.05 47.3 108.5 50.2 108.85 52.5 109.15 54.5 110.4 63.05 115.0 64.75 116.1 73.3 125.5 77.65 M172.15 98.0 L158.3 98.0 172.15 98.0 M182.4 76.8 L172.4 51.15 182.4 76.8 M148.6 51.15 L137.8 51.15 148.6 51.15 M100.3 66.8 L109.6 78.05 112.2 81.2 118.55 88.9 118.15 101.4 118.05 104.05 118.0 105.4 117.95 106.8 117.6 118.25 117.55 119.65 117.5 121.75 117.35 124.95 116.85 141.6 98.25 141.6 85.0 88.9 118.55 88.9 85.0 88.9 75.7 78.05 62.4 62.5 89.15 62.5 93.0 62.5 96.85 62.5 100.3 66.8 M82.35 52.85 L84.0 55.2 56.55 55.2 Q57.3 52.3 57.3 48.95 L57.3 48.9 59.65 48.9 68.8 48.9 70.1 52.85 82.35 52.85 M109.6 78.05 L75.7 78.05 109.6 78.05 M105.45 125.65 L97.85 94.3 95.5 94.3 93.15 94.3 102.95 135.45 109.15 135.45 111.05 135.45 111.55 94.3 109.4 94.3 107.25 94.3 107.1 125.65 105.45 125.65 M154.45 67.35 L150.0 51.15 154.45 67.35 M71.2 149.4 L72.65 149.4 73.75 151.6 75.15 154.35 75.55 155.25 75.45 155.25 73.35 155.1 72.45 154.85 71.25 154.1 69.9 152.65 69.1 151.35 71.2 149.4 M144.2 174.2 L125.8 174.2 144.2 174.2" fill="#999999" fill-rule="evenodd" stroke="none"/>
    <path d="M182.95 157.85 Q158.85 162.2 143.2 173.1 L126.25 173.1 Q135.8 162.45 151.95 157.85 135.8 162.45 126.25 173.1 L120.9 169.75 Q130.95 162.55 151.95 157.85 L181.6 157.85 182.95 157.85 M98.55 192.55 L89.4 189.0 88.4 184.0 87.35 179.05 86.35 177.0 83.4 171.0 82.2 168.65 79.1 162.35 74.2 162.4 72.6 162.3 71.1 162.15 69.8 161.95 67.25 161.2 64.5 162.05 62.75 157.85 64.25 159.5 65.6 160.5 67.25 161.2 65.6 160.5 64.25 159.5 62.75 157.85 64.5 162.05 61.15 162.7 57.7 162.9 54.3 162.6 51.4 161.95 50.35 161.6 Q48.1 160.65 46.35 159.1 44.7 157.65 43.45 155.55 42.35 153.7 41.6 151.35 L51.75 151.35 52.0 152.5 Q52.3 153.4 53.1 154.0 L54.25 154.6 Q55.1 155.0 56.3 155.2 L58.35 155.35 59.9 155.4 61.05 155.35 60.6 154.45 Q59.8 153.0 59.35 151.35 L69.1 151.35 69.9 152.65 71.25 154.1 72.45 154.85 73.35 155.1 75.45 155.25 75.55 155.25 75.15 154.35 73.75 151.6 72.65 149.4 75.7 149.4 80.8 154.35 79.1 154.8 77.5 155.1 75.55 155.25 77.5 155.1 79.1 154.8 80.8 154.35 87.55 160.85 96.7 169.75 103.6 169.75 107.55 169.75 107.55 177.95 102.9 185.55 99.3 184.0 102.0 179.45 103.6 176.75 103.6 169.75 103.6 176.75 102.0 179.45 99.3 184.0 102.9 185.55 101.85 187.25 100.8 188.95 98.55 192.55 M35.3 153.9 L28.5 150.95 27.65 147.25 22.75 145.0 20.25 134.45 18.65 127.85 27.95 132.95 30.55 146.55 34.15 148.3 35.3 153.9 M11.2 121.6 L13.15 118.2 9.55 118.2 12.2 114.25 8.6 114.25 11.2 110.6 7.5 110.6 10.4 107.0 6.9 107.0 9.55 103.5 5.95 103.5 9.0 99.45 12.1 99.45 11.2 96.0 13.65 101.5 16.5 101.95 19.65 106.25 26.15 122.65 56.8 122.65 56.9 122.85 56.2 122.85 Q53.35 122.85 51.1 124.65 L49.95 125.7 49.5 126.2 Q48.25 123.55 45.55 122.85 L39.4 122.85 39.0 122.85 Q35.05 122.85 32.3 126.2 30.1 128.9 29.65 132.45 L26.15 129.5 26.15 128.5 26.15 124.9 26.15 122.65 26.15 124.9 26.15 128.5 18.45 125.0 17.6 121.6 16.75 118.2 15.75 114.25 14.9 110.6 14.0 107.05 13.95 107.0 13.15 103.55 13.1 103.5 12.1 99.45 13.1 103.5 13.15 103.55 13.95 107.0 14.0 107.05 14.9 110.6 15.75 114.25 16.75 118.2 17.6 121.6 11.2 121.6 M17.3 74.05 L15.65 72.35 18.95 68.05 11.75 65.75 11.75 59.05 11.75 55.25 11.75 39.8 13.95 39.8 13.95 36.05 17.95 33.9 18.7 29.8 22.75 33.9 23.0 34.15 23.0 39.8 23.05 57.25 23.05 61.0 23.05 69.4 23.05 71.3 17.3 74.05 M65.25 22.5 L67.75 18.5 76.55 18.65 84.45 22.5 65.25 22.5 M188.45 67.1 L191.55 68.95 193.3 73.75 186.45 70.65 193.3 73.75 188.8 75.85 185.5 74.55 184.7 73.3 186.45 70.65 188.6 67.4 188.45 67.1 M116.35 47.3 L113.05 49.25 108.05 47.3 107.65 44.45 116.35 47.3 M108.5 50.2 L113.45 52.15 119.0 48.95 153.35 68.95 155.1 73.75 150.6 75.85 113.35 61.35 112.45 55.7 109.15 54.5 108.85 52.5 114.25 54.4 108.85 52.5 108.5 50.2 M148.8 70.9 L155.1 73.75 148.8 70.9 147.3 67.1 119.3 51.4 114.25 54.4 115.4 60.2 145.15 72.4 148.8 70.9 M117.5 121.75 L117.55 119.65 143.5 106.1 145.3 102.15 140.7 100.15 118.0 105.4 118.05 104.05 146.7 97.45 151.75 98.95 149.55 104.4 117.5 121.75 M59.65 48.9 L56.4 42.15 64.2 42.15 63.45 40.1 73.85 40.1 76.25 43.9 78.9 47.9 82.35 52.85 70.1 52.85 68.8 48.9 59.65 48.9 M64.2 42.15 L64.85 43.9 67.1 43.9 68.8 48.9 67.1 43.9 64.85 43.9 64.2 42.15 M67.1 43.9 L76.25 43.9 67.1 43.9 M13.95 39.8 L15.25 39.8 15.25 55.85 11.75 55.25 15.25 55.85 15.25 39.8 13.95 39.8 M22.75 33.9 L17.95 33.9 22.75 33.9 M15.25 39.8 L23.0 39.8 15.25 39.8 M36.4 105.15 L30.3 94.4 75.6 102.55 83.1 119.6 84.95 123.75 86.85 128.15 88.8 132.55 90.6 136.7 70.3 136.7 68.2 132.55 66.0 128.15 63.8 123.75 61.7 119.65 56.05 108.35 36.4 105.15 M18.95 68.05 L23.05 69.4 18.95 68.05 M11.75 59.05 L23.05 61.0 11.75 59.05 M23.05 57.25 L15.25 55.85 23.05 57.25 M57.0 125.65 Q58.25 126.25 59.35 127.4 L61.65 131.7 61.85 132.6 59.5 132.6 57.15 132.6 55.05 132.6 52.45 132.6 51.4 132.6 Q51.8 130.05 53.4 128.1 L53.75 127.7 Q55.2 126.15 57.0 125.65 M51.6 136.95 L52.45 136.95 55.05 136.95 57.15 136.95 59.5 136.95 61.7 136.95 Q61.15 139.2 59.75 141.0 L58.3 142.35 57.1 143.1 Q55.0 142.6 53.4 140.7 52.05 139.05 51.6 136.95 M39.85 125.65 Q41.3 126.35 42.55 127.85 L43.0 128.4 Q44.3 130.3 44.65 132.6 L42.5 132.6 40.4 132.6 38.15 132.6 35.55 132.6 34.2 132.6 Q34.6 130.05 36.25 128.1 37.75 126.15 39.85 125.65 M44.5 136.95 Q44.0 139.2 42.55 141.0 L41.1 142.35 39.85 143.1 Q37.8 142.6 36.25 140.7 34.85 139.05 34.4 136.95 L35.55 136.95 38.15 136.95 40.4 136.95 42.5 136.95 44.5 136.95 M11.2 110.6 L14.9 110.6 11.2 110.6 M13.95 107.0 L10.4 107.0 13.95 107.0 M13.1 103.5 L9.55 103.5 13.1 103.5 M15.75 114.25 L12.2 114.25 15.75 114.25 M16.75 118.2 L13.15 118.2 16.75 118.2 M20.25 134.45 L25.1 136.4 27.65 147.25 25.1 136.4 20.25 134.45 M19.65 106.25 L23.2 123.35 26.15 124.9 23.2 123.35 19.65 106.25 M62.75 157.85 L62.75 157.8 61.05 155.35 62.75 157.8 71.25 154.1 62.75 157.8 62.75 157.85 M73.35 155.1 L69.8 161.95 73.35 155.1 M72.45 154.85 L65.6 160.5 72.45 154.85 M79.1 154.8 L82.95 161.9 79.1 162.35 77.5 155.1 79.1 162.35 82.95 161.9 79.1 154.8 M74.2 162.4 L75.45 155.25 74.2 162.4 M69.9 152.65 L60.6 154.45 69.9 152.65 M54.3 162.6 L56.3 155.2 54.3 162.6 M57.7 162.9 L58.35 155.35 57.7 162.9 M43.45 155.55 L52.0 152.5 43.45 155.55 M46.35 159.1 L53.1 154.0 46.35 159.1 M50.35 161.6 L54.25 154.6 50.35 161.6 M59.9 155.4 L61.15 162.7 59.9 155.4 M104.35 149.4 L107.7 149.4 113.6 161.85 111.1 162.55 104.35 149.4 M108.9 149.4 L111.35 147.05 118.05 160.75 114.9 161.55 108.9 149.4 M96.95 149.4 L105.7 164.2 103.1 165.05 92.7 150.8 96.95 149.4 M98.8 149.4 L102.45 149.4 109.8 162.95 107.2 163.7 98.8 149.4 M97.45 167.1 L85.75 153.7 90.7 151.6 101.45 165.65 97.45 167.1 M91.0 172.9 Q90.9 171.3 89.8 170.2 88.6 169.05 86.9 169.05 L86.5 169.05 Q85.1 169.2 84.05 170.2 L83.4 171.0 84.05 170.2 Q85.1 169.2 86.5 169.05 L86.5 161.2 82.95 161.9 86.5 161.2 86.5 169.05 86.9 169.05 Q88.6 169.05 89.8 170.2 90.9 171.3 91.0 172.9 L97.15 172.9 102.0 179.45 97.15 172.9 91.0 172.9 91.0 173.05 Q91.0 174.7 89.8 175.85 88.6 177.05 86.9 177.05 L86.35 177.0 86.9 177.05 Q88.6 177.05 89.8 175.85 91.0 174.7 91.0 173.05 L91.0 172.9 M86.5 161.2 L87.55 160.85 86.5 161.2 M99.3 184.0 L87.35 179.05 99.3 184.0 M100.8 188.95 L88.4 184.0 100.8 188.95 M63.8 123.75 L84.95 123.75 63.8 123.75 M83.1 119.6 L61.7 119.65 83.1 119.6 M68.2 132.55 L88.8 132.55 68.2 132.55 M66.0 128.15 L86.85 128.15 66.0 128.15 M145.3 102.15 L151.75 98.95 145.3 102.15" fill="#333333" fill-rule="evenodd" stroke="none"/>
    <path d="M101.2 11.15 L125.85 14.9 149.65 25.7 157.9 29.45 162.3 35.2 169.1 35.2 180.05 49.35 171.7 49.35 170.15 45.4 162.3 35.2 170.15 45.4 148.45 45.4 136.15 29.45 130.8 25.7 149.65 25.7 130.8 25.7 115.3 14.9 87.45 10.35 88.4 10.35 92.1 10.35 95.7 10.35 101.2 11.15 M182.25 148.6 L182.95 150.25 151.95 150.25 150.5 148.6 182.25 148.6 M125.85 14.9 L115.3 14.9 125.85 14.9 M126.85 35.2 L137.7 35.2 148.6 49.35 137.75 49.35 126.85 35.2 M157.9 29.45 L136.15 29.45 157.9 29.45" fill="#aaaaaa" fill-rule="evenodd" stroke="none"/>
    <path d="M108.8 37.15 L110.45 39.4 107.05 41.9 104.8 43.55 104.8 43.7 96.45 43.7 108.8 37.15" fill="#606060" fill-rule="evenodd" stroke="none"/>
    <path d="M109.8 202.0 L100.95 202.0 96.35 196.15 98.55 192.55 100.8 188.95 101.85 187.25 114.25 195.55 101.85 187.25 102.9 185.55 107.55 177.95 107.55 169.75 118.45 169.75 125.8 174.2 125.8 178.65 114.25 195.55 109.8 202.0 M84.9 199.05 L41.25 184.4 38.65 171.1 36.85 161.85 35.3 153.9 34.15 148.3 33.0 143.3 Q35.55 145.9 39.0 145.9 L39.45 145.9 39.45 148.95 41.6 151.35 Q42.35 153.7 43.45 155.55 44.7 157.65 46.35 159.1 48.1 160.65 50.35 161.6 L51.4 161.95 54.3 162.6 57.7 162.9 61.15 162.7 64.5 162.05 67.25 161.2 69.8 161.95 71.1 162.15 72.6 162.3 75.7 168.65 80.4 179.05 38.65 171.1 80.4 179.05 84.9 199.05 M10.0 93.25 L8.8 90.5 9.7 86.1 11.6 76.8 17.3 74.05 23.05 71.3 23.05 69.4 23.05 61.0 23.05 57.25 23.0 39.8 23.0 34.15 22.75 33.9 18.7 29.8 9.3 20.35 0.0 10.9 0.0 0.0 9.3 7.45 42.3 33.6 42.5 33.75 Q43.95 34.9 45.2 36.7 48.85 41.75 48.85 48.95 48.85 56.15 45.2 61.2 43.15 64.05 40.7 65.3 L39.5 65.85 37.05 66.3 36.45 66.3 Q31.35 66.3 27.7 61.2 24.05 56.15 24.05 48.95 24.05 42.7 26.85 38.0 L23.0 34.15 26.85 38.0 Q24.05 42.7 24.05 48.95 24.05 56.15 27.7 61.2 31.35 66.3 36.45 66.3 L37.05 66.3 35.25 66.65 50.85 64.3 Q52.35 63.05 53.7 61.2 55.6 58.5 56.55 55.2 L84.0 55.2 82.35 52.85 78.9 47.9 76.25 43.9 73.85 40.1 68.25 31.55 68.1 31.25 68.0 31.15 56.8 31.15 54.25 37.45 53.7 36.7 51.8 34.5 51.75 34.4 44.15 28.45 36.6 22.5 65.25 22.5 84.45 22.5 90.25 16.35 112.5 26.85 115.85 30.7 128.55 30.7 130.8 25.7 136.15 29.45 148.45 45.4 150.0 51.1 150.0 51.15 148.6 51.15 148.6 49.35 137.7 35.2 126.85 35.2 116.15 35.2 110.45 39.4 116.15 35.2 126.85 35.2 137.75 49.35 137.8 49.4 137.8 51.15 128.3 51.15 124.95 50.05 116.35 47.3 107.65 44.45 104.8 43.55 107.05 41.9 110.45 39.4 108.8 37.15 105.6 32.75 91.35 25.85 84.45 22.5 91.35 25.85 105.6 32.75 108.8 37.15 96.45 43.7 87.6 32.45 83.25 40.2 94.45 54.6 83.25 40.2 87.6 32.45 96.45 43.7 94.45 54.6 93.0 62.5 89.15 62.5 84.0 55.2 89.15 62.5 62.4 62.5 75.7 78.05 78.75 97.1 57.85 92.6 49.8 83.5 19.4 78.2 17.15 87.4 9.7 86.1 17.15 87.4 19.4 78.2 11.6 76.8 19.4 78.2 49.8 83.5 57.85 92.6 78.75 97.1 75.7 78.05 85.0 88.9 98.25 141.6 92.7 149.4 75.7 149.4 92.7 149.4 96.95 149.4 92.7 150.8 103.1 165.05 105.7 164.2 96.95 149.4 98.8 149.4 107.2 163.7 109.8 162.95 102.45 149.4 104.35 149.4 111.1 162.55 113.6 161.85 107.7 149.4 108.9 149.4 114.9 161.55 118.05 160.75 111.35 147.05 115.25 143.2 116.85 141.6 117.35 124.95 124.35 121.1 128.9 124.2 124.35 121.1 150.75 106.05 149.15 138.05 134.25 127.85 128.9 124.2 121.9 144.45 151.95 150.25 151.95 157.85 Q126.55 159.25 96.7 169.75 L87.55 160.85 80.8 154.35 75.7 149.4 72.65 149.4 71.2 149.4 71.0 149.05 67.65 142.8 65.2 138.25 61.65 131.7 59.35 127.4 56.9 122.85 56.8 122.65 26.15 122.65 19.65 106.25 16.5 101.95 13.65 101.5 11.2 96.0 10.0 93.25 M79.7 11.55 L79.05 10.9 79.05 0.0 88.4 7.45 92.1 10.35 88.4 10.35 87.45 10.35 79.7 11.55 M181.95 91.85 L189.25 96.0 179.65 140.35 175.55 137.5 183.9 99.35 184.1 98.5 181.95 91.85 M109.3 73.3 L145.15 95.1 124.55 99.9 124.5 88.1 112.2 81.2 124.5 88.1 124.55 99.9 118.15 101.4 118.55 88.9 112.2 81.2 109.6 78.05 100.3 66.8 104.8 43.7 104.85 43.7 109.3 73.3 M88.4 7.45 L88.4 10.35 88.4 7.45 M91.35 25.85 L87.6 32.45 91.35 25.85 M107.05 41.9 L118.7 41.9 124.95 50.05 118.7 41.9 107.05 41.9 M95.5 94.3 L97.85 94.3 105.45 125.65 103.8 125.65 95.5 94.3 M109.4 94.3 L111.55 94.3 111.05 135.45 109.15 135.45 109.4 94.3 M9.3 20.35 L9.3 7.45 9.3 20.35 M44.15 28.45 L66.25 28.45 68.0 31.15 66.25 28.45 44.15 28.45 M83.25 40.2 L78.9 47.9 83.25 40.2 M38.55 37.95 L36.45 37.55 Q35.25 37.55 34.15 38.05 35.25 37.55 36.45 37.55 L38.55 37.95 38.55 61.4 Q40.55 60.6 42.05 58.2 44.4 54.65 44.4 49.65 44.4 44.65 42.05 41.05 40.55 38.7 38.55 37.95 M35.25 66.65 L31.5 67.2 23.05 71.3 31.5 67.2 35.25 66.65 M34.1 61.25 Q35.25 61.8 36.45 61.8 L38.55 61.4 36.45 61.8 Q35.25 61.8 34.1 61.25 L34.15 38.05 Q32.3 38.85 30.85 41.05 28.5 44.65 28.5 49.65 28.5 54.65 30.85 58.2 32.3 60.45 34.1 61.25 M36.4 105.15 L27.8 103.8 21.8 92.85 30.3 94.4 21.8 92.85 27.8 103.8 36.4 105.15 56.05 108.35 61.7 119.65 63.8 123.75 66.0 128.15 68.2 132.55 70.3 136.7 90.6 136.7 88.8 132.55 86.85 128.15 84.95 123.75 83.1 119.6 75.6 102.55 30.3 94.4 36.4 105.15 M8.8 90.5 L13.95 91.45 19.35 102.4 16.5 101.95 19.35 102.4 13.95 91.45 8.8 90.5 M21.8 92.85 L13.95 91.45 21.8 92.85 M62.4 62.5 L50.85 64.3 62.4 62.5 M53.6 148.9 L53.6 145.5 56.2 145.9 56.85 145.9 56.85 149.05 59.35 151.35 Q59.8 153.0 60.6 154.45 L61.05 155.35 59.9 155.4 58.35 155.35 56.3 155.2 Q55.1 155.0 54.25 154.6 L53.1 154.0 Q52.3 153.4 52.0 152.5 L51.75 151.35 53.6 148.9 M19.35 102.4 L27.8 103.8 19.35 102.4 M36.85 161.85 L75.7 168.65 36.85 161.85 M97.45 167.1 L101.45 165.65 90.7 151.6 85.75 153.7 97.45 167.1 M121.9 144.45 L115.25 143.2 121.9 144.45" fill="#666666" fill-rule="evenodd" stroke="none"/>
    <path d="M144.2 178.65 L130.05 195.65 124.7 202.0 109.8 202.0 114.25 195.55 125.8 178.65 144.2 178.65 M130.8 25.7 L128.55 30.7 115.85 30.7 112.5 26.85 90.25 16.35 115.3 14.9 130.8 25.7 M94.45 54.6 L96.45 43.7 104.8 43.7 100.3 66.8 96.85 62.5 93.0 62.5 94.45 54.6 M98.25 141.6 L116.85 141.6 115.25 143.2 111.35 147.05 108.9 149.4 107.7 149.4 104.35 149.4 102.45 149.4 98.8 149.4 96.95 149.4 92.7 149.4 98.25 141.6 M121.9 144.45 L128.9 124.2 134.25 127.85 128.7 144.45 121.9 144.45 M130.05 195.65 L114.25 195.55 130.05 195.65" fill="#777777" fill-rule="evenodd" stroke="none"/>
    <path d="M57.3 48.9 Q57.3 45.25 56.4 42.15 55.6 39.6 54.25 37.45 L56.8 31.15 68.0 31.15 68.1 31.25 68.25 31.55 65.05 37.3 59.5 37.3 56.4 42.15 59.65 48.9 57.3 48.9 M38.55 37.95 Q40.55 38.7 42.05 41.05 44.4 44.65 44.4 49.65 44.4 54.65 42.05 58.2 40.55 60.6 38.55 61.4 L38.55 37.95 M34.1 61.25 Q32.3 60.45 30.85 58.2 28.5 54.65 28.5 49.65 28.5 44.65 30.85 41.05 32.3 38.85 34.15 38.05 L34.1 61.25 M107.55 169.75 L103.6 169.75 96.7 169.75 Q126.55 159.25 151.95 157.85 130.95 162.55 120.9 169.75 L118.45 169.75 107.55 169.75" fill="#444444" fill-rule="evenodd" stroke="none"/>
    <path d="M67.75 18.5 L64.05 18.4 66.1 13.6 82.35 12.65 90.25 16.35 84.45 22.5 76.55 18.65 67.75 18.5 M76.55 18.65 L82.35 12.65 76.55 18.65" fill="#707070" fill-rule="evenodd" stroke="none"/>
    <path d="M185.05 74.4 L188.4 84.8 181.55 84.8 179.2 89.4 169.2 89.4 161.05 84.8 151.05 84.8 148.55 77.0 154.0 79.0 163.75 77.7 163.1 76.8 182.4 76.8 184.7 73.3 185.05 74.4" fill="url(#gradient0)" fill-rule="evenodd" stroke="none"/>
    <path d="M184.7 138.75 L182.25 148.6 150.5 148.6 152.65 138.35 168.8 139.7 172.0 99.3 183.9 99.35 175.55 137.5 179.65 140.35 184.7 138.75" fill="url(#gradient1)" fill-rule="evenodd" stroke="none"/>
    <path d="M0.0 0.0 L7.9 0.0 17.2 7.3 36.6 22.5 44.15 28.45 51.75 34.4 51.8 34.5 53.7 36.7 54.25 37.45 Q55.6 39.6 56.4 42.15 57.3 45.25 57.3 48.9 L57.3 48.95 Q57.3 52.3 56.55 55.2 55.6 58.5 53.7 61.2 52.35 63.05 50.85 64.3 L35.25 66.65 37.05 66.3 39.5 65.85 40.7 65.3 Q43.15 64.05 45.2 61.2 48.85 56.15 48.85 48.95 48.85 41.75 45.2 36.7 43.95 34.9 42.5 33.75 L42.3 33.6 9.3 7.45 17.2 7.3 9.3 7.45 0.0 0.0 M79.05 0.0 L87.0 0.0 96.45 7.45 101.2 11.15 95.7 10.35 92.1 10.35 88.4 7.45 79.05 0.0 M96.45 7.45 L88.4 7.45 96.45 7.45" fill="url(#gradient2)" fill-rule="evenodd" stroke="none"/>
    <path d="M142.65 68.1 L139.8 69.3 116.45 59.75 115.55 55.2 119.55 52.85 141.45 65.15 142.65 68.1" fill="url(#gradient3)" fill-rule="evenodd" stroke="none"/>
    <path d="M148.55 77.0 L151.05 84.8 125.5 77.65 116.1 73.3 115.0 64.75 148.55 77.0" fill="url(#gradient4)" fill-rule="evenodd" stroke="none"/>
    <path d="M105.45 125.65 L107.1 125.65 107.25 94.3 109.4 94.3 109.15 135.45 102.95 135.45 93.15 94.3 95.5 94.3 103.8 125.65 105.45 125.65" fill="url(#gradient5)" fill-rule="evenodd" stroke="none"/>
    <path d="M49.5 126.2 L49.95 125.7 51.1 124.65 Q53.35 122.85 56.2 122.85 L56.9 122.85 59.35 127.4 Q58.25 126.25 57.0 125.65 55.75 125.1 54.35 125.1 L52.05 125.5 50.5 126.3 Q49.65 126.95 48.95 127.85 L47.75 129.65 Q47.1 130.95 46.85 132.45 47.05 130.85 47.6 129.4 48.2 127.9 49.5 126.2 M61.85 132.6 L61.65 131.7 65.2 138.25 Q64.5 140.6 62.95 142.5 60.6 145.4 57.4 145.8 L56.85 145.9 56.2 145.9 53.6 145.5 Q51.4 144.75 49.6 142.65 L49.5 142.5 Q48.3 141.1 47.6 139.35 L47.0 137.1 Q47.25 138.15 47.75 139.1 L48.95 141.0 Q51.2 143.7 54.35 143.7 55.8 143.7 57.1 143.1 L58.3 142.35 59.75 141.0 Q61.15 139.2 61.7 136.95 L62.0 134.4 61.85 132.6" fill="url(#gradient6)" fill-rule="evenodd" stroke="none"/>
    <path d="M46.85 132.45 Q47.1 130.95 47.75 129.65 L48.95 127.85 Q49.65 126.95 50.5 126.3 L52.05 125.5 54.35 125.1 Q55.75 125.1 57.0 125.65 55.2 126.15 53.75 127.7 L53.4 128.1 Q51.8 130.05 51.4 132.6 L51.35 132.9 51.25 134.4 51.4 136.15 51.6 136.95 Q52.05 139.05 53.4 140.7 55.0 142.6 57.1 143.1 55.8 143.7 54.35 143.7 51.2 143.7 48.95 141.0 L47.75 139.1 Q47.25 138.15 47.0 137.1 L46.95 136.95 46.9 136.65 Q46.75 135.55 46.75 134.35 L46.8 132.6 46.85 132.45" fill="url(#gradient7)" fill-rule="evenodd" stroke="none"/>
    <path d="M51.4 132.6 L52.45 132.6 55.05 132.6 57.15 132.6 59.5 132.6 61.85 132.6 62.0 134.4 61.7 136.95 59.5 136.95 57.15 136.95 55.05 136.95 52.45 136.95 51.6 136.95 51.4 136.15 51.25 134.4 51.35 132.9 51.4 132.6 M52.45 132.6 L52.45 136.95 52.45 132.6 M59.5 132.6 L59.5 136.95 59.5 132.6 M55.05 132.6 L55.05 136.95 55.05 132.6 M57.15 132.6 L57.15 136.95 57.15 132.6" fill="url(#gradient8)" fill-rule="evenodd" stroke="none"/>
    <path d="M29.65 132.45 Q30.1 128.9 32.3 126.2 35.05 122.85 39.0 122.85 L39.4 122.85 Q43.1 122.95 45.75 126.2 46.9 127.65 47.6 129.4 47.05 130.85 46.85 132.45 L46.8 132.6 46.75 134.35 Q46.75 135.55 46.9 136.65 L46.95 136.95 47.0 137.1 47.6 139.35 Q46.9 141.1 45.75 142.5 43.1 145.7 39.45 145.9 L39.0 145.9 Q35.55 145.9 33.0 143.3 L32.3 142.5 Q30.2 140.0 29.7 136.65 30.15 139.05 31.7 141.0 34.0 143.7 37.15 143.7 38.6 143.7 39.85 143.1 L41.1 142.35 42.55 141.0 Q44.0 139.2 44.5 136.95 L44.8 134.4 44.65 132.6 Q44.3 130.3 43.0 128.4 L42.55 127.85 Q41.3 126.35 39.85 125.65 38.6 125.1 37.15 125.1 34.0 125.1 31.7 127.85 30.1 129.85 29.65 132.45" fill="url(#gradient9)" fill-rule="evenodd" stroke="none"/>
    <path d="M39.4 122.85 L45.55 122.85 Q48.25 123.55 49.5 126.2 48.2 127.9 47.6 129.4 46.9 127.65 45.75 126.2 43.1 122.95 39.4 122.85 M39.45 145.9 Q43.1 145.7 45.75 142.5 46.9 141.1 47.6 139.35 48.3 141.1 49.5 142.5 L49.6 142.65 Q48.75 144.7 46.35 145.9 L39.45 145.9 M67.65 142.8 Q66.7 144.7 64.35 145.9 L57.4 145.8 Q60.6 145.4 62.95 142.5 64.5 140.6 65.2 138.25 L67.65 142.8" fill="url(#gradient10)" fill-rule="evenodd" stroke="none"/>
    <path d="M34.2 132.6 L35.55 132.6 38.15 132.6 40.4 132.6 42.5 132.6 44.65 132.6 44.8 134.4 44.5 136.95 42.5 136.95 40.4 136.95 38.15 136.95 35.55 136.95 34.4 136.95 34.2 136.15 34.05 134.4 34.15 132.9 34.2 132.6 M42.5 136.95 L42.5 132.6 42.5 136.95 M38.15 132.6 L38.15 136.95 38.15 132.6 M40.4 132.6 L40.4 136.95 40.4 132.6 M35.55 136.95 L35.55 132.6 35.55 136.95" fill="url(#gradient11)" fill-rule="evenodd" stroke="none"/>
    <path d="M39.45 145.9 L46.35 145.9 Q48.75 144.7 49.6 142.65 51.4 144.75 53.6 145.5 L53.6 148.9 39.45 148.95 53.6 148.9 51.75 151.35 41.6 151.35 39.45 148.95 39.45 145.9" fill="url(#gradient12)" fill-rule="evenodd" stroke="none"/>
    <path d="M56.85 145.9 L57.4 145.8 64.35 145.9 Q66.7 144.7 67.65 142.8 L71.0 149.05 71.2 149.4 69.1 151.35 59.35 151.35 56.85 149.05 56.85 145.9 M71.0 149.05 L56.85 149.05 71.0 149.05" fill="url(#gradient13)" fill-rule="evenodd" stroke="none"/>
    <path d="M39.85 125.65 Q37.75 126.15 36.25 128.1 34.6 130.05 34.2 132.6 L34.15 132.9 34.05 134.4 34.2 136.15 34.4 136.95 Q34.85 139.05 36.25 140.7 37.8 142.6 39.85 143.1 38.6 143.7 37.15 143.7 34.0 143.7 31.7 141.0 30.15 139.05 29.7 136.65 29.45 135.6 29.45 134.4 L29.65 132.45 Q30.1 129.85 31.7 127.85 34.0 125.1 37.15 125.1 38.6 125.1 39.85 125.65" fill="url(#gradient14)" fill-rule="evenodd" stroke="none"/>
    <path d="M117.6 118.25 L117.95 106.8 136.15 102.55 139.9 104.15 138.45 107.35 117.6 118.25" fill="url(#gradient15)" fill-rule="evenodd" stroke="none"/>
    <path d="M128.7 144.45 L134.25 127.85 149.15 138.05 152.65 138.35 150.5 148.6 128.7 144.45" fill="url(#gradient16)" fill-rule="evenodd" stroke="none"/>
    <path d="M101.2 11.15 L125.85 14.9 149.65 25.7 157.9 29.45 162.3 35.2 169.1 35.2 180.05 49.35 180.05 51.15 181.0 51.15 186.9 63.85 196.7 69.95 202.0 77.7 192.2 79.0 187.1 77.15 196.4 92.15 195.9 94.75 200.25 95.55 195.55 103.6 193.8 104.6 186.75 138.15 184.7 138.75 182.25 148.6 182.95 150.25 182.95 157.85 Q158.85 162.2 143.2 173.1 L144.2 174.2 144.2 178.65 130.05 195.65 124.7 202.0 M100.95 202.0 L96.35 196.15 98.55 192.55 89.4 189.0 91.45 199.05 84.9 199.05 41.25 184.4 38.65 171.1 36.85 161.85 35.3 153.9 28.5 150.95 27.65 147.25 22.75 145.0 20.25 134.45 18.65 127.85 11.05 124.3 9.95 121.6 11.2 121.6 13.15 118.2 9.55 118.2 12.2 114.25 8.6 114.25 11.2 110.6 7.5 110.6 10.4 107.0 6.9 107.0 9.55 103.5 5.95 103.5 9.0 99.45 5.9 99.45 4.55 96.85 10.0 93.25 8.8 90.5 9.7 86.1 11.6 76.8 17.3 74.05 15.65 72.35 18.95 68.05 11.75 65.75 11.75 59.05 11.75 55.25 11.75 39.8 13.95 39.8 13.95 36.05 17.95 33.9 18.7 29.8 9.3 20.35 0.0 10.9 0.0 0.0 7.9 0.0 17.2 7.3 36.6 22.5 65.25 22.5 67.75 18.5 64.05 18.4 66.1 13.6 79.7 11.55 79.05 10.9 79.05 0.0 87.0 0.0 96.45 7.45 101.2 11.15 95.7 10.35 92.1 10.35 88.4 10.35 87.45 10.35 115.3 14.9 125.85 14.9 M170.15 45.4 L162.3 35.2 M170.15 45.4 L171.7 49.35 180.05 49.35 M186.9 63.85 L188.45 67.1 191.55 68.95 193.3 73.75 202.0 77.7 M188.45 67.1 L188.6 67.4 186.45 70.65 193.3 73.75 188.8 75.85 185.5 74.55 187.1 77.15 M186.45 70.65 L184.7 73.3 185.5 74.55 185.05 74.4 188.4 84.8 189.3 87.65 181.95 91.85 189.25 96.0 196.4 92.15 M171.7 49.35 L172.4 51.15 180.05 51.15 M125.5 77.65 Q140.45 84.4 151.05 88.1 L167.65 92.35 172.15 98.0 172.0 99.3 183.9 99.35 184.1 98.5 181.95 91.85 M151.05 84.8 L161.05 84.8 169.2 89.4 179.2 89.4 181.55 84.8 188.4 84.8 M163.75 77.7 L163.1 76.8 158.5 69.95 154.45 67.35 128.3 51.15 124.95 50.05 116.35 47.3 113.05 49.25 108.05 47.3 108.5 50.2 113.45 52.15 119.0 48.95 153.35 68.95 155.1 73.75 163.75 77.7 154.0 79.0 148.55 77.0 151.05 84.8 125.5 77.65 116.1 73.3 109.3 73.3 145.15 95.1 150.4 93.85 159.75 95.55 158.3 98.0 172.15 98.0 M195.9 94.75 L195.25 97.65 200.25 95.55 M184.7 73.3 L182.4 76.8 163.1 76.8 M172.4 51.15 L182.4 76.8 M185.05 74.4 L184.7 73.3 M152.65 138.35 L168.8 139.7 172.0 99.3 M179.65 140.35 L175.55 137.5 183.9 99.35 M184.7 138.75 L179.65 140.35 189.25 96.0 M151.95 157.85 L181.6 157.85 182.95 157.85 M195.25 97.65 L193.8 104.6 M126.85 35.2 L137.7 35.2 148.6 49.35 148.6 51.15 150.0 51.15 150.0 51.1 148.45 45.4 136.15 29.45 130.8 25.7 128.55 30.7 115.85 30.7 112.5 26.85 90.25 16.35 84.45 22.5 91.35 25.85 105.6 32.75 108.8 37.15 110.45 39.4 116.15 35.2 126.85 35.2 137.75 49.35 148.6 49.35 M137.75 49.35 L137.8 49.4 137.8 51.15 148.6 51.15 M149.65 25.7 L130.8 25.7 115.3 14.9 90.25 16.35 82.35 12.65 76.55 18.65 84.45 22.5 65.25 22.5 M136.15 29.45 L157.9 29.45 M88.4 10.35 L88.4 7.45 79.05 0.0 M88.4 7.45 L92.1 10.35 M88.4 7.45 L96.45 7.45 M87.45 10.35 L82.35 12.65 66.1 13.6 M96.45 43.7 L87.6 32.45 83.25 40.2 94.45 54.6 96.45 43.7 108.8 37.15 M87.6 32.45 L91.35 25.85 M104.8 43.55 L107.05 41.9 110.45 39.4 M107.65 44.45 L108.05 47.3 M104.85 43.7 L104.8 43.7 100.3 66.8 109.6 78.05 112.2 81.2 124.5 88.1 124.55 99.9 145.15 95.1 M107.65 44.45 L104.8 43.55 104.85 43.7 109.3 73.3 M104.8 43.7 L104.8 43.55 M116.35 47.3 L107.65 44.45 M124.95 50.05 L118.7 41.9 107.05 41.9 M96.45 43.7 L104.8 43.7 M109.15 54.5 L112.45 55.7 113.35 61.35 150.6 75.85 155.1 73.75 148.8 70.9 145.15 72.4 115.4 60.2 114.25 54.4 108.85 52.5 109.15 54.5 110.4 63.05 115.0 64.75 148.55 77.0 M114.25 54.4 L119.3 51.4 147.3 67.1 148.8 70.9 M142.65 68.1 L139.8 69.3 116.45 59.75 115.55 55.2 119.55 52.85 141.45 65.15 142.65 68.1 M108.85 52.5 L108.5 50.2 M116.1 73.3 L115.0 64.75 M89.15 62.5 L93.0 62.5 94.45 54.6 M93.0 62.5 L96.85 62.5 100.3 66.8 M82.35 52.85 L84.0 55.2 89.15 62.5 62.4 62.5 75.7 78.05 109.6 78.05 M95.5 94.3 L97.85 94.3 105.45 125.65 107.1 125.65 107.25 94.3 109.4 94.3 111.55 94.3 111.05 135.45 109.15 135.45 102.95 135.45 93.15 94.3 95.5 94.3 103.8 125.65 105.45 125.65 M112.2 81.2 L118.55 88.9 118.15 101.4 124.55 99.9 M118.55 88.9 L85.0 88.9 98.25 141.6 116.85 141.6 117.35 124.95 117.5 121.75 117.55 119.65 117.6 118.25 117.95 106.8 118.0 105.4 118.05 104.05 118.15 101.4 M150.0 51.15 L154.45 67.35 M137.8 51.15 L128.3 51.15 M118.05 104.05 L146.7 97.45 151.75 98.95 159.75 95.55 M76.55 18.65 L67.75 18.5 M54.25 37.45 L53.7 36.7 51.8 34.5 51.75 34.4 44.15 28.45 36.6 22.5 M37.05 66.3 L39.5 65.85 40.7 65.3 Q43.15 64.05 45.2 61.2 48.85 56.15 48.85 48.95 48.85 41.75 45.2 36.7 43.95 34.9 42.5 33.75 L42.3 33.6 9.3 7.45 9.3 20.35 M56.55 55.2 Q57.3 52.3 57.3 48.95 L57.3 48.9 Q57.3 45.25 56.4 42.15 55.6 39.6 54.25 37.45 L56.8 31.15 68.0 31.15 66.25 28.45 44.15 28.45 M56.4 42.15 L59.5 37.3 65.05 37.3 68.25 31.55 68.1 31.25 68.0 31.15 M59.65 48.9 L56.4 42.15 64.2 42.15 63.45 40.1 65.05 37.3 M57.3 48.9 L59.65 48.9 68.8 48.9 67.1 43.9 64.85 43.9 64.2 42.15 M73.85 40.1 L76.25 43.9 78.9 47.9 83.25 40.2 M76.25 43.9 L67.1 43.9 M63.45 40.1 L73.85 40.1 68.25 31.55 M9.3 7.45 L17.2 7.3 M9.3 7.45 L0.0 0.0 M11.75 55.25 L15.25 55.85 15.25 39.8 13.95 39.8 M23.0 34.15 L26.85 38.0 Q24.05 42.7 24.05 48.95 24.05 56.15 27.7 61.2 31.35 66.3 36.45 66.3 L37.05 66.3 35.25 66.65 50.85 64.3 Q52.35 63.05 53.7 61.2 55.6 58.5 56.55 55.2 L84.0 55.2 M18.7 29.8 L22.75 33.9 23.0 34.15 23.0 39.8 23.05 57.25 23.05 61.0 23.05 69.4 23.05 71.3 31.5 67.2 35.25 66.65 M34.15 38.05 Q35.25 37.55 36.45 37.55 L38.55 37.95 Q40.55 38.7 42.05 41.05 44.4 44.65 44.4 49.65 44.4 54.65 42.05 58.2 40.55 60.6 38.55 61.4 L36.45 61.8 Q35.25 61.8 34.1 61.25 32.3 60.45 30.85 58.2 28.5 54.65 28.5 49.65 28.5 44.65 30.85 41.05 32.3 38.85 34.15 38.05 L34.1 61.25 M23.0 39.8 L15.25 39.8 M17.95 33.9 L22.75 33.9 M9.7 86.1 L17.15 87.4 19.4 78.2 11.6 76.8 M11.2 96.0 L10.0 93.25 M16.5 101.95 L19.35 102.4 13.95 91.45 8.8 90.5 M30.3 94.4 L21.8 92.85 27.8 103.8 36.4 105.15 30.3 94.4 75.6 102.55 83.1 119.6 84.95 123.75 86.85 128.15 88.8 132.55 90.6 136.7 70.3 136.7 68.2 132.55 66.0 128.15 63.8 123.75 61.7 119.65 56.05 108.35 36.4 105.15 M13.95 91.45 L21.8 92.85 M23.05 69.4 L18.95 68.05 M17.3 74.05 L23.05 71.3 M15.25 55.85 L23.05 57.25 M23.05 61.0 L11.75 59.05 M75.7 78.05 L78.75 97.1 57.85 92.6 49.8 83.5 19.4 78.2 M50.85 64.3 L62.4 62.5 M38.55 37.95 L38.55 61.4 M68.8 48.9 L70.1 52.85 82.35 52.85 78.9 47.9 M49.5 126.2 L49.95 125.7 51.1 124.65 Q53.35 122.85 56.2 122.85 L56.9 122.85 56.8 122.65 26.15 122.65 26.15 124.9 26.15 128.5 26.15 129.5 29.65 132.45 Q30.1 128.9 32.3 126.2 35.05 122.85 39.0 122.85 L39.4 122.85 45.55 122.85 Q48.25 123.55 49.5 126.2 48.2 127.9 47.6 129.4 47.05 130.85 46.85 132.45 47.1 130.95 47.75 129.65 L48.95 127.85 Q49.65 126.95 50.5 126.3 L52.05 125.5 54.35 125.1 Q55.75 125.1 57.0 125.65 58.25 126.25 59.35 127.4 L56.9 122.85 M57.0 125.65 Q55.2 126.15 53.75 127.7 L53.4 128.1 Q51.8 130.05 51.4 132.6 L52.45 132.6 55.05 132.6 57.15 132.6 59.5 132.6 61.85 132.6 61.65 131.7 59.35 127.4 M51.4 132.6 L51.35 132.9 51.25 134.4 51.4 136.15 51.6 136.95 52.45 136.95 52.45 132.6 M47.6 129.4 Q46.9 127.65 45.75 126.2 43.1 122.95 39.4 122.85 M44.65 132.6 Q44.3 130.3 43.0 128.4 L42.55 127.85 Q41.3 126.35 39.85 125.65 37.75 126.15 36.25 128.1 34.6 130.05 34.2 132.6 L35.55 132.6 38.15 132.6 40.4 132.6 42.5 132.6 44.65 132.6 44.8 134.4 44.5 136.95 Q44.0 139.2 42.55 141.0 L41.1 142.35 39.85 143.1 Q38.6 143.7 37.15 143.7 34.0 143.7 31.7 141.0 30.15 139.05 29.7 136.65 30.2 140.0 32.3 142.5 L33.0 143.3 Q35.55 145.9 39.0 145.9 L39.45 145.9 Q43.1 145.7 45.75 142.5 46.9 141.1 47.6 139.35 L47.0 137.1 46.95 136.95 46.9 136.65 Q46.75 135.55 46.75 134.35 L46.8 132.6 46.85 132.45 M57.1 143.1 Q55.8 143.7 54.35 143.7 51.2 143.7 48.95 141.0 L47.75 139.1 Q47.25 138.15 47.0 137.1 M44.5 136.95 L42.5 136.95 40.4 136.95 38.15 136.95 35.55 136.95 34.4 136.95 Q34.85 139.05 36.25 140.7 37.8 142.6 39.85 143.1 M49.6 142.65 L49.5 142.5 Q48.3 141.1 47.6 139.35 M49.6 142.65 Q48.75 144.7 46.35 145.9 L39.45 145.9 39.45 148.95 53.6 148.9 53.6 145.5 Q51.4 144.75 49.6 142.65 M57.15 136.95 L59.5 136.95 59.5 132.6 M51.6 136.95 Q52.05 139.05 53.4 140.7 55.0 142.6 57.1 143.1 L58.3 142.35 59.75 141.0 Q61.15 139.2 61.7 136.95 L59.5 136.95 M52.45 136.95 L55.05 136.95 55.05 132.6 M57.4 145.8 L56.85 145.9 56.85 149.05 71.0 149.05 67.65 142.8 Q66.7 144.7 64.35 145.9 L57.4 145.8 Q60.6 145.4 62.95 142.5 64.5 140.6 65.2 138.25 L61.65 131.7 M56.85 145.9 L56.2 145.9 53.6 145.5 M55.05 136.95 L57.15 136.95 57.15 132.6 M42.5 132.6 L42.5 136.95 M61.85 132.6 L62.0 134.4 61.7 136.95 M67.65 142.8 L65.2 138.25 M12.1 99.45 L13.1 103.5 13.15 103.55 13.95 107.0 14.0 107.05 14.9 110.6 15.75 114.25 16.75 118.2 17.6 121.6 18.45 125.0 26.15 128.5 M10.4 107.0 L13.95 107.0 M14.9 110.6 L11.2 110.6 M19.65 106.25 L16.5 101.95 13.65 101.5 11.2 96.0 12.1 99.45 9.0 99.45 M11.2 121.6 L17.6 121.6 M13.15 118.2 L16.75 118.2 M12.2 114.25 L15.75 114.25 M9.55 103.5 L13.1 103.5 M39.85 125.65 Q38.6 125.1 37.15 125.1 34.0 125.1 31.7 127.85 30.1 129.85 29.65 132.45 L29.45 134.4 Q29.45 135.6 29.7 136.65 M34.4 136.95 L34.2 136.15 34.05 134.4 34.15 132.9 34.2 132.6 M27.65 147.25 L25.1 136.4 20.25 134.45 M34.15 148.3 L30.55 146.55 27.95 132.95 18.65 127.85 M33.0 143.3 L34.15 148.3 35.3 153.9 M35.55 132.6 L35.55 136.95 M40.4 136.95 L40.4 132.6 M38.15 136.95 L38.15 132.6 M19.65 106.25 L26.15 122.65 M26.15 124.9 L23.2 123.35 19.65 106.25 M27.8 103.8 L19.35 102.4 M71.0 149.05 L71.2 149.4 72.65 149.4 75.7 149.4 92.7 149.4 98.25 141.6 M72.65 149.4 L73.75 151.6 75.15 154.35 75.55 155.25 77.5 155.1 79.1 154.8 80.8 154.35 75.7 149.4 M69.1 151.35 L69.9 152.65 71.25 154.1 72.45 154.85 73.35 155.1 75.45 155.25 75.55 155.25 M67.25 161.2 L65.6 160.5 64.25 159.5 62.75 157.85 64.5 162.05 67.25 161.2 69.8 161.95 73.35 155.1 M61.05 155.35 L62.75 157.8 71.25 154.1 M62.75 157.8 L62.75 157.85 M64.5 162.05 L61.15 162.7 57.7 162.9 54.3 162.6 51.4 161.95 50.35 161.6 Q48.1 160.65 46.35 159.1 44.7 157.65 43.45 155.55 42.35 153.7 41.6 151.35 L39.45 148.95 M72.6 162.3 L75.7 168.65 82.2 168.65 79.1 162.35 74.2 162.4 72.6 162.3 71.1 162.15 69.8 161.95 M75.45 155.25 L74.2 162.4 M77.5 155.1 L79.1 162.35 82.95 161.9 79.1 154.8 M65.6 160.5 L72.45 154.85 M71.2 149.4 L69.1 151.35 59.35 151.35 Q59.8 153.0 60.6 154.45 L69.9 152.65 M59.35 151.35 L56.85 149.05 M51.75 151.35 L52.0 152.5 Q52.3 153.4 53.1 154.0 L54.25 154.6 Q55.1 155.0 56.3 155.2 L58.35 155.35 59.9 155.4 61.05 155.35 60.6 154.45 M53.6 148.9 L51.75 151.35 41.6 151.35 M54.25 154.6 L50.35 161.6 M53.1 154.0 L46.35 159.1 M52.0 152.5 L43.45 155.55 M58.35 155.35 L57.7 162.9 M56.3 155.2 L54.3 162.6 M75.7 168.65 L80.4 179.05 87.35 179.05 86.35 177.0 83.4 171.0 82.2 168.65 M61.15 162.7 L59.9 155.4 M80.4 179.05 L38.65 171.1 M75.7 168.65 L36.85 161.85 M150.75 106.05 L155.0 103.6 158.3 98.0 M117.55 119.65 L143.5 106.1 145.3 102.15 140.7 100.15 118.0 105.4 M117.95 106.8 L136.15 102.55 139.9 104.15 138.45 107.35 117.6 118.25 M121.9 144.45 L128.9 124.2 124.35 121.1 117.35 124.95 M134.25 127.85 L128.7 144.45 150.5 148.6 152.65 138.35 149.15 138.05 134.25 127.85 128.9 124.2 M128.7 144.45 L121.9 144.45 151.95 150.25 150.5 148.6 182.25 148.6 M124.35 121.1 L150.75 106.05 149.15 138.05 M111.35 147.05 L115.25 143.2 116.85 141.6 M102.45 149.4 L104.35 149.4 107.7 149.4 108.9 149.4 111.35 147.05 118.05 160.75 114.9 161.55 108.9 149.4 M107.55 169.75 L103.6 169.75 103.6 176.75 102.0 179.45 99.3 184.0 102.9 185.55 107.55 177.95 107.55 169.75 118.45 169.75 120.9 169.75 Q130.95 162.55 151.95 157.85 126.55 159.25 96.7 169.75 L103.6 169.75 M96.95 149.4 L92.7 150.8 103.1 165.05 105.7 164.2 96.95 149.4 98.8 149.4 102.45 149.4 109.8 162.95 107.2 163.7 98.8 149.4 M107.7 149.4 L113.6 161.85 111.1 162.55 104.35 149.4 M92.7 149.4 L96.95 149.4 M97.45 167.1 L85.75 153.7 90.7 151.6 101.45 165.65 97.45 167.1 M83.4 171.0 L84.05 170.2 Q85.1 169.2 86.5 169.05 L86.5 161.2 82.95 161.9 M102.0 179.45 L97.15 172.9 91.0 172.9 91.0 173.05 Q91.0 174.7 89.8 175.85 88.6 177.05 86.9 177.05 L86.35 177.0 M86.5 169.05 L86.9 169.05 Q88.6 169.05 89.8 170.2 90.9 171.3 91.0 172.9 M96.7 169.75 L87.55 160.85 86.5 161.2 M89.4 189.0 L88.4 184.0 87.35 179.05 99.3 184.0 M101.85 187.25 L100.8 188.95 98.55 192.55 M88.4 184.0 L100.8 188.95 M114.25 195.55 L101.85 187.25 102.9 185.55 M151.95 150.25 L151.95 157.85 Q135.8 162.45 126.25 173.1 L143.2 173.1 M125.8 178.65 L125.8 174.2 118.45 169.75 M144.2 178.65 L125.8 178.65 114.25 195.55 130.05 195.65 M125.8 174.2 L144.2 174.2 M151.75 98.95 L149.55 104.4 117.5 121.75 M126.25 173.1 L120.9 169.75 M115.25 143.2 L121.9 144.45 M61.7 119.65 L83.1 119.6 M84.95 123.75 L63.8 123.75 M80.8 154.35 L87.55 160.85 M86.85 128.15 L66.0 128.15 M88.8 132.55 L68.2 132.55 M85.0 88.9 L75.7 78.05 M87.45 10.35 L79.7 11.55 M109.4 94.3 L109.15 135.45 M151.75 98.95 L145.3 102.15 M84.9 199.05 L80.4 179.05 M109.8 202.0 L114.25 195.55 M182.95 150.25 L151.95 150.25 M148.45 45.4 L170.15 45.4" fill="none" stroke="#000000" stroke-width="0.7" stroke-opacity="0.4"/>
  </g>
  <defs>
    <linearGradient gradientTransform="matrix(0.0243, 0.0, 0.0, 0.0098, 168.45, 81.3)" gradientUnits="userSpaceOnUse" id="gradient0" spreadMethod="pad" x1="-819.2" x2="819.2">
      <stop offset="0.0" stop-color="#ff0000"/>
      <stop offset="1.0" stop-color="#b40000"/>
    </linearGradient>
    <linearGradient gradientTransform="matrix(0.021, 0.0, 0.0, 0.0311, 167.4, 124.8)" gradientUnits="userSpaceOnUse" id="gradient1" spreadMethod="pad" x1="-819.2" x2="819.2">
      <stop offset="0.0" stop-color="#ff0000"/>
      <stop offset="1.0" stop-color="#b40000"/>
    </linearGradient>
    <linearGradient gradientTransform="matrix(0.0, 0.0414, -0.0412, 0.0, 28.6, 33.3)" gradientUnits="userSpaceOnUse" id="gradient2" spreadMethod="pad" x1="-819.2" x2="819.2">
      <stop offset="0.0" stop-color="#aaaaaa"/>
      <stop offset="0.8" stop-color="#888888"/>
      <stop offset="1.0" stop-color="#444444"/>
    </linearGradient>
    <linearGradient gradientTransform="matrix(0.0165, 0.0, 0.0, 0.01, 129.05, 61.05)" gradientUnits="userSpaceOnUse" id="gradient3" spreadMethod="pad" x1="-819.2" x2="819.2">
      <stop offset="0.0196078431372549" stop-color="#bb0000"/>
      <stop offset="1.0" stop-color="#ff0000"/>
    </linearGradient>
    <linearGradient gradientTransform="matrix(0.022, 0.0, 0.0, 0.0123, 133.0, 74.75)" gradientUnits="userSpaceOnUse" id="gradient4" spreadMethod="pad" x1="-819.2" x2="819.2">
      <stop offset="0.0" stop-color="#ff0000"/>
      <stop offset="1.0" stop-color="#b40000"/>
    </linearGradient>
    <linearGradient gradientTransform="matrix(0.0, 0.0263, -0.0255, 0.0, 102.3, 114.85)" gradientUnits="userSpaceOnUse" id="gradient5" spreadMethod="pad" x1="-819.2" x2="819.2">
      <stop offset="0.0" stop-color="#ff0000"/>
      <stop offset="1.0" stop-color="#b40000"/>
    </linearGradient>
    <radialGradient cx="0" cy="0" gradientTransform="matrix(0.0232, 0.0, 0.0, 0.0229, 59.45, 127.05)" gradientUnits="userSpaceOnUse" id="gradient6" r="819.2" spreadMethod="pad">
      <stop offset="0.0" stop-color="#888888"/>
      <stop offset="1.0" stop-color="#444444"/>
    </radialGradient>
    <linearGradient gradientTransform="matrix(0.0, 0.0101, -0.0115, 0.0, 51.9, 134.4)" gradientUnits="userSpaceOnUse" id="gradient7" spreadMethod="pad" x1="-819.2" x2="819.2">
      <stop offset="0.0" stop-color="#444444"/>
      <stop offset="1.0" stop-color="#888888"/>
    </linearGradient>
    <radialGradient cx="0" cy="0" gradientTransform="matrix(0.0071, 0.0, 0.0, 0.007, 56.6, 134.75)" gradientUnits="userSpaceOnUse" id="gradient8" r="819.2" spreadMethod="pad">
      <stop offset="0.0" stop-color="#ff3300"/>
      <stop offset="1.0" stop-color="#ff0000"/>
    </radialGradient>
    <radialGradient cx="0" cy="0" gradientTransform="matrix(0.0268, 0.0, 0.0, 0.0264, 43.4, 124.8)" gradientUnits="userSpaceOnUse" id="gradient9" r="819.2" spreadMethod="pad">
      <stop offset="0.0" stop-color="#888888"/>
      <stop offset="1.0" stop-color="#444444"/>
    </radialGradient>
    <linearGradient gradientTransform="matrix(0.0, 0.0141, -0.004, 0.0, 44.8, 134.55)" gradientUnits="userSpaceOnUse" id="gradient10" spreadMethod="pad" x1="-819.2" x2="819.2">
      <stop offset="0.0" stop-color="#444444"/>
      <stop offset="0.23137254901960785" stop-color="#888888"/>
      <stop offset="0.3607843137254902" stop-color="#888888"/>
      <stop offset="1.0" stop-color="#444444"/>
    </linearGradient>
    <radialGradient cx="0" cy="0" gradientTransform="matrix(0.0071, 0.0, 0.0, 0.007, 39.4, 134.75)" gradientUnits="userSpaceOnUse" id="gradient11" r="819.2" spreadMethod="pad">
      <stop offset="0.0" stop-color="#ff3300"/>
      <stop offset="1.0" stop-color="#ff0000"/>
    </radialGradient>
    <linearGradient gradientTransform="matrix(0.0087, 0.0, 0.0, 0.0038, 46.55, 145.8)" gradientUnits="userSpaceOnUse" id="gradient12" spreadMethod="pad" x1="-819.2" x2="819.2">
      <stop offset="0.0" stop-color="#444444"/>
      <stop offset="0.23137254901960785" stop-color="#888888"/>
      <stop offset="0.3607843137254902" stop-color="#888888"/>
      <stop offset="1.0" stop-color="#444444"/>
    </linearGradient>
    <linearGradient gradientTransform="matrix(0.0087, 0.0, 0.0, 0.0038, 63.9, 145.9)" gradientUnits="userSpaceOnUse" id="gradient13" spreadMethod="pad" x1="-819.2" x2="819.2">
      <stop offset="0.0" stop-color="#444444"/>
      <stop offset="0.23137254901960785" stop-color="#888888"/>
      <stop offset="0.3607843137254902" stop-color="#888888"/>
      <stop offset="1.0" stop-color="#444444"/>
    </linearGradient>
    <linearGradient gradientTransform="matrix(0.0, 0.0108, -0.0115, 0.0, 34.7, 134.4)" gradientUnits="userSpaceOnUse" id="gradient14" spreadMethod="pad" x1="-819.2" x2="819.2">
      <stop offset="0.0" stop-color="#444444"/>
      <stop offset="1.0" stop-color="#888888"/>
    </linearGradient>
    <linearGradient gradientTransform="matrix(0.0136, 0.0, 0.0, 0.0096, 128.75, 110.35)" gradientUnits="userSpaceOnUse" id="gradient15" spreadMethod="pad" x1="-819.2" x2="819.2">
      <stop offset="0.0196078431372549" stop-color="#bb0000"/>
      <stop offset="1.0" stop-color="#ff0000"/>
    </linearGradient>
    <linearGradient gradientTransform="matrix(0.0187, 0.0, 0.0, 0.0157, 137.2, 137.0)" gradientUnits="userSpaceOnUse" id="gradient16" spreadMethod="pad" x1="-819.2" x2="819.2">
      <stop offset="0.0" stop-color="#ff0000"/>
      <stop offset="1.0" stop-color="#b40000"/>
    </linearGradient>
  </defs>
</svg>
